G04*
G04 #@! TF.GenerationSoftware,Altium Limited,Altium Designer,22.1.2 (22)*
G04*
G04 Layer_Physical_Order=2*
G04 Layer_Color=16711680*
%FSLAX44Y44*%
%MOMM*%
G71*
G04*
G04 #@! TF.SameCoordinates,4FF52C19-E322-4989-B108-829305E1C033*
G04*
G04*
G04 #@! TF.FilePolarity,Positive*
G04*
G01*
G75*
%ADD14C,0.1524*%
%ADD80C,0.5080*%
%ADD86C,0.2540*%
%ADD87C,0.6350*%
%ADD88C,0.2032*%
%ADD89C,0.3048*%
%ADD92O,2.7000X3.6000*%
G04:AMPARAMS|DCode=93|XSize=1.6mm|YSize=2.1mm|CornerRadius=0mm|HoleSize=0mm|Usage=FLASHONLY|Rotation=180.000|XOffset=0mm|YOffset=0mm|HoleType=Round|Shape=Octagon|*
%AMOCTAGOND93*
4,1,8,0.4000,-1.0500,-0.4000,-1.0500,-0.8000,-0.6500,-0.8000,0.6500,-0.4000,1.0500,0.4000,1.0500,0.8000,0.6500,0.8000,-0.6500,0.4000,-1.0500,0.0*
%
%ADD93OCTAGOND93*%

%ADD94C,0.5000*%
G36*
X450534Y937166D02*
X450638Y937064D01*
X450761Y936974D01*
X450906Y936897D01*
X451072Y936831D01*
X451259Y936777D01*
X451466Y936735D01*
X451694Y936705D01*
X451943Y936687D01*
X452212Y936681D01*
X451493Y934141D01*
X451218Y934139D01*
X450317Y934075D01*
X450142Y934045D01*
X449987Y934010D01*
X449852Y933970D01*
X449737Y933925D01*
X449642Y933874D01*
X450452Y937279D01*
X450534Y937166D01*
D02*
G37*
G36*
X434729Y934101D02*
X434647Y933979D01*
X434575Y933839D01*
X434513Y933680D01*
X434460Y933502D01*
X434417Y933306D01*
X434383Y933092D01*
X434359Y932859D01*
X434340Y932337D01*
X431800D01*
X431795Y932607D01*
X431757Y933092D01*
X431723Y933306D01*
X431680Y933502D01*
X431627Y933680D01*
X431565Y933839D01*
X431493Y933979D01*
X431411Y934101D01*
X431320Y934205D01*
X434820D01*
X434729Y934101D01*
D02*
G37*
G36*
X2039105Y920270D02*
X2039001Y920361D01*
X2038879Y920443D01*
X2038739Y920515D01*
X2038580Y920577D01*
X2038402Y920630D01*
X2038206Y920673D01*
X2037992Y920707D01*
X2037759Y920731D01*
X2037237Y920750D01*
Y923290D01*
X2037507Y923295D01*
X2037992Y923333D01*
X2038206Y923367D01*
X2038402Y923410D01*
X2038580Y923463D01*
X2038739Y923525D01*
X2038879Y923597D01*
X2039001Y923679D01*
X2039105Y923770D01*
Y920270D01*
D02*
G37*
G36*
X1847175Y916639D02*
X1847078Y916742D01*
X1846962Y916834D01*
X1846827Y916915D01*
X1846672Y916985D01*
X1846499Y917045D01*
X1846306Y917094D01*
X1846093Y917131D01*
X1845862Y917158D01*
X1845342Y917180D01*
X1845628Y919720D01*
X1845899Y919724D01*
X1846603Y919784D01*
X1846800Y919821D01*
X1846979Y919865D01*
X1847140Y919918D01*
X1847282Y919978D01*
X1847406Y920047D01*
X1847511Y920123D01*
X1847175Y916639D01*
D02*
G37*
G36*
X1871305Y910290D02*
X1871208Y910392D01*
X1871092Y910484D01*
X1870957Y910565D01*
X1870802Y910635D01*
X1870629Y910695D01*
X1870436Y910743D01*
X1870224Y910781D01*
X1869992Y910808D01*
X1869472Y910830D01*
X1869758Y913370D01*
X1870029Y913374D01*
X1870733Y913435D01*
X1870930Y913471D01*
X1871109Y913515D01*
X1871270Y913568D01*
X1871412Y913628D01*
X1871536Y913697D01*
X1871641Y913773D01*
X1871305Y910290D01*
D02*
G37*
G36*
X441222Y911866D02*
X441035Y911670D01*
X440736Y911301D01*
X440624Y911127D01*
X440536Y910961D01*
X440474Y910803D01*
X440437Y910651D01*
X440424Y910507D01*
X440437Y910371D01*
X440474Y910241D01*
X437275Y911662D01*
X437331Y911690D01*
X437404Y911736D01*
X437492Y911802D01*
X437716Y911990D01*
X438358Y912595D01*
X438558Y912794D01*
X441222Y911866D01*
D02*
G37*
G36*
X645779Y909709D02*
X645901Y909627D01*
X646041Y909555D01*
X646200Y909493D01*
X646378Y909440D01*
X646574Y909397D01*
X646788Y909363D01*
X647021Y909339D01*
X647543Y909320D01*
Y906780D01*
X647273Y906775D01*
X646788Y906737D01*
X646574Y906703D01*
X646378Y906660D01*
X646200Y906607D01*
X646041Y906545D01*
X645901Y906473D01*
X645779Y906391D01*
X645675Y906300D01*
Y909800D01*
X645779Y909709D01*
D02*
G37*
G36*
X2041645Y905030D02*
X2041541Y905121D01*
X2041419Y905203D01*
X2041279Y905275D01*
X2041120Y905337D01*
X2040942Y905390D01*
X2040746Y905433D01*
X2040532Y905467D01*
X2040299Y905491D01*
X2039777Y905510D01*
Y908050D01*
X2040047Y908055D01*
X2040532Y908093D01*
X2040746Y908127D01*
X2040942Y908170D01*
X2041120Y908223D01*
X2041279Y908285D01*
X2041419Y908357D01*
X2041541Y908439D01*
X2041645Y908530D01*
Y905030D01*
D02*
G37*
G36*
X1862415Y903940D02*
X1862318Y904042D01*
X1862202Y904134D01*
X1862067Y904215D01*
X1861912Y904285D01*
X1861738Y904345D01*
X1861546Y904393D01*
X1861333Y904431D01*
X1861102Y904458D01*
X1860582Y904480D01*
X1860868Y907020D01*
X1861139Y907024D01*
X1861843Y907085D01*
X1862040Y907121D01*
X1862219Y907165D01*
X1862380Y907218D01*
X1862522Y907278D01*
X1862646Y907347D01*
X1862751Y907423D01*
X1862415Y903940D01*
D02*
G37*
G36*
X2056519Y904891D02*
X2056437Y904769D01*
X2056365Y904629D01*
X2056303Y904470D01*
X2056250Y904292D01*
X2056207Y904096D01*
X2056173Y903882D01*
X2056149Y903649D01*
X2056130Y903127D01*
X2053590D01*
X2053585Y903397D01*
X2053547Y903882D01*
X2053513Y904096D01*
X2053470Y904292D01*
X2053417Y904470D01*
X2053355Y904629D01*
X2053283Y904769D01*
X2053201Y904891D01*
X2053110Y904995D01*
X2056610D01*
X2056519Y904891D01*
D02*
G37*
G36*
X657802Y898754D02*
X657819Y898606D01*
X657857Y898454D01*
X657917Y898295D01*
X657997Y898130D01*
X658099Y897959D01*
X658223Y897782D01*
X658367Y897600D01*
X658720Y897216D01*
X656721Y895623D01*
X656526Y895812D01*
X655986Y896267D01*
X655821Y896381D01*
X655663Y896476D01*
X655512Y896552D01*
X655369Y896610D01*
X655233Y896649D01*
X655104Y896669D01*
X657806Y898895D01*
X657802Y898754D01*
D02*
G37*
G36*
X635444Y892107D02*
X635568Y892038D01*
X635710Y891978D01*
X635871Y891925D01*
X636050Y891881D01*
X636247Y891844D01*
X636698Y891796D01*
X636951Y891784D01*
X637222Y891780D01*
X637508Y889240D01*
X637238Y889235D01*
X636757Y889191D01*
X636544Y889154D01*
X636352Y889105D01*
X636178Y889045D01*
X636023Y888975D01*
X635888Y888894D01*
X635772Y888802D01*
X635675Y888699D01*
X635339Y892183D01*
X635444Y892107D01*
D02*
G37*
G36*
X1963340Y886022D02*
X1963517Y885887D01*
X1963705Y885768D01*
X1963906Y885665D01*
X1964118Y885579D01*
X1964342Y885508D01*
X1964578Y885455D01*
X1964825Y885417D01*
X1965084Y885395D01*
X1965355Y885390D01*
X1962880Y882915D01*
X1962875Y883186D01*
X1962853Y883445D01*
X1962815Y883692D01*
X1962762Y883928D01*
X1962691Y884152D01*
X1962605Y884364D01*
X1962502Y884565D01*
X1962383Y884753D01*
X1962248Y884930D01*
X1962097Y885096D01*
X1963174Y886173D01*
X1963340Y886022D01*
D02*
G37*
G36*
X1644570Y883482D02*
X1644747Y883347D01*
X1644935Y883228D01*
X1645136Y883125D01*
X1645348Y883039D01*
X1645572Y882969D01*
X1645808Y882915D01*
X1646055Y882877D01*
X1646314Y882855D01*
X1646585Y882850D01*
X1644110Y880375D01*
X1644105Y880646D01*
X1644083Y880905D01*
X1644045Y881152D01*
X1643992Y881388D01*
X1643921Y881612D01*
X1643835Y881824D01*
X1643732Y882025D01*
X1643613Y882213D01*
X1643478Y882390D01*
X1643327Y882555D01*
X1644404Y883633D01*
X1644570Y883482D01*
D02*
G37*
G36*
X1948100Y880942D02*
X1948277Y880807D01*
X1948466Y880688D01*
X1948666Y880585D01*
X1948878Y880499D01*
X1949102Y880428D01*
X1949338Y880375D01*
X1949585Y880337D01*
X1949844Y880315D01*
X1950115Y880310D01*
X1947640Y877835D01*
X1947635Y878106D01*
X1947613Y878365D01*
X1947575Y878612D01*
X1947522Y878848D01*
X1947451Y879072D01*
X1947365Y879284D01*
X1947262Y879484D01*
X1947143Y879673D01*
X1947008Y879850D01*
X1946857Y880015D01*
X1947935Y881093D01*
X1948100Y880942D01*
D02*
G37*
G36*
X1629330Y877132D02*
X1629507Y876997D01*
X1629695Y876878D01*
X1629896Y876775D01*
X1630108Y876689D01*
X1630332Y876618D01*
X1630568Y876565D01*
X1630815Y876527D01*
X1631074Y876505D01*
X1631345Y876500D01*
X1628870Y874025D01*
X1628865Y874296D01*
X1628843Y874555D01*
X1628805Y874802D01*
X1628752Y875038D01*
X1628681Y875262D01*
X1628595Y875474D01*
X1628492Y875675D01*
X1628373Y875863D01*
X1628238Y876040D01*
X1628087Y876206D01*
X1629164Y877283D01*
X1629330Y877132D01*
D02*
G37*
G36*
X1000438Y877147D02*
X1000560Y877066D01*
X1000701Y876994D01*
X1000860Y876931D01*
X1001037Y876878D01*
X1001233Y876835D01*
X1001448Y876802D01*
X1001681Y876778D01*
X1002203Y876758D01*
Y874218D01*
X1001933Y874214D01*
X1001448Y874175D01*
X1001233Y874142D01*
X1001037Y874098D01*
X1000860Y874046D01*
X1000701Y873983D01*
X1000560Y873911D01*
X1000438Y873830D01*
X1000335Y873738D01*
Y877238D01*
X1000438Y877147D01*
D02*
G37*
G36*
X1326545Y867690D02*
X1326274Y867685D01*
X1326015Y867663D01*
X1325768Y867625D01*
X1325532Y867571D01*
X1325308Y867501D01*
X1325096Y867415D01*
X1324895Y867312D01*
X1324707Y867193D01*
X1324530Y867058D01*
X1324364Y866907D01*
X1323287Y867984D01*
X1323438Y868150D01*
X1323573Y868327D01*
X1323692Y868515D01*
X1323795Y868716D01*
X1323881Y868928D01*
X1323952Y869152D01*
X1324005Y869388D01*
X1324043Y869635D01*
X1324065Y869894D01*
X1324070Y870165D01*
X1326545Y867690D01*
D02*
G37*
G36*
X257860Y944968D02*
X689880D01*
X689908Y944974D01*
X693259Y944644D01*
X696507Y943658D01*
X699501Y942058D01*
X702125Y939905D01*
X704278Y937281D01*
X705879Y934287D01*
X706479Y932308D01*
X706811Y931116D01*
X707120Y929883D01*
X708683Y923642D01*
X711419Y915997D01*
X714890Y908657D01*
X719064Y901692D01*
X723901Y895171D01*
X729354Y889154D01*
X735370Y883701D01*
X741892Y878865D01*
X748857Y874690D01*
X756197Y871218D01*
X763842Y868483D01*
X766870Y867725D01*
X766713Y866455D01*
X743979D01*
X672276Y938158D01*
X671015Y939000D01*
X669529Y939296D01*
X452163Y939296D01*
X451944Y939624D01*
X450276Y940738D01*
X448310Y941129D01*
X446343Y940738D01*
X444676Y939624D01*
X443562Y937956D01*
X443171Y935990D01*
X443562Y934024D01*
X444676Y932356D01*
X445989Y931480D01*
X445603Y930210D01*
X439264D01*
X436955Y932519D01*
Y932732D01*
X437818Y934024D01*
X438209Y935990D01*
X437818Y937956D01*
X436704Y939624D01*
X435037Y940738D01*
X433070Y941129D01*
X431104Y940738D01*
X429436Y939624D01*
X428322Y937956D01*
X427931Y935990D01*
X428322Y934024D01*
X429185Y932732D01*
Y930910D01*
X429481Y929423D01*
X430323Y928163D01*
X434908Y923578D01*
X436168Y922736D01*
X437655Y922440D01*
X441886D01*
X664156Y922440D01*
X730924Y855672D01*
X730506Y854294D01*
X730451Y854283D01*
X664748Y919986D01*
X663488Y920828D01*
X662001Y921123D01*
X457200Y921123D01*
X444799D01*
X443312Y920828D01*
X442052Y919986D01*
X436034Y913968D01*
X434516Y912954D01*
X433402Y911286D01*
X433011Y909320D01*
X433402Y907354D01*
X434516Y905686D01*
X436184Y904572D01*
X438150Y904181D01*
X440117Y904572D01*
X441784Y905686D01*
X442898Y907354D01*
X443289Y909320D01*
X443137Y910083D01*
X446408Y913354D01*
X457200D01*
X640470Y913354D01*
X640856Y912084D01*
X640256Y911684D01*
X639142Y910016D01*
X638751Y908050D01*
X639142Y906084D01*
X640256Y904416D01*
X641924Y903302D01*
X643890Y902911D01*
X645856Y903302D01*
X647148Y904165D01*
X651453D01*
X651839Y902895D01*
X651686Y902794D01*
X650572Y901126D01*
X650181Y899160D01*
X650572Y897194D01*
X651677Y895541D01*
X651662Y895470D01*
X651164Y894348D01*
X650930Y894395D01*
X636755D01*
X636620Y894409D01*
X636602Y894412D01*
X636602Y894413D01*
X635696Y895018D01*
X633730Y895409D01*
X631763Y895018D01*
X630096Y893904D01*
X628982Y892236D01*
X628591Y890270D01*
X628982Y888304D01*
X630096Y886636D01*
X631763Y885522D01*
X633730Y885131D01*
X635696Y885522D01*
X637347Y886625D01*
X649321D01*
X707873Y828073D01*
X709133Y827231D01*
X710620Y826935D01*
X719411D01*
X719796Y825665D01*
X719669Y825581D01*
X710779Y816691D01*
X710050Y815598D01*
X709793Y814310D01*
Y808084D01*
X702876Y801167D01*
X695444D01*
X695407Y801189D01*
X695354Y801229D01*
X695323Y801255D01*
X695204Y801434D01*
X693537Y802548D01*
X691570Y802939D01*
X689604Y802548D01*
X687936Y801434D01*
X686822Y799766D01*
X686431Y797800D01*
X686279Y797648D01*
X685220Y797859D01*
X683253Y797468D01*
X681586Y796354D01*
X680472Y794687D01*
X680081Y792720D01*
X680472Y790753D01*
X681586Y789086D01*
X683253Y787972D01*
X685220Y787581D01*
X686279Y787792D01*
X686431Y787640D01*
X686822Y785674D01*
X687936Y784006D01*
X689604Y782892D01*
X691570Y782501D01*
X693537Y782892D01*
X695204Y784006D01*
X695323Y784185D01*
X695354Y784211D01*
X695407Y784251D01*
X695444Y784273D01*
X709350D01*
X710638Y784530D01*
X711731Y785259D01*
X726971Y800499D01*
X727700Y801592D01*
X727957Y802880D01*
Y807835D01*
X729794Y809673D01*
X795311D01*
X795992Y808403D01*
X795651Y806690D01*
X796042Y804724D01*
X797156Y803056D01*
X798823Y801942D01*
X800432Y801622D01*
Y800328D01*
X798823Y800008D01*
X797156Y798894D01*
X796042Y797226D01*
X795651Y795260D01*
X796042Y793294D01*
X797156Y791626D01*
X798823Y790512D01*
X800790Y790121D01*
X802757Y790512D01*
X804424Y791626D01*
X804543Y791805D01*
X804574Y791831D01*
X804628Y791871D01*
X804664Y791893D01*
X931476D01*
X941218Y782151D01*
X941833Y781263D01*
X941381Y780282D01*
X940822Y779446D01*
X940431Y777480D01*
X940279Y777328D01*
X939220Y777539D01*
X937253Y777148D01*
X935586Y776034D01*
X934472Y774367D01*
X934081Y772400D01*
X934472Y770434D01*
X935586Y768766D01*
X937253Y767652D01*
X939220Y767261D01*
X940279Y767472D01*
X940431Y767320D01*
X940822Y765353D01*
X941936Y763686D01*
X943604Y762572D01*
X945570Y762181D01*
X947536Y762572D01*
X949204Y763686D01*
X949323Y763865D01*
X949354Y763891D01*
X949408Y763931D01*
X949444Y763953D01*
X1273105D01*
X1290493Y746565D01*
Y678700D01*
X1288590D01*
X1283320Y673430D01*
Y657890D01*
X1288590Y652620D01*
X1299130D01*
X1304400Y657890D01*
Y673430D01*
X1299130Y678700D01*
X1297227D01*
Y747960D01*
X1296970Y749248D01*
X1296241Y750341D01*
X1276881Y769701D01*
X1275788Y770430D01*
X1274500Y770687D01*
X1187767D01*
X1187281Y771860D01*
X1198141Y782719D01*
X1198870Y783812D01*
X1199127Y785100D01*
Y814185D01*
X1246684Y861743D01*
X1321490D01*
X1322778Y862000D01*
X1323871Y862729D01*
X1326212Y865070D01*
X1326253Y865080D01*
X1326318Y865090D01*
X1326359Y865093D01*
X1326570Y865051D01*
X1328537Y865442D01*
X1330204Y866556D01*
X1331318Y868223D01*
X1331709Y870190D01*
X1331318Y872157D01*
X1330204Y873824D01*
X1329276Y874443D01*
X1329662Y875713D01*
X1624895D01*
X1626250Y874359D01*
X1626260Y874317D01*
X1626270Y874252D01*
X1626273Y874211D01*
X1626231Y874000D01*
X1626622Y872033D01*
X1627736Y870366D01*
X1629404Y869252D01*
X1631370Y868861D01*
X1633336Y869252D01*
X1635004Y870366D01*
X1636118Y872033D01*
X1636509Y874000D01*
X1636118Y875966D01*
X1635004Y877634D01*
X1633336Y878748D01*
X1631636Y879086D01*
X1631295Y879523D01*
X1631912Y880787D01*
X1631921Y880793D01*
X1640265D01*
X1641471Y880350D01*
X1641862Y878383D01*
X1642976Y876716D01*
X1644644Y875602D01*
X1646610Y875211D01*
X1648577Y875602D01*
X1650244Y876716D01*
X1651358Y878383D01*
X1651749Y880350D01*
X1651358Y882317D01*
X1650244Y883984D01*
X1649316Y884603D01*
X1649702Y885873D01*
X1916996D01*
X1942963Y859905D01*
Y821526D01*
X1941790Y821040D01*
X1939130Y823700D01*
X1928590D01*
X1923320Y818430D01*
Y802890D01*
X1928590Y797620D01*
X1939130D01*
X1941790Y800280D01*
X1942963Y799794D01*
Y716645D01*
X1931479Y705161D01*
X1930750Y704068D01*
X1930493Y702780D01*
Y678700D01*
X1928590D01*
X1923320Y673430D01*
Y657890D01*
X1928374Y652836D01*
X1928069Y651566D01*
X1903382D01*
X1900426Y654522D01*
Y661386D01*
X1900373Y661652D01*
X1900668Y662094D01*
X1901059Y664060D01*
X1900668Y666027D01*
X1899554Y667694D01*
X1897887Y668808D01*
X1895920Y669199D01*
X1895911Y669197D01*
X1883916Y681192D01*
Y758198D01*
X1890441Y764723D01*
X1890450Y764721D01*
X1892417Y765112D01*
X1894084Y766226D01*
X1895198Y767894D01*
X1895589Y769860D01*
X1895198Y771826D01*
X1894084Y773494D01*
X1892417Y774608D01*
X1890450Y774999D01*
X1888483Y774608D01*
X1886816Y773494D01*
X1885702Y771826D01*
X1885311Y769860D01*
X1885313Y769851D01*
X1877726Y762264D01*
X1876940Y761087D01*
X1876664Y759700D01*
X1876664Y759700D01*
Y679690D01*
X1876664Y679690D01*
X1876940Y678303D01*
X1877726Y677126D01*
X1890783Y664069D01*
X1890781Y664060D01*
X1891172Y662094D01*
X1892286Y660426D01*
X1893174Y659833D01*
Y653020D01*
X1893174Y653020D01*
X1893450Y651633D01*
X1894236Y650456D01*
X1899316Y645376D01*
X1899316Y645376D01*
X1900493Y644590D01*
X1901880Y644314D01*
X1901880Y644314D01*
X2070961D01*
X2070966Y644306D01*
X2072634Y643192D01*
X2074600Y642801D01*
X2074784Y641568D01*
Y433302D01*
X2047698Y406216D01*
X1856361D01*
X1855177Y406243D01*
X1853540Y406377D01*
X1852934Y406466D01*
X1852431Y406568D01*
X1852067Y406670D01*
X1851973Y406706D01*
X1851970Y406710D01*
X1850080Y407973D01*
X1847850Y408417D01*
X1826260D01*
X1824030Y407973D01*
X1822140Y406710D01*
X1801094Y385665D01*
X1610526D01*
X1608296Y385221D01*
X1606406Y383958D01*
X1605143Y382068D01*
X1604699Y379838D01*
X1605143Y377608D01*
X1606406Y375718D01*
X1608296Y374454D01*
X1610526Y374011D01*
X1803508D01*
X1805738Y374454D01*
X1807628Y375718D01*
X1828674Y396763D01*
X1847850D01*
X1850080Y397207D01*
X1851970Y398470D01*
X1851973Y398474D01*
X1852067Y398510D01*
X1852431Y398612D01*
X1852934Y398714D01*
X1853518Y398800D01*
X1856045Y398964D01*
X2049200D01*
X2049200Y398964D01*
X2050587Y399240D01*
X2051764Y400026D01*
X2080974Y429236D01*
X2080974Y429236D01*
X2081760Y430412D01*
X2082036Y431800D01*
X2082036Y431800D01*
Y644130D01*
X2082036Y644130D01*
X2081760Y645518D01*
X2080974Y646694D01*
X2079737Y647931D01*
X2079739Y647940D01*
X2079348Y649906D01*
X2078234Y651574D01*
X2076566Y652688D01*
X2074600Y653079D01*
X2072634Y652688D01*
X2070966Y651574D01*
X2070961Y651566D01*
X1989651D01*
X1989346Y652836D01*
X1994400Y657890D01*
Y664390D01*
X1983860D01*
X1973320D01*
Y657890D01*
X1978374Y652836D01*
X1978069Y651566D01*
X1939651D01*
X1939346Y652836D01*
X1944400Y657890D01*
Y673430D01*
X1939130Y678700D01*
X1937227D01*
Y701385D01*
X1948711Y712869D01*
X1949440Y713962D01*
X1949697Y715250D01*
Y799854D01*
X1950870Y800340D01*
X1953590Y797620D01*
X1957590D01*
Y810660D01*
Y823700D01*
X1953590D01*
X1950870Y820980D01*
X1949697Y821466D01*
Y861300D01*
X1949440Y862588D01*
X1948711Y863681D01*
X1922611Y889780D01*
X1923097Y890953D01*
X1932236D01*
X1945020Y878168D01*
X1945030Y878127D01*
X1945040Y878062D01*
X1945043Y878021D01*
X1945001Y877810D01*
X1945392Y875844D01*
X1946506Y874176D01*
X1948174Y873062D01*
X1950140Y872671D01*
X1952106Y873062D01*
X1953774Y874176D01*
X1954888Y875844D01*
X1955279Y877810D01*
X1954888Y879777D01*
X1953774Y881444D01*
X1952106Y882558D01*
X1950140Y882949D01*
X1949929Y882907D01*
X1949888Y882910D01*
X1949823Y882920D01*
X1949781Y882930D01*
X1937851Y894860D01*
X1938337Y896033D01*
X1947475D01*
X1960260Y883249D01*
X1960270Y883207D01*
X1960280Y883142D01*
X1960283Y883101D01*
X1960241Y882890D01*
X1960632Y880923D01*
X1961746Y879256D01*
X1963414Y878142D01*
X1965380Y877751D01*
X1967346Y878142D01*
X1969014Y879256D01*
X1970128Y880923D01*
X1970519Y882890D01*
X1970128Y884856D01*
X1969014Y886524D01*
X1967346Y887638D01*
X1965380Y888029D01*
X1965169Y887987D01*
X1965128Y887990D01*
X1965063Y888000D01*
X1965022Y888010D01*
X1951251Y901781D01*
X1950158Y902510D01*
X1948870Y902767D01*
X1870000D01*
X1869206Y904037D01*
X1869499Y905510D01*
X1869213Y906945D01*
X1869226Y906984D01*
X1870341Y907742D01*
X1871284Y907112D01*
X1873250Y906721D01*
X1875217Y907112D01*
X1876884Y908226D01*
X1877998Y909893D01*
X1878389Y911860D01*
X1877998Y913827D01*
X1876884Y915494D01*
X1875217Y916608D01*
X1873250Y916999D01*
X1871284Y916608D01*
X1870379Y916003D01*
X1870161Y915985D01*
X1855106D01*
X1854069Y917255D01*
X1854259Y918210D01*
X1853973Y919645D01*
X1854785Y920915D01*
X2003721D01*
X2012875Y911761D01*
Y904240D01*
X2013171Y902753D01*
X2014013Y901493D01*
X2021633Y893873D01*
X2022893Y893031D01*
X2024380Y892735D01*
X2051050D01*
X2052537Y893031D01*
X2053797Y893873D01*
X2056898Y896975D01*
X2058168Y896449D01*
Y870660D01*
X2058104D01*
X2058569Y864754D01*
X2059952Y858993D01*
X2062219Y853519D01*
X2065314Y848467D01*
X2069162Y843962D01*
X2073667Y840114D01*
X2078719Y837019D01*
X2084193Y834752D01*
X2089954Y833369D01*
X2095860Y832904D01*
Y832968D01*
X2095860Y832968D01*
X2100594D01*
X2100614Y832968D01*
X2101860Y832968D01*
X2103076Y832838D01*
X2105054Y832578D01*
X2108029Y831346D01*
X2110585Y829385D01*
X2112545Y826829D01*
X2113778Y823854D01*
X2114187Y820752D01*
X2114168Y820660D01*
Y209660D01*
X2114187Y209568D01*
X2113778Y206467D01*
X2112545Y203491D01*
X2110585Y200935D01*
X2108029Y198974D01*
X2105054Y197742D01*
X2101952Y197334D01*
X2101860Y197352D01*
X1847607D01*
X1847249Y198176D01*
X1847151Y198622D01*
X1848208Y200203D01*
X1848599Y202170D01*
X1848208Y204137D01*
X1847094Y205804D01*
X1845426Y206918D01*
X1843460Y207309D01*
X1842940Y207205D01*
X1842806Y207217D01*
X1842703Y207205D01*
X1835197Y214711D01*
X1834105Y215440D01*
X1832816Y215697D01*
X1754740D01*
X1753840Y216967D01*
X1754089Y218215D01*
X1753781Y219764D01*
X1754540Y221034D01*
X1861745D01*
X1875653Y207125D01*
Y206921D01*
X1875665Y206860D01*
X1875542Y206677D01*
X1875151Y204710D01*
X1875542Y202743D01*
X1876656Y201076D01*
X1878324Y199962D01*
X1880290Y199571D01*
X1882256Y199962D01*
X1883924Y201076D01*
X1885038Y202743D01*
X1885429Y204710D01*
X1885038Y206677D01*
X1883924Y208344D01*
X1882256Y209458D01*
X1882198Y209469D01*
X1882130Y209808D01*
X1881401Y210901D01*
X1866971Y225330D01*
X1867457Y226503D01*
X1894375D01*
X1910730Y210149D01*
X1910740Y210107D01*
X1910750Y210042D01*
X1910753Y210001D01*
X1910711Y209790D01*
X1911102Y207824D01*
X1912216Y206156D01*
X1913884Y205042D01*
X1915850Y204651D01*
X1917816Y205042D01*
X1919484Y206156D01*
X1920598Y207824D01*
X1920989Y209790D01*
X1920598Y211756D01*
X1919484Y213424D01*
X1917816Y214538D01*
X1915850Y214929D01*
X1915639Y214887D01*
X1915598Y214890D01*
X1915533Y214900D01*
X1915491Y214910D01*
X1898151Y232251D01*
X1897058Y232980D01*
X1895770Y233237D01*
X1460899D01*
X1460218Y234507D01*
X1460559Y236220D01*
X1460168Y238186D01*
X1459054Y239854D01*
X1457386Y240968D01*
X1455420Y241359D01*
X1453454Y240968D01*
X1451786Y239854D01*
X1451667Y239675D01*
X1451636Y239649D01*
X1451582Y239609D01*
X1451546Y239587D01*
X912915D01*
X910518Y241983D01*
X911044Y243253D01*
X1212270D01*
X1213558Y243510D01*
X1214651Y244239D01*
X1218745Y248333D01*
X1535741D01*
X1535762Y248223D01*
X1536876Y246556D01*
X1538544Y245442D01*
X1540510Y245051D01*
X1542477Y245442D01*
X1544144Y246556D01*
X1545258Y248223D01*
X1545649Y250190D01*
X1545258Y252157D01*
X1545166Y252293D01*
X1545765Y253413D01*
X1547624D01*
X1547650Y253410D01*
X1547946Y253354D01*
X1548028Y253334D01*
X1548544Y253169D01*
X1548703Y253062D01*
X1550670Y252671D01*
X1552637Y253062D01*
X1554304Y254176D01*
X1555418Y255844D01*
X1555809Y257810D01*
X1555418Y259776D01*
X1554304Y261444D01*
X1552637Y262558D01*
X1550670Y262949D01*
X1548703Y262558D01*
X1547036Y261444D01*
X1546170Y260147D01*
X1213540D01*
X1212252Y259890D01*
X1212242Y259884D01*
X1210830Y260468D01*
X1210668Y261287D01*
X1209554Y262954D01*
X1207887Y264068D01*
X1205920Y264459D01*
X1205709Y264417D01*
X1205668Y264420D01*
X1205603Y264430D01*
X1205562Y264440D01*
X1201951Y268051D01*
X1200858Y268780D01*
X1199570Y269037D01*
X1139547D01*
X1138868Y270307D01*
X1139548Y271324D01*
X1139939Y273290D01*
X1139548Y275257D01*
X1138434Y276924D01*
X1136767Y278038D01*
X1134800Y278429D01*
X1132833Y278038D01*
X1131166Y276924D01*
X1130052Y275257D01*
X1129661Y273290D01*
X1130052Y271324D01*
X1131166Y269656D01*
X1131345Y269537D01*
X1131371Y269506D01*
X1131411Y269452D01*
X1131433Y269416D01*
Y268210D01*
X1131690Y266922D01*
X1132419Y265829D01*
X1134292Y263957D01*
X1133766Y262687D01*
X1126847D01*
X1126168Y263957D01*
X1126848Y264974D01*
X1127239Y266940D01*
X1126848Y268906D01*
X1125734Y270574D01*
X1124066Y271688D01*
X1122100Y272079D01*
X1120134Y271688D01*
X1118466Y270574D01*
X1117352Y268906D01*
X1116961Y266940D01*
X1117352Y264974D01*
X1118466Y263306D01*
X1118645Y263187D01*
X1118671Y263156D01*
X1118711Y263102D01*
X1118733Y263066D01*
Y261860D01*
X1118990Y260572D01*
X1119719Y259479D01*
X1121592Y257607D01*
X1121066Y256337D01*
X913944D01*
X901947Y268335D01*
Y409854D01*
X902847Y410246D01*
X903217Y410282D01*
X907223Y406275D01*
Y368300D01*
X907480Y367012D01*
X908209Y365919D01*
X917099Y357029D01*
X918192Y356300D01*
X919480Y356043D01*
X945686D01*
X985099Y316629D01*
X986192Y315900D01*
X987480Y315643D01*
X1285806D01*
X1311489Y289959D01*
X1312582Y289230D01*
X1313870Y288973D01*
X1326958D01*
X1327343Y287703D01*
X1326056Y286844D01*
X1325937Y286665D01*
X1325906Y286639D01*
X1325852Y286599D01*
X1325816Y286577D01*
X1094375D01*
X1094364Y286587D01*
X1094253Y286715D01*
X1094204Y286753D01*
X1093984Y287084D01*
X1092317Y288198D01*
X1090350Y288589D01*
X1088383Y288198D01*
X1086716Y287084D01*
X1085602Y285417D01*
X1085211Y283450D01*
X1085602Y281483D01*
X1086716Y279816D01*
X1088383Y278702D01*
X1090350Y278311D01*
X1092317Y278702D01*
X1093373Y279408D01*
X1093575Y279513D01*
X1093737Y279642D01*
X1093836Y279713D01*
X1093920Y279766D01*
X1093989Y279803D01*
X1094044Y279828D01*
X1094083Y279843D01*
X1325816D01*
X1325852Y279821D01*
X1325906Y279781D01*
X1325937Y279755D01*
X1326056Y279576D01*
X1327724Y278462D01*
X1329690Y278071D01*
X1331656Y278462D01*
X1333324Y279576D01*
X1334438Y281243D01*
X1334829Y283210D01*
X1334438Y285177D01*
X1333324Y286844D01*
X1332037Y287703D01*
X1332422Y288973D01*
X1547100D01*
X1548388Y289230D01*
X1549481Y289959D01*
X1561012Y301491D01*
X1566551D01*
X1566588Y301468D01*
X1566641Y301429D01*
X1566672Y301402D01*
X1566792Y301224D01*
X1568459Y300110D01*
X1570425Y299719D01*
X1572392Y300110D01*
X1574059Y301224D01*
X1575173Y302891D01*
X1575564Y304857D01*
X1575323Y306066D01*
X1576184Y307293D01*
X1576802Y307411D01*
X1576880Y307388D01*
X1578167Y306528D01*
X1580133Y306137D01*
X1582100Y306528D01*
X1583767Y307642D01*
X1584881Y309309D01*
X1585272Y311276D01*
X1584881Y313242D01*
X1583767Y314909D01*
X1582100Y316023D01*
X1580133Y316414D01*
X1578167Y316023D01*
X1576500Y314909D01*
X1576380Y314731D01*
X1576349Y314704D01*
X1576296Y314665D01*
X1576260Y314642D01*
X1558416D01*
X1557127Y314386D01*
X1556035Y313656D01*
X1543165Y300787D01*
X1456187D01*
X1455381Y301768D01*
X1455479Y302260D01*
X1455332Y302997D01*
X1456374Y304267D01*
X1486486D01*
X1486523Y304245D01*
X1486576Y304205D01*
X1486607Y304179D01*
X1486726Y304000D01*
X1488394Y302886D01*
X1490360Y302495D01*
X1492327Y302886D01*
X1493994Y304000D01*
X1495108Y305667D01*
X1495499Y307634D01*
X1495412Y308072D01*
X1496217Y309053D01*
X1497909D01*
X1498476Y309166D01*
X1500360Y308791D01*
X1502327Y309182D01*
X1503994Y310296D01*
X1505108Y311964D01*
X1505499Y313930D01*
X1505353Y314662D01*
X1505543Y314892D01*
X1506726Y315376D01*
X1508394Y314262D01*
X1510360Y313871D01*
X1512327Y314262D01*
X1513994Y315376D01*
X1515108Y317043D01*
X1515499Y319010D01*
X1515158Y320723D01*
X1515839Y321993D01*
X1525261D01*
X1525297Y321971D01*
X1525351Y321931D01*
X1525382Y321905D01*
X1525501Y321726D01*
X1527168Y320612D01*
X1529135Y320221D01*
X1531102Y320612D01*
X1532769Y321726D01*
X1533883Y323394D01*
X1534274Y325360D01*
X1533883Y327327D01*
X1532769Y328994D01*
X1531102Y330108D01*
X1529135Y330499D01*
X1527168Y330108D01*
X1525501Y328994D01*
X1525382Y328815D01*
X1525351Y328789D01*
X1525297Y328749D01*
X1525261Y328727D01*
X1487984D01*
X1481067Y335644D01*
Y453630D01*
X1480810Y454918D01*
X1480081Y456011D01*
X1447301Y488791D01*
X1446208Y489520D01*
X1444920Y489777D01*
X1418654D01*
X1418618Y489799D01*
X1418564Y489839D01*
X1418533Y489865D01*
X1418414Y490044D01*
X1416747Y491158D01*
X1414780Y491549D01*
X1412814Y491158D01*
X1412407Y490886D01*
X1411137Y491565D01*
Y508924D01*
X1442450Y540238D01*
X1443713Y542128D01*
X1444157Y544358D01*
Y644130D01*
X1443713Y646360D01*
X1442450Y648250D01*
X1441180Y649520D01*
X1439290Y650783D01*
X1437060Y651227D01*
X1434830Y650783D01*
X1432940Y649520D01*
X1431677Y647630D01*
X1431233Y645400D01*
X1431677Y643170D01*
X1432503Y641933D01*
Y546772D01*
X1401190Y515458D01*
X1399927Y513568D01*
X1399483Y511338D01*
Y461124D01*
X1366066Y427707D01*
X1341861D01*
X1341046Y427797D01*
X1340070Y427983D01*
X1339134Y428242D01*
X1338232Y428572D01*
X1337360Y428976D01*
X1336516Y429456D01*
X1335695Y430014D01*
X1335054Y430527D01*
X1316720Y448860D01*
X1314830Y450123D01*
X1312600Y450567D01*
X1214684D01*
X1171107Y494144D01*
Y581900D01*
X1170663Y584130D01*
X1169400Y586020D01*
X1053830Y701590D01*
X1051940Y702853D01*
X1049710Y703297D01*
X925250D01*
X923020Y702853D01*
X921130Y701590D01*
X896697Y677158D01*
X896135Y676764D01*
X895608Y676501D01*
X895162Y676367D01*
X894770Y676328D01*
X894378Y676367D01*
X893932Y676501D01*
X893405Y676764D01*
X892843Y677158D01*
X816340Y753660D01*
X814450Y754923D01*
X812220Y755367D01*
X802060D01*
X799830Y754923D01*
X797940Y753660D01*
X797106Y752827D01*
X766374D01*
X751570Y767630D01*
X749680Y768893D01*
X747450Y769337D01*
X718240D01*
X716010Y768893D01*
X714120Y767630D01*
X700586Y754097D01*
X673664D01*
X667750Y760010D01*
X665860Y761273D01*
X665158Y761413D01*
X664724Y762064D01*
X663056Y763178D01*
X661090Y763569D01*
X659124Y763178D01*
X657456Y762064D01*
X656342Y760396D01*
X655951Y758430D01*
X656280Y756780D01*
X634110Y734610D01*
X629030Y729530D01*
X595176Y695677D01*
X588700D01*
X586470Y695233D01*
X584580Y693970D01*
X576960Y686350D01*
X575697Y684460D01*
X575253Y682230D01*
Y674610D01*
X575697Y672380D01*
X576960Y670490D01*
X579063Y668386D01*
Y649084D01*
X568070Y638090D01*
X566807Y636200D01*
X566363Y633970D01*
Y566660D01*
X566807Y564430D01*
X568070Y562540D01*
X577793Y552816D01*
Y527290D01*
X578237Y525060D01*
X579500Y523170D01*
X618870Y483800D01*
X620760Y482537D01*
X622990Y482093D01*
X624805Y482454D01*
X626770Y482063D01*
X629000Y482507D01*
X630891Y483770D01*
X635564Y488443D01*
X657406D01*
X709069Y436780D01*
X710960Y435517D01*
X713190Y435073D01*
X796364D01*
X796647Y433650D01*
X797910Y431759D01*
X811473Y418196D01*
Y373620D01*
X811917Y371390D01*
X813180Y369500D01*
X822903Y359776D01*
Y330440D01*
Y296150D01*
X823347Y293920D01*
X824610Y292030D01*
X852550Y264090D01*
X854440Y262827D01*
X856670Y262383D01*
X864416D01*
X873703Y253096D01*
Y246620D01*
X874147Y244390D01*
X875410Y242500D01*
X877300Y241237D01*
X879530Y240793D01*
X881760Y241237D01*
X883650Y242500D01*
X884913Y244390D01*
X885357Y246620D01*
Y255510D01*
X885279Y255904D01*
X886449Y256530D01*
X909139Y233839D01*
X910232Y233110D01*
X911520Y232853D01*
X1280083D01*
X1280889Y231872D01*
X1280791Y231380D01*
X1281074Y229961D01*
X1280154Y229778D01*
X1278486Y228664D01*
X1277372Y226996D01*
X1276981Y225030D01*
X1277372Y223064D01*
X1278257Y221739D01*
X1277216Y221044D01*
X1276102Y219377D01*
X1275711Y217410D01*
X1275559Y217258D01*
X1274500Y217469D01*
X1272533Y217078D01*
X1270866Y215964D01*
X1269752Y214296D01*
X1269361Y212330D01*
X1269752Y210364D01*
X1270866Y208696D01*
X1271303Y208404D01*
X1270918Y207134D01*
X1240202D01*
X1239397Y208116D01*
X1239579Y209035D01*
X1239087Y211513D01*
X1238993Y211653D01*
X1239591Y212773D01*
X1247766D01*
X1247802Y212751D01*
X1247856Y212711D01*
X1247887Y212685D01*
X1248006Y212506D01*
X1249673Y211392D01*
X1251640Y211001D01*
X1253606Y211392D01*
X1255274Y212506D01*
X1256388Y214174D01*
X1256779Y216140D01*
X1256388Y218106D01*
X1255274Y219774D01*
X1253606Y220888D01*
X1251640Y221279D01*
X1249673Y220888D01*
X1248006Y219774D01*
X1247887Y219595D01*
X1247856Y219569D01*
X1247802Y219529D01*
X1247766Y219507D01*
X475794D01*
X454907Y240394D01*
Y277100D01*
X454650Y278388D01*
X453921Y279481D01*
X433317Y300084D01*
Y329170D01*
X433060Y330458D01*
X432331Y331551D01*
X400297Y363585D01*
Y492578D01*
X401567Y493429D01*
X402920Y493160D01*
X404886Y493551D01*
X406553Y494665D01*
X406673Y494843D01*
X406704Y494870D01*
X406757Y494909D01*
X406793Y494932D01*
X407462D01*
X408539Y494212D01*
X409827Y493956D01*
X544762D01*
X546051Y494212D01*
X547143Y494942D01*
X563141Y510939D01*
X563870Y512032D01*
X564127Y513320D01*
Y529835D01*
X564570Y531041D01*
X566536Y531432D01*
X568204Y532546D01*
X569318Y534213D01*
X569709Y536180D01*
X569318Y538147D01*
X568204Y539814D01*
X566536Y540928D01*
X564570Y541319D01*
X562603Y540928D01*
X560936Y539814D01*
X559822Y538147D01*
X559431Y536180D01*
X559473Y535969D01*
X559470Y535928D01*
X559460Y535863D01*
X559450Y535821D01*
X558379Y534751D01*
X557650Y533658D01*
X557393Y532370D01*
Y514715D01*
X543368Y500689D01*
X411217D01*
X410140Y501409D01*
X408851Y501665D01*
X406793D01*
X406757Y501688D01*
X406704Y501727D01*
X406673Y501754D01*
X406553Y501932D01*
X404886Y503046D01*
X402920Y503437D01*
X401567Y503168D01*
X400297Y504019D01*
Y544945D01*
X406163Y550812D01*
X414286D01*
X414322Y550789D01*
X414376Y550750D01*
X414407Y550723D01*
X414526Y550545D01*
X416193Y549431D01*
X418160Y549040D01*
X420126Y549431D01*
X421793Y550545D01*
X422907Y552212D01*
X423298Y554178D01*
X422907Y556145D01*
X421793Y557812D01*
X420126Y558926D01*
X418160Y559317D01*
X416193Y558926D01*
X414526Y557812D01*
X414407Y557634D01*
X414376Y557607D01*
X414322Y557568D01*
X414286Y557545D01*
X404768D01*
X403480Y557289D01*
X402388Y556559D01*
X394549Y548721D01*
X393820Y547628D01*
X393563Y546340D01*
Y362190D01*
X393820Y360902D01*
X394549Y359809D01*
X426583Y327775D01*
Y298690D01*
X426840Y297402D01*
X427569Y296309D01*
X448173Y275706D01*
Y239000D01*
X448430Y237712D01*
X449159Y236619D01*
X472019Y213759D01*
X473112Y213030D01*
X474400Y212773D01*
X1226028D01*
X1226514Y211600D01*
X1221422Y206508D01*
X1220018Y204408D01*
X1219526Y201930D01*
X1220018Y199452D01*
X1220573Y198622D01*
X1219895Y197352D01*
X268860D01*
X268768Y197334D01*
X265667Y197742D01*
X262691Y198974D01*
X260135Y200935D01*
X258174Y203491D01*
X256942Y206467D01*
X256683Y208433D01*
X256552Y209660D01*
X256552Y209660D01*
X256552Y210906D01*
Y454660D01*
X256552Y454660D01*
X256616D01*
X256152Y460566D01*
X254769Y466327D01*
X252501Y471801D01*
X249406Y476853D01*
X245558Y481358D01*
X241053Y485206D01*
X236001Y488301D01*
X230527Y490569D01*
X224766Y491952D01*
X218860Y492416D01*
Y492352D01*
X218860Y492352D01*
X196860D01*
Y492365D01*
X194972Y492613D01*
X193212Y493342D01*
X191701Y494501D01*
X190542Y496012D01*
X189813Y497772D01*
X189565Y499660D01*
X189552D01*
Y820660D01*
X189534Y820752D01*
X189942Y823854D01*
X191175Y826829D01*
X193135Y829385D01*
X195691Y831346D01*
X198666Y832578D01*
X200634Y832837D01*
X201860Y832968D01*
X201860Y832968D01*
X203106Y832968D01*
X206590D01*
X207860Y832940D01*
X207860Y832904D01*
X209116Y833002D01*
X213766Y833369D01*
X219527Y834752D01*
X225001Y837019D01*
X230053Y840114D01*
X234558Y843962D01*
X238406Y848467D01*
X241501Y853519D01*
X243769Y858993D01*
X245152Y864754D01*
X245616Y870660D01*
X245552D01*
Y932660D01*
X245534Y932752D01*
X245942Y935854D01*
X247174Y938829D01*
X249135Y941385D01*
X251691Y943345D01*
X254667Y944578D01*
X257768Y944986D01*
X257860Y944968D01*
D02*
G37*
G36*
X1009798Y868826D02*
X1009827Y868682D01*
X1009875Y868532D01*
X1009943Y868375D01*
X1010032Y868212D01*
X1010140Y868043D01*
X1010268Y867868D01*
X1010416Y867686D01*
X1010771Y867303D01*
X1008975Y865507D01*
X1008781Y865695D01*
X1008410Y866010D01*
X1008235Y866138D01*
X1008066Y866246D01*
X1007903Y866335D01*
X1007746Y866403D01*
X1007596Y866451D01*
X1007452Y866480D01*
X1007315Y866488D01*
X1009790Y868963D01*
X1009798Y868826D01*
D02*
G37*
G36*
X996759Y865782D02*
X997129Y865466D01*
X997304Y865338D01*
X997474Y865230D01*
X997636Y865142D01*
X997793Y865074D01*
X997943Y865025D01*
X998087Y864997D01*
X998225Y864988D01*
X995750Y862513D01*
X995741Y862651D01*
X995713Y862795D01*
X995664Y862945D01*
X995596Y863102D01*
X995508Y863264D01*
X995400Y863434D01*
X995272Y863609D01*
X995124Y863791D01*
X994768Y864174D01*
X996564Y865970D01*
X996759Y865782D01*
D02*
G37*
G36*
X826945Y860820D02*
X826841Y860911D01*
X826719Y860993D01*
X826579Y861065D01*
X826420Y861127D01*
X826242Y861180D01*
X826046Y861223D01*
X825832Y861257D01*
X825599Y861281D01*
X825077Y861300D01*
Y863840D01*
X825347Y863845D01*
X825832Y863883D01*
X826046Y863917D01*
X826242Y863960D01*
X826420Y864013D01*
X826579Y864075D01*
X826719Y864147D01*
X826841Y864229D01*
X826945Y864320D01*
Y860820D01*
D02*
G37*
G36*
X833295Y854320D02*
X833191Y854411D01*
X833069Y854493D01*
X832929Y854565D01*
X832770Y854627D01*
X832592Y854680D01*
X832396Y854723D01*
X832182Y854757D01*
X831949Y854781D01*
X831427Y854800D01*
Y857340D01*
X831697Y857345D01*
X832182Y857383D01*
X832396Y857417D01*
X832592Y857460D01*
X832770Y857513D01*
X832929Y857575D01*
X833069Y857647D01*
X833191Y857729D01*
X833295Y857820D01*
Y854320D01*
D02*
G37*
G36*
X826945Y847820D02*
X826841Y847911D01*
X826719Y847993D01*
X826579Y848065D01*
X826420Y848127D01*
X826242Y848180D01*
X826046Y848223D01*
X825832Y848257D01*
X825599Y848281D01*
X825077Y848300D01*
Y850840D01*
X825347Y850845D01*
X825832Y850883D01*
X826046Y850917D01*
X826242Y850960D01*
X826420Y851013D01*
X826579Y851075D01*
X826719Y851147D01*
X826841Y851229D01*
X826945Y851320D01*
Y847820D01*
D02*
G37*
G36*
X833295Y841770D02*
X833191Y841861D01*
X833069Y841943D01*
X832929Y842015D01*
X832770Y842077D01*
X832592Y842130D01*
X832396Y842173D01*
X832182Y842207D01*
X831949Y842231D01*
X831427Y842250D01*
Y844790D01*
X831697Y844795D01*
X832182Y844833D01*
X832396Y844867D01*
X832592Y844910D01*
X832770Y844963D01*
X832929Y845025D01*
X833069Y845097D01*
X833191Y845179D01*
X833295Y845270D01*
Y841770D01*
D02*
G37*
G36*
X826945Y835420D02*
X826841Y835511D01*
X826719Y835593D01*
X826579Y835665D01*
X826420Y835727D01*
X826242Y835780D01*
X826046Y835823D01*
X825832Y835857D01*
X825599Y835881D01*
X825077Y835900D01*
Y838440D01*
X825347Y838445D01*
X825832Y838483D01*
X826046Y838517D01*
X826242Y838560D01*
X826420Y838613D01*
X826579Y838675D01*
X826719Y838747D01*
X826841Y838829D01*
X826945Y838920D01*
Y835420D01*
D02*
G37*
G36*
X833295Y829070D02*
X833191Y829161D01*
X833069Y829243D01*
X832929Y829315D01*
X832770Y829377D01*
X832592Y829430D01*
X832396Y829473D01*
X832182Y829507D01*
X831949Y829531D01*
X831427Y829550D01*
Y832090D01*
X831697Y832095D01*
X832182Y832133D01*
X832396Y832167D01*
X832592Y832210D01*
X832770Y832263D01*
X832929Y832325D01*
X833069Y832397D01*
X833191Y832479D01*
X833295Y832570D01*
Y829070D01*
D02*
G37*
G36*
X981388Y831427D02*
X981510Y831346D01*
X981651Y831274D01*
X981810Y831211D01*
X981987Y831158D01*
X982183Y831115D01*
X982398Y831082D01*
X982631Y831058D01*
X983153Y831038D01*
Y828498D01*
X982883Y828494D01*
X982398Y828455D01*
X982183Y828422D01*
X981987Y828378D01*
X981810Y828326D01*
X981651Y828263D01*
X981510Y828191D01*
X981388Y828110D01*
X981285Y828018D01*
Y831518D01*
X981388Y831427D01*
D02*
G37*
G36*
X989008Y825077D02*
X989130Y824996D01*
X989271Y824924D01*
X989430Y824861D01*
X989607Y824808D01*
X989803Y824765D01*
X990018Y824732D01*
X990251Y824708D01*
X990773Y824688D01*
Y822148D01*
X990503Y822144D01*
X990018Y822105D01*
X989803Y822072D01*
X989607Y822028D01*
X989430Y821976D01*
X989271Y821913D01*
X989130Y821841D01*
X989008Y821760D01*
X988905Y821668D01*
Y825168D01*
X989008Y825077D01*
D02*
G37*
G36*
X981388Y818727D02*
X981510Y818646D01*
X981651Y818574D01*
X981810Y818511D01*
X981987Y818458D01*
X982183Y818415D01*
X982398Y818382D01*
X982631Y818358D01*
X983153Y818338D01*
Y815798D01*
X982883Y815794D01*
X982398Y815755D01*
X982183Y815722D01*
X981987Y815678D01*
X981810Y815626D01*
X981651Y815563D01*
X981510Y815491D01*
X981388Y815410D01*
X981285Y815318D01*
Y818818D01*
X981388Y818727D01*
D02*
G37*
G36*
X802771Y808252D02*
X802969Y808084D01*
X803171Y807936D01*
X803375Y807808D01*
X803584Y807699D01*
X803795Y807610D01*
X804009Y807541D01*
X804227Y807492D01*
X804447Y807462D01*
X804671Y807452D01*
Y805928D01*
X804447Y805918D01*
X804227Y805889D01*
X804009Y805839D01*
X803795Y805770D01*
X803584Y805681D01*
X803375Y805572D01*
X803171Y805444D01*
X802969Y805296D01*
X802771Y805128D01*
X802575Y804940D01*
Y808440D01*
X802771Y808252D01*
D02*
G37*
G36*
X811661Y801902D02*
X811859Y801734D01*
X812061Y801586D01*
X812265Y801458D01*
X812474Y801349D01*
X812685Y801260D01*
X812899Y801191D01*
X813117Y801142D01*
X813337Y801112D01*
X813561Y801102D01*
Y799578D01*
X813337Y799568D01*
X813117Y799538D01*
X812899Y799489D01*
X812685Y799420D01*
X812474Y799331D01*
X812265Y799222D01*
X812061Y799094D01*
X811859Y798946D01*
X811661Y798778D01*
X811465Y798590D01*
Y802090D01*
X811661Y801902D01*
D02*
G37*
G36*
X693551Y799362D02*
X693749Y799194D01*
X693951Y799046D01*
X694156Y798918D01*
X694363Y798809D01*
X694575Y798720D01*
X694789Y798651D01*
X695006Y798602D01*
X695227Y798572D01*
X695451Y798562D01*
Y797038D01*
X695227Y797028D01*
X695006Y796999D01*
X694789Y796949D01*
X694575Y796880D01*
X694363Y796791D01*
X694156Y796682D01*
X693951Y796554D01*
X693749Y796406D01*
X693551Y796238D01*
X693355Y796050D01*
Y799550D01*
X693551Y799362D01*
D02*
G37*
G36*
X802771Y796822D02*
X802969Y796654D01*
X803171Y796506D01*
X803375Y796378D01*
X803584Y796269D01*
X803795Y796180D01*
X804009Y796111D01*
X804227Y796061D01*
X804447Y796032D01*
X804671Y796022D01*
Y794498D01*
X804447Y794488D01*
X804227Y794458D01*
X804009Y794409D01*
X803795Y794340D01*
X803584Y794251D01*
X803375Y794142D01*
X803171Y794014D01*
X802969Y793866D01*
X802771Y793698D01*
X802575Y793510D01*
Y797010D01*
X802771Y796822D01*
D02*
G37*
G36*
X1168575Y790970D02*
X1168379Y791158D01*
X1168181Y791326D01*
X1167979Y791474D01*
X1167775Y791602D01*
X1167567Y791711D01*
X1167355Y791800D01*
X1167141Y791869D01*
X1166924Y791918D01*
X1166703Y791948D01*
X1166479Y791958D01*
Y793482D01*
X1166703Y793492D01*
X1166924Y793521D01*
X1167141Y793571D01*
X1167355Y793640D01*
X1167567Y793729D01*
X1167775Y793838D01*
X1167979Y793966D01*
X1168181Y794114D01*
X1168379Y794282D01*
X1168575Y794470D01*
Y790970D01*
D02*
G37*
G36*
X687201Y794282D02*
X687399Y794114D01*
X687601Y793966D01*
X687805Y793838D01*
X688014Y793729D01*
X688225Y793640D01*
X688439Y793571D01*
X688656Y793521D01*
X688877Y793492D01*
X689101Y793482D01*
Y791958D01*
X688877Y791948D01*
X688656Y791918D01*
X688439Y791869D01*
X688225Y791800D01*
X688014Y791711D01*
X687805Y791602D01*
X687601Y791474D01*
X687399Y791326D01*
X687201Y791158D01*
X687005Y790970D01*
Y794470D01*
X687201Y794282D01*
D02*
G37*
G36*
X693551Y789202D02*
X693749Y789034D01*
X693951Y788886D01*
X694156Y788758D01*
X694363Y788649D01*
X694575Y788560D01*
X694789Y788491D01*
X695006Y788441D01*
X695227Y788412D01*
X695451Y788402D01*
Y786878D01*
X695227Y786868D01*
X695006Y786839D01*
X694789Y786789D01*
X694575Y786720D01*
X694363Y786631D01*
X694156Y786522D01*
X693951Y786394D01*
X693749Y786246D01*
X693551Y786078D01*
X693355Y785890D01*
Y789390D01*
X693551Y789202D01*
D02*
G37*
G36*
X947551Y779042D02*
X947749Y778874D01*
X947951Y778726D01*
X948156Y778598D01*
X948363Y778489D01*
X948575Y778400D01*
X948789Y778331D01*
X949007Y778281D01*
X949227Y778252D01*
X949451Y778242D01*
Y776718D01*
X949227Y776708D01*
X949007Y776678D01*
X948789Y776629D01*
X948575Y776560D01*
X948363Y776471D01*
X948156Y776362D01*
X947951Y776234D01*
X947749Y776086D01*
X947551Y775918D01*
X947355Y775730D01*
Y779230D01*
X947551Y779042D01*
D02*
G37*
G36*
X941201Y773962D02*
X941399Y773794D01*
X941601Y773646D01*
X941805Y773518D01*
X942013Y773409D01*
X942225Y773320D01*
X942439Y773251D01*
X942656Y773202D01*
X942877Y773172D01*
X943101Y773162D01*
Y771638D01*
X942877Y771628D01*
X942656Y771599D01*
X942439Y771549D01*
X942225Y771480D01*
X942013Y771391D01*
X941805Y771282D01*
X941601Y771154D01*
X941399Y771006D01*
X941201Y770838D01*
X941005Y770650D01*
Y774150D01*
X941201Y773962D01*
D02*
G37*
G36*
X1890425Y767360D02*
X1890221Y767353D01*
X1890019Y767328D01*
X1889819Y767284D01*
X1889622Y767222D01*
X1889428Y767142D01*
X1889236Y767043D01*
X1889046Y766926D01*
X1888859Y766791D01*
X1888675Y766637D01*
X1888493Y766466D01*
X1887056Y767903D01*
X1887227Y768085D01*
X1887381Y768269D01*
X1887516Y768456D01*
X1887633Y768646D01*
X1887732Y768838D01*
X1887812Y769033D01*
X1887874Y769229D01*
X1887918Y769429D01*
X1887943Y769631D01*
X1887950Y769835D01*
X1890425Y767360D01*
D02*
G37*
G36*
X947551Y768882D02*
X947749Y768714D01*
X947951Y768566D01*
X948156Y768438D01*
X948363Y768329D01*
X948575Y768240D01*
X948789Y768171D01*
X949007Y768121D01*
X949227Y768092D01*
X949451Y768082D01*
Y766558D01*
X949227Y766548D01*
X949007Y766518D01*
X948789Y766469D01*
X948575Y766400D01*
X948363Y766311D01*
X948156Y766202D01*
X947951Y766074D01*
X947749Y765926D01*
X947551Y765758D01*
X947355Y765570D01*
Y769070D01*
X947551Y768882D01*
D02*
G37*
G36*
X1934630Y677358D02*
X1934653Y677094D01*
X1934691Y676861D01*
X1934744Y676659D01*
X1934812Y676488D01*
X1934896Y676348D01*
X1934995Y676239D01*
X1935110Y676161D01*
X1935239Y676115D01*
X1935384Y676099D01*
X1932336D01*
X1932481Y676115D01*
X1932610Y676161D01*
X1932725Y676239D01*
X1932824Y676348D01*
X1932908Y676488D01*
X1932976Y676659D01*
X1933029Y676861D01*
X1933067Y677094D01*
X1933090Y677358D01*
X1933098Y677654D01*
X1934622D01*
X1934630Y677358D01*
D02*
G37*
G36*
X1294630D02*
X1294653Y677094D01*
X1294691Y676861D01*
X1294744Y676659D01*
X1294812Y676488D01*
X1294896Y676348D01*
X1294995Y676239D01*
X1295110Y676161D01*
X1295239Y676115D01*
X1295384Y676099D01*
X1292336D01*
X1292481Y676115D01*
X1292610Y676161D01*
X1292725Y676239D01*
X1292824Y676348D01*
X1292908Y676488D01*
X1292976Y676659D01*
X1293029Y676861D01*
X1293067Y677094D01*
X1293090Y677358D01*
X1293098Y677654D01*
X1294622D01*
X1294630Y677358D01*
D02*
G37*
G36*
X903750Y671480D02*
X902942Y670582D01*
X902313Y669684D01*
X901864Y668786D01*
X901595Y667888D01*
X901505Y666990D01*
X901595Y666092D01*
X901864Y665194D01*
X902313Y664296D01*
X902942Y663398D01*
X903750Y662500D01*
X899260Y658010D01*
X896339Y660836D01*
X895382Y661675D01*
X895030Y661951D01*
X894761Y662132D01*
X894576Y662216D01*
X894475Y662205D01*
X889985Y666695D01*
X889996Y666796D01*
X886640Y670624D01*
X885790Y671480D01*
X890280Y675970D01*
X891178Y675162D01*
X892076Y674533D01*
X892974Y674084D01*
X893872Y673815D01*
X894770Y673725D01*
X895668Y673815D01*
X896566Y674084D01*
X897464Y674533D01*
X898362Y675162D01*
X899260Y675970D01*
X903750Y671480D01*
D02*
G37*
G36*
X1894145Y667282D02*
X1894329Y667129D01*
X1894516Y666994D01*
X1894706Y666877D01*
X1894898Y666778D01*
X1895092Y666698D01*
X1895289Y666636D01*
X1895489Y666592D01*
X1895691Y666567D01*
X1895895Y666560D01*
X1893420Y664085D01*
X1893413Y664289D01*
X1893388Y664491D01*
X1893344Y664691D01*
X1893282Y664887D01*
X1893202Y665082D01*
X1893103Y665274D01*
X1892986Y665463D01*
X1892851Y665651D01*
X1892697Y665835D01*
X1892526Y666017D01*
X1893963Y667454D01*
X1894145Y667282D01*
D02*
G37*
G36*
X869662Y665009D02*
X869494Y664811D01*
X869346Y664609D01*
X869218Y664405D01*
X869109Y664196D01*
X869020Y663985D01*
X868951Y663771D01*
X868902Y663553D01*
X868872Y663333D01*
X868862Y663109D01*
X867338D01*
X867328Y663333D01*
X867299Y663553D01*
X867249Y663771D01*
X867180Y663985D01*
X867091Y664196D01*
X866982Y664405D01*
X866854Y664609D01*
X866706Y664811D01*
X866538Y665009D01*
X866350Y665205D01*
X869850D01*
X869662Y665009D01*
D02*
G37*
G36*
X2072815Y646190D02*
X2072665Y646329D01*
X2072504Y646454D01*
X2072333Y646564D01*
X2072150Y646660D01*
X2071955Y646740D01*
X2071750Y646807D01*
X2071533Y646858D01*
X2071305Y646895D01*
X2071066Y646917D01*
X2070816Y646924D01*
Y648956D01*
X2071066Y648963D01*
X2071305Y648985D01*
X2071533Y649022D01*
X2071750Y649073D01*
X2071955Y649139D01*
X2072150Y649220D01*
X2072333Y649316D01*
X2072504Y649426D01*
X2072665Y649550D01*
X2072815Y649690D01*
Y646190D01*
D02*
G37*
G36*
X2077107Y647711D02*
X2077132Y647509D01*
X2077176Y647309D01*
X2077238Y647113D01*
X2077318Y646918D01*
X2077417Y646726D01*
X2077534Y646536D01*
X2077669Y646349D01*
X2077823Y646165D01*
X2077994Y645983D01*
X2076557Y644546D01*
X2076375Y644717D01*
X2076191Y644871D01*
X2076004Y645006D01*
X2075814Y645123D01*
X2075622Y645222D01*
X2075428Y645302D01*
X2075231Y645364D01*
X2075031Y645408D01*
X2074829Y645433D01*
X2074625Y645440D01*
X2077100Y647915D01*
X2077107Y647711D01*
D02*
G37*
G36*
X595073Y643246D02*
X594996Y643160D01*
X594928Y643057D01*
X594869Y642936D01*
X594819Y642797D01*
X594779Y642642D01*
X594747Y642468D01*
X594725Y642278D01*
X594711Y642070D01*
X594706Y641844D01*
X593182D01*
X593177Y642049D01*
X593163Y642238D01*
X593138Y642410D01*
X593103Y642565D01*
X593059Y642704D01*
X593004Y642827D01*
X592940Y642933D01*
X592865Y643022D01*
X592781Y643095D01*
X592687Y643151D01*
X595158Y643314D01*
X595073Y643246D01*
D02*
G37*
G36*
X882825Y641110D02*
X882629Y641298D01*
X882431Y641466D01*
X882229Y641614D01*
X882025Y641742D01*
X881816Y641851D01*
X881605Y641940D01*
X881391Y642009D01*
X881173Y642058D01*
X880953Y642088D01*
X880729Y642098D01*
Y643622D01*
X880953Y643632D01*
X881173Y643661D01*
X881391Y643711D01*
X881605Y643780D01*
X881816Y643869D01*
X882025Y643978D01*
X882229Y644106D01*
X882431Y644254D01*
X882629Y644422D01*
X882825Y644610D01*
Y641110D01*
D02*
G37*
G36*
X954062Y620319D02*
X953894Y620121D01*
X953746Y619919D01*
X953618Y619715D01*
X953509Y619506D01*
X953420Y619295D01*
X953351Y619081D01*
X953301Y618863D01*
X953272Y618643D01*
X953262Y618419D01*
X951738D01*
X951728Y618643D01*
X951699Y618863D01*
X951649Y619081D01*
X951580Y619295D01*
X951491Y619506D01*
X951382Y619715D01*
X951254Y619919D01*
X951106Y620121D01*
X950938Y620319D01*
X950750Y620515D01*
X954250D01*
X954062Y620319D01*
D02*
G37*
G36*
X959142Y613969D02*
X958974Y613771D01*
X958826Y613569D01*
X958698Y613364D01*
X958589Y613157D01*
X958500Y612945D01*
X958431Y612731D01*
X958382Y612514D01*
X958352Y612293D01*
X958342Y612069D01*
X956818D01*
X956808Y612293D01*
X956778Y612514D01*
X956729Y612731D01*
X956660Y612945D01*
X956571Y613157D01*
X956462Y613364D01*
X956334Y613569D01*
X956186Y613771D01*
X956018Y613969D01*
X955830Y614165D01*
X959330D01*
X959142Y613969D01*
D02*
G37*
G36*
X769005Y614624D02*
X769027Y614365D01*
X769065Y614118D01*
X769118Y613882D01*
X769189Y613658D01*
X769275Y613446D01*
X769378Y613246D01*
X769497Y613057D01*
X769632Y612880D01*
X769783Y612715D01*
X768706Y611637D01*
X768540Y611788D01*
X768363Y611923D01*
X768175Y612042D01*
X767974Y612145D01*
X767762Y612231D01*
X767538Y612301D01*
X767302Y612355D01*
X767055Y612393D01*
X766796Y612415D01*
X766525Y612420D01*
X769000Y614895D01*
X769005Y614624D01*
D02*
G37*
G36*
X779165Y612084D02*
X779187Y611825D01*
X779225Y611578D01*
X779278Y611342D01*
X779349Y611118D01*
X779435Y610906D01*
X779538Y610705D01*
X779657Y610517D01*
X779792Y610340D01*
X779943Y610174D01*
X778866Y609097D01*
X778700Y609248D01*
X778523Y609383D01*
X778335Y609502D01*
X778134Y609605D01*
X777922Y609691D01*
X777698Y609762D01*
X777462Y609815D01*
X777215Y609853D01*
X776956Y609875D01*
X776685Y609880D01*
X779160Y612355D01*
X779165Y612084D01*
D02*
G37*
G36*
X762655Y605734D02*
X762677Y605475D01*
X762715Y605228D01*
X762768Y604992D01*
X762839Y604768D01*
X762925Y604556D01*
X763028Y604356D01*
X763147Y604167D01*
X763282Y603990D01*
X763433Y603825D01*
X762355Y602747D01*
X762190Y602898D01*
X762013Y603033D01*
X761824Y603152D01*
X761624Y603255D01*
X761412Y603341D01*
X761188Y603411D01*
X760952Y603465D01*
X760705Y603503D01*
X760446Y603525D01*
X760175Y603530D01*
X762650Y606005D01*
X762655Y605734D01*
D02*
G37*
G36*
X771545Y604464D02*
X771567Y604205D01*
X771605Y603958D01*
X771658Y603722D01*
X771729Y603498D01*
X771815Y603286D01*
X771918Y603086D01*
X772037Y602897D01*
X772172Y602720D01*
X772323Y602555D01*
X771245Y601477D01*
X771080Y601628D01*
X770903Y601763D01*
X770714Y601882D01*
X770514Y601985D01*
X770302Y602071D01*
X770078Y602141D01*
X769842Y602195D01*
X769595Y602233D01*
X769336Y602255D01*
X769065Y602260D01*
X771540Y604735D01*
X771545Y604464D01*
D02*
G37*
G36*
X629305Y590494D02*
X629327Y590235D01*
X629365Y589988D01*
X629418Y589752D01*
X629489Y589528D01*
X629575Y589316D01*
X629678Y589115D01*
X629797Y588927D01*
X629932Y588750D01*
X630083Y588585D01*
X629006Y587507D01*
X628840Y587658D01*
X628663Y587793D01*
X628475Y587912D01*
X628274Y588015D01*
X628062Y588101D01*
X627838Y588172D01*
X627602Y588225D01*
X627355Y588263D01*
X627096Y588285D01*
X626825Y588290D01*
X629300Y590765D01*
X629305Y590494D01*
D02*
G37*
G36*
X737255Y572714D02*
X737277Y572455D01*
X737315Y572208D01*
X737368Y571972D01*
X737439Y571748D01*
X737525Y571536D01*
X737628Y571335D01*
X737747Y571147D01*
X737882Y570970D01*
X738033Y570804D01*
X736955Y569727D01*
X736790Y569878D01*
X736613Y570013D01*
X736424Y570132D01*
X736224Y570235D01*
X736012Y570321D01*
X735788Y570392D01*
X735552Y570445D01*
X735305Y570483D01*
X735046Y570505D01*
X734775Y570510D01*
X737250Y572985D01*
X737255Y572714D01*
D02*
G37*
G36*
X735985Y565094D02*
X736007Y564835D01*
X736045Y564588D01*
X736098Y564352D01*
X736169Y564128D01*
X736255Y563916D01*
X736358Y563716D01*
X736477Y563527D01*
X736612Y563350D01*
X736763Y563185D01*
X735686Y562107D01*
X735520Y562258D01*
X735343Y562393D01*
X735154Y562512D01*
X734954Y562615D01*
X734742Y562701D01*
X734518Y562771D01*
X734282Y562825D01*
X734035Y562863D01*
X733776Y562885D01*
X733505Y562890D01*
X735980Y565365D01*
X735985Y565094D01*
D02*
G37*
G36*
X728365D02*
X728387Y564835D01*
X728425Y564588D01*
X728478Y564352D01*
X728549Y564128D01*
X728635Y563916D01*
X728738Y563716D01*
X728857Y563527D01*
X728992Y563350D01*
X729143Y563185D01*
X728065Y562107D01*
X727900Y562258D01*
X727723Y562393D01*
X727534Y562512D01*
X727334Y562615D01*
X727122Y562701D01*
X726898Y562771D01*
X726662Y562825D01*
X726415Y562863D01*
X726156Y562885D01*
X725885Y562890D01*
X728360Y565365D01*
X728365Y565094D01*
D02*
G37*
G36*
X873293Y558440D02*
X873229Y558650D01*
X873145Y558839D01*
X873041Y559005D01*
X872918Y559149D01*
X872776Y559271D01*
X872614Y559371D01*
X872433Y559448D01*
X872232Y559504D01*
X872012Y559537D01*
X871772Y559548D01*
X872764Y561072D01*
X872985Y561076D01*
X873646Y561128D01*
X873866Y561159D01*
X874521Y561295D01*
X874738Y561354D01*
X874955Y561420D01*
X873293Y558440D01*
D02*
G37*
G36*
X728365Y557474D02*
X728387Y557215D01*
X728425Y556968D01*
X728478Y556732D01*
X728549Y556508D01*
X728635Y556296D01*
X728738Y556096D01*
X728857Y555907D01*
X728992Y555730D01*
X729143Y555564D01*
X728065Y554487D01*
X727900Y554638D01*
X727723Y554773D01*
X727534Y554892D01*
X727334Y554995D01*
X727122Y555081D01*
X726898Y555151D01*
X726662Y555205D01*
X726415Y555243D01*
X726156Y555265D01*
X725885Y555270D01*
X728360Y557745D01*
X728365Y557474D01*
D02*
G37*
G36*
X720745D02*
X720767Y557215D01*
X720805Y556968D01*
X720859Y556732D01*
X720929Y556508D01*
X721015Y556296D01*
X721118Y556096D01*
X721237Y555907D01*
X721372Y555730D01*
X721523Y555564D01*
X720445Y554487D01*
X720280Y554638D01*
X720103Y554773D01*
X719914Y554892D01*
X719714Y554995D01*
X719502Y555081D01*
X719278Y555151D01*
X719042Y555205D01*
X718795Y555243D01*
X718536Y555265D01*
X718265Y555270D01*
X720740Y557745D01*
X720745Y557474D01*
D02*
G37*
G36*
X416374Y552428D02*
X416179Y552616D01*
X415981Y552784D01*
X415779Y552932D01*
X415574Y553061D01*
X415366Y553169D01*
X415155Y553258D01*
X414941Y553327D01*
X414723Y553377D01*
X414502Y553406D01*
X414279Y553416D01*
Y554940D01*
X414502Y554950D01*
X414723Y554980D01*
X414941Y555029D01*
X415155Y555098D01*
X415366Y555187D01*
X415574Y555296D01*
X415779Y555424D01*
X415981Y555573D01*
X416179Y555741D01*
X416374Y555928D01*
Y552428D01*
D02*
G37*
G36*
X880285Y552210D02*
X880089Y552398D01*
X879891Y552566D01*
X879689Y552714D01*
X879484Y552842D01*
X879277Y552951D01*
X879065Y553040D01*
X878851Y553109D01*
X878633Y553158D01*
X878413Y553188D01*
X878189Y553198D01*
Y554722D01*
X878413Y554732D01*
X878633Y554762D01*
X878851Y554811D01*
X879065Y554880D01*
X879277Y554969D01*
X879484Y555078D01*
X879689Y555206D01*
X879891Y555354D01*
X880089Y555522D01*
X880285Y555710D01*
Y552210D01*
D02*
G37*
G36*
X720745Y549854D02*
X720767Y549595D01*
X720805Y549348D01*
X720859Y549112D01*
X720929Y548888D01*
X721015Y548676D01*
X721118Y548475D01*
X721237Y548287D01*
X721372Y548110D01*
X721523Y547944D01*
X720445Y546867D01*
X720280Y547018D01*
X720103Y547153D01*
X719914Y547272D01*
X719714Y547375D01*
X719502Y547461D01*
X719278Y547532D01*
X719042Y547585D01*
X718795Y547623D01*
X718536Y547645D01*
X718265Y547650D01*
X720740Y550125D01*
X720745Y549854D01*
D02*
G37*
G36*
X713125Y548584D02*
X713147Y548325D01*
X713185Y548078D01*
X713239Y547842D01*
X713309Y547618D01*
X713395Y547406D01*
X713498Y547206D01*
X713617Y547017D01*
X713752Y546840D01*
X713903Y546674D01*
X712825Y545597D01*
X712660Y545748D01*
X712483Y545883D01*
X712294Y546002D01*
X712094Y546105D01*
X711882Y546191D01*
X711658Y546261D01*
X711422Y546315D01*
X711175Y546353D01*
X710916Y546375D01*
X710645Y546380D01*
X713120Y548855D01*
X713125Y548584D01*
D02*
G37*
G36*
Y540964D02*
X713147Y540705D01*
X713185Y540458D01*
X713239Y540222D01*
X713309Y539998D01*
X713395Y539786D01*
X713498Y539585D01*
X713617Y539397D01*
X713752Y539220D01*
X713903Y539054D01*
X712825Y537977D01*
X712660Y538128D01*
X712483Y538263D01*
X712294Y538382D01*
X712094Y538485D01*
X711882Y538571D01*
X711658Y538642D01*
X711422Y538695D01*
X711175Y538733D01*
X710916Y538755D01*
X710645Y538760D01*
X713120Y541235D01*
X713125Y540964D01*
D02*
G37*
G36*
X891256Y537773D02*
X891337Y537785D01*
X891469Y537815D01*
X891576Y537849D01*
X891658Y537887D01*
X891715Y537930D01*
Y534430D01*
X891658Y534473D01*
X891576Y534511D01*
X891469Y534545D01*
X891337Y534575D01*
X891256Y534587D01*
Y533934D01*
X891057Y534071D01*
X890749Y534194D01*
X890332Y534302D01*
X889806Y534396D01*
X888428Y534540D01*
X886614Y534627D01*
X884365Y534656D01*
Y537704D01*
X885544Y537711D01*
X889806Y537964D01*
X890332Y538058D01*
X890749Y538166D01*
X891057Y538289D01*
X891256Y538427D01*
Y537773D01*
D02*
G37*
G36*
X564545Y533680D02*
X564274Y533675D01*
X564015Y533653D01*
X563768Y533615D01*
X563532Y533562D01*
X563308Y533491D01*
X563096Y533405D01*
X562896Y533302D01*
X562707Y533183D01*
X562530Y533048D01*
X562365Y532897D01*
X561287Y533974D01*
X561438Y534140D01*
X561573Y534317D01*
X561692Y534506D01*
X561795Y534706D01*
X561881Y534918D01*
X561951Y535142D01*
X562005Y535378D01*
X562043Y535625D01*
X562065Y535884D01*
X562070Y536155D01*
X564545Y533680D01*
D02*
G37*
G36*
X789325Y532074D02*
X789347Y531815D01*
X789385Y531568D01*
X789438Y531332D01*
X789509Y531108D01*
X789595Y530896D01*
X789698Y530695D01*
X789817Y530507D01*
X789952Y530330D01*
X790103Y530164D01*
X789025Y529087D01*
X788860Y529238D01*
X788683Y529373D01*
X788494Y529492D01*
X788294Y529595D01*
X788082Y529681D01*
X787858Y529752D01*
X787622Y529805D01*
X787375Y529843D01*
X787116Y529865D01*
X786845Y529870D01*
X789320Y532345D01*
X789325Y532074D01*
D02*
G37*
G36*
X687968Y530709D02*
X688128Y530575D01*
X688301Y530445D01*
X688690Y530195D01*
X688906Y530075D01*
X689378Y529846D01*
X689905Y529632D01*
X686706Y528211D01*
X686783Y528437D01*
X686835Y528657D01*
X686860Y528871D01*
X686858Y529080D01*
X686831Y529283D01*
X686777Y529480D01*
X686697Y529671D01*
X686591Y529857D01*
X686459Y530037D01*
X686300Y530212D01*
X687821Y530846D01*
X687968Y530709D01*
D02*
G37*
G36*
X844940Y527375D02*
X844742Y527173D01*
X844158Y526513D01*
X844065Y526385D01*
X843992Y526270D01*
X843941Y526171D01*
X843910Y526086D01*
X843900Y526015D01*
X841425Y528490D01*
X841496Y528500D01*
X841581Y528531D01*
X841681Y528582D01*
X841795Y528655D01*
X841923Y528749D01*
X842224Y528998D01*
X842583Y529332D01*
X842785Y529530D01*
X844940Y527375D01*
D02*
G37*
G36*
X849761Y518692D02*
X849959Y518524D01*
X850161Y518376D01*
X850366Y518248D01*
X850574Y518139D01*
X850785Y518050D01*
X850999Y517981D01*
X851217Y517932D01*
X851437Y517902D01*
X851661Y517892D01*
Y516368D01*
X851437Y516358D01*
X851217Y516329D01*
X850999Y516279D01*
X850785Y516210D01*
X850574Y516121D01*
X850366Y516012D01*
X850161Y515884D01*
X849959Y515736D01*
X849761Y515568D01*
X849565Y515380D01*
Y518880D01*
X849761Y518692D01*
D02*
G37*
G36*
X947055Y501994D02*
X946781Y500620D01*
X947172Y498653D01*
X948286Y496986D01*
X949954Y495872D01*
X951920Y495481D01*
X953886Y495872D01*
X955211Y496757D01*
X955906Y495716D01*
X957573Y494602D01*
X959540Y494211D01*
X960563Y494415D01*
X961833Y493410D01*
Y471295D01*
X957456Y466917D01*
X939800D01*
X938512Y466660D01*
X937419Y465931D01*
X924719Y453231D01*
X923990Y452138D01*
X923733Y450850D01*
Y420494D01*
X922378Y419140D01*
X922337Y419130D01*
X922272Y419120D01*
X922231Y419117D01*
X922020Y419159D01*
X920053Y418768D01*
X918386Y417654D01*
X917452Y416255D01*
X916169Y415894D01*
X915227Y416704D01*
Y441620D01*
X914970Y442908D01*
X914241Y444001D01*
X847363Y510878D01*
X848002Y512035D01*
X849746Y512382D01*
X851414Y513496D01*
X851533Y513675D01*
X851564Y513701D01*
X851618Y513741D01*
X851654Y513763D01*
X883207D01*
X883801Y512748D01*
X883637Y512254D01*
X883343Y512108D01*
X883340Y512109D01*
X881374Y511718D01*
X879706Y510604D01*
X878592Y508937D01*
X878201Y506970D01*
X878592Y505004D01*
X879706Y503336D01*
X881374Y502222D01*
X883340Y501831D01*
X883343Y501832D01*
X884764Y500820D01*
X884942Y499924D01*
X886056Y498256D01*
X887723Y497142D01*
X889690Y496751D01*
X891656Y497142D01*
X893324Y498256D01*
X893443Y498435D01*
X893474Y498461D01*
X893528Y498501D01*
X893564Y498523D01*
X922585D01*
X932830Y488279D01*
X932840Y488237D01*
X932850Y488172D01*
X932853Y488130D01*
X932811Y487920D01*
X933203Y485953D01*
X934316Y484286D01*
X935984Y483172D01*
X937950Y482781D01*
X939917Y483172D01*
X941584Y484286D01*
X942734Y483723D01*
X943206Y483016D01*
X944874Y481902D01*
X946840Y481511D01*
X948807Y481902D01*
X950474Y483016D01*
X951588Y484683D01*
X951979Y486650D01*
X951588Y488616D01*
X950474Y490284D01*
X948807Y491398D01*
X946840Y491789D01*
X946629Y491747D01*
X946588Y491750D01*
X946523Y491760D01*
X946481Y491770D01*
X928901Y509351D01*
X927808Y510080D01*
X926520Y510337D01*
X899477D01*
X898991Y511510D01*
X901245Y513763D01*
X935285D01*
X947055Y501994D01*
D02*
G37*
G36*
X891671Y513612D02*
X891869Y513444D01*
X892071Y513296D01*
X892275Y513168D01*
X892484Y513059D01*
X892695Y512970D01*
X892909Y512901D01*
X893127Y512851D01*
X893347Y512822D01*
X893571Y512812D01*
Y511288D01*
X893347Y511278D01*
X893127Y511249D01*
X892909Y511199D01*
X892695Y511130D01*
X892484Y511041D01*
X892275Y510932D01*
X892071Y510804D01*
X891869Y510656D01*
X891671Y510488D01*
X891475Y510300D01*
Y513800D01*
X891671Y513612D01*
D02*
G37*
G36*
X885321Y508532D02*
X885519Y508364D01*
X885721Y508216D01*
X885926Y508088D01*
X886133Y507979D01*
X886345Y507890D01*
X886559Y507821D01*
X886777Y507771D01*
X886997Y507742D01*
X887221Y507732D01*
Y506208D01*
X886997Y506198D01*
X886777Y506169D01*
X886559Y506119D01*
X886345Y506050D01*
X886133Y505961D01*
X885926Y505852D01*
X885721Y505724D01*
X885519Y505576D01*
X885321Y505408D01*
X885125Y505220D01*
Y508720D01*
X885321Y508532D01*
D02*
G37*
G36*
X950857Y504039D02*
X951018Y503905D01*
X951191Y503775D01*
X951580Y503525D01*
X951796Y503405D01*
X952268Y503176D01*
X952795Y502962D01*
X949596Y501541D01*
X949673Y501767D01*
X949725Y501987D01*
X949750Y502201D01*
X949748Y502410D01*
X949721Y502613D01*
X949667Y502810D01*
X949587Y503001D01*
X949481Y503187D01*
X949349Y503368D01*
X949190Y503542D01*
X950711Y504176D01*
X950857Y504039D01*
D02*
G37*
G36*
X891671Y503452D02*
X891869Y503284D01*
X892071Y503136D01*
X892275Y503008D01*
X892484Y502899D01*
X892695Y502810D01*
X892909Y502741D01*
X893127Y502692D01*
X893347Y502662D01*
X893571Y502652D01*
Y501128D01*
X893347Y501118D01*
X893127Y501088D01*
X892909Y501039D01*
X892695Y500970D01*
X892484Y500881D01*
X892275Y500772D01*
X892071Y500644D01*
X891869Y500496D01*
X891671Y500328D01*
X891475Y500140D01*
Y503640D01*
X891671Y503452D01*
D02*
G37*
G36*
X404900Y499861D02*
X405099Y499693D01*
X405300Y499544D01*
X405505Y499416D01*
X405713Y499307D01*
X405924Y499218D01*
X406139Y499149D01*
X406356Y499100D01*
X406577Y499070D01*
X406801Y499060D01*
Y497536D01*
X406577Y497527D01*
X406356Y497497D01*
X406139Y497448D01*
X405924Y497378D01*
X405713Y497289D01*
X405505Y497181D01*
X405300Y497052D01*
X405099Y496904D01*
X404900Y496736D01*
X404705Y496548D01*
Y500048D01*
X404900Y499861D01*
D02*
G37*
G36*
X1088102Y494829D02*
X1087934Y494631D01*
X1087786Y494429D01*
X1087658Y494225D01*
X1087549Y494016D01*
X1087460Y493805D01*
X1087391Y493591D01*
X1087342Y493373D01*
X1087312Y493153D01*
X1087302Y492929D01*
X1085778D01*
X1085768Y493153D01*
X1085739Y493373D01*
X1085689Y493591D01*
X1085620Y493805D01*
X1085531Y494016D01*
X1085422Y494225D01*
X1085294Y494429D01*
X1085146Y494631D01*
X1084978Y494829D01*
X1084790Y495025D01*
X1088290D01*
X1088102Y494829D01*
D02*
G37*
G36*
X1076672Y493559D02*
X1076504Y493361D01*
X1076356Y493159D01*
X1076228Y492954D01*
X1076119Y492747D01*
X1076030Y492535D01*
X1075961Y492321D01*
X1075911Y492104D01*
X1075882Y491883D01*
X1075872Y491659D01*
X1074348D01*
X1074338Y491883D01*
X1074308Y492104D01*
X1074259Y492321D01*
X1074190Y492535D01*
X1074101Y492747D01*
X1073992Y492954D01*
X1073864Y493159D01*
X1073716Y493361D01*
X1073548Y493559D01*
X1073360Y493755D01*
X1076860D01*
X1076672Y493559D01*
D02*
G37*
G36*
X935910Y491052D02*
X936087Y490917D01*
X936275Y490798D01*
X936476Y490695D01*
X936688Y490609D01*
X936912Y490539D01*
X937148Y490485D01*
X937395Y490447D01*
X937654Y490425D01*
X937925Y490420D01*
X935450Y487945D01*
X935445Y488216D01*
X935423Y488475D01*
X935386Y488722D01*
X935331Y488958D01*
X935261Y489182D01*
X935175Y489394D01*
X935072Y489594D01*
X934953Y489783D01*
X934818Y489960D01*
X934667Y490126D01*
X935744Y491203D01*
X935910Y491052D01*
D02*
G37*
G36*
X944800Y489782D02*
X944977Y489647D01*
X945165Y489528D01*
X945366Y489425D01*
X945578Y489339D01*
X945802Y489268D01*
X946038Y489215D01*
X946285Y489177D01*
X946544Y489155D01*
X946815Y489150D01*
X944340Y486675D01*
X944335Y486946D01*
X944313Y487205D01*
X944275Y487452D01*
X944221Y487688D01*
X944151Y487912D01*
X944065Y488124D01*
X943962Y488325D01*
X943843Y488513D01*
X943708Y488690D01*
X943557Y488856D01*
X944634Y489933D01*
X944800Y489782D01*
D02*
G37*
G36*
X1416761Y487972D02*
X1416959Y487804D01*
X1417161Y487656D01*
X1417366Y487528D01*
X1417574Y487419D01*
X1417785Y487330D01*
X1417999Y487261D01*
X1418217Y487211D01*
X1418437Y487182D01*
X1418661Y487172D01*
Y485648D01*
X1418437Y485638D01*
X1418217Y485608D01*
X1417999Y485559D01*
X1417785Y485490D01*
X1417574Y485401D01*
X1417366Y485292D01*
X1417161Y485164D01*
X1416959Y485016D01*
X1416761Y484848D01*
X1416565Y484660D01*
Y488160D01*
X1416761Y487972D01*
D02*
G37*
G36*
X1159453Y579486D02*
Y491730D01*
X1159897Y489500D01*
X1161160Y487610D01*
X1208150Y440620D01*
X1210040Y439357D01*
X1212270Y438913D01*
X1310186D01*
X1326814Y422286D01*
X1327326Y421645D01*
X1327884Y420824D01*
X1328364Y419980D01*
X1328768Y419108D01*
X1329098Y418206D01*
X1329357Y417270D01*
X1329543Y416295D01*
X1329633Y415479D01*
Y392670D01*
Y386320D01*
Y379970D01*
Y373620D01*
Y367270D01*
X1330077Y365040D01*
X1331340Y363150D01*
X1333230Y361887D01*
X1335460Y361443D01*
X1337690Y361887D01*
X1339580Y363150D01*
X1340843Y365040D01*
X1341287Y367270D01*
Y373620D01*
Y379970D01*
Y386320D01*
Y392670D01*
Y413327D01*
X1341406Y414003D01*
X1341593Y414562D01*
X1341813Y414972D01*
X1342063Y415277D01*
X1342368Y415527D01*
X1342778Y415747D01*
X1343337Y415934D01*
X1344013Y416053D01*
X1368480D01*
X1370710Y416497D01*
X1372600Y417760D01*
X1409430Y454590D01*
X1410693Y456480D01*
X1411137Y458710D01*
Y481255D01*
X1412407Y481934D01*
X1412814Y481662D01*
X1414780Y481271D01*
X1416747Y481662D01*
X1418414Y482776D01*
X1418533Y482955D01*
X1418564Y482981D01*
X1418618Y483021D01*
X1418654Y483043D01*
X1443526D01*
X1474333Y452235D01*
Y448364D01*
X1473063Y447686D01*
X1472626Y447978D01*
X1470660Y448369D01*
X1468694Y447978D01*
X1467026Y446864D01*
X1465912Y445196D01*
X1465521Y443230D01*
X1464354Y442588D01*
X1463881Y442905D01*
X1461914Y443296D01*
X1459948Y442905D01*
X1458281Y441791D01*
X1457167Y440123D01*
X1456776Y438157D01*
X1457167Y436190D01*
X1458281Y434523D01*
X1458459Y434404D01*
X1458486Y434373D01*
X1458525Y434319D01*
X1458548Y434283D01*
Y329898D01*
X1458394Y329868D01*
X1456726Y328754D01*
X1455612Y327086D01*
X1455221Y325120D01*
X1455514Y323647D01*
X1454720Y322377D01*
X1333044D01*
X1307361Y348061D01*
X1306268Y348790D01*
X1304980Y349047D01*
X1228780D01*
X1227492Y348790D01*
X1226399Y348061D01*
X1223576Y345237D01*
X1103175D01*
X1089907Y358504D01*
Y492936D01*
X1089929Y492972D01*
X1089969Y493026D01*
X1089995Y493057D01*
X1090174Y493176D01*
X1091288Y494843D01*
X1091679Y496810D01*
X1091288Y498777D01*
X1090174Y500444D01*
X1088506Y501558D01*
X1086540Y501949D01*
X1085293Y501701D01*
X1084400Y501838D01*
X1083913Y502622D01*
X1083668Y503857D01*
X1082554Y505524D01*
X1080887Y506638D01*
X1078920Y507029D01*
X1076954Y506638D01*
X1075286Y505524D01*
X1074172Y503857D01*
X1073781Y501890D01*
X1074064Y500471D01*
X1073143Y500288D01*
X1071476Y499174D01*
X1070362Y497506D01*
X1069971Y495540D01*
X1070362Y493573D01*
X1071476Y491906D01*
X1071655Y491787D01*
X1071681Y491756D01*
X1071721Y491702D01*
X1071743Y491666D01*
Y349490D01*
X1072000Y348202D01*
X1072729Y347109D01*
X1091112Y328727D01*
X1090586Y327457D01*
X991414D01*
X952001Y366871D01*
X950908Y367600D01*
X949620Y367857D01*
X924685D01*
X920307Y372234D01*
Y398381D01*
X921577Y399062D01*
X923290Y398721D01*
X925257Y399112D01*
X926924Y400226D01*
X928038Y401894D01*
X928429Y403860D01*
X928038Y405826D01*
X927813Y406162D01*
X934561Y412909D01*
X935290Y414002D01*
X935547Y415290D01*
Y446916D01*
X943735Y455103D01*
X962660D01*
X963948Y455360D01*
X965041Y456089D01*
X972661Y463709D01*
X973390Y464802D01*
X973647Y466090D01*
Y506730D01*
X973390Y508018D01*
X972661Y509111D01*
X960947Y520825D01*
Y612076D01*
X960969Y612112D01*
X961009Y612166D01*
X961035Y612197D01*
X961214Y612316D01*
X962328Y613983D01*
X962719Y615950D01*
X962328Y617916D01*
X961214Y619584D01*
X959547Y620698D01*
X957580Y621089D01*
X957428Y621241D01*
X957639Y622300D01*
X957248Y624267D01*
X956134Y625934D01*
X954466Y627048D01*
X952500Y627439D01*
X950534Y627048D01*
X948866Y625934D01*
X947752Y624267D01*
X947361Y622300D01*
X947752Y620334D01*
X948866Y618666D01*
X949045Y618547D01*
X949071Y618516D01*
X949111Y618462D01*
X949133Y618426D01*
Y518717D01*
X947960Y518231D01*
X942871Y523321D01*
X941778Y524050D01*
X940490Y524307D01*
X896040D01*
X894752Y524050D01*
X893659Y523321D01*
X890835Y520497D01*
X851654D01*
X851618Y520519D01*
X851564Y520559D01*
X851533Y520585D01*
X851414Y520764D01*
X849746Y521878D01*
X847780Y522269D01*
X846307Y521976D01*
X845530Y523099D01*
X846148Y524024D01*
X846360Y525090D01*
X853306Y532036D01*
X886572D01*
X888231Y531957D01*
X889443Y531830D01*
X889778Y531770D01*
X889835Y531755D01*
X891270Y530797D01*
X893500Y530353D01*
X895730Y530797D01*
X897620Y532060D01*
X898883Y533950D01*
X899327Y536180D01*
Y565516D01*
X920480Y586670D01*
X921743Y588560D01*
X922187Y590790D01*
Y645400D01*
X921743Y647630D01*
X920480Y649520D01*
X904938Y665063D01*
X904544Y665625D01*
X904281Y666152D01*
X904147Y666598D01*
X904108Y666990D01*
X904147Y667383D01*
X904281Y667828D01*
X904544Y668355D01*
X904938Y668917D01*
X927664Y691643D01*
X1047296D01*
X1159453Y579486D01*
D02*
G37*
G36*
X1472222Y441249D02*
X1472054Y441051D01*
X1471906Y440849D01*
X1471778Y440644D01*
X1471669Y440437D01*
X1471580Y440225D01*
X1471511Y440011D01*
X1471461Y439794D01*
X1471432Y439573D01*
X1471422Y439349D01*
X1469898D01*
X1469888Y439573D01*
X1469859Y439794D01*
X1469809Y440011D01*
X1469740Y440225D01*
X1469651Y440437D01*
X1469542Y440644D01*
X1469414Y440849D01*
X1469266Y441051D01*
X1469098Y441249D01*
X1468910Y441445D01*
X1472410D01*
X1472222Y441249D01*
D02*
G37*
G36*
X1463477Y436176D02*
X1463309Y435978D01*
X1463160Y435776D01*
X1463032Y435571D01*
X1462923Y435363D01*
X1462834Y435152D01*
X1462765Y434938D01*
X1462716Y434720D01*
X1462686Y434500D01*
X1462676Y434276D01*
X1461152D01*
X1461142Y434500D01*
X1461113Y434720D01*
X1461063Y434938D01*
X1460994Y435152D01*
X1460905Y435363D01*
X1460797Y435571D01*
X1460668Y435776D01*
X1460520Y435978D01*
X1460352Y436176D01*
X1460164Y436371D01*
X1463664D01*
X1463477Y436176D01*
D02*
G37*
G36*
X925303Y416226D02*
X925152Y416060D01*
X925017Y415883D01*
X924898Y415695D01*
X924795Y415494D01*
X924709Y415282D01*
X924639Y415058D01*
X924585Y414822D01*
X924547Y414575D01*
X924525Y414316D01*
X924520Y414045D01*
X922045Y416520D01*
X922316Y416525D01*
X922575Y416547D01*
X922822Y416585D01*
X923058Y416638D01*
X923282Y416709D01*
X923494Y416795D01*
X923695Y416898D01*
X923883Y417017D01*
X924060Y417152D01*
X924225Y417303D01*
X925303Y416226D01*
D02*
G37*
G36*
X1333202Y428692D02*
X1334155Y427929D01*
X1335146Y427255D01*
X1336175Y426671D01*
X1337240Y426177D01*
X1338343Y425773D01*
X1339483Y425459D01*
X1340659Y425235D01*
X1341874Y425100D01*
X1343125Y425055D01*
X1344985Y418705D01*
X1343779Y418642D01*
X1342699Y418451D01*
X1341747Y418134D01*
X1340921Y417689D01*
X1340222Y417118D01*
X1339651Y416419D01*
X1339207Y415593D01*
X1338889Y414641D01*
X1338698Y413562D01*
X1338635Y412355D01*
X1332285Y414215D01*
X1332240Y415466D01*
X1332105Y416680D01*
X1331881Y417858D01*
X1331567Y418997D01*
X1331163Y420100D01*
X1330668Y421165D01*
X1330085Y422193D01*
X1329411Y423185D01*
X1328648Y424138D01*
X1327795Y425055D01*
X1332285Y429545D01*
X1333202Y428692D01*
D02*
G37*
G36*
X1850387Y404603D02*
X1850773Y404394D01*
X1851251Y404209D01*
X1851823Y404049D01*
X1852488Y403914D01*
X1853246Y403803D01*
X1855041Y403655D01*
X1857208Y403606D01*
Y401574D01*
X1856078Y401562D01*
X1853246Y401377D01*
X1852488Y401266D01*
X1851823Y401131D01*
X1851251Y400971D01*
X1850773Y400787D01*
X1850387Y400577D01*
X1850094Y400344D01*
Y401199D01*
X1849946Y401104D01*
X1849785Y400979D01*
X1849635Y400840D01*
Y404340D01*
X1849785Y404201D01*
X1849946Y404076D01*
X1850094Y403981D01*
Y404837D01*
X1850387Y404603D01*
D02*
G37*
G36*
X881572Y398867D02*
X881601Y398647D01*
X881651Y398429D01*
X881720Y398215D01*
X881809Y398004D01*
X881918Y397795D01*
X882046Y397591D01*
X882194Y397389D01*
X882362Y397191D01*
X882550Y396995D01*
X879050D01*
X879238Y397191D01*
X879406Y397389D01*
X879554Y397591D01*
X879682Y397795D01*
X879791Y398004D01*
X879880Y398215D01*
X879949Y398429D01*
X879998Y398647D01*
X880028Y398867D01*
X880038Y399091D01*
X881562D01*
X881572Y398867D01*
D02*
G37*
G36*
X866332D02*
X866361Y398647D01*
X866411Y398429D01*
X866480Y398215D01*
X866569Y398004D01*
X866678Y397795D01*
X866806Y397591D01*
X866954Y397389D01*
X867122Y397191D01*
X867310Y396995D01*
X863810D01*
X863998Y397191D01*
X864166Y397389D01*
X864314Y397591D01*
X864442Y397795D01*
X864551Y398004D01*
X864640Y398215D01*
X864709Y398429D01*
X864759Y398647D01*
X864788Y398867D01*
X864798Y399091D01*
X866322D01*
X866332Y398867D01*
D02*
G37*
G36*
X851092D02*
X851122Y398647D01*
X851171Y398429D01*
X851240Y398215D01*
X851329Y398004D01*
X851438Y397795D01*
X851566Y397591D01*
X851714Y397389D01*
X851882Y397191D01*
X852070Y396995D01*
X848570D01*
X848758Y397191D01*
X848926Y397389D01*
X849074Y397591D01*
X849202Y397795D01*
X849311Y398004D01*
X849400Y398215D01*
X849469Y398429D01*
X849519Y398647D01*
X849548Y398867D01*
X849558Y399091D01*
X851082D01*
X851092Y398867D01*
D02*
G37*
G36*
X835852D02*
X835882Y398647D01*
X835931Y398429D01*
X836000Y398215D01*
X836089Y398004D01*
X836198Y397795D01*
X836326Y397591D01*
X836474Y397389D01*
X836642Y397191D01*
X836830Y396995D01*
X833330D01*
X833518Y397191D01*
X833686Y397389D01*
X833834Y397591D01*
X833962Y397795D01*
X834071Y398004D01*
X834160Y398215D01*
X834229Y398429D01*
X834278Y398647D01*
X834308Y398867D01*
X834318Y399091D01*
X835842D01*
X835852Y398867D01*
D02*
G37*
G36*
X873952Y393787D02*
X873981Y393567D01*
X874031Y393349D01*
X874100Y393135D01*
X874189Y392924D01*
X874298Y392715D01*
X874426Y392511D01*
X874574Y392309D01*
X874742Y392111D01*
X874930Y391915D01*
X871430D01*
X871618Y392111D01*
X871786Y392309D01*
X871934Y392511D01*
X872062Y392715D01*
X872171Y392924D01*
X872260Y393135D01*
X872329Y393349D01*
X872378Y393567D01*
X872408Y393787D01*
X872418Y394011D01*
X873942D01*
X873952Y393787D01*
D02*
G37*
G36*
X858712D02*
X858742Y393567D01*
X858791Y393349D01*
X858860Y393135D01*
X858949Y392924D01*
X859058Y392715D01*
X859186Y392511D01*
X859334Y392309D01*
X859502Y392111D01*
X859690Y391915D01*
X856190D01*
X856378Y392111D01*
X856546Y392309D01*
X856694Y392511D01*
X856822Y392715D01*
X856931Y392924D01*
X857020Y393135D01*
X857089Y393349D01*
X857139Y393567D01*
X857168Y393787D01*
X857178Y394011D01*
X858702D01*
X858712Y393787D01*
D02*
G37*
G36*
X843472D02*
X843502Y393567D01*
X843551Y393349D01*
X843620Y393135D01*
X843709Y392924D01*
X843818Y392715D01*
X843946Y392511D01*
X844094Y392309D01*
X844262Y392111D01*
X844450Y391915D01*
X840950D01*
X841138Y392111D01*
X841306Y392309D01*
X841454Y392511D01*
X841582Y392715D01*
X841691Y392924D01*
X841780Y393135D01*
X841849Y393349D01*
X841898Y393567D01*
X841928Y393787D01*
X841938Y394011D01*
X843462D01*
X843472Y393787D01*
D02*
G37*
G36*
X828232D02*
X828261Y393567D01*
X828311Y393349D01*
X828380Y393135D01*
X828469Y392924D01*
X828578Y392715D01*
X828706Y392511D01*
X828854Y392309D01*
X829022Y392111D01*
X829210Y391915D01*
X825710D01*
X825898Y392111D01*
X826066Y392309D01*
X826214Y392511D01*
X826342Y392715D01*
X826451Y392924D01*
X826540Y393135D01*
X826609Y393349D01*
X826658Y393567D01*
X826688Y393787D01*
X826698Y394011D01*
X828222D01*
X828232Y393787D01*
D02*
G37*
G36*
X1239651Y330732D02*
X1239849Y330564D01*
X1240051Y330416D01*
X1240256Y330288D01*
X1240463Y330179D01*
X1240675Y330090D01*
X1240889Y330021D01*
X1241106Y329972D01*
X1241327Y329942D01*
X1241551Y329932D01*
Y328408D01*
X1241327Y328398D01*
X1241106Y328368D01*
X1240889Y328319D01*
X1240675Y328250D01*
X1240463Y328161D01*
X1240256Y328052D01*
X1240051Y327924D01*
X1239849Y327776D01*
X1239651Y327608D01*
X1239455Y327420D01*
Y330920D01*
X1239651Y330732D01*
D02*
G37*
G36*
X1471422Y328883D02*
X1471431Y328665D01*
X1471458Y328447D01*
X1471502Y328228D01*
X1471564Y328008D01*
X1471644Y327788D01*
X1471742Y327568D01*
X1471858Y327347D01*
X1471991Y327126D01*
X1472143Y326904D01*
X1472312Y326683D01*
X1468837Y327102D01*
X1469039Y327269D01*
X1469219Y327442D01*
X1469378Y327623D01*
X1469516Y327810D01*
X1469633Y328004D01*
X1469728Y328205D01*
X1469803Y328412D01*
X1469856Y328627D01*
X1469887Y328848D01*
X1469898Y329077D01*
X1471422Y328883D01*
D02*
G37*
G36*
X1527350Y323610D02*
X1527154Y323798D01*
X1526956Y323966D01*
X1526754Y324114D01*
X1526550Y324242D01*
X1526342Y324351D01*
X1526130Y324440D01*
X1525916Y324509D01*
X1525699Y324558D01*
X1525478Y324588D01*
X1525254Y324598D01*
Y326122D01*
X1525478Y326132D01*
X1525699Y326161D01*
X1525916Y326211D01*
X1526130Y326280D01*
X1526342Y326369D01*
X1526550Y326478D01*
X1526754Y326606D01*
X1526956Y326754D01*
X1527154Y326922D01*
X1527350Y327110D01*
Y323610D01*
D02*
G37*
G36*
X1508575Y317260D02*
X1508379Y317448D01*
X1508181Y317616D01*
X1507979Y317764D01*
X1507775Y317892D01*
X1507567Y318001D01*
X1507355Y318090D01*
X1507141Y318159D01*
X1506924Y318209D01*
X1506703Y318238D01*
X1506479Y318248D01*
Y319772D01*
X1506703Y319782D01*
X1506924Y319811D01*
X1507141Y319861D01*
X1507355Y319930D01*
X1507567Y320019D01*
X1507775Y320128D01*
X1507979Y320256D01*
X1508181Y320404D01*
X1508379Y320572D01*
X1508575Y320760D01*
Y317260D01*
D02*
G37*
G36*
X1578348Y309526D02*
X1578153Y309713D01*
X1577954Y309881D01*
X1577753Y310030D01*
X1577548Y310158D01*
X1577340Y310267D01*
X1577129Y310356D01*
X1576915Y310425D01*
X1576697Y310474D01*
X1576476Y310504D01*
X1576252Y310514D01*
Y312038D01*
X1576476Y312048D01*
X1576697Y312077D01*
X1576915Y312127D01*
X1577129Y312196D01*
X1577340Y312285D01*
X1577548Y312393D01*
X1577753Y312522D01*
X1577954Y312670D01*
X1578153Y312838D01*
X1578348Y313026D01*
Y309526D01*
D02*
G37*
G36*
X1488575Y305884D02*
X1488379Y306072D01*
X1488181Y306240D01*
X1487979Y306388D01*
X1487775Y306516D01*
X1487567Y306625D01*
X1487355Y306714D01*
X1487141Y306783D01*
X1486924Y306833D01*
X1486703Y306862D01*
X1486479Y306872D01*
Y308396D01*
X1486703Y308406D01*
X1486924Y308435D01*
X1487141Y308485D01*
X1487355Y308554D01*
X1487567Y308643D01*
X1487775Y308752D01*
X1487979Y308880D01*
X1488181Y309028D01*
X1488379Y309196D01*
X1488575Y309384D01*
Y305884D01*
D02*
G37*
G36*
X1568640Y303107D02*
X1568445Y303295D01*
X1568246Y303463D01*
X1568044Y303611D01*
X1567840Y303740D01*
X1567632Y303848D01*
X1567421Y303937D01*
X1567206Y304007D01*
X1566989Y304056D01*
X1566768Y304086D01*
X1566544Y304095D01*
Y305619D01*
X1566768Y305629D01*
X1566989Y305659D01*
X1567206Y305708D01*
X1567421Y305777D01*
X1567632Y305866D01*
X1567840Y305975D01*
X1568044Y306103D01*
X1568246Y306252D01*
X1568445Y306420D01*
X1568640Y306607D01*
Y303107D01*
D02*
G37*
G36*
X1448395Y300690D02*
X1448223Y300889D01*
X1448044Y301067D01*
X1447859Y301224D01*
X1447669Y301360D01*
X1447472Y301476D01*
X1447269Y301570D01*
X1447059Y301644D01*
X1446844Y301696D01*
X1446623Y301728D01*
X1446395Y301738D01*
X1446550Y303262D01*
X1446769Y303271D01*
X1446988Y303298D01*
X1447207Y303344D01*
X1447426Y303408D01*
X1447644Y303490D01*
X1447862Y303590D01*
X1448080Y303708D01*
X1448297Y303845D01*
X1448514Y304000D01*
X1448731Y304173D01*
X1448395Y300690D01*
D02*
G37*
G36*
X1092467Y284821D02*
X1092646Y284643D01*
X1092831Y284486D01*
X1093021Y284349D01*
X1093218Y284234D01*
X1093421Y284140D01*
X1093631Y284066D01*
X1093846Y284014D01*
X1094067Y283983D01*
X1094295Y283972D01*
X1094140Y282448D01*
X1093921Y282439D01*
X1093702Y282412D01*
X1093483Y282366D01*
X1093264Y282302D01*
X1093046Y282220D01*
X1092828Y282120D01*
X1092610Y282001D01*
X1092393Y281865D01*
X1092176Y281710D01*
X1091959Y281537D01*
X1092295Y285021D01*
X1092467Y284821D01*
D02*
G37*
G36*
X1327905Y281460D02*
X1327709Y281648D01*
X1327511Y281816D01*
X1327309Y281964D01*
X1327104Y282092D01*
X1326897Y282201D01*
X1326685Y282290D01*
X1326471Y282359D01*
X1326254Y282409D01*
X1326033Y282438D01*
X1325809Y282448D01*
Y283972D01*
X1326033Y283982D01*
X1326254Y284011D01*
X1326471Y284061D01*
X1326685Y284130D01*
X1326897Y284219D01*
X1327104Y284328D01*
X1327309Y284456D01*
X1327511Y284604D01*
X1327709Y284772D01*
X1327905Y284960D01*
Y281460D01*
D02*
G37*
G36*
X1136362Y271309D02*
X1136194Y271111D01*
X1136046Y270909D01*
X1135918Y270704D01*
X1135809Y270497D01*
X1135720Y270285D01*
X1135651Y270071D01*
X1135602Y269853D01*
X1135572Y269633D01*
X1135562Y269409D01*
X1134038D01*
X1134028Y269633D01*
X1133998Y269853D01*
X1133949Y270071D01*
X1133880Y270285D01*
X1133791Y270497D01*
X1133682Y270704D01*
X1133554Y270909D01*
X1133406Y271111D01*
X1133238Y271309D01*
X1133050Y271505D01*
X1136550D01*
X1136362Y271309D01*
D02*
G37*
G36*
X1123662Y264959D02*
X1123494Y264761D01*
X1123346Y264559D01*
X1123218Y264354D01*
X1123109Y264146D01*
X1123020Y263935D01*
X1122951Y263721D01*
X1122902Y263503D01*
X1122872Y263283D01*
X1122862Y263059D01*
X1121338D01*
X1121328Y263283D01*
X1121299Y263503D01*
X1121249Y263721D01*
X1121180Y263935D01*
X1121091Y264146D01*
X1120982Y264354D01*
X1120854Y264559D01*
X1120706Y264761D01*
X1120538Y264959D01*
X1120350Y265155D01*
X1123850D01*
X1123662Y264959D01*
D02*
G37*
G36*
X1203880Y262452D02*
X1204057Y262317D01*
X1204246Y262198D01*
X1204446Y262095D01*
X1204658Y262009D01*
X1204882Y261938D01*
X1205118Y261885D01*
X1205365Y261847D01*
X1205624Y261825D01*
X1205895Y261820D01*
X1203420Y259345D01*
X1203415Y259616D01*
X1203393Y259875D01*
X1203355Y260122D01*
X1203301Y260358D01*
X1203231Y260582D01*
X1203145Y260794D01*
X1203042Y260994D01*
X1202923Y261183D01*
X1202788Y261360D01*
X1202637Y261525D01*
X1203715Y262603D01*
X1203880Y262452D01*
D02*
G37*
G36*
X1168575Y257570D02*
X1168379Y257758D01*
X1168181Y257926D01*
X1167979Y258074D01*
X1167775Y258202D01*
X1167567Y258311D01*
X1167355Y258400D01*
X1167141Y258469D01*
X1166924Y258519D01*
X1166703Y258548D01*
X1166479Y258558D01*
Y260082D01*
X1166703Y260092D01*
X1166924Y260121D01*
X1167141Y260171D01*
X1167355Y260240D01*
X1167567Y260329D01*
X1167775Y260438D01*
X1167979Y260566D01*
X1168181Y260714D01*
X1168379Y260882D01*
X1168575Y261070D01*
Y257570D01*
D02*
G37*
G36*
X1549745Y255487D02*
X1549482Y255588D01*
X1548734Y255827D01*
X1548499Y255885D01*
X1548049Y255970D01*
X1547835Y255997D01*
X1547427Y256018D01*
X1546684Y257542D01*
X1546921Y257553D01*
X1547142Y257587D01*
X1547346Y257643D01*
X1547535Y257722D01*
X1547707Y257824D01*
X1547862Y257948D01*
X1548002Y258094D01*
X1548125Y258263D01*
X1548232Y258455D01*
X1548322Y258669D01*
X1549745Y255487D01*
D02*
G37*
G36*
X1538030Y249874D02*
X1537992Y250076D01*
X1537930Y250257D01*
X1537847Y250417D01*
X1537740Y250555D01*
X1537611Y250672D01*
X1537459Y250768D01*
X1537284Y250842D01*
X1537087Y250895D01*
X1536867Y250927D01*
X1536624Y250938D01*
X1537018Y252462D01*
X1539919Y252619D01*
X1538030Y249874D01*
D02*
G37*
G36*
X1453635Y234470D02*
X1453439Y234658D01*
X1453241Y234826D01*
X1453039Y234974D01*
X1452834Y235102D01*
X1452626Y235211D01*
X1452415Y235300D01*
X1452201Y235369D01*
X1451983Y235418D01*
X1451763Y235448D01*
X1451539Y235458D01*
Y236982D01*
X1451763Y236992D01*
X1451983Y237022D01*
X1452201Y237071D01*
X1452415Y237140D01*
X1452626Y237229D01*
X1452834Y237338D01*
X1453039Y237466D01*
X1453241Y237614D01*
X1453439Y237782D01*
X1453635Y237970D01*
Y234470D01*
D02*
G37*
G36*
X1284422Y226063D02*
X1284566Y225874D01*
X1284721Y225707D01*
X1284887Y225562D01*
X1285064Y225440D01*
X1285253Y225340D01*
X1285452Y225262D01*
X1285663Y225207D01*
X1285884Y225173D01*
X1286116Y225162D01*
X1285697Y223638D01*
X1285487Y223631D01*
X1285273Y223608D01*
X1285055Y223571D01*
X1284832Y223518D01*
X1284605Y223450D01*
X1284374Y223368D01*
X1283899Y223157D01*
X1283655Y223029D01*
X1283407Y222887D01*
X1284289Y226274D01*
X1284422Y226063D01*
D02*
G37*
G36*
X1747165Y216465D02*
X1746969Y216653D01*
X1746771Y216821D01*
X1746569Y216969D01*
X1746364Y217098D01*
X1746156Y217206D01*
X1745945Y217295D01*
X1745731Y217364D01*
X1745513Y217414D01*
X1745293Y217444D01*
X1745069Y217453D01*
Y218977D01*
X1745293Y218987D01*
X1745513Y219017D01*
X1745731Y219066D01*
X1745945Y219135D01*
X1746156Y219224D01*
X1746364Y219333D01*
X1746569Y219461D01*
X1746771Y219610D01*
X1746969Y219778D01*
X1747165Y219965D01*
Y216465D01*
D02*
G37*
G36*
X1249855Y214390D02*
X1249659Y214578D01*
X1249461Y214746D01*
X1249259Y214894D01*
X1249054Y215022D01*
X1248847Y215131D01*
X1248635Y215220D01*
X1248421Y215289D01*
X1248204Y215338D01*
X1247983Y215368D01*
X1247759Y215378D01*
Y216902D01*
X1247983Y216912D01*
X1248204Y216942D01*
X1248421Y216991D01*
X1248635Y217060D01*
X1248847Y217149D01*
X1249054Y217258D01*
X1249259Y217386D01*
X1249461Y217534D01*
X1249659Y217702D01*
X1249855Y217890D01*
Y214390D01*
D02*
G37*
G36*
X1276481Y213892D02*
X1276679Y213724D01*
X1276881Y213576D01*
X1277085Y213448D01*
X1277293Y213339D01*
X1277505Y213250D01*
X1277719Y213181D01*
X1277936Y213132D01*
X1278157Y213102D01*
X1278381Y213092D01*
Y211568D01*
X1278157Y211558D01*
X1277936Y211528D01*
X1277719Y211479D01*
X1277505Y211410D01*
X1277293Y211321D01*
X1277085Y211212D01*
X1276881Y211084D01*
X1276679Y210936D01*
X1276481Y210768D01*
X1276285Y210580D01*
Y214080D01*
X1276481Y213892D01*
D02*
G37*
G36*
X1913810Y212922D02*
X1913987Y212787D01*
X1914176Y212668D01*
X1914376Y212565D01*
X1914588Y212479D01*
X1914812Y212409D01*
X1915048Y212355D01*
X1915295Y212317D01*
X1915554Y212295D01*
X1915825Y212290D01*
X1913350Y209815D01*
X1913345Y210086D01*
X1913323Y210345D01*
X1913285Y210592D01*
X1913232Y210828D01*
X1913161Y211052D01*
X1913075Y211264D01*
X1912972Y211465D01*
X1912853Y211653D01*
X1912718Y211830D01*
X1912567Y211996D01*
X1913645Y213073D01*
X1913810Y212922D01*
D02*
G37*
G36*
X1841123Y205116D02*
X1841303Y204982D01*
X1841492Y204868D01*
X1841691Y204775D01*
X1841900Y204702D01*
X1842119Y204650D01*
X1842348Y204617D01*
X1842586Y204606D01*
X1842835Y204614D01*
X1843093Y204643D01*
X1840980Y201853D01*
X1840938Y202130D01*
X1840819Y202645D01*
X1840742Y202882D01*
X1840653Y203107D01*
X1840552Y203319D01*
X1840440Y203518D01*
X1840316Y203704D01*
X1840180Y203876D01*
X1840033Y204036D01*
X1840954Y205270D01*
X1841123Y205116D01*
D02*
G37*
%LPC*%
G36*
X1644130Y823700D02*
X1640130D01*
Y811930D01*
X1649400D01*
Y818430D01*
X1644130Y823700D01*
D02*
G37*
G36*
X1964130D02*
X1960130D01*
Y811930D01*
X1969400D01*
Y818430D01*
X1964130Y823700D01*
D02*
G37*
G36*
X1324130D02*
X1320130D01*
Y811930D01*
X1329400D01*
Y818430D01*
X1324130Y823700D01*
D02*
G37*
G36*
X1317590D02*
X1313590D01*
X1308320Y818430D01*
Y811930D01*
X1317590D01*
Y823700D01*
D02*
G37*
G36*
X1637590D02*
X1633590D01*
X1628320Y818430D01*
Y811930D01*
X1637590D01*
Y823700D01*
D02*
G37*
G36*
X1989130D02*
X1978590D01*
X1973320Y818430D01*
Y802890D01*
X1978590Y797620D01*
X1989130D01*
X1994400Y802890D01*
Y818430D01*
X1989130Y823700D01*
D02*
G37*
G36*
X1969400Y809390D02*
X1960130D01*
Y797620D01*
X1964130D01*
X1969400Y802890D01*
Y809390D01*
D02*
G37*
G36*
X1669130Y823700D02*
X1658590D01*
X1653320Y818430D01*
Y802890D01*
X1658590Y797620D01*
X1669130D01*
X1674400Y802890D01*
Y818430D01*
X1669130Y823700D01*
D02*
G37*
G36*
X1649400Y809390D02*
X1640130D01*
Y797620D01*
X1644130D01*
X1649400Y802890D01*
Y809390D01*
D02*
G37*
G36*
X1637590D02*
X1628320D01*
Y802890D01*
X1633590Y797620D01*
X1637590D01*
Y809390D01*
D02*
G37*
G36*
X1619130Y823700D02*
X1608590D01*
X1603320Y818430D01*
Y802890D01*
X1608590Y797620D01*
X1619130D01*
X1624400Y802890D01*
Y818430D01*
X1619130Y823700D01*
D02*
G37*
G36*
X1349130D02*
X1338590D01*
X1333320Y818430D01*
Y802890D01*
X1338590Y797620D01*
X1349130D01*
X1354400Y802890D01*
Y818430D01*
X1349130Y823700D01*
D02*
G37*
G36*
X1329400Y809390D02*
X1320130D01*
Y797620D01*
X1324130D01*
X1329400Y802890D01*
Y809390D01*
D02*
G37*
G36*
X1317590D02*
X1308320D01*
Y802890D01*
X1313590Y797620D01*
X1317590D01*
Y809390D01*
D02*
G37*
G36*
X1299130Y823700D02*
X1288590D01*
X1283320Y818430D01*
Y802890D01*
X1288590Y797620D01*
X1299130D01*
X1304400Y802890D01*
Y818430D01*
X1299130Y823700D01*
D02*
G37*
G36*
X276860Y817118D02*
X271548Y816700D01*
X266366Y815456D01*
X261443Y813417D01*
X256900Y810633D01*
X252848Y807172D01*
X249387Y803120D01*
X246603Y798577D01*
X244564Y793654D01*
X243320Y788472D01*
X242902Y783160D01*
X243320Y777848D01*
X244564Y772666D01*
X246603Y767743D01*
X249387Y763200D01*
X252848Y759148D01*
X256900Y755687D01*
X261443Y752903D01*
X266366Y750864D01*
X271548Y749620D01*
X276860Y749202D01*
X282172Y749620D01*
X287354Y750864D01*
X292277Y752903D01*
X296820Y755687D01*
X300872Y759148D01*
X304333Y763200D01*
X307117Y767743D01*
X309156Y772666D01*
X310400Y777848D01*
X310818Y783160D01*
X310400Y788472D01*
X309156Y793654D01*
X307117Y798577D01*
X304333Y803120D01*
X300872Y807172D01*
X296820Y810633D01*
X292277Y813417D01*
X287354Y815456D01*
X282172Y816700D01*
X276860Y817118D01*
D02*
G37*
G36*
X2015860Y756278D02*
X2012716Y755968D01*
X2009692Y755051D01*
X2006906Y753561D01*
X2004463Y751557D01*
X2002459Y749115D01*
X2000969Y746328D01*
X2000052Y743304D01*
X1999742Y740160D01*
Y731160D01*
X2000052Y728016D01*
X2000969Y724992D01*
X2002459Y722206D01*
X2004463Y719763D01*
X2006906Y717759D01*
X2009692Y716269D01*
X2012716Y715352D01*
X2015860Y715042D01*
X2019004Y715352D01*
X2022028Y716269D01*
X2024814Y717759D01*
X2027257Y719763D01*
X2029261Y722206D01*
X2030751Y724992D01*
X2031668Y728016D01*
X2031978Y731160D01*
Y740160D01*
X2031668Y743304D01*
X2030751Y746328D01*
X2029261Y749115D01*
X2027257Y751557D01*
X2024814Y753561D01*
X2022028Y755051D01*
X2019004Y755968D01*
X2015860Y756278D01*
D02*
G37*
G36*
X1901860D02*
X1898716Y755968D01*
X1895692Y755051D01*
X1892905Y753561D01*
X1890463Y751557D01*
X1888459Y749115D01*
X1886969Y746328D01*
X1886052Y743304D01*
X1885742Y740160D01*
Y731160D01*
X1886052Y728016D01*
X1886969Y724992D01*
X1888459Y722206D01*
X1890463Y719763D01*
X1892905Y717759D01*
X1895692Y716269D01*
X1898716Y715352D01*
X1901860Y715042D01*
X1905004Y715352D01*
X1908028Y716269D01*
X1910815Y717759D01*
X1913257Y719763D01*
X1915261Y722206D01*
X1916751Y724992D01*
X1917668Y728016D01*
X1917978Y731160D01*
Y740160D01*
X1917668Y743304D01*
X1916751Y746328D01*
X1915261Y749115D01*
X1913257Y751557D01*
X1910815Y753561D01*
X1908028Y755051D01*
X1905004Y755968D01*
X1901860Y756278D01*
D02*
G37*
G36*
X1695860D02*
X1692716Y755968D01*
X1689692Y755051D01*
X1686906Y753561D01*
X1684463Y751557D01*
X1682459Y749115D01*
X1680969Y746328D01*
X1680052Y743304D01*
X1679742Y740160D01*
Y731160D01*
X1680052Y728016D01*
X1680969Y724992D01*
X1682459Y722206D01*
X1684463Y719763D01*
X1686906Y717759D01*
X1689692Y716269D01*
X1692716Y715352D01*
X1695860Y715042D01*
X1699004Y715352D01*
X1702028Y716269D01*
X1704814Y717759D01*
X1707257Y719763D01*
X1709261Y722206D01*
X1710751Y724992D01*
X1711668Y728016D01*
X1711978Y731160D01*
Y740160D01*
X1711668Y743304D01*
X1710751Y746328D01*
X1709261Y749115D01*
X1707257Y751557D01*
X1704814Y753561D01*
X1702028Y755051D01*
X1699004Y755968D01*
X1695860Y756278D01*
D02*
G37*
G36*
X1581860D02*
X1578716Y755968D01*
X1575692Y755051D01*
X1572905Y753561D01*
X1570463Y751557D01*
X1568459Y749115D01*
X1566969Y746328D01*
X1566052Y743304D01*
X1565742Y740160D01*
Y731160D01*
X1566052Y728016D01*
X1566969Y724992D01*
X1568459Y722206D01*
X1570463Y719763D01*
X1572905Y717759D01*
X1575692Y716269D01*
X1578716Y715352D01*
X1581860Y715042D01*
X1585004Y715352D01*
X1588028Y716269D01*
X1590815Y717759D01*
X1593257Y719763D01*
X1595261Y722206D01*
X1596751Y724992D01*
X1597668Y728016D01*
X1597978Y731160D01*
Y740160D01*
X1597668Y743304D01*
X1596751Y746328D01*
X1595261Y749115D01*
X1593257Y751557D01*
X1590815Y753561D01*
X1588028Y755051D01*
X1585004Y755968D01*
X1581860Y756278D01*
D02*
G37*
G36*
X1375860D02*
X1372716Y755968D01*
X1369692Y755051D01*
X1366906Y753561D01*
X1364463Y751557D01*
X1362459Y749115D01*
X1360969Y746328D01*
X1360052Y743304D01*
X1359742Y740160D01*
Y731160D01*
X1360052Y728016D01*
X1360969Y724992D01*
X1362459Y722206D01*
X1364463Y719763D01*
X1366906Y717759D01*
X1369692Y716269D01*
X1372716Y715352D01*
X1375860Y715042D01*
X1379004Y715352D01*
X1382028Y716269D01*
X1384814Y717759D01*
X1387257Y719763D01*
X1389261Y722206D01*
X1390751Y724992D01*
X1391668Y728016D01*
X1391978Y731160D01*
Y740160D01*
X1391668Y743304D01*
X1390751Y746328D01*
X1389261Y749115D01*
X1387257Y751557D01*
X1384814Y753561D01*
X1382028Y755051D01*
X1379004Y755968D01*
X1375860Y756278D01*
D02*
G37*
G36*
X1261860D02*
X1258716Y755968D01*
X1255692Y755051D01*
X1252906Y753561D01*
X1250463Y751557D01*
X1248459Y749115D01*
X1246969Y746328D01*
X1246052Y743304D01*
X1245742Y740160D01*
Y731160D01*
X1246052Y728016D01*
X1246969Y724992D01*
X1248459Y722206D01*
X1250463Y719763D01*
X1252906Y717759D01*
X1255692Y716269D01*
X1258716Y715352D01*
X1261860Y715042D01*
X1265004Y715352D01*
X1268028Y716269D01*
X1270815Y717759D01*
X1273257Y719763D01*
X1275261Y722206D01*
X1276751Y724992D01*
X1277668Y728016D01*
X1277978Y731160D01*
Y740160D01*
X1277668Y743304D01*
X1276751Y746328D01*
X1275261Y749115D01*
X1273257Y751557D01*
X1270815Y753561D01*
X1268028Y755051D01*
X1265004Y755968D01*
X1261860Y756278D01*
D02*
G37*
G36*
X329406Y742311D02*
X325780Y741833D01*
X322401Y740434D01*
X319500Y738207D01*
X317273Y735306D01*
X315874Y731927D01*
X315396Y728301D01*
X315874Y724675D01*
X317273Y721296D01*
X319500Y718394D01*
X322401Y716168D01*
X325780Y714769D01*
X329406Y714291D01*
X333032Y714769D01*
X336411Y716168D01*
X339313Y718394D01*
X341539Y721296D01*
X342939Y724675D01*
X343416Y728301D01*
X342939Y731927D01*
X341539Y735306D01*
X339313Y738207D01*
X336411Y740434D01*
X333032Y741833D01*
X329406Y742311D01*
D02*
G37*
G36*
X367030Y746819D02*
X365064Y746428D01*
X363396Y745314D01*
X362282Y743646D01*
X361891Y741680D01*
X361933Y741469D01*
X361930Y741428D01*
X361920Y741363D01*
X361910Y741321D01*
X360839Y740251D01*
X360110Y739158D01*
X359853Y737870D01*
Y694815D01*
X354206Y689167D01*
X349314D01*
X349278Y689189D01*
X349224Y689229D01*
X349193Y689255D01*
X349074Y689434D01*
X347407Y690548D01*
X345440Y690939D01*
X343474Y690548D01*
X341806Y689434D01*
X340692Y687766D01*
X340301Y685800D01*
X340692Y683833D01*
X341806Y682166D01*
X343474Y681052D01*
X345440Y680661D01*
X347407Y681052D01*
X349074Y682166D01*
X349193Y682345D01*
X349224Y682371D01*
X349278Y682411D01*
X349314Y682433D01*
X355600D01*
X356888Y682690D01*
X357981Y683419D01*
X365601Y691039D01*
X366330Y692132D01*
X366587Y693420D01*
Y735335D01*
X367030Y736541D01*
X368997Y736932D01*
X370664Y738046D01*
X371778Y739714D01*
X372169Y741680D01*
X371778Y743646D01*
X370664Y745314D01*
X368997Y746428D01*
X367030Y746819D01*
D02*
G37*
G36*
X429950Y679749D02*
X427984Y679358D01*
X426316Y678244D01*
X426197Y678065D01*
X426166Y678039D01*
X426112Y677999D01*
X426076Y677977D01*
X420305D01*
X419017Y677720D01*
X417925Y676991D01*
X411059Y670125D01*
X410330Y669033D01*
X410073Y667745D01*
Y648064D01*
X399346Y637337D01*
X325874D01*
X325838Y637359D01*
X325784Y637399D01*
X325753Y637425D01*
X325634Y637604D01*
X323966Y638718D01*
X322000Y639109D01*
X320033Y638718D01*
X318366Y637604D01*
X317252Y635937D01*
X316861Y633970D01*
X317252Y632004D01*
X318366Y630336D01*
X320033Y629222D01*
X322000Y628831D01*
X323966Y629222D01*
X325634Y630336D01*
X325753Y630515D01*
X325784Y630541D01*
X325838Y630581D01*
X325874Y630603D01*
X400740D01*
X402028Y630860D01*
X403121Y631589D01*
X415821Y644289D01*
X416550Y645382D01*
X416807Y646670D01*
Y666350D01*
X421700Y671243D01*
X426076D01*
X426112Y671221D01*
X426166Y671181D01*
X426197Y671155D01*
X426316Y670976D01*
X427984Y669862D01*
X429950Y669471D01*
X431917Y669862D01*
X433584Y670976D01*
X434698Y672644D01*
X435089Y674610D01*
X434698Y676577D01*
X433584Y678244D01*
X431917Y679358D01*
X429950Y679749D01*
D02*
G37*
G36*
X1349130Y678700D02*
X1345130D01*
Y666930D01*
X1354400D01*
Y673430D01*
X1349130Y678700D01*
D02*
G37*
G36*
X1669130D02*
X1665130D01*
Y666930D01*
X1674400D01*
Y673430D01*
X1669130Y678700D01*
D02*
G37*
G36*
X1989130D02*
X1985130D01*
Y666930D01*
X1994400D01*
Y673430D01*
X1989130Y678700D01*
D02*
G37*
G36*
X1982590D02*
X1978590D01*
X1973320Y673430D01*
Y666930D01*
X1982590D01*
Y678700D01*
D02*
G37*
G36*
X1662590D02*
X1658590D01*
X1653320Y673430D01*
Y666930D01*
X1662590D01*
Y678700D01*
D02*
G37*
G36*
X1342590D02*
X1338590D01*
X1333320Y673430D01*
Y666930D01*
X1342590D01*
Y678700D01*
D02*
G37*
G36*
X1674400Y664390D02*
X1665130D01*
Y652620D01*
X1669130D01*
X1674400Y657890D01*
Y664390D01*
D02*
G37*
G36*
X1662590D02*
X1653320D01*
Y657890D01*
X1658590Y652620D01*
X1662590D01*
Y664390D01*
D02*
G37*
G36*
X1613860Y753139D02*
X1611893Y752748D01*
X1610226Y751634D01*
X1609112Y749967D01*
X1608721Y748000D01*
X1609112Y746033D01*
X1610226Y744366D01*
X1610405Y744247D01*
X1610431Y744216D01*
X1610471Y744162D01*
X1610493Y744126D01*
Y678700D01*
X1608590D01*
X1603320Y673430D01*
Y657890D01*
X1608590Y652620D01*
X1619130D01*
X1624400Y657890D01*
Y673430D01*
X1619130Y678700D01*
X1617227D01*
Y744126D01*
X1617249Y744162D01*
X1617289Y744216D01*
X1617315Y744247D01*
X1617494Y744366D01*
X1618608Y746033D01*
X1618999Y748000D01*
X1618608Y749967D01*
X1617494Y751634D01*
X1615827Y752748D01*
X1613860Y753139D01*
D02*
G37*
G36*
X1354400Y664390D02*
X1345130D01*
Y652620D01*
X1349130D01*
X1354400Y657890D01*
Y664390D01*
D02*
G37*
G36*
X1342590D02*
X1333320D01*
Y657890D01*
X1338590Y652620D01*
X1342590D01*
Y664390D01*
D02*
G37*
G36*
X1268730Y600769D02*
X1266764Y600378D01*
X1265472Y599515D01*
X1216660D01*
X1215173Y599219D01*
X1213913Y598377D01*
X1201213Y585677D01*
X1200371Y584417D01*
X1200075Y582930D01*
Y570948D01*
X1199212Y569656D01*
X1198821Y567690D01*
X1199212Y565723D01*
X1200326Y564056D01*
X1201993Y562942D01*
X1203960Y562551D01*
X1205927Y562942D01*
X1207594Y564056D01*
X1208708Y565723D01*
X1209099Y567690D01*
X1208708Y569656D01*
X1207845Y570948D01*
Y581321D01*
X1218269Y591745D01*
X1265472D01*
X1266764Y590882D01*
X1268730Y590491D01*
X1270696Y590882D01*
X1272364Y591996D01*
X1273478Y593663D01*
X1273869Y595630D01*
X1273478Y597597D01*
X1272364Y599264D01*
X1270696Y600378D01*
X1268730Y600769D01*
D02*
G37*
G36*
X1602740Y598229D02*
X1600773Y597838D01*
X1599482Y596975D01*
X1586230D01*
X1584743Y596679D01*
X1583483Y595837D01*
X1572783Y585137D01*
X1571941Y583877D01*
X1571645Y582390D01*
Y561028D01*
X1570782Y559737D01*
X1570391Y557770D01*
X1570782Y555803D01*
X1571896Y554136D01*
X1573564Y553022D01*
X1575530Y552631D01*
X1577496Y553022D01*
X1579164Y554136D01*
X1580278Y555803D01*
X1580669Y557770D01*
X1580278Y559737D01*
X1579415Y561028D01*
Y580781D01*
X1587839Y589205D01*
X1599482D01*
X1600773Y588342D01*
X1602740Y587951D01*
X1604707Y588342D01*
X1606374Y589456D01*
X1607488Y591124D01*
X1607879Y593090D01*
X1607488Y595056D01*
X1606374Y596724D01*
X1604707Y597838D01*
X1602740Y598229D01*
D02*
G37*
G36*
X1892300Y594419D02*
X1890334Y594028D01*
X1889042Y593165D01*
X1852930D01*
X1851443Y592869D01*
X1850183Y592027D01*
X1843597Y585441D01*
X1842074Y585138D01*
X1840406Y584024D01*
X1839292Y582356D01*
X1838901Y580390D01*
X1839292Y578424D01*
X1840406Y576756D01*
X1842074Y575642D01*
X1844040Y575251D01*
X1846006Y575642D01*
X1847674Y576756D01*
X1848788Y578424D01*
X1849091Y579947D01*
X1854539Y585395D01*
X1889042D01*
X1890334Y584532D01*
X1892300Y584141D01*
X1894267Y584532D01*
X1895934Y585646D01*
X1897048Y587313D01*
X1897439Y589280D01*
X1897048Y591246D01*
X1895934Y592914D01*
X1894267Y594028D01*
X1892300Y594419D01*
D02*
G37*
G36*
X2019265Y610267D02*
X2015639Y609790D01*
X2012260Y608390D01*
X2009358Y606164D01*
X2007132Y603262D01*
X2005732Y599883D01*
X2005255Y596257D01*
X2005732Y592631D01*
X2007132Y589252D01*
X2009358Y586351D01*
X2012260Y584124D01*
X2015639Y582725D01*
X2019265Y582248D01*
X2022891Y582725D01*
X2026270Y584124D01*
X2029171Y586351D01*
X2031398Y589252D01*
X2032797Y592631D01*
X2033275Y596257D01*
X2032797Y599883D01*
X2031398Y603262D01*
X2029171Y606164D01*
X2026270Y608390D01*
X2022891Y609790D01*
X2019265Y610267D01*
D02*
G37*
G36*
X1699265D02*
X1695639Y609790D01*
X1692260Y608390D01*
X1689358Y606164D01*
X1687132Y603262D01*
X1685732Y599883D01*
X1685255Y596257D01*
X1685732Y592631D01*
X1687132Y589252D01*
X1689358Y586351D01*
X1692260Y584124D01*
X1695639Y582725D01*
X1699265Y582248D01*
X1702891Y582725D01*
X1706270Y584124D01*
X1709171Y586351D01*
X1711398Y589252D01*
X1712797Y592631D01*
X1713275Y596257D01*
X1712797Y599883D01*
X1711398Y603262D01*
X1709171Y606164D01*
X1706270Y608390D01*
X1702891Y609790D01*
X1699265Y610267D01*
D02*
G37*
G36*
X1379265D02*
X1375639Y609790D01*
X1372260Y608390D01*
X1369358Y606164D01*
X1367132Y603262D01*
X1365732Y599883D01*
X1365255Y596257D01*
X1365732Y592631D01*
X1367132Y589252D01*
X1369358Y586351D01*
X1372260Y584124D01*
X1375639Y582725D01*
X1379265Y582248D01*
X1382891Y582725D01*
X1386270Y584124D01*
X1389171Y586351D01*
X1391398Y589252D01*
X1392797Y592631D01*
X1393275Y596257D01*
X1392797Y599883D01*
X1391398Y603262D01*
X1389171Y606164D01*
X1386270Y608390D01*
X1382891Y609790D01*
X1379265Y610267D01*
D02*
G37*
G36*
X224314Y587029D02*
X220688Y586552D01*
X217309Y585152D01*
X214407Y582925D01*
X212181Y580024D01*
X210781Y576645D01*
X210304Y573019D01*
X210781Y569393D01*
X212181Y566014D01*
X214407Y563113D01*
X217309Y560886D01*
X220688Y559487D01*
X224314Y559009D01*
X227940Y559487D01*
X231319Y560886D01*
X234220Y563113D01*
X236447Y566014D01*
X237846Y569393D01*
X238324Y573019D01*
X237846Y576645D01*
X236447Y580024D01*
X234220Y582925D01*
X231319Y585152D01*
X227940Y586552D01*
X224314Y587029D01*
D02*
G37*
G36*
X1798860Y569618D02*
X1793548Y569200D01*
X1788366Y567956D01*
X1783443Y565917D01*
X1778900Y563133D01*
X1774848Y559672D01*
X1771387Y555620D01*
X1768603Y551077D01*
X1766564Y546154D01*
X1765320Y540972D01*
X1764902Y535660D01*
X1765320Y530348D01*
X1766564Y525166D01*
X1768603Y520243D01*
X1771387Y515700D01*
X1774848Y511648D01*
X1778900Y508187D01*
X1783443Y505403D01*
X1788366Y503364D01*
X1793548Y502120D01*
X1798860Y501702D01*
X1804172Y502120D01*
X1809354Y503364D01*
X1814277Y505403D01*
X1818820Y508187D01*
X1822872Y511648D01*
X1826333Y515700D01*
X1829117Y520243D01*
X1831156Y525166D01*
X1832400Y530348D01*
X1832818Y535660D01*
X1832400Y540972D01*
X1831156Y546154D01*
X1829117Y551077D01*
X1826333Y555620D01*
X1822872Y559672D01*
X1818820Y563133D01*
X1814277Y565917D01*
X1809354Y567956D01*
X1804172Y569200D01*
X1798860Y569618D01*
D02*
G37*
G36*
X1478860D02*
X1473548Y569200D01*
X1468366Y567956D01*
X1463443Y565917D01*
X1458900Y563133D01*
X1454848Y559672D01*
X1451387Y555620D01*
X1448603Y551077D01*
X1446564Y546154D01*
X1445320Y540972D01*
X1444902Y535660D01*
X1445320Y530348D01*
X1446564Y525166D01*
X1448603Y520243D01*
X1451387Y515700D01*
X1454848Y511648D01*
X1458900Y508187D01*
X1463443Y505403D01*
X1468366Y503364D01*
X1473548Y502120D01*
X1478860Y501702D01*
X1484172Y502120D01*
X1489354Y503364D01*
X1494277Y505403D01*
X1498820Y508187D01*
X1502872Y511648D01*
X1506333Y515700D01*
X1509117Y520243D01*
X1511156Y525166D01*
X1512400Y530348D01*
X1512818Y535660D01*
X1512400Y540972D01*
X1511156Y546154D01*
X1509117Y551077D01*
X1506333Y555620D01*
X1502872Y559672D01*
X1498820Y563133D01*
X1494277Y565917D01*
X1489354Y567956D01*
X1484172Y569200D01*
X1478860Y569618D01*
D02*
G37*
G36*
X276860Y552118D02*
X271548Y551700D01*
X266366Y550456D01*
X261443Y548417D01*
X256900Y545633D01*
X252848Y542172D01*
X249387Y538120D01*
X246603Y533577D01*
X244564Y528654D01*
X243320Y523472D01*
X242902Y518160D01*
X243320Y512848D01*
X244564Y507666D01*
X246603Y502743D01*
X249387Y498200D01*
X252848Y494148D01*
X256900Y490687D01*
X261443Y487903D01*
X266366Y485864D01*
X271548Y484620D01*
X276860Y484202D01*
X282172Y484620D01*
X287354Y485864D01*
X292277Y487903D01*
X296820Y490687D01*
X300872Y494148D01*
X304333Y498200D01*
X307117Y502743D01*
X309156Y507666D01*
X310400Y512848D01*
X310818Y518160D01*
X310400Y523472D01*
X309156Y528654D01*
X307117Y533577D01*
X304333Y538120D01*
X300872Y542172D01*
X296820Y545633D01*
X292277Y548417D01*
X287354Y550456D01*
X282172Y551700D01*
X276860Y552118D01*
D02*
G37*
G36*
X1898455Y489073D02*
X1894829Y488595D01*
X1891450Y487196D01*
X1888549Y484969D01*
X1886322Y482068D01*
X1884923Y478689D01*
X1884445Y475063D01*
X1884923Y471437D01*
X1886322Y468058D01*
X1888549Y465156D01*
X1891450Y462930D01*
X1894829Y461530D01*
X1898455Y461053D01*
X1902081Y461530D01*
X1905460Y462930D01*
X1908362Y465156D01*
X1910588Y468058D01*
X1911988Y471437D01*
X1912465Y475063D01*
X1911988Y478689D01*
X1910588Y482068D01*
X1908362Y484969D01*
X1905460Y487196D01*
X1902081Y488595D01*
X1898455Y489073D01*
D02*
G37*
G36*
X1578455D02*
X1574829Y488595D01*
X1571450Y487196D01*
X1568549Y484969D01*
X1566322Y482068D01*
X1564923Y478689D01*
X1564445Y475063D01*
X1564923Y471437D01*
X1566322Y468058D01*
X1568549Y465156D01*
X1571450Y462930D01*
X1574829Y461530D01*
X1578455Y461053D01*
X1582081Y461530D01*
X1585460Y462930D01*
X1588362Y465156D01*
X1590588Y468058D01*
X1591988Y471437D01*
X1592465Y475063D01*
X1591988Y478689D01*
X1590588Y482068D01*
X1588362Y484969D01*
X1585460Y487196D01*
X1582081Y488595D01*
X1578455Y489073D01*
D02*
G37*
G36*
X1258455D02*
X1254829Y488595D01*
X1251450Y487196D01*
X1248549Y484969D01*
X1246322Y482068D01*
X1244923Y478689D01*
X1244445Y475063D01*
X1244923Y471437D01*
X1246322Y468058D01*
X1248549Y465156D01*
X1251450Y462930D01*
X1254829Y461530D01*
X1258455Y461053D01*
X1262081Y461530D01*
X1265460Y462930D01*
X1268362Y465156D01*
X1270588Y468058D01*
X1271988Y471437D01*
X1272465Y475063D01*
X1271988Y478689D01*
X1270588Y482068D01*
X1268362Y484969D01*
X1265460Y487196D01*
X1262081Y488595D01*
X1258455Y489073D01*
D02*
G37*
G36*
X617220Y449639D02*
X615253Y449248D01*
X613586Y448134D01*
X612472Y446466D01*
X612081Y444500D01*
X612155Y444129D01*
X611257Y443231D01*
X610967Y443289D01*
X609001Y442898D01*
X607334Y441784D01*
X606220Y440117D01*
X605829Y438150D01*
X606220Y436184D01*
X607334Y434516D01*
X607512Y434397D01*
X607539Y434366D01*
X607578Y434312D01*
X607601Y434276D01*
Y316452D01*
X601856Y310707D01*
X538480D01*
X537192Y310450D01*
X536099Y309721D01*
X535028Y308650D01*
X534987Y308640D01*
X534922Y308630D01*
X534881Y308627D01*
X534670Y308669D01*
X532704Y308278D01*
X531036Y307164D01*
X529922Y305497D01*
X529531Y303530D01*
X529922Y301563D01*
X531036Y299896D01*
X532704Y298782D01*
X534670Y298391D01*
X536637Y298782D01*
X538304Y299896D01*
X539418Y301563D01*
X539809Y303530D01*
X541015Y303973D01*
X603250D01*
X604538Y304230D01*
X605631Y304959D01*
X613348Y312677D01*
X614078Y313769D01*
X614334Y315057D01*
Y370509D01*
X615604Y370973D01*
X616966Y370062D01*
X618933Y369671D01*
X620899Y370062D01*
X622566Y371176D01*
X623680Y372844D01*
X624071Y374810D01*
X623680Y376777D01*
X622566Y378444D01*
X620899Y379558D01*
X620587Y379620D01*
Y396008D01*
X620640Y396275D01*
Y400240D01*
X620587Y400507D01*
Y440626D01*
X620609Y440662D01*
X620649Y440716D01*
X620675Y440747D01*
X620854Y440866D01*
X621968Y442533D01*
X622359Y444500D01*
X621968Y446466D01*
X620854Y448134D01*
X619187Y449248D01*
X617220Y449639D01*
D02*
G37*
G36*
X637540Y429319D02*
X635574Y428928D01*
X633906Y427814D01*
X632792Y426147D01*
X632401Y424180D01*
X632792Y422214D01*
X633906Y420546D01*
X635574Y419432D01*
X637540Y419041D01*
X639506Y419432D01*
X640603Y420165D01*
X643054Y417715D01*
X642946Y416484D01*
X642796Y416384D01*
X641682Y414716D01*
X641291Y412750D01*
X641682Y410784D01*
X642796Y409116D01*
X644464Y408002D01*
X646430Y407611D01*
X648397Y408002D01*
X650064Y409116D01*
X651178Y410784D01*
X651569Y412750D01*
X651178Y414716D01*
X650064Y416384D01*
X649885Y416503D01*
X649859Y416534D01*
X649819Y416588D01*
X649797Y416624D01*
Y419100D01*
X649540Y420388D01*
X648811Y421481D01*
X643731Y426561D01*
X642638Y427290D01*
X641436Y427529D01*
X641432Y427531D01*
X641432Y427531D01*
X641352Y427546D01*
X641174Y427814D01*
X639506Y428928D01*
X637540Y429319D01*
D02*
G37*
G36*
X2030283Y364451D02*
X2027806Y363958D01*
X2025705Y362555D01*
X2024302Y360454D01*
X2023809Y357976D01*
Y350215D01*
X2021698Y348104D01*
X1771650D01*
X1769172Y347612D01*
X1767072Y346208D01*
X1765668Y344108D01*
X1765176Y341630D01*
X1765668Y339152D01*
X1767072Y337052D01*
X1769172Y335648D01*
X1771650Y335156D01*
X2024380D01*
X2026858Y335648D01*
X2028958Y337052D01*
X2034861Y342955D01*
X2036265Y345056D01*
X2036758Y347533D01*
Y348479D01*
X2037164Y350520D01*
X2036758Y352561D01*
Y357976D01*
X2036265Y360454D01*
X2034861Y362555D01*
X2032761Y363958D01*
X2030283Y364451D01*
D02*
G37*
G36*
X308610Y327719D02*
X306644Y327328D01*
X304976Y326214D01*
X303862Y324547D01*
X303471Y322580D01*
X303862Y320614D01*
X304976Y318946D01*
X306644Y317832D01*
X308610Y317441D01*
X310576Y317832D01*
X311868Y318695D01*
X334941D01*
X343515Y310121D01*
Y299408D01*
X342652Y298116D01*
X342261Y296150D01*
X342652Y294184D01*
X343766Y292516D01*
X345434Y291402D01*
X347400Y291011D01*
X349366Y291402D01*
X351034Y292516D01*
X352148Y294184D01*
X352539Y296150D01*
X352148Y298116D01*
X351285Y299408D01*
Y311730D01*
X350989Y313217D01*
X350147Y314477D01*
X339297Y325327D01*
X338037Y326169D01*
X336550Y326465D01*
X311868D01*
X310576Y327328D01*
X308610Y327719D01*
D02*
G37*
G36*
X1924050D02*
X1922083Y327328D01*
X1920416Y326214D01*
X1919302Y324547D01*
X1918911Y322580D01*
X1919302Y320614D01*
X1920165Y319322D01*
Y298955D01*
X1919146Y298274D01*
X1918032Y296607D01*
X1917641Y294640D01*
X1918032Y292673D01*
X1919146Y291006D01*
X1920813Y289892D01*
X1922780Y289501D01*
X1924747Y289892D01*
X1926414Y291006D01*
X1927528Y292673D01*
X1927919Y294640D01*
X1927757Y295455D01*
X1927774Y295767D01*
X1927935Y296576D01*
Y319322D01*
X1928798Y320614D01*
X1929189Y322580D01*
X1928798Y324547D01*
X1927684Y326214D01*
X1926017Y327328D01*
X1924050Y327719D01*
D02*
G37*
G36*
X1104900Y313749D02*
X1102934Y313358D01*
X1101266Y312244D01*
X1100152Y310576D01*
X1099761Y308610D01*
X1100152Y306644D01*
X1101266Y304976D01*
X1102934Y303862D01*
X1104900Y303471D01*
X1106867Y303862D01*
X1108158Y304725D01*
X1147741D01*
X1154355Y298111D01*
Y296628D01*
X1153492Y295336D01*
X1153101Y293370D01*
X1153492Y291404D01*
X1154606Y289736D01*
X1156273Y288622D01*
X1158240Y288231D01*
X1160207Y288622D01*
X1161874Y289736D01*
X1162988Y291404D01*
X1163379Y293370D01*
X1162988Y295336D01*
X1162125Y296628D01*
Y299720D01*
X1161829Y301207D01*
X1160987Y302467D01*
X1152097Y311357D01*
X1150837Y312199D01*
X1149350Y312495D01*
X1108158D01*
X1106867Y313358D01*
X1104900Y313749D01*
D02*
G37*
G36*
X1881200Y272297D02*
X1879233Y271906D01*
X1877566Y270792D01*
X1876452Y269125D01*
X1876061Y267158D01*
X1876452Y265192D01*
X1877566Y263525D01*
X1879233Y262411D01*
X1881200Y262020D01*
X1883166Y262411D01*
X1884833Y263525D01*
X1885947Y265192D01*
X1886338Y267158D01*
X1885947Y269125D01*
X1884833Y270792D01*
X1883166Y271906D01*
X1881200Y272297D01*
D02*
G37*
G36*
X428680Y263189D02*
X426713Y262798D01*
X425046Y261684D01*
X424918Y261491D01*
X424870Y261450D01*
X424817Y261411D01*
X424781Y261388D01*
X379488Y261054D01*
X379452Y261076D01*
X379399Y261115D01*
X379383Y261128D01*
X379273Y261292D01*
X377606Y262406D01*
X375640Y262797D01*
X373673Y262406D01*
X372006Y261292D01*
X370892Y259625D01*
X370771Y259016D01*
X369393Y258598D01*
X367952Y260039D01*
X366860Y260769D01*
X365572Y261025D01*
X343953D01*
X343917Y261048D01*
X343864Y261087D01*
X343833Y261113D01*
X343713Y261292D01*
X342046Y262406D01*
X340080Y262797D01*
X338113Y262406D01*
X336446Y261292D01*
X335549Y259949D01*
X334126Y259575D01*
X333662Y260039D01*
X332570Y260769D01*
X331282Y261025D01*
X308393D01*
X308357Y261048D01*
X308304Y261087D01*
X308273Y261113D01*
X308153Y261292D01*
X306486Y262406D01*
X304520Y262797D01*
X302553Y262406D01*
X300886Y261292D01*
X299772Y259625D01*
X299381Y257658D01*
X299772Y255692D01*
X300886Y254025D01*
X302553Y252911D01*
X304520Y252520D01*
X306486Y252911D01*
X308153Y254025D01*
X308273Y254203D01*
X308304Y254230D01*
X308357Y254269D01*
X308393Y254292D01*
X329887D01*
X338375Y245803D01*
X339468Y245074D01*
X340756Y244817D01*
X434778D01*
X434868Y244708D01*
X434947Y244644D01*
X435206Y244256D01*
X436874Y243142D01*
X438840Y242751D01*
X440807Y243142D01*
X442474Y244256D01*
X443588Y245924D01*
X443979Y247890D01*
X443588Y249856D01*
X442474Y251524D01*
X440807Y252638D01*
X438889Y253019D01*
X438508Y254937D01*
X437394Y256604D01*
X435727Y257718D01*
X433809Y258099D01*
X433428Y260016D01*
X432314Y261684D01*
X430647Y262798D01*
X428680Y263189D01*
D02*
G37*
%LPD*%
G36*
X367005Y739180D02*
X366734Y739175D01*
X366475Y739153D01*
X366228Y739115D01*
X365992Y739062D01*
X365768Y738991D01*
X365556Y738905D01*
X365355Y738802D01*
X365167Y738683D01*
X364990Y738548D01*
X364824Y738397D01*
X363747Y739474D01*
X363898Y739640D01*
X364033Y739817D01*
X364152Y740005D01*
X364255Y740206D01*
X364341Y740418D01*
X364412Y740642D01*
X364465Y740878D01*
X364503Y741125D01*
X364525Y741384D01*
X364530Y741655D01*
X367005Y739180D01*
D02*
G37*
G36*
X347421Y687362D02*
X347619Y687194D01*
X347821Y687046D01*
X348026Y686918D01*
X348233Y686809D01*
X348445Y686720D01*
X348659Y686651D01*
X348876Y686601D01*
X349097Y686572D01*
X349321Y686562D01*
Y685038D01*
X349097Y685028D01*
X348876Y684998D01*
X348659Y684949D01*
X348445Y684880D01*
X348233Y684791D01*
X348026Y684682D01*
X347821Y684554D01*
X347619Y684406D01*
X347421Y684238D01*
X347225Y684050D01*
Y687550D01*
X347421Y687362D01*
D02*
G37*
G36*
X428165Y672860D02*
X427969Y673048D01*
X427771Y673216D01*
X427569Y673364D01*
X427365Y673492D01*
X427156Y673601D01*
X426945Y673690D01*
X426731Y673759D01*
X426513Y673809D01*
X426293Y673838D01*
X426069Y673848D01*
Y675372D01*
X426293Y675382D01*
X426513Y675412D01*
X426731Y675461D01*
X426945Y675530D01*
X427156Y675619D01*
X427365Y675728D01*
X427569Y675856D01*
X427771Y676004D01*
X427969Y676172D01*
X428165Y676360D01*
Y672860D01*
D02*
G37*
G36*
X323981Y635532D02*
X324179Y635364D01*
X324381Y635216D01*
X324585Y635088D01*
X324794Y634979D01*
X325005Y634890D01*
X325219Y634821D01*
X325437Y634771D01*
X325657Y634742D01*
X325881Y634732D01*
Y633208D01*
X325657Y633198D01*
X325437Y633168D01*
X325219Y633119D01*
X325005Y633050D01*
X324794Y632961D01*
X324585Y632852D01*
X324381Y632724D01*
X324179Y632576D01*
X323981Y632408D01*
X323785Y632220D01*
Y635720D01*
X323981Y635532D01*
D02*
G37*
G36*
X1615422Y746019D02*
X1615254Y745821D01*
X1615106Y745619D01*
X1614978Y745415D01*
X1614869Y745207D01*
X1614780Y744995D01*
X1614711Y744781D01*
X1614662Y744564D01*
X1614632Y744343D01*
X1614622Y744119D01*
X1613098D01*
X1613088Y744343D01*
X1613058Y744564D01*
X1613009Y744781D01*
X1612940Y744995D01*
X1612851Y745207D01*
X1612742Y745415D01*
X1612614Y745619D01*
X1612466Y745821D01*
X1612298Y746019D01*
X1612110Y746215D01*
X1615610D01*
X1615422Y746019D01*
D02*
G37*
G36*
X1614630Y677358D02*
X1614653Y677094D01*
X1614691Y676861D01*
X1614744Y676659D01*
X1614812Y676488D01*
X1614896Y676348D01*
X1614995Y676239D01*
X1615110Y676161D01*
X1615239Y676115D01*
X1615384Y676099D01*
X1612336D01*
X1612481Y676115D01*
X1612610Y676161D01*
X1612725Y676239D01*
X1612824Y676348D01*
X1612908Y676488D01*
X1612976Y676659D01*
X1613029Y676861D01*
X1613067Y677094D01*
X1613090Y677358D01*
X1613098Y677654D01*
X1614622D01*
X1614630Y677358D01*
D02*
G37*
G36*
X1266945Y593880D02*
X1266841Y593971D01*
X1266719Y594053D01*
X1266579Y594125D01*
X1266420Y594187D01*
X1266242Y594240D01*
X1266046Y594283D01*
X1265832Y594317D01*
X1265599Y594341D01*
X1265077Y594360D01*
Y596900D01*
X1265347Y596905D01*
X1265832Y596943D01*
X1266046Y596977D01*
X1266242Y597020D01*
X1266420Y597073D01*
X1266579Y597135D01*
X1266719Y597207D01*
X1266841Y597289D01*
X1266945Y597380D01*
Y593880D01*
D02*
G37*
G36*
X1205235Y571073D02*
X1205273Y570588D01*
X1205307Y570374D01*
X1205350Y570178D01*
X1205403Y570000D01*
X1205465Y569841D01*
X1205537Y569701D01*
X1205619Y569579D01*
X1205710Y569475D01*
X1202210D01*
X1202301Y569579D01*
X1202383Y569701D01*
X1202455Y569841D01*
X1202517Y570000D01*
X1202570Y570178D01*
X1202613Y570374D01*
X1202647Y570588D01*
X1202671Y570821D01*
X1202690Y571343D01*
X1205230D01*
X1205235Y571073D01*
D02*
G37*
G36*
X1600955Y591340D02*
X1600851Y591431D01*
X1600729Y591513D01*
X1600589Y591585D01*
X1600430Y591647D01*
X1600252Y591700D01*
X1600056Y591743D01*
X1599842Y591777D01*
X1599609Y591801D01*
X1599087Y591820D01*
Y594360D01*
X1599357Y594365D01*
X1599842Y594403D01*
X1600056Y594437D01*
X1600252Y594480D01*
X1600430Y594533D01*
X1600589Y594595D01*
X1600729Y594667D01*
X1600851Y594749D01*
X1600955Y594840D01*
Y591340D01*
D02*
G37*
G36*
X1576805Y561153D02*
X1576843Y560668D01*
X1576877Y560454D01*
X1576920Y560258D01*
X1576973Y560080D01*
X1577035Y559921D01*
X1577107Y559781D01*
X1577189Y559659D01*
X1577280Y559555D01*
X1573780D01*
X1573871Y559659D01*
X1573953Y559781D01*
X1574025Y559921D01*
X1574087Y560080D01*
X1574140Y560258D01*
X1574183Y560454D01*
X1574217Y560668D01*
X1574241Y560901D01*
X1574260Y561423D01*
X1576800D01*
X1576805Y561153D01*
D02*
G37*
G36*
X1890515Y587530D02*
X1890411Y587621D01*
X1890289Y587703D01*
X1890149Y587775D01*
X1889990Y587837D01*
X1889812Y587890D01*
X1889616Y587933D01*
X1889402Y587967D01*
X1889169Y587991D01*
X1888647Y588010D01*
Y590550D01*
X1888917Y590555D01*
X1889402Y590593D01*
X1889616Y590627D01*
X1889812Y590670D01*
X1889990Y590723D01*
X1890149Y590785D01*
X1890289Y590857D01*
X1890411Y590939D01*
X1890515Y591030D01*
Y587530D01*
D02*
G37*
G36*
X1847521Y582075D02*
X1847334Y581881D01*
X1847018Y581511D01*
X1846890Y581335D01*
X1846782Y581166D01*
X1846694Y581003D01*
X1846625Y580847D01*
X1846577Y580696D01*
X1846548Y580553D01*
X1846540Y580415D01*
X1844065Y582890D01*
X1844203Y582898D01*
X1844346Y582927D01*
X1844497Y582975D01*
X1844653Y583044D01*
X1844816Y583132D01*
X1844985Y583240D01*
X1845161Y583368D01*
X1845343Y583516D01*
X1845725Y583871D01*
X1847521Y582075D01*
D02*
G37*
G36*
X618782Y442519D02*
X618614Y442321D01*
X618466Y442119D01*
X618338Y441914D01*
X618229Y441707D01*
X618140Y441495D01*
X618071Y441281D01*
X618022Y441063D01*
X617992Y440843D01*
X617982Y440619D01*
X616458D01*
X616448Y440843D01*
X616418Y441063D01*
X616369Y441281D01*
X616300Y441495D01*
X616211Y441707D01*
X616102Y441914D01*
X615974Y442119D01*
X615826Y442321D01*
X615658Y442519D01*
X615470Y442715D01*
X618970D01*
X618782Y442519D01*
D02*
G37*
G36*
X612530Y436169D02*
X612362Y435971D01*
X612214Y435769D01*
X612085Y435564D01*
X611976Y435356D01*
X611887Y435145D01*
X611818Y434931D01*
X611769Y434714D01*
X611739Y434493D01*
X611729Y434269D01*
X610205D01*
X610196Y434493D01*
X610166Y434714D01*
X610116Y434931D01*
X610047Y435145D01*
X609958Y435356D01*
X609850Y435564D01*
X609721Y435769D01*
X609573Y435971D01*
X609405Y436169D01*
X609217Y436365D01*
X612717D01*
X612530Y436169D01*
D02*
G37*
G36*
X618409Y377254D02*
X617080Y376489D01*
X617078Y376495D01*
X617067Y376508D01*
X617020Y376559D01*
X616681Y376902D01*
X617759Y377980D01*
X618409Y377254D01*
D02*
G37*
G36*
X537953Y305735D02*
X537802Y305570D01*
X537667Y305393D01*
X537548Y305205D01*
X537445Y305004D01*
X537359Y304792D01*
X537289Y304568D01*
X537235Y304332D01*
X537197Y304085D01*
X537175Y303826D01*
X537170Y303555D01*
X534695Y306030D01*
X534966Y306035D01*
X535225Y306057D01*
X535472Y306095D01*
X535708Y306148D01*
X535932Y306219D01*
X536144Y306305D01*
X536344Y306408D01*
X536533Y306527D01*
X536710Y306662D01*
X536875Y306813D01*
X537953Y305735D01*
D02*
G37*
G36*
X639643Y425563D02*
X639781Y425432D01*
X639932Y425317D01*
X640096Y425218D01*
X640272Y425134D01*
X640462Y425065D01*
X640665Y425011D01*
X640880Y424973D01*
X641108Y424950D01*
X641350Y424942D01*
Y423418D01*
X641108Y423410D01*
X640880Y423387D01*
X640665Y423349D01*
X640462Y423295D01*
X640272Y423226D01*
X640096Y423142D01*
X639932Y423042D01*
X639781Y422928D01*
X639643Y422797D01*
X639518Y422652D01*
Y425708D01*
X639643Y425563D01*
D02*
G37*
G36*
X647202Y416407D02*
X647232Y416186D01*
X647281Y415969D01*
X647350Y415755D01*
X647439Y415544D01*
X647548Y415336D01*
X647676Y415131D01*
X647824Y414929D01*
X647992Y414731D01*
X648180Y414535D01*
X644680D01*
X644868Y414731D01*
X645036Y414929D01*
X645184Y415131D01*
X645312Y415336D01*
X645421Y415544D01*
X645510Y415755D01*
X645579Y415969D01*
X645629Y416186D01*
X645658Y416407D01*
X645668Y416631D01*
X647192D01*
X647202Y416407D01*
D02*
G37*
G36*
X310499Y324239D02*
X310621Y324157D01*
X310761Y324085D01*
X310920Y324023D01*
X311098Y323970D01*
X311294Y323927D01*
X311508Y323893D01*
X311741Y323869D01*
X312263Y323850D01*
Y321310D01*
X311993Y321305D01*
X311508Y321267D01*
X311294Y321233D01*
X311098Y321190D01*
X310920Y321137D01*
X310761Y321075D01*
X310621Y321003D01*
X310499Y320921D01*
X310395Y320830D01*
Y324330D01*
X310499Y324239D01*
D02*
G37*
G36*
X348675Y299533D02*
X348713Y299048D01*
X348747Y298834D01*
X348790Y298638D01*
X348843Y298460D01*
X348905Y298301D01*
X348977Y298161D01*
X349059Y298039D01*
X349150Y297935D01*
X345650D01*
X345741Y298039D01*
X345823Y298161D01*
X345895Y298301D01*
X345957Y298460D01*
X346010Y298638D01*
X346053Y298834D01*
X346087Y299048D01*
X346111Y299281D01*
X346130Y299803D01*
X348670D01*
X348675Y299533D01*
D02*
G37*
G36*
X1925709Y320691D02*
X1925627Y320569D01*
X1925555Y320429D01*
X1925493Y320270D01*
X1925440Y320092D01*
X1925397Y319896D01*
X1925363Y319682D01*
X1925339Y319449D01*
X1925320Y318927D01*
X1922780D01*
X1922775Y319197D01*
X1922737Y319682D01*
X1922703Y319896D01*
X1922660Y320092D01*
X1922607Y320270D01*
X1922545Y320429D01*
X1922473Y320569D01*
X1922391Y320691D01*
X1922300Y320795D01*
X1925800D01*
X1925709Y320691D01*
D02*
G37*
G36*
X1925320Y298293D02*
X1925160Y295405D01*
X1922180Y297067D01*
X1922294Y297109D01*
X1922396Y297177D01*
X1922486Y297271D01*
X1922564Y297390D01*
X1922630Y297534D01*
X1922684Y297705D01*
X1922726Y297900D01*
X1922756Y298121D01*
X1922774Y298368D01*
X1922780Y298640D01*
X1925320Y298293D01*
D02*
G37*
G36*
X1106789Y310269D02*
X1106911Y310187D01*
X1107051Y310115D01*
X1107210Y310053D01*
X1107388Y310000D01*
X1107584Y309957D01*
X1107798Y309923D01*
X1108031Y309899D01*
X1108553Y309880D01*
Y307340D01*
X1108283Y307335D01*
X1107798Y307297D01*
X1107584Y307263D01*
X1107388Y307220D01*
X1107210Y307167D01*
X1107051Y307105D01*
X1106911Y307033D01*
X1106789Y306951D01*
X1106685Y306860D01*
Y310360D01*
X1106789Y310269D01*
D02*
G37*
G36*
X1159515Y296753D02*
X1159553Y296268D01*
X1159587Y296054D01*
X1159630Y295858D01*
X1159683Y295680D01*
X1159745Y295521D01*
X1159817Y295381D01*
X1159899Y295259D01*
X1159990Y295155D01*
X1156490D01*
X1156581Y295259D01*
X1156663Y295381D01*
X1156735Y295521D01*
X1156797Y295680D01*
X1156850Y295858D01*
X1156893Y296054D01*
X1156927Y296268D01*
X1156951Y296501D01*
X1156970Y297023D01*
X1159510D01*
X1159515Y296753D01*
D02*
G37*
G36*
X426908Y256287D02*
X426711Y256473D01*
X426511Y256640D01*
X426309Y256786D01*
X426103Y256913D01*
X425894Y257020D01*
X425682Y257108D01*
X425467Y257175D01*
X425249Y257223D01*
X425029Y257251D01*
X424805Y257259D01*
X424793Y258783D01*
X425017Y258795D01*
X425238Y258826D01*
X425455Y258877D01*
X425669Y258948D01*
X425879Y259038D01*
X426086Y259149D01*
X426290Y259279D01*
X426491Y259428D01*
X426688Y259598D01*
X426882Y259787D01*
X426908Y256287D01*
D02*
G37*
G36*
X377609Y259235D02*
X377808Y259069D01*
X378011Y258922D01*
X378217Y258795D01*
X378426Y258688D01*
X378637Y258601D01*
X378852Y258533D01*
X379070Y258485D01*
X379291Y258457D01*
X379515Y258449D01*
X379526Y256925D01*
X379302Y256914D01*
X379082Y256882D01*
X378865Y256831D01*
X378651Y256761D01*
X378441Y256670D01*
X378233Y256560D01*
X378030Y256430D01*
X377829Y256280D01*
X377632Y256111D01*
X377438Y255922D01*
X377412Y259422D01*
X377609Y259235D01*
D02*
G37*
G36*
X342060Y259221D02*
X342259Y259053D01*
X342460Y258904D01*
X342665Y258776D01*
X342873Y258667D01*
X343084Y258578D01*
X343299Y258509D01*
X343516Y258460D01*
X343737Y258430D01*
X343961Y258420D01*
Y256896D01*
X343737Y256887D01*
X343516Y256857D01*
X343299Y256807D01*
X343084Y256738D01*
X342873Y256649D01*
X342665Y256541D01*
X342460Y256412D01*
X342259Y256264D01*
X342060Y256096D01*
X341865Y255908D01*
Y259408D01*
X342060Y259221D01*
D02*
G37*
G36*
X306500D02*
X306699Y259053D01*
X306900Y258904D01*
X307105Y258776D01*
X307313Y258667D01*
X307524Y258578D01*
X307739Y258509D01*
X307956Y258460D01*
X308177Y258430D01*
X308401Y258420D01*
Y256896D01*
X308177Y256887D01*
X307956Y256857D01*
X307739Y256807D01*
X307524Y256738D01*
X307313Y256649D01*
X307105Y256541D01*
X306900Y256412D01*
X306699Y256264D01*
X306500Y256096D01*
X306305Y255908D01*
Y259408D01*
X306500Y259221D01*
D02*
G37*
G36*
X432044Y251152D02*
X431840Y251334D01*
X431634Y251497D01*
X431426Y251641D01*
X431216Y251765D01*
X431003Y251871D01*
X430789Y251957D01*
X430573Y252024D01*
X430355Y252072D01*
X430135Y252101D01*
X429912Y252110D01*
X429850Y253634D01*
X430075Y253645D01*
X430296Y253675D01*
X430513Y253726D01*
X430726Y253797D01*
X430933Y253888D01*
X431137Y254000D01*
X431336Y254132D01*
X431531Y254284D01*
X431722Y254456D01*
X431908Y254649D01*
X432044Y251152D01*
D02*
G37*
G36*
X436861Y246362D02*
X436694Y246563D01*
X436520Y246744D01*
X436340Y246903D01*
X436152Y247041D01*
X435958Y247157D01*
X435757Y247252D01*
X435549Y247327D01*
X435334Y247380D01*
X435112Y247411D01*
X434884Y247422D01*
X435074Y248946D01*
X435292Y248955D01*
X435511Y248982D01*
X435730Y249026D01*
X435949Y249089D01*
X436169Y249169D01*
X436389Y249267D01*
X436609Y249383D01*
X436830Y249517D01*
X437051Y249668D01*
X437273Y249838D01*
X436861Y246362D01*
D02*
G37*
D14*
X1832816Y212330D02*
X1842977Y202170D01*
X1274500Y212330D02*
X1832816D01*
X1282120Y225030D02*
X1282750Y224400D01*
X1863140D02*
X1879020Y208520D01*
X1282750Y224400D02*
X1863140D01*
X1281515Y218075D02*
X1283340D01*
X1280850Y217410D02*
X1281515Y218075D01*
X1283340D02*
X1283481Y218215D01*
X1748950D01*
X1288381Y229870D02*
X1895770D01*
X1915850Y209790D01*
X1285930Y231380D02*
X1286871D01*
X1288381Y229870D01*
X911520Y236220D02*
X1455420D01*
X885880Y261860D02*
X911520Y236220D01*
X1090350Y283450D02*
X1090590Y283210D01*
X1329690D01*
X1477700Y334250D02*
X1486590Y325360D01*
X1529135D01*
X1301170Y340600D02*
X1329350Y312420D01*
X1499419Y313930D02*
X1500360D01*
X1497909Y312420D02*
X1499419Y313930D01*
X1329350Y312420D02*
X1497909D01*
X1325246Y307634D02*
X1490360D01*
X1297360Y335520D02*
X1325246Y307634D01*
X1217350Y251700D02*
X1539000D01*
X1540510Y250190D01*
X1213540Y256780D02*
X1549640D01*
X1550670Y257810D01*
X1460360Y325120D02*
Y326061D01*
X1461770Y327471D01*
Y327660D01*
X1461914Y327804D01*
X1470360Y325120D02*
X1470660Y325420D01*
X1461914Y327804D02*
Y438157D01*
X1470660Y325420D02*
Y443230D01*
X1547100Y292340D02*
X1559617Y304857D01*
X1570425D01*
X1544560Y297420D02*
X1558416Y311276D01*
X1580133D01*
X1320220Y302500D02*
X1450360D01*
X1444920Y486410D02*
X1477700Y453630D01*
X1414780Y486410D02*
X1444920D01*
X1842977Y202170D02*
X1843460D01*
X538480Y307340D02*
X603250D01*
X534670Y303530D02*
X538480Y307340D01*
X610967Y315057D02*
Y438150D01*
X603250Y307340D02*
X610967Y315057D01*
X363220Y737870D02*
X367030Y741680D01*
X363220Y693420D02*
Y737870D01*
X355600Y685800D02*
X363220Y693420D01*
X345440Y685800D02*
X355600D01*
X1331650Y319010D02*
X1510360D01*
X1316410Y297420D02*
X1544560D01*
X1313870Y292340D02*
X1547100D01*
X618933Y374810D02*
Y375728D01*
X617220Y377441D02*
X618933Y375728D01*
X617220Y377441D02*
Y396222D01*
X617273Y396275D01*
Y400240D01*
X617220Y400293D02*
X617273Y400240D01*
X617220Y400293D02*
Y444500D01*
X646430Y412750D02*
Y419100D01*
X641350Y424180D02*
X646430Y419100D01*
X637540Y424180D02*
X641350D01*
X923290Y403860D02*
Y406400D01*
X932180Y415290D01*
Y448310D01*
X942340Y458470D01*
X962660D01*
X970280Y466090D01*
Y506730D01*
X957580Y519430D02*
X970280Y506730D01*
X957580Y519430D02*
Y615950D01*
X922020Y414020D02*
X927100Y419100D01*
Y450850D01*
X939800Y463550D01*
X958850D01*
X965200Y469900D01*
Y504190D01*
X952500Y516890D02*
X965200Y504190D01*
X952500Y516890D02*
Y622300D01*
X949620Y364490D02*
X990020Y324090D01*
X800790Y552690D02*
X911860Y441620D01*
X923290Y364490D02*
X949620D01*
X916940Y370840D02*
X923290Y364490D01*
X916940Y370840D02*
Y410210D01*
X911860Y415290D02*
X916940Y410210D01*
X911860Y415290D02*
Y441620D01*
X795710Y550150D02*
X905510Y440350D01*
X947080Y359410D02*
X987480Y319010D01*
X919480Y359410D02*
X947080D01*
X910590Y368300D02*
X919480Y359410D01*
X910590Y368300D02*
Y407670D01*
X905510Y412750D02*
X910590Y407670D01*
X905510Y412750D02*
Y440350D01*
X1879020Y206921D02*
Y208520D01*
Y206921D02*
X1880290Y205651D01*
Y204710D02*
Y205651D01*
X1209730Y252970D02*
X1213540Y256780D01*
X1212270Y246620D02*
X1217350Y251700D01*
X910010Y246620D02*
X1212270D01*
X912550Y252970D02*
X1209730D01*
X1933860Y665660D02*
Y702780D01*
Y664660D02*
Y665660D01*
X1613860D02*
Y748000D01*
Y664660D02*
Y665660D01*
X1293860D02*
Y747960D01*
Y664660D02*
Y665660D01*
X874450Y560310D02*
X875720Y559040D01*
X821110Y560310D02*
X874450D01*
X813490Y567930D02*
X821110Y560310D01*
X813490Y567930D02*
Y597140D01*
X817300Y553960D02*
X882070D01*
X807140Y564120D02*
Y594600D01*
Y564120D02*
X817300Y553960D01*
X779200Y631430D02*
X813490Y597140D01*
X603940Y631430D02*
X779200D01*
X594756Y640614D02*
X603940Y631430D01*
X594756Y640614D02*
Y641032D01*
X593944Y641844D02*
X594756Y641032D01*
X593944Y641844D02*
Y645236D01*
X593780Y645400D02*
X593944Y645236D01*
X775390Y626350D02*
X807140Y594600D01*
X601400Y626350D02*
X775390D01*
X591195Y636555D02*
X601400Y626350D01*
X591195Y636555D02*
Y636884D01*
X589970Y638109D02*
X591195Y636884D01*
X589970Y638109D02*
Y639050D01*
X1086540Y357110D02*
Y496810D01*
X1078920Y500949D02*
Y501890D01*
Y500949D02*
X1080190Y499679D01*
X1086540Y357110D02*
X1101780Y341870D01*
X413440Y646670D02*
Y667745D01*
X420305Y674610D01*
X429950D01*
X1137340Y265670D02*
X1199570D01*
X1205920Y259320D01*
X1134800Y268210D02*
X1137340Y265670D01*
X1134800Y268210D02*
Y273290D01*
X1124640Y259320D02*
X1170360D01*
X1122100Y261860D02*
X1124640Y259320D01*
X1122100Y261860D02*
Y266940D01*
X560760Y532370D02*
X564570Y536180D01*
X560760Y513320D02*
Y532370D01*
X544762Y497322D02*
X560760Y513320D01*
X409827Y497322D02*
X544762D01*
X408851Y498298D02*
X409827Y497322D01*
X402920Y498298D02*
X408851D01*
X688365Y527955D02*
X689030Y527290D01*
X688365Y527955D02*
Y529225D01*
X626800Y590790D02*
X688365Y529225D01*
X370358Y252872D02*
X433760D01*
X340756Y248184D02*
X438840D01*
X800790Y552690D02*
Y588250D01*
X375640Y257658D02*
X428680Y258050D01*
X451540Y239000D02*
Y277100D01*
X429950Y298690D02*
X451540Y277100D01*
X429950Y298690D02*
Y329170D01*
X396930Y362190D02*
X429950Y329170D01*
X396930Y362190D02*
Y546340D01*
X404768Y554178D02*
X418160D01*
X396930Y546340D02*
X404768Y554178D01*
X1477700Y334250D02*
Y453630D01*
X1304980Y345680D02*
X1331650Y319010D01*
X1228780Y345680D02*
X1304980D01*
X1224970Y341870D02*
X1228780Y345680D01*
X1101780Y341870D02*
X1224970D01*
X1231320Y340600D02*
X1301170D01*
X1226240Y335520D02*
X1231320Y340600D01*
X1097970Y335520D02*
X1226240D01*
X1080190Y353300D02*
X1097970Y335520D01*
X1075110Y349490D02*
Y495540D01*
X1080190Y353300D02*
Y499679D01*
X1075110Y349490D02*
X1094160Y330440D01*
X1232590Y335520D02*
X1297360D01*
X1227510Y330440D02*
X1232590Y335520D01*
X1094160Y330440D02*
X1227510D01*
X1274500Y767320D02*
X1293860Y747960D01*
X945570Y767320D02*
X1274500D01*
X1245290Y865110D02*
X1321490D01*
X1326570Y870190D01*
X1195760Y815580D02*
X1245290Y865110D01*
X1195760Y785100D02*
Y815580D01*
X1183060Y772400D02*
X1195760Y785100D01*
X939220Y772400D02*
X1183060D01*
X1188140Y818120D02*
X1241480Y871460D01*
X1188140Y788910D02*
Y818120D01*
X1241480Y871460D02*
X1309609D01*
X1310879Y870190D01*
X1311820D01*
X1176710Y777480D02*
X1188140Y788910D01*
X945570Y777480D02*
X1176710D01*
X1061140Y792720D02*
X1170360D01*
X1048440Y788910D02*
X1058600Y799070D01*
X1159232D01*
X949380Y788910D02*
X1048440D01*
X1052250Y783830D02*
X1061140Y792720D01*
X944300Y783830D02*
X1052250D01*
X932870Y795260D02*
X944300Y783830D01*
X800790Y795260D02*
X932870D01*
X1239242Y879080D02*
X1626290D01*
X1159232Y799070D02*
X1239242Y879080D01*
X1626290D02*
X1631370Y874000D01*
X1642800Y884160D02*
X1646610Y880350D01*
X1235432Y884160D02*
X1642800D01*
X1155422Y804150D02*
X1235432Y884160D01*
X1918390Y889240D02*
X1946330Y861300D01*
X1231622Y889240D02*
X1918390D01*
X1151612Y809230D02*
X1231622Y889240D01*
X1933630Y894320D02*
X1950140Y877810D01*
X1227812Y894320D02*
X1933630D01*
X1147802Y814310D02*
X1227812Y894320D01*
X937950Y800340D02*
X949380Y788910D01*
X809680Y800340D02*
X937950D01*
X1948870Y899400D02*
X1965380Y882890D01*
X1224002Y899400D02*
X1948870D01*
X1143992Y819390D02*
X1224002Y899400D01*
X1057330Y804150D02*
X1155422D01*
X1047170Y793990D02*
X1057330Y804150D01*
X953190Y793990D02*
X1047170D01*
X940490Y806690D02*
X953190Y793990D01*
X800790Y806690D02*
X940490D01*
X1933860Y702780D02*
X1946330Y715250D01*
Y861300D01*
X1054790Y809230D02*
X1151612D01*
X1044630Y799070D02*
X1054790Y809230D01*
X958270Y799070D02*
X1044630D01*
X944300Y813040D02*
X958270Y799070D01*
X728400Y813040D02*
X944300D01*
X724590Y809230D02*
X728400Y813040D01*
X724590Y802880D02*
Y809230D01*
X709350Y787640D02*
X724590Y802880D01*
X691570Y787640D02*
X709350D01*
X1052250Y814310D02*
X1147802D01*
X1042090Y804150D02*
X1052250Y814310D01*
X960810Y804150D02*
X1042090D01*
X946840Y818120D02*
X960810Y804150D01*
X724590Y818120D02*
X946840D01*
X718240Y811770D02*
X724590Y818120D01*
X718240Y804150D02*
Y811770D01*
X706810Y792720D02*
X718240Y804150D01*
X685220Y792720D02*
X706810D01*
X1049710Y819390D02*
X1143992D01*
X1039550Y809230D02*
X1049710Y819390D01*
X963350Y809230D02*
X1039550D01*
X949380Y823200D02*
X963350Y809230D01*
X722050Y823200D02*
X949380D01*
X713160Y814310D02*
X722050Y823200D01*
X713160Y806690D02*
Y814310D01*
X704270Y797800D02*
X713160Y806690D01*
X691570Y797800D02*
X704270D01*
X875720Y642860D02*
X884610D01*
X868100Y650480D02*
X875720Y642860D01*
X868100Y650480D02*
Y666990D01*
X1293550Y329170D02*
X1320220Y302500D01*
X1237670Y329170D02*
X1293550D01*
X987480Y319010D02*
X1287200D01*
X1313870Y292340D01*
X474400Y216140D02*
X1251640D01*
X451540Y239000D02*
X474400Y216140D01*
X331282Y257658D02*
X340756Y248184D01*
X1289740Y324090D02*
X1316410Y297420D01*
X990020Y324090D02*
X1289740D01*
X795710Y550150D02*
Y585710D01*
X776660Y612380D02*
X800790Y588250D01*
X766500Y614920D02*
X795710Y585710D01*
X785550Y545070D02*
Y580630D01*
X760150Y606030D02*
X785550Y580630D01*
X769040Y604760D02*
X790630Y583170D01*
X898580Y266940D02*
X912550Y252970D01*
X892230Y264400D02*
X910010Y246620D01*
X892230Y264400D02*
Y438390D01*
X898580Y266940D02*
Y439660D01*
X790630Y547610D02*
X898580Y439660D01*
X790630Y547610D02*
Y583170D01*
X885880Y261860D02*
Y433310D01*
X786820Y532370D02*
X885880Y433310D01*
X785550Y545070D02*
X892230Y438390D01*
X733480Y565390D02*
X873180Y425690D01*
X725860Y565390D02*
X865560Y425690D01*
X725860Y557770D02*
X857940Y425690D01*
X865560Y395210D02*
Y425690D01*
X734750Y573010D02*
X880800Y426960D01*
Y395210D02*
Y426960D01*
X892230Y517130D02*
X896040Y520940D01*
X899850Y517130D02*
X936680D01*
X896040Y520940D02*
X940490D01*
X883340Y506970D02*
X926520D01*
X889690Y501890D02*
X923980D01*
X889690Y512050D02*
X894770D01*
X847780Y517130D02*
X892230D01*
X940490Y520940D02*
X959540Y501890D01*
Y499350D02*
Y501890D01*
X926520Y506970D02*
X946840Y486650D01*
X951920Y500620D02*
Y501890D01*
X936680Y517130D02*
X951920Y501890D01*
X894770Y512050D02*
X899850Y517130D01*
X322000Y633970D02*
X400740D01*
X413440Y646670D01*
X923980Y501890D02*
X937950Y487920D01*
X857940Y390130D02*
Y425690D01*
X873180Y390130D02*
Y425690D01*
X850320Y395210D02*
Y425690D01*
X718240Y557770D02*
X850320Y425690D01*
X842700Y390130D02*
Y425690D01*
X718240Y550150D02*
X842700Y425690D01*
X835080Y395210D02*
Y424420D01*
X710620Y548880D02*
X835080Y424420D01*
X827460Y390130D02*
Y424420D01*
X710620Y541260D02*
X827460Y424420D01*
X365572Y257658D02*
X370358Y252872D01*
X304520Y257658D02*
X331282D01*
X340080D02*
X365572D01*
D80*
X1596390Y205740D02*
X1648460D01*
X1229553Y205483D02*
X1234375Y200660D01*
X1229553Y205483D02*
X1233105Y209035D01*
X1226000Y201930D02*
X1229553Y205483D01*
X2030283Y347533D02*
Y357976D01*
X1591310Y200660D02*
X1596390Y205740D01*
X1234375Y200660D02*
X1591310D01*
X1790700Y341630D02*
X2024380D01*
X1784350D02*
X1790700D01*
X1778000D02*
X1784350D01*
X1771650D02*
X1778000D01*
X2024380D02*
X2030283Y347533D01*
D86*
X1216660Y595630D02*
X1268730D01*
X1203960Y582930D02*
X1216660Y595630D01*
X1203960Y567690D02*
Y582930D01*
X1575530Y582390D02*
X1586230Y593090D01*
X1602740D01*
X1575530Y557770D02*
Y582390D01*
X1852930Y589280D02*
X1892300D01*
X1844040Y580390D02*
X1852930Y589280D01*
X1922780Y294640D02*
Y295306D01*
X1924050Y296576D01*
Y322580D01*
X1158240Y293370D02*
Y299720D01*
X1149350Y308610D02*
X1158240Y299720D01*
X1104900Y308610D02*
X1149350D01*
X347400Y296150D02*
Y311730D01*
X336550Y322580D02*
X347400Y311730D01*
X308610Y322580D02*
X336550D01*
X2014882Y937868D02*
X2030730Y922020D01*
X2040890D01*
X1199938Y937868D02*
X2014882D01*
X2029460Y906780D02*
X2043430D01*
X2024380Y911860D02*
X2029460Y906780D01*
X2024380Y911860D02*
Y916940D01*
X2010170Y931150D02*
X2024380Y916940D01*
X1202110Y931150D02*
X2010170D01*
X1204952Y924800D02*
X2005330D01*
X2054860Y900430D02*
Y906780D01*
X2051050Y896620D02*
X2054860Y900430D01*
X2024380Y896620D02*
X2051050D01*
X2016760Y904240D02*
X2024380Y896620D01*
X2016760Y904240D02*
Y913370D01*
X2005330Y924800D02*
X2016760Y913370D01*
X1213842Y912100D02*
X1873010D01*
X1873250Y911860D01*
X654650Y899490D02*
X716970Y837170D01*
X658790Y908050D02*
X723320Y843520D01*
X643890Y908050D02*
X658790D01*
X662001Y917239D02*
X729670Y849570D01*
X633970Y890510D02*
X650930D01*
X633730Y890270D02*
X633970Y890510D01*
X441886Y926325D02*
X665765Y926325D01*
X437655Y926325D02*
X441886D01*
X433070Y930910D02*
Y935990D01*
Y930910D02*
X437655Y926325D01*
X448310Y935411D02*
X669529Y935411D01*
X457200Y917239D02*
X662001Y917239D01*
X438150Y909320D02*
Y910590D01*
X444799Y917239D01*
X457200D01*
X1135102Y833360D02*
X1213842Y912100D01*
X1042781Y833360D02*
X1135102D01*
X1217652Y905750D02*
X1863780D01*
X1138912Y827010D02*
X1217652Y905750D01*
X1210032Y918450D02*
X1848540D01*
X1131292Y839710D02*
X1210032Y918450D01*
X1126212Y846060D02*
X1204952Y924800D01*
X1123370Y852410D02*
X1202110Y931150D01*
X1120830Y858760D02*
X1199938Y937868D01*
X979500Y817068D02*
X1035380D01*
X987120Y823418D02*
X1032840D01*
X1035380Y817068D02*
X1045321Y827010D01*
X1032840Y823418D02*
X1042781Y833360D01*
X979500Y829768D02*
X1030300D01*
X1040241Y839710D01*
X650930Y890510D02*
X710620Y830820D01*
X835080D01*
X716970Y837170D02*
X828730D01*
X723320Y843520D02*
X835080D01*
X729670Y849570D02*
X828730D01*
X665765Y926325D02*
X736020Y856070D01*
X835080D01*
X669529Y935411D02*
X742370Y862570D01*
X828730D01*
X1040241Y839710D02*
X1131292D01*
X1045321Y827010D02*
X1138912D01*
X1030218Y846060D02*
X1126212D01*
X1007290Y868988D02*
X1030218Y846060D01*
X1035598Y852410D02*
X1123370D01*
X998550Y875488D02*
X1012520D01*
X1035598Y852410D01*
X1039408Y858760D02*
X1120830D01*
X1016330Y881838D02*
X1039408Y858760D01*
X994740Y881838D02*
X1016330D01*
X990930Y869808D02*
X998250Y862488D01*
X990930Y878028D02*
X994740Y881838D01*
X990930Y869808D02*
Y878028D01*
D87*
X1826260Y402590D02*
X1847850D01*
X1610526Y379838D02*
X1803508D01*
X1826260Y402590D01*
X1405310Y458710D02*
Y511338D01*
X1368480Y421880D02*
X1405310Y458710D01*
Y511338D02*
X1438330Y544358D01*
X892230Y664450D02*
X925250Y697470D01*
X802060Y749540D02*
X812220D01*
X894770Y666990D01*
X916360Y645400D01*
X638230Y730490D02*
X663630Y755890D01*
X866830Y268210D02*
X879530Y255510D01*
Y246620D02*
Y255510D01*
X583620Y527290D02*
X622990Y487920D01*
X763960Y747000D02*
X799520D01*
X893500Y567930D02*
X916360Y590790D01*
X893500Y536180D02*
Y567930D01*
X916360Y590790D02*
Y645400D01*
X584890Y646670D02*
Y670800D01*
X572190Y633970D02*
X584890Y646670D01*
X572190Y566660D02*
Y633970D01*
X1438330Y544358D02*
Y644130D01*
X856670Y268210D02*
X866830D01*
X828730Y296150D02*
X856670Y268210D01*
X828730Y296150D02*
Y330440D01*
X802030Y435880D02*
X817300Y420610D01*
Y373620D02*
Y420610D01*
Y373620D02*
X828730Y362190D01*
X802030Y435880D02*
Y440900D01*
X828730Y330440D02*
Y362190D01*
X626770Y487890D02*
X633150Y494270D01*
X659820D01*
X713190Y440900D01*
X802030D01*
X583620Y527290D02*
Y555230D01*
X572190Y566660D02*
X583620Y555230D01*
X1437060Y645400D02*
X1438330Y644130D01*
X1335460Y421880D02*
X1368480D01*
X633150Y725410D02*
X638230Y730490D01*
X581080Y674610D02*
X584890Y670800D01*
X581080Y674610D02*
Y682230D01*
X588700Y689850D01*
X597590D01*
X633150Y725410D01*
X666170Y753350D02*
X671250Y748270D01*
X663630Y755890D02*
X666170Y753350D01*
X671250Y748270D02*
X703000D01*
X718240Y763510D01*
X747450D01*
X763960Y747000D01*
X799520D02*
X802060Y749540D01*
X925250Y697470D02*
X1049710D01*
X1165280Y581900D01*
Y491730D02*
Y581900D01*
Y491730D02*
X1212270Y444740D01*
X1312600D01*
X1335460Y421880D01*
Y392670D02*
Y421880D01*
Y386320D02*
Y392670D01*
Y379970D02*
Y386320D01*
Y373620D02*
Y379970D01*
Y367270D02*
Y373620D01*
D88*
X2078410Y431800D02*
Y644130D01*
X1847850Y402590D02*
X2049200D01*
X2078410Y431800D01*
X1880290Y759700D02*
X1890450Y769860D01*
X1880290Y679690D02*
Y759700D01*
Y679690D02*
X1895920Y664060D01*
X1896800Y653020D02*
Y661386D01*
X1896488Y661698D02*
X1896800Y661386D01*
X1896488Y661698D02*
Y663492D01*
X1895920Y664060D02*
X1896488Y663492D01*
X1896800Y653020D02*
X1901880Y647940D01*
X2074600D01*
X2078410Y644130D01*
D89*
X841430Y526020D02*
X851590Y536180D01*
X893500D01*
D92*
X1901860Y735660D02*
D03*
X2015860D02*
D03*
X1581860D02*
D03*
X1695860D02*
D03*
X1261860D02*
D03*
X1375860D02*
D03*
D93*
X1933860Y665660D02*
D03*
X1983860D02*
D03*
X1933860Y810660D02*
D03*
X1958860D02*
D03*
X1983860D02*
D03*
X1613860Y665660D02*
D03*
X1663860D02*
D03*
X1613860Y810660D02*
D03*
X1638860D02*
D03*
X1663860D02*
D03*
X1293860Y665660D02*
D03*
X1343860D02*
D03*
X1293860Y810660D02*
D03*
X1318860D02*
D03*
X1343860D02*
D03*
D94*
X904240Y308610D02*
D03*
X915670Y275590D02*
D03*
X918210Y350520D02*
D03*
X2052487Y878257D02*
D03*
X2092487Y798257D02*
D03*
Y638257D02*
D03*
X2052487Y558257D02*
D03*
X2092487Y478257D02*
D03*
Y318257D02*
D03*
X2052487Y238257D02*
D03*
X1972487Y878257D02*
D03*
Y718257D02*
D03*
Y558257D02*
D03*
X2012487Y478257D02*
D03*
X1972487Y238257D02*
D03*
X1892487Y878257D02*
D03*
X1932487Y638257D02*
D03*
X1892487Y558257D02*
D03*
X1932487Y478257D02*
D03*
X1812487Y878257D02*
D03*
X1852487Y798257D02*
D03*
X1812487Y718257D02*
D03*
Y238257D02*
D03*
X1732487Y878257D02*
D03*
X1772487Y798257D02*
D03*
X1732487Y558257D02*
D03*
Y398257D02*
D03*
X1692487Y798257D02*
D03*
X1652487Y558257D02*
D03*
Y398257D02*
D03*
X1612487Y638257D02*
D03*
Y478257D02*
D03*
X1572487Y398257D02*
D03*
X1612487Y318257D02*
D03*
X1572487Y238257D02*
D03*
X1532487Y638257D02*
D03*
X1492487Y398257D02*
D03*
Y238257D02*
D03*
X1412487Y718257D02*
D03*
Y558257D02*
D03*
Y398257D02*
D03*
X1332487Y718257D02*
D03*
Y558257D02*
D03*
X1292487Y638257D02*
D03*
X1252487Y558257D02*
D03*
Y398257D02*
D03*
X1172487Y718257D02*
D03*
X1212487Y638257D02*
D03*
X1172487Y398257D02*
D03*
X1132487Y638257D02*
D03*
X1092487Y558257D02*
D03*
Y398257D02*
D03*
X1012487Y718257D02*
D03*
X1052487Y638257D02*
D03*
X1012487Y398257D02*
D03*
X932487Y718257D02*
D03*
X972487Y638257D02*
D03*
Y318257D02*
D03*
X772487Y398257D02*
D03*
X732487Y798257D02*
D03*
X692487Y398257D02*
D03*
Y238257D02*
D03*
X612487Y878257D02*
D03*
X652487Y798257D02*
D03*
Y478257D02*
D03*
X532487Y878257D02*
D03*
X572487Y798257D02*
D03*
X532487Y718257D02*
D03*
Y558257D02*
D03*
X572487Y478257D02*
D03*
Y318257D02*
D03*
X452487Y878257D02*
D03*
X492487Y798257D02*
D03*
X452487Y718257D02*
D03*
X492487Y478257D02*
D03*
X452487Y398257D02*
D03*
X492487Y318257D02*
D03*
X372487Y878257D02*
D03*
X412487Y798257D02*
D03*
X372487Y558257D02*
D03*
Y398257D02*
D03*
X292487Y878257D02*
D03*
X332487Y798257D02*
D03*
X292487Y718257D02*
D03*
Y558257D02*
D03*
X332487Y478257D02*
D03*
X292487Y398257D02*
D03*
Y238257D02*
D03*
X212487Y718257D02*
D03*
X1639570Y205740D02*
D03*
X1648460D02*
D03*
X1233105Y209035D02*
D03*
X1226000Y201930D02*
D03*
X1748950Y218215D02*
D03*
X1455420Y236220D02*
D03*
X1445260Y327660D02*
D03*
X1329690Y283210D02*
D03*
X1090350Y283450D02*
D03*
X2030730Y350520D02*
D03*
X2030283Y357976D02*
D03*
X1790700Y341630D02*
D03*
X1784350D02*
D03*
X1778000D02*
D03*
X1771650D02*
D03*
X1828800Y402590D02*
D03*
X1835150D02*
D03*
X1841500D02*
D03*
X1847850D02*
D03*
X1610526Y379838D02*
D03*
X1616637Y379999D02*
D03*
X1622820Y379970D02*
D03*
X1529135Y325360D02*
D03*
X1490360Y307634D02*
D03*
X1540510Y250190D02*
D03*
X1550670Y257810D02*
D03*
X1460360Y325120D02*
D03*
X1470360D02*
D03*
X1461914Y438157D02*
D03*
X1470660Y443230D02*
D03*
X1580133Y311276D02*
D03*
X1570425Y304857D02*
D03*
X1450340Y302260D02*
D03*
X1500360Y313930D02*
D03*
X1510360Y319010D02*
D03*
X1191950Y482840D02*
D03*
X1414780Y486410D02*
D03*
X534670Y303530D02*
D03*
X610967Y438150D02*
D03*
X1532890Y629920D02*
D03*
X1511300Y640080D02*
D03*
X1835150Y637540D02*
D03*
X1268730Y595630D02*
D03*
X1203960Y567690D02*
D03*
X1575530Y557770D02*
D03*
X1602740Y593090D02*
D03*
X1892300Y589280D02*
D03*
X1844040Y580390D02*
D03*
X1922780Y294640D02*
D03*
X1924050Y322580D02*
D03*
X1158240Y293370D02*
D03*
X1104900Y308610D02*
D03*
X308610Y322580D02*
D03*
X347400Y296150D02*
D03*
X367030Y741680D02*
D03*
X345440Y685800D02*
D03*
X2040890Y922020D02*
D03*
X2043430Y906780D02*
D03*
X2054860D02*
D03*
X1849120Y918210D02*
D03*
X1873250Y911860D02*
D03*
X1864360Y905510D02*
D03*
X655320Y899160D02*
D03*
X643890Y908050D02*
D03*
X633730Y890270D02*
D03*
X433070Y935990D02*
D03*
X448310D02*
D03*
X438150Y909320D02*
D03*
X618933Y374810D02*
D03*
X646430Y412750D02*
D03*
X637540Y424180D02*
D03*
X617220Y444500D02*
D03*
X923290Y403860D02*
D03*
X922020Y414020D02*
D03*
X952500Y622300D02*
D03*
X957580Y615950D02*
D03*
X1274500Y212330D02*
D03*
X1280850Y217410D02*
D03*
X1282120Y225030D02*
D03*
X1285930Y231380D02*
D03*
X1843460Y202170D02*
D03*
X988750Y426960D02*
D03*
X795020Y228600D02*
D03*
X854710D02*
D03*
X737870D02*
D03*
X930330Y539990D02*
D03*
X875720Y559040D02*
D03*
X882070Y553960D02*
D03*
X593780Y645400D02*
D03*
X589970Y639050D02*
D03*
X1150040Y551420D02*
D03*
X1185600Y566660D02*
D03*
X1472620Y593330D02*
D03*
X1492940Y599680D02*
D03*
X1613860Y748000D02*
D03*
X1792660Y594600D02*
D03*
X1812980Y599680D02*
D03*
X419790Y613650D02*
D03*
X422330Y636510D02*
D03*
X555680Y655560D02*
D03*
X560760Y697470D02*
D03*
X1890450Y769860D02*
D03*
X1895920Y664060D02*
D03*
X1437060Y645400D02*
D03*
X1086540Y496810D02*
D03*
X1078920Y501890D02*
D03*
X2074600Y647940D02*
D03*
X429950Y674610D02*
D03*
X1214810Y542530D02*
D03*
X1236400Y504430D02*
D03*
X1244020Y534910D02*
D03*
X1536120Y545070D02*
D03*
X1555170Y550150D02*
D03*
Y505700D02*
D03*
X1854890Y542530D02*
D03*
X1884100Y534910D02*
D03*
X516310Y411720D02*
D03*
X596320Y515860D02*
D03*
X374070Y715250D02*
D03*
X403280Y763510D02*
D03*
X388040Y594600D02*
D03*
X1134800Y273290D02*
D03*
X1122100Y266940D02*
D03*
X939220Y503160D02*
D03*
X564570Y536180D02*
D03*
X626800Y590790D02*
D03*
X689030Y527290D02*
D03*
X505196Y448550D02*
D03*
X490910D02*
D03*
X466780Y424420D02*
D03*
Y404100D02*
D03*
X475554Y395326D02*
D03*
X509469Y397210D02*
D03*
X546018D02*
D03*
X586160Y411720D02*
D03*
X638230D02*
D03*
X873180Y261860D02*
D03*
X876990Y258050D02*
D03*
X879530Y252970D02*
D03*
Y246620D02*
D03*
X620420Y490430D02*
D03*
X626770Y487890D02*
D03*
X903630Y406610D02*
D03*
X802030Y440900D02*
D03*
X921410Y423120D02*
D03*
X841400Y525990D02*
D03*
X581080Y682230D02*
D03*
Y674610D02*
D03*
X584890Y670800D02*
D03*
X638230Y730490D02*
D03*
X633150Y725410D02*
D03*
X666170Y753350D02*
D03*
X661090Y758430D02*
D03*
X814760Y747000D02*
D03*
X807140Y749540D02*
D03*
X799520Y747000D02*
D03*
X897310Y669530D02*
D03*
X892230Y664450D02*
D03*
X1335460Y367270D02*
D03*
Y373620D02*
D03*
Y379970D02*
D03*
Y386320D02*
D03*
Y392670D02*
D03*
X428680Y258050D02*
D03*
X433760Y252970D02*
D03*
X402920Y498298D02*
D03*
X1075110Y495540D02*
D03*
X945570Y767320D02*
D03*
X939220Y772400D02*
D03*
X945570Y777480D02*
D03*
X1170360Y792720D02*
D03*
X1311820Y870190D02*
D03*
X1326570D02*
D03*
X1631370Y874000D02*
D03*
X1646610Y880350D02*
D03*
X800790Y795260D02*
D03*
X809680Y800340D02*
D03*
X800790Y806690D02*
D03*
X1950140Y877810D02*
D03*
X1965380Y882890D02*
D03*
X987120Y823418D02*
D03*
X979500Y817068D02*
D03*
X691570Y787640D02*
D03*
X685220Y792720D02*
D03*
X691570Y797800D02*
D03*
X884610Y642860D02*
D03*
X868100Y666990D02*
D03*
X1237670Y329170D02*
D03*
X1251640Y216140D02*
D03*
X438840Y247890D02*
D03*
X760150Y606030D02*
D03*
X769040Y604760D02*
D03*
X1170360Y259320D02*
D03*
X1205920D02*
D03*
X733480Y565390D02*
D03*
X725860Y557770D02*
D03*
X734750Y573010D02*
D03*
X883340Y506970D02*
D03*
X889690Y501890D02*
D03*
X889690Y512050D02*
D03*
X847780Y517130D02*
D03*
X766500Y614920D02*
D03*
X776660Y612380D02*
D03*
X786820Y532370D02*
D03*
X1915850Y209790D02*
D03*
X1880290Y204710D02*
D03*
X828730Y330440D02*
D03*
X893500Y536180D02*
D03*
X959540Y499350D02*
D03*
X946840Y486650D02*
D03*
X937950Y487920D02*
D03*
X951920Y500620D02*
D03*
X322000Y633970D02*
D03*
X857940Y390130D02*
D03*
X880800Y395210D02*
D03*
X873180Y390130D02*
D03*
X865560Y395210D02*
D03*
X850320D02*
D03*
X842700Y390130D02*
D03*
X835080Y395210D02*
D03*
X827460Y390130D02*
D03*
X718240Y557770D02*
D03*
X725860Y565390D02*
D03*
X718240Y550150D02*
D03*
X710620Y548880D02*
D03*
Y541260D02*
D03*
X835080Y830820D02*
D03*
X828730Y837170D02*
D03*
X835080Y843520D02*
D03*
X828730Y849570D02*
D03*
X835080Y856070D02*
D03*
X828730Y862570D02*
D03*
X1864690Y262078D02*
D03*
Y269698D02*
D03*
X1900250Y260808D02*
D03*
Y268428D02*
D03*
X1881200Y267158D02*
D03*
X411810Y502108D02*
D03*
X418160Y554178D02*
D03*
X304520Y257658D02*
D03*
X340080D02*
D03*
X375640D02*
D03*
X979500Y829768D02*
D03*
X1007290Y868988D02*
D03*
X998550Y875488D02*
D03*
X998250Y862488D02*
D03*
M02*
