G04*
G04 #@! TF.GenerationSoftware,Altium Limited,Altium Designer,22.1.2 (22)*
G04*
G04 Layer_Color=16711935*
%FSLAX44Y44*%
%MOMM*%
G71*
G04*
G04 #@! TF.SameCoordinates,4FF52C19-E322-4989-B108-829305E1C033*
G04*
G04*
G04 #@! TF.FilePolarity,Negative*
G04*
G01*
G75*
%ADD77O,2.9032X3.8032*%
G04:AMPARAMS|DCode=78|XSize=1.8032mm|YSize=2.3032mm|CornerRadius=0mm|HoleSize=0mm|Usage=FLASHONLY|Rotation=180.000|XOffset=0mm|YOffset=0mm|HoleType=Round|Shape=Octagon|*
%AMOCTAGOND78*
4,1,8,0.4508,-1.1516,-0.4508,-1.1516,-0.9016,-0.7008,-0.9016,0.7008,-0.4508,1.1516,0.4508,1.1516,0.9016,0.7008,0.9016,-0.7008,0.4508,-1.1516,0.0*
%
%ADD78OCTAGOND78*%

D77*
X1901860Y735660D02*
D03*
X2015860D02*
D03*
X1581860D02*
D03*
X1695860D02*
D03*
X1261860D02*
D03*
X1375860D02*
D03*
D78*
X1933860Y665660D02*
D03*
X1983860D02*
D03*
X1933860Y810660D02*
D03*
X1958860D02*
D03*
X1983860D02*
D03*
X1613860Y665660D02*
D03*
X1663860D02*
D03*
X1613860Y810660D02*
D03*
X1638860D02*
D03*
X1663860D02*
D03*
X1293860Y665660D02*
D03*
X1343860D02*
D03*
X1293860Y810660D02*
D03*
X1318860D02*
D03*
X1343860D02*
D03*
M02*
