G04*
G04 #@! TF.GenerationSoftware,Altium Limited,Altium Designer,22.1.2 (22)*
G04*
G04 Layer_Color=65535*
%FSLAX44Y44*%
%MOMM*%
G71*
G04*
G04 #@! TF.SameCoordinates,4FF52C19-E322-4989-B108-829305E1C033*
G04*
G04*
G04 #@! TF.FilePolarity,Positive*
G04*
G01*
G75*
%ADD10C,0.1000*%
%ADD11C,0.2500*%
%ADD12C,0.2000*%
%ADD13C,0.6000*%
%ADD14C,0.1524*%
%ADD15C,0.1270*%
%ADD16C,0.1500*%
%ADD17R,0.3810X0.2540*%
D10*
X1983781Y760234D02*
G03*
X1980405Y763260I-25590J-25147D01*
G01*
X1986743Y756815D02*
G03*
X1983781Y760234I-27639J-20954D01*
G01*
X1991301Y748988D02*
G03*
X1989323Y753094I-25193J-9602D01*
G01*
X1992603Y744635D02*
G03*
X1991301Y748988I-30165J-6650D01*
G01*
X1989422Y739854D02*
G03*
X1987236Y747266I-35023J-6299D01*
G01*
X1984841Y750660D02*
G03*
X1983042Y753245I-98399J-66541D01*
G01*
X1983042Y753245D02*
G03*
X1981120Y755716I-31669J-22656D01*
G01*
X1972554Y767690D02*
G03*
X1968310Y769360I-50492J-122096D01*
G01*
X1978953Y757962D02*
G03*
X1976512Y759934I-18182J-20014D01*
G01*
X1976512D02*
G03*
X1973860Y761641I-18511J-25844D01*
G01*
Y761641D02*
G03*
X1971055Y763084I-15930J-27510D01*
G01*
X1971055Y763084D02*
G03*
X1968128Y764212I-11169J-24626D01*
G01*
D02*
G03*
X1965099Y764966I-7358J-23109D01*
G01*
X1966475Y704599D02*
G03*
X1973616Y707259I-6039J27125D01*
G01*
X1941965Y760508D02*
G03*
X1940614Y758856I23809J-20845D01*
G01*
X1943485Y761998D02*
G03*
X1941965Y760508I11190J-12937D01*
G01*
X1945168Y763323D02*
G03*
X1943485Y761998I13538J-18921D01*
G01*
X1946955Y764522D02*
G03*
X1945168Y763323I18692J-29810D01*
G01*
X1948802Y765617D02*
G03*
X1946955Y764522I18562J-33396D01*
G01*
X1950706Y766591D02*
G03*
X1948802Y765617I13022J-27825D01*
G01*
X1952672Y767413D02*
G03*
X1950706Y766591I8873J-23983D01*
G01*
X1954699Y768073D02*
G03*
X1952672Y767413I8175J-28529D01*
G01*
X1955722Y765395D02*
G03*
X1952621Y764966I3786J-38755D01*
G01*
Y764966D02*
G03*
X1949592Y764212I4329J-23863D01*
G01*
D02*
G03*
X1946664Y763084I8242J-25754D01*
G01*
X1946664Y763084D02*
G03*
X1943860Y761641I13126J-28953D01*
G01*
Y761641D02*
G03*
X1941208Y759934I15859J-27551D01*
G01*
X1941208Y759934D02*
G03*
X1938767Y757962I15742J-21985D01*
G01*
X1932000Y757813D02*
G03*
X1931035Y756307I25472J-17368D01*
G01*
X1933054Y759230D02*
G03*
X1932000Y757813I16454J-13352D01*
G01*
X1934229Y760526D02*
G03*
X1933054Y759230I11273J-11399D01*
G01*
X1935542Y761685D02*
G03*
X1934229Y760526I10373J-13070D01*
G01*
X1936970Y762728D02*
G03*
X1935542Y761685I12313J-18358D01*
G01*
X1936600Y755716D02*
G03*
X1932879Y750660I45482J-37369D01*
G01*
X2015860Y786660D02*
G03*
X2000860Y801660I-15000J0D01*
G01*
Y669660D02*
G03*
X2015860Y684660I0J15000D01*
G01*
X1989323Y753094D02*
G03*
X1986743Y756815I-40526J-25350D01*
G01*
X1993860Y735660D02*
G03*
X1992603Y744635I-74138J-5811D01*
G01*
X1931035Y756307D02*
G03*
X1930131Y754740I45556J-27339D01*
G01*
X1916860Y801660D02*
G03*
X1901860Y786660I0J-15000D01*
G01*
X1901860Y684660D02*
G03*
X1916860Y669660I15000J0D01*
G01*
X2005860Y786660D02*
G03*
X2005860Y786660I-6000J0D01*
G01*
X2006360D02*
G03*
X2006360Y786660I-6500J0D01*
G01*
X1980405Y763260D02*
G03*
X1972554Y767690I-19811J-25939D01*
G01*
X2006360Y684660D02*
G03*
X2006360Y684660I-6500J0D01*
G01*
X1924360Y786660D02*
G03*
X1924360Y786660I-6500J0D01*
G01*
X1938485Y763684D02*
G03*
X1936970Y762728I16404J-27667D01*
G01*
X1941659Y765452D02*
G03*
X1938485Y763684I39202J-74135D01*
G01*
X1958860Y769107D02*
G03*
X1954699Y768073I16094J-73678D01*
G01*
X1958860Y765660D02*
G03*
X1955722Y765395I8427J-118488D01*
G01*
X1965099Y764966D02*
G03*
X1958860Y765660I-9622J-58074D01*
G01*
X1958860Y703283D02*
G03*
X1966475Y704599I-10507J83466D01*
G01*
X1923860Y684660D02*
G03*
X1923860Y684660I-6000J0D01*
G01*
X1924360D02*
G03*
X1924360Y684660I-6500J0D01*
G01*
X1987236Y747266D02*
G03*
X1977491Y758855I-19612J-6601D01*
G01*
X1981120Y755716D02*
G03*
X1978953Y757962I-18501J-15680D01*
G01*
X1973616Y707259D02*
G03*
X1989422Y739854I-15253J27526D01*
G01*
X1938767Y757962D02*
G03*
X1936600Y755716I16334J-17926D01*
G01*
X1932385Y715674D02*
G03*
X1958860Y703283I25452J19904D01*
G01*
X1953804Y770285D02*
G03*
X1932385Y715674I5440J-33640D01*
G01*
X1938860Y750660D02*
G03*
X1978860Y750660I20000J-15000D01*
G01*
X1932879Y750660D02*
G03*
X1984841Y750660I25981J-15000D01*
G01*
X2002023Y756660D02*
G03*
X1915697Y756660I-43162J-21000D01*
G01*
X2001392Y755660D02*
G03*
X1916328Y755660I-42532J-20000D01*
G01*
X1915697Y714660D02*
G03*
X2002023Y714660I43162J21000D01*
G01*
X1916328Y715660D02*
G03*
X2001392Y715660I42532J20000D01*
G01*
X1923860Y735660D02*
G03*
X1993860Y735660I35000J0D01*
G01*
X254359Y633160D02*
G03*
X259359Y628160I5000J0D01*
G01*
X287617Y650660D02*
G03*
X287617Y650660I-10757J0D01*
G01*
X289116Y650660D02*
G03*
X289116Y650660I-12257J0D01*
G01*
X289359D02*
G03*
X289359Y650660I-12500J0D01*
G01*
X289859D02*
G03*
X289859Y650660I-13000J0D01*
G01*
X259359Y673160D02*
G03*
X254359Y668160I0J-5000D01*
G01*
X294359Y628160D02*
G03*
X299359Y633160I0J5000D01*
G01*
Y668160D02*
G03*
X294359Y673160I-5000J0D01*
G01*
X279223Y637877D02*
G03*
X276859Y638160I-2363J-9717D01*
G01*
D02*
G03*
X274496Y637877I0J-10000D01*
G01*
X263109Y635160D02*
G03*
X263109Y635160I-1750J0D01*
G01*
X266109D02*
G03*
X266109Y635160I-4750J0D01*
G01*
X263109Y666160D02*
G03*
X263109Y666160I-1750J0D01*
G01*
X266109D02*
G03*
X266109Y666160I-4750J0D01*
G01*
X294109Y635160D02*
G03*
X294109Y635160I-1750J0D01*
G01*
X297109D02*
G03*
X297109Y635160I-4750J0D01*
G01*
X294109Y666160D02*
G03*
X294109Y666160I-1750J0D01*
G01*
X297109D02*
G03*
X297109Y666160I-4750J0D01*
G01*
X1663781Y760234D02*
G03*
X1660405Y763260I-25590J-25147D01*
G01*
X1666743Y756815D02*
G03*
X1663781Y760234I-27639J-20954D01*
G01*
X1671301Y748988D02*
G03*
X1669323Y753094I-25193J-9602D01*
G01*
X1672603Y744635D02*
G03*
X1671301Y748988I-30165J-6650D01*
G01*
X1669422Y739854D02*
G03*
X1667236Y747266I-35023J-6299D01*
G01*
X1664841Y750660D02*
G03*
X1663042Y753245I-98399J-66541D01*
G01*
X1663042Y753245D02*
G03*
X1661120Y755716I-31669J-22656D01*
G01*
X1652554Y767690D02*
G03*
X1648310Y769360I-50492J-122096D01*
G01*
X1658953Y757962D02*
G03*
X1656512Y759934I-18182J-20014D01*
G01*
X1656512D02*
G03*
X1653860Y761641I-18511J-25844D01*
G01*
Y761641D02*
G03*
X1651055Y763084I-15930J-27510D01*
G01*
X1651055Y763084D02*
G03*
X1648128Y764212I-11169J-24626D01*
G01*
D02*
G03*
X1645099Y764966I-7358J-23109D01*
G01*
X1646475Y704599D02*
G03*
X1653616Y707259I-6039J27125D01*
G01*
X1621965Y760508D02*
G03*
X1620614Y758856I23809J-20845D01*
G01*
X1623485Y761998D02*
G03*
X1621965Y760508I11190J-12937D01*
G01*
X1625168Y763323D02*
G03*
X1623485Y761998I13538J-18921D01*
G01*
X1626955Y764522D02*
G03*
X1625168Y763323I18692J-29810D01*
G01*
X1628802Y765617D02*
G03*
X1626955Y764522I18562J-33396D01*
G01*
X1630706Y766591D02*
G03*
X1628802Y765617I13022J-27825D01*
G01*
X1632672Y767413D02*
G03*
X1630706Y766591I8873J-23983D01*
G01*
X1634699Y768073D02*
G03*
X1632672Y767413I8175J-28529D01*
G01*
X1635722Y765395D02*
G03*
X1632621Y764966I3786J-38755D01*
G01*
Y764966D02*
G03*
X1629592Y764212I4329J-23863D01*
G01*
D02*
G03*
X1626664Y763084I8242J-25754D01*
G01*
X1626664Y763084D02*
G03*
X1623860Y761641I13126J-28953D01*
G01*
Y761641D02*
G03*
X1621208Y759934I15859J-27551D01*
G01*
X1621208Y759934D02*
G03*
X1618767Y757962I15742J-21985D01*
G01*
X1612000Y757813D02*
G03*
X1611035Y756307I25472J-17368D01*
G01*
X1613054Y759230D02*
G03*
X1612000Y757813I16454J-13352D01*
G01*
X1614229Y760526D02*
G03*
X1613054Y759230I11273J-11399D01*
G01*
X1615542Y761685D02*
G03*
X1614229Y760526I10373J-13070D01*
G01*
X1616970Y762728D02*
G03*
X1615542Y761685I12313J-18358D01*
G01*
X1616600Y755716D02*
G03*
X1612879Y750660I45482J-37369D01*
G01*
X1695860Y786660D02*
G03*
X1680860Y801660I-15000J0D01*
G01*
Y669660D02*
G03*
X1695860Y684660I0J15000D01*
G01*
X1669323Y753094D02*
G03*
X1666743Y756815I-40526J-25350D01*
G01*
X1673860Y735660D02*
G03*
X1672603Y744635I-74138J-5811D01*
G01*
X1611035Y756307D02*
G03*
X1610131Y754740I45556J-27339D01*
G01*
X1596860Y801660D02*
G03*
X1581860Y786660I0J-15000D01*
G01*
X1581860Y684660D02*
G03*
X1596860Y669660I15000J0D01*
G01*
X1685860Y786660D02*
G03*
X1685860Y786660I-6000J0D01*
G01*
X1686360D02*
G03*
X1686360Y786660I-6500J0D01*
G01*
X1660405Y763260D02*
G03*
X1652554Y767690I-19811J-25939D01*
G01*
X1686360Y684660D02*
G03*
X1686360Y684660I-6500J0D01*
G01*
X1604360Y786660D02*
G03*
X1604360Y786660I-6500J0D01*
G01*
X1618485Y763684D02*
G03*
X1616970Y762728I16404J-27667D01*
G01*
X1621659Y765452D02*
G03*
X1618485Y763684I39202J-74135D01*
G01*
X1638860Y769107D02*
G03*
X1634699Y768073I16094J-73678D01*
G01*
X1638860Y765660D02*
G03*
X1635722Y765395I8427J-118488D01*
G01*
X1645099Y764966D02*
G03*
X1638860Y765660I-9622J-58074D01*
G01*
X1638860Y703283D02*
G03*
X1646475Y704599I-10507J83466D01*
G01*
X1603860Y684660D02*
G03*
X1603860Y684660I-6000J0D01*
G01*
X1604360D02*
G03*
X1604360Y684660I-6500J0D01*
G01*
X1667236Y747266D02*
G03*
X1657491Y758855I-19612J-6601D01*
G01*
X1661120Y755716D02*
G03*
X1658953Y757962I-18501J-15680D01*
G01*
X1653616Y707259D02*
G03*
X1669422Y739854I-15253J27526D01*
G01*
X1618767Y757962D02*
G03*
X1616600Y755716I16334J-17926D01*
G01*
X1612385Y715674D02*
G03*
X1638860Y703283I25452J19904D01*
G01*
X1633804Y770285D02*
G03*
X1612385Y715674I5440J-33640D01*
G01*
X1618860Y750660D02*
G03*
X1658860Y750660I20000J-15000D01*
G01*
X1612879Y750660D02*
G03*
X1664841Y750660I25981J-15000D01*
G01*
X1682023Y756660D02*
G03*
X1595697Y756660I-43162J-21000D01*
G01*
X1681392Y755660D02*
G03*
X1596328Y755660I-42532J-20000D01*
G01*
X1595697Y714660D02*
G03*
X1682023Y714660I43162J21000D01*
G01*
X1596328Y715660D02*
G03*
X1681392Y715660I42532J20000D01*
G01*
X1603860Y735660D02*
G03*
X1673860Y735660I35000J0D01*
G01*
X1343781Y760234D02*
G03*
X1340405Y763260I-25590J-25147D01*
G01*
X1346743Y756815D02*
G03*
X1343781Y760234I-27639J-20954D01*
G01*
X1351301Y748988D02*
G03*
X1349323Y753094I-25193J-9602D01*
G01*
X1352603Y744635D02*
G03*
X1351301Y748988I-30165J-6650D01*
G01*
X1349422Y739854D02*
G03*
X1347236Y747266I-35023J-6299D01*
G01*
X1344841Y750660D02*
G03*
X1343042Y753245I-98399J-66541D01*
G01*
X1343042Y753245D02*
G03*
X1341120Y755716I-31669J-22656D01*
G01*
X1332554Y767690D02*
G03*
X1328310Y769360I-50492J-122096D01*
G01*
X1338953Y757962D02*
G03*
X1336512Y759934I-18182J-20014D01*
G01*
X1336512D02*
G03*
X1333860Y761641I-18511J-25844D01*
G01*
Y761641D02*
G03*
X1331055Y763084I-15930J-27510D01*
G01*
X1331056Y763084D02*
G03*
X1328128Y764212I-11169J-24626D01*
G01*
D02*
G03*
X1325099Y764966I-7358J-23109D01*
G01*
X1326475Y704599D02*
G03*
X1333616Y707259I-6039J27125D01*
G01*
X1301965Y760508D02*
G03*
X1300614Y758856I23809J-20845D01*
G01*
X1303485Y761998D02*
G03*
X1301965Y760508I11190J-12937D01*
G01*
X1305168Y763323D02*
G03*
X1303485Y761998I13538J-18921D01*
G01*
X1306955Y764522D02*
G03*
X1305168Y763323I18692J-29810D01*
G01*
X1308802Y765617D02*
G03*
X1306955Y764522I18562J-33396D01*
G01*
X1310706Y766591D02*
G03*
X1308802Y765617I13022J-27825D01*
G01*
X1312672Y767413D02*
G03*
X1310706Y766591I8873J-23983D01*
G01*
X1314699Y768073D02*
G03*
X1312672Y767413I8175J-28529D01*
G01*
X1315722Y765395D02*
G03*
X1312621Y764966I3786J-38755D01*
G01*
Y764966D02*
G03*
X1309592Y764212I4329J-23863D01*
G01*
D02*
G03*
X1306664Y763084I8242J-25754D01*
G01*
X1306664Y763084D02*
G03*
X1303860Y761641I13126J-28953D01*
G01*
Y761641D02*
G03*
X1301208Y759934I15859J-27551D01*
G01*
X1301208Y759934D02*
G03*
X1298767Y757962I15742J-21985D01*
G01*
X1292000Y757813D02*
G03*
X1291035Y756307I25472J-17368D01*
G01*
X1293054Y759230D02*
G03*
X1292000Y757813I16454J-13352D01*
G01*
X1294229Y760526D02*
G03*
X1293054Y759230I11273J-11399D01*
G01*
X1295542Y761685D02*
G03*
X1294229Y760526I10373J-13070D01*
G01*
X1296970Y762728D02*
G03*
X1295542Y761685I12313J-18358D01*
G01*
X1296600Y755716D02*
G03*
X1292879Y750660I45482J-37369D01*
G01*
X1375860Y786660D02*
G03*
X1360860Y801660I-15000J0D01*
G01*
Y669660D02*
G03*
X1375860Y684660I0J15000D01*
G01*
X1349323Y753094D02*
G03*
X1346743Y756815I-40526J-25350D01*
G01*
X1353860Y735660D02*
G03*
X1352603Y744635I-74138J-5811D01*
G01*
X1291035Y756307D02*
G03*
X1290131Y754740I45556J-27339D01*
G01*
X1276860Y801660D02*
G03*
X1261860Y786660I0J-15000D01*
G01*
X1261860Y684660D02*
G03*
X1276860Y669660I15000J0D01*
G01*
X1365860Y786660D02*
G03*
X1365860Y786660I-6000J0D01*
G01*
X1366360D02*
G03*
X1366360Y786660I-6500J0D01*
G01*
X1340405Y763260D02*
G03*
X1332554Y767690I-19811J-25939D01*
G01*
X1366360Y684660D02*
G03*
X1366360Y684660I-6500J0D01*
G01*
X1284360Y786660D02*
G03*
X1284360Y786660I-6500J0D01*
G01*
X1298485Y763684D02*
G03*
X1296970Y762728I16404J-27667D01*
G01*
X1301659Y765452D02*
G03*
X1298485Y763684I39202J-74135D01*
G01*
X1318860Y769107D02*
G03*
X1314699Y768073I16094J-73678D01*
G01*
X1318860Y765660D02*
G03*
X1315722Y765395I8427J-118488D01*
G01*
X1325099Y764966D02*
G03*
X1318860Y765660I-9622J-58074D01*
G01*
X1318860Y703283D02*
G03*
X1326475Y704599I-10507J83466D01*
G01*
X1283860Y684660D02*
G03*
X1283860Y684660I-6000J0D01*
G01*
X1284360D02*
G03*
X1284360Y684660I-6500J0D01*
G01*
X1347236Y747266D02*
G03*
X1337491Y758855I-19612J-6601D01*
G01*
X1341120Y755716D02*
G03*
X1338953Y757962I-18501J-15680D01*
G01*
X1333616Y707259D02*
G03*
X1349422Y739854I-15253J27526D01*
G01*
X1298767Y757962D02*
G03*
X1296600Y755716I16334J-17926D01*
G01*
X1292385Y715674D02*
G03*
X1318860Y703283I25452J19904D01*
G01*
X1313804Y770285D02*
G03*
X1292385Y715674I5440J-33640D01*
G01*
X1298860Y750660D02*
G03*
X1338860Y750660I20000J-15000D01*
G01*
X1292879Y750660D02*
G03*
X1344841Y750660I25981J-15000D01*
G01*
X1362023Y756660D02*
G03*
X1275697Y756660I-43162J-21000D01*
G01*
X1361392Y755660D02*
G03*
X1276328Y755660I-42532J-20000D01*
G01*
X1275697Y714660D02*
G03*
X1362023Y714660I43162J21000D01*
G01*
X1276328Y715660D02*
G03*
X1361392Y715660I42532J20000D01*
G01*
X1283860Y735660D02*
G03*
X1353860Y735660I35000J0D01*
G01*
X1981361Y553160D02*
G03*
X1976361Y558160I-5000J0D01*
G01*
X1969618Y535660D02*
G03*
X1969618Y535660I-10757J0D01*
G01*
X1971118Y535660D02*
G03*
X1971118Y535660I-12257J0D01*
G01*
X1971361D02*
G03*
X1971361Y535660I-12500J0D01*
G01*
X1971861D02*
G03*
X1971861Y535660I-13000J0D01*
G01*
X1976361Y513160D02*
G03*
X1981361Y518160I0J5000D01*
G01*
X1941361Y558160D02*
G03*
X1936361Y553160I0J-5000D01*
G01*
Y518160D02*
G03*
X1941361Y513160I5000J0D01*
G01*
X1956497Y548443D02*
G03*
X1958861Y548160I2363J9717D01*
G01*
D02*
G03*
X1961224Y548443I0J10000D01*
G01*
X1976111Y551160D02*
G03*
X1976111Y551160I-1750J0D01*
G01*
X1979111D02*
G03*
X1979111Y551160I-4750J0D01*
G01*
X1976111Y520160D02*
G03*
X1976111Y520160I-1750J0D01*
G01*
X1979111D02*
G03*
X1979111Y520160I-4750J0D01*
G01*
X1945111Y551160D02*
G03*
X1945111Y551160I-1750J0D01*
G01*
X1948111D02*
G03*
X1948111Y551160I-4750J0D01*
G01*
X1945111Y520160D02*
G03*
X1945111Y520160I-1750J0D01*
G01*
X1948111D02*
G03*
X1948111Y520160I-4750J0D01*
G01*
X1661361Y553160D02*
G03*
X1656361Y558160I-5000J0D01*
G01*
X1649618Y535660D02*
G03*
X1649618Y535660I-10757J0D01*
G01*
X1651118Y535660D02*
G03*
X1651118Y535660I-12257J0D01*
G01*
X1651361D02*
G03*
X1651361Y535660I-12500J0D01*
G01*
X1651861D02*
G03*
X1651861Y535660I-13000J0D01*
G01*
X1656361Y513160D02*
G03*
X1661361Y518160I0J5000D01*
G01*
X1621361Y558160D02*
G03*
X1616361Y553160I0J-5000D01*
G01*
Y518160D02*
G03*
X1621361Y513160I5000J0D01*
G01*
X1636497Y548443D02*
G03*
X1638861Y548160I2363J9717D01*
G01*
D02*
G03*
X1641224Y548443I0J10000D01*
G01*
X1656111Y551160D02*
G03*
X1656111Y551160I-1750J0D01*
G01*
X1659111D02*
G03*
X1659111Y551160I-4750J0D01*
G01*
X1656111Y520160D02*
G03*
X1656111Y520160I-1750J0D01*
G01*
X1659111D02*
G03*
X1659111Y520160I-4750J0D01*
G01*
X1625111Y551160D02*
G03*
X1625111Y551160I-1750J0D01*
G01*
X1628111D02*
G03*
X1628111Y551160I-4750J0D01*
G01*
X1625111Y520160D02*
G03*
X1625111Y520160I-1750J0D01*
G01*
X1628111D02*
G03*
X1628111Y520160I-4750J0D01*
G01*
X1341361Y553160D02*
G03*
X1336361Y558160I-5000J0D01*
G01*
X1329618Y535660D02*
G03*
X1329618Y535660I-10757J0D01*
G01*
X1331118Y535660D02*
G03*
X1331118Y535660I-12257J0D01*
G01*
X1331361D02*
G03*
X1331361Y535660I-12500J0D01*
G01*
X1331861D02*
G03*
X1331861Y535660I-13000J0D01*
G01*
X1336361Y513160D02*
G03*
X1341361Y518160I0J5000D01*
G01*
X1301361Y558160D02*
G03*
X1296361Y553160I0J-5000D01*
G01*
Y518160D02*
G03*
X1301361Y513160I5000J0D01*
G01*
X1316497Y548443D02*
G03*
X1318861Y548160I2363J9717D01*
G01*
D02*
G03*
X1321224Y548443I0J10000D01*
G01*
X1336111Y551160D02*
G03*
X1336111Y551160I-1750J0D01*
G01*
X1339111D02*
G03*
X1339111Y551160I-4750J0D01*
G01*
X1336111Y520160D02*
G03*
X1336111Y520160I-1750J0D01*
G01*
X1339111D02*
G03*
X1339111Y520160I-4750J0D01*
G01*
X1305111Y551160D02*
G03*
X1305111Y551160I-1750J0D01*
G01*
X1308111D02*
G03*
X1308111Y551160I-4750J0D01*
G01*
X1305111Y520160D02*
G03*
X1305111Y520160I-1750J0D01*
G01*
X1308111D02*
G03*
X1308111Y520160I-4750J0D01*
G01*
X1899800Y311150D02*
Y317500D01*
X1893450Y311150D02*
X1899800D01*
Y378460D02*
Y384810D01*
X1893450D02*
X1899800D01*
X424510Y486868D02*
Y494488D01*
X1916860Y669660D02*
X1923300Y669660D01*
X1994420D02*
X2000860D01*
X1916860Y801660D02*
X1923300D01*
X1994420D02*
X2000860D01*
X2002022Y756660D02*
X2015860Y756660D01*
X2002022Y714660D02*
X2015860D01*
X1929256Y753143D02*
X1930131Y754740D01*
X1901860Y756660D02*
X1915697Y756660D01*
X1901860Y714660D02*
X1915697Y714660D01*
X2015860Y755660D02*
Y756660D01*
Y786660D01*
X2015860Y714660D02*
X2015860Y715660D01*
X2015860Y684660D02*
Y714660D01*
X1901860Y755660D02*
Y756660D01*
Y786660D01*
Y714660D02*
Y715660D01*
Y684660D02*
Y714660D01*
X2015860Y786660D02*
X2019860D01*
X2015860Y756660D02*
X2019860D01*
X2001392Y755660D02*
X2019860D01*
X1978860Y750660D02*
X1984841D01*
X2015860Y714660D02*
X2019860Y714660D01*
X2015860Y684660D02*
X2019860D01*
X1897860Y786660D02*
X1901860D01*
X1897860Y756660D02*
X1901860D01*
X1953803Y770290D02*
X1958860Y770660D01*
X1958860Y769107D02*
X1968310Y769360D01*
X1958860Y770660D02*
X1968310Y769360D01*
X1897860Y755660D02*
X1916328D01*
X1932879Y750660D02*
X1938860D01*
X1897860Y715660D02*
X1916328D01*
X1897860Y714660D02*
X1901860Y714660D01*
X1958860Y703283D02*
X1958860Y705660D01*
X1897860Y684660D02*
X1901860Y684660D01*
X2019860Y755660D02*
Y756660D01*
Y786660D01*
Y714660D02*
Y715660D01*
Y714660D02*
X2019860Y684660D01*
X1897860Y755660D02*
Y756660D01*
Y786660D01*
Y714660D02*
Y715660D01*
Y684660D02*
Y714660D01*
X1938860Y750660D02*
X1978860D01*
X2001392Y715660D02*
X2019860D01*
X1897860Y755660D02*
X1897900D01*
X254359Y633160D02*
Y668160D01*
X259359Y628160D02*
X294359D01*
X259359Y673160D02*
X294359D01*
X299359Y633160D02*
Y668160D01*
X433330Y550368D02*
Y557988D01*
X1596860Y669660D02*
X1603300Y669660D01*
X1674420D02*
X1680860D01*
X1596860Y801660D02*
X1603300D01*
X1674420D02*
X1680860D01*
X1682022Y756660D02*
X1695860Y756660D01*
X1682022Y714660D02*
X1695860D01*
X1609256Y753143D02*
X1610131Y754740D01*
X1581860Y756660D02*
X1595697Y756660D01*
X1581860Y714660D02*
X1595697Y714660D01*
X1695860Y755660D02*
Y756660D01*
Y786660D01*
X1695860Y714660D02*
X1695860Y715660D01*
X1695860Y684660D02*
Y714660D01*
X1581860Y755660D02*
Y756660D01*
Y786660D01*
Y714660D02*
Y715660D01*
Y684660D02*
Y714660D01*
X1695860Y786660D02*
X1699860D01*
X1695860Y756660D02*
X1699860D01*
X1681392Y755660D02*
X1699860D01*
X1658860Y750660D02*
X1664841D01*
X1695860Y714660D02*
X1699860Y714660D01*
X1695860Y684660D02*
X1699860D01*
X1577860Y786660D02*
X1581860D01*
X1577860Y756660D02*
X1581860D01*
X1633803Y770290D02*
X1638860Y770660D01*
X1638860Y769107D02*
X1648310Y769360D01*
X1638860Y770660D02*
X1648310Y769360D01*
X1577860Y755660D02*
X1596328D01*
X1612879Y750660D02*
X1618860D01*
X1577860Y715660D02*
X1596328D01*
X1577860Y714660D02*
X1581860Y714660D01*
X1638860Y703283D02*
X1638860Y705660D01*
X1577860Y684660D02*
X1581860Y684660D01*
X1699860Y755660D02*
Y756660D01*
Y786660D01*
Y714660D02*
Y715660D01*
Y714660D02*
X1699860Y684660D01*
X1577860Y755660D02*
Y756660D01*
Y786660D01*
Y714660D02*
Y715660D01*
Y684660D02*
Y714660D01*
X1618860Y750660D02*
X1658860D01*
X1681392Y715660D02*
X1699860D01*
X1577860Y755660D02*
X1577900D01*
X1276860Y669660D02*
X1283300Y669660D01*
X1354420D02*
X1360860D01*
X1276860Y801660D02*
X1283300D01*
X1354420D02*
X1360860D01*
X1362022Y756660D02*
X1375860Y756660D01*
X1362022Y714660D02*
X1375860D01*
X1289256Y753143D02*
X1290131Y754740D01*
X1261860Y756660D02*
X1275697Y756660D01*
X1261860Y714660D02*
X1275697Y714660D01*
X1375860Y755660D02*
Y756660D01*
Y786660D01*
X1375860Y714660D02*
X1375860Y715660D01*
X1375860Y684660D02*
Y714660D01*
X1261860Y755660D02*
Y756660D01*
Y786660D01*
Y714660D02*
Y715660D01*
Y684660D02*
Y714660D01*
X1375860Y786660D02*
X1379860D01*
X1375860Y756660D02*
X1379860D01*
X1361392Y755660D02*
X1379860D01*
X1338860Y750660D02*
X1344841D01*
X1375860Y714660D02*
X1379860Y714660D01*
X1375860Y684660D02*
X1379860D01*
X1257860Y786660D02*
X1261860D01*
X1257860Y756660D02*
X1261860D01*
X1313803Y770290D02*
X1318860Y770660D01*
X1318860Y769107D02*
X1328310Y769360D01*
X1318860Y770660D02*
X1328310Y769360D01*
X1257860Y755660D02*
X1276328D01*
X1292879Y750660D02*
X1298860D01*
X1257860Y715660D02*
X1276328D01*
X1257860Y714660D02*
X1261860Y714660D01*
X1318860Y703283D02*
X1318860Y705660D01*
X1257860Y684660D02*
X1261860Y684660D01*
X1379860Y755660D02*
Y756660D01*
Y786660D01*
Y714660D02*
Y715660D01*
Y714660D02*
X1379860Y684660D01*
X1257860Y755660D02*
Y756660D01*
Y786660D01*
Y714660D02*
Y715660D01*
Y684660D02*
Y714660D01*
X1298860Y750660D02*
X1338860D01*
X1361392Y715660D02*
X1379860D01*
X1257860Y755660D02*
X1257900D01*
X1981361Y518160D02*
Y553160D01*
X1941361Y558160D02*
X1976361D01*
X1941361Y513160D02*
X1976361D01*
X1936361Y518160D02*
Y553160D01*
X1661361Y518160D02*
Y553160D01*
X1621361Y558160D02*
X1656361D01*
X1621361Y513160D02*
X1656361D01*
X1616361Y518160D02*
Y553160D01*
X1341361Y518160D02*
Y553160D01*
X1301361Y558160D02*
X1336361D01*
X1301361Y513160D02*
X1336361D01*
X1296361Y518160D02*
Y553160D01*
D11*
X424271Y506138D02*
G03*
X424271Y506138I-1250J0D01*
G01*
X913540Y905488D02*
G03*
X913540Y905488I-1250J0D01*
G01*
X590801Y595744D02*
G03*
X590801Y595744I-1250J0D01*
G01*
X402600Y669310D02*
G03*
X402600Y669310I-1250J0D01*
G01*
X1837780Y247498D02*
G03*
X1837780Y247498I-1250J0D01*
G01*
X1872680D02*
G03*
X1872680Y247498I-1250J0D01*
G01*
X1907630D02*
G03*
X1907630Y247498I-1250J0D01*
G01*
X402240Y614919D02*
G03*
X402240Y614919I-1250J0D01*
G01*
X1399300Y342290D02*
G03*
X1399300Y342290I-1250J0D01*
G01*
X403510Y724138D02*
G03*
X403510Y724138I-1250J0D01*
G01*
X1794270Y471830D02*
G03*
X1794270Y471830I-1250J0D01*
G01*
X1794600Y601000D02*
G03*
X1794600Y601000I-1250J0D01*
G01*
X1794600Y639928D02*
G03*
X1794600Y639928I-1250J0D01*
G01*
X1474600Y464668D02*
G03*
X1474600Y464668I-1250J0D01*
G01*
Y601000D02*
G03*
X1474600Y601000I-1250J0D01*
G01*
X1474600Y639928D02*
G03*
X1474600Y639928I-1250J0D01*
G01*
X1151980Y514200D02*
G03*
X1151980Y514200I-1250J0D01*
G01*
Y559920D02*
G03*
X1151980Y559920I-1250J0D01*
G01*
Y606910D02*
G03*
X1151980Y606910I-1250J0D01*
G01*
X940000Y333350D02*
G03*
X940000Y333350I-1250J0D01*
G01*
X368390Y247498D02*
G03*
X368390Y247498I-1250J0D01*
G01*
X332830D02*
G03*
X332830Y247498I-1250J0D01*
G01*
X297270D02*
G03*
X297270Y247498I-1250J0D01*
G01*
X1199120D02*
G03*
X1199120Y247498I-1250J0D01*
G01*
X1163560D02*
G03*
X1163560Y247498I-1250J0D01*
G01*
X1128660D02*
G03*
X1128660Y247498I-1250J0D01*
G01*
D12*
X490502Y432849D02*
G03*
X490502Y432849I-1000J0D01*
G01*
X1427090Y225395D02*
X1683630Y225395D01*
X1423280Y277700D02*
X1687440D01*
X1423280Y213965D02*
X1687440D01*
X1839790Y402120D02*
Y408370D01*
X1830540Y392870D02*
X1839790Y402120D01*
X1830540Y447870D02*
X1839790Y438620D01*
Y432370D02*
Y438620D01*
X1784790Y392870D02*
X1830540D01*
X1784790D02*
Y408370D01*
Y432370D02*
Y447870D01*
X1830540D01*
X425521Y524888D02*
X456521D01*
X425521Y514888D02*
X456521D01*
X456521Y524888D01*
X425521Y514888D02*
X425521Y524888D01*
X918790Y900838D02*
Y906988D01*
X924940D01*
X975640D02*
X981790D01*
Y900838D02*
Y906988D01*
Y843988D02*
Y850138D01*
X975640Y843988D02*
X981790D01*
X918790D02*
Y850138D01*
Y843988D02*
X924940D01*
X732210Y468996D02*
X867974Y604760D01*
X596446D02*
X732210Y740525D01*
X867974Y604760D01*
X596446D02*
X732210Y468996D01*
X384850Y694310D02*
Y702310D01*
X389850D01*
X384850Y672310D02*
Y680310D01*
Y672310D02*
X389850D01*
X1784870Y589840D02*
Y593840D01*
X1776870Y589840D02*
Y593840D01*
X490030Y269780D02*
Y273780D01*
X498030Y269780D02*
Y273780D01*
X1085810Y267130D02*
X1089810D01*
X1085810Y259130D02*
X1089810D01*
X1815370Y298260D02*
X1819370D01*
X1815370Y306260D02*
X1819370D01*
X1774150Y477570D02*
X1778150D01*
X1774150Y485570D02*
X1778150D01*
X1852530Y234328D02*
X1856530D01*
X1852530Y226328D02*
X1856530D01*
X1886820Y234328D02*
X1890820D01*
X1886820Y226328D02*
X1890820D01*
X2019780Y316878D02*
X2023780D01*
X2019780Y308878D02*
X2023780D01*
X2019780Y301638D02*
X2023780D01*
X2019780Y293638D02*
X2023780D01*
X2019780Y332118D02*
X2023780D01*
X2019780Y324118D02*
X2023780D01*
X1922380Y234328D02*
X1926380D01*
X1922380Y226328D02*
X1926380D01*
X1839530Y258998D02*
Y263998D01*
X1847530D01*
X1869530Y258998D02*
Y263998D01*
X1861530D02*
X1869530D01*
X1874430Y258998D02*
Y263998D01*
X1882430D01*
X1904430Y258998D02*
Y263998D01*
X1896430D02*
X1904430D01*
X1909380Y258998D02*
Y263998D01*
X1917380D01*
X1939380Y258998D02*
Y263998D01*
X1931380D02*
X1939380D01*
X618640Y931990D02*
X622640D01*
X618640Y939990D02*
X622640D01*
X618640Y901510D02*
X622640D01*
X618640Y909510D02*
X622640D01*
X618640Y916750D02*
X622640D01*
X618640Y924750D02*
X622640D01*
X407820Y931990D02*
X411820D01*
X407820Y939990D02*
X411820D01*
X407820Y901510D02*
X411820D01*
X407820Y909510D02*
X411820D01*
X407820Y916750D02*
X411820D01*
X407820Y924750D02*
X411820D01*
X384490Y617918D02*
X389490D01*
X384490D02*
Y625918D01*
Y647918D02*
X389490D01*
X384490Y639918D02*
Y647918D01*
X2017630Y918020D02*
X2021630D01*
X2017630Y926020D02*
X2021630D01*
X1439990Y349790D02*
Y353790D01*
X1447990Y349790D02*
Y353790D01*
X1423050Y358790D02*
X1431050D01*
Y353790D02*
Y358790D01*
X1401050D02*
X1409050D01*
X1401050Y353790D02*
Y358790D01*
X1488630Y349790D02*
Y353790D01*
X1480630Y349790D02*
Y353790D01*
X1503870Y349790D02*
Y353790D01*
X1495870Y349790D02*
Y353790D01*
X1519110Y349790D02*
Y353790D01*
X1511110Y349790D02*
Y353790D01*
X418310Y478168D02*
X422310D01*
X418310Y470168D02*
X422310D01*
X456800Y453658D02*
X460800D01*
X456800Y461658D02*
X460800D01*
X456800Y470168D02*
X460800D01*
X456800Y478168D02*
X460800D01*
X436426Y567958D02*
X440426D01*
X436426Y575958D02*
X440426D01*
X2017630Y941260D02*
X2021630D01*
X2017630Y933260D02*
X2021630D01*
X2017630Y910780D02*
X2021630D01*
X2017630Y902780D02*
X2021630D01*
X1816970Y939990D02*
X1820970D01*
X1816970Y931990D02*
X1820970D01*
X1816970Y909510D02*
X1820970D01*
X1816970Y901510D02*
X1820970D01*
X1816970Y924750D02*
X1820970D01*
X1816970Y916750D02*
X1820970D01*
X393300Y610248D02*
X397300D01*
X393300Y602248D02*
X397300D01*
X393300Y662318D02*
X397300D01*
X393300Y654318D02*
X397300D01*
X385760Y749138D02*
Y757138D01*
X390760D01*
X385760Y727138D02*
Y735138D01*
Y727138D02*
X390760D01*
X394930Y719250D02*
X398930D01*
X394930Y711250D02*
X398930D01*
X201520Y531940D02*
X205520D01*
X201520Y523940D02*
X205520D01*
X201520Y547180D02*
X205520D01*
X201520Y539180D02*
X205520D01*
X201520Y516700D02*
X205520D01*
X201520Y508700D02*
X205520D01*
X340320Y539800D02*
X344320D01*
X340320Y547800D02*
X344320D01*
X2000770Y851680D02*
Y855680D01*
X1992770Y851680D02*
Y855680D01*
X1971910Y857300D02*
X1975910D01*
X1971910Y865300D02*
X1975910D01*
X1940160Y865300D02*
X1944160D01*
X1940160Y857300D02*
X1944160D01*
X1923300Y851680D02*
Y855680D01*
X1915300Y851680D02*
Y855680D01*
X1902420Y649400D02*
X1906420D01*
X1902420Y641400D02*
X1906420D01*
X1582420Y649400D02*
X1586420D01*
X1582420Y641400D02*
X1586420D01*
X1681980Y851680D02*
Y855680D01*
X1673980Y851680D02*
Y855680D01*
X1653120Y857300D02*
X1657120D01*
X1653120Y865300D02*
X1657120D01*
X1621370Y865300D02*
X1625370D01*
X1621370Y857300D02*
X1625370D01*
X1604510Y851680D02*
Y855680D01*
X1596510Y851680D02*
Y855680D01*
X1361430Y851680D02*
Y855680D01*
X1353430Y851680D02*
Y855680D01*
X1332570Y857300D02*
X1336570D01*
X1332570Y865300D02*
X1336570D01*
X1300820Y865300D02*
X1304820D01*
X1300820Y857300D02*
X1304820D01*
X1283960Y851680D02*
Y855680D01*
X1275960Y851680D02*
Y855680D01*
X1262420Y649400D02*
X1266420D01*
X1262420Y641400D02*
X1266420D01*
X2083300Y655220D02*
Y659220D01*
X2091300Y655220D02*
Y659220D01*
X2092920Y707658D02*
X2096920D01*
X2092920Y715658D02*
X2096920D01*
X2092920Y677178D02*
X2096920D01*
X2092920Y685178D02*
X2096920D01*
X2092920Y692418D02*
X2096920D01*
X2092920Y700418D02*
X2096920D01*
X1818020Y488330D02*
X1826020D01*
Y483330D02*
Y488330D01*
X1796020D02*
X1804020D01*
X1796020Y483330D02*
Y488330D01*
X1818350Y617500D02*
X1826350D01*
Y612500D02*
Y617500D01*
X1796350D02*
X1804350D01*
X1796350Y612500D02*
Y617500D01*
X1818350Y656428D02*
X1826350D01*
Y651428D02*
Y656428D01*
X1796350D02*
X1804350D01*
X1796350Y651428D02*
Y656428D01*
X1776870Y630038D02*
Y634038D01*
X1784870Y630038D02*
Y634038D01*
X1772920Y707658D02*
X1776920D01*
X1772920Y715658D02*
X1776920D01*
X1772920Y677178D02*
X1776920D01*
X1772920Y685178D02*
X1776920D01*
X1772920Y692418D02*
X1776920D01*
X1772920Y700418D02*
X1776920D01*
X1772490Y661720D02*
X1776490D01*
X1772490Y669720D02*
X1776490D01*
X1498350Y481168D02*
X1506350D01*
Y476168D02*
Y481168D01*
X1476350D02*
X1484350D01*
X1476350Y476168D02*
Y481168D01*
X1498350Y617500D02*
X1506350D01*
Y612500D02*
Y617500D01*
X1476350D02*
X1484350D01*
X1476350Y612500D02*
Y617500D01*
X1498350Y656428D02*
X1506350D01*
Y651428D02*
Y656428D01*
X1476350D02*
X1484350D01*
X1476350Y651428D02*
Y656428D01*
X1454500Y485570D02*
X1458500D01*
X1454500Y477570D02*
X1458500D01*
X1464870Y589840D02*
Y593840D01*
X1456870Y589840D02*
Y593840D01*
X1456870Y630038D02*
Y634038D01*
X1464870Y630038D02*
Y634038D01*
X1452920Y707658D02*
X1456920D01*
X1452920Y715658D02*
X1456920D01*
X1452920Y677178D02*
X1456920D01*
X1452920Y685178D02*
X1456920D01*
X1452920Y692418D02*
X1456920D01*
X1452920Y700418D02*
X1456920D01*
X1452920Y661720D02*
X1456920D01*
X1452920Y669720D02*
X1456920D01*
X1175730Y530700D02*
X1183730D01*
Y525700D02*
Y530700D01*
X1153730D02*
X1161730D01*
X1153730Y525700D02*
Y530700D01*
X1175730Y576420D02*
X1183730D01*
Y571420D02*
Y576420D01*
X1153730D02*
X1161730D01*
X1153730Y571420D02*
Y576420D01*
X1175730Y623410D02*
X1183730D01*
Y618410D02*
Y623410D01*
X1153730D02*
X1161730D01*
X1153730Y618410D02*
Y623410D01*
X1134250Y597020D02*
Y601020D01*
X1142250Y597020D02*
Y601020D01*
X1142250Y548760D02*
Y552760D01*
X1134250Y548760D02*
Y552760D01*
X1134250Y504310D02*
Y508310D01*
X1142250Y504310D02*
Y508310D01*
X905750Y316850D02*
X913750D01*
X905750D02*
Y321850D01*
X927750Y316850D02*
X935750D01*
Y321850D01*
X401800Y324118D02*
X405800D01*
X401800Y332118D02*
X405800D01*
X401800Y293638D02*
X405800D01*
X401800Y301638D02*
X405800D01*
X401800Y308878D02*
X405800D01*
X401800Y316878D02*
X405800D01*
X392140Y263998D02*
X400140D01*
Y258998D02*
Y263998D01*
X370140D02*
X378140D01*
X370140Y258998D02*
Y263998D01*
X356580D02*
X364580D01*
Y258998D02*
Y263998D01*
X334580D02*
X342580D01*
X334580Y258998D02*
Y263998D01*
X321020D02*
X329020D01*
Y258998D02*
Y263998D01*
X299020D02*
X307020D01*
X299020Y258998D02*
Y263998D01*
X383140Y226328D02*
X387140D01*
X383140Y234328D02*
X387140D01*
X347580Y226328D02*
X351580D01*
X347580Y234328D02*
X351580D01*
X312020Y226328D02*
X316020D01*
X312020Y234328D02*
X316020D01*
X1213330Y323900D02*
X1217330D01*
X1213330Y331900D02*
X1217330D01*
X1213330Y293420D02*
X1217330D01*
X1213330Y301420D02*
X1217330D01*
X1213330Y308660D02*
X1217330D01*
X1213330Y316660D02*
X1217330D01*
X1222870Y263998D02*
X1230870D01*
Y258998D02*
Y263998D01*
X1200870D02*
X1208870D01*
X1200870Y258998D02*
Y263998D01*
X1187310D02*
X1195310D01*
Y258998D02*
Y263998D01*
X1165310D02*
X1173310D01*
X1165310Y258998D02*
Y263998D01*
X1152410D02*
X1160410D01*
Y258998D02*
Y263998D01*
X1130410D02*
X1138410D01*
X1130410Y258998D02*
Y263998D01*
X1214530Y226328D02*
X1218530D01*
X1214530Y234328D02*
X1218530D01*
X1178970Y226328D02*
X1182970D01*
X1178970Y234328D02*
X1182970D01*
X1143410Y226328D02*
X1147410D01*
X1143410Y234328D02*
X1147410D01*
D13*
X613588Y604760D02*
G03*
X613588Y604760I-3000J0D01*
G01*
D14*
X1683131Y381889D02*
X1700759D01*
X1723161Y324231D02*
X1740789D01*
Y381889D01*
X1723161D02*
X1740789D01*
X1683131Y324231D02*
Y381889D01*
Y324231D02*
X1700759D01*
D15*
X526484Y434333D02*
X536384Y424434D01*
X503857Y411706D02*
X513756Y401806D01*
X501028Y434333D02*
X503857Y437162D01*
X536384Y398978D02*
X539212Y401806D01*
D16*
X1804063Y231622D02*
Y226290D01*
X1808061D01*
Y228956D01*
Y226290D01*
X1812060D01*
X1805396Y239619D02*
X1804063Y238286D01*
Y235620D01*
X1805396Y234287D01*
X1806728D01*
X1808061Y235620D01*
Y238286D01*
X1809394Y239619D01*
X1810727D01*
X1812060Y238286D01*
Y235620D01*
X1810727Y234287D01*
X1808061Y242285D02*
Y247616D01*
X1805396Y255614D02*
X1804063Y254281D01*
Y251615D01*
X1805396Y250282D01*
X1810727D01*
X1812060Y251615D01*
Y254281D01*
X1810727Y255614D01*
X777470Y266037D02*
Y258040D01*
X781469D01*
X782802Y259373D01*
Y264704D01*
X781469Y266037D01*
X777470D01*
X785467D02*
X788133D01*
X786800D01*
Y258040D01*
X785467D01*
X788133D01*
X797464Y264704D02*
X796131Y266037D01*
X793465D01*
X792132Y264704D01*
Y263372D01*
X793465Y262039D01*
X796131D01*
X797464Y260706D01*
Y259373D01*
X796131Y258040D01*
X793465D01*
X792132Y259373D01*
X800129Y258040D02*
Y266037D01*
X804128D01*
X805461Y264704D01*
Y262039D01*
X804128Y260706D01*
X800129D01*
X489606Y220354D02*
Y215023D01*
X493605D01*
Y217689D01*
Y215023D01*
X497604D01*
X490939Y228352D02*
X489606Y227019D01*
Y224353D01*
X490939Y223020D01*
X492272D01*
X493605Y224353D01*
Y227019D01*
X494938Y228352D01*
X496271D01*
X497604Y227019D01*
Y224353D01*
X496271Y223020D01*
X493605Y231018D02*
Y236349D01*
X497604Y239015D02*
X492272D01*
X489606Y241681D01*
X492272Y244347D01*
X497604D01*
X493605D01*
Y239015D01*
X923953Y213590D02*
X931950D01*
Y217589D01*
X930617Y218922D01*
X925285D01*
X923953Y217589D01*
Y213590D01*
Y221587D02*
Y224253D01*
Y222920D01*
X931950D01*
Y221587D01*
Y224253D01*
X925285Y233584D02*
X923953Y232251D01*
Y229585D01*
X925285Y228252D01*
X926618D01*
X927951Y229585D01*
Y232251D01*
X929284Y233584D01*
X930617D01*
X931950Y232251D01*
Y229585D01*
X930617Y228252D01*
X931950Y236249D02*
X923953D01*
Y240248D01*
X925285Y241581D01*
X927951D01*
X929284Y240248D01*
Y236249D01*
X927951Y244247D02*
Y249578D01*
X923953Y252244D02*
X931950D01*
Y256243D01*
X930617Y257576D01*
X929284D01*
X927951Y256243D01*
Y252244D01*
Y256243D01*
X926618Y257576D01*
X925285D01*
X923953Y256243D01*
Y252244D01*
Y260242D02*
X931950D01*
Y265573D01*
X1298603Y226542D02*
Y221210D01*
X1302601D01*
Y223876D01*
Y221210D01*
X1306600D01*
X1299935Y234539D02*
X1298603Y233206D01*
Y230540D01*
X1299935Y229207D01*
X1301268D01*
X1302601Y230540D01*
Y233206D01*
X1303934Y234539D01*
X1305267D01*
X1306600Y233206D01*
Y230540D01*
X1305267Y229207D01*
X1302601Y237205D02*
Y242536D01*
X1298603Y245202D02*
X1306600D01*
Y249201D01*
X1305267Y250534D01*
X1303934D01*
X1302601Y249201D01*
Y245202D01*
Y249201D01*
X1301268Y250534D01*
X1299935D01*
X1298603Y249201D01*
Y245202D01*
X1632458Y364368D02*
X1637456D01*
X1634957D01*
Y356870D01*
X1639956D02*
Y364368D01*
X1643704D01*
X1644954Y363118D01*
Y360619D01*
X1643704Y359369D01*
X1639956D01*
X1647453Y356870D02*
X1649952D01*
X1648703D01*
Y364368D01*
X1647453Y363118D01*
X1771070Y578532D02*
X1763573D01*
Y582280D01*
X1764822Y583530D01*
X1767321D01*
X1768571Y582280D01*
Y578532D01*
Y581031D02*
X1771070Y583530D01*
X1763573Y591028D02*
X1764822Y588528D01*
X1767321Y586029D01*
X1769821D01*
X1771070Y587279D01*
Y589778D01*
X1769821Y591028D01*
X1768571D01*
X1767321Y589778D01*
Y586029D01*
X1763573Y598525D02*
Y593527D01*
X1767321D01*
X1766072Y596026D01*
Y597276D01*
X1767321Y598525D01*
X1769821D01*
X1771070Y597276D01*
Y594776D01*
X1769821Y593527D01*
X1762842Y491370D02*
Y498867D01*
X1766590D01*
X1767840Y497618D01*
Y495118D01*
X1766590Y493869D01*
X1762842D01*
X1765341D02*
X1767840Y491370D01*
X1775338Y498867D02*
X1770339D01*
Y495118D01*
X1772838Y496368D01*
X1774088D01*
X1775338Y495118D01*
Y492619D01*
X1774088Y491370D01*
X1771589D01*
X1770339Y492619D01*
X1777837Y498867D02*
X1782835D01*
Y497618D01*
X1777837Y492619D01*
Y491370D01*
X352398Y684750D02*
Y689748D01*
X351149Y690998D01*
X348650D01*
X347400Y689748D01*
Y684750D01*
X348650Y683500D01*
X351149D01*
X349899Y685999D02*
X352398Y683500D01*
X351149D02*
X352398Y684750D01*
X359896Y683500D02*
X354898D01*
X359896Y688498D01*
Y689748D01*
X358646Y690998D01*
X356147D01*
X354898Y689748D01*
X367394Y683500D02*
X362395D01*
X367394Y688498D01*
Y689748D01*
X366144Y690998D01*
X363645D01*
X362395Y689748D01*
X1004800Y296680D02*
Y304178D01*
X1008549D01*
X1009798Y302928D01*
Y300429D01*
X1008549Y299179D01*
X1004800D01*
X1017296Y304178D02*
X1014797Y302928D01*
X1012298Y300429D01*
Y297930D01*
X1013547Y296680D01*
X1016046D01*
X1017296Y297930D01*
Y299179D01*
X1016046Y300429D01*
X1012298D01*
X581466Y720662D02*
X579699D01*
X577932Y718895D01*
Y717128D01*
X581466Y713594D01*
X583234D01*
X585001Y715361D01*
Y717128D01*
X590302Y720662D02*
X585001Y725964D01*
X585001Y720662D01*
X588535Y724197D01*
X592953Y723313D02*
X594720Y725080D01*
X593837Y724197D01*
X588535Y729498D01*
Y727731D01*
X937868Y506868D02*
X936619Y508118D01*
X934120D01*
X932870Y506868D01*
Y501870D01*
X934120Y500620D01*
X936619D01*
X937868Y501870D01*
X944116Y500620D02*
Y508118D01*
X940368Y504369D01*
X945366D01*
X947865Y506868D02*
X949115Y508118D01*
X951614D01*
X952864Y506868D01*
Y501870D01*
X951614Y500620D01*
X949115D01*
X947865Y501870D01*
Y506868D01*
X587098Y451476D02*
Y449709D01*
X588865Y447942D01*
X590632D01*
X594166Y451476D01*
Y453244D01*
X592399Y455011D01*
X590632D01*
X585330Y453244D02*
X583563D01*
X581796Y455011D01*
Y456778D01*
X582680Y457662D01*
X584447D01*
X585330Y456778D01*
X584447Y457662D01*
X584447Y459429D01*
X585330Y460312D01*
X587098D01*
X588865Y458545D01*
Y456778D01*
X583563Y462080D02*
Y463847D01*
X581796Y465614D01*
X580029D01*
X576494Y462080D01*
Y460312D01*
X578262Y458545D01*
X580029D01*
X580912Y459429D01*
Y461196D01*
X578262Y463847D01*
X594166Y706692D02*
X592399D01*
X590632Y704925D01*
Y703158D01*
X594166Y699624D01*
X595934D01*
X597701Y701391D01*
Y703158D01*
X595934Y708460D02*
Y710227D01*
X597701Y711994D01*
X599468D01*
X600352Y711110D01*
Y709343D01*
X599468Y708460D01*
X600352Y709343D01*
X602119Y709343D01*
X603002Y708460D01*
Y706692D01*
X601235Y704925D01*
X599468D01*
X601235Y713761D02*
Y715528D01*
X603002Y717296D01*
X604770D01*
X605653Y716412D01*
Y714645D01*
X607420D01*
X608304Y713761D01*
Y711994D01*
X606537Y710227D01*
X604770D01*
X603886Y711110D01*
X603886Y712878D01*
X602119D01*
X601235Y713761D01*
X603886Y712878D02*
X605653Y714645D01*
X705611Y259510D02*
Y267007D01*
X709360D01*
X710610Y265758D01*
Y263258D01*
X709360Y262009D01*
X705611D01*
X718107Y267007D02*
X713109D01*
Y263258D01*
X715608Y264508D01*
X716858D01*
X718107Y263258D01*
Y260759D01*
X716858Y259510D01*
X714358D01*
X713109Y260759D01*
X575778Y579138D02*
X580196Y583556D01*
Y585324D01*
X578429Y587091D01*
X576662D01*
X572244Y582673D01*
Y593276D02*
X575778Y589742D01*
X568710D01*
X567826Y588858D01*
Y587091D01*
X569593Y585324D01*
X571360D01*
X799622Y362108D02*
X798372Y360859D01*
Y358360D01*
X799622Y357110D01*
X804620D01*
X805870Y358360D01*
Y360859D01*
X804620Y362108D01*
X799622Y364608D02*
X798372Y365857D01*
Y368356D01*
X799622Y369606D01*
X800872D01*
X802121Y368356D01*
Y367107D01*
Y368356D01*
X803371Y369606D01*
X804620D01*
X805870Y368356D01*
Y365857D01*
X804620Y364608D01*
X798372Y372105D02*
Y377104D01*
X799622D01*
X804620Y372105D01*
X805870D01*
X708182Y362108D02*
X706932Y360859D01*
Y358360D01*
X708182Y357110D01*
X713180D01*
X714430Y358360D01*
Y360859D01*
X713180Y362108D01*
X708182Y364608D02*
X706932Y365857D01*
Y368356D01*
X708182Y369606D01*
X709432D01*
X710681Y368356D01*
Y367107D01*
Y368356D01*
X711931Y369606D01*
X713180D01*
X714430Y368356D01*
Y365857D01*
X713180Y364608D01*
X706932Y377104D02*
X708182Y374604D01*
X710681Y372105D01*
X713180D01*
X714430Y373355D01*
Y375854D01*
X713180Y377104D01*
X711931D01*
X710681Y375854D01*
Y372105D01*
X692942Y362108D02*
X691692Y360859D01*
Y358360D01*
X692942Y357110D01*
X697940D01*
X699190Y358360D01*
Y360859D01*
X697940Y362108D01*
X692942Y364608D02*
X691692Y365857D01*
Y368356D01*
X692942Y369606D01*
X694192D01*
X695441Y368356D01*
Y367107D01*
Y368356D01*
X696691Y369606D01*
X697940D01*
X699190Y368356D01*
Y365857D01*
X697940Y364608D01*
X691692Y377104D02*
Y372105D01*
X695441D01*
X694192Y374604D01*
Y375854D01*
X695441Y377104D01*
X697940D01*
X699190Y375854D01*
Y373355D01*
X697940Y372105D01*
X677702Y362108D02*
X676452Y360859D01*
Y358360D01*
X677702Y357110D01*
X682700D01*
X683950Y358360D01*
Y360859D01*
X682700Y362108D01*
X677702Y364608D02*
X676452Y365857D01*
Y368356D01*
X677702Y369606D01*
X678952D01*
X680201Y368356D01*
Y367107D01*
Y368356D01*
X681451Y369606D01*
X682700D01*
X683950Y368356D01*
Y365857D01*
X682700Y364608D01*
X683950Y375854D02*
X676452D01*
X680201Y372105D01*
Y377104D01*
X662462Y362108D02*
X661212Y360859D01*
Y358360D01*
X662462Y357110D01*
X667460D01*
X668710Y358360D01*
Y360859D01*
X667460Y362108D01*
X662462Y364608D02*
X661212Y365857D01*
Y368356D01*
X662462Y369606D01*
X663712D01*
X664961Y368356D01*
Y367107D01*
Y368356D01*
X666211Y369606D01*
X667460D01*
X668710Y368356D01*
Y365857D01*
X667460Y364608D01*
X662462Y372105D02*
X661212Y373355D01*
Y375854D01*
X662462Y377104D01*
X663712D01*
X664961Y375854D01*
Y374604D01*
Y375854D01*
X666211Y377104D01*
X667460D01*
X668710Y375854D01*
Y373355D01*
X667460Y372105D01*
X647222Y362108D02*
X645972Y360859D01*
Y358360D01*
X647222Y357110D01*
X652220D01*
X653470Y358360D01*
Y360859D01*
X652220Y362108D01*
X647222Y364608D02*
X645972Y365857D01*
Y368356D01*
X647222Y369606D01*
X648472D01*
X649721Y368356D01*
Y367107D01*
Y368356D01*
X650971Y369606D01*
X652220D01*
X653470Y368356D01*
Y365857D01*
X652220Y364608D01*
X653470Y377104D02*
Y372105D01*
X648472Y377104D01*
X647222D01*
X645972Y375854D01*
Y373355D01*
X647222Y372105D01*
X728318Y348118D02*
X727069Y349368D01*
X724570D01*
X723320Y348118D01*
Y343120D01*
X724570Y341870D01*
X727069D01*
X728318Y343120D01*
X730818Y348118D02*
X732067Y349368D01*
X734566D01*
X735816Y348118D01*
Y346868D01*
X734566Y345619D01*
X733317D01*
X734566D01*
X735816Y344369D01*
Y343120D01*
X734566Y341870D01*
X732067D01*
X730818Y343120D01*
X738315Y341870D02*
X740814D01*
X739565D01*
Y349368D01*
X738315Y348118D01*
X1839650Y212330D02*
Y219828D01*
X1843399D01*
X1844648Y218578D01*
Y216079D01*
X1843399Y214829D01*
X1839650D01*
X1842149D02*
X1844648Y212330D01*
X1852146Y219828D02*
X1849647Y218578D01*
X1847148Y216079D01*
Y213580D01*
X1848397Y212330D01*
X1850896D01*
X1852146Y213580D01*
Y214829D01*
X1850896Y216079D01*
X1847148D01*
X1854645Y218578D02*
X1855895Y219828D01*
X1858394D01*
X1859644Y218578D01*
Y217328D01*
X1858394Y216079D01*
X1859644Y214829D01*
Y213580D01*
X1858394Y212330D01*
X1855895D01*
X1854645Y213580D01*
Y214829D01*
X1855895Y216079D01*
X1854645Y217328D01*
Y218578D01*
X1855895Y216079D02*
X1858394D01*
X1873940Y212330D02*
Y219828D01*
X1877689D01*
X1878938Y218578D01*
Y216079D01*
X1877689Y214829D01*
X1873940D01*
X1876439D02*
X1878938Y212330D01*
X1886436Y219828D02*
X1883937Y218578D01*
X1881438Y216079D01*
Y213580D01*
X1882687Y212330D01*
X1885186D01*
X1886436Y213580D01*
Y214829D01*
X1885186Y216079D01*
X1881438D01*
X1893934Y219828D02*
X1891434Y218578D01*
X1888935Y216079D01*
Y213580D01*
X1890185Y212330D01*
X1892684D01*
X1893934Y213580D01*
Y214829D01*
X1892684Y216079D01*
X1888935D01*
X2041220Y307798D02*
Y315296D01*
X2044969D01*
X2046218Y314046D01*
Y311547D01*
X2044969Y310298D01*
X2041220D01*
X2043719D02*
X2046218Y307798D01*
X2053716Y315296D02*
X2051216Y314046D01*
X2048717Y311547D01*
Y309048D01*
X2049967Y307798D01*
X2052466D01*
X2053716Y309048D01*
Y310298D01*
X2052466Y311547D01*
X2048717D01*
X2059964Y307798D02*
Y315296D01*
X2056215Y311547D01*
X2061213D01*
X2041220Y292558D02*
Y300056D01*
X2044969D01*
X2046218Y298806D01*
Y296307D01*
X2044969Y295058D01*
X2041220D01*
X2043719D02*
X2046218Y292558D01*
X2053716Y300056D02*
X2051216Y298806D01*
X2048717Y296307D01*
Y293808D01*
X2049967Y292558D01*
X2052466D01*
X2053716Y293808D01*
Y295058D01*
X2052466Y296307D01*
X2048717D01*
X2056215Y298806D02*
X2057464Y300056D01*
X2059964D01*
X2061213Y298806D01*
Y297557D01*
X2059964Y296307D01*
X2058714D01*
X2059964D01*
X2061213Y295058D01*
Y293808D01*
X2059964Y292558D01*
X2057464D01*
X2056215Y293808D01*
X2041220Y323038D02*
Y330536D01*
X2044969D01*
X2046218Y329286D01*
Y326787D01*
X2044969Y325538D01*
X2041220D01*
X2043719D02*
X2046218Y323038D01*
X2053716Y330536D02*
X2051216Y329286D01*
X2048717Y326787D01*
Y324288D01*
X2049967Y323038D01*
X2052466D01*
X2053716Y324288D01*
Y325538D01*
X2052466Y326787D01*
X2048717D01*
X2061213Y323038D02*
X2056215D01*
X2061213Y328037D01*
Y329286D01*
X2059964Y330536D01*
X2057464D01*
X2056215Y329286D01*
X1909500Y212330D02*
Y219828D01*
X1913249D01*
X1914498Y218578D01*
Y216079D01*
X1913249Y214829D01*
X1909500D01*
X1911999D02*
X1914498Y212330D01*
X1921996Y219828D02*
X1919497Y218578D01*
X1916998Y216079D01*
Y213580D01*
X1918247Y212330D01*
X1920746D01*
X1921996Y213580D01*
Y214829D01*
X1920746Y216079D01*
X1916998D01*
X1924495Y212330D02*
X1926994D01*
X1925745D01*
Y219828D01*
X1924495Y218578D01*
X1849728Y282160D02*
Y287158D01*
X1848479Y288408D01*
X1845980D01*
X1844730Y287158D01*
Y282160D01*
X1845980Y280910D01*
X1848479D01*
X1847229Y283409D02*
X1849728Y280910D01*
X1848479D02*
X1849728Y282160D01*
X1857226Y280910D02*
X1852228D01*
X1857226Y285908D01*
Y287158D01*
X1855976Y288408D01*
X1853477D01*
X1852228Y287158D01*
X1859725D02*
X1860975Y288408D01*
X1863474D01*
X1864724Y287158D01*
Y282160D01*
X1863474Y280910D01*
X1860975D01*
X1859725Y282160D01*
Y287158D01*
X1885288Y282160D02*
Y287158D01*
X1884039Y288408D01*
X1881540D01*
X1880290Y287158D01*
Y282160D01*
X1881540Y280910D01*
X1884039D01*
X1882789Y283409D02*
X1885288Y280910D01*
X1884039D02*
X1885288Y282160D01*
X1887788Y280910D02*
X1890287D01*
X1889037D01*
Y288408D01*
X1887788Y287158D01*
X1894036D02*
X1895285Y288408D01*
X1897784D01*
X1899034Y287158D01*
Y285908D01*
X1897784Y284659D01*
X1899034Y283409D01*
Y282160D01*
X1897784Y280910D01*
X1895285D01*
X1894036Y282160D01*
Y283409D01*
X1895285Y284659D01*
X1894036Y285908D01*
Y287158D01*
X1895285Y284659D02*
X1897784D01*
X1920848Y282160D02*
Y287158D01*
X1919599Y288408D01*
X1917100D01*
X1915850Y287158D01*
Y282160D01*
X1917100Y280910D01*
X1919599D01*
X1918349Y283409D02*
X1920848Y280910D01*
X1919599D02*
X1920848Y282160D01*
X1923348Y280910D02*
X1925847D01*
X1924597D01*
Y288408D01*
X1923348Y287158D01*
X1934594Y288408D02*
X1932095Y287158D01*
X1929596Y284659D01*
Y282160D01*
X1930845Y280910D01*
X1933344D01*
X1934594Y282160D01*
Y283409D01*
X1933344Y284659D01*
X1929596D01*
X641350Y932180D02*
Y939678D01*
X645099D01*
X646348Y938428D01*
Y935929D01*
X645099Y934679D01*
X641350D01*
X643849D02*
X646348Y932180D01*
X648848Y939678D02*
X653846D01*
Y938428D01*
X648848Y933430D01*
Y932180D01*
X656345Y938428D02*
X657595Y939678D01*
X660094D01*
X661344Y938428D01*
Y937178D01*
X660094Y935929D01*
X661344Y934679D01*
Y933430D01*
X660094Y932180D01*
X657595D01*
X656345Y933430D01*
Y934679D01*
X657595Y935929D01*
X656345Y937178D01*
Y938428D01*
X657595Y935929D02*
X660094D01*
X641350Y901700D02*
Y909198D01*
X645099D01*
X646348Y907948D01*
Y905449D01*
X645099Y904199D01*
X641350D01*
X643849D02*
X646348Y901700D01*
X648848Y909198D02*
X653846D01*
Y907948D01*
X648848Y902950D01*
Y901700D01*
X656345Y902950D02*
X657595Y901700D01*
X660094D01*
X661344Y902950D01*
Y907948D01*
X660094Y909198D01*
X657595D01*
X656345Y907948D01*
Y906698D01*
X657595Y905449D01*
X661344D01*
X641350Y916940D02*
Y924438D01*
X645099D01*
X646348Y923188D01*
Y920689D01*
X645099Y919439D01*
X641350D01*
X643849D02*
X646348Y916940D01*
X648848Y923188D02*
X650097Y924438D01*
X652596D01*
X653846Y923188D01*
Y921938D01*
X652596Y920689D01*
X653846Y919439D01*
Y918190D01*
X652596Y916940D01*
X650097D01*
X648848Y918190D01*
Y919439D01*
X650097Y920689D01*
X648848Y921938D01*
Y923188D01*
X650097Y920689D02*
X652596D01*
X656345Y923188D02*
X657595Y924438D01*
X660094D01*
X661344Y923188D01*
Y918190D01*
X660094Y916940D01*
X657595D01*
X656345Y918190D01*
Y923188D01*
X430140Y932180D02*
Y939678D01*
X433889D01*
X435138Y938428D01*
Y935929D01*
X433889Y934679D01*
X430140D01*
X432639D02*
X435138Y932180D01*
X437638Y939678D02*
X442636D01*
Y938428D01*
X437638Y933430D01*
Y932180D01*
X450134Y939678D02*
X445135D01*
Y935929D01*
X447634Y937178D01*
X448884D01*
X450134Y935929D01*
Y933430D01*
X448884Y932180D01*
X446385D01*
X445135Y933430D01*
X430140Y901700D02*
Y909198D01*
X433889D01*
X435138Y907948D01*
Y905449D01*
X433889Y904199D01*
X430140D01*
X432639D02*
X435138Y901700D01*
X437638Y909198D02*
X442636D01*
Y907948D01*
X437638Y902950D01*
Y901700D01*
X450134Y909198D02*
X447634Y907948D01*
X445135Y905449D01*
Y902950D01*
X446385Y901700D01*
X448884D01*
X450134Y902950D01*
Y904199D01*
X448884Y905449D01*
X445135D01*
X430140Y916940D02*
Y924438D01*
X433889D01*
X435138Y923188D01*
Y920689D01*
X433889Y919439D01*
X430140D01*
X432639D02*
X435138Y916940D01*
X437638Y924438D02*
X442636D01*
Y923188D01*
X437638Y918190D01*
Y916940D01*
X445135Y924438D02*
X450134D01*
Y923188D01*
X445135Y918190D01*
Y916940D01*
X524978Y448328D02*
X525862Y449212D01*
Y452746D01*
X522328Y452746D01*
X521444Y451863D01*
X525862Y452746D02*
X528513Y455397D01*
X524978Y458932D02*
X523211Y460699D01*
X524095Y459815D01*
X518793Y454514D01*
X520560D01*
X903422Y842468D02*
X909670D01*
X910920Y843718D01*
Y846217D01*
X909670Y847467D01*
X903422D01*
X910920Y853715D02*
X903422D01*
X907171Y849966D01*
Y854964D01*
X408360Y546218D02*
Y539970D01*
X409610Y538720D01*
X412109D01*
X413358Y539970D01*
Y546218D01*
X415858Y544968D02*
X417107Y546218D01*
X419606D01*
X420856Y544968D01*
Y543718D01*
X419606Y542469D01*
X418357D01*
X419606D01*
X420856Y541219D01*
Y539970D01*
X419606Y538720D01*
X417107D01*
X415858Y539970D01*
X1869440Y309758D02*
Y303510D01*
X1870690Y302260D01*
X1873189D01*
X1874438Y303510D01*
Y309758D01*
X1876938Y302260D02*
X1879437D01*
X1878187D01*
Y309758D01*
X1876938Y308508D01*
X273578Y620898D02*
X272329Y622148D01*
X269830D01*
X268580Y620898D01*
Y619648D01*
X269830Y618399D01*
X272329D01*
X273578Y617149D01*
Y615900D01*
X272329Y614650D01*
X269830D01*
X268580Y615900D01*
X276078Y622148D02*
Y614650D01*
X278577Y617149D01*
X281076Y614650D01*
Y622148D01*
X287324Y614650D02*
Y622148D01*
X283575Y618399D01*
X288574D01*
X1892218Y553618D02*
X1890969Y554868D01*
X1888470D01*
X1887220Y553618D01*
Y552368D01*
X1888470Y551119D01*
X1890969D01*
X1892218Y549869D01*
Y548620D01*
X1890969Y547370D01*
X1888470D01*
X1887220Y548620D01*
X1894718Y554868D02*
Y547370D01*
X1897217Y549869D01*
X1899716Y547370D01*
Y554868D01*
X1902215Y553618D02*
X1903465Y554868D01*
X1905964D01*
X1907214Y553618D01*
Y552368D01*
X1905964Y551119D01*
X1904714D01*
X1905964D01*
X1907214Y549869D01*
Y548620D01*
X1905964Y547370D01*
X1903465D01*
X1902215Y548620D01*
X1573448Y553618D02*
X1572199Y554868D01*
X1569700D01*
X1568450Y553618D01*
Y552368D01*
X1569700Y551119D01*
X1572199D01*
X1573448Y549869D01*
Y548620D01*
X1572199Y547370D01*
X1569700D01*
X1568450Y548620D01*
X1575948Y554868D02*
Y547370D01*
X1578447Y549869D01*
X1580946Y547370D01*
Y554868D01*
X1588444Y547370D02*
X1583445D01*
X1588444Y552368D01*
Y553618D01*
X1587194Y554868D01*
X1584695D01*
X1583445Y553618D01*
X1254678D02*
X1253429Y554868D01*
X1250930D01*
X1249680Y553618D01*
Y552368D01*
X1250930Y551119D01*
X1253429D01*
X1254678Y549869D01*
Y548620D01*
X1253429Y547370D01*
X1250930D01*
X1249680Y548620D01*
X1257178Y554868D02*
Y547370D01*
X1259677Y549869D01*
X1262176Y547370D01*
Y554868D01*
X1264675Y547370D02*
X1267174D01*
X1265925D01*
Y554868D01*
X1264675Y553618D01*
X2028520Y873760D02*
Y881258D01*
X2032269D01*
X2033518Y880008D01*
Y877509D01*
X2032269Y876259D01*
X2028520D01*
X2031019D02*
X2033518Y873760D01*
X2036018Y880008D02*
X2037267Y881258D01*
X2039766D01*
X2041016Y880008D01*
Y878758D01*
X2039766Y877509D01*
X2041016Y876259D01*
Y875010D01*
X2039766Y873760D01*
X2037267D01*
X2036018Y875010D01*
Y876259D01*
X2037267Y877509D01*
X2036018Y878758D01*
Y880008D01*
X2037267Y877509D02*
X2039766D01*
X2048514Y881258D02*
X2046014Y880008D01*
X2043515Y877509D01*
Y875010D01*
X2044765Y873760D01*
X2047264D01*
X2048514Y875010D01*
Y876259D01*
X2047264Y877509D01*
X2043515D01*
X2028520Y858520D02*
Y866018D01*
X2032269D01*
X2033518Y864768D01*
Y862269D01*
X2032269Y861019D01*
X2028520D01*
X2031019D02*
X2033518Y858520D01*
X2036018Y864768D02*
X2037267Y866018D01*
X2039766D01*
X2041016Y864768D01*
Y863518D01*
X2039766Y862269D01*
X2041016Y861019D01*
Y859770D01*
X2039766Y858520D01*
X2037267D01*
X2036018Y859770D01*
Y861019D01*
X2037267Y862269D01*
X2036018Y863518D01*
Y864768D01*
X2037267Y862269D02*
X2039766D01*
X2048514Y866018D02*
X2043515D01*
Y862269D01*
X2046014Y863518D01*
X2047264D01*
X2048514Y862269D01*
Y859770D01*
X2047264Y858520D01*
X2044765D01*
X2043515Y859770D01*
X2028520Y887730D02*
Y895228D01*
X2032269D01*
X2033518Y893978D01*
Y891479D01*
X2032269Y890229D01*
X2028520D01*
X2031019D02*
X2033518Y887730D01*
X2036018Y893978D02*
X2037267Y895228D01*
X2039766D01*
X2041016Y893978D01*
Y892728D01*
X2039766Y891479D01*
X2041016Y890229D01*
Y888980D01*
X2039766Y887730D01*
X2037267D01*
X2036018Y888980D01*
Y890229D01*
X2037267Y891479D01*
X2036018Y892728D01*
Y893978D01*
X2037267Y891479D02*
X2039766D01*
X2047264Y887730D02*
Y895228D01*
X2043515Y891479D01*
X2048514D01*
X1840560Y916940D02*
Y924438D01*
X1844309D01*
X1845558Y923188D01*
Y920689D01*
X1844309Y919439D01*
X1840560D01*
X1843059D02*
X1845558Y916940D01*
X1848058Y923188D02*
X1849307Y924438D01*
X1851806D01*
X1853056Y923188D01*
Y921938D01*
X1851806Y920689D01*
X1853056Y919439D01*
Y918190D01*
X1851806Y916940D01*
X1849307D01*
X1848058Y918190D01*
Y919439D01*
X1849307Y920689D01*
X1848058Y921938D01*
Y923188D01*
X1849307Y920689D02*
X1851806D01*
X1855555Y923188D02*
X1856805Y924438D01*
X1859304D01*
X1860554Y923188D01*
Y921938D01*
X1859304Y920689D01*
X1858054D01*
X1859304D01*
X1860554Y919439D01*
Y918190D01*
X1859304Y916940D01*
X1856805D01*
X1855555Y918190D01*
X1840560Y901700D02*
Y909198D01*
X1844309D01*
X1845558Y907948D01*
Y905449D01*
X1844309Y904199D01*
X1840560D01*
X1843059D02*
X1845558Y901700D01*
X1848058Y907948D02*
X1849307Y909198D01*
X1851806D01*
X1853056Y907948D01*
Y906698D01*
X1851806Y905449D01*
X1853056Y904199D01*
Y902950D01*
X1851806Y901700D01*
X1849307D01*
X1848058Y902950D01*
Y904199D01*
X1849307Y905449D01*
X1848058Y906698D01*
Y907948D01*
X1849307Y905449D02*
X1851806D01*
X1860554Y901700D02*
X1855555D01*
X1860554Y906698D01*
Y907948D01*
X1859304Y909198D01*
X1856805D01*
X1855555Y907948D01*
X1840560Y932180D02*
Y939678D01*
X1844309D01*
X1845558Y938428D01*
Y935929D01*
X1844309Y934679D01*
X1840560D01*
X1843059D02*
X1845558Y932180D01*
X1848058Y938428D02*
X1849307Y939678D01*
X1851806D01*
X1853056Y938428D01*
Y937178D01*
X1851806Y935929D01*
X1853056Y934679D01*
Y933430D01*
X1851806Y932180D01*
X1849307D01*
X1848058Y933430D01*
Y934679D01*
X1849307Y935929D01*
X1848058Y937178D01*
Y938428D01*
X1849307Y935929D02*
X1851806D01*
X1855555Y932180D02*
X1858054D01*
X1856805D01*
Y939678D01*
X1855555Y938428D01*
X349940Y600950D02*
Y608448D01*
X353689D01*
X354938Y607198D01*
Y604699D01*
X353689Y603449D01*
X349940D01*
X352439D02*
X354938Y600950D01*
X357438Y608448D02*
X362436D01*
Y607198D01*
X357438Y602200D01*
Y600950D01*
X368684D02*
Y608448D01*
X364935Y604699D01*
X369934D01*
X348670Y653020D02*
Y660518D01*
X352419D01*
X353668Y659268D01*
Y656769D01*
X352419Y655519D01*
X348670D01*
X351169D02*
X353668Y653020D01*
X356168Y660518D02*
X361166D01*
Y659268D01*
X356168Y654270D01*
Y653020D01*
X363665Y659268D02*
X364915Y660518D01*
X367414D01*
X368664Y659268D01*
Y658018D01*
X367414Y656769D01*
X366164D01*
X367414D01*
X368664Y655519D01*
Y654270D01*
X367414Y653020D01*
X364915D01*
X363665Y654270D01*
X223840Y524130D02*
Y531628D01*
X227589D01*
X228838Y530378D01*
Y527879D01*
X227589Y526629D01*
X223840D01*
X226339D02*
X228838Y524130D01*
X231338Y531628D02*
X236336D01*
Y530378D01*
X231338Y525380D01*
Y524130D01*
X243834D02*
X238835D01*
X243834Y529128D01*
Y530378D01*
X242584Y531628D01*
X240085D01*
X238835Y530378D01*
X223840Y539370D02*
Y546868D01*
X227589D01*
X228838Y545618D01*
Y543119D01*
X227589Y541869D01*
X223840D01*
X226339D02*
X228838Y539370D01*
X231338Y546868D02*
X236336D01*
Y545618D01*
X231338Y540620D01*
Y539370D01*
X238835D02*
X241334D01*
X240085D01*
Y546868D01*
X238835Y545618D01*
X223840Y508890D02*
Y516388D01*
X227589D01*
X228838Y515138D01*
Y512639D01*
X227589Y511389D01*
X223840D01*
X226339D02*
X228838Y508890D01*
X231338Y516388D02*
X236336D01*
Y515138D01*
X231338Y510140D01*
Y508890D01*
X238835Y515138D02*
X240085Y516388D01*
X242584D01*
X243834Y515138D01*
Y510140D01*
X242584Y508890D01*
X240085D01*
X238835Y510140D01*
Y515138D01*
X417610Y712492D02*
Y719989D01*
X421359D01*
X422609Y718740D01*
Y716240D01*
X421359Y714991D01*
X417610D01*
X420109D02*
X422609Y712492D01*
X430106Y719989D02*
X427607Y718740D01*
X425108Y716240D01*
Y713741D01*
X426357Y712492D01*
X428857D01*
X430106Y713741D01*
Y714991D01*
X428857Y716240D01*
X425108D01*
X432606Y713741D02*
X433855Y712492D01*
X436354D01*
X437604Y713741D01*
Y718740D01*
X436354Y719989D01*
X433855D01*
X432606Y718740D01*
Y717490D01*
X433855Y716240D01*
X437604D01*
X1771070Y618730D02*
X1763572D01*
Y622479D01*
X1764822Y623728D01*
X1767321D01*
X1768571Y622479D01*
Y618730D01*
Y621229D02*
X1771070Y623728D01*
X1763572Y631226D02*
X1764822Y628727D01*
X1767321Y626228D01*
X1769820D01*
X1771070Y627477D01*
Y629976D01*
X1769820Y631226D01*
X1768571D01*
X1767321Y629976D01*
Y626228D01*
X1763572Y633725D02*
Y638724D01*
X1764822D01*
X1769820Y633725D01*
X1771070D01*
X2055190Y691338D02*
Y698836D01*
X2058938D01*
X2060188Y697586D01*
Y695087D01*
X2058938Y693838D01*
X2055190D01*
X2057689D02*
X2060188Y691338D01*
X2067686Y698836D02*
X2065186Y697586D01*
X2062687Y695087D01*
Y692588D01*
X2063937Y691338D01*
X2066436D01*
X2067686Y692588D01*
Y693838D01*
X2066436Y695087D01*
X2062687D01*
X2070185Y697586D02*
X2071434Y698836D01*
X2073934D01*
X2075183Y697586D01*
Y692588D01*
X2073934Y691338D01*
X2071434D01*
X2070185Y692588D01*
Y697586D01*
X2055190Y676098D02*
Y683596D01*
X2058938D01*
X2060188Y682346D01*
Y679847D01*
X2058938Y678598D01*
X2055190D01*
X2057689D02*
X2060188Y676098D01*
X2067686Y683596D02*
X2062687D01*
Y679847D01*
X2065186Y681097D01*
X2066436D01*
X2067686Y679847D01*
Y677348D01*
X2066436Y676098D01*
X2063937D01*
X2062687Y677348D01*
X2070185D02*
X2071434Y676098D01*
X2073934D01*
X2075183Y677348D01*
Y682346D01*
X2073934Y683596D01*
X2071434D01*
X2070185Y682346D01*
Y681097D01*
X2071434Y679847D01*
X2075183D01*
X2055190Y706578D02*
Y714076D01*
X2058938D01*
X2060188Y712826D01*
Y710327D01*
X2058938Y709078D01*
X2055190D01*
X2057689D02*
X2060188Y706578D01*
X2067686Y714076D02*
X2062687D01*
Y710327D01*
X2065186Y711577D01*
X2066436D01*
X2067686Y710327D01*
Y707828D01*
X2066436Y706578D01*
X2063937D01*
X2062687Y707828D01*
X2070185Y712826D02*
X2071434Y714076D01*
X2073934D01*
X2075183Y712826D01*
Y711577D01*
X2073934Y710327D01*
X2075183Y709078D01*
Y707828D01*
X2073934Y706578D01*
X2071434D01*
X2070185Y707828D01*
Y709078D01*
X2071434Y710327D01*
X2070185Y711577D01*
Y712826D01*
X2071434Y710327D02*
X2073934D01*
X1132260Y212330D02*
Y219828D01*
X1136009D01*
X1137258Y218578D01*
Y216079D01*
X1136009Y214829D01*
X1132260D01*
X1134759D02*
X1137258Y212330D01*
X1144756Y219828D02*
X1139758D01*
Y216079D01*
X1142257Y217328D01*
X1143506D01*
X1144756Y216079D01*
Y213580D01*
X1143506Y212330D01*
X1141007D01*
X1139758Y213580D01*
X1152254Y219828D02*
X1149754Y218578D01*
X1147255Y216079D01*
Y213580D01*
X1148505Y212330D01*
X1151004D01*
X1152254Y213580D01*
Y214829D01*
X1151004Y216079D01*
X1147255D01*
X1451070Y618728D02*
X1443572D01*
Y622477D01*
X1444822Y623727D01*
X1447321D01*
X1448571Y622477D01*
Y618728D01*
Y621228D02*
X1451070Y623727D01*
X1443572Y631224D02*
Y626226D01*
X1447321D01*
X1446072Y628725D01*
Y629975D01*
X1447321Y631224D01*
X1449820D01*
X1451070Y629975D01*
Y627476D01*
X1449820Y626226D01*
X1443572Y638722D02*
Y633724D01*
X1447321D01*
X1446072Y636223D01*
Y637472D01*
X1447321Y638722D01*
X1449820D01*
X1451070Y637472D01*
Y634973D01*
X1449820Y633724D01*
X1167820Y212330D02*
Y219828D01*
X1171569D01*
X1172818Y218578D01*
Y216079D01*
X1171569Y214829D01*
X1167820D01*
X1170319D02*
X1172818Y212330D01*
X1180316Y219828D02*
X1175318D01*
Y216079D01*
X1177817Y217328D01*
X1179066D01*
X1180316Y216079D01*
Y213580D01*
X1179066Y212330D01*
X1176567D01*
X1175318Y213580D01*
X1186564Y212330D02*
Y219828D01*
X1182815Y216079D01*
X1187814D01*
X1451070Y578530D02*
X1443573D01*
Y582279D01*
X1444822Y583528D01*
X1447321D01*
X1448571Y582279D01*
Y578530D01*
Y581029D02*
X1451070Y583528D01*
X1443573Y591026D02*
Y586028D01*
X1447321D01*
X1446072Y588527D01*
Y589776D01*
X1447321Y591026D01*
X1449821D01*
X1451070Y589776D01*
Y587277D01*
X1449821Y586028D01*
X1444822Y593525D02*
X1443573Y594775D01*
Y597274D01*
X1444822Y598524D01*
X1446072D01*
X1447321Y597274D01*
Y596024D01*
Y597274D01*
X1448571Y598524D01*
X1449821D01*
X1451070Y597274D01*
Y594775D01*
X1449821Y593525D01*
X1234770Y308850D02*
Y316348D01*
X1238519D01*
X1239768Y315098D01*
Y312599D01*
X1238519Y311349D01*
X1234770D01*
X1237269D02*
X1239768Y308850D01*
X1247266Y316348D02*
X1242267D01*
Y312599D01*
X1244766Y313848D01*
X1246016D01*
X1247266Y312599D01*
Y310100D01*
X1246016Y308850D01*
X1243517D01*
X1242267Y310100D01*
X1254763Y308850D02*
X1249765D01*
X1254763Y313848D01*
Y315098D01*
X1253514Y316348D01*
X1251014D01*
X1249765Y315098D01*
X1234770Y293610D02*
Y301108D01*
X1238519D01*
X1239768Y299858D01*
Y297359D01*
X1238519Y296109D01*
X1234770D01*
X1237269D02*
X1239768Y293610D01*
X1247266Y301108D02*
X1242267D01*
Y297359D01*
X1244766Y298608D01*
X1246016D01*
X1247266Y297359D01*
Y294860D01*
X1246016Y293610D01*
X1243517D01*
X1242267Y294860D01*
X1249765Y293610D02*
X1252264D01*
X1251014D01*
Y301108D01*
X1249765Y299858D01*
X1234770Y324090D02*
Y331588D01*
X1238519D01*
X1239768Y330338D01*
Y327839D01*
X1238519Y326589D01*
X1234770D01*
X1237269D02*
X1239768Y324090D01*
X1247266Y331588D02*
X1242267D01*
Y327839D01*
X1244766Y329088D01*
X1246016D01*
X1247266Y327839D01*
Y325340D01*
X1246016Y324090D01*
X1243517D01*
X1242267Y325340D01*
X1249765Y330338D02*
X1251014Y331588D01*
X1253514D01*
X1254763Y330338D01*
Y325340D01*
X1253514Y324090D01*
X1251014D01*
X1249765Y325340D01*
Y330338D01*
X1203380Y212330D02*
Y219828D01*
X1207129D01*
X1208378Y218578D01*
Y216079D01*
X1207129Y214829D01*
X1203380D01*
X1205879D02*
X1208378Y212330D01*
X1214626D02*
Y219828D01*
X1210878Y216079D01*
X1215876D01*
X1218375Y213580D02*
X1219625Y212330D01*
X1222124D01*
X1223374Y213580D01*
Y218578D01*
X1222124Y219828D01*
X1219625D01*
X1218375Y218578D01*
Y217328D01*
X1219625Y216079D01*
X1223374D01*
X1795160Y691338D02*
Y698836D01*
X1798909D01*
X1800158Y697586D01*
Y695087D01*
X1798909Y693838D01*
X1795160D01*
X1797659D02*
X1800158Y691338D01*
X1806406D02*
Y698836D01*
X1802657Y695087D01*
X1807656D01*
X1810155Y697586D02*
X1811405Y698836D01*
X1813904D01*
X1815153Y697586D01*
Y696337D01*
X1813904Y695087D01*
X1815153Y693838D01*
Y692588D01*
X1813904Y691338D01*
X1811405D01*
X1810155Y692588D01*
Y693838D01*
X1811405Y695087D01*
X1810155Y696337D01*
Y697586D01*
X1811405Y695087D02*
X1813904D01*
X1795160Y676098D02*
Y683596D01*
X1798909D01*
X1800158Y682346D01*
Y679847D01*
X1798909Y678598D01*
X1795160D01*
X1797659D02*
X1800158Y676098D01*
X1806406D02*
Y683596D01*
X1802657Y679847D01*
X1807656D01*
X1810155Y683596D02*
X1815153D01*
Y682346D01*
X1810155Y677348D01*
Y676098D01*
X1795240Y706578D02*
Y714076D01*
X1798988D01*
X1800238Y712826D01*
Y710327D01*
X1798988Y709078D01*
X1795240D01*
X1797739D02*
X1800238Y706578D01*
X1806486D02*
Y714076D01*
X1802737Y710327D01*
X1807736D01*
X1815233Y714076D02*
X1812734Y712826D01*
X1810235Y710327D01*
Y707828D01*
X1811485Y706578D01*
X1813984D01*
X1815233Y707828D01*
Y709078D01*
X1813984Y710327D01*
X1810235D01*
X1443190Y491730D02*
Y499228D01*
X1446939D01*
X1448188Y497978D01*
Y495479D01*
X1446939Y494229D01*
X1443190D01*
X1445689D02*
X1448188Y491730D01*
X1454436D02*
Y499228D01*
X1450688Y495479D01*
X1455686D01*
X1463184Y499228D02*
X1458185D01*
Y495479D01*
X1460684Y496728D01*
X1461934D01*
X1463184Y495479D01*
Y492980D01*
X1461934Y491730D01*
X1459435D01*
X1458185Y492980D01*
X300410Y213600D02*
Y221098D01*
X304159D01*
X305408Y219848D01*
Y217349D01*
X304159Y216099D01*
X300410D01*
X302909D02*
X305408Y213600D01*
X311656D02*
Y221098D01*
X307908Y217349D01*
X312906D01*
X319154Y213600D02*
Y221098D01*
X315405Y217349D01*
X320404D01*
X1128090Y585930D02*
X1120592D01*
Y589679D01*
X1121842Y590928D01*
X1124341D01*
X1125591Y589679D01*
Y585930D01*
Y588429D02*
X1128090Y590928D01*
Y597176D02*
X1120592D01*
X1124341Y593428D01*
Y598426D01*
X1121842Y600925D02*
X1120592Y602175D01*
Y604674D01*
X1121842Y605924D01*
X1123091D01*
X1124341Y604674D01*
Y603424D01*
Y604674D01*
X1125591Y605924D01*
X1126840D01*
X1128090Y604674D01*
Y602175D01*
X1126840Y600925D01*
X335970Y213600D02*
Y221098D01*
X339719D01*
X340968Y219848D01*
Y217349D01*
X339719Y216099D01*
X335970D01*
X338469D02*
X340968Y213600D01*
X347216D02*
Y221098D01*
X343468Y217349D01*
X348466D01*
X355964Y213600D02*
X350965D01*
X355964Y218598D01*
Y219848D01*
X354714Y221098D01*
X352215D01*
X350965Y219848D01*
X1128090Y537670D02*
X1120592D01*
Y541419D01*
X1121842Y542668D01*
X1124341D01*
X1125591Y541419D01*
Y537670D01*
Y540169D02*
X1128090Y542668D01*
Y548916D02*
X1120592D01*
X1124341Y545168D01*
Y550166D01*
X1128090Y552665D02*
Y555164D01*
Y553915D01*
X1120592D01*
X1121842Y552665D01*
X425780Y310338D02*
Y317836D01*
X429529D01*
X430778Y316586D01*
Y314087D01*
X429529Y312838D01*
X425780D01*
X428279D02*
X430778Y310338D01*
X437026D02*
Y317836D01*
X433277Y314087D01*
X438276D01*
X440775Y316586D02*
X442024Y317836D01*
X444524D01*
X445773Y316586D01*
Y311588D01*
X444524Y310338D01*
X442024D01*
X440775Y311588D01*
Y316586D01*
X425780Y293828D02*
Y301326D01*
X429529D01*
X430778Y300076D01*
Y297577D01*
X429529Y296328D01*
X425780D01*
X428279D02*
X430778Y293828D01*
X433277Y300076D02*
X434527Y301326D01*
X437026D01*
X438276Y300076D01*
Y298827D01*
X437026Y297577D01*
X435776D01*
X437026D01*
X438276Y296328D01*
Y295078D01*
X437026Y293828D01*
X434527D01*
X433277Y295078D01*
X440775D02*
X442024Y293828D01*
X444524D01*
X445773Y295078D01*
Y300076D01*
X444524Y301326D01*
X442024D01*
X440775Y300076D01*
Y298827D01*
X442024Y297577D01*
X445773D01*
X425780Y324308D02*
Y331806D01*
X429529D01*
X430778Y330556D01*
Y328057D01*
X429529Y326808D01*
X425780D01*
X428279D02*
X430778Y324308D01*
X433277Y330556D02*
X434527Y331806D01*
X437026D01*
X438276Y330556D01*
Y329307D01*
X437026Y328057D01*
X435776D01*
X437026D01*
X438276Y326808D01*
Y325558D01*
X437026Y324308D01*
X434527D01*
X433277Y325558D01*
X440775Y330556D02*
X442024Y331806D01*
X444524D01*
X445773Y330556D01*
Y329307D01*
X444524Y328057D01*
X445773Y326808D01*
Y325558D01*
X444524Y324308D01*
X442024D01*
X440775Y325558D01*
Y326808D01*
X442024Y328057D01*
X440775Y329307D01*
Y330556D01*
X442024Y328057D02*
X444524D01*
X371530Y213600D02*
Y221098D01*
X375279D01*
X376528Y219848D01*
Y217349D01*
X375279Y216099D01*
X371530D01*
X374029D02*
X376528Y213600D01*
X379028Y219848D02*
X380277Y221098D01*
X382776D01*
X384026Y219848D01*
Y218598D01*
X382776Y217349D01*
X381527D01*
X382776D01*
X384026Y216099D01*
Y214850D01*
X382776Y213600D01*
X380277D01*
X379028Y214850D01*
X386525Y221098D02*
X391524D01*
Y219848D01*
X386525Y214850D01*
Y213600D01*
X1475630Y691338D02*
Y698836D01*
X1479379D01*
X1480628Y697586D01*
Y695087D01*
X1479379Y693838D01*
X1475630D01*
X1478129D02*
X1480628Y691338D01*
X1483127Y697586D02*
X1484377Y698836D01*
X1486876D01*
X1488126Y697586D01*
Y696337D01*
X1486876Y695087D01*
X1485627D01*
X1486876D01*
X1488126Y693838D01*
Y692588D01*
X1486876Y691338D01*
X1484377D01*
X1483127Y692588D01*
X1495623Y698836D02*
X1493124Y697586D01*
X1490625Y695087D01*
Y692588D01*
X1491875Y691338D01*
X1494374D01*
X1495623Y692588D01*
Y693838D01*
X1494374Y695087D01*
X1490625D01*
X1475630Y677368D02*
Y684866D01*
X1479379D01*
X1480628Y683616D01*
Y681117D01*
X1479379Y679868D01*
X1475630D01*
X1478129D02*
X1480628Y677368D01*
X1483127Y683616D02*
X1484377Y684866D01*
X1486876D01*
X1488126Y683616D01*
Y682367D01*
X1486876Y681117D01*
X1485627D01*
X1486876D01*
X1488126Y679868D01*
Y678618D01*
X1486876Y677368D01*
X1484377D01*
X1483127Y678618D01*
X1495623Y684866D02*
X1490625D01*
Y681117D01*
X1493124Y682367D01*
X1494374D01*
X1495623Y681117D01*
Y678618D01*
X1494374Y677368D01*
X1491875D01*
X1490625Y678618D01*
X1475630Y707848D02*
Y715346D01*
X1479379D01*
X1480628Y714096D01*
Y711597D01*
X1479379Y710348D01*
X1475630D01*
X1478129D02*
X1480628Y707848D01*
X1483127Y714096D02*
X1484377Y715346D01*
X1486876D01*
X1488126Y714096D01*
Y712847D01*
X1486876Y711597D01*
X1485627D01*
X1486876D01*
X1488126Y710348D01*
Y709098D01*
X1486876Y707848D01*
X1484377D01*
X1483127Y709098D01*
X1494374Y707848D02*
Y715346D01*
X1490625Y711597D01*
X1495623D01*
X1128090Y493220D02*
X1120592D01*
Y496969D01*
X1121842Y498218D01*
X1124341D01*
X1125591Y496969D01*
Y493220D01*
Y495719D02*
X1128090Y498218D01*
X1121842Y500718D02*
X1120592Y501967D01*
Y504466D01*
X1121842Y505716D01*
X1123091D01*
X1124341Y504466D01*
Y503217D01*
Y504466D01*
X1125591Y505716D01*
X1126840D01*
X1128090Y504466D01*
Y501967D01*
X1126840Y500718D01*
X1121842Y508215D02*
X1120592Y509465D01*
Y511964D01*
X1121842Y513214D01*
X1123091D01*
X1124341Y511964D01*
Y510714D01*
Y511964D01*
X1125591Y513214D01*
X1126840D01*
X1128090Y511964D01*
Y509465D01*
X1126840Y508215D01*
X337240Y526020D02*
Y533518D01*
X340989D01*
X342238Y532268D01*
Y529769D01*
X340989Y528519D01*
X337240D01*
X339739D02*
X342238Y526020D01*
X344738Y532268D02*
X345987Y533518D01*
X348486D01*
X349736Y532268D01*
Y531018D01*
X348486Y529769D01*
X347237D01*
X348486D01*
X349736Y528519D01*
Y527270D01*
X348486Y526020D01*
X345987D01*
X344738Y527270D01*
X357234Y526020D02*
X352235D01*
X357234Y531018D01*
Y532268D01*
X355984Y533518D01*
X353485D01*
X352235Y532268D01*
X2106350Y645790D02*
X2098852D01*
Y649539D01*
X2100102Y650788D01*
X2102601D01*
X2103851Y649539D01*
Y645790D01*
Y648289D02*
X2106350Y650788D01*
X2100102Y653288D02*
X2098852Y654537D01*
Y657036D01*
X2100102Y658286D01*
X2101352D01*
X2102601Y657036D01*
Y655787D01*
Y657036D01*
X2103851Y658286D01*
X2105100D01*
X2106350Y657036D01*
Y654537D01*
X2105100Y653288D01*
X2106350Y660785D02*
Y663284D01*
Y662035D01*
X2098852D01*
X2100102Y660785D01*
X1735510Y661910D02*
Y669408D01*
X1739259D01*
X1740508Y668158D01*
Y665659D01*
X1739259Y664409D01*
X1735510D01*
X1738009D02*
X1740508Y661910D01*
X1743008Y668158D02*
X1744257Y669408D01*
X1746756D01*
X1748006Y668158D01*
Y666908D01*
X1746756Y665659D01*
X1745507D01*
X1746756D01*
X1748006Y664409D01*
Y663160D01*
X1746756Y661910D01*
X1744257D01*
X1743008Y663160D01*
X1750505Y668158D02*
X1751755Y669408D01*
X1754254D01*
X1755504Y668158D01*
Y663160D01*
X1754254Y661910D01*
X1751755D01*
X1750505Y663160D01*
Y668158D01*
X1415470Y661910D02*
Y669408D01*
X1419219D01*
X1420468Y668158D01*
Y665659D01*
X1419219Y664409D01*
X1415470D01*
X1417969D02*
X1420468Y661910D01*
X1427966D02*
X1422968D01*
X1427966Y666908D01*
Y668158D01*
X1426716Y669408D01*
X1424217D01*
X1422968Y668158D01*
X1430465Y663160D02*
X1431715Y661910D01*
X1434214D01*
X1435464Y663160D01*
Y668158D01*
X1434214Y669408D01*
X1431715D01*
X1430465Y668158D01*
Y666908D01*
X1431715Y665659D01*
X1435464D01*
X474980Y274320D02*
X482478D01*
Y270571D01*
X481228Y269322D01*
X478729D01*
X477479Y270571D01*
Y274320D01*
Y271821D02*
X474980Y269322D01*
Y261824D02*
Y266822D01*
X479978Y261824D01*
X481228D01*
X482478Y263074D01*
Y265573D01*
X481228Y266822D01*
Y259325D02*
X482478Y258075D01*
Y255576D01*
X481228Y254326D01*
X479978D01*
X478729Y255576D01*
X477479Y254326D01*
X476230D01*
X474980Y255576D01*
Y258075D01*
X476230Y259325D01*
X477479D01*
X478729Y258075D01*
X479978Y259325D01*
X481228D01*
X478729Y258075D02*
Y255576D01*
X1961210Y884160D02*
Y891658D01*
X1964958D01*
X1966208Y890408D01*
Y887909D01*
X1964958Y886659D01*
X1961210D01*
X1963709D02*
X1966208Y884160D01*
X1973706D02*
X1968707D01*
X1973706Y889159D01*
Y890408D01*
X1972456Y891658D01*
X1969957D01*
X1968707Y890408D01*
X1976205Y891658D02*
X1981203D01*
Y890408D01*
X1976205Y885410D01*
Y884160D01*
X1643690Y884160D02*
Y891658D01*
X1647439D01*
X1648688Y890408D01*
Y887909D01*
X1647439Y886659D01*
X1643690D01*
X1646189D02*
X1648688Y884160D01*
X1656186D02*
X1651188D01*
X1656186Y889158D01*
Y890408D01*
X1654936Y891658D01*
X1652437D01*
X1651188Y890408D01*
X1663684Y891658D02*
X1661184Y890408D01*
X1658685Y887909D01*
Y885410D01*
X1659935Y884160D01*
X1662434D01*
X1663684Y885410D01*
Y886659D01*
X1662434Y887909D01*
X1658685D01*
X1321870Y884160D02*
Y891658D01*
X1325619D01*
X1326868Y890408D01*
Y887909D01*
X1325619Y886659D01*
X1321870D01*
X1324369D02*
X1326868Y884160D01*
X1334366D02*
X1329368D01*
X1334366Y889158D01*
Y890408D01*
X1333116Y891658D01*
X1330617D01*
X1329368Y890408D01*
X1341864Y891658D02*
X1336865D01*
Y887909D01*
X1339364Y889158D01*
X1340614D01*
X1341864Y887909D01*
Y885410D01*
X1340614Y884160D01*
X1338115D01*
X1336865Y885410D01*
X1999310Y872730D02*
X1991812D01*
Y876479D01*
X1993062Y877729D01*
X1995561D01*
X1996810Y876479D01*
Y872730D01*
Y875229D02*
X1999310Y877729D01*
Y885226D02*
Y880228D01*
X1994311Y885226D01*
X1993062D01*
X1991812Y883977D01*
Y881477D01*
X1993062Y880228D01*
X1999310Y891474D02*
X1991812D01*
X1995561Y887725D01*
Y892724D01*
X1681790Y872730D02*
X1674292D01*
Y876479D01*
X1675542Y877728D01*
X1678041D01*
X1679291Y876479D01*
Y872730D01*
Y875229D02*
X1681790Y877728D01*
Y885226D02*
Y880228D01*
X1676792Y885226D01*
X1675542D01*
X1674292Y883976D01*
Y881477D01*
X1675542Y880228D01*
Y887725D02*
X1674292Y888975D01*
Y891474D01*
X1675542Y892724D01*
X1676792D01*
X1678041Y891474D01*
Y890224D01*
Y891474D01*
X1679291Y892724D01*
X1680540D01*
X1681790Y891474D01*
Y888975D01*
X1680540Y887725D01*
X1361240Y872730D02*
X1353742D01*
Y876479D01*
X1354992Y877728D01*
X1357491D01*
X1358741Y876479D01*
Y872730D01*
Y875229D02*
X1361240Y877728D01*
Y885226D02*
Y880228D01*
X1356242Y885226D01*
X1354992D01*
X1353742Y883976D01*
Y881477D01*
X1354992Y880228D01*
X1361240Y892724D02*
Y887725D01*
X1356242Y892724D01*
X1354992D01*
X1353742Y891474D01*
Y888975D01*
X1354992Y887725D01*
X1930730Y884160D02*
Y891658D01*
X1934478D01*
X1935728Y890408D01*
Y887909D01*
X1934478Y886659D01*
X1930730D01*
X1933229D02*
X1935728Y884160D01*
X1943226D02*
X1938227D01*
X1943226Y889159D01*
Y890408D01*
X1941976Y891658D01*
X1939477D01*
X1938227Y890408D01*
X1945725Y884160D02*
X1948224D01*
X1946974D01*
Y891658D01*
X1945725Y890408D01*
X1611940Y884160D02*
Y891658D01*
X1615689D01*
X1616938Y890408D01*
Y887909D01*
X1615689Y886659D01*
X1611940D01*
X1614439D02*
X1616938Y884160D01*
X1624436D02*
X1619438D01*
X1624436Y889158D01*
Y890408D01*
X1623186Y891658D01*
X1620687D01*
X1619438Y890408D01*
X1626935D02*
X1628185Y891658D01*
X1630684D01*
X1631934Y890408D01*
Y885410D01*
X1630684Y884160D01*
X1628185D01*
X1626935Y885410D01*
Y890408D01*
X1290120Y884160D02*
Y891658D01*
X1293869D01*
X1295118Y890408D01*
Y887909D01*
X1293869Y886659D01*
X1290120D01*
X1292619D02*
X1295118Y884160D01*
X1297618D02*
X1300117D01*
X1298867D01*
Y891658D01*
X1297618Y890408D01*
X1303866Y885410D02*
X1305115Y884160D01*
X1307614D01*
X1308864Y885410D01*
Y890408D01*
X1307614Y891658D01*
X1305115D01*
X1303866Y890408D01*
Y889158D01*
X1305115Y887909D01*
X1308864D01*
X1921840Y872730D02*
X1914342D01*
Y876479D01*
X1915592Y877729D01*
X1918091D01*
X1919341Y876479D01*
Y872730D01*
Y875229D02*
X1921840Y877729D01*
Y880228D02*
Y882727D01*
Y881477D01*
X1914342D01*
X1915592Y880228D01*
Y886476D02*
X1914342Y887725D01*
Y890225D01*
X1915592Y891474D01*
X1916841D01*
X1918091Y890225D01*
X1919341Y891474D01*
X1920590D01*
X1921840Y890225D01*
Y887725D01*
X1920590Y886476D01*
X1919341D01*
X1918091Y887725D01*
X1916841Y886476D01*
X1915592D01*
X1918091Y887725D02*
Y890225D01*
X1604320Y872730D02*
X1596822D01*
Y876479D01*
X1598072Y877728D01*
X1600571D01*
X1601821Y876479D01*
Y872730D01*
Y875229D02*
X1604320Y877728D01*
Y880228D02*
Y882727D01*
Y881477D01*
X1596822D01*
X1598072Y880228D01*
X1596822Y886476D02*
Y891474D01*
X1598072D01*
X1603070Y886476D01*
X1604320D01*
X1283770Y872730D02*
X1276272D01*
Y876479D01*
X1277522Y877728D01*
X1280021D01*
X1281271Y876479D01*
Y872730D01*
Y875229D02*
X1283770Y877728D01*
Y880228D02*
Y882727D01*
Y881477D01*
X1276272D01*
X1277522Y880228D01*
X1276272Y891474D02*
X1277522Y888975D01*
X1280021Y886476D01*
X1282520D01*
X1283770Y887725D01*
Y890224D01*
X1282520Y891474D01*
X1281271D01*
X1280021Y890224D01*
Y886476D01*
X1072570Y274560D02*
Y282058D01*
X1076319D01*
X1077568Y280808D01*
Y278309D01*
X1076319Y277059D01*
X1072570D01*
X1075069D02*
X1077568Y274560D01*
X1080068D02*
X1082567D01*
X1081317D01*
Y282058D01*
X1080068Y280808D01*
X1091314Y282058D02*
X1086316D01*
Y278309D01*
X1088815Y279558D01*
X1090064D01*
X1091314Y278309D01*
Y275810D01*
X1090064Y274560D01*
X1087565D01*
X1086316Y275810D01*
X1867590Y641590D02*
Y649088D01*
X1871339D01*
X1872588Y647838D01*
Y645339D01*
X1871339Y644089D01*
X1867590D01*
X1870089D02*
X1872588Y641590D01*
X1875088D02*
X1877587D01*
X1876337D01*
Y649088D01*
X1875088Y647838D01*
X1885084Y641590D02*
Y649088D01*
X1881336Y645339D01*
X1886334D01*
X1547550Y641590D02*
Y649088D01*
X1551299D01*
X1552548Y647838D01*
Y645339D01*
X1551299Y644089D01*
X1547550D01*
X1550049D02*
X1552548Y641590D01*
X1555048D02*
X1557547D01*
X1556297D01*
Y649088D01*
X1555048Y647838D01*
X1561296D02*
X1562545Y649088D01*
X1565044D01*
X1566294Y647838D01*
Y646588D01*
X1565044Y645339D01*
X1563795D01*
X1565044D01*
X1566294Y644089D01*
Y642840D01*
X1565044Y641590D01*
X1562545D01*
X1561296Y642840D01*
X1223700Y641590D02*
Y649088D01*
X1227449D01*
X1228698Y647838D01*
Y645339D01*
X1227449Y644089D01*
X1223700D01*
X1226199D02*
X1228698Y641590D01*
X1231198D02*
X1233697D01*
X1232447D01*
Y649088D01*
X1231198Y647838D01*
X1242444Y641590D02*
X1237446D01*
X1242444Y646588D01*
Y647838D01*
X1241194Y649088D01*
X1238695D01*
X1237446Y647838D01*
X1816100Y284480D02*
Y291978D01*
X1819849D01*
X1821098Y290728D01*
Y288229D01*
X1819849Y286979D01*
X1816100D01*
X1818599D02*
X1821098Y284480D01*
X1823598D02*
X1826097D01*
X1824847D01*
Y291978D01*
X1823598Y290728D01*
X1829846Y284480D02*
X1832345D01*
X1831095D01*
Y291978D01*
X1829846Y290728D01*
X1503668Y369950D02*
X1496171D01*
Y373699D01*
X1497420Y374948D01*
X1499919D01*
X1501169Y373699D01*
Y369950D01*
Y372449D02*
X1503668Y374948D01*
X1497420Y377448D02*
X1496171Y378697D01*
Y381196D01*
X1497420Y382446D01*
X1498670D01*
X1499919Y381196D01*
X1501169Y382446D01*
X1502419D01*
X1503668Y381196D01*
Y378697D01*
X1502419Y377448D01*
X1501169D01*
X1499919Y378697D01*
X1498670Y377448D01*
X1497420D01*
X1499919Y378697D02*
Y381196D01*
X1518395Y369946D02*
X1510898D01*
Y373694D01*
X1512147Y374944D01*
X1514646D01*
X1515896Y373694D01*
Y369946D01*
Y372445D02*
X1518395Y374944D01*
X1510898Y377443D02*
Y382442D01*
X1512147D01*
X1517146Y377443D01*
X1518395D01*
X1488440Y369570D02*
X1480942D01*
Y373319D01*
X1482192Y374568D01*
X1484691D01*
X1485941Y373319D01*
Y369570D01*
Y372069D02*
X1488440Y374568D01*
X1480942Y382066D02*
X1482192Y379567D01*
X1484691Y377068D01*
X1487190D01*
X1488440Y378317D01*
Y380816D01*
X1487190Y382066D01*
X1485941D01*
X1484691Y380816D01*
Y377068D01*
X1447800Y369570D02*
X1440302D01*
Y373319D01*
X1441552Y374568D01*
X1444051D01*
X1445301Y373319D01*
Y369570D01*
Y372069D02*
X1447800Y374568D01*
X1440302Y382066D02*
Y377068D01*
X1444051D01*
X1442802Y379567D01*
Y380816D01*
X1444051Y382066D01*
X1446550D01*
X1447800Y380816D01*
Y378317D01*
X1446550Y377068D01*
X477850Y470358D02*
Y477856D01*
X481599D01*
X482848Y476606D01*
Y474107D01*
X481599Y472858D01*
X477850D01*
X480349D02*
X482848Y470358D01*
X489096D02*
Y477856D01*
X485347Y474107D01*
X490346D01*
X478210Y452360D02*
Y459858D01*
X481959D01*
X483208Y458608D01*
Y456109D01*
X481959Y454859D01*
X478210D01*
X480709D02*
X483208Y452360D01*
X485708Y458608D02*
X486957Y459858D01*
X489456D01*
X490706Y458608D01*
Y457358D01*
X489456Y456109D01*
X488207D01*
X489456D01*
X490706Y454859D01*
Y453610D01*
X489456Y452360D01*
X486957D01*
X485708Y453610D01*
X383870Y469088D02*
Y476586D01*
X387618D01*
X388868Y475336D01*
Y472837D01*
X387618Y471588D01*
X383870D01*
X386369D02*
X388868Y469088D01*
X396366D02*
X391367D01*
X396366Y474087D01*
Y475336D01*
X395116Y476586D01*
X392617D01*
X391367Y475336D01*
X459160Y567930D02*
Y575428D01*
X462909D01*
X464158Y574178D01*
Y571679D01*
X462909Y570429D01*
X459160D01*
X461659D02*
X464158Y567930D01*
X466658D02*
X469157D01*
X467907D01*
Y575428D01*
X466658Y574178D01*
X353668Y628870D02*
Y633868D01*
X352419Y635118D01*
X349920D01*
X348670Y633868D01*
Y628870D01*
X349920Y627620D01*
X352419D01*
X351169Y630119D02*
X353668Y627620D01*
X352419D02*
X353668Y628870D01*
X361166Y627620D02*
X356168D01*
X361166Y632618D01*
Y633868D01*
X359916Y635118D01*
X357417D01*
X356168Y633868D01*
X363665D02*
X364915Y635118D01*
X367414D01*
X368664Y633868D01*
Y632618D01*
X367414Y631369D01*
X366164D01*
X367414D01*
X368664Y630119D01*
Y628870D01*
X367414Y627620D01*
X364915D01*
X363665Y628870D01*
X422248Y748250D02*
Y753248D01*
X420999Y754498D01*
X418500D01*
X417250Y753248D01*
Y748250D01*
X418500Y747000D01*
X420999D01*
X419749Y749499D02*
X422248Y747000D01*
X420999D02*
X422248Y748250D01*
X429746Y747000D02*
X424748D01*
X429746Y751998D01*
Y753248D01*
X428496Y754498D01*
X425997D01*
X424748Y753248D01*
X432245Y747000D02*
X434744D01*
X433495D01*
Y754498D01*
X432245Y753248D01*
X1838400Y654208D02*
X1833402D01*
X1832152Y652959D01*
Y650460D01*
X1833402Y649210D01*
X1838400D01*
X1839650Y650460D01*
Y652959D01*
X1837151Y651709D02*
X1839650Y654208D01*
Y652959D02*
X1838400Y654208D01*
X1839650Y656708D02*
Y659207D01*
Y657957D01*
X1832152D01*
X1833402Y656708D01*
X1838400Y662956D02*
X1839650Y664205D01*
Y666704D01*
X1838400Y667954D01*
X1833402D01*
X1832152Y666704D01*
Y664205D01*
X1833402Y662956D01*
X1834652D01*
X1835901Y664205D01*
Y667954D01*
X1839671Y616550D02*
X1834672D01*
X1833423Y615300D01*
Y612801D01*
X1834672Y611552D01*
X1839671D01*
X1840920Y612801D01*
Y615300D01*
X1838421Y614051D02*
X1840920Y616550D01*
Y615300D02*
X1839671Y616550D01*
X1840920Y619049D02*
Y621548D01*
Y620299D01*
X1833423D01*
X1834672Y619049D01*
X1833423Y625297D02*
Y630296D01*
X1834672D01*
X1839671Y625297D01*
X1840920D01*
X1839341Y487380D02*
X1834342D01*
X1833093Y486130D01*
Y483631D01*
X1834342Y482382D01*
X1839341D01*
X1840590Y483631D01*
Y486130D01*
X1838091Y484881D02*
X1840590Y487380D01*
Y486130D02*
X1839341Y487380D01*
X1840590Y489879D02*
Y492378D01*
Y491129D01*
X1833093D01*
X1834342Y489879D01*
X1833093Y501126D02*
Y496127D01*
X1836841D01*
X1835592Y498626D01*
Y499876D01*
X1836841Y501126D01*
X1839341D01*
X1840590Y499876D01*
Y497377D01*
X1839341Y496127D01*
X1138528Y280890D02*
Y285888D01*
X1137279Y287138D01*
X1134780D01*
X1133530Y285888D01*
Y280890D01*
X1134780Y279640D01*
X1137279D01*
X1136029Y282139D02*
X1138528Y279640D01*
X1137279D02*
X1138528Y280890D01*
X1141028Y279640D02*
X1143527D01*
X1142277D01*
Y287138D01*
X1141028Y285888D01*
X1151024Y279640D02*
Y287138D01*
X1147276Y283389D01*
X1152274D01*
X1519670Y655477D02*
X1514672D01*
X1513422Y654227D01*
Y651728D01*
X1514672Y650478D01*
X1519670D01*
X1520920Y651728D01*
Y654227D01*
X1518421Y652978D02*
X1520920Y655477D01*
Y654227D02*
X1519670Y655477D01*
X1520920Y657976D02*
Y660475D01*
Y659226D01*
X1513422D01*
X1514672Y657976D01*
Y664224D02*
X1513422Y665474D01*
Y667973D01*
X1514672Y669222D01*
X1515922D01*
X1517171Y667973D01*
Y666723D01*
Y667973D01*
X1518421Y669222D01*
X1519670D01*
X1520920Y667973D01*
Y665474D01*
X1519670Y664224D01*
X1176628Y282160D02*
Y287158D01*
X1175379Y288408D01*
X1172880D01*
X1171630Y287158D01*
Y282160D01*
X1172880Y280910D01*
X1175379D01*
X1174129Y283409D02*
X1176628Y280910D01*
X1175379D02*
X1176628Y282160D01*
X1179128Y280910D02*
X1181627D01*
X1180377D01*
Y288408D01*
X1179128Y287158D01*
X1190374Y280910D02*
X1185376D01*
X1190374Y285908D01*
Y287158D01*
X1189124Y288408D01*
X1186625D01*
X1185376Y287158D01*
X1519671Y619088D02*
X1514672D01*
X1513423Y617839D01*
Y615340D01*
X1514672Y614090D01*
X1519671D01*
X1520920Y615340D01*
Y617839D01*
X1518421Y616589D02*
X1520920Y619088D01*
Y617839D02*
X1519671Y619088D01*
X1520920Y621588D02*
Y624087D01*
Y622837D01*
X1513423D01*
X1514672Y621588D01*
X1520920Y627836D02*
Y630335D01*
Y629085D01*
X1513423D01*
X1514672Y627836D01*
X1210918Y280890D02*
Y285888D01*
X1209669Y287138D01*
X1207170D01*
X1205920Y285888D01*
Y280890D01*
X1207170Y279640D01*
X1209669D01*
X1208419Y282139D02*
X1210918Y279640D01*
X1209669D02*
X1210918Y280890D01*
X1213418Y279640D02*
X1215917D01*
X1214667D01*
Y287138D01*
X1213418Y285888D01*
X1219666D02*
X1220915Y287138D01*
X1223414D01*
X1224664Y285888D01*
Y280890D01*
X1223414Y279640D01*
X1220915D01*
X1219666Y280890D01*
Y285888D01*
X1518401Y485297D02*
X1513402D01*
X1512153Y484047D01*
Y481548D01*
X1513402Y480298D01*
X1518401D01*
X1519650Y481548D01*
Y484047D01*
X1517151Y482798D02*
X1519650Y485297D01*
Y484047D02*
X1518401Y485297D01*
Y487796D02*
X1519650Y489046D01*
Y491545D01*
X1518401Y492794D01*
X1513402D01*
X1512153Y491545D01*
Y489046D01*
X1513402Y487796D01*
X1514652D01*
X1515901Y489046D01*
Y492794D01*
X314298Y280890D02*
Y285888D01*
X313049Y287138D01*
X310550D01*
X309300Y285888D01*
Y280890D01*
X310550Y279640D01*
X313049D01*
X311799Y282139D02*
X314298Y279640D01*
X313049D02*
X314298Y280890D01*
X316798Y285888D02*
X318047Y287138D01*
X320546D01*
X321796Y285888D01*
Y284638D01*
X320546Y283389D01*
X321796Y282139D01*
Y280890D01*
X320546Y279640D01*
X318047D01*
X316798Y280890D01*
Y282139D01*
X318047Y283389D01*
X316798Y284638D01*
Y285888D01*
X318047Y283389D02*
X320546D01*
X1197050Y626268D02*
X1192052D01*
X1190802Y625019D01*
Y622520D01*
X1192052Y621270D01*
X1197050D01*
X1198300Y622520D01*
Y625019D01*
X1195801Y623769D02*
X1198300Y626268D01*
Y625019D02*
X1197050Y626268D01*
X1190802Y628768D02*
Y633766D01*
X1192052D01*
X1197050Y628768D01*
X1198300D01*
X347318Y282160D02*
Y287158D01*
X346069Y288408D01*
X343570D01*
X342320Y287158D01*
Y282160D01*
X343570Y280910D01*
X346069D01*
X344819Y283409D02*
X347318Y280910D01*
X346069D02*
X347318Y282160D01*
X354816Y288408D02*
X352317Y287158D01*
X349818Y284659D01*
Y282160D01*
X351067Y280910D01*
X353566D01*
X354816Y282160D01*
Y283409D01*
X353566Y284659D01*
X349818D01*
X1197050Y580548D02*
X1192052D01*
X1190802Y579299D01*
Y576800D01*
X1192052Y575550D01*
X1197050D01*
X1198300Y576800D01*
Y579299D01*
X1195801Y578049D02*
X1198300Y580548D01*
Y579299D02*
X1197050Y580548D01*
X1190802Y588046D02*
Y583048D01*
X1194551D01*
X1193302Y585547D01*
Y586796D01*
X1194551Y588046D01*
X1197050D01*
X1198300Y586796D01*
Y584297D01*
X1197050Y583048D01*
X384148Y280890D02*
Y285888D01*
X382899Y287138D01*
X380400D01*
X379150Y285888D01*
Y280890D01*
X380400Y279640D01*
X382899D01*
X381649Y282139D02*
X384148Y279640D01*
X382899D02*
X384148Y280890D01*
X390396Y279640D02*
Y287138D01*
X386648Y283389D01*
X391646D01*
X1195780Y536098D02*
X1190782D01*
X1189532Y534849D01*
Y532350D01*
X1190782Y531100D01*
X1195780D01*
X1197030Y532350D01*
Y534849D01*
X1194531Y533599D02*
X1197030Y536098D01*
Y534849D02*
X1195780Y536098D01*
X1190782Y538598D02*
X1189532Y539847D01*
Y542346D01*
X1190782Y543596D01*
X1192032D01*
X1193281Y542346D01*
Y541097D01*
Y542346D01*
X1194531Y543596D01*
X1195780D01*
X1197030Y542346D01*
Y539847D01*
X1195780Y538598D01*
X943590Y312502D02*
X948588D01*
X949838Y313751D01*
Y316250D01*
X948588Y317500D01*
X943590D01*
X942340Y316250D01*
Y313751D01*
X944839Y315001D02*
X942340Y312502D01*
Y313751D02*
X943590Y312502D01*
X942340Y305004D02*
Y310002D01*
X947338Y305004D01*
X948588D01*
X949838Y306254D01*
Y308753D01*
X948588Y310002D01*
X1394480Y365678D02*
X1389482D01*
X1388232Y364429D01*
Y361930D01*
X1389482Y360680D01*
X1394480D01*
X1395730Y361930D01*
Y364429D01*
X1393231Y363179D02*
X1395730Y365678D01*
Y364429D02*
X1394480Y365678D01*
X1395730Y368178D02*
Y370677D01*
Y369427D01*
X1388232D01*
X1389482Y368178D01*
X505713Y303706D02*
Y311203D01*
X509462D01*
X510712Y309953D01*
Y307454D01*
X509462Y306205D01*
X505713D01*
X516960Y303706D02*
Y311203D01*
X513211Y307454D01*
X518209D01*
X1312925Y303706D02*
Y311203D01*
X1316674D01*
X1317924Y309953D01*
Y307454D01*
X1316674Y306205D01*
X1312925D01*
X1320423Y309953D02*
X1321672Y311203D01*
X1324172D01*
X1325421Y309953D01*
Y308704D01*
X1324172Y307454D01*
X1322922D01*
X1324172D01*
X1325421Y306205D01*
Y304955D01*
X1324172Y303706D01*
X1321672D01*
X1320423Y304955D01*
X1720850Y297180D02*
Y304678D01*
X1724599D01*
X1725848Y303428D01*
Y300929D01*
X1724599Y299679D01*
X1720850D01*
X1733346Y297180D02*
X1728348D01*
X1733346Y302178D01*
Y303428D01*
X1732096Y304678D01*
X1729597D01*
X1728348Y303428D01*
X1407034Y300560D02*
Y308058D01*
X1410783D01*
X1412033Y306808D01*
Y304309D01*
X1410783Y303059D01*
X1407034D01*
X1414532Y300560D02*
X1417031D01*
X1415781D01*
Y308058D01*
X1414532Y306808D01*
X1919092Y913130D02*
X1926590D01*
Y918128D01*
X1919092Y925626D02*
Y920628D01*
X1926590D01*
Y925626D01*
X1922841Y920628D02*
Y923127D01*
X1919092Y928125D02*
X1926590D01*
Y931874D01*
X1925340Y933124D01*
X1920342D01*
X1919092Y931874D01*
Y928125D01*
X1926590Y935623D02*
Y938122D01*
Y936872D01*
X1919092D01*
X1920342Y935623D01*
X1926590Y941871D02*
Y944370D01*
Y943120D01*
X1919092D01*
X1920342Y941871D01*
X1709542Y910590D02*
X1717040D01*
Y915588D01*
X1709542Y923086D02*
Y918088D01*
X1717040D01*
Y923086D01*
X1713291Y918088D02*
Y920587D01*
X1709542Y925585D02*
X1717040D01*
Y929334D01*
X1715790Y930584D01*
X1710792D01*
X1709542Y929334D01*
Y925585D01*
X1717040Y933083D02*
Y935582D01*
Y934332D01*
X1709542D01*
X1710792Y933083D01*
Y939331D02*
X1709542Y940580D01*
Y943080D01*
X1710792Y944329D01*
X1715790D01*
X1717040Y943080D01*
Y940580D01*
X1715790Y939331D01*
X1710792D01*
X514472Y914400D02*
X521970D01*
Y919398D01*
X514472Y926896D02*
Y921898D01*
X521970D01*
Y926896D01*
X518221Y921898D02*
Y924397D01*
X514472Y929395D02*
X521970D01*
Y933144D01*
X520720Y934394D01*
X515722D01*
X514472Y933144D01*
Y929395D01*
X520720Y936893D02*
X521970Y938142D01*
Y940642D01*
X520720Y941891D01*
X515722D01*
X514472Y940642D01*
Y938142D01*
X515722Y936893D01*
X516972D01*
X518221Y938142D01*
Y941891D01*
X306192Y915670D02*
X313690D01*
Y920668D01*
X306192Y928166D02*
Y923168D01*
X313690D01*
Y928166D01*
X309941Y923168D02*
Y925667D01*
X306192Y930665D02*
X313690D01*
Y934414D01*
X312440Y935664D01*
X307442D01*
X306192Y934414D01*
Y930665D01*
X307442Y938163D02*
X306192Y939412D01*
Y941912D01*
X307442Y943161D01*
X308692D01*
X309941Y941912D01*
X311191Y943161D01*
X312440D01*
X313690Y941912D01*
Y939412D01*
X312440Y938163D01*
X311191D01*
X309941Y939412D01*
X308692Y938163D01*
X307442D01*
X309941Y939412D02*
Y941912D01*
X264160Y720778D02*
Y713280D01*
X269158D01*
X276656Y720778D02*
X271658D01*
Y713280D01*
X276656D01*
X271658Y717029D02*
X274157D01*
X279155Y720778D02*
Y713280D01*
X282904D01*
X284154Y714530D01*
Y719528D01*
X282904Y720778D01*
X279155D01*
X286653D02*
X291651D01*
Y719528D01*
X286653Y714530D01*
Y713280D01*
X1946910Y341508D02*
Y334010D01*
X1951908D01*
X1959406Y341508D02*
X1954408D01*
Y334010D01*
X1959406D01*
X1954408Y337759D02*
X1956907D01*
X1961905Y341508D02*
Y334010D01*
X1965654D01*
X1966904Y335260D01*
Y340258D01*
X1965654Y341508D01*
X1961905D01*
X1974401D02*
X1971902Y340258D01*
X1969403Y337759D01*
Y335260D01*
X1970652Y334010D01*
X1973152D01*
X1974401Y335260D01*
Y336509D01*
X1973152Y337759D01*
X1969403D01*
X1945640Y605208D02*
Y597710D01*
X1950638D01*
X1958136Y605208D02*
X1953138D01*
Y597710D01*
X1958136D01*
X1953138Y601459D02*
X1955637D01*
X1960635Y605208D02*
Y597710D01*
X1964384D01*
X1965634Y598960D01*
Y603958D01*
X1964384Y605208D01*
X1960635D01*
X1973131D02*
X1968133D01*
Y601459D01*
X1970632Y602708D01*
X1971882D01*
X1973131Y601459D01*
Y598960D01*
X1971882Y597710D01*
X1969382D01*
X1968133Y598960D01*
X1139190Y341508D02*
Y334010D01*
X1144188D01*
X1151686Y341508D02*
X1146688D01*
Y334010D01*
X1151686D01*
X1146688Y337759D02*
X1149187D01*
X1154185Y341508D02*
Y334010D01*
X1157934D01*
X1159184Y335260D01*
Y340258D01*
X1157934Y341508D01*
X1154185D01*
X1165432Y334010D02*
Y341508D01*
X1161683Y337759D01*
X1166681D01*
X1625600Y606478D02*
Y598980D01*
X1630598D01*
X1638096Y606478D02*
X1633098D01*
Y598980D01*
X1638096D01*
X1633098Y602729D02*
X1635597D01*
X1640595Y606478D02*
Y598980D01*
X1644344D01*
X1645594Y600230D01*
Y605228D01*
X1644344Y606478D01*
X1640595D01*
X1648093Y605228D02*
X1649342Y606478D01*
X1651842D01*
X1653091Y605228D01*
Y603978D01*
X1651842Y602729D01*
X1650592D01*
X1651842D01*
X1653091Y601479D01*
Y600230D01*
X1651842Y598980D01*
X1649342D01*
X1648093Y600230D01*
X334010Y341508D02*
Y334010D01*
X339008D01*
X346506Y341508D02*
X341508D01*
Y334010D01*
X346506D01*
X341508Y337759D02*
X344007D01*
X349005Y341508D02*
Y334010D01*
X352754D01*
X354004Y335260D01*
Y340258D01*
X352754Y341508D01*
X349005D01*
X361501Y334010D02*
X356503D01*
X361501Y339008D01*
Y340258D01*
X360252Y341508D01*
X357752D01*
X356503Y340258D01*
X1308100Y607748D02*
Y600250D01*
X1313098D01*
X1320596Y607748D02*
X1315598D01*
Y600250D01*
X1320596D01*
X1315598Y603999D02*
X1318097D01*
X1323095Y607748D02*
Y600250D01*
X1326844D01*
X1328094Y601500D01*
Y606498D01*
X1326844Y607748D01*
X1323095D01*
X1330593Y600250D02*
X1333092D01*
X1331842D01*
Y607748D01*
X1330593Y606498D01*
X1898338Y824608D02*
X1893340D01*
Y817110D01*
X1898338D01*
X1893340Y820859D02*
X1895839D01*
X1900838Y823358D02*
X1902087Y824608D01*
X1904586D01*
X1905836Y823358D01*
Y822108D01*
X1904586Y820859D01*
X1903337D01*
X1904586D01*
X1905836Y819609D01*
Y818360D01*
X1904586Y817110D01*
X1902087D01*
X1900838Y818360D01*
X1579888Y824608D02*
X1574890D01*
Y817110D01*
X1579888D01*
X1574890Y820859D02*
X1577389D01*
X1587386Y817110D02*
X1582388D01*
X1587386Y822108D01*
Y823358D01*
X1586136Y824608D01*
X1583637D01*
X1582388Y823358D01*
X1257628Y824608D02*
X1252630D01*
Y817110D01*
X1257628D01*
X1252630Y820859D02*
X1255129D01*
X1260128Y817110D02*
X1262627D01*
X1261377D01*
Y824608D01*
X1260128Y823358D01*
X383870Y493096D02*
Y485598D01*
X387618D01*
X388868Y486848D01*
Y491846D01*
X387618Y493096D01*
X383870D01*
X396366Y485598D02*
X391367D01*
X396366Y490597D01*
Y491846D01*
X395116Y493096D01*
X392617D01*
X391367Y491846D01*
X459160Y557648D02*
Y550150D01*
X462909D01*
X464158Y551400D01*
Y556398D01*
X462909Y557648D01*
X459160D01*
X466658Y550150D02*
X469157D01*
X467907D01*
Y557648D01*
X466658Y556398D01*
X966718Y933806D02*
X965469Y935056D01*
X962969D01*
X961720Y933806D01*
Y928808D01*
X962969Y927558D01*
X965469D01*
X966718Y928808D01*
X969217Y933806D02*
X970467Y935056D01*
X972966D01*
X974216Y933806D01*
Y932557D01*
X972966Y931307D01*
X971717D01*
X972966D01*
X974216Y930058D01*
Y928808D01*
X972966Y927558D01*
X970467D01*
X969217Y928808D01*
X976715Y933806D02*
X977964Y935056D01*
X980464D01*
X981713Y933806D01*
Y928808D01*
X980464Y927558D01*
X977964D01*
X976715Y928808D01*
Y933806D01*
X1966208Y878978D02*
X1964958Y880228D01*
X1962459D01*
X1961210Y878978D01*
Y873980D01*
X1962459Y872730D01*
X1964958D01*
X1966208Y873980D01*
X1973706Y872730D02*
X1968707D01*
X1973706Y877729D01*
Y878978D01*
X1972456Y880228D01*
X1969957D01*
X1968707Y878978D01*
X1976205Y873980D02*
X1977455Y872730D01*
X1979954D01*
X1981203Y873980D01*
Y878978D01*
X1979954Y880228D01*
X1977455D01*
X1976205Y878978D01*
Y877729D01*
X1977455Y876479D01*
X1981203D01*
X1648688Y878978D02*
X1647439Y880228D01*
X1644940D01*
X1643690Y878978D01*
Y873980D01*
X1644940Y872730D01*
X1647439D01*
X1648688Y873980D01*
X1656186Y872730D02*
X1651188D01*
X1656186Y877728D01*
Y878978D01*
X1654936Y880228D01*
X1652437D01*
X1651188Y878978D01*
X1658685D02*
X1659935Y880228D01*
X1662434D01*
X1663684Y878978D01*
Y877728D01*
X1662434Y876479D01*
X1663684Y875229D01*
Y873980D01*
X1662434Y872730D01*
X1659935D01*
X1658685Y873980D01*
Y875229D01*
X1659935Y876479D01*
X1658685Y877728D01*
Y878978D01*
X1659935Y876479D02*
X1662434D01*
X1326868Y877708D02*
X1325619Y878958D01*
X1323120D01*
X1321870Y877708D01*
Y872710D01*
X1323120Y871460D01*
X1325619D01*
X1326868Y872710D01*
X1334366Y871460D02*
X1329368D01*
X1334366Y876458D01*
Y877708D01*
X1333116Y878958D01*
X1330617D01*
X1329368Y877708D01*
X1336865Y878958D02*
X1341864D01*
Y877708D01*
X1336865Y872710D01*
Y871460D01*
X1935728Y878978D02*
X1934478Y880228D01*
X1931979D01*
X1930730Y878978D01*
Y873980D01*
X1931979Y872730D01*
X1934478D01*
X1935728Y873980D01*
X1943226Y872730D02*
X1938227D01*
X1943226Y877729D01*
Y878978D01*
X1941976Y880228D01*
X1939477D01*
X1938227Y878978D01*
X1950723Y880228D02*
X1948224Y878978D01*
X1945725Y876479D01*
Y873980D01*
X1946974Y872730D01*
X1949474D01*
X1950723Y873980D01*
Y875229D01*
X1949474Y876479D01*
X1945725D01*
X1616938Y878978D02*
X1615689Y880228D01*
X1613190D01*
X1611940Y878978D01*
Y873980D01*
X1613190Y872730D01*
X1615689D01*
X1616938Y873980D01*
X1624436Y872730D02*
X1619438D01*
X1624436Y877728D01*
Y878978D01*
X1623186Y880228D01*
X1620687D01*
X1619438Y878978D01*
X1631934Y880228D02*
X1626935D01*
Y876479D01*
X1629434Y877728D01*
X1630684D01*
X1631934Y876479D01*
Y873980D01*
X1630684Y872730D01*
X1628185D01*
X1626935Y873980D01*
X1295118Y877708D02*
X1293869Y878958D01*
X1291370D01*
X1290120Y877708D01*
Y872710D01*
X1291370Y871460D01*
X1293869D01*
X1295118Y872710D01*
X1302616Y871460D02*
X1297618D01*
X1302616Y876458D01*
Y877708D01*
X1301366Y878958D01*
X1298867D01*
X1297618Y877708D01*
X1308864Y871460D02*
Y878958D01*
X1305115Y875209D01*
X1310114D01*
X753902Y346868D02*
X752652Y345619D01*
Y343120D01*
X753902Y341870D01*
X758900D01*
X760150Y343120D01*
Y345619D01*
X758900Y346868D01*
X760150Y354366D02*
Y349368D01*
X755152Y354366D01*
X753902D01*
X752652Y353116D01*
Y350617D01*
X753902Y349368D01*
Y356865D02*
X752652Y358115D01*
Y360614D01*
X753902Y361864D01*
X755152D01*
X756401Y360614D01*
Y359364D01*
Y360614D01*
X757651Y361864D01*
X758900D01*
X760150Y360614D01*
Y358115D01*
X758900Y356865D01*
X772768Y348118D02*
X771519Y349368D01*
X769020D01*
X767770Y348118D01*
Y343120D01*
X769020Y341870D01*
X771519D01*
X772768Y343120D01*
X780266Y341870D02*
X775268D01*
X780266Y346868D01*
Y348118D01*
X779016Y349368D01*
X776517D01*
X775268Y348118D01*
X787764Y341870D02*
X782765D01*
X787764Y346868D01*
Y348118D01*
X786514Y349368D01*
X784015D01*
X782765Y348118D01*
X833912Y362108D02*
X832662Y360859D01*
Y358360D01*
X833912Y357110D01*
X838910D01*
X840160Y358360D01*
Y360859D01*
X838910Y362108D01*
X840160Y369606D02*
Y364608D01*
X835162Y369606D01*
X833912D01*
X832662Y368356D01*
Y365857D01*
X833912Y364608D01*
Y372105D02*
X832662Y373355D01*
Y375854D01*
X833912Y377104D01*
X838910D01*
X840160Y375854D01*
Y373355D01*
X838910Y372105D01*
X833912D01*
X818672Y362108D02*
X817422Y360859D01*
Y358360D01*
X818672Y357110D01*
X823670D01*
X824920Y358360D01*
Y360859D01*
X823670Y362108D01*
X824920Y364608D02*
Y367107D01*
Y365857D01*
X817422D01*
X818672Y364608D01*
X823670Y370856D02*
X824920Y372105D01*
Y374604D01*
X823670Y375854D01*
X818672D01*
X817422Y374604D01*
Y372105D01*
X818672Y370856D01*
X819922D01*
X821171Y372105D01*
Y375854D01*
X832208Y768976D02*
Y767209D01*
X833975Y765442D01*
X835742D01*
X839276Y768976D01*
Y770744D01*
X837509Y772511D01*
X835742D01*
X834858Y775162D02*
X833091Y776929D01*
X833975Y776045D01*
X828673Y770744D01*
X830440D01*
X826022Y775162D02*
X824255D01*
X822488Y776929D01*
Y778696D01*
X823372Y779580D01*
X825139D01*
X825139Y781347D01*
X826022Y782230D01*
X827790D01*
X829557Y780463D01*
Y778696D01*
X828673Y777812D01*
X826906Y777812D01*
Y776045D01*
X826022Y775162D01*
X826906Y777812D02*
X825139Y779580D01*
X570559Y438697D02*
Y440464D01*
X568792Y442231D01*
X567025D01*
X563490Y438697D01*
Y436930D01*
X565258Y435162D01*
X567025D01*
X567908Y432512D02*
X569676Y430744D01*
X568792Y431628D01*
X574094Y436930D01*
X572326D01*
X577628Y433395D02*
X581162Y429861D01*
X580279Y428977D01*
X573210D01*
X572326Y428094D01*
X910948Y686426D02*
Y684659D01*
X912715Y682892D01*
X914482D01*
X918016Y686426D01*
Y688194D01*
X916249Y689961D01*
X914482D01*
X913598Y692612D02*
X911831Y694379D01*
X912715Y693495D01*
X907413Y688194D01*
X909180D01*
X900344Y695262D02*
X902995Y694379D01*
X906530D01*
X908297Y696146D01*
Y697913D01*
X906530Y699680D01*
X904762D01*
X903879Y698797D01*
X903879Y697030D01*
X906530Y694379D01*
X476608Y389246D02*
Y387479D01*
X478375Y385712D01*
X480142D01*
X483676Y389246D01*
Y391014D01*
X481909Y392781D01*
X480142D01*
X479258Y395432D02*
X477491Y397199D01*
X478375Y396315D01*
X473073Y391014D01*
X474840D01*
X466004Y398082D02*
X469539Y394548D01*
X472190Y397199D01*
X469539Y398082D01*
X468655Y398966D01*
Y400733D01*
X470422Y402500D01*
X472190D01*
X473957Y400733D01*
Y398966D01*
X388868Y460096D02*
X387618Y461346D01*
X385119D01*
X383870Y460096D01*
Y455098D01*
X385119Y453848D01*
X387618D01*
X388868Y455098D01*
X391367Y453848D02*
X393867D01*
X392617D01*
Y461346D01*
X391367Y460096D01*
X401364Y453848D02*
Y461346D01*
X397615Y457597D01*
X402614D01*
X483032Y517267D02*
X481782Y516017D01*
Y513518D01*
X483032Y512268D01*
X488030D01*
X489280Y513518D01*
Y516017D01*
X488030Y517267D01*
X489280Y519766D02*
Y522265D01*
Y521016D01*
X481782D01*
X483032Y519766D01*
Y526014D02*
X481782Y527264D01*
Y529763D01*
X483032Y531012D01*
X484281D01*
X485531Y529763D01*
Y528513D01*
Y529763D01*
X486781Y531012D01*
X488030D01*
X489280Y529763D01*
Y527264D01*
X488030Y526014D01*
X392862Y513457D02*
X391612Y512207D01*
Y509708D01*
X392862Y508458D01*
X397860D01*
X399110Y509708D01*
Y512207D01*
X397860Y513457D01*
X399110Y515956D02*
Y518455D01*
Y517206D01*
X391612D01*
X392862Y515956D01*
X399110Y527202D02*
Y522204D01*
X394111Y527202D01*
X392862D01*
X391612Y525953D01*
Y523454D01*
X392862Y522204D01*
X543366Y663512D02*
X541599D01*
X539832Y661745D01*
Y659978D01*
X543366Y656444D01*
X545134D01*
X546901Y658211D01*
Y659978D01*
X549552Y660862D02*
X551319Y662629D01*
X550435Y661745D01*
X545134Y667047D01*
Y665280D01*
X553970D02*
X555737Y667047D01*
X554853Y666163D01*
X549552Y671465D01*
Y669698D01*
X664016Y777812D02*
X662249D01*
X660482Y776045D01*
Y774278D01*
X664016Y770744D01*
X665784D01*
X667551Y772511D01*
Y774278D01*
X670202Y775162D02*
X671969Y776929D01*
X671085Y776045D01*
X665784Y781347D01*
Y779580D01*
X670202Y783998D02*
Y785765D01*
X671969Y787532D01*
X673736D01*
X677270Y783998D01*
Y782230D01*
X675503Y780463D01*
X673736D01*
X670202Y783998D01*
X937868Y523378D02*
X936619Y524628D01*
X934120D01*
X932870Y523378D01*
Y518380D01*
X934120Y517130D01*
X936619D01*
X937868Y518380D01*
X940368D02*
X941617Y517130D01*
X944116D01*
X945366Y518380D01*
Y523378D01*
X944116Y524628D01*
X941617D01*
X940368Y523378D01*
Y522128D01*
X941617Y520879D01*
X945366D01*
X640438Y470526D02*
Y468759D01*
X642205Y466992D01*
X643972D01*
X647506Y470526D01*
Y472294D01*
X645739Y474061D01*
X643972D01*
X638670Y472294D02*
X636903D01*
X635136Y474061D01*
Y475828D01*
X636020Y476712D01*
X637787D01*
X637787Y478479D01*
X638670Y479362D01*
X640438D01*
X642205Y477595D01*
Y475828D01*
X641321Y474944D01*
X639554Y474944D01*
Y473177D01*
X638670Y472294D01*
X639554Y474944D02*
X637787Y476712D01*
X937868Y538618D02*
X936619Y539868D01*
X934120D01*
X932870Y538618D01*
Y533620D01*
X934120Y532370D01*
X936619D01*
X937868Y533620D01*
X940368Y539868D02*
X945366D01*
Y538618D01*
X940368Y533620D01*
Y532370D01*
X574398Y516246D02*
Y514479D01*
X576165Y512712D01*
X577932D01*
X581466Y516246D01*
Y518014D01*
X579699Y519781D01*
X577932D01*
X568212Y520664D02*
X570863Y519781D01*
X574398D01*
X576165Y521548D01*
Y523315D01*
X574398Y525082D01*
X572630D01*
X571747Y524199D01*
X571747Y522432D01*
X574398Y519781D01*
X849683Y437608D02*
X848433Y438857D01*
X845934D01*
X844685Y437608D01*
Y432609D01*
X845934Y431360D01*
X848433D01*
X849683Y432609D01*
X857181Y438857D02*
X852182D01*
Y435109D01*
X854681Y436358D01*
X855931D01*
X857181Y435109D01*
Y432609D01*
X855931Y431360D01*
X853432D01*
X852182Y432609D01*
X1907458Y436778D02*
X1906209Y438028D01*
X1903710D01*
X1902460Y436778D01*
Y431780D01*
X1903710Y430530D01*
X1906209D01*
X1907458Y431780D01*
X1913706Y430530D02*
Y438028D01*
X1909958Y434279D01*
X1914956D01*
X1748892Y378378D02*
X1747642Y377129D01*
Y374630D01*
X1748892Y373380D01*
X1753890D01*
X1755140Y374630D01*
Y377129D01*
X1753890Y378378D01*
X1748892Y380878D02*
X1747642Y382127D01*
Y384626D01*
X1748892Y385876D01*
X1750142D01*
X1751391Y384626D01*
Y383377D01*
Y384626D01*
X1752641Y385876D01*
X1753890D01*
X1755140Y384626D01*
Y382127D01*
X1753890Y380878D01*
X1867002Y394888D02*
X1865752Y393639D01*
Y391140D01*
X1867002Y389890D01*
X1872000D01*
X1873250Y391140D01*
Y393639D01*
X1872000Y394888D01*
X1873250Y402386D02*
Y397388D01*
X1868252Y402386D01*
X1867002D01*
X1865752Y401136D01*
Y398637D01*
X1867002Y397388D01*
X1691558Y316128D02*
X1690309Y317378D01*
X1687810D01*
X1686560Y316128D01*
Y311130D01*
X1687810Y309880D01*
X1690309D01*
X1691558Y311130D01*
X1694058Y309880D02*
X1696557D01*
X1695307D01*
Y317378D01*
X1694058Y316128D01*
D17*
X1940445Y944170D02*
D03*
X1300445Y595170D02*
D03*
X326445Y329170D02*
D03*
X1620445Y595170D02*
D03*
X1133445Y329170D02*
D03*
X1940445Y595170D02*
D03*
Y329170D02*
D03*
X295275Y677150D02*
D03*
X326445Y944170D02*
D03*
X536445D02*
D03*
X1730445D02*
D03*
M02*
