G04*
G04 #@! TF.GenerationSoftware,Altium Limited,Altium Designer,22.1.2 (22)*
G04*
G04 Layer_Color=16711935*
%FSLAX44Y44*%
%MOMM*%
G71*
G04*
G04 #@! TF.SameCoordinates,4FF52C19-E322-4989-B108-829305E1C033*
G04*
G04*
G04 #@! TF.FilePolarity,Positive*
G04*
G01*
G75*
%ADD95C,0.0127*%
%ADD96C,0.0200*%
D95*
X293110Y783160D02*
G03*
X293110Y783160I-16250J0D01*
G01*
X2116860Y820660D02*
G03*
X2101860Y835660I-15000J0D01*
G01*
X2060860Y870660D02*
G03*
X2095860Y835660I35000J0D01*
G01*
X885840Y947660D02*
G03*
X866244Y931660I0J-20000D01*
G01*
X2101860Y194660D02*
G03*
X2116860Y209660I0J15000D01*
G01*
X253860D02*
G03*
X268860Y194660I15000J0D01*
G01*
X201860Y835660D02*
G03*
X186860Y820660I0J-15000D01*
G01*
X207860Y835660D02*
G03*
X242860Y870660I0J35000D01*
G01*
X257860Y947660D02*
G03*
X242860Y932660I0J-15000D01*
G01*
X1036860Y915660D02*
G03*
X1106860Y915660I35000J0D01*
G01*
X1036860Y937660D02*
G03*
X1026860Y947660I-10000J0D01*
G01*
X1116860D02*
G03*
X1106860Y937660I0J-10000D01*
G01*
X709476Y931660D02*
G03*
X866244Y931660I78384J16000D01*
G01*
X2060860Y932660D02*
G03*
X2045860Y947660I-15000J0D01*
G01*
X709476Y931660D02*
G03*
X689880Y947660I-19596J-4000D01*
G01*
X308110Y518160D02*
G03*
X308110Y518160I-31250J0D01*
G01*
Y783160D02*
G03*
X308110Y783160I-31250J0D01*
G01*
X1510110Y535660D02*
G03*
X1510110Y535660I-31250J0D01*
G01*
X1830110D02*
G03*
X1830110Y535660I-31250J0D01*
G01*
X1116860Y947660D02*
X2045860D01*
X2095860Y835660D02*
X2101860D01*
X253860Y209660D02*
Y437620D01*
X2116860Y209660D02*
Y820660D01*
X242860Y870660D02*
Y932660D01*
X268860Y194660D02*
X2101860D01*
X201860Y835660D02*
X207860D01*
X885840Y947660D02*
X1026860D01*
X257860D02*
X689880D01*
X2060860Y870660D02*
Y932660D01*
X1106860Y915660D02*
Y937660D01*
X1036860Y915660D02*
Y937660D01*
D96*
X2030515Y596257D02*
G03*
X2030515Y596257I-11250J0D01*
G01*
X1909705Y475063D02*
G03*
X1909705Y475063I-11250J0D01*
G01*
X1815110Y535660D02*
G03*
X1815110Y535660I-16250J0D01*
G01*
X1710515Y596257D02*
G03*
X1710515Y596257I-11250J0D01*
G01*
X1589705Y475063D02*
G03*
X1589705Y475063I-11250J0D01*
G01*
X1495110Y535660D02*
G03*
X1495110Y535660I-16250J0D01*
G01*
X1390515Y596257D02*
G03*
X1390515Y596257I-11250J0D01*
G01*
X1269705Y475063D02*
G03*
X1269705Y475063I-11250J0D01*
G01*
X293110Y518160D02*
G03*
X293110Y518160I-16250J0D01*
G01*
X235564Y573019D02*
G03*
X235564Y573019I-11250J0D01*
G01*
X340656Y728301D02*
G03*
X340656Y728301I-11250J0D01*
G01*
X293110Y783160D02*
G03*
X293110Y783160I-16250J0D01*
G01*
X2116860Y820660D02*
G03*
X2101860Y835660I-15000J0D01*
G01*
X709476Y931660D02*
G03*
X689880Y947660I-19596J-4000D01*
G01*
X186860Y499660D02*
G03*
X196860Y489660I10000J0D01*
G01*
X1036860Y937660D02*
G03*
X1026860Y947660I-10000J0D01*
G01*
X1036860Y915660D02*
G03*
X1106860Y915660I35000J0D01*
G01*
X885840Y947660D02*
G03*
X866244Y931660I0J-20000D01*
G01*
X2101860Y194660D02*
G03*
X2116860Y209660I0J15000D01*
G01*
X1116860Y947660D02*
G03*
X1106860Y937660I0J-10000D01*
G01*
X201860Y835660D02*
G03*
X186860Y820660I0J-15000D01*
G01*
X2060860Y932660D02*
G03*
X2045860Y947660I-15000J0D01*
G01*
X253860Y209660D02*
G03*
X268860Y194660I15000J0D01*
G01*
X207860Y835660D02*
G03*
X242860Y870660I0J35000D01*
G01*
X253860Y454660D02*
G03*
X218860Y489660I-35000J0D01*
G01*
X2060860Y870660D02*
G03*
X2095860Y835660I35000J0D01*
G01*
X709476Y931660D02*
G03*
X866244Y931660I78384J16000D01*
G01*
X257860Y947660D02*
G03*
X242860Y932660I0J-15000D01*
G01*
X2060860Y870660D02*
Y932660D01*
X196860Y489660D02*
X218860D01*
X242860Y870660D02*
Y932660D01*
X2095860Y835660D02*
X2101860D01*
X257860Y947660D02*
X689880D01*
X885840D02*
X1026860D01*
X2116860Y209660D02*
Y820660D01*
X1036860Y915660D02*
Y937660D01*
X1106860Y915660D02*
Y937660D01*
X268860Y194660D02*
X2101860D01*
X186860Y499660D02*
Y820660D01*
X253860Y209660D02*
Y454660D01*
X201860Y835660D02*
X207860D01*
X1116860Y947660D02*
X2045860D01*
M02*
