G04*
G04 #@! TF.GenerationSoftware,Altium Limited,Altium Designer,22.1.2 (22)*
G04*
G04 Layer_Color=8388736*
%FSLAX44Y44*%
%MOMM*%
G71*
G04*
G04 #@! TF.SameCoordinates,4FF52C19-E322-4989-B108-829305E1C033*
G04*
G04*
G04 #@! TF.FilePolarity,Negative*
G04*
G01*
G75*
%ADD26R,1.5748X2.6162*%
%ADD48R,6.9032X6.9032*%
%ADD49R,3.2032X1.8032*%
G04:AMPARAMS|DCode=50|XSize=9.2032mm|YSize=2.0032mm|CornerRadius=0.5516mm|HoleSize=0mm|Usage=FLASHONLY|Rotation=90.000|XOffset=0mm|YOffset=0mm|HoleType=Round|Shape=RoundedRectangle|*
%AMROUNDEDRECTD50*
21,1,9.2032,0.9000,0,0,90.0*
21,1,8.1000,2.0032,0,0,90.0*
1,1,1.1032,0.4500,4.0500*
1,1,1.1032,0.4500,-4.0500*
1,1,1.1032,-0.4500,-4.0500*
1,1,1.1032,-0.4500,4.0500*
%
%ADD50ROUNDEDRECTD50*%
%ADD51R,0.5032X1.5032*%
%ADD52R,1.2032X3.0532*%
%ADD53R,1.6032X4.0032*%
%ADD54R,3.2532X2.0032*%
%ADD55R,0.9032X0.6532*%
%ADD56R,1.8032X0.8032*%
%ADD57R,0.7332X1.9732*%
%ADD58R,1.8032X1.6032*%
%ADD59R,0.8032X1.2032*%
%ADD60R,1.3032X0.5532*%
%ADD61R,0.5532X1.3032*%
%ADD62R,4.2032X4.2032*%
G04:AMPARAMS|DCode=63|XSize=1.8032mm|YSize=1.4532mm|CornerRadius=0mm|HoleSize=0mm|Usage=FLASHONLY|Rotation=135.000|XOffset=0mm|YOffset=0mm|HoleType=Round|Shape=Rectangle|*
%AMROTATEDRECTD63*
4,1,4,1.1513,-0.1237,0.1237,-1.1513,-1.1513,0.1237,-0.1237,1.1513,1.1513,-0.1237,0.0*
%
%ADD63ROTATEDRECTD63*%

G04:AMPARAMS|DCode=64|XSize=0.4832mm|YSize=1.6532mm|CornerRadius=0mm|HoleSize=0mm|Usage=FLASHONLY|Rotation=45.000|XOffset=0mm|YOffset=0mm|HoleType=Round|Shape=Rectangle|*
%AMROTATEDRECTD64*
4,1,4,0.4137,-0.7553,-0.7553,0.4137,-0.4137,0.7553,0.7553,-0.4137,0.4137,-0.7553,0.0*
%
%ADD64ROTATEDRECTD64*%

G04:AMPARAMS|DCode=65|XSize=0.4832mm|YSize=1.6532mm|CornerRadius=0mm|HoleSize=0mm|Usage=FLASHONLY|Rotation=135.000|XOffset=0mm|YOffset=0mm|HoleType=Round|Shape=Rectangle|*
%AMROTATEDRECTD65*
4,1,4,0.7553,0.4137,-0.4137,-0.7553,-0.7553,-0.4137,0.4137,0.7553,0.7553,0.4137,0.0*
%
%ADD65ROTATEDRECTD65*%

%ADD66R,0.5032X1.4532*%
%ADD67R,2.2032X3.2032*%
%ADD68P,1.7016X4X180.0*%
%ADD69R,1.7032X0.8032*%
%ADD70R,1.2032X1.1032*%
%ADD71C,1.2032*%
%ADD72R,1.2032X1.2032*%
%ADD73P,1.7016X4X90.0*%
%ADD74R,1.2032X1.2032*%
%ADD75R,1.1032X1.2032*%
%ADD76R,0.8032X1.7032*%
%ADD77O,2.9032X3.8032*%
G04:AMPARAMS|DCode=78|XSize=1.8032mm|YSize=2.3032mm|CornerRadius=0mm|HoleSize=0mm|Usage=FLASHONLY|Rotation=180.000|XOffset=0mm|YOffset=0mm|HoleType=Round|Shape=Octagon|*
%AMOCTAGOND78*
4,1,8,0.4508,-1.1516,-0.4508,-1.1516,-0.9016,-0.7008,-0.9016,0.7008,-0.4508,1.1516,0.4508,1.1516,0.9016,0.7008,0.9016,-0.7008,0.4508,-1.1516,0.0*
%
%ADD78OCTAGOND78*%

D26*
X1711960Y329565D02*
D03*
Y376555D02*
D03*
D48*
X1862970Y347980D02*
D03*
D49*
X1784470Y370840D02*
D03*
Y325120D02*
D03*
D50*
X1700388Y243335D02*
D03*
X1410860D02*
D03*
D51*
X1670360Y286665D02*
D03*
X1660360D02*
D03*
X1650360Y286665D02*
D03*
X1640360D02*
D03*
X1630360Y286665D02*
D03*
X1620360D02*
D03*
X1610360D02*
D03*
X1600360D02*
D03*
X1590360D02*
D03*
X1580360Y286665D02*
D03*
X1570360Y286665D02*
D03*
X1560360D02*
D03*
X1550360Y286665D02*
D03*
X1540360D02*
D03*
X1530360Y286665D02*
D03*
X1520360D02*
D03*
X1510360D02*
D03*
X1500360D02*
D03*
X1490360D02*
D03*
X1480360D02*
D03*
X1470360D02*
D03*
X1460360D02*
D03*
X1450360D02*
D03*
X1440360Y286665D02*
D03*
D52*
X534830Y281875D02*
D03*
X554830D02*
D03*
X1341860D02*
D03*
X1361860D02*
D03*
X1748950D02*
D03*
X1768950D02*
D03*
X987360D02*
D03*
X967360D02*
D03*
D53*
X512330Y218125D02*
D03*
X577330D02*
D03*
X1319360D02*
D03*
X1384360D02*
D03*
X1726450D02*
D03*
X1791450D02*
D03*
X1009860D02*
D03*
X944860D02*
D03*
D54*
X1837290Y420370D02*
D03*
X1787290D02*
D03*
D55*
X407930Y490678D02*
D03*
X430930D02*
D03*
X449910Y554178D02*
D03*
X426910D02*
D03*
D56*
X1977360Y937660D02*
D03*
X1977360Y927660D02*
D03*
X1977360Y917660D02*
D03*
X1940360Y937660D02*
D03*
X1940360Y927660D02*
D03*
X1940360Y917660D02*
D03*
X1337360Y588660D02*
D03*
X1337360Y578660D02*
D03*
X1337360Y568660D02*
D03*
X1300360Y588660D02*
D03*
X1300360Y578660D02*
D03*
X1300360Y568660D02*
D03*
X326360Y302660D02*
D03*
X326360Y312660D02*
D03*
X326360Y322660D02*
D03*
X363360Y302660D02*
D03*
X363360Y312660D02*
D03*
X363360Y322660D02*
D03*
X1657360Y588660D02*
D03*
X1657360Y578660D02*
D03*
X1657360Y568660D02*
D03*
X1620360Y588660D02*
D03*
X1620360Y578660D02*
D03*
X1620360Y568660D02*
D03*
X1133360Y302660D02*
D03*
X1133360Y312660D02*
D03*
X1133360Y322660D02*
D03*
X1170360Y302660D02*
D03*
X1170360Y312660D02*
D03*
X1170360Y322660D02*
D03*
X1977360Y588660D02*
D03*
X1977360Y578660D02*
D03*
X1977360Y568660D02*
D03*
X1940360Y588660D02*
D03*
X1940360Y578660D02*
D03*
X1940360Y568660D02*
D03*
Y302660D02*
D03*
X1940360Y312660D02*
D03*
X1940360Y322660D02*
D03*
X1977360Y302660D02*
D03*
X1977360Y312660D02*
D03*
X1977360Y322660D02*
D03*
X258360Y683660D02*
D03*
X258360Y693660D02*
D03*
X258360Y703660D02*
D03*
X295360Y683660D02*
D03*
X295360Y693660D02*
D03*
X295360Y703660D02*
D03*
X326360Y917660D02*
D03*
X326360Y927660D02*
D03*
X326360Y937660D02*
D03*
X363360Y917660D02*
D03*
X363360Y927660D02*
D03*
X363360Y937660D02*
D03*
X573360D02*
D03*
X573360Y927660D02*
D03*
X573360Y917660D02*
D03*
X536360Y937660D02*
D03*
X536360Y927660D02*
D03*
X536360Y917660D02*
D03*
X1730360D02*
D03*
X1730360Y927660D02*
D03*
X1730360Y937660D02*
D03*
X1767360Y917660D02*
D03*
X1767360Y927660D02*
D03*
X1767360Y937660D02*
D03*
D57*
X1958860Y927660D02*
D03*
X1318860Y578660D02*
D03*
X344860Y312660D02*
D03*
X1638860Y578660D02*
D03*
X1151860Y312660D02*
D03*
X1958860Y578660D02*
D03*
Y312660D02*
D03*
X276860Y693660D02*
D03*
X344860Y927660D02*
D03*
X554860D02*
D03*
X1748860D02*
D03*
D58*
X240860Y665660D02*
D03*
X312860D02*
D03*
Y635660D02*
D03*
X240860D02*
D03*
X1994860Y520660D02*
D03*
X1922860D02*
D03*
Y550660D02*
D03*
X1994860D02*
D03*
X1674860Y520660D02*
D03*
X1602860D02*
D03*
Y550660D02*
D03*
X1674860D02*
D03*
X1354860Y520660D02*
D03*
X1282860D02*
D03*
Y550660D02*
D03*
X1354860D02*
D03*
D59*
X431521Y532888D02*
D03*
X450521D02*
D03*
Y506888D02*
D03*
X441021D02*
D03*
X431521D02*
D03*
D60*
X921790Y894988D02*
D03*
Y888488D02*
D03*
Y881988D02*
D03*
Y875488D02*
D03*
Y868988D02*
D03*
Y862488D02*
D03*
Y855988D02*
D03*
X978790D02*
D03*
Y862488D02*
D03*
Y868988D02*
D03*
Y875488D02*
D03*
Y881988D02*
D03*
Y888488D02*
D03*
Y894988D02*
D03*
D61*
X930790Y846988D02*
D03*
X937290D02*
D03*
X943790D02*
D03*
X950290D02*
D03*
X956790D02*
D03*
X963290D02*
D03*
X969790D02*
D03*
Y903988D02*
D03*
X963290D02*
D03*
X956790D02*
D03*
X950290D02*
D03*
X943790D02*
D03*
X937290D02*
D03*
X930790D02*
D03*
D62*
X950290Y875488D02*
D03*
D63*
X499260Y423373D02*
D03*
X525423Y397210D02*
D03*
X540980Y412767D02*
D03*
X514817Y438930D02*
D03*
D64*
X594501Y618725D02*
D03*
X598036Y622261D02*
D03*
X601572Y625796D02*
D03*
X605108Y629332D02*
D03*
X608643Y632868D02*
D03*
X612179Y636403D02*
D03*
X615714Y639939D02*
D03*
X619250Y643474D02*
D03*
X622785Y647010D02*
D03*
X626321Y650545D02*
D03*
X629856Y654081D02*
D03*
X633392Y657616D02*
D03*
X636927Y661152D02*
D03*
X640463Y664687D02*
D03*
X643998Y668223D02*
D03*
X647534Y671758D02*
D03*
X651069Y675294D02*
D03*
X654605Y678829D02*
D03*
X658140Y682365D02*
D03*
X661676Y685900D02*
D03*
X665212Y689436D02*
D03*
X668747Y692972D02*
D03*
X672283Y696507D02*
D03*
X675818Y700043D02*
D03*
X679354Y703578D02*
D03*
X682889Y707114D02*
D03*
X686425Y710649D02*
D03*
X689960Y714185D02*
D03*
X693496Y717720D02*
D03*
X697031Y721256D02*
D03*
X700567Y724791D02*
D03*
X704102Y728327D02*
D03*
X707638Y731862D02*
D03*
X711174Y735398D02*
D03*
X714709Y738933D02*
D03*
X718245Y742469D02*
D03*
X869919Y590795D02*
D03*
X866384Y587259D02*
D03*
X862848Y583724D02*
D03*
X859312Y580188D02*
D03*
X855777Y576652D02*
D03*
X852241Y573117D02*
D03*
X848706Y569581D02*
D03*
X845170Y566046D02*
D03*
X841635Y562510D02*
D03*
X838099Y558975D02*
D03*
X834564Y555439D02*
D03*
X831028Y551904D02*
D03*
X827493Y548368D02*
D03*
X823957Y544833D02*
D03*
X820422Y541297D02*
D03*
X816886Y537762D02*
D03*
X813351Y534226D02*
D03*
X809815Y530691D02*
D03*
X806279Y527155D02*
D03*
X802744Y523619D02*
D03*
X799208Y520084D02*
D03*
X795673Y516548D02*
D03*
X792137Y513013D02*
D03*
X788602Y509477D02*
D03*
X785066Y505942D02*
D03*
X781531Y502406D02*
D03*
X777995Y498871D02*
D03*
X774460Y495335D02*
D03*
X770924Y491800D02*
D03*
X767389Y488264D02*
D03*
X763853Y484729D02*
D03*
X760318Y481193D02*
D03*
X756782Y477658D02*
D03*
X753246Y474122D02*
D03*
X749711Y470587D02*
D03*
X746175Y467051D02*
D03*
D65*
Y742469D02*
D03*
X749711Y738933D02*
D03*
X753246Y735398D02*
D03*
X756782Y731862D02*
D03*
X760318Y728327D02*
D03*
X763853Y724791D02*
D03*
X767389Y721256D02*
D03*
X770924Y717720D02*
D03*
X774460Y714185D02*
D03*
X777995Y710649D02*
D03*
X781531Y707114D02*
D03*
X785066Y703578D02*
D03*
X788602Y700043D02*
D03*
X792137Y696507D02*
D03*
X795673Y692972D02*
D03*
X799208Y689436D02*
D03*
X802744Y685900D02*
D03*
X806279Y682365D02*
D03*
X809815Y678829D02*
D03*
X813351Y675294D02*
D03*
X816886Y671758D02*
D03*
X820422Y668223D02*
D03*
X823957Y664687D02*
D03*
X827493Y661152D02*
D03*
X831028Y657616D02*
D03*
X834564Y654081D02*
D03*
X838099Y650545D02*
D03*
X841635Y647010D02*
D03*
X845170Y643474D02*
D03*
X848706Y639939D02*
D03*
X852241Y636403D02*
D03*
X855777Y632868D02*
D03*
X859312Y629332D02*
D03*
X862848Y625796D02*
D03*
X866384Y622261D02*
D03*
X869919Y618725D02*
D03*
X718245Y467051D02*
D03*
X714709Y470587D02*
D03*
X711174Y474122D02*
D03*
X707638Y477658D02*
D03*
X704102Y481193D02*
D03*
X700567Y484729D02*
D03*
X697031Y488264D02*
D03*
X693496Y491800D02*
D03*
X689960Y495335D02*
D03*
X686425Y498871D02*
D03*
X682889Y502406D02*
D03*
X679354Y505942D02*
D03*
X675818Y509477D02*
D03*
X672283Y513013D02*
D03*
X668747Y516548D02*
D03*
X665212Y520084D02*
D03*
X661676Y523619D02*
D03*
X658140Y527155D02*
D03*
X654605Y530691D02*
D03*
X651069Y534226D02*
D03*
X647534Y537762D02*
D03*
X643998Y541297D02*
D03*
X640463Y544833D02*
D03*
X636927Y548368D02*
D03*
X633392Y551904D02*
D03*
X629856Y555439D02*
D03*
X626321Y558975D02*
D03*
X622785Y562510D02*
D03*
X619250Y566046D02*
D03*
X615714Y569581D02*
D03*
X612179Y573117D02*
D03*
X608643Y576652D02*
D03*
X605108Y580188D02*
D03*
X601572Y583724D02*
D03*
X598036Y587259D02*
D03*
X594501Y590795D02*
D03*
D66*
X859160Y245625D02*
D03*
X854160D02*
D03*
X849160D02*
D03*
X844160D02*
D03*
X839160D02*
D03*
X834160D02*
D03*
X829160D02*
D03*
X824160D02*
D03*
X819160D02*
D03*
X814160D02*
D03*
X809160D02*
D03*
X804160D02*
D03*
X799160D02*
D03*
X794160D02*
D03*
X789160D02*
D03*
X784160D02*
D03*
X779160D02*
D03*
X774160D02*
D03*
X769160D02*
D03*
X764160D02*
D03*
X759160D02*
D03*
X754160D02*
D03*
X749160D02*
D03*
X744160D02*
D03*
X739160D02*
D03*
X734160D02*
D03*
D67*
X718760Y222375D02*
D03*
X874560D02*
D03*
D68*
X613407Y747577D02*
D03*
X602093Y736263D02*
D03*
X624837Y736147D02*
D03*
X613523Y724833D02*
D03*
X574037Y690427D02*
D03*
X562723Y679113D02*
D03*
X654047Y765357D02*
D03*
X642733Y754043D02*
D03*
D69*
X382350Y687310D02*
D03*
X401350Y696810D02*
D03*
X401350Y677810D02*
D03*
X400990Y623418D02*
D03*
Y642418D02*
D03*
X381990Y632918D02*
D03*
X383260Y742138D02*
D03*
X402260Y751638D02*
D03*
Y732638D02*
D03*
D70*
X1780870Y600340D02*
D03*
Y583340D02*
D03*
X494030Y263280D02*
D03*
Y280280D02*
D03*
X1443990Y343290D02*
D03*
Y360290D02*
D03*
X1484630D02*
D03*
Y343290D02*
D03*
X1499870Y360290D02*
D03*
Y343290D02*
D03*
X1515110Y360290D02*
D03*
Y343290D02*
D03*
X1996770Y862180D02*
D03*
Y845180D02*
D03*
X1919300Y862180D02*
D03*
Y845180D02*
D03*
X1677980Y862180D02*
D03*
Y845180D02*
D03*
X1600510Y862180D02*
D03*
Y845180D02*
D03*
X1357430Y862180D02*
D03*
Y845180D02*
D03*
X1279960Y862180D02*
D03*
Y845180D02*
D03*
X2087300Y648720D02*
D03*
Y665720D02*
D03*
X1780870Y623538D02*
D03*
Y640538D02*
D03*
X1460870Y600340D02*
D03*
Y583340D02*
D03*
X1460870Y623538D02*
D03*
Y640538D02*
D03*
X1138250Y590520D02*
D03*
Y607520D02*
D03*
Y559260D02*
D03*
Y542260D02*
D03*
Y497810D02*
D03*
Y514810D02*
D03*
D71*
X1637030Y344170D02*
D03*
D72*
X920550Y504430D02*
D03*
X904550D02*
D03*
X725480Y330440D02*
D03*
X741480D02*
D03*
X787200D02*
D03*
X771200D02*
D03*
X949400Y931368D02*
D03*
X933400D02*
D03*
X1893190Y420370D02*
D03*
X1909190D02*
D03*
X428700Y457658D02*
D03*
X412700D02*
D03*
X904550Y536180D02*
D03*
X920550D02*
D03*
X816030Y435850D02*
D03*
X832030D02*
D03*
X904550Y519670D02*
D03*
X920550D02*
D03*
X1981910Y846060D02*
D03*
X1965910D02*
D03*
X1934160D02*
D03*
X1950160D02*
D03*
X1663120Y846060D02*
D03*
X1647120D02*
D03*
X1615370D02*
D03*
X1631370D02*
D03*
X1342570D02*
D03*
X1326570D02*
D03*
X1294820D02*
D03*
X1310820D02*
D03*
D73*
X588123Y475797D02*
D03*
X599437Y464483D02*
D03*
X495874Y395326D02*
D03*
X484560Y406640D02*
D03*
X555680Y429500D02*
D03*
X566994Y418186D02*
D03*
X905507Y675303D02*
D03*
X894193Y686617D02*
D03*
X618603Y475797D02*
D03*
X629917Y464483D02*
D03*
X822957Y761663D02*
D03*
X811643Y772977D02*
D03*
X588123Y507547D02*
D03*
X599437Y496233D02*
D03*
D74*
X802060Y346440D02*
D03*
Y330440D02*
D03*
X710620Y346060D02*
D03*
Y330060D02*
D03*
X695380Y346060D02*
D03*
Y330060D02*
D03*
X680140Y346060D02*
D03*
Y330060D02*
D03*
X664900Y346060D02*
D03*
Y330060D02*
D03*
X649660Y346060D02*
D03*
Y330060D02*
D03*
X756340Y314440D02*
D03*
Y330440D02*
D03*
X1751472Y345811D02*
D03*
Y361811D02*
D03*
X410540Y528778D02*
D03*
Y512778D02*
D03*
X470230Y532588D02*
D03*
Y516588D02*
D03*
X836350Y346440D02*
D03*
Y330440D02*
D03*
X821110Y346440D02*
D03*
Y330440D02*
D03*
D75*
X1079310Y263130D02*
D03*
X1096310D02*
D03*
X1825870Y302260D02*
D03*
X1808870D02*
D03*
X1784650Y481570D02*
D03*
X1767650D02*
D03*
X1846030Y230328D02*
D03*
X1863030D02*
D03*
X1880320D02*
D03*
X1897320D02*
D03*
X2013280Y312878D02*
D03*
X2030280D02*
D03*
X2013280Y297638D02*
D03*
X2030280D02*
D03*
X2013280Y328118D02*
D03*
X2030280D02*
D03*
X1915880Y230328D02*
D03*
X1932880D02*
D03*
X629140Y935990D02*
D03*
X612140D02*
D03*
X629140Y905510D02*
D03*
X612140D02*
D03*
X629140Y920750D02*
D03*
X612140D02*
D03*
X418320Y935990D02*
D03*
X401320D02*
D03*
X418320Y905510D02*
D03*
X401320D02*
D03*
X418320Y920750D02*
D03*
X401320D02*
D03*
X2028130Y922020D02*
D03*
X2011130D02*
D03*
X411810Y474168D02*
D03*
X428810D02*
D03*
X467300Y457658D02*
D03*
X450300D02*
D03*
X467300Y474168D02*
D03*
X450300D02*
D03*
X446926Y571958D02*
D03*
X429926D02*
D03*
X2011130Y937260D02*
D03*
X2028130D02*
D03*
X2011130Y906780D02*
D03*
X2028130D02*
D03*
X1810470Y935990D02*
D03*
X1827470D02*
D03*
X1810470Y905510D02*
D03*
X1827470D02*
D03*
X1810470Y920750D02*
D03*
X1827470D02*
D03*
X386800Y606248D02*
D03*
X403800Y606248D02*
D03*
X386800Y658318D02*
D03*
X403800D02*
D03*
X388430Y715250D02*
D03*
X405430Y715250D02*
D03*
X195020Y527940D02*
D03*
X212020D02*
D03*
X195020Y543180D02*
D03*
X212020D02*
D03*
X195020Y512700D02*
D03*
X212020D02*
D03*
X350820Y543800D02*
D03*
X333820D02*
D03*
X1982410Y861300D02*
D03*
X1965410D02*
D03*
X1933660D02*
D03*
X1950660D02*
D03*
X1895920Y645400D02*
D03*
X1912920D02*
D03*
X1575920D02*
D03*
X1592920D02*
D03*
X1663620Y861300D02*
D03*
X1646620D02*
D03*
X1614870D02*
D03*
X1631870D02*
D03*
X1343070D02*
D03*
X1326070D02*
D03*
X1294320D02*
D03*
X1311320D02*
D03*
X1255920Y645400D02*
D03*
X1272920D02*
D03*
X2103420Y711658D02*
D03*
X2086420D02*
D03*
X2103420Y681178D02*
D03*
X2086420D02*
D03*
X2103420Y696418D02*
D03*
X2086420D02*
D03*
X1783420Y711658D02*
D03*
X1766420D02*
D03*
X1783420Y681178D02*
D03*
X1766420D02*
D03*
X1783420Y696418D02*
D03*
X1766420D02*
D03*
X1782990Y665720D02*
D03*
X1765990D02*
D03*
X1448000Y481570D02*
D03*
X1465000D02*
D03*
X1463420Y711658D02*
D03*
X1446420D02*
D03*
X1463420Y681178D02*
D03*
X1446420D02*
D03*
X1463420Y696418D02*
D03*
X1446420D02*
D03*
X1463420Y665720D02*
D03*
X1446420D02*
D03*
X412300Y328118D02*
D03*
X395300D02*
D03*
X412300Y297638D02*
D03*
X395300D02*
D03*
X412300Y312878D02*
D03*
X395300D02*
D03*
X393640Y230328D02*
D03*
X376640D02*
D03*
X358080D02*
D03*
X341080D02*
D03*
X322520D02*
D03*
X305520D02*
D03*
X1223830Y327900D02*
D03*
X1206830D02*
D03*
X1223830Y297420D02*
D03*
X1206830D02*
D03*
X1223830Y312660D02*
D03*
X1206830D02*
D03*
X1225030Y230328D02*
D03*
X1208030D02*
D03*
X1189470D02*
D03*
X1172470D02*
D03*
X1153910D02*
D03*
X1136910D02*
D03*
D76*
X1845030Y247498D02*
D03*
X1864030D02*
D03*
X1854530Y266498D02*
D03*
X1879930Y247498D02*
D03*
X1898930D02*
D03*
X1889430Y266498D02*
D03*
X1914880Y247498D02*
D03*
X1933880D02*
D03*
X1924380Y266498D02*
D03*
X1416050Y361290D02*
D03*
X1425550Y342290D02*
D03*
X1406550D02*
D03*
X1811020Y490830D02*
D03*
X1820520Y471830D02*
D03*
X1801520D02*
D03*
X1811350Y620000D02*
D03*
X1820850Y601000D02*
D03*
X1801850D02*
D03*
X1811350Y658928D02*
D03*
X1820850Y639928D02*
D03*
X1801850D02*
D03*
X1491350Y483668D02*
D03*
X1500850Y464668D02*
D03*
X1481850D02*
D03*
X1491350Y620000D02*
D03*
X1500850Y601000D02*
D03*
X1481850D02*
D03*
X1491350Y658928D02*
D03*
X1500850Y639928D02*
D03*
X1481850D02*
D03*
X1168730Y533200D02*
D03*
X1178230Y514200D02*
D03*
X1159230D02*
D03*
X1168730Y578920D02*
D03*
X1178230Y559920D02*
D03*
X1159230D02*
D03*
X1168730Y625910D02*
D03*
X1178230Y606910D02*
D03*
X1159230D02*
D03*
X920750Y314350D02*
D03*
X911250Y333350D02*
D03*
X930250D02*
D03*
X385140Y266498D02*
D03*
X394640Y247498D02*
D03*
X375640D02*
D03*
X349580Y266498D02*
D03*
X359080Y247498D02*
D03*
X340080D02*
D03*
X314020Y266498D02*
D03*
X323520Y247498D02*
D03*
X304520D02*
D03*
X1215870Y266498D02*
D03*
X1225370Y247498D02*
D03*
X1206370D02*
D03*
X1180310Y266498D02*
D03*
X1189810Y247498D02*
D03*
X1170810D02*
D03*
X1145410Y266498D02*
D03*
X1154910Y247498D02*
D03*
X1135910D02*
D03*
D77*
X1901860Y735660D02*
D03*
X2015860D02*
D03*
X1581860D02*
D03*
X1695860D02*
D03*
X1261860D02*
D03*
X1375860D02*
D03*
D78*
X1933860Y665660D02*
D03*
X1983860D02*
D03*
X1933860Y810660D02*
D03*
X1958860D02*
D03*
X1983860D02*
D03*
X1613860Y665660D02*
D03*
X1663860D02*
D03*
X1613860Y810660D02*
D03*
X1638860D02*
D03*
X1663860D02*
D03*
X1293860Y665660D02*
D03*
X1343860D02*
D03*
X1293860Y810660D02*
D03*
X1318860D02*
D03*
X1343860D02*
D03*
M02*
