M48
; DRILL file {KiCad (5.1.5)-3} date 7/7/2020 9:01:06 PM
; FORMAT={-:-/ absolute / metric / decimal}
; #@! TF.CreationDate,2020-07-07T21:01:06+05:00
; #@! TF.GenerationSoftware,Kicad,Pcbnew,(5.1.5)-3
FMAT,2
METRIC
T1C0.400
T2C0.600
T3C0.920
T4C0.960
T5C1.000
T6C1.016
T7C1.350
T8C1.500
T9C2.330
T10C3.200
T11C3.500
T12C1.700
T13C3.200
%
G90
G05
T1
X60.579Y-92.71
X60.579Y-97.79
X60.579Y-102.87
X60.579Y-109.22
X60.579Y-114.3
X60.706Y-82.55
X60.706Y-87.63
X60.833Y-77.47
X60.96Y-72.771
X66.167Y-76.962
X68.7Y-99.1
X69.0Y-95.5
X70.5Y-97.9
X70.9Y-96.6
X73.3Y-112.7
X74.3Y-112.9
X75.25Y-100.5
X75.25Y-102.0
X76.0Y-101.25
X76.589Y-102.975
X79.502Y-84.074
X79.629Y-76.454
X81.4Y-122.4
X81.4Y-129.166
X82.2Y-105.1
X84.4Y-105.9
X85.5Y-111.6
X85.75Y-130.5
X86.5Y-132.5
X86.7Y-107.5
X88.0Y-106.7
X89.2Y-108.8
X90.3Y-128.05
X91.5Y-127.75
X96.3Y-133.5
X96.425Y-131.725
X96.8Y-132.7
X96.901Y-113.665
X97.0Y-131.0
X98.7Y-73.8
X102.3Y-123.4
X103.5Y-122.5
X104.7Y-123.3
X105.9Y-122.9
X107.6Y-85.3
X108.1Y-84.0
X109.1Y-86.5
X109.3Y-84.3
X113.25Y-78.0
X113.5Y-106.5
X113.5Y-107.5
X113.85Y-71.4
X113.919Y-132.842
X114.6Y-99.7
X115.316Y-112.522
X115.6Y-99.0
X115.697Y-107.696
X116.2Y-119.0
X116.25Y-105.5
X116.713Y-106.934
X117.2Y-119.6
X117.25Y-105.5
X117.856Y-95.123
X118.11Y-123.698
X118.237Y-67.437
X118.3Y-120.8
X119.3Y-120.1
X121.793Y-112.141
X123.601Y-62.615
X123.75Y-101.25
X123.75Y-126.0
X123.775Y-102.975
X124.544Y-131.742
X124.75Y-102.25
X125.0Y-100.75
X125.984Y-126.365
X126.13Y-69.355
X126.3Y-114.3
X126.3Y-115.9
X126.365Y-124.333
X126.9Y-113.5
X126.9Y-115.1
X127.762Y-125.984
X127.9Y-117.0
X128.5Y-131.3
X128.6Y-116.2
X128.7Y-118.6
X128.72Y-64.21
X128.767Y-66.05
X129.39Y-61.33
X129.5Y-117.8
X129.6Y-131.8
X131.25Y-98.25
X131.873Y-61.154
X131.953Y-126.111
X132.25Y-98.25
X133.25Y-98.25
X133.7Y-110.2
X134.2Y-111.1
X134.25Y-121.0
X135.25Y-121.0
X136.25Y-121.0
X136.398Y-97.409
X138.049Y-101.6
X143.256Y-101.473
X146.9Y-77.02
X146.951Y-73.972
X147.002Y-79.712
X151.638Y-103.378
X158.199Y-108.42
X160.274Y-112.268
X160.85Y-84.12
X161.544Y-113.538
X170.583Y-85.367
X177.525Y-67.675
X200.7Y-78.1
X202.438Y-110.49
X202.438Y-113.12
X204.37Y-105.28
X207.1Y-89.55
X207.8Y-87.8
X210.01Y-64.59
X219.399Y-94.215
X220.218Y-92.202
X221.3Y-98.8
X221.5Y-93.1
X222.253Y-93.875
X224.7Y-73.9
X227.4Y-100.575
X227.8Y-102.025
X229.0Y-97.325
X230.0Y-96.985
X230.25Y-98.435
X230.607Y-96.191
X231.14Y-93.726
X235.07Y-87.43
X239.4Y-81.56
X244.9Y-82.9
X245.1Y-75.5
T2
X96.62Y-65.49
X98.058Y-65.443
X99.55Y-65.45
X100.95Y-65.35
X113.95Y-79.3
X114.55Y-70.35
X116.55Y-76.55
X121.397Y-66.547
X122.688Y-69.902
X123.237Y-66.864
X124.035Y-70.283
X124.96Y-71.36
X129.986Y-66.926
X134.49Y-60.575
X137.62Y-60.76
X138.63Y-70.02
X147.226Y-102.045
X147.287Y-100.622
X147.3Y-99.15
X147.33Y-97.655
X147.35Y-88.55
X148.187Y-96.547
X148.957Y-95.378
X150.56Y-95.16
X151.4Y-111.98
X153.76Y-88.53
X158.4Y-73.598
X163.45Y-77.02
X164.43Y-99.73
X164.64Y-96.26
X165.7Y-105.3
X167.5Y-109.296
X168.4Y-66.75
X168.65Y-73.75
X171.63Y-100.14
X173.32Y-56.65
X175.0Y-75.6
X181.99Y-90.37
X182.127Y-66.757
X182.57Y-84.67
X183.1Y-94.05
X183.25Y-96.1
X185.8Y-77.08
X187.5Y-102.0
X187.77Y-63.27
X188.2Y-59.65
X190.36Y-131.17
X190.38Y-132.65
X191.2Y-65.35
X191.99Y-85.39
X192.75Y-103.425
X192.8Y-87.55
X193.775Y-75.0
X193.9Y-96.3
X194.47Y-82.33
X197.925Y-74.725
X198.0Y-93.55
X198.9Y-87.35
X199.72Y-69.35
X199.95Y-67.35
X202.7Y-99.122
X204.75Y-76.35
X208.246Y-88.914
X209.862Y-99.95
X211.518Y-98.77
X211.602Y-97.372
X218.411Y-93.51
X218.647Y-96.756
X218.67Y-110.68
X225.05Y-98.35
X227.76Y-118.86
X233.6Y-92.35
X236.0Y-112.65
X246.05Y-98.55
T3
X136.6Y-51.56
X136.6Y-53.56
X139.1Y-51.56
X139.1Y-53.56
X125.26Y-53.38
X125.26Y-55.38
X125.26Y-57.38
X125.26Y-59.38
T4
X167.36Y-54.94
X168.63Y-52.4
X169.9Y-54.94
X171.17Y-52.4
X172.44Y-54.94
X173.71Y-52.4
X174.98Y-54.94
X176.25Y-52.4
T5
X122.4Y-74.35
X127.4Y-74.35
X133.25Y-74.35
X138.25Y-74.35
X133.25Y-85.1
X138.25Y-85.1
X122.4Y-85.15
X127.4Y-85.15
X196.04Y-133.09
X198.58Y-133.09
X201.12Y-133.09
T6
X185.51Y-122.35
X185.51Y-124.89
X188.05Y-122.35
X188.05Y-124.89
X190.59Y-122.35
X190.59Y-124.89
X193.13Y-122.35
X193.13Y-124.89
X195.67Y-122.35
X195.67Y-124.89
X198.21Y-122.35
X198.21Y-124.89
X200.75Y-122.35
X200.75Y-124.89
X203.29Y-122.35
X203.29Y-124.89
X205.83Y-122.35
X205.83Y-124.89
X208.37Y-122.35
X208.37Y-124.89
T7
X122.54Y-52.65
X122.54Y-59.65
X127.98Y-52.65
X127.98Y-59.65
T8
X228.64Y-48.29
X228.64Y-54.64
X228.64Y-60.99
X244.87Y-48.29
X244.87Y-54.64
X244.87Y-60.99
X88.22Y-48.31
X88.22Y-54.66
X88.22Y-61.01
X104.45Y-48.31
X104.45Y-54.66
X104.45Y-61.01
X207.59Y-48.38
X207.59Y-54.73
X207.59Y-61.08
X223.82Y-48.38
X223.82Y-54.73
X223.82Y-61.08
X67.23Y-48.41
X67.23Y-54.76
X67.23Y-61.11
X83.46Y-48.41
X83.46Y-54.76
X83.46Y-61.11
T9
X131.83Y-48.85
X143.87Y-48.85
T10
X147.96Y-45.11
X249.53Y-120.67
T11
X250.28Y-49.67
X61.53Y-49.66
X61.2Y-120.9
T12
X199.02Y-44.44
X199.02Y-51.44
X187.45Y-44.47
X187.45Y-51.47
X112.7Y-44.45
X112.7Y-51.45
T13
X166.09Y-46.05
X177.52Y-46.05
T5
G00X151.55Y-48.15
M15
G01X151.55Y-50.15
M16
G05
G00X157.25Y-46.15
M15
G01X155.25Y-46.15
M16
G05
G00X157.25Y-52.15
M15
G01X155.25Y-52.15
M16
G05
T0
M30
