G04 #@! TF.GenerationSoftware,KiCad,Pcbnew,5.1.7-a382d34a8~87~ubuntu20.04.1*
G04 #@! TF.CreationDate,2020-10-30T10:44:58+01:00*
G04 #@! TF.ProjectId,bottom-board,626f7474-6f6d-42d6-926f-6172642e6b69,rev?*
G04 #@! TF.SameCoordinates,Original*
G04 #@! TF.FileFunction,Legend,Bot*
G04 #@! TF.FilePolarity,Positive*
%FSLAX46Y46*%
G04 Gerber Fmt 4.6, Leading zero omitted, Abs format (unit mm)*
G04 Created by KiCad (PCBNEW 5.1.7-a382d34a8~87~ubuntu20.04.1) date 2020-10-30 10:44:58*
%MOMM*%
%LPD*%
G01*
G04 APERTURE LIST*
%ADD10C,0.300000*%
%ADD11C,0.150000*%
%ADD12C,0.200000*%
%ADD13C,0.120000*%
G04 APERTURE END LIST*
D10*
X244207857Y-110338571D02*
X244207857Y-108838571D01*
X243707857Y-109910000D01*
X243207857Y-108838571D01*
X243207857Y-110338571D01*
X242207857Y-108838571D02*
X241922142Y-108838571D01*
X241779285Y-108910000D01*
X241636428Y-109052857D01*
X241565000Y-109338571D01*
X241565000Y-109838571D01*
X241636428Y-110124285D01*
X241779285Y-110267142D01*
X241922142Y-110338571D01*
X242207857Y-110338571D01*
X242350714Y-110267142D01*
X242493571Y-110124285D01*
X242565000Y-109838571D01*
X242565000Y-109338571D01*
X242493571Y-109052857D01*
X242350714Y-108910000D01*
X242207857Y-108838571D01*
X240922142Y-110338571D02*
X240922142Y-108838571D01*
X240565000Y-108838571D01*
X240350714Y-108910000D01*
X240207857Y-109052857D01*
X240136428Y-109195714D01*
X240065000Y-109481428D01*
X240065000Y-109695714D01*
X240136428Y-109981428D01*
X240207857Y-110124285D01*
X240350714Y-110267142D01*
X240565000Y-110338571D01*
X240922142Y-110338571D01*
X238279285Y-110338571D02*
X238279285Y-108838571D01*
X237922142Y-108838571D01*
X237707857Y-108910000D01*
X237565000Y-109052857D01*
X237493571Y-109195714D01*
X237422142Y-109481428D01*
X237422142Y-109695714D01*
X237493571Y-109981428D01*
X237565000Y-110124285D01*
X237707857Y-110267142D01*
X237922142Y-110338571D01*
X238279285Y-110338571D01*
X236207857Y-110267142D02*
X236350714Y-110338571D01*
X236636428Y-110338571D01*
X236779285Y-110267142D01*
X236850714Y-110124285D01*
X236850714Y-109552857D01*
X236779285Y-109410000D01*
X236636428Y-109338571D01*
X236350714Y-109338571D01*
X236207857Y-109410000D01*
X236136428Y-109552857D01*
X236136428Y-109695714D01*
X236850714Y-109838571D01*
X235636428Y-109338571D02*
X235279285Y-110338571D01*
X234922142Y-109338571D01*
X234350714Y-110338571D02*
X234350714Y-109338571D01*
X234350714Y-108838571D02*
X234422142Y-108910000D01*
X234350714Y-108981428D01*
X234279285Y-108910000D01*
X234350714Y-108838571D01*
X234350714Y-108981428D01*
X232993571Y-110267142D02*
X233136428Y-110338571D01*
X233422142Y-110338571D01*
X233565000Y-110267142D01*
X233636428Y-110195714D01*
X233707857Y-110052857D01*
X233707857Y-109624285D01*
X233636428Y-109481428D01*
X233565000Y-109410000D01*
X233422142Y-109338571D01*
X233136428Y-109338571D01*
X232993571Y-109410000D01*
X231779285Y-110267142D02*
X231922142Y-110338571D01*
X232207857Y-110338571D01*
X232350714Y-110267142D01*
X232422142Y-110124285D01*
X232422142Y-109552857D01*
X232350714Y-109410000D01*
X232207857Y-109338571D01*
X231922142Y-109338571D01*
X231779285Y-109410000D01*
X231707857Y-109552857D01*
X231707857Y-109695714D01*
X232422142Y-109838571D01*
X231136428Y-110267142D02*
X230993571Y-110338571D01*
X230707857Y-110338571D01*
X230565000Y-110267142D01*
X230493571Y-110124285D01*
X230493571Y-110052857D01*
X230565000Y-109910000D01*
X230707857Y-109838571D01*
X230922142Y-109838571D01*
X231065000Y-109767142D01*
X231136428Y-109624285D01*
X231136428Y-109552857D01*
X231065000Y-109410000D01*
X230922142Y-109338571D01*
X230707857Y-109338571D01*
X230565000Y-109410000D01*
X227922142Y-108910000D02*
X228065000Y-108838571D01*
X228279285Y-108838571D01*
X228493571Y-108910000D01*
X228636428Y-109052857D01*
X228707857Y-109195714D01*
X228779285Y-109481428D01*
X228779285Y-109695714D01*
X228707857Y-109981428D01*
X228636428Y-110124285D01*
X228493571Y-110267142D01*
X228279285Y-110338571D01*
X228136428Y-110338571D01*
X227922142Y-110267142D01*
X227850714Y-110195714D01*
X227850714Y-109695714D01*
X228136428Y-109695714D01*
X227207857Y-110338571D02*
X227207857Y-109338571D01*
X227207857Y-109481428D02*
X227136428Y-109410000D01*
X226993571Y-109338571D01*
X226779285Y-109338571D01*
X226636428Y-109410000D01*
X226565000Y-109552857D01*
X226565000Y-110338571D01*
X226565000Y-109552857D02*
X226493571Y-109410000D01*
X226350714Y-109338571D01*
X226136428Y-109338571D01*
X225993571Y-109410000D01*
X225922142Y-109552857D01*
X225922142Y-110338571D01*
X225207857Y-110338571D02*
X225207857Y-108838571D01*
X225207857Y-109410000D02*
X225065000Y-109338571D01*
X224779285Y-109338571D01*
X224636428Y-109410000D01*
X224565000Y-109481428D01*
X224493571Y-109624285D01*
X224493571Y-110052857D01*
X224565000Y-110195714D01*
X224636428Y-110267142D01*
X224779285Y-110338571D01*
X225065000Y-110338571D01*
X225207857Y-110267142D01*
X223850714Y-110338571D02*
X223850714Y-108838571D01*
X223850714Y-109552857D02*
X222993571Y-109552857D01*
X222993571Y-110338571D02*
X222993571Y-108838571D01*
X244207857Y-112888571D02*
X244207857Y-111388571D01*
X243565000Y-112888571D02*
X243565000Y-112102857D01*
X243636428Y-111960000D01*
X243779285Y-111888571D01*
X243993571Y-111888571D01*
X244136428Y-111960000D01*
X244207857Y-112031428D01*
X243065000Y-111888571D02*
X242493571Y-111888571D01*
X242850714Y-111388571D02*
X242850714Y-112674285D01*
X242779285Y-112817142D01*
X242636428Y-112888571D01*
X242493571Y-112888571D01*
X242207857Y-111888571D02*
X241636428Y-111888571D01*
X241993571Y-111388571D02*
X241993571Y-112674285D01*
X241922142Y-112817142D01*
X241779285Y-112888571D01*
X241636428Y-112888571D01*
X241136428Y-111888571D02*
X241136428Y-113388571D01*
X241136428Y-111960000D02*
X240993571Y-111888571D01*
X240707857Y-111888571D01*
X240565000Y-111960000D01*
X240493571Y-112031428D01*
X240422142Y-112174285D01*
X240422142Y-112602857D01*
X240493571Y-112745714D01*
X240565000Y-112817142D01*
X240707857Y-112888571D01*
X240993571Y-112888571D01*
X241136428Y-112817142D01*
X239779285Y-112745714D02*
X239707857Y-112817142D01*
X239779285Y-112888571D01*
X239850714Y-112817142D01*
X239779285Y-112745714D01*
X239779285Y-112888571D01*
X239779285Y-111960000D02*
X239707857Y-112031428D01*
X239779285Y-112102857D01*
X239850714Y-112031428D01*
X239779285Y-111960000D01*
X239779285Y-112102857D01*
X237993571Y-111317142D02*
X239279285Y-113245714D01*
X236422142Y-111317142D02*
X237707857Y-113245714D01*
X235922142Y-112888571D02*
X235922142Y-111888571D01*
X235922142Y-112031428D02*
X235850714Y-111960000D01*
X235707857Y-111888571D01*
X235493571Y-111888571D01*
X235350714Y-111960000D01*
X235279285Y-112102857D01*
X235279285Y-112888571D01*
X235279285Y-112102857D02*
X235207857Y-111960000D01*
X235065000Y-111888571D01*
X234850714Y-111888571D01*
X234707857Y-111960000D01*
X234636428Y-112102857D01*
X234636428Y-112888571D01*
X233707857Y-112888571D02*
X233850714Y-112817142D01*
X233922142Y-112745714D01*
X233993571Y-112602857D01*
X233993571Y-112174285D01*
X233922142Y-112031428D01*
X233850714Y-111960000D01*
X233707857Y-111888571D01*
X233493571Y-111888571D01*
X233350714Y-111960000D01*
X233279285Y-112031428D01*
X233207857Y-112174285D01*
X233207857Y-112602857D01*
X233279285Y-112745714D01*
X233350714Y-112817142D01*
X233493571Y-112888571D01*
X233707857Y-112888571D01*
X231922142Y-112888571D02*
X231922142Y-111388571D01*
X231922142Y-112817142D02*
X232065000Y-112888571D01*
X232350714Y-112888571D01*
X232493571Y-112817142D01*
X232565000Y-112745714D01*
X232636428Y-112602857D01*
X232636428Y-112174285D01*
X232565000Y-112031428D01*
X232493571Y-111960000D01*
X232350714Y-111888571D01*
X232065000Y-111888571D01*
X231922142Y-111960000D01*
X230565000Y-112888571D02*
X230565000Y-111388571D01*
X230565000Y-112817142D02*
X230707857Y-112888571D01*
X230993571Y-112888571D01*
X231136428Y-112817142D01*
X231207857Y-112745714D01*
X231279285Y-112602857D01*
X231279285Y-112174285D01*
X231207857Y-112031428D01*
X231136428Y-111960000D01*
X230993571Y-111888571D01*
X230707857Y-111888571D01*
X230565000Y-111960000D01*
X229279285Y-112817142D02*
X229422142Y-112888571D01*
X229707857Y-112888571D01*
X229850714Y-112817142D01*
X229922142Y-112674285D01*
X229922142Y-112102857D01*
X229850714Y-111960000D01*
X229707857Y-111888571D01*
X229422142Y-111888571D01*
X229279285Y-111960000D01*
X229207857Y-112102857D01*
X229207857Y-112245714D01*
X229922142Y-112388571D01*
X228707857Y-111888571D02*
X228350714Y-112888571D01*
X227993571Y-111888571D01*
X227422142Y-112888571D02*
X227422142Y-111888571D01*
X227422142Y-111388571D02*
X227493571Y-111460000D01*
X227422142Y-111531428D01*
X227350714Y-111460000D01*
X227422142Y-111388571D01*
X227422142Y-111531428D01*
X226065000Y-112817142D02*
X226207857Y-112888571D01*
X226493571Y-112888571D01*
X226636428Y-112817142D01*
X226707857Y-112745714D01*
X226779285Y-112602857D01*
X226779285Y-112174285D01*
X226707857Y-112031428D01*
X226636428Y-111960000D01*
X226493571Y-111888571D01*
X226207857Y-111888571D01*
X226065000Y-111960000D01*
X224850714Y-112817142D02*
X224993571Y-112888571D01*
X225279285Y-112888571D01*
X225422142Y-112817142D01*
X225493571Y-112674285D01*
X225493571Y-112102857D01*
X225422142Y-111960000D01*
X225279285Y-111888571D01*
X224993571Y-111888571D01*
X224850714Y-111960000D01*
X224779285Y-112102857D01*
X224779285Y-112245714D01*
X225493571Y-112388571D01*
X224207857Y-112817142D02*
X224065000Y-112888571D01*
X223779285Y-112888571D01*
X223636428Y-112817142D01*
X223565000Y-112674285D01*
X223565000Y-112602857D01*
X223636428Y-112460000D01*
X223779285Y-112388571D01*
X223993571Y-112388571D01*
X224136428Y-112317142D01*
X224207857Y-112174285D01*
X224207857Y-112102857D01*
X224136428Y-111960000D01*
X223993571Y-111888571D01*
X223779285Y-111888571D01*
X223636428Y-111960000D01*
X222922142Y-112745714D02*
X222850714Y-112817142D01*
X222922142Y-112888571D01*
X222993571Y-112817142D01*
X222922142Y-112745714D01*
X222922142Y-112888571D01*
X221565000Y-112817142D02*
X221707857Y-112888571D01*
X221993571Y-112888571D01*
X222136428Y-112817142D01*
X222207857Y-112745714D01*
X222279285Y-112602857D01*
X222279285Y-112174285D01*
X222207857Y-112031428D01*
X222136428Y-111960000D01*
X221993571Y-111888571D01*
X221707857Y-111888571D01*
X221565000Y-111960000D01*
X220707857Y-112888571D02*
X220850714Y-112817142D01*
X220922142Y-112745714D01*
X220993571Y-112602857D01*
X220993571Y-112174285D01*
X220922142Y-112031428D01*
X220850714Y-111960000D01*
X220707857Y-111888571D01*
X220493571Y-111888571D01*
X220350714Y-111960000D01*
X220279285Y-112031428D01*
X220207857Y-112174285D01*
X220207857Y-112602857D01*
X220279285Y-112745714D01*
X220350714Y-112817142D01*
X220493571Y-112888571D01*
X220707857Y-112888571D01*
X219565000Y-112888571D02*
X219565000Y-111888571D01*
X219565000Y-112031428D02*
X219493571Y-111960000D01*
X219350714Y-111888571D01*
X219136428Y-111888571D01*
X218993571Y-111960000D01*
X218922142Y-112102857D01*
X218922142Y-112888571D01*
X218922142Y-112102857D02*
X218850714Y-111960000D01*
X218707857Y-111888571D01*
X218493571Y-111888571D01*
X218350714Y-111960000D01*
X218279285Y-112102857D01*
X218279285Y-112888571D01*
X243779285Y-118488571D02*
X244136428Y-118488571D01*
X244136428Y-116345714D01*
X243779285Y-116345714D01*
X243207857Y-117988571D02*
X243207857Y-116488571D01*
X242707857Y-117560000D01*
X242207857Y-116488571D01*
X242207857Y-117988571D01*
X241493571Y-117988571D02*
X241493571Y-116488571D01*
X241136428Y-116488571D01*
X240922142Y-116560000D01*
X240779285Y-116702857D01*
X240707857Y-116845714D01*
X240636428Y-117131428D01*
X240636428Y-117345714D01*
X240707857Y-117631428D01*
X240779285Y-117774285D01*
X240922142Y-117917142D01*
X241136428Y-117988571D01*
X241493571Y-117988571D01*
X240136428Y-116488571D02*
X239779285Y-117988571D01*
X239493571Y-116917142D01*
X239207857Y-117988571D01*
X238850714Y-116488571D01*
X238279285Y-117417142D02*
X237136428Y-117417142D01*
X236422142Y-117202857D02*
X235922142Y-117202857D01*
X235707857Y-117988571D02*
X236422142Y-117988571D01*
X236422142Y-116488571D01*
X235707857Y-116488571D01*
X234350714Y-117988571D02*
X235065000Y-117988571D01*
X235065000Y-116488571D01*
X233850714Y-117202857D02*
X233350714Y-117202857D01*
X233136428Y-117988571D02*
X233850714Y-117988571D01*
X233850714Y-116488571D01*
X233136428Y-116488571D01*
X232493571Y-117417142D02*
X231350714Y-117417142D01*
X230350714Y-116488571D02*
X230207857Y-116488571D01*
X230065000Y-116560000D01*
X229993571Y-116631428D01*
X229922142Y-116774285D01*
X229850714Y-117060000D01*
X229850714Y-117417142D01*
X229922142Y-117702857D01*
X229993571Y-117845714D01*
X230065000Y-117917142D01*
X230207857Y-117988571D01*
X230350714Y-117988571D01*
X230493571Y-117917142D01*
X230565000Y-117845714D01*
X230636428Y-117702857D01*
X230707857Y-117417142D01*
X230707857Y-117060000D01*
X230636428Y-116774285D01*
X230565000Y-116631428D01*
X230493571Y-116560000D01*
X230350714Y-116488571D01*
X228922142Y-116488571D02*
X228779285Y-116488571D01*
X228636428Y-116560000D01*
X228565000Y-116631428D01*
X228493571Y-116774285D01*
X228422142Y-117060000D01*
X228422142Y-117417142D01*
X228493571Y-117702857D01*
X228565000Y-117845714D01*
X228636428Y-117917142D01*
X228779285Y-117988571D01*
X228922142Y-117988571D01*
X229065000Y-117917142D01*
X229136428Y-117845714D01*
X229207857Y-117702857D01*
X229279285Y-117417142D01*
X229279285Y-117060000D01*
X229207857Y-116774285D01*
X229136428Y-116631428D01*
X229065000Y-116560000D01*
X228922142Y-116488571D01*
X226993571Y-117988571D02*
X227850714Y-117988571D01*
X227422142Y-117988571D02*
X227422142Y-116488571D01*
X227565000Y-116702857D01*
X227707857Y-116845714D01*
X227850714Y-116917142D01*
X226493571Y-118488571D02*
X226136428Y-118488571D01*
X226136428Y-116345714D01*
X226493571Y-116345714D01*
X244207857Y-120538571D02*
X244207857Y-119038571D01*
X243707857Y-120110000D01*
X243207857Y-119038571D01*
X243207857Y-120538571D01*
X242207857Y-119038571D02*
X241922142Y-119038571D01*
X241779285Y-119110000D01*
X241636428Y-119252857D01*
X241565000Y-119538571D01*
X241565000Y-120038571D01*
X241636428Y-120324285D01*
X241779285Y-120467142D01*
X241922142Y-120538571D01*
X242207857Y-120538571D01*
X242350714Y-120467142D01*
X242493571Y-120324285D01*
X242565000Y-120038571D01*
X242565000Y-119538571D01*
X242493571Y-119252857D01*
X242350714Y-119110000D01*
X242207857Y-119038571D01*
X240922142Y-120538571D02*
X240922142Y-119038571D01*
X240565000Y-119038571D01*
X240350714Y-119110000D01*
X240207857Y-119252857D01*
X240136428Y-119395714D01*
X240065000Y-119681428D01*
X240065000Y-119895714D01*
X240136428Y-120181428D01*
X240207857Y-120324285D01*
X240350714Y-120467142D01*
X240565000Y-120538571D01*
X240922142Y-120538571D01*
X238279285Y-120538571D02*
X238279285Y-119038571D01*
X237922142Y-119038571D01*
X237707857Y-119110000D01*
X237565000Y-119252857D01*
X237493571Y-119395714D01*
X237422142Y-119681428D01*
X237422142Y-119895714D01*
X237493571Y-120181428D01*
X237565000Y-120324285D01*
X237707857Y-120467142D01*
X237922142Y-120538571D01*
X238279285Y-120538571D01*
X236922142Y-119538571D02*
X236636428Y-120538571D01*
X236350714Y-119824285D01*
X236065000Y-120538571D01*
X235779285Y-119538571D01*
X234565000Y-120538571D02*
X234565000Y-119752857D01*
X234636428Y-119610000D01*
X234779285Y-119538571D01*
X235065000Y-119538571D01*
X235207857Y-119610000D01*
X234565000Y-120467142D02*
X234707857Y-120538571D01*
X235065000Y-120538571D01*
X235207857Y-120467142D01*
X235279285Y-120324285D01*
X235279285Y-120181428D01*
X235207857Y-120038571D01*
X235065000Y-119967142D01*
X234707857Y-119967142D01*
X234565000Y-119895714D01*
X233850714Y-120538571D02*
X233850714Y-119538571D01*
X233850714Y-119824285D02*
X233779285Y-119681428D01*
X233707857Y-119610000D01*
X233565000Y-119538571D01*
X233422142Y-119538571D01*
X233136428Y-119538571D02*
X232565000Y-119538571D01*
X232922142Y-120538571D02*
X232922142Y-119252857D01*
X232850714Y-119110000D01*
X232707857Y-119038571D01*
X232565000Y-119038571D01*
X230922142Y-119967142D02*
X229779285Y-119967142D01*
X227922142Y-120538571D02*
X227922142Y-119038571D01*
X227422142Y-120110000D01*
X226922142Y-119038571D01*
X226922142Y-120538571D01*
X225565000Y-120538571D02*
X225565000Y-119752857D01*
X225636428Y-119610000D01*
X225779285Y-119538571D01*
X226065000Y-119538571D01*
X226207857Y-119610000D01*
X225565000Y-120467142D02*
X225707857Y-120538571D01*
X226065000Y-120538571D01*
X226207857Y-120467142D01*
X226279285Y-120324285D01*
X226279285Y-120181428D01*
X226207857Y-120038571D01*
X226065000Y-119967142D01*
X225707857Y-119967142D01*
X225565000Y-119895714D01*
X224850714Y-120538571D02*
X224850714Y-119538571D01*
X224850714Y-119038571D02*
X224922142Y-119110000D01*
X224850714Y-119181428D01*
X224779285Y-119110000D01*
X224850714Y-119038571D01*
X224850714Y-119181428D01*
X224136428Y-119538571D02*
X224136428Y-120538571D01*
X224136428Y-119681428D02*
X224065000Y-119610000D01*
X223922142Y-119538571D01*
X223707857Y-119538571D01*
X223565000Y-119610000D01*
X223493571Y-119752857D01*
X223493571Y-120538571D01*
X221136428Y-119752857D02*
X220922142Y-119824285D01*
X220850714Y-119895714D01*
X220779285Y-120038571D01*
X220779285Y-120252857D01*
X220850714Y-120395714D01*
X220922142Y-120467142D01*
X221065000Y-120538571D01*
X221636428Y-120538571D01*
X221636428Y-119038571D01*
X221136428Y-119038571D01*
X220993571Y-119110000D01*
X220922142Y-119181428D01*
X220850714Y-119324285D01*
X220850714Y-119467142D01*
X220922142Y-119610000D01*
X220993571Y-119681428D01*
X221136428Y-119752857D01*
X221636428Y-119752857D01*
X219922142Y-120538571D02*
X220065000Y-120467142D01*
X220136428Y-120395714D01*
X220207857Y-120252857D01*
X220207857Y-119824285D01*
X220136428Y-119681428D01*
X220065000Y-119610000D01*
X219922142Y-119538571D01*
X219707857Y-119538571D01*
X219565000Y-119610000D01*
X219493571Y-119681428D01*
X219422142Y-119824285D01*
X219422142Y-120252857D01*
X219493571Y-120395714D01*
X219565000Y-120467142D01*
X219707857Y-120538571D01*
X219922142Y-120538571D01*
X218136428Y-120538571D02*
X218136428Y-119752857D01*
X218207857Y-119610000D01*
X218350714Y-119538571D01*
X218636428Y-119538571D01*
X218779285Y-119610000D01*
X218136428Y-120467142D02*
X218279285Y-120538571D01*
X218636428Y-120538571D01*
X218779285Y-120467142D01*
X218850714Y-120324285D01*
X218850714Y-120181428D01*
X218779285Y-120038571D01*
X218636428Y-119967142D01*
X218279285Y-119967142D01*
X218136428Y-119895714D01*
X217422142Y-120538571D02*
X217422142Y-119538571D01*
X217422142Y-119824285D02*
X217350714Y-119681428D01*
X217279285Y-119610000D01*
X217136428Y-119538571D01*
X216993571Y-119538571D01*
X215850714Y-120538571D02*
X215850714Y-119038571D01*
X215850714Y-120467142D02*
X215993571Y-120538571D01*
X216279285Y-120538571D01*
X216422142Y-120467142D01*
X216493571Y-120395714D01*
X216565000Y-120252857D01*
X216565000Y-119824285D01*
X216493571Y-119681428D01*
X216422142Y-119610000D01*
X216279285Y-119538571D01*
X215993571Y-119538571D01*
X215850714Y-119610000D01*
X243350714Y-123088571D02*
X243850714Y-122374285D01*
X244207857Y-123088571D02*
X244207857Y-121588571D01*
X243636428Y-121588571D01*
X243493571Y-121660000D01*
X243422142Y-121731428D01*
X243350714Y-121874285D01*
X243350714Y-122088571D01*
X243422142Y-122231428D01*
X243493571Y-122302857D01*
X243636428Y-122374285D01*
X244207857Y-122374285D01*
X242136428Y-123017142D02*
X242279285Y-123088571D01*
X242565000Y-123088571D01*
X242707857Y-123017142D01*
X242779285Y-122874285D01*
X242779285Y-122302857D01*
X242707857Y-122160000D01*
X242565000Y-122088571D01*
X242279285Y-122088571D01*
X242136428Y-122160000D01*
X242065000Y-122302857D01*
X242065000Y-122445714D01*
X242779285Y-122588571D01*
X241565000Y-122088571D02*
X241207857Y-123088571D01*
X240850714Y-122088571D01*
X240279285Y-122945714D02*
X240207857Y-123017142D01*
X240279285Y-123088571D01*
X240350714Y-123017142D01*
X240279285Y-122945714D01*
X240279285Y-123088571D01*
X239565000Y-122945714D02*
X239493571Y-123017142D01*
X239565000Y-123088571D01*
X239636428Y-123017142D01*
X239565000Y-122945714D01*
X239565000Y-123088571D01*
X239565000Y-122160000D02*
X239493571Y-122231428D01*
X239565000Y-122302857D01*
X239636428Y-122231428D01*
X239565000Y-122160000D01*
X239565000Y-122302857D01*
X237707857Y-123088571D02*
X237707857Y-121588571D01*
X237207857Y-122660000D01*
X236707857Y-121588571D01*
X236707857Y-123088571D01*
X235993571Y-123088571D02*
X235993571Y-121588571D01*
X235636428Y-121588571D01*
X235422142Y-121660000D01*
X235279285Y-121802857D01*
X235207857Y-121945714D01*
X235136428Y-122231428D01*
X235136428Y-122445714D01*
X235207857Y-122731428D01*
X235279285Y-122874285D01*
X235422142Y-123017142D01*
X235636428Y-123088571D01*
X235993571Y-123088571D01*
X234636428Y-121588571D02*
X234279285Y-123088571D01*
X233993571Y-122017142D01*
X233707857Y-123088571D01*
X233350714Y-121588571D01*
X232779285Y-122517142D02*
X231636428Y-122517142D01*
X230922142Y-123088571D02*
X230922142Y-121588571D01*
X230350714Y-121588571D01*
X230207857Y-121660000D01*
X230136428Y-121731428D01*
X230065000Y-121874285D01*
X230065000Y-122088571D01*
X230136428Y-122231428D01*
X230207857Y-122302857D01*
X230350714Y-122374285D01*
X230922142Y-122374285D01*
X229565000Y-121588571D02*
X228565000Y-123088571D01*
X228565000Y-121588571D02*
X229565000Y-123088571D01*
X228136428Y-121588571D02*
X227207857Y-121588571D01*
X227707857Y-122160000D01*
X227493571Y-122160000D01*
X227350714Y-122231428D01*
X227279285Y-122302857D01*
X227207857Y-122445714D01*
X227207857Y-122802857D01*
X227279285Y-122945714D01*
X227350714Y-123017142D01*
X227493571Y-123088571D01*
X227922142Y-123088571D01*
X228065000Y-123017142D01*
X228136428Y-122945714D01*
X226279285Y-121588571D02*
X226136428Y-121588571D01*
X225993571Y-121660000D01*
X225922142Y-121731428D01*
X225850714Y-121874285D01*
X225779285Y-122160000D01*
X225779285Y-122517142D01*
X225850714Y-122802857D01*
X225922142Y-122945714D01*
X225993571Y-123017142D01*
X226136428Y-123088571D01*
X226279285Y-123088571D01*
X226422142Y-123017142D01*
X226493571Y-122945714D01*
X226565000Y-122802857D01*
X226636428Y-122517142D01*
X226636428Y-122160000D01*
X226565000Y-121874285D01*
X226493571Y-121731428D01*
X226422142Y-121660000D01*
X226279285Y-121588571D01*
X225136428Y-122517142D02*
X223993571Y-122517142D01*
X223493571Y-121588571D02*
X222993571Y-123088571D01*
X222493571Y-121588571D01*
X221707857Y-121588571D02*
X221565000Y-121588571D01*
X221422142Y-121660000D01*
X221350714Y-121731428D01*
X221279285Y-121874285D01*
X221207857Y-122160000D01*
X221207857Y-122517142D01*
X221279285Y-122802857D01*
X221350714Y-122945714D01*
X221422142Y-123017142D01*
X221565000Y-123088571D01*
X221707857Y-123088571D01*
X221850714Y-123017142D01*
X221922142Y-122945714D01*
X221993571Y-122802857D01*
X222065000Y-122517142D01*
X222065000Y-122160000D01*
X221993571Y-121874285D01*
X221922142Y-121731428D01*
X221850714Y-121660000D01*
X221707857Y-121588571D01*
X220565000Y-122945714D02*
X220493571Y-123017142D01*
X220565000Y-123088571D01*
X220636428Y-123017142D01*
X220565000Y-122945714D01*
X220565000Y-123088571D01*
X219565000Y-121588571D02*
X219422142Y-121588571D01*
X219279285Y-121660000D01*
X219207857Y-121731428D01*
X219136428Y-121874285D01*
X219065000Y-122160000D01*
X219065000Y-122517142D01*
X219136428Y-122802857D01*
X219207857Y-122945714D01*
X219279285Y-123017142D01*
X219422142Y-123088571D01*
X219565000Y-123088571D01*
X219707857Y-123017142D01*
X219779285Y-122945714D01*
X219850714Y-122802857D01*
X219922142Y-122517142D01*
X219922142Y-122160000D01*
X219850714Y-121874285D01*
X219779285Y-121731428D01*
X219707857Y-121660000D01*
X219565000Y-121588571D01*
X218565000Y-121588571D02*
X217636428Y-121588571D01*
X218136428Y-122160000D01*
X217922142Y-122160000D01*
X217779285Y-122231428D01*
X217707857Y-122302857D01*
X217636428Y-122445714D01*
X217636428Y-122802857D01*
X217707857Y-122945714D01*
X217779285Y-123017142D01*
X217922142Y-123088571D01*
X218350714Y-123088571D01*
X218493571Y-123017142D01*
X218565000Y-122945714D01*
X244207857Y-125638571D02*
X244207857Y-124138571D01*
X243850714Y-124138571D01*
X243636428Y-124210000D01*
X243493571Y-124352857D01*
X243422142Y-124495714D01*
X243350714Y-124781428D01*
X243350714Y-124995714D01*
X243422142Y-125281428D01*
X243493571Y-125424285D01*
X243636428Y-125567142D01*
X243850714Y-125638571D01*
X244207857Y-125638571D01*
X242065000Y-125638571D02*
X242065000Y-124852857D01*
X242136428Y-124710000D01*
X242279285Y-124638571D01*
X242565000Y-124638571D01*
X242707857Y-124710000D01*
X242065000Y-125567142D02*
X242207857Y-125638571D01*
X242565000Y-125638571D01*
X242707857Y-125567142D01*
X242779285Y-125424285D01*
X242779285Y-125281428D01*
X242707857Y-125138571D01*
X242565000Y-125067142D01*
X242207857Y-125067142D01*
X242065000Y-124995714D01*
X241564999Y-124638571D02*
X240993571Y-124638571D01*
X241350714Y-124138571D02*
X241350714Y-125424285D01*
X241279285Y-125567142D01*
X241136428Y-125638571D01*
X240993571Y-125638571D01*
X239922142Y-125567142D02*
X240065000Y-125638571D01*
X240350714Y-125638571D01*
X240493571Y-125567142D01*
X240565000Y-125424285D01*
X240565000Y-124852857D01*
X240493571Y-124710000D01*
X240350714Y-124638571D01*
X240065000Y-124638571D01*
X239922142Y-124710000D01*
X239850714Y-124852857D01*
X239850714Y-124995714D01*
X240565000Y-125138571D01*
X239207857Y-125495714D02*
X239136428Y-125567142D01*
X239207857Y-125638571D01*
X239279285Y-125567142D01*
X239207857Y-125495714D01*
X239207857Y-125638571D01*
X239207857Y-124710000D02*
X239136428Y-124781428D01*
X239207857Y-124852857D01*
X239279285Y-124781428D01*
X239207857Y-124710000D01*
X239207857Y-124852857D01*
X237422142Y-124281428D02*
X237350714Y-124210000D01*
X237207857Y-124138571D01*
X236850714Y-124138571D01*
X236707857Y-124210000D01*
X236636428Y-124281428D01*
X236565000Y-124424285D01*
X236565000Y-124567142D01*
X236636428Y-124781428D01*
X237493571Y-125638571D01*
X236565000Y-125638571D01*
X235636428Y-124138571D02*
X235493571Y-124138571D01*
X235350714Y-124210000D01*
X235279285Y-124281428D01*
X235207857Y-124424285D01*
X235136428Y-124710000D01*
X235136428Y-125067142D01*
X235207857Y-125352857D01*
X235279285Y-125495714D01*
X235350714Y-125567142D01*
X235493571Y-125638571D01*
X235636428Y-125638571D01*
X235779285Y-125567142D01*
X235850714Y-125495714D01*
X235922142Y-125352857D01*
X235993571Y-125067142D01*
X235993571Y-124710000D01*
X235922142Y-124424285D01*
X235850714Y-124281428D01*
X235779285Y-124210000D01*
X235636428Y-124138571D01*
X234564999Y-124281428D02*
X234493571Y-124210000D01*
X234350714Y-124138571D01*
X233993571Y-124138571D01*
X233850714Y-124210000D01*
X233779285Y-124281428D01*
X233707857Y-124424285D01*
X233707857Y-124567142D01*
X233779285Y-124781428D01*
X234636428Y-125638571D01*
X233707857Y-125638571D01*
X232779285Y-124138571D02*
X232636428Y-124138571D01*
X232493571Y-124210000D01*
X232422142Y-124281428D01*
X232350714Y-124424285D01*
X232279285Y-124710000D01*
X232279285Y-125067142D01*
X232350714Y-125352857D01*
X232422142Y-125495714D01*
X232493571Y-125567142D01*
X232636428Y-125638571D01*
X232779285Y-125638571D01*
X232922142Y-125567142D01*
X232993571Y-125495714D01*
X233064999Y-125352857D01*
X233136428Y-125067142D01*
X233136428Y-124710000D01*
X233064999Y-124424285D01*
X232993571Y-124281428D01*
X232922142Y-124210000D01*
X232779285Y-124138571D01*
X231636428Y-125495714D02*
X231564999Y-125567142D01*
X231636428Y-125638571D01*
X231707857Y-125567142D01*
X231636428Y-125495714D01*
X231636428Y-125638571D01*
X230636428Y-124138571D02*
X230493571Y-124138571D01*
X230350714Y-124210000D01*
X230279285Y-124281428D01*
X230207857Y-124424285D01*
X230136428Y-124710000D01*
X230136428Y-125067142D01*
X230207857Y-125352857D01*
X230279285Y-125495714D01*
X230350714Y-125567142D01*
X230493571Y-125638571D01*
X230636428Y-125638571D01*
X230779285Y-125567142D01*
X230850714Y-125495714D01*
X230922142Y-125352857D01*
X230993571Y-125067142D01*
X230993571Y-124710000D01*
X230922142Y-124424285D01*
X230850714Y-124281428D01*
X230779285Y-124210000D01*
X230636428Y-124138571D01*
X229422142Y-125638571D02*
X229136428Y-125638571D01*
X228993571Y-125567142D01*
X228922142Y-125495714D01*
X228779285Y-125281428D01*
X228707857Y-124995714D01*
X228707857Y-124424285D01*
X228779285Y-124281428D01*
X228850714Y-124210000D01*
X228993571Y-124138571D01*
X229279285Y-124138571D01*
X229422142Y-124210000D01*
X229493571Y-124281428D01*
X229564999Y-124424285D01*
X229564999Y-124781428D01*
X229493571Y-124924285D01*
X229422142Y-124995714D01*
X229279285Y-125067142D01*
X228993571Y-125067142D01*
X228850714Y-124995714D01*
X228779285Y-124924285D01*
X228707857Y-124781428D01*
X228064999Y-125495714D02*
X227993571Y-125567142D01*
X228064999Y-125638571D01*
X228136428Y-125567142D01*
X228064999Y-125495714D01*
X228064999Y-125638571D01*
X226564999Y-125638571D02*
X227422142Y-125638571D01*
X226993571Y-125638571D02*
X226993571Y-124138571D01*
X227136428Y-124352857D01*
X227279285Y-124495714D01*
X227422142Y-124567142D01*
X225707857Y-124781428D02*
X225850714Y-124710000D01*
X225922142Y-124638571D01*
X225993571Y-124495714D01*
X225993571Y-124424285D01*
X225922142Y-124281428D01*
X225850714Y-124210000D01*
X225707857Y-124138571D01*
X225422142Y-124138571D01*
X225279285Y-124210000D01*
X225207857Y-124281428D01*
X225136428Y-124424285D01*
X225136428Y-124495714D01*
X225207857Y-124638571D01*
X225279285Y-124710000D01*
X225422142Y-124781428D01*
X225707857Y-124781428D01*
X225850714Y-124852857D01*
X225922142Y-124924285D01*
X225993571Y-125067142D01*
X225993571Y-125352857D01*
X225922142Y-125495714D01*
X225850714Y-125567142D01*
X225707857Y-125638571D01*
X225422142Y-125638571D01*
X225279285Y-125567142D01*
X225207857Y-125495714D01*
X225136428Y-125352857D01*
X225136428Y-125067142D01*
X225207857Y-124924285D01*
X225279285Y-124852857D01*
X225422142Y-124781428D01*
D11*
X105557800Y-115267600D02*
X105557800Y-123760000D01*
D12*
X111485076Y-117037980D02*
X111818409Y-116561790D01*
X112056504Y-117037980D02*
X112056504Y-116037980D01*
X111675552Y-116037980D01*
X111580314Y-116085600D01*
X111532695Y-116133219D01*
X111485076Y-116228457D01*
X111485076Y-116371314D01*
X111532695Y-116466552D01*
X111580314Y-116514171D01*
X111675552Y-116561790D01*
X112056504Y-116561790D01*
X110675552Y-116990361D02*
X110770790Y-117037980D01*
X110961266Y-117037980D01*
X111056504Y-116990361D01*
X111104123Y-116895123D01*
X111104123Y-116514171D01*
X111056504Y-116418933D01*
X110961266Y-116371314D01*
X110770790Y-116371314D01*
X110675552Y-116418933D01*
X110627933Y-116514171D01*
X110627933Y-116609409D01*
X111104123Y-116704647D01*
X109770790Y-116990361D02*
X109866028Y-117037980D01*
X110056504Y-117037980D01*
X110151742Y-116990361D01*
X110199361Y-116942742D01*
X110246980Y-116847504D01*
X110246980Y-116561790D01*
X110199361Y-116466552D01*
X110151742Y-116418933D01*
X110056504Y-116371314D01*
X109866028Y-116371314D01*
X109770790Y-116418933D01*
X109199361Y-117037980D02*
X109294600Y-116990361D01*
X109342219Y-116942742D01*
X109389838Y-116847504D01*
X109389838Y-116561790D01*
X109342219Y-116466552D01*
X109294600Y-116418933D01*
X109199361Y-116371314D01*
X109056504Y-116371314D01*
X108961266Y-116418933D01*
X108913647Y-116466552D01*
X108866028Y-116561790D01*
X108866028Y-116847504D01*
X108913647Y-116942742D01*
X108961266Y-116990361D01*
X109056504Y-117037980D01*
X109199361Y-117037980D01*
X108532695Y-116371314D02*
X108294600Y-117037980D01*
X108056504Y-116371314D01*
X107294600Y-116990361D02*
X107389838Y-117037980D01*
X107580314Y-117037980D01*
X107675552Y-116990361D01*
X107723171Y-116895123D01*
X107723171Y-116514171D01*
X107675552Y-116418933D01*
X107580314Y-116371314D01*
X107389838Y-116371314D01*
X107294600Y-116418933D01*
X107246980Y-116514171D01*
X107246980Y-116609409D01*
X107723171Y-116704647D01*
X106818409Y-117037980D02*
X106818409Y-116371314D01*
X106818409Y-116561790D02*
X106770790Y-116466552D01*
X106723171Y-116418933D01*
X106627933Y-116371314D01*
X106532695Y-116371314D01*
X106294600Y-116371314D02*
X106056504Y-117037980D01*
X105818409Y-116371314D02*
X106056504Y-117037980D01*
X106151742Y-117276076D01*
X106199361Y-117323695D01*
X106294600Y-117371314D01*
D10*
X167630000Y-118836428D02*
X167558571Y-118693571D01*
X167558571Y-118479285D01*
X167630000Y-118265000D01*
X167772857Y-118122142D01*
X167915714Y-118050714D01*
X168201428Y-117979285D01*
X168415714Y-117979285D01*
X168701428Y-118050714D01*
X168844285Y-118122142D01*
X168987142Y-118265000D01*
X169058571Y-118479285D01*
X169058571Y-118622142D01*
X168987142Y-118836428D01*
X168915714Y-118907857D01*
X168415714Y-118907857D01*
X168415714Y-118622142D01*
X169058571Y-119550714D02*
X167558571Y-119550714D01*
X169058571Y-120407857D01*
X167558571Y-120407857D01*
X169058571Y-121122142D02*
X167558571Y-121122142D01*
X167558571Y-121479285D01*
X167630000Y-121693571D01*
X167772857Y-121836428D01*
X167915714Y-121907857D01*
X168201428Y-121979285D01*
X168415714Y-121979285D01*
X168701428Y-121907857D01*
X168844285Y-121836428D01*
X168987142Y-121693571D01*
X169058571Y-121479285D01*
X169058571Y-121122142D01*
X171608571Y-120550714D02*
X170894285Y-120050714D01*
X171608571Y-119693571D02*
X170108571Y-119693571D01*
X170108571Y-120265000D01*
X170180000Y-120407857D01*
X170251428Y-120479285D01*
X170394285Y-120550714D01*
X170608571Y-120550714D01*
X170751428Y-120479285D01*
X170822857Y-120407857D01*
X170894285Y-120265000D01*
X170894285Y-119693571D01*
X170108571Y-121050714D02*
X171608571Y-122050714D01*
X170108571Y-122050714D02*
X171608571Y-121050714D01*
X172658571Y-119836428D02*
X172658571Y-120693571D01*
X174158571Y-120265000D02*
X172658571Y-120265000D01*
X172658571Y-121050714D02*
X174158571Y-122050714D01*
X172658571Y-122050714D02*
X174158571Y-121050714D01*
D11*
X112627800Y-115307600D02*
X112620000Y-123760000D01*
X105557800Y-123760000D02*
X112620000Y-123760000D01*
X112578200Y-115282000D02*
X105517000Y-115282000D01*
D13*
X110095000Y-121860000D02*
G75*
G03*
X110095000Y-121860000I-950000J0D01*
G01*
X110023000Y-118846000D02*
G75*
G03*
X110023000Y-118846000I-950000J0D01*
G01*
X125230000Y-130370000D02*
G75*
G03*
X125230000Y-130370000I-950000J0D01*
G01*
X121250000Y-130350000D02*
G75*
G03*
X121250000Y-130350000I-950000J0D01*
G01*
D11*
X126802380Y-128692380D02*
X126802380Y-127692380D01*
X126421428Y-127692380D01*
X126326190Y-127740000D01*
X126278571Y-127787619D01*
X126230952Y-127882857D01*
X126230952Y-128025714D01*
X126278571Y-128120952D01*
X126326190Y-128168571D01*
X126421428Y-128216190D01*
X126802380Y-128216190D01*
X125659523Y-128692380D02*
X125754761Y-128644761D01*
X125802380Y-128597142D01*
X125850000Y-128501904D01*
X125850000Y-128216190D01*
X125802380Y-128120952D01*
X125754761Y-128073333D01*
X125659523Y-128025714D01*
X125516666Y-128025714D01*
X125421428Y-128073333D01*
X125373809Y-128120952D01*
X125326190Y-128216190D01*
X125326190Y-128501904D01*
X125373809Y-128597142D01*
X125421428Y-128644761D01*
X125516666Y-128692380D01*
X125659523Y-128692380D01*
X124992857Y-128025714D02*
X124802380Y-128692380D01*
X124611904Y-128216190D01*
X124421428Y-128692380D01*
X124230952Y-128025714D01*
X123469047Y-128644761D02*
X123564285Y-128692380D01*
X123754761Y-128692380D01*
X123850000Y-128644761D01*
X123897619Y-128549523D01*
X123897619Y-128168571D01*
X123850000Y-128073333D01*
X123754761Y-128025714D01*
X123564285Y-128025714D01*
X123469047Y-128073333D01*
X123421428Y-128168571D01*
X123421428Y-128263809D01*
X123897619Y-128359047D01*
X122992857Y-128692380D02*
X122992857Y-128025714D01*
X122992857Y-128216190D02*
X122945238Y-128120952D01*
X122897619Y-128073333D01*
X122802380Y-128025714D01*
X122707142Y-128025714D01*
X121850000Y-128692380D02*
X122421428Y-128692380D01*
X122135714Y-128692380D02*
X122135714Y-127692380D01*
X122230952Y-127835238D01*
X122326190Y-127930476D01*
X122421428Y-127978095D01*
X121954285Y-133182380D02*
X122287619Y-132706190D01*
X122525714Y-133182380D02*
X122525714Y-132182380D01*
X122144761Y-132182380D01*
X122049523Y-132230000D01*
X122001904Y-132277619D01*
X121954285Y-132372857D01*
X121954285Y-132515714D01*
X122001904Y-132610952D01*
X122049523Y-132658571D01*
X122144761Y-132706190D01*
X122525714Y-132706190D01*
X121144761Y-133134761D02*
X121240000Y-133182380D01*
X121430476Y-133182380D01*
X121525714Y-133134761D01*
X121573333Y-133039523D01*
X121573333Y-132658571D01*
X121525714Y-132563333D01*
X121430476Y-132515714D01*
X121240000Y-132515714D01*
X121144761Y-132563333D01*
X121097142Y-132658571D01*
X121097142Y-132753809D01*
X121573333Y-132849047D01*
X120716190Y-133134761D02*
X120620952Y-133182380D01*
X120430476Y-133182380D01*
X120335238Y-133134761D01*
X120287619Y-133039523D01*
X120287619Y-132991904D01*
X120335238Y-132896666D01*
X120430476Y-132849047D01*
X120573333Y-132849047D01*
X120668571Y-132801428D01*
X120716190Y-132706190D01*
X120716190Y-132658571D01*
X120668571Y-132563333D01*
X120573333Y-132515714D01*
X120430476Y-132515714D01*
X120335238Y-132563333D01*
X119478095Y-133134761D02*
X119573333Y-133182380D01*
X119763809Y-133182380D01*
X119859047Y-133134761D01*
X119906666Y-133039523D01*
X119906666Y-132658571D01*
X119859047Y-132563333D01*
X119763809Y-132515714D01*
X119573333Y-132515714D01*
X119478095Y-132563333D01*
X119430476Y-132658571D01*
X119430476Y-132753809D01*
X119906666Y-132849047D01*
X119144761Y-132515714D02*
X118763809Y-132515714D01*
X119001904Y-132182380D02*
X119001904Y-133039523D01*
X118954285Y-133134761D01*
X118859047Y-133182380D01*
X118763809Y-133182380D01*
X117906666Y-133182380D02*
X118478095Y-133182380D01*
X118192380Y-133182380D02*
X118192380Y-132182380D01*
X118287619Y-132325238D01*
X118382857Y-132420476D01*
X118478095Y-132468095D01*
M02*
