M48
; DRILL file {KiCad 5.1.4-e60b266~84~ubuntu18.04.1} date Thu 19 Dec 2019 12:39:12 PM CET
; FORMAT={-:-/ absolute / metric / decimal}
; #@! TF.CreationDate,2019-12-19T12:39:12+01:00
; #@! TF.GenerationSoftware,Kicad,Pcbnew,5.1.4-e60b266~84~ubuntu18.04.1
; #@! TF.FileFunction,Plated,1,2,PTH
FMAT,2
METRIC
T1C0.400
T2C0.600
T3C0.920
T4C0.960
T5C1.000
T6C1.016
T7C1.200
T8C1.350
T9C1.500
T10C2.330
T11C3.200
T12C3.500
%
G90
G05
T1
X67.4Y-120.1
X68.43Y-112.031
X71.0Y-120.1
X72.33Y-110.68
X73.066Y-108.33
X73.33Y-110.68
X74.066Y-108.33
X74.313Y-115.575
X74.422Y-111.963
X75.4Y-120.1
X76.7Y-115.476
X77.9Y-115.357
X78.794Y-115.804
X78.938Y-111.608
X79.912Y-115.635
X79.933Y-111.509
X80.366Y-110.49
X81.0Y-120.2
X81.7Y-115.1
X82.4Y-126.2
X82.8Y-129.575
X83.0Y-120.2
X83.261Y-131.064
X83.969Y-118.881
X84.25Y-129.575
X84.6Y-127.225
X84.887Y-119.278
X84.968Y-130.3
X86.39Y-132.2
X86.45Y-123.85
X86.5Y-120.2
X86.7Y-125.7
X87.283Y-132.65
X87.5Y-120.15
X88.408Y-119.492
X91.49Y-115.2
X92.2Y-128.6
X92.405Y-97.282
X92.48Y-120.328
X92.488Y-115.138
X92.598Y-111.688
X92.897Y-124.665
X92.984Y-126.115
X93.229Y-119.666
X93.538Y-112.028
X94.056Y-120.227
X94.072Y-126.84
X94.539Y-112.027
X94.54Y-116.408
X95.26Y-115.17
X95.675Y-108.906
X96.125Y-109.899
X96.148Y-115.834
X96.575Y-110.899
X96.78Y-115.11
X97.279Y-112.027
X97.4Y-82.8
X97.98Y-120.328
X98.506Y-80.979
X98.674Y-82.474
X99.275Y-80.1
X100.2Y-115.1
X103.016Y-120.382
X105.442Y-90.783
X106.149Y-90.076
X106.857Y-89.369
X107.086Y-109.372
X107.151Y-104.738
X107.228Y-112.129
X107.6Y-88.7
X107.948Y-120.329
X113.0Y-120.3
X114.2Y-115.2
X116.8Y-115.2
X117.7Y-120.3
X120.5Y-120.3
X122.5Y-124.45
X123.1Y-66.4
X123.231Y-62.555
X123.709Y-67.497
X124.0Y-120.2
X124.224Y-66.64
X124.692Y-119.132
X125.2Y-115.4
X126.2Y-119.2
X126.4Y-124.35
X126.7Y-115.3
X128.179Y-65.41
X129.2Y-115.4
X129.5Y-120.2
X129.7Y-63.7
X129.8Y-62.6
X130.141Y-61.641
X131.5Y-120.2
X131.7Y-115.4
X133.8Y-90.6
X134.0Y-79.85
X134.347Y-78.878
X134.8Y-90.525
X134.85Y-80.55
X135.782Y-90.716
X137.693Y-57.064
X142.275Y-66.8
X142.306Y-59.685
X144.202Y-102.301
X144.202Y-108.194
X144.354Y-105.451
X144.625Y-66.8
X147.25Y-105.4
X147.301Y-102.352
X147.352Y-108.092
X150.2Y-118.4
X159.025Y-90.525
X159.512Y-68.783
X159.6Y-63.6
X161.2Y-112.5
X167.163Y-83.238
X167.7Y-65.1
X168.191Y-75.341
X173.0Y-56.2
X173.0Y-64.475
X174.768Y-123.418
X177.525Y-67.675
X181.183Y-44.547
X186.6Y-66.8
X187.0Y-59.4
X189.2Y-62.8
X191.935Y-102.802
X200.767Y-66.878
X204.77Y-113.025
X209.911Y-103.088
X211.192Y-91.657
X212.237Y-91.637
X213.3Y-91.6
X214.666Y-97.582
X218.618Y-86.335
X224.673Y-105.212
X225.806Y-72.441
X226.212Y-100.584
X226.301Y-90.678
X228.244Y-69.494
X228.493Y-76.352
X228.519Y-90.246
X231.1Y-92.0
X231.7Y-94.3
X231.8Y-92.9
X233.286Y-86.411
X233.528Y-67.056
X234.569Y-97.409
X237.617Y-73.495
X237.8Y-124.4
X238.011Y-69.507
X241.6Y-124.3
X243.472Y-68.516
T2
X130.048Y-117.754
X150.5Y-92.0
X157.48Y-100.736
X160.426Y-69.85
X160.459Y-90.725
X161.859Y-68.306
X161.859Y-90.725
X163.8Y-105.4
X170.637Y-105.156
T3
X125.265Y-51.576
X125.265Y-53.576
X125.265Y-55.576
X125.265Y-57.576
X135.636Y-50.832
X135.636Y-52.832
X138.136Y-50.832
X138.136Y-52.832
T4
X167.132Y-54.356
X168.402Y-51.816
X169.672Y-54.356
X170.942Y-51.816
X172.212Y-54.356
X173.482Y-51.816
X174.752Y-54.356
X176.022Y-51.816
T5
X76.32Y-132.1
X78.86Y-132.1
X81.4Y-132.1
T6
X175.07Y-119.062
X175.07Y-121.602
X177.609Y-119.062
X177.609Y-121.602
X180.149Y-119.062
X180.149Y-121.602
X182.689Y-119.062
X182.689Y-121.602
X185.23Y-119.062
X185.23Y-121.602
X187.769Y-119.062
X187.769Y-121.602
X190.309Y-119.062
X190.309Y-121.602
X192.849Y-119.062
X192.849Y-121.602
X195.389Y-119.062
X195.389Y-121.602
X197.929Y-119.062
X197.929Y-121.602
T7
X141.2Y-83.1
X146.2Y-83.1
X141.2Y-69.1
X146.2Y-69.1
T8
X122.545Y-50.846
X122.545Y-57.846
X127.985Y-50.846
X127.985Y-57.846
T9
X203.31Y-46.01
X203.31Y-52.36
X203.31Y-58.71
X219.54Y-46.01
X219.54Y-52.36
X219.54Y-58.71
X82.5Y-45.98
X82.5Y-52.33
X82.5Y-58.68
X98.73Y-45.98
X98.73Y-52.33
X98.73Y-58.68
X102.69Y-45.83
X102.69Y-52.18
X102.69Y-58.53
X118.92Y-45.83
X118.92Y-52.18
X118.92Y-58.53
X223.56Y-45.92
X223.56Y-52.27
X223.56Y-58.62
X239.79Y-45.92
X239.79Y-52.27
X239.79Y-58.62
T10
X130.866Y-48.122
X142.906Y-48.122
T11
X133.198Y-72.644
X68.58Y-72.695
T12
X244.856Y-126.238
X147.828Y-44.196
X66.04Y-126.238
X65.786Y-49.276
X244.856Y-49.276
T5
G00X152.78Y-47.562
M15
G01X152.78Y-49.562
M16
G05
G00X158.48Y-45.562
M15
G01X156.48Y-45.562
M16
G05
G00X158.48Y-51.562
M15
G01X156.48Y-51.562
M16
G05
T0
M30
