G04 #@! TF.GenerationSoftware,KiCad,Pcbnew,5.1.4-e60b266~84~ubuntu18.04.1*
G04 #@! TF.CreationDate,2019-12-19T12:39:22+01:00*
G04 #@! TF.ProjectId,bottom-board,626f7474-6f6d-42d6-926f-6172642e6b69,rev?*
G04 #@! TF.SameCoordinates,Original*
G04 #@! TF.FileFunction,Legend,Top*
G04 #@! TF.FilePolarity,Positive*
%FSLAX46Y46*%
G04 Gerber Fmt 4.6, Leading zero omitted, Abs format (unit mm)*
G04 Created by KiCad (PCBNEW 5.1.4-e60b266~84~ubuntu18.04.1) date 2019-12-19 12:39:22*
%MOMM*%
%LPD*%
G04 APERTURE LIST*
%ADD10C,0.150000*%
%ADD11C,0.120000*%
%ADD12C,0.203200*%
%ADD13C,0.100000*%
%ADD14C,0.127000*%
%ADD15C,0.200000*%
%ADD16C,0.050000*%
G04 APERTURE END LIST*
D10*
X251228267Y-91819154D02*
X251228525Y-91628678D01*
X251181034Y-91533376D01*
X251133480Y-91485692D01*
X250990751Y-91390261D01*
X250800340Y-91342385D01*
X250419388Y-91341870D01*
X250324085Y-91389360D01*
X250276402Y-91436915D01*
X250228654Y-91532089D01*
X250228397Y-91722565D01*
X250275887Y-91817867D01*
X250323442Y-91865551D01*
X250418616Y-91913298D01*
X250656711Y-91913620D01*
X250752013Y-91866130D01*
X250799696Y-91818575D01*
X250847444Y-91723401D01*
X250847701Y-91532925D01*
X250800211Y-91437623D01*
X250752656Y-91389940D01*
X250657483Y-91342192D01*
X250229362Y-91008280D02*
X250230199Y-90389233D01*
X250610700Y-90723081D01*
X250610893Y-90580224D01*
X250658641Y-90485050D01*
X250706324Y-90437495D01*
X250801627Y-90390005D01*
X251039722Y-90390327D01*
X251134895Y-90438074D01*
X251182450Y-90485758D01*
X251229940Y-90581060D01*
X251229554Y-90866774D01*
X251181807Y-90961948D01*
X251134123Y-91009502D01*
X251183222Y-89914330D02*
X251230841Y-89914394D01*
X251326015Y-89962142D01*
X251373570Y-90009825D01*
X251231485Y-89438204D02*
X251231742Y-89247728D01*
X251184252Y-89152426D01*
X251136697Y-89104742D01*
X250993969Y-89009311D01*
X250803557Y-88961435D01*
X250422605Y-88960920D01*
X250327303Y-89008410D01*
X250279620Y-89055965D01*
X250231872Y-89151139D01*
X250231614Y-89341615D01*
X250279105Y-89436917D01*
X250326659Y-89484600D01*
X250421833Y-89532348D01*
X250659928Y-89532670D01*
X250755230Y-89485179D01*
X250802914Y-89437625D01*
X250850661Y-89342451D01*
X250850919Y-89151975D01*
X250803429Y-89056673D01*
X250755874Y-89008989D01*
X250660700Y-88961242D01*
X250661472Y-88389814D02*
X250613725Y-88484987D01*
X250566041Y-88532542D01*
X250470739Y-88580032D01*
X250423120Y-88579968D01*
X250327946Y-88532220D01*
X250280392Y-88484537D01*
X250232901Y-88389235D01*
X250233159Y-88198759D01*
X250280907Y-88103585D01*
X250328590Y-88056030D01*
X250423892Y-88008540D01*
X250471511Y-88008604D01*
X250566685Y-88056352D01*
X250614240Y-88104035D01*
X250661730Y-88199338D01*
X250661472Y-88389814D01*
X250708963Y-88485116D01*
X250756517Y-88532799D01*
X250851691Y-88580547D01*
X251042167Y-88580804D01*
X251137469Y-88533314D01*
X251185153Y-88485760D01*
X251232900Y-88390586D01*
X251233158Y-88200110D01*
X251185668Y-88104808D01*
X251138113Y-88057124D01*
X251042939Y-88009376D01*
X250852463Y-88009119D01*
X250757161Y-88056609D01*
X250709478Y-88104164D01*
X250661730Y-88199338D01*
X250234253Y-87389235D02*
X250234381Y-87293997D01*
X250282129Y-87198824D01*
X250329813Y-87151269D01*
X250425115Y-87103779D01*
X250615655Y-87056417D01*
X250853750Y-87056739D01*
X251044162Y-87104615D01*
X251139336Y-87152363D01*
X251186890Y-87200046D01*
X251234381Y-87295349D01*
X251234252Y-87390587D01*
X251186504Y-87485760D01*
X251138821Y-87533315D01*
X251043518Y-87580805D01*
X250852978Y-87628167D01*
X250614883Y-87627845D01*
X250424471Y-87579969D01*
X250329298Y-87532221D01*
X250281743Y-87484538D01*
X250234253Y-87389235D01*
X251236311Y-85866779D02*
X250569645Y-85865878D01*
X250664883Y-85866006D02*
X250617328Y-85818323D01*
X250569838Y-85723021D01*
X250570031Y-85580164D01*
X250617779Y-85484990D01*
X250713081Y-85437500D01*
X251236890Y-85438208D01*
X250713081Y-85437500D02*
X250617907Y-85389752D01*
X250570417Y-85294450D01*
X250570610Y-85151593D01*
X250618358Y-85056419D01*
X250713660Y-85008929D01*
X251237469Y-85009637D01*
X251238113Y-84533447D02*
X250571447Y-84532546D01*
X250666685Y-84532674D02*
X250619130Y-84484991D01*
X250571640Y-84389689D01*
X250571833Y-84246832D01*
X250619581Y-84151658D01*
X250714883Y-84104168D01*
X251238692Y-84104876D01*
X250714883Y-84104168D02*
X250619709Y-84056420D01*
X250572219Y-83961118D01*
X250572412Y-83818261D01*
X250620160Y-83723087D01*
X250715462Y-83675597D01*
X251239271Y-83676304D01*
X249417858Y-134759171D02*
X249544858Y-40779171D01*
X240411000Y-134747000D02*
X250004278Y-134759964D01*
X240538000Y-40767000D02*
X250131278Y-40779964D01*
X249544858Y-40779171D02*
X250129756Y-41906466D01*
X249544858Y-40779171D02*
X248956915Y-41904881D01*
X249417858Y-134759171D02*
X250005801Y-133633461D01*
X249417858Y-134759171D02*
X248832960Y-133631876D01*
X151353885Y-143376883D02*
X150782456Y-143377041D01*
X151068170Y-143376962D02*
X151067894Y-142376962D01*
X150972695Y-142519845D01*
X150877484Y-142615110D01*
X150782259Y-142662755D01*
X151925155Y-142805297D02*
X151829904Y-142757704D01*
X151782272Y-142710098D01*
X151734627Y-142614873D01*
X151734613Y-142567254D01*
X151782206Y-142472003D01*
X151829812Y-142424371D01*
X151925037Y-142376725D01*
X152115513Y-142376673D01*
X152210764Y-142424265D01*
X152258397Y-142471871D01*
X152306042Y-142567096D01*
X152306055Y-142614715D01*
X152258462Y-142709967D01*
X152210856Y-142757599D01*
X152115631Y-142805244D01*
X151925155Y-142805297D01*
X151829930Y-142852942D01*
X151782324Y-142900574D01*
X151734732Y-142995825D01*
X151734784Y-143186302D01*
X151782430Y-143281527D01*
X151830062Y-143329132D01*
X151925313Y-143376725D01*
X152115789Y-143376673D01*
X152211014Y-143329027D01*
X152258620Y-143281395D01*
X152306213Y-143186144D01*
X152306160Y-142995668D01*
X152258515Y-142900443D01*
X152210883Y-142852837D01*
X152115631Y-142805244D01*
X152639323Y-142376528D02*
X153258370Y-142376357D01*
X152925142Y-142757401D01*
X153067999Y-142757362D01*
X153163250Y-142804955D01*
X153210883Y-142852561D01*
X153258528Y-142947786D01*
X153258594Y-143185881D01*
X153211001Y-143281132D01*
X153163395Y-143328764D01*
X153068170Y-143376410D01*
X152782456Y-143376489D01*
X152687205Y-143328896D01*
X152639572Y-143281290D01*
X153734824Y-143328607D02*
X153734837Y-143376226D01*
X153687244Y-143471477D01*
X153639638Y-143519109D01*
X154211027Y-143376094D02*
X154401503Y-143376042D01*
X154496728Y-143328396D01*
X154544334Y-143280764D01*
X154639533Y-143137881D01*
X154687099Y-142947391D01*
X154686994Y-142566439D01*
X154639349Y-142471214D01*
X154591717Y-142423608D01*
X154496465Y-142376015D01*
X154305989Y-142376068D01*
X154210764Y-142423713D01*
X154163158Y-142471345D01*
X154115566Y-142566597D01*
X154115631Y-142804692D01*
X154163277Y-142899917D01*
X154210909Y-142947523D01*
X154306160Y-142995115D01*
X154496636Y-142995063D01*
X154591861Y-142947418D01*
X154639467Y-142899785D01*
X154687060Y-142804534D01*
X155163408Y-143375831D02*
X155353884Y-143375779D01*
X155449109Y-143328133D01*
X155496715Y-143280501D01*
X155591914Y-143137618D01*
X155639480Y-142947128D01*
X155639375Y-142566176D01*
X155591730Y-142470951D01*
X155544098Y-142423345D01*
X155448846Y-142375752D01*
X155258370Y-142375805D01*
X155163145Y-142423450D01*
X155115539Y-142471082D01*
X155067947Y-142566334D01*
X155068012Y-142804429D01*
X155115658Y-142899654D01*
X155163290Y-142947260D01*
X155258541Y-142994853D01*
X155449017Y-142994800D01*
X155544242Y-142947155D01*
X155591848Y-142899522D01*
X155639441Y-142804271D01*
X156210869Y-142804113D02*
X156115618Y-142756521D01*
X156067986Y-142708915D01*
X156020341Y-142613690D01*
X156020327Y-142566071D01*
X156067920Y-142470820D01*
X156115526Y-142423187D01*
X156210751Y-142375542D01*
X156401227Y-142375489D01*
X156496479Y-142423082D01*
X156544111Y-142470688D01*
X156591756Y-142565913D01*
X156591769Y-142613532D01*
X156544176Y-142708783D01*
X156496571Y-142756415D01*
X156401346Y-142804061D01*
X156210869Y-142804113D01*
X156115644Y-142851759D01*
X156068039Y-142899391D01*
X156020446Y-142994642D01*
X156020498Y-143185118D01*
X156068144Y-143280343D01*
X156115776Y-143327949D01*
X156211027Y-143375542D01*
X156401503Y-143375489D01*
X156496728Y-143327844D01*
X156544334Y-143280212D01*
X156591927Y-143184961D01*
X156591874Y-142994484D01*
X156544229Y-142899259D01*
X156496597Y-142851654D01*
X156401346Y-142804061D01*
X157782456Y-143375108D02*
X157782272Y-142708441D01*
X157782298Y-142803680D02*
X157829904Y-142756047D01*
X157925129Y-142708402D01*
X158067986Y-142708363D01*
X158163237Y-142755955D01*
X158210882Y-142851180D01*
X158211027Y-143374990D01*
X158210882Y-142851180D02*
X158258475Y-142755929D01*
X158353700Y-142708284D01*
X158496557Y-142708244D01*
X158591809Y-142755837D01*
X158639454Y-142851062D01*
X158639599Y-143374871D01*
X159115789Y-143374740D02*
X159115605Y-142708073D01*
X159115631Y-142803311D02*
X159163237Y-142755679D01*
X159258462Y-142708034D01*
X159401319Y-142707994D01*
X159496570Y-142755587D01*
X159544216Y-142850812D01*
X159544360Y-143374622D01*
X159544216Y-142850812D02*
X159591809Y-142755561D01*
X159687033Y-142707916D01*
X159829891Y-142707876D01*
X159925142Y-142755469D01*
X159972787Y-142850694D01*
X159972932Y-143374503D01*
X247399820Y-141597985D02*
X63402220Y-141648785D01*
X247396000Y-127762000D02*
X247399982Y-142184406D01*
X63398400Y-127812800D02*
X63402382Y-142235206D01*
X63402220Y-141648785D02*
X64528562Y-141062053D01*
X63402220Y-141648785D02*
X64528886Y-142234895D01*
X247399820Y-141597985D02*
X246273154Y-141011875D01*
X247399820Y-141597985D02*
X246273478Y-142184717D01*
D11*
X119717200Y-66697879D02*
X119717200Y-66372321D01*
X118697200Y-66697879D02*
X118697200Y-66372321D01*
X150134569Y-87465000D02*
X150134569Y-86165000D01*
X150784569Y-86815000D02*
X149484569Y-86815000D01*
X137099000Y-83575000D02*
X137099000Y-82625000D01*
X137139000Y-83950000D02*
X137139000Y-82250000D01*
X137179000Y-84207000D02*
X137179000Y-81993000D01*
X137219000Y-84415000D02*
X137219000Y-81785000D01*
X137259000Y-84594000D02*
X137259000Y-81606000D01*
X137299000Y-84753000D02*
X137299000Y-81447000D01*
X137339000Y-84898000D02*
X137339000Y-81302000D01*
X137379000Y-85031000D02*
X137379000Y-81169000D01*
X137419000Y-85155000D02*
X137419000Y-81045000D01*
X137459000Y-85271000D02*
X137459000Y-80929000D01*
X137499000Y-85381000D02*
X137499000Y-80819000D01*
X137539000Y-85485000D02*
X137539000Y-80715000D01*
X137579000Y-85584000D02*
X137579000Y-80616000D01*
X137619000Y-85679000D02*
X137619000Y-80521000D01*
X137659000Y-85770000D02*
X137659000Y-80430000D01*
X137699000Y-85858000D02*
X137699000Y-80342000D01*
X137739000Y-85942000D02*
X137739000Y-80258000D01*
X137779000Y-86023000D02*
X137779000Y-80177000D01*
X137819000Y-86102000D02*
X137819000Y-80098000D01*
X137859000Y-86178000D02*
X137859000Y-80022000D01*
X137899000Y-86252000D02*
X137899000Y-79948000D01*
X137939000Y-86323000D02*
X137939000Y-79877000D01*
X137979000Y-86393000D02*
X137979000Y-79807000D01*
X138019000Y-86461000D02*
X138019000Y-79739000D01*
X138059000Y-86527000D02*
X138059000Y-79673000D01*
X138099000Y-86591000D02*
X138099000Y-79609000D01*
X138139000Y-86654000D02*
X138139000Y-79546000D01*
X138179000Y-86715000D02*
X138179000Y-79485000D01*
X138219000Y-86775000D02*
X138219000Y-79425000D01*
X138259000Y-86833000D02*
X138259000Y-79367000D01*
X138299000Y-86890000D02*
X138299000Y-79310000D01*
X138339000Y-86946000D02*
X138339000Y-79254000D01*
X138379000Y-87000000D02*
X138379000Y-79200000D01*
X138419000Y-87054000D02*
X138419000Y-79146000D01*
X138459000Y-87106000D02*
X138459000Y-79094000D01*
X138499000Y-87157000D02*
X138499000Y-79043000D01*
X138539000Y-87208000D02*
X138539000Y-78992000D01*
X138579000Y-87257000D02*
X138579000Y-78943000D01*
X138619000Y-87305000D02*
X138619000Y-78895000D01*
X138659000Y-87353000D02*
X138659000Y-78847000D01*
X138699000Y-87399000D02*
X138699000Y-78801000D01*
X138739000Y-87445000D02*
X138739000Y-78755000D01*
X138779000Y-87490000D02*
X138779000Y-78710000D01*
X138819000Y-87534000D02*
X138819000Y-78666000D01*
X138859000Y-87577000D02*
X138859000Y-78623000D01*
X138899000Y-87619000D02*
X138899000Y-78581000D01*
X138939000Y-87661000D02*
X138939000Y-78539000D01*
X138979000Y-87702000D02*
X138979000Y-78498000D01*
X139019000Y-87743000D02*
X139019000Y-78457000D01*
X139059000Y-87782000D02*
X139059000Y-78418000D01*
X139099000Y-87821000D02*
X139099000Y-78379000D01*
X139139000Y-87860000D02*
X139139000Y-78340000D01*
X139179000Y-87897000D02*
X139179000Y-78303000D01*
X139219000Y-87934000D02*
X139219000Y-78266000D01*
X139259000Y-87971000D02*
X139259000Y-78229000D01*
X139299000Y-88007000D02*
X139299000Y-78193000D01*
X139339000Y-88042000D02*
X139339000Y-78158000D01*
X139379000Y-88077000D02*
X139379000Y-78123000D01*
X139419000Y-88111000D02*
X139419000Y-78089000D01*
X139459000Y-88144000D02*
X139459000Y-78056000D01*
X139499000Y-88178000D02*
X139499000Y-78022000D01*
X139539000Y-88210000D02*
X139539000Y-77990000D01*
X139579000Y-88242000D02*
X139579000Y-77958000D01*
X139619000Y-88274000D02*
X139619000Y-77926000D01*
X139659000Y-88305000D02*
X139659000Y-77895000D01*
X139699000Y-88335000D02*
X139699000Y-77865000D01*
X139739000Y-88365000D02*
X139739000Y-77835000D01*
X139779000Y-81660000D02*
X139779000Y-77805000D01*
X139779000Y-88395000D02*
X139779000Y-84540000D01*
X139819000Y-81660000D02*
X139819000Y-77776000D01*
X139819000Y-88424000D02*
X139819000Y-84540000D01*
X139859000Y-81660000D02*
X139859000Y-77747000D01*
X139859000Y-88453000D02*
X139859000Y-84540000D01*
X139899000Y-81660000D02*
X139899000Y-77719000D01*
X139899000Y-88481000D02*
X139899000Y-84540000D01*
X139939000Y-81660000D02*
X139939000Y-77691000D01*
X139939000Y-88509000D02*
X139939000Y-84540000D01*
X139979000Y-81660000D02*
X139979000Y-77664000D01*
X139979000Y-88536000D02*
X139979000Y-84540000D01*
X140019000Y-81660000D02*
X140019000Y-77637000D01*
X140019000Y-88563000D02*
X140019000Y-84540000D01*
X140059000Y-81660000D02*
X140059000Y-77610000D01*
X140059000Y-88590000D02*
X140059000Y-84540000D01*
X140099000Y-81660000D02*
X140099000Y-77584000D01*
X140099000Y-88616000D02*
X140099000Y-84540000D01*
X140139000Y-81660000D02*
X140139000Y-77558000D01*
X140139000Y-88642000D02*
X140139000Y-84540000D01*
X140179000Y-81660000D02*
X140179000Y-77533000D01*
X140179000Y-88667000D02*
X140179000Y-84540000D01*
X140219000Y-81660000D02*
X140219000Y-77508000D01*
X140219000Y-88692000D02*
X140219000Y-84540000D01*
X140259000Y-81660000D02*
X140259000Y-77483000D01*
X140259000Y-88717000D02*
X140259000Y-84540000D01*
X140299000Y-81660000D02*
X140299000Y-77459000D01*
X140299000Y-88741000D02*
X140299000Y-84540000D01*
X140339000Y-81660000D02*
X140339000Y-77436000D01*
X140339000Y-88764000D02*
X140339000Y-84540000D01*
X140379000Y-81660000D02*
X140379000Y-77412000D01*
X140379000Y-88788000D02*
X140379000Y-84540000D01*
X140419000Y-81660000D02*
X140419000Y-77389000D01*
X140419000Y-88811000D02*
X140419000Y-84540000D01*
X140459000Y-81660000D02*
X140459000Y-77367000D01*
X140459000Y-88833000D02*
X140459000Y-84540000D01*
X140499000Y-81660000D02*
X140499000Y-77344000D01*
X140499000Y-88856000D02*
X140499000Y-84540000D01*
X140539000Y-81660000D02*
X140539000Y-77322000D01*
X140539000Y-88878000D02*
X140539000Y-84540000D01*
X140579000Y-81660000D02*
X140579000Y-77301000D01*
X140579000Y-88899000D02*
X140579000Y-84540000D01*
X140619000Y-81660000D02*
X140619000Y-77280000D01*
X140619000Y-88920000D02*
X140619000Y-84540000D01*
X140659000Y-81660000D02*
X140659000Y-77259000D01*
X140659000Y-88941000D02*
X140659000Y-84540000D01*
X140699000Y-81660000D02*
X140699000Y-77238000D01*
X140699000Y-88962000D02*
X140699000Y-84540000D01*
X140739000Y-81660000D02*
X140739000Y-77218000D01*
X140739000Y-88982000D02*
X140739000Y-84540000D01*
X140779000Y-81660000D02*
X140779000Y-77198000D01*
X140779000Y-89002000D02*
X140779000Y-84540000D01*
X140819000Y-81660000D02*
X140819000Y-77179000D01*
X140819000Y-89021000D02*
X140819000Y-84540000D01*
X140859000Y-81660000D02*
X140859000Y-77160000D01*
X140859000Y-89040000D02*
X140859000Y-84540000D01*
X140899000Y-81660000D02*
X140899000Y-77141000D01*
X140899000Y-89059000D02*
X140899000Y-84540000D01*
X140939000Y-81660000D02*
X140939000Y-77122000D01*
X140939000Y-89078000D02*
X140939000Y-84540000D01*
X140979000Y-81660000D02*
X140979000Y-77104000D01*
X140979000Y-89096000D02*
X140979000Y-84540000D01*
X141019000Y-81660000D02*
X141019000Y-77086000D01*
X141019000Y-89114000D02*
X141019000Y-84540000D01*
X141059000Y-81660000D02*
X141059000Y-77069000D01*
X141059000Y-89131000D02*
X141059000Y-84540000D01*
X141099000Y-81660000D02*
X141099000Y-77051000D01*
X141099000Y-89149000D02*
X141099000Y-84540000D01*
X141139000Y-81660000D02*
X141139000Y-77035000D01*
X141139000Y-89165000D02*
X141139000Y-84540000D01*
X141179000Y-81660000D02*
X141179000Y-77018000D01*
X141179000Y-89182000D02*
X141179000Y-84540000D01*
X141219000Y-81660000D02*
X141219000Y-77002000D01*
X141219000Y-89198000D02*
X141219000Y-84540000D01*
X141259000Y-81660000D02*
X141259000Y-76986000D01*
X141259000Y-89214000D02*
X141259000Y-84540000D01*
X141299000Y-81660000D02*
X141299000Y-76970000D01*
X141299000Y-89230000D02*
X141299000Y-84540000D01*
X141339000Y-81660000D02*
X141339000Y-76954000D01*
X141339000Y-89246000D02*
X141339000Y-84540000D01*
X141379000Y-81660000D02*
X141379000Y-76939000D01*
X141379000Y-89261000D02*
X141379000Y-84540000D01*
X141419000Y-81660000D02*
X141419000Y-76925000D01*
X141419000Y-89275000D02*
X141419000Y-84540000D01*
X141459000Y-81660000D02*
X141459000Y-76910000D01*
X141459000Y-89290000D02*
X141459000Y-84540000D01*
X141499000Y-81660000D02*
X141499000Y-76896000D01*
X141499000Y-89304000D02*
X141499000Y-84540000D01*
X141539000Y-81660000D02*
X141539000Y-76882000D01*
X141539000Y-89318000D02*
X141539000Y-84540000D01*
X141579000Y-81660000D02*
X141579000Y-76868000D01*
X141579000Y-89332000D02*
X141579000Y-84540000D01*
X141619000Y-81660000D02*
X141619000Y-76855000D01*
X141619000Y-89345000D02*
X141619000Y-84540000D01*
X141659000Y-81660000D02*
X141659000Y-76842000D01*
X141659000Y-89358000D02*
X141659000Y-84540000D01*
X141699000Y-81660000D02*
X141699000Y-76829000D01*
X141699000Y-89371000D02*
X141699000Y-84540000D01*
X141739000Y-81660000D02*
X141739000Y-76816000D01*
X141739000Y-89384000D02*
X141739000Y-84540000D01*
X141779000Y-81660000D02*
X141779000Y-76804000D01*
X141779000Y-89396000D02*
X141779000Y-84540000D01*
X141819000Y-81660000D02*
X141819000Y-76792000D01*
X141819000Y-89408000D02*
X141819000Y-84540000D01*
X141859000Y-81660000D02*
X141859000Y-76780000D01*
X141859000Y-89420000D02*
X141859000Y-84540000D01*
X141899000Y-81660000D02*
X141899000Y-76769000D01*
X141899000Y-89431000D02*
X141899000Y-84540000D01*
X141939000Y-81660000D02*
X141939000Y-76758000D01*
X141939000Y-89442000D02*
X141939000Y-84540000D01*
X141979000Y-81660000D02*
X141979000Y-76747000D01*
X141979000Y-89453000D02*
X141979000Y-84540000D01*
X142019000Y-81660000D02*
X142019000Y-76736000D01*
X142019000Y-89464000D02*
X142019000Y-84540000D01*
X142059000Y-81660000D02*
X142059000Y-76726000D01*
X142059000Y-89474000D02*
X142059000Y-84540000D01*
X142099000Y-81660000D02*
X142099000Y-76716000D01*
X142099000Y-89484000D02*
X142099000Y-84540000D01*
X142139000Y-81660000D02*
X142139000Y-76706000D01*
X142139000Y-89494000D02*
X142139000Y-84540000D01*
X142179000Y-81660000D02*
X142179000Y-76696000D01*
X142179000Y-89504000D02*
X142179000Y-84540000D01*
X142219000Y-81660000D02*
X142219000Y-76687000D01*
X142219000Y-89513000D02*
X142219000Y-84540000D01*
X142259000Y-81660000D02*
X142259000Y-76678000D01*
X142259000Y-89522000D02*
X142259000Y-84540000D01*
X142299000Y-81660000D02*
X142299000Y-76669000D01*
X142299000Y-89531000D02*
X142299000Y-84540000D01*
X142339000Y-81660000D02*
X142339000Y-76661000D01*
X142339000Y-89539000D02*
X142339000Y-84540000D01*
X142379000Y-81660000D02*
X142379000Y-76652000D01*
X142379000Y-89548000D02*
X142379000Y-84540000D01*
X142419000Y-81660000D02*
X142419000Y-76644000D01*
X142419000Y-89556000D02*
X142419000Y-84540000D01*
X142459000Y-81660000D02*
X142459000Y-76637000D01*
X142459000Y-89563000D02*
X142459000Y-84540000D01*
X142499000Y-81660000D02*
X142499000Y-76629000D01*
X142499000Y-89571000D02*
X142499000Y-84540000D01*
X142539000Y-81660000D02*
X142539000Y-76622000D01*
X142539000Y-89578000D02*
X142539000Y-84540000D01*
X142579000Y-81660000D02*
X142579000Y-76615000D01*
X142579000Y-89585000D02*
X142579000Y-84540000D01*
X142619000Y-81660000D02*
X142619000Y-76608000D01*
X142619000Y-89592000D02*
X142619000Y-84540000D01*
X142659000Y-89598000D02*
X142659000Y-76602000D01*
X142699000Y-89605000D02*
X142699000Y-76595000D01*
X142739000Y-89611000D02*
X142739000Y-76589000D01*
X142779000Y-89616000D02*
X142779000Y-76584000D01*
X142819000Y-89622000D02*
X142819000Y-76578000D01*
X142859000Y-89627000D02*
X142859000Y-76573000D01*
X142899000Y-89632000D02*
X142899000Y-76568000D01*
X142939000Y-89637000D02*
X142939000Y-76563000D01*
X142979000Y-89641000D02*
X142979000Y-76559000D01*
X143020000Y-89645000D02*
X143020000Y-76555000D01*
X143060000Y-89649000D02*
X143060000Y-76551000D01*
X143100000Y-89653000D02*
X143100000Y-76547000D01*
X143140000Y-89657000D02*
X143140000Y-76543000D01*
X143180000Y-89660000D02*
X143180000Y-76540000D01*
X143220000Y-89663000D02*
X143220000Y-76537000D01*
X143260000Y-89666000D02*
X143260000Y-76534000D01*
X143300000Y-89668000D02*
X143300000Y-76532000D01*
X143340000Y-89671000D02*
X143340000Y-76529000D01*
X143380000Y-89673000D02*
X143380000Y-76527000D01*
X143420000Y-89675000D02*
X143420000Y-76525000D01*
X143460000Y-89676000D02*
X143460000Y-76524000D01*
X143500000Y-89677000D02*
X143500000Y-76523000D01*
X143540000Y-89679000D02*
X143540000Y-76521000D01*
X143580000Y-89679000D02*
X143580000Y-76521000D01*
X143620000Y-89680000D02*
X143620000Y-76520000D01*
X143660000Y-89680000D02*
X143660000Y-76520000D01*
X143700000Y-89680000D02*
X143700000Y-76520000D01*
X150320000Y-83100000D02*
G75*
G03X150320000Y-83100000I-6620000J0D01*
G01*
X165580800Y-77737278D02*
X165580800Y-77220122D01*
X167000800Y-77737278D02*
X167000800Y-77220122D01*
X157649721Y-64110000D02*
X157975279Y-64110000D01*
X157649721Y-63090000D02*
X157975279Y-63090000D01*
X157849721Y-78390000D02*
X158175279Y-78390000D01*
X157849721Y-79410000D02*
X158175279Y-79410000D01*
X160690000Y-114162779D02*
X160690000Y-113837221D01*
X161710000Y-114162779D02*
X161710000Y-113837221D01*
X160690000Y-96424721D02*
X160690000Y-96750279D01*
X161710000Y-96424721D02*
X161710000Y-96750279D01*
X165153200Y-81417322D02*
X165153200Y-81934478D01*
X166573200Y-81417322D02*
X166573200Y-81934478D01*
X168573200Y-81388121D02*
X168573200Y-81713679D01*
X167553200Y-81388121D02*
X167553200Y-81713679D01*
X168700800Y-77791479D02*
X168700800Y-77465921D01*
X167680800Y-77791479D02*
X167680800Y-77465921D01*
X213513370Y-96240530D02*
X212725870Y-96240530D01*
X213119620Y-95846780D02*
X213119620Y-96634280D01*
X208926557Y-96874280D02*
X207862120Y-97938717D01*
X213617683Y-96874280D02*
X214682120Y-97938717D01*
X213617683Y-96874280D02*
X212332120Y-96874280D01*
X208926557Y-96874280D02*
X210212120Y-96874280D01*
X207862120Y-97938717D02*
X207862120Y-103694280D01*
X214682120Y-97938717D02*
X214682120Y-103694280D01*
X214682120Y-103694280D02*
X212332120Y-103694280D01*
X207862120Y-103694280D02*
X210212120Y-103694280D01*
X217151000Y-89770000D02*
X217151000Y-87420000D01*
X217151000Y-82950000D02*
X217151000Y-85300000D01*
X211395437Y-82950000D02*
X217151000Y-82950000D01*
X211395437Y-89770000D02*
X217151000Y-89770000D01*
X210331000Y-88705563D02*
X210331000Y-87420000D01*
X210331000Y-84014437D02*
X210331000Y-85300000D01*
X210331000Y-84014437D02*
X211395437Y-82950000D01*
X210331000Y-88705563D02*
X211395437Y-89770000D01*
X209303500Y-84512500D02*
X210091000Y-84512500D01*
X209697250Y-84118750D02*
X209697250Y-84906250D01*
X215701810Y-102955390D02*
X215701810Y-103742890D01*
X215308060Y-103349140D02*
X216095560Y-103349140D01*
X216335560Y-107542203D02*
X217399997Y-108606640D01*
X216335560Y-102851077D02*
X217399997Y-101786640D01*
X216335560Y-102851077D02*
X216335560Y-104136640D01*
X216335560Y-107542203D02*
X216335560Y-106256640D01*
X217399997Y-108606640D02*
X223155560Y-108606640D01*
X217399997Y-101786640D02*
X223155560Y-101786640D01*
X223155560Y-101786640D02*
X223155560Y-104136640D01*
X223155560Y-108606640D02*
X223155560Y-106256640D01*
X233614030Y-107437890D02*
X233614030Y-106650390D01*
X234007780Y-107044140D02*
X233220280Y-107044140D01*
X232980280Y-102851077D02*
X231915843Y-101786640D01*
X232980280Y-107542203D02*
X231915843Y-108606640D01*
X232980280Y-107542203D02*
X232980280Y-106256640D01*
X232980280Y-102851077D02*
X232980280Y-104136640D01*
X231915843Y-101786640D02*
X226160280Y-101786640D01*
X231915843Y-108606640D02*
X226160280Y-108606640D01*
X226160280Y-108606640D02*
X226160280Y-106256640D01*
X226160280Y-101786640D02*
X226160280Y-104136640D01*
X211550320Y-80001638D02*
X211550320Y-79484482D01*
X210130320Y-80001638D02*
X210130320Y-79484482D01*
X217763160Y-79296522D02*
X217763160Y-79813678D01*
X216343160Y-79296522D02*
X216343160Y-79813678D01*
X128803922Y-109490000D02*
X129321078Y-109490000D01*
X128803922Y-110910000D02*
X129321078Y-110910000D01*
X132650279Y-109890000D02*
X132324721Y-109890000D01*
X132650279Y-110910000D02*
X132324721Y-110910000D01*
X136733161Y-57671240D02*
X137058719Y-57671240D01*
X136733161Y-58691240D02*
X137058719Y-58691240D01*
X140119362Y-58919040D02*
X140636518Y-58919040D01*
X140119362Y-60339040D02*
X140636518Y-60339040D01*
X140355439Y-61932280D02*
X140029881Y-61932280D01*
X140355439Y-60912280D02*
X140029881Y-60912280D01*
X123373199Y-65788000D02*
X123047641Y-65788000D01*
X123373199Y-64768000D02*
X123047641Y-64768000D01*
X126680279Y-65032160D02*
X126354721Y-65032160D01*
X126680279Y-66052160D02*
X126354721Y-66052160D01*
X189694280Y-64780479D02*
X189694280Y-64454921D01*
X188674280Y-64780479D02*
X188674280Y-64454921D01*
X168290000Y-60362779D02*
X168290000Y-60037221D01*
X169310000Y-60362779D02*
X169310000Y-60037221D01*
X150772400Y-55890279D02*
X150772400Y-55564721D01*
X151792400Y-55890279D02*
X151792400Y-55564721D01*
X161940000Y-64260000D02*
X163640000Y-64260000D01*
X167460000Y-64260000D02*
X165760000Y-64260000D01*
X167460000Y-59804437D02*
X167460000Y-64260000D01*
X161940000Y-59804437D02*
X161940000Y-64260000D01*
X163004437Y-58740000D02*
X163640000Y-58740000D01*
X166395563Y-58740000D02*
X165760000Y-58740000D01*
X166395563Y-58740000D02*
X167460000Y-59804437D01*
X163004437Y-58740000D02*
X161940000Y-59804437D01*
X166385000Y-57875000D02*
X166385000Y-58500000D01*
X166697500Y-58187500D02*
X166072500Y-58187500D01*
X164749721Y-57310000D02*
X165075279Y-57310000D01*
X164749721Y-56290000D02*
X165075279Y-56290000D01*
X128341422Y-124610000D02*
X128858578Y-124610000D01*
X128341422Y-123190000D02*
X128858578Y-123190000D01*
X124650279Y-124310000D02*
X124324721Y-124310000D01*
X124650279Y-123290000D02*
X124324721Y-123290000D01*
X81910000Y-125275279D02*
X81910000Y-124949721D01*
X80890000Y-125275279D02*
X80890000Y-124949721D01*
X220110000Y-82924600D02*
X220110000Y-85274600D01*
X220110000Y-89744600D02*
X220110000Y-87394600D01*
X225865563Y-89744600D02*
X220110000Y-89744600D01*
X225865563Y-82924600D02*
X220110000Y-82924600D01*
X226930000Y-83989037D02*
X226930000Y-85274600D01*
X226930000Y-88680163D02*
X226930000Y-87394600D01*
X226930000Y-88680163D02*
X225865563Y-89744600D01*
X226930000Y-83989037D02*
X225865563Y-82924600D01*
X227957500Y-88182100D02*
X227170000Y-88182100D01*
X227563750Y-88575850D02*
X227563750Y-87788350D01*
X235099979Y-86171500D02*
X234774421Y-86171500D01*
X235099979Y-85151500D02*
X234774421Y-85151500D01*
X231434321Y-86196900D02*
X231759879Y-86196900D01*
X231434321Y-85176900D02*
X231759879Y-85176900D01*
X229548900Y-73924500D02*
X230173900Y-73924500D01*
X229861400Y-74237000D02*
X229861400Y-73612000D01*
X233241963Y-73372000D02*
X234306400Y-72307563D01*
X229850837Y-73372000D02*
X228786400Y-72307563D01*
X229850837Y-73372000D02*
X230486400Y-73372000D01*
X233241963Y-73372000D02*
X232606400Y-73372000D01*
X234306400Y-72307563D02*
X234306400Y-67852000D01*
X228786400Y-72307563D02*
X228786400Y-67852000D01*
X228786400Y-67852000D02*
X230486400Y-67852000D01*
X234306400Y-67852000D02*
X232606400Y-67852000D01*
X217153700Y-73213300D02*
X217778700Y-73213300D01*
X217466200Y-73525800D02*
X217466200Y-72900800D01*
X220846763Y-72660800D02*
X221911200Y-71596363D01*
X217455637Y-72660800D02*
X216391200Y-71596363D01*
X217455637Y-72660800D02*
X218091200Y-72660800D01*
X220846763Y-72660800D02*
X220211200Y-72660800D01*
X221911200Y-71596363D02*
X221911200Y-67140800D01*
X216391200Y-71596363D02*
X216391200Y-67140800D01*
X216391200Y-67140800D02*
X218091200Y-67140800D01*
X221911200Y-67140800D02*
X220211200Y-67140800D01*
X234179400Y-78050100D02*
X232479400Y-78050100D01*
X228659400Y-78050100D02*
X230359400Y-78050100D01*
X228659400Y-82505663D02*
X228659400Y-78050100D01*
X234179400Y-82505663D02*
X234179400Y-78050100D01*
X233114963Y-83570100D02*
X232479400Y-83570100D01*
X229723837Y-83570100D02*
X230359400Y-83570100D01*
X229723837Y-83570100D02*
X228659400Y-82505663D01*
X233114963Y-83570100D02*
X234179400Y-82505663D01*
X229734400Y-84435100D02*
X229734400Y-83810100D01*
X229421900Y-84122600D02*
X230046900Y-84122600D01*
X220785400Y-76475300D02*
X220785400Y-78175300D01*
X220785400Y-81995300D02*
X220785400Y-80295300D01*
X225240963Y-81995300D02*
X220785400Y-81995300D01*
X225240963Y-76475300D02*
X220785400Y-76475300D01*
X226305400Y-77539737D02*
X226305400Y-78175300D01*
X226305400Y-80930863D02*
X226305400Y-80295300D01*
X226305400Y-80930863D02*
X225240963Y-81995300D01*
X226305400Y-77539737D02*
X225240963Y-76475300D01*
X227170400Y-80920300D02*
X226545400Y-80920300D01*
X226857900Y-81232800D02*
X226857900Y-80607800D01*
X151900000Y-60500000D02*
X155750000Y-60500000D01*
X151900000Y-62500000D02*
X155750000Y-62500000D01*
X151900000Y-60500000D02*
X151900000Y-62500000D01*
X161200000Y-62500000D02*
X161200000Y-60500000D01*
X161200000Y-60500000D02*
X157350000Y-60500000D01*
X161200000Y-62500000D02*
X157350000Y-62500000D01*
X141946480Y-55285040D02*
X139546480Y-55285040D01*
X139546480Y-58385040D02*
X142496480Y-58385040D01*
X126074880Y-61332440D02*
X126074880Y-64282440D01*
X129174880Y-63732440D02*
X129174880Y-61332440D01*
X196360240Y-56825440D02*
X194510240Y-56825440D01*
X196360240Y-55625440D02*
X194510240Y-55625440D01*
X194510240Y-55625440D02*
X194510240Y-56825440D01*
X189805960Y-68230040D02*
X189805960Y-67030040D01*
X187955960Y-68230040D02*
X189805960Y-68230040D01*
X187955960Y-67030040D02*
X189805960Y-67030040D01*
X147846522Y-50544800D02*
X148363678Y-50544800D01*
X147846522Y-49124800D02*
X148363678Y-49124800D01*
X130726000Y-50172000D02*
X130726000Y-54432000D01*
X130726000Y-54432000D02*
X143046000Y-54432000D01*
X143046000Y-54432000D02*
X143046000Y-50172000D01*
X130726000Y-46072000D02*
X130726000Y-37712000D01*
X130726000Y-37712000D02*
X143046000Y-37712000D01*
X143046000Y-37712000D02*
X143046000Y-46072000D01*
X135636000Y-54652000D02*
X135136000Y-55152000D01*
X135136000Y-55152000D02*
X136136000Y-55152000D01*
X136136000Y-55152000D02*
X135636000Y-54652000D01*
X72084000Y-41328000D02*
X72084000Y-40128000D01*
X72084000Y-40128000D02*
X72584000Y-40128000D01*
X72584000Y-40128000D02*
X72584000Y-37628000D01*
X72584000Y-37628000D02*
X77784000Y-37628000D01*
X77784000Y-37628000D02*
X77784000Y-40128000D01*
X77784000Y-40128000D02*
X78284000Y-40128000D01*
X78284000Y-40128000D02*
X78284000Y-43328000D01*
X78284000Y-45928000D02*
X78284000Y-54828000D01*
X78284000Y-54828000D02*
X72084000Y-54828000D01*
X72084000Y-54828000D02*
X72084000Y-53628000D01*
X72084000Y-50428000D02*
X72084000Y-43928000D01*
X72084000Y-41328000D02*
X70084000Y-41328000D01*
X72084000Y-43928000D02*
X70084000Y-43928000D01*
X161230000Y-52662000D02*
X162280000Y-52662000D01*
X162280000Y-51612000D02*
X162280000Y-52662000D01*
X152880000Y-46562000D02*
X152880000Y-37762000D01*
X152880000Y-37762000D02*
X162080000Y-37762000D01*
X155580000Y-52462000D02*
X152880000Y-52462000D01*
X152880000Y-52462000D02*
X152880000Y-50562000D01*
X162080000Y-37762000D02*
X162080000Y-52462000D01*
X162080000Y-52462000D02*
X159480000Y-52462000D01*
X192988000Y-41328000D02*
X192988000Y-40128000D01*
X192988000Y-40128000D02*
X193488000Y-40128000D01*
X193488000Y-40128000D02*
X193488000Y-37628000D01*
X193488000Y-37628000D02*
X198688000Y-37628000D01*
X198688000Y-37628000D02*
X198688000Y-40128000D01*
X198688000Y-40128000D02*
X199188000Y-40128000D01*
X199188000Y-40128000D02*
X199188000Y-43328000D01*
X199188000Y-45928000D02*
X199188000Y-54828000D01*
X199188000Y-54828000D02*
X192988000Y-54828000D01*
X192988000Y-54828000D02*
X192988000Y-53628000D01*
X192988000Y-50428000D02*
X192988000Y-43928000D01*
X192988000Y-41328000D02*
X190988000Y-41328000D01*
X192988000Y-43928000D02*
X190988000Y-43928000D01*
X181812000Y-43928000D02*
X179812000Y-43928000D01*
X181812000Y-41328000D02*
X179812000Y-41328000D01*
X181812000Y-50428000D02*
X181812000Y-43928000D01*
X181812000Y-54828000D02*
X181812000Y-53628000D01*
X188012000Y-54828000D02*
X181812000Y-54828000D01*
X188012000Y-45928000D02*
X188012000Y-54828000D01*
X188012000Y-40128000D02*
X188012000Y-43328000D01*
X187512000Y-40128000D02*
X188012000Y-40128000D01*
X187512000Y-37628000D02*
X187512000Y-40128000D01*
X182312000Y-37628000D02*
X187512000Y-37628000D01*
X182312000Y-40128000D02*
X182312000Y-37628000D01*
X181812000Y-40128000D02*
X182312000Y-40128000D01*
X181812000Y-41328000D02*
X181812000Y-40128000D01*
X74990000Y-130770000D02*
X74990000Y-133430000D01*
X80130000Y-130770000D02*
X74990000Y-130770000D01*
X80130000Y-133430000D02*
X74990000Y-133430000D01*
X80130000Y-130770000D02*
X80130000Y-133430000D01*
X81400000Y-130770000D02*
X82730000Y-130770000D01*
X82730000Y-130770000D02*
X82730000Y-132100000D01*
X222010000Y-41520000D02*
X222010000Y-44020000D01*
X224010000Y-41520000D02*
X222010000Y-41520000D01*
X235820000Y-62560000D02*
X235820000Y-65780000D01*
X227310000Y-65800000D02*
X235790000Y-65800000D01*
X227310000Y-62560000D02*
X227310000Y-65780000D01*
X225720000Y-38920000D02*
X225720000Y-41920000D01*
X225720000Y-38920000D02*
X237420000Y-38920000D01*
X237420000Y-38920000D02*
X237420000Y-41920000D01*
X222420000Y-62530000D02*
X240710000Y-62530000D01*
X240710000Y-62530000D02*
X240710000Y-60080000D01*
X222420000Y-62530000D02*
X222420000Y-60080000D01*
X222410000Y-44170000D02*
X222410000Y-41920000D01*
X222410000Y-50820000D02*
X222410000Y-47670000D01*
X222420000Y-57160000D02*
X222420000Y-53730000D01*
X240710000Y-53730000D02*
X240710000Y-57160000D01*
X240710000Y-47380000D02*
X240710000Y-50810000D01*
X240710000Y-41920000D02*
X240710000Y-44470000D01*
X222410000Y-41920000D02*
X240710000Y-41920000D01*
X202160000Y-42010000D02*
X220460000Y-42010000D01*
X220460000Y-42010000D02*
X220460000Y-44560000D01*
X220460000Y-47470000D02*
X220460000Y-50900000D01*
X220460000Y-53820000D02*
X220460000Y-57250000D01*
X202170000Y-57250000D02*
X202170000Y-53820000D01*
X202160000Y-50910000D02*
X202160000Y-47760000D01*
X202160000Y-44260000D02*
X202160000Y-42010000D01*
X202170000Y-62620000D02*
X202170000Y-60170000D01*
X220460000Y-62620000D02*
X220460000Y-60170000D01*
X202170000Y-62620000D02*
X220460000Y-62620000D01*
X217170000Y-39010000D02*
X217170000Y-42010000D01*
X205470000Y-39010000D02*
X217170000Y-39010000D01*
X205470000Y-39010000D02*
X205470000Y-42010000D01*
X207060000Y-62650000D02*
X207060000Y-65870000D01*
X207060000Y-65890000D02*
X215540000Y-65890000D01*
X215570000Y-62650000D02*
X215570000Y-65870000D01*
X203760000Y-41610000D02*
X201760000Y-41610000D01*
X201760000Y-41610000D02*
X201760000Y-44110000D01*
X101140000Y-41430000D02*
X101140000Y-43930000D01*
X103140000Y-41430000D02*
X101140000Y-41430000D01*
X114950000Y-62470000D02*
X114950000Y-65690000D01*
X106440000Y-65710000D02*
X114920000Y-65710000D01*
X106440000Y-62470000D02*
X106440000Y-65690000D01*
X104850000Y-38830000D02*
X104850000Y-41830000D01*
X104850000Y-38830000D02*
X116550000Y-38830000D01*
X116550000Y-38830000D02*
X116550000Y-41830000D01*
X101550000Y-62440000D02*
X119840000Y-62440000D01*
X119840000Y-62440000D02*
X119840000Y-59990000D01*
X101550000Y-62440000D02*
X101550000Y-59990000D01*
X101540000Y-44080000D02*
X101540000Y-41830000D01*
X101540000Y-50730000D02*
X101540000Y-47580000D01*
X101550000Y-57070000D02*
X101550000Y-53640000D01*
X119840000Y-53640000D02*
X119840000Y-57070000D01*
X119840000Y-47290000D02*
X119840000Y-50720000D01*
X119840000Y-41830000D02*
X119840000Y-44380000D01*
X101540000Y-41830000D02*
X119840000Y-41830000D01*
X81350000Y-41980000D02*
X99650000Y-41980000D01*
X99650000Y-41980000D02*
X99650000Y-44530000D01*
X99650000Y-47440000D02*
X99650000Y-50870000D01*
X99650000Y-53790000D02*
X99650000Y-57220000D01*
X81360000Y-57220000D02*
X81360000Y-53790000D01*
X81350000Y-50880000D02*
X81350000Y-47730000D01*
X81350000Y-44230000D02*
X81350000Y-41980000D01*
X81360000Y-62590000D02*
X81360000Y-60140000D01*
X99650000Y-62590000D02*
X99650000Y-60140000D01*
X81360000Y-62590000D02*
X99650000Y-62590000D01*
X96360000Y-38980000D02*
X96360000Y-41980000D01*
X84660000Y-38980000D02*
X96360000Y-38980000D01*
X84660000Y-38980000D02*
X84660000Y-41980000D01*
X86250000Y-62620000D02*
X86250000Y-65840000D01*
X86250000Y-65860000D02*
X94730000Y-65860000D01*
X94760000Y-62620000D02*
X94760000Y-65840000D01*
X82950000Y-41580000D02*
X80950000Y-41580000D01*
X80950000Y-41580000D02*
X80950000Y-44080000D01*
X236225200Y-74830400D02*
X235295200Y-74830400D01*
X233065200Y-74830400D02*
X233995200Y-74830400D01*
X233065200Y-74830400D02*
X233065200Y-76990400D01*
X236225200Y-74830400D02*
X236225200Y-76290400D01*
X224426900Y-73623900D02*
X224426900Y-75083900D01*
X221266900Y-73623900D02*
X221266900Y-75783900D01*
X221266900Y-73623900D02*
X222196900Y-73623900D01*
X224426900Y-73623900D02*
X223496900Y-73623900D01*
X232595960Y-92501501D02*
X232595960Y-92827059D01*
X233615960Y-92501501D02*
X233615960Y-92827059D01*
X234155520Y-92826959D02*
X234155520Y-92501401D01*
X235175520Y-92826959D02*
X235175520Y-92501401D01*
X229504121Y-92496100D02*
X229829679Y-92496100D01*
X229504121Y-91476100D02*
X229829679Y-91476100D01*
X215630541Y-93398880D02*
X215956099Y-93398880D01*
X215630541Y-94418880D02*
X215956099Y-94418880D01*
X215951119Y-94973680D02*
X215625561Y-94973680D01*
X215951119Y-95993680D02*
X215625561Y-95993680D01*
X215966359Y-91254040D02*
X215640801Y-91254040D01*
X215966359Y-90234040D02*
X215640801Y-90234040D01*
X215956199Y-92874560D02*
X215630641Y-92874560D01*
X215956199Y-91854560D02*
X215630641Y-91854560D01*
X206420401Y-107753880D02*
X206745959Y-107753880D01*
X206420401Y-106733880D02*
X206745959Y-106733880D01*
X229504121Y-94613000D02*
X229829679Y-94613000D01*
X229504121Y-95633000D02*
X229829679Y-95633000D01*
X229504121Y-94058200D02*
X229829679Y-94058200D01*
X229504121Y-93038200D02*
X229829679Y-93038200D01*
X206456161Y-110772480D02*
X206781719Y-110772480D01*
X206456161Y-111792480D02*
X206781719Y-111792480D01*
X232539221Y-98617500D02*
X232864779Y-98617500D01*
X232539221Y-97597500D02*
X232864779Y-97597500D01*
X206486641Y-113570480D02*
X206812199Y-113570480D01*
X206486641Y-112550480D02*
X206812199Y-112550480D01*
X192545200Y-105026321D02*
X192545200Y-105351879D01*
X191525200Y-105026321D02*
X191525200Y-105351879D01*
X191457280Y-100460959D02*
X191457280Y-100135401D01*
X192477280Y-100460959D02*
X192477280Y-100135401D01*
X239050100Y-76227721D02*
X239050100Y-76553279D01*
X240070100Y-76227721D02*
X240070100Y-76553279D01*
X206435641Y-104392000D02*
X206761199Y-104392000D01*
X206435641Y-105412000D02*
X206761199Y-105412000D01*
X232539221Y-97093500D02*
X232864779Y-97093500D01*
X232539221Y-96073500D02*
X232864779Y-96073500D01*
X234774421Y-87797100D02*
X235099979Y-87797100D01*
X234774421Y-86777100D02*
X235099979Y-86777100D01*
X231874179Y-87759000D02*
X231548621Y-87759000D01*
X231874179Y-86739000D02*
X231548621Y-86739000D01*
X229783100Y-86324321D02*
X229783100Y-86649879D01*
X228763100Y-86324321D02*
X228763100Y-86649879D01*
X236776800Y-86349521D02*
X236776800Y-86675079D01*
X237796800Y-86349521D02*
X237796800Y-86675079D01*
X241640479Y-69051900D02*
X241314921Y-69051900D01*
X241640479Y-68031900D02*
X241314921Y-68031900D01*
X237847600Y-75651579D02*
X237847600Y-75326021D01*
X236827600Y-75651579D02*
X236827600Y-75326021D01*
X227522721Y-74788300D02*
X227848279Y-74788300D01*
X227522721Y-75808300D02*
X227848279Y-75808300D01*
X204675279Y-65490000D02*
X204349721Y-65490000D01*
X204675279Y-66510000D02*
X204349721Y-66510000D01*
X202975279Y-66990000D02*
X202649721Y-66990000D01*
X202975279Y-68010000D02*
X202649721Y-68010000D01*
X120297200Y-66622879D02*
X120297200Y-66297321D01*
X121317200Y-66622879D02*
X121317200Y-66297321D01*
X137155239Y-60912280D02*
X136829681Y-60912280D01*
X137155239Y-61932280D02*
X136829681Y-61932280D01*
X136748401Y-59342560D02*
X137073959Y-59342560D01*
X136748401Y-60362560D02*
X137073959Y-60362560D01*
X126339481Y-67662520D02*
X126665039Y-67662520D01*
X126339481Y-66642520D02*
X126665039Y-66642520D01*
X184475279Y-68110000D02*
X184149721Y-68110000D01*
X184475279Y-67090000D02*
X184149721Y-67090000D01*
X185577799Y-57004680D02*
X185252241Y-57004680D01*
X185577799Y-55984680D02*
X185252241Y-55984680D01*
X186150279Y-61490000D02*
X185824721Y-61490000D01*
X186150279Y-62510000D02*
X185824721Y-62510000D01*
X176349721Y-69290000D02*
X176675279Y-69290000D01*
X176349721Y-70310000D02*
X176675279Y-70310000D01*
X171075279Y-69215000D02*
X170749721Y-69215000D01*
X171075279Y-70235000D02*
X170749721Y-70235000D01*
X168290000Y-63224721D02*
X168290000Y-63550279D01*
X169310000Y-63224721D02*
X169310000Y-63550279D01*
X179490000Y-66737221D02*
X179490000Y-67062779D01*
X180510000Y-66737221D02*
X180510000Y-67062779D01*
X79750279Y-128890000D02*
X79424721Y-128890000D01*
X79750279Y-129910000D02*
X79424721Y-129910000D01*
X79700279Y-128110000D02*
X79374721Y-128110000D01*
X79700279Y-127090000D02*
X79374721Y-127090000D01*
X107660800Y-106387721D02*
X107660800Y-106713279D01*
X106640800Y-106387721D02*
X106640800Y-106713279D01*
X226261200Y-71790779D02*
X226261200Y-71465221D01*
X227281200Y-71790779D02*
X227281200Y-71465221D01*
X237487779Y-71041800D02*
X237162221Y-71041800D01*
X237487779Y-72061800D02*
X237162221Y-72061800D01*
X152075000Y-110600000D02*
X153575000Y-110600000D01*
X153575000Y-110600000D02*
X153575000Y-109650000D01*
X153575000Y-109650000D02*
X158700000Y-109650000D01*
X152075000Y-100200000D02*
X153575000Y-100200000D01*
X153575000Y-100200000D02*
X153575000Y-101150000D01*
X153575000Y-101150000D02*
X154675000Y-101150000D01*
X175500800Y-81751200D02*
X175500800Y-80491200D01*
X175500800Y-74931200D02*
X175500800Y-76191200D01*
X171740800Y-81751200D02*
X175500800Y-81751200D01*
X169490800Y-74931200D02*
X175500800Y-74931200D01*
D12*
X225256400Y-90365900D02*
X220766770Y-90365900D01*
X220766770Y-90365900D02*
X220056400Y-91076280D01*
X220056400Y-91076280D02*
X220056400Y-100565900D01*
X220056400Y-100565900D02*
X225256400Y-100565900D01*
X225256400Y-100565900D02*
X225256400Y-90365900D01*
D13*
X219862400Y-90385900D02*
G75*
G03X219862400Y-90385900I-381000J0D01*
G01*
D11*
X83700000Y-127310000D02*
X86150000Y-127310000D01*
X85500000Y-124090000D02*
X83700000Y-124090000D01*
X239620700Y-68078100D02*
X239620700Y-66278100D01*
X236400700Y-66278100D02*
X236400700Y-68728100D01*
X124800000Y-63427000D02*
X124800000Y-61627000D01*
X121580000Y-61627000D02*
X121580000Y-64077000D01*
X178835000Y-65200000D02*
X178835000Y-63250000D01*
X178835000Y-65200000D02*
X178835000Y-67150000D01*
X169965000Y-65200000D02*
X169965000Y-63250000D01*
X169965000Y-65200000D02*
X169965000Y-68650000D01*
X215686760Y-78843600D02*
X214756760Y-78843600D01*
X212526760Y-78843600D02*
X213456760Y-78843600D01*
X212526760Y-78843600D02*
X212526760Y-81003600D01*
X215686760Y-78843600D02*
X215686760Y-80303600D01*
X154796248Y-54430000D02*
X159203752Y-54430000D01*
X154796248Y-59770000D02*
X159203752Y-59770000D01*
X160290000Y-112320000D02*
X160290000Y-98350000D01*
X167910000Y-112320000D02*
X160290000Y-112320000D01*
X167910000Y-98350000D02*
X167910000Y-112320000D01*
X160290000Y-98350000D02*
X167910000Y-98350000D01*
X163500000Y-65600000D02*
X163500000Y-77100000D01*
X162850000Y-64950000D02*
X160100000Y-64950000D01*
X150700000Y-77100000D02*
X150700000Y-65600000D01*
X162850000Y-77750000D02*
X160100000Y-77750000D01*
X154100000Y-64950000D02*
X151350000Y-64950000D01*
X154100000Y-77750000D02*
X151350000Y-77750000D01*
X162850000Y-64950000D02*
G75*
G02X163500000Y-65600000I0J-650000D01*
G01*
X150700000Y-65600000D02*
G75*
G02X151350000Y-64950000I650000J0D01*
G01*
X151350000Y-77750000D02*
G75*
G02X150700000Y-77100000I0J650000D01*
G01*
X163500000Y-77100000D02*
G75*
G02X162850000Y-77750000I-650000J0D01*
G01*
D10*
X188749500Y-123879300D02*
X188749500Y-124882500D01*
X184249500Y-123879300D02*
X184249500Y-124882500D01*
X184249500Y-123879300D02*
X188749500Y-123879300D01*
X175069500Y-125158500D02*
X174307500Y-126047500D01*
X174307500Y-126047500D02*
X175831500Y-126047500D01*
X175831500Y-126047500D02*
X175069500Y-125158500D01*
X202949500Y-124882500D02*
X202949500Y-115782500D01*
X170049500Y-115782500D02*
X202949500Y-115782500D01*
X170049500Y-124882500D02*
X202949500Y-124882500D01*
X170049500Y-124882500D02*
X170049500Y-115782500D01*
D13*
X163822000Y-37716000D02*
X163822000Y-38216000D01*
X163822000Y-37716000D02*
X164322000Y-37716000D01*
X179322000Y-37716000D02*
X179322000Y-38216000D01*
X179322000Y-37716000D02*
X178822000Y-37716000D01*
X163822000Y-55716000D02*
X163822000Y-55216000D01*
X163822000Y-55716000D02*
X164322000Y-55716000D01*
X179322000Y-55716000D02*
X179322000Y-55216000D01*
X179322000Y-55716000D02*
X178822000Y-55716000D01*
D11*
X187530000Y-58640000D02*
X187530000Y-60100000D01*
X184370000Y-58640000D02*
X184370000Y-60800000D01*
X184370000Y-58640000D02*
X185300000Y-58640000D01*
X187530000Y-58640000D02*
X186600000Y-58640000D01*
X187180000Y-63840000D02*
X186250000Y-63840000D01*
X184020000Y-63840000D02*
X184950000Y-63840000D01*
X184020000Y-63840000D02*
X184020000Y-66000000D01*
X187180000Y-63840000D02*
X187180000Y-65300000D01*
X238249000Y-125333000D02*
X238249000Y-123333000D01*
X241049000Y-125333000D02*
X238249000Y-125333000D01*
X241049000Y-123333000D02*
X241049000Y-125333000D01*
X238249000Y-123333000D02*
X241049000Y-123333000D01*
X196585080Y-57968840D02*
G75*
G02X194585080Y-57968840I-1000000J0D01*
G01*
X194585080Y-57968840D02*
X192935080Y-57968840D01*
X192935080Y-57968840D02*
X192935080Y-68248840D01*
X192935080Y-68248840D02*
X198235080Y-68248840D01*
X198235080Y-68248840D02*
X198235080Y-57968840D01*
X198235080Y-57968840D02*
X196585080Y-57968840D01*
X190445080Y-57908840D02*
X190445080Y-68308840D01*
X190445080Y-68308840D02*
X200725080Y-68308840D01*
X200725080Y-68308840D02*
X200725080Y-57908840D01*
X200725080Y-57908840D02*
X190445080Y-57908840D01*
X150320000Y-69100000D02*
G75*
G03X150320000Y-69100000I-6620000J0D01*
G01*
X143700000Y-75680000D02*
X143700000Y-62520000D01*
X143660000Y-75680000D02*
X143660000Y-62520000D01*
X143620000Y-75680000D02*
X143620000Y-62520000D01*
X143580000Y-75679000D02*
X143580000Y-62521000D01*
X143540000Y-75679000D02*
X143540000Y-62521000D01*
X143500000Y-75677000D02*
X143500000Y-62523000D01*
X143460000Y-75676000D02*
X143460000Y-62524000D01*
X143420000Y-75675000D02*
X143420000Y-62525000D01*
X143380000Y-75673000D02*
X143380000Y-62527000D01*
X143340000Y-75671000D02*
X143340000Y-62529000D01*
X143300000Y-75668000D02*
X143300000Y-62532000D01*
X143260000Y-75666000D02*
X143260000Y-62534000D01*
X143220000Y-75663000D02*
X143220000Y-62537000D01*
X143180000Y-75660000D02*
X143180000Y-62540000D01*
X143140000Y-75657000D02*
X143140000Y-62543000D01*
X143100000Y-75653000D02*
X143100000Y-62547000D01*
X143060000Y-75649000D02*
X143060000Y-62551000D01*
X143020000Y-75645000D02*
X143020000Y-62555000D01*
X142979000Y-75641000D02*
X142979000Y-62559000D01*
X142939000Y-75637000D02*
X142939000Y-62563000D01*
X142899000Y-75632000D02*
X142899000Y-62568000D01*
X142859000Y-75627000D02*
X142859000Y-62573000D01*
X142819000Y-75622000D02*
X142819000Y-62578000D01*
X142779000Y-75616000D02*
X142779000Y-62584000D01*
X142739000Y-75611000D02*
X142739000Y-62589000D01*
X142699000Y-75605000D02*
X142699000Y-62595000D01*
X142659000Y-75598000D02*
X142659000Y-62602000D01*
X142619000Y-75592000D02*
X142619000Y-70540000D01*
X142619000Y-67660000D02*
X142619000Y-62608000D01*
X142579000Y-75585000D02*
X142579000Y-70540000D01*
X142579000Y-67660000D02*
X142579000Y-62615000D01*
X142539000Y-75578000D02*
X142539000Y-70540000D01*
X142539000Y-67660000D02*
X142539000Y-62622000D01*
X142499000Y-75571000D02*
X142499000Y-70540000D01*
X142499000Y-67660000D02*
X142499000Y-62629000D01*
X142459000Y-75563000D02*
X142459000Y-70540000D01*
X142459000Y-67660000D02*
X142459000Y-62637000D01*
X142419000Y-75556000D02*
X142419000Y-70540000D01*
X142419000Y-67660000D02*
X142419000Y-62644000D01*
X142379000Y-75548000D02*
X142379000Y-70540000D01*
X142379000Y-67660000D02*
X142379000Y-62652000D01*
X142339000Y-75539000D02*
X142339000Y-70540000D01*
X142339000Y-67660000D02*
X142339000Y-62661000D01*
X142299000Y-75531000D02*
X142299000Y-70540000D01*
X142299000Y-67660000D02*
X142299000Y-62669000D01*
X142259000Y-75522000D02*
X142259000Y-70540000D01*
X142259000Y-67660000D02*
X142259000Y-62678000D01*
X142219000Y-75513000D02*
X142219000Y-70540000D01*
X142219000Y-67660000D02*
X142219000Y-62687000D01*
X142179000Y-75504000D02*
X142179000Y-70540000D01*
X142179000Y-67660000D02*
X142179000Y-62696000D01*
X142139000Y-75494000D02*
X142139000Y-70540000D01*
X142139000Y-67660000D02*
X142139000Y-62706000D01*
X142099000Y-75484000D02*
X142099000Y-70540000D01*
X142099000Y-67660000D02*
X142099000Y-62716000D01*
X142059000Y-75474000D02*
X142059000Y-70540000D01*
X142059000Y-67660000D02*
X142059000Y-62726000D01*
X142019000Y-75464000D02*
X142019000Y-70540000D01*
X142019000Y-67660000D02*
X142019000Y-62736000D01*
X141979000Y-75453000D02*
X141979000Y-70540000D01*
X141979000Y-67660000D02*
X141979000Y-62747000D01*
X141939000Y-75442000D02*
X141939000Y-70540000D01*
X141939000Y-67660000D02*
X141939000Y-62758000D01*
X141899000Y-75431000D02*
X141899000Y-70540000D01*
X141899000Y-67660000D02*
X141899000Y-62769000D01*
X141859000Y-75420000D02*
X141859000Y-70540000D01*
X141859000Y-67660000D02*
X141859000Y-62780000D01*
X141819000Y-75408000D02*
X141819000Y-70540000D01*
X141819000Y-67660000D02*
X141819000Y-62792000D01*
X141779000Y-75396000D02*
X141779000Y-70540000D01*
X141779000Y-67660000D02*
X141779000Y-62804000D01*
X141739000Y-75384000D02*
X141739000Y-70540000D01*
X141739000Y-67660000D02*
X141739000Y-62816000D01*
X141699000Y-75371000D02*
X141699000Y-70540000D01*
X141699000Y-67660000D02*
X141699000Y-62829000D01*
X141659000Y-75358000D02*
X141659000Y-70540000D01*
X141659000Y-67660000D02*
X141659000Y-62842000D01*
X141619000Y-75345000D02*
X141619000Y-70540000D01*
X141619000Y-67660000D02*
X141619000Y-62855000D01*
X141579000Y-75332000D02*
X141579000Y-70540000D01*
X141579000Y-67660000D02*
X141579000Y-62868000D01*
X141539000Y-75318000D02*
X141539000Y-70540000D01*
X141539000Y-67660000D02*
X141539000Y-62882000D01*
X141499000Y-75304000D02*
X141499000Y-70540000D01*
X141499000Y-67660000D02*
X141499000Y-62896000D01*
X141459000Y-75290000D02*
X141459000Y-70540000D01*
X141459000Y-67660000D02*
X141459000Y-62910000D01*
X141419000Y-75275000D02*
X141419000Y-70540000D01*
X141419000Y-67660000D02*
X141419000Y-62925000D01*
X141379000Y-75261000D02*
X141379000Y-70540000D01*
X141379000Y-67660000D02*
X141379000Y-62939000D01*
X141339000Y-75246000D02*
X141339000Y-70540000D01*
X141339000Y-67660000D02*
X141339000Y-62954000D01*
X141299000Y-75230000D02*
X141299000Y-70540000D01*
X141299000Y-67660000D02*
X141299000Y-62970000D01*
X141259000Y-75214000D02*
X141259000Y-70540000D01*
X141259000Y-67660000D02*
X141259000Y-62986000D01*
X141219000Y-75198000D02*
X141219000Y-70540000D01*
X141219000Y-67660000D02*
X141219000Y-63002000D01*
X141179000Y-75182000D02*
X141179000Y-70540000D01*
X141179000Y-67660000D02*
X141179000Y-63018000D01*
X141139000Y-75165000D02*
X141139000Y-70540000D01*
X141139000Y-67660000D02*
X141139000Y-63035000D01*
X141099000Y-75149000D02*
X141099000Y-70540000D01*
X141099000Y-67660000D02*
X141099000Y-63051000D01*
X141059000Y-75131000D02*
X141059000Y-70540000D01*
X141059000Y-67660000D02*
X141059000Y-63069000D01*
X141019000Y-75114000D02*
X141019000Y-70540000D01*
X141019000Y-67660000D02*
X141019000Y-63086000D01*
X140979000Y-75096000D02*
X140979000Y-70540000D01*
X140979000Y-67660000D02*
X140979000Y-63104000D01*
X140939000Y-75078000D02*
X140939000Y-70540000D01*
X140939000Y-67660000D02*
X140939000Y-63122000D01*
X140899000Y-75059000D02*
X140899000Y-70540000D01*
X140899000Y-67660000D02*
X140899000Y-63141000D01*
X140859000Y-75040000D02*
X140859000Y-70540000D01*
X140859000Y-67660000D02*
X140859000Y-63160000D01*
X140819000Y-75021000D02*
X140819000Y-70540000D01*
X140819000Y-67660000D02*
X140819000Y-63179000D01*
X140779000Y-75002000D02*
X140779000Y-70540000D01*
X140779000Y-67660000D02*
X140779000Y-63198000D01*
X140739000Y-74982000D02*
X140739000Y-70540000D01*
X140739000Y-67660000D02*
X140739000Y-63218000D01*
X140699000Y-74962000D02*
X140699000Y-70540000D01*
X140699000Y-67660000D02*
X140699000Y-63238000D01*
X140659000Y-74941000D02*
X140659000Y-70540000D01*
X140659000Y-67660000D02*
X140659000Y-63259000D01*
X140619000Y-74920000D02*
X140619000Y-70540000D01*
X140619000Y-67660000D02*
X140619000Y-63280000D01*
X140579000Y-74899000D02*
X140579000Y-70540000D01*
X140579000Y-67660000D02*
X140579000Y-63301000D01*
X140539000Y-74878000D02*
X140539000Y-70540000D01*
X140539000Y-67660000D02*
X140539000Y-63322000D01*
X140499000Y-74856000D02*
X140499000Y-70540000D01*
X140499000Y-67660000D02*
X140499000Y-63344000D01*
X140459000Y-74833000D02*
X140459000Y-70540000D01*
X140459000Y-67660000D02*
X140459000Y-63367000D01*
X140419000Y-74811000D02*
X140419000Y-70540000D01*
X140419000Y-67660000D02*
X140419000Y-63389000D01*
X140379000Y-74788000D02*
X140379000Y-70540000D01*
X140379000Y-67660000D02*
X140379000Y-63412000D01*
X140339000Y-74764000D02*
X140339000Y-70540000D01*
X140339000Y-67660000D02*
X140339000Y-63436000D01*
X140299000Y-74741000D02*
X140299000Y-70540000D01*
X140299000Y-67660000D02*
X140299000Y-63459000D01*
X140259000Y-74717000D02*
X140259000Y-70540000D01*
X140259000Y-67660000D02*
X140259000Y-63483000D01*
X140219000Y-74692000D02*
X140219000Y-70540000D01*
X140219000Y-67660000D02*
X140219000Y-63508000D01*
X140179000Y-74667000D02*
X140179000Y-70540000D01*
X140179000Y-67660000D02*
X140179000Y-63533000D01*
X140139000Y-74642000D02*
X140139000Y-70540000D01*
X140139000Y-67660000D02*
X140139000Y-63558000D01*
X140099000Y-74616000D02*
X140099000Y-70540000D01*
X140099000Y-67660000D02*
X140099000Y-63584000D01*
X140059000Y-74590000D02*
X140059000Y-70540000D01*
X140059000Y-67660000D02*
X140059000Y-63610000D01*
X140019000Y-74563000D02*
X140019000Y-70540000D01*
X140019000Y-67660000D02*
X140019000Y-63637000D01*
X139979000Y-74536000D02*
X139979000Y-70540000D01*
X139979000Y-67660000D02*
X139979000Y-63664000D01*
X139939000Y-74509000D02*
X139939000Y-70540000D01*
X139939000Y-67660000D02*
X139939000Y-63691000D01*
X139899000Y-74481000D02*
X139899000Y-70540000D01*
X139899000Y-67660000D02*
X139899000Y-63719000D01*
X139859000Y-74453000D02*
X139859000Y-70540000D01*
X139859000Y-67660000D02*
X139859000Y-63747000D01*
X139819000Y-74424000D02*
X139819000Y-70540000D01*
X139819000Y-67660000D02*
X139819000Y-63776000D01*
X139779000Y-74395000D02*
X139779000Y-70540000D01*
X139779000Y-67660000D02*
X139779000Y-63805000D01*
X139739000Y-74365000D02*
X139739000Y-63835000D01*
X139699000Y-74335000D02*
X139699000Y-63865000D01*
X139659000Y-74305000D02*
X139659000Y-63895000D01*
X139619000Y-74274000D02*
X139619000Y-63926000D01*
X139579000Y-74242000D02*
X139579000Y-63958000D01*
X139539000Y-74210000D02*
X139539000Y-63990000D01*
X139499000Y-74178000D02*
X139499000Y-64022000D01*
X139459000Y-74144000D02*
X139459000Y-64056000D01*
X139419000Y-74111000D02*
X139419000Y-64089000D01*
X139379000Y-74077000D02*
X139379000Y-64123000D01*
X139339000Y-74042000D02*
X139339000Y-64158000D01*
X139299000Y-74007000D02*
X139299000Y-64193000D01*
X139259000Y-73971000D02*
X139259000Y-64229000D01*
X139219000Y-73934000D02*
X139219000Y-64266000D01*
X139179000Y-73897000D02*
X139179000Y-64303000D01*
X139139000Y-73860000D02*
X139139000Y-64340000D01*
X139099000Y-73821000D02*
X139099000Y-64379000D01*
X139059000Y-73782000D02*
X139059000Y-64418000D01*
X139019000Y-73743000D02*
X139019000Y-64457000D01*
X138979000Y-73702000D02*
X138979000Y-64498000D01*
X138939000Y-73661000D02*
X138939000Y-64539000D01*
X138899000Y-73619000D02*
X138899000Y-64581000D01*
X138859000Y-73577000D02*
X138859000Y-64623000D01*
X138819000Y-73534000D02*
X138819000Y-64666000D01*
X138779000Y-73490000D02*
X138779000Y-64710000D01*
X138739000Y-73445000D02*
X138739000Y-64755000D01*
X138699000Y-73399000D02*
X138699000Y-64801000D01*
X138659000Y-73353000D02*
X138659000Y-64847000D01*
X138619000Y-73305000D02*
X138619000Y-64895000D01*
X138579000Y-73257000D02*
X138579000Y-64943000D01*
X138539000Y-73208000D02*
X138539000Y-64992000D01*
X138499000Y-73157000D02*
X138499000Y-65043000D01*
X138459000Y-73106000D02*
X138459000Y-65094000D01*
X138419000Y-73054000D02*
X138419000Y-65146000D01*
X138379000Y-73000000D02*
X138379000Y-65200000D01*
X138339000Y-72946000D02*
X138339000Y-65254000D01*
X138299000Y-72890000D02*
X138299000Y-65310000D01*
X138259000Y-72833000D02*
X138259000Y-65367000D01*
X138219000Y-72775000D02*
X138219000Y-65425000D01*
X138179000Y-72715000D02*
X138179000Y-65485000D01*
X138139000Y-72654000D02*
X138139000Y-65546000D01*
X138099000Y-72591000D02*
X138099000Y-65609000D01*
X138059000Y-72527000D02*
X138059000Y-65673000D01*
X138019000Y-72461000D02*
X138019000Y-65739000D01*
X137979000Y-72393000D02*
X137979000Y-65807000D01*
X137939000Y-72323000D02*
X137939000Y-65877000D01*
X137899000Y-72252000D02*
X137899000Y-65948000D01*
X137859000Y-72178000D02*
X137859000Y-66022000D01*
X137819000Y-72102000D02*
X137819000Y-66098000D01*
X137779000Y-72023000D02*
X137779000Y-66177000D01*
X137739000Y-71942000D02*
X137739000Y-66258000D01*
X137699000Y-71858000D02*
X137699000Y-66342000D01*
X137659000Y-71770000D02*
X137659000Y-66430000D01*
X137619000Y-71679000D02*
X137619000Y-66521000D01*
X137579000Y-71584000D02*
X137579000Y-66616000D01*
X137539000Y-71485000D02*
X137539000Y-66715000D01*
X137499000Y-71381000D02*
X137499000Y-66819000D01*
X137459000Y-71271000D02*
X137459000Y-66929000D01*
X137419000Y-71155000D02*
X137419000Y-67045000D01*
X137379000Y-71031000D02*
X137379000Y-67169000D01*
X137339000Y-70898000D02*
X137339000Y-67302000D01*
X137299000Y-70753000D02*
X137299000Y-67447000D01*
X137259000Y-70594000D02*
X137259000Y-67606000D01*
X137219000Y-70415000D02*
X137219000Y-67785000D01*
X137179000Y-70207000D02*
X137179000Y-67993000D01*
X137139000Y-69950000D02*
X137139000Y-68250000D01*
X137099000Y-69575000D02*
X137099000Y-68625000D01*
X150784569Y-72815000D02*
X149484569Y-72815000D01*
X150134569Y-73465000D02*
X150134569Y-72165000D01*
X149540000Y-88140000D02*
X149540000Y-92190000D01*
X149540000Y-98660000D02*
X149540000Y-94610000D01*
X158995563Y-98660000D02*
X149540000Y-98660000D01*
X158995563Y-88140000D02*
X149540000Y-88140000D01*
X160060000Y-89204437D02*
X160060000Y-92190000D01*
X160060000Y-97595563D02*
X160060000Y-94610000D01*
X160060000Y-97595563D02*
X158995563Y-98660000D01*
X160060000Y-89204437D02*
X158995563Y-88140000D01*
X161550000Y-95860000D02*
X160300000Y-95860000D01*
X160925000Y-96485000D02*
X160925000Y-95235000D01*
X169200000Y-106400000D02*
X169200000Y-112100000D01*
X169200000Y-112100000D02*
X172200000Y-112100000D01*
X172200000Y-112100000D02*
X172200000Y-106400000D01*
X149340000Y-111640000D02*
X149340000Y-115690000D01*
X149340000Y-122160000D02*
X149340000Y-118110000D01*
X158795563Y-122160000D02*
X149340000Y-122160000D01*
X158795563Y-111640000D02*
X149340000Y-111640000D01*
X159860000Y-112704437D02*
X159860000Y-115690000D01*
X159860000Y-121095563D02*
X159860000Y-118110000D01*
X159860000Y-121095563D02*
X158795563Y-122160000D01*
X159860000Y-112704437D02*
X158795563Y-111640000D01*
X161350000Y-119360000D02*
X160100000Y-119360000D01*
X160725000Y-119985000D02*
X160725000Y-118735000D01*
X209615120Y-105509280D02*
X209615120Y-106209280D01*
X209615120Y-109029280D02*
X209615120Y-108329280D01*
X212245683Y-109029280D02*
X209615120Y-109029280D01*
X212245683Y-105509280D02*
X209615120Y-105509280D01*
X212945683Y-108329280D02*
X212245683Y-109029280D01*
X212945683Y-106209280D02*
X212245683Y-105509280D01*
X213750120Y-108704280D02*
X213375120Y-108704280D01*
X213562620Y-108891780D02*
X213562620Y-108516780D01*
X213562620Y-112818620D02*
X213562620Y-112443620D01*
X213750120Y-112631120D02*
X213375120Y-112631120D01*
X212945683Y-110136120D02*
X212245683Y-109436120D01*
X212945683Y-112256120D02*
X212245683Y-112956120D01*
X212245683Y-109436120D02*
X209615120Y-109436120D01*
X212245683Y-112956120D02*
X209615120Y-112956120D01*
X209615120Y-112956120D02*
X209615120Y-112256120D01*
X209615120Y-109436120D02*
X209615120Y-110136120D01*
X243568000Y-71228300D02*
X242868000Y-71228300D01*
X240048000Y-71228300D02*
X240748000Y-71228300D01*
X240048000Y-73858863D02*
X240048000Y-71228300D01*
X243568000Y-73858863D02*
X243568000Y-71228300D01*
X240748000Y-74558863D02*
X240048000Y-73858863D01*
X242868000Y-74558863D02*
X243568000Y-73858863D01*
X240373000Y-75363300D02*
X240373000Y-74988300D01*
X240185500Y-75175800D02*
X240560500Y-75175800D01*
X173310000Y-59649721D02*
X173310000Y-59975279D01*
X172290000Y-59649721D02*
X172290000Y-59975279D01*
X171510000Y-59649721D02*
X171510000Y-59975279D01*
X170490000Y-59649721D02*
X170490000Y-59975279D01*
X177510000Y-57449721D02*
X177510000Y-57775279D01*
X176490000Y-57449721D02*
X176490000Y-57775279D01*
X174290000Y-57449721D02*
X174290000Y-57775279D01*
X175310000Y-57449721D02*
X175310000Y-57775279D01*
X172150279Y-56890000D02*
X171824721Y-56890000D01*
X172150279Y-57910000D02*
X171824721Y-57910000D01*
X189510000Y-56849721D02*
X189510000Y-57175279D01*
X188490000Y-56849721D02*
X188490000Y-57175279D01*
X181805121Y-56953880D02*
X182130679Y-56953880D01*
X181805121Y-55933880D02*
X182130679Y-55933880D01*
X241177721Y-66520600D02*
X241503279Y-66520600D01*
X241177721Y-67540600D02*
X241503279Y-67540600D01*
X192064421Y-55878000D02*
X192389979Y-55878000D01*
X192064421Y-56898000D02*
X192389979Y-56898000D01*
X200817550Y-99477530D02*
X200817550Y-98690030D01*
X201211300Y-99083780D02*
X200423800Y-99083780D01*
X200183800Y-94890717D02*
X199119363Y-93826280D01*
X200183800Y-99581843D02*
X199119363Y-100646280D01*
X200183800Y-99581843D02*
X200183800Y-98296280D01*
X200183800Y-94890717D02*
X200183800Y-96176280D01*
X199119363Y-93826280D02*
X193363800Y-93826280D01*
X199119363Y-100646280D02*
X193363800Y-100646280D01*
X193363800Y-100646280D02*
X193363800Y-98296280D01*
X193363800Y-93826280D02*
X193363800Y-96176280D01*
X193399360Y-104961640D02*
X193399360Y-107311640D01*
X193399360Y-111781640D02*
X193399360Y-109431640D01*
X199154923Y-111781640D02*
X193399360Y-111781640D01*
X199154923Y-104961640D02*
X193399360Y-104961640D01*
X200219360Y-106026077D02*
X200219360Y-107311640D01*
X200219360Y-110717203D02*
X200219360Y-109431640D01*
X200219360Y-110717203D02*
X199154923Y-111781640D01*
X200219360Y-106026077D02*
X199154923Y-104961640D01*
X201246860Y-110219140D02*
X200459360Y-110219140D01*
X200853110Y-110612890D02*
X200853110Y-109825390D01*
D14*
X135085000Y-122730000D02*
X137235000Y-122730000D01*
X137235000Y-122730000D02*
X137235000Y-112730000D01*
X137235000Y-112730000D02*
X139735000Y-96880000D01*
X139735000Y-96880000D02*
X133185000Y-96880000D01*
X133185000Y-96880000D02*
X133185000Y-102328000D01*
X68535000Y-102130000D02*
X68535000Y-96880000D01*
X68535000Y-96880000D02*
X61735000Y-96880000D01*
X64235000Y-108698750D02*
X64235000Y-122730000D01*
X64235000Y-122730000D02*
X66635000Y-122730000D01*
D15*
X67585000Y-123230000D02*
G75*
G03X67585000Y-123230000I-100000J0D01*
G01*
D14*
X68535000Y-112030000D02*
X68535000Y-108880000D01*
X133185000Y-108730000D02*
X133185000Y-111880000D01*
D13*
X128265180Y-59816220D02*
X128265180Y-59316220D01*
X128265180Y-59816220D02*
X127765180Y-59816220D01*
X122265180Y-59816220D02*
X122765180Y-59816220D01*
X122265180Y-59816220D02*
X122265180Y-59316220D01*
X122265180Y-39916220D02*
X122265180Y-40416220D01*
X122265180Y-39916220D02*
X122765180Y-39916220D01*
X128265180Y-39916220D02*
X127765180Y-39916220D01*
X128265180Y-39916220D02*
X128265180Y-40416220D01*
D10*
X117822742Y-69235580D02*
X117489409Y-68759390D01*
X117251314Y-69235580D02*
X117251314Y-68235580D01*
X117632266Y-68235580D01*
X117727504Y-68283200D01*
X117775123Y-68330819D01*
X117822742Y-68426057D01*
X117822742Y-68568914D01*
X117775123Y-68664152D01*
X117727504Y-68711771D01*
X117632266Y-68759390D01*
X117251314Y-68759390D01*
X118203695Y-68330819D02*
X118251314Y-68283200D01*
X118346552Y-68235580D01*
X118584647Y-68235580D01*
X118679885Y-68283200D01*
X118727504Y-68330819D01*
X118775123Y-68426057D01*
X118775123Y-68521295D01*
X118727504Y-68664152D01*
X118156076Y-69235580D01*
X118775123Y-69235580D01*
X119251314Y-69235580D02*
X119441790Y-69235580D01*
X119537028Y-69187961D01*
X119584647Y-69140342D01*
X119679885Y-68997485D01*
X119727504Y-68807009D01*
X119727504Y-68426057D01*
X119679885Y-68330819D01*
X119632266Y-68283200D01*
X119537028Y-68235580D01*
X119346552Y-68235580D01*
X119251314Y-68283200D01*
X119203695Y-68330819D01*
X119156076Y-68426057D01*
X119156076Y-68664152D01*
X119203695Y-68759390D01*
X119251314Y-68807009D01*
X119346552Y-68854628D01*
X119537028Y-68854628D01*
X119632266Y-68807009D01*
X119679885Y-68759390D01*
X119727504Y-68664152D01*
X147966133Y-90171542D02*
X147918514Y-90219161D01*
X147775657Y-90266780D01*
X147680419Y-90266780D01*
X147537561Y-90219161D01*
X147442323Y-90123923D01*
X147394704Y-90028685D01*
X147347085Y-89838209D01*
X147347085Y-89695352D01*
X147394704Y-89504876D01*
X147442323Y-89409638D01*
X147537561Y-89314400D01*
X147680419Y-89266780D01*
X147775657Y-89266780D01*
X147918514Y-89314400D01*
X147966133Y-89362019D01*
X148823276Y-89266780D02*
X148632800Y-89266780D01*
X148537561Y-89314400D01*
X148489942Y-89362019D01*
X148394704Y-89504876D01*
X148347085Y-89695352D01*
X148347085Y-90076304D01*
X148394704Y-90171542D01*
X148442323Y-90219161D01*
X148537561Y-90266780D01*
X148728038Y-90266780D01*
X148823276Y-90219161D01*
X148870895Y-90171542D01*
X148918514Y-90076304D01*
X148918514Y-89838209D01*
X148870895Y-89742971D01*
X148823276Y-89695352D01*
X148728038Y-89647733D01*
X148537561Y-89647733D01*
X148442323Y-89695352D01*
X148394704Y-89742971D01*
X148347085Y-89838209D01*
X166625542Y-74963257D02*
X166673161Y-75010876D01*
X166720780Y-75153733D01*
X166720780Y-75248971D01*
X166673161Y-75391828D01*
X166577923Y-75487066D01*
X166482685Y-75534685D01*
X166292209Y-75582304D01*
X166149352Y-75582304D01*
X165958876Y-75534685D01*
X165863638Y-75487066D01*
X165768400Y-75391828D01*
X165720780Y-75248971D01*
X165720780Y-75153733D01*
X165768400Y-75010876D01*
X165816019Y-74963257D01*
X166720780Y-74010876D02*
X166720780Y-74582304D01*
X166720780Y-74296590D02*
X165720780Y-74296590D01*
X165863638Y-74391828D01*
X165958876Y-74487066D01*
X166006495Y-74582304D01*
X166720780Y-73058495D02*
X166720780Y-73629923D01*
X166720780Y-73344209D02*
X165720780Y-73344209D01*
X165863638Y-73439447D01*
X165958876Y-73534685D01*
X166006495Y-73629923D01*
X155128933Y-63958742D02*
X155081314Y-64006361D01*
X154938457Y-64053980D01*
X154843219Y-64053980D01*
X154700361Y-64006361D01*
X154605123Y-63911123D01*
X154557504Y-63815885D01*
X154509885Y-63625409D01*
X154509885Y-63482552D01*
X154557504Y-63292076D01*
X154605123Y-63196838D01*
X154700361Y-63101600D01*
X154843219Y-63053980D01*
X154938457Y-63053980D01*
X155081314Y-63101600D01*
X155128933Y-63149219D01*
X156081314Y-64053980D02*
X155509885Y-64053980D01*
X155795600Y-64053980D02*
X155795600Y-63053980D01*
X155700361Y-63196838D01*
X155605123Y-63292076D01*
X155509885Y-63339695D01*
X157845833Y-80671942D02*
X157798214Y-80719561D01*
X157655357Y-80767180D01*
X157560119Y-80767180D01*
X157417261Y-80719561D01*
X157322023Y-80624323D01*
X157274404Y-80529085D01*
X157226785Y-80338609D01*
X157226785Y-80195752D01*
X157274404Y-80005276D01*
X157322023Y-79910038D01*
X157417261Y-79814800D01*
X157560119Y-79767180D01*
X157655357Y-79767180D01*
X157798214Y-79814800D01*
X157845833Y-79862419D01*
X158702976Y-80100514D02*
X158702976Y-80767180D01*
X158464880Y-79719561D02*
X158226785Y-80433847D01*
X158845833Y-80433847D01*
X163171142Y-114111066D02*
X163218761Y-114158685D01*
X163266380Y-114301542D01*
X163266380Y-114396780D01*
X163218761Y-114539638D01*
X163123523Y-114634876D01*
X163028285Y-114682495D01*
X162837809Y-114730114D01*
X162694952Y-114730114D01*
X162504476Y-114682495D01*
X162409238Y-114634876D01*
X162314000Y-114539638D01*
X162266380Y-114396780D01*
X162266380Y-114301542D01*
X162314000Y-114158685D01*
X162361619Y-114111066D01*
X162266380Y-113206304D02*
X162266380Y-113682495D01*
X162742571Y-113730114D01*
X162694952Y-113682495D01*
X162647333Y-113587257D01*
X162647333Y-113349161D01*
X162694952Y-113253923D01*
X162742571Y-113206304D01*
X162837809Y-113158685D01*
X163075904Y-113158685D01*
X163171142Y-113206304D01*
X163218761Y-113253923D01*
X163266380Y-113349161D01*
X163266380Y-113587257D01*
X163218761Y-113682495D01*
X163171142Y-113730114D01*
X162987142Y-96754166D02*
X163034761Y-96801785D01*
X163082380Y-96944642D01*
X163082380Y-97039880D01*
X163034761Y-97182738D01*
X162939523Y-97277976D01*
X162844285Y-97325595D01*
X162653809Y-97373214D01*
X162510952Y-97373214D01*
X162320476Y-97325595D01*
X162225238Y-97277976D01*
X162130000Y-97182738D01*
X162082380Y-97039880D01*
X162082380Y-96944642D01*
X162130000Y-96801785D01*
X162177619Y-96754166D01*
X162082380Y-96420833D02*
X162082380Y-95754166D01*
X163082380Y-96182738D01*
X166117542Y-84697866D02*
X166165161Y-84745485D01*
X166212780Y-84888342D01*
X166212780Y-84983580D01*
X166165161Y-85126438D01*
X166069923Y-85221676D01*
X165974685Y-85269295D01*
X165784209Y-85316914D01*
X165641352Y-85316914D01*
X165450876Y-85269295D01*
X165355638Y-85221676D01*
X165260400Y-85126438D01*
X165212780Y-84983580D01*
X165212780Y-84888342D01*
X165260400Y-84745485D01*
X165308019Y-84697866D01*
X165641352Y-84126438D02*
X165593733Y-84221676D01*
X165546114Y-84269295D01*
X165450876Y-84316914D01*
X165403257Y-84316914D01*
X165308019Y-84269295D01*
X165260400Y-84221676D01*
X165212780Y-84126438D01*
X165212780Y-83935961D01*
X165260400Y-83840723D01*
X165308019Y-83793104D01*
X165403257Y-83745485D01*
X165450876Y-83745485D01*
X165546114Y-83793104D01*
X165593733Y-83840723D01*
X165641352Y-83935961D01*
X165641352Y-84126438D01*
X165688971Y-84221676D01*
X165736590Y-84269295D01*
X165831828Y-84316914D01*
X166022304Y-84316914D01*
X166117542Y-84269295D01*
X166165161Y-84221676D01*
X166212780Y-84126438D01*
X166212780Y-83935961D01*
X166165161Y-83840723D01*
X166117542Y-83793104D01*
X166022304Y-83745485D01*
X165831828Y-83745485D01*
X165736590Y-83793104D01*
X165688971Y-83840723D01*
X165641352Y-83935961D01*
X168352742Y-84240666D02*
X168400361Y-84288285D01*
X168447980Y-84431142D01*
X168447980Y-84526380D01*
X168400361Y-84669238D01*
X168305123Y-84764476D01*
X168209885Y-84812095D01*
X168019409Y-84859714D01*
X167876552Y-84859714D01*
X167686076Y-84812095D01*
X167590838Y-84764476D01*
X167495600Y-84669238D01*
X167447980Y-84526380D01*
X167447980Y-84431142D01*
X167495600Y-84288285D01*
X167543219Y-84240666D01*
X168447980Y-83764476D02*
X168447980Y-83574000D01*
X168400361Y-83478761D01*
X168352742Y-83431142D01*
X168209885Y-83335904D01*
X168019409Y-83288285D01*
X167638457Y-83288285D01*
X167543219Y-83335904D01*
X167495600Y-83383523D01*
X167447980Y-83478761D01*
X167447980Y-83669238D01*
X167495600Y-83764476D01*
X167543219Y-83812095D01*
X167638457Y-83859714D01*
X167876552Y-83859714D01*
X167971790Y-83812095D01*
X168019409Y-83764476D01*
X168067028Y-83669238D01*
X168067028Y-83478761D01*
X168019409Y-83383523D01*
X167971790Y-83335904D01*
X167876552Y-83288285D01*
X168555942Y-75014057D02*
X168603561Y-75061676D01*
X168651180Y-75204533D01*
X168651180Y-75299771D01*
X168603561Y-75442628D01*
X168508323Y-75537866D01*
X168413085Y-75585485D01*
X168222609Y-75633104D01*
X168079752Y-75633104D01*
X167889276Y-75585485D01*
X167794038Y-75537866D01*
X167698800Y-75442628D01*
X167651180Y-75299771D01*
X167651180Y-75204533D01*
X167698800Y-75061676D01*
X167746419Y-75014057D01*
X168651180Y-74061676D02*
X168651180Y-74633104D01*
X168651180Y-74347390D02*
X167651180Y-74347390D01*
X167794038Y-74442628D01*
X167889276Y-74537866D01*
X167936895Y-74633104D01*
X167651180Y-73442628D02*
X167651180Y-73347390D01*
X167698800Y-73252152D01*
X167746419Y-73204533D01*
X167841657Y-73156914D01*
X168032133Y-73109295D01*
X168270228Y-73109295D01*
X168460704Y-73156914D01*
X168555942Y-73204533D01*
X168603561Y-73252152D01*
X168651180Y-73347390D01*
X168651180Y-73442628D01*
X168603561Y-73537866D01*
X168555942Y-73585485D01*
X168460704Y-73633104D01*
X168270228Y-73680723D01*
X168032133Y-73680723D01*
X167841657Y-73633104D01*
X167746419Y-73585485D01*
X167698800Y-73537866D01*
X167651180Y-73442628D01*
X209500742Y-99906057D02*
X209548361Y-99953676D01*
X209595980Y-100096533D01*
X209595980Y-100191771D01*
X209548361Y-100334628D01*
X209453123Y-100429866D01*
X209357885Y-100477485D01*
X209167409Y-100525104D01*
X209024552Y-100525104D01*
X208834076Y-100477485D01*
X208738838Y-100429866D01*
X208643600Y-100334628D01*
X208595980Y-100191771D01*
X208595980Y-100096533D01*
X208643600Y-99953676D01*
X208691219Y-99906057D01*
X209595980Y-98953676D02*
X209595980Y-99525104D01*
X209595980Y-99239390D02*
X208595980Y-99239390D01*
X208738838Y-99334628D01*
X208834076Y-99429866D01*
X208881695Y-99525104D01*
X208691219Y-98572723D02*
X208643600Y-98525104D01*
X208595980Y-98429866D01*
X208595980Y-98191771D01*
X208643600Y-98096533D01*
X208691219Y-98048914D01*
X208786457Y-98001295D01*
X208881695Y-98001295D01*
X209024552Y-98048914D01*
X209595980Y-98620342D01*
X209595980Y-98001295D01*
X216155542Y-100261657D02*
X216203161Y-100309276D01*
X216250780Y-100452133D01*
X216250780Y-100547371D01*
X216203161Y-100690228D01*
X216107923Y-100785466D01*
X216012685Y-100833085D01*
X215822209Y-100880704D01*
X215679352Y-100880704D01*
X215488876Y-100833085D01*
X215393638Y-100785466D01*
X215298400Y-100690228D01*
X215250780Y-100547371D01*
X215250780Y-100452133D01*
X215298400Y-100309276D01*
X215346019Y-100261657D01*
X216250780Y-99309276D02*
X216250780Y-99880704D01*
X216250780Y-99594990D02*
X215250780Y-99594990D01*
X215393638Y-99690228D01*
X215488876Y-99785466D01*
X215536495Y-99880704D01*
X215250780Y-98404514D02*
X215250780Y-98880704D01*
X215726971Y-98928323D01*
X215679352Y-98880704D01*
X215631733Y-98785466D01*
X215631733Y-98547371D01*
X215679352Y-98452133D01*
X215726971Y-98404514D01*
X215822209Y-98356895D01*
X216060304Y-98356895D01*
X216155542Y-98404514D01*
X216203161Y-98452133D01*
X216250780Y-98547371D01*
X216250780Y-98785466D01*
X216203161Y-98880704D01*
X216155542Y-98928323D01*
X212209142Y-84685142D02*
X212161523Y-84732761D01*
X212018666Y-84780380D01*
X211923428Y-84780380D01*
X211780571Y-84732761D01*
X211685333Y-84637523D01*
X211637714Y-84542285D01*
X211590095Y-84351809D01*
X211590095Y-84208952D01*
X211637714Y-84018476D01*
X211685333Y-83923238D01*
X211780571Y-83828000D01*
X211923428Y-83780380D01*
X212018666Y-83780380D01*
X212161523Y-83828000D01*
X212209142Y-83875619D01*
X213161523Y-84780380D02*
X212590095Y-84780380D01*
X212875809Y-84780380D02*
X212875809Y-83780380D01*
X212780571Y-83923238D01*
X212685333Y-84018476D01*
X212590095Y-84066095D01*
X214018666Y-83780380D02*
X213828190Y-83780380D01*
X213732952Y-83828000D01*
X213685333Y-83875619D01*
X213590095Y-84018476D01*
X213542476Y-84208952D01*
X213542476Y-84589904D01*
X213590095Y-84685142D01*
X213637714Y-84732761D01*
X213732952Y-84780380D01*
X213923428Y-84780380D01*
X214018666Y-84732761D01*
X214066285Y-84685142D01*
X214113904Y-84589904D01*
X214113904Y-84351809D01*
X214066285Y-84256571D01*
X214018666Y-84208952D01*
X213923428Y-84161333D01*
X213732952Y-84161333D01*
X213637714Y-84208952D01*
X213590095Y-84256571D01*
X213542476Y-84351809D01*
X218949542Y-84361257D02*
X218997161Y-84408876D01*
X219044780Y-84551733D01*
X219044780Y-84646971D01*
X218997161Y-84789828D01*
X218901923Y-84885066D01*
X218806685Y-84932685D01*
X218616209Y-84980304D01*
X218473352Y-84980304D01*
X218282876Y-84932685D01*
X218187638Y-84885066D01*
X218092400Y-84789828D01*
X218044780Y-84646971D01*
X218044780Y-84551733D01*
X218092400Y-84408876D01*
X218140019Y-84361257D01*
X219044780Y-83408876D02*
X219044780Y-83980304D01*
X219044780Y-83694590D02*
X218044780Y-83694590D01*
X218187638Y-83789828D01*
X218282876Y-83885066D01*
X218330495Y-83980304D01*
X218044780Y-83075542D02*
X218044780Y-82408876D01*
X219044780Y-82837447D01*
X218000342Y-102922342D02*
X217952723Y-102969961D01*
X217809866Y-103017580D01*
X217714628Y-103017580D01*
X217571771Y-102969961D01*
X217476533Y-102874723D01*
X217428914Y-102779485D01*
X217381295Y-102589009D01*
X217381295Y-102446152D01*
X217428914Y-102255676D01*
X217476533Y-102160438D01*
X217571771Y-102065200D01*
X217714628Y-102017580D01*
X217809866Y-102017580D01*
X217952723Y-102065200D01*
X218000342Y-102112819D01*
X218952723Y-103017580D02*
X218381295Y-103017580D01*
X218667009Y-103017580D02*
X218667009Y-102017580D01*
X218571771Y-102160438D01*
X218476533Y-102255676D01*
X218381295Y-102303295D01*
X219524152Y-102446152D02*
X219428914Y-102398533D01*
X219381295Y-102350914D01*
X219333676Y-102255676D01*
X219333676Y-102208057D01*
X219381295Y-102112819D01*
X219428914Y-102065200D01*
X219524152Y-102017580D01*
X219714628Y-102017580D01*
X219809866Y-102065200D01*
X219857485Y-102112819D01*
X219905104Y-102208057D01*
X219905104Y-102255676D01*
X219857485Y-102350914D01*
X219809866Y-102398533D01*
X219714628Y-102446152D01*
X219524152Y-102446152D01*
X219428914Y-102493771D01*
X219381295Y-102541390D01*
X219333676Y-102636628D01*
X219333676Y-102827104D01*
X219381295Y-102922342D01*
X219428914Y-102969961D01*
X219524152Y-103017580D01*
X219714628Y-103017580D01*
X219809866Y-102969961D01*
X219857485Y-102922342D01*
X219905104Y-102827104D01*
X219905104Y-102636628D01*
X219857485Y-102541390D01*
X219809866Y-102493771D01*
X219714628Y-102446152D01*
X217543142Y-107545142D02*
X217495523Y-107592761D01*
X217352666Y-107640380D01*
X217257428Y-107640380D01*
X217114571Y-107592761D01*
X217019333Y-107497523D01*
X216971714Y-107402285D01*
X216924095Y-107211809D01*
X216924095Y-107068952D01*
X216971714Y-106878476D01*
X217019333Y-106783238D01*
X217114571Y-106688000D01*
X217257428Y-106640380D01*
X217352666Y-106640380D01*
X217495523Y-106688000D01*
X217543142Y-106735619D01*
X218495523Y-107640380D02*
X217924095Y-107640380D01*
X218209809Y-107640380D02*
X218209809Y-106640380D01*
X218114571Y-106783238D01*
X218019333Y-106878476D01*
X217924095Y-106926095D01*
X218971714Y-107640380D02*
X219162190Y-107640380D01*
X219257428Y-107592761D01*
X219305047Y-107545142D01*
X219400285Y-107402285D01*
X219447904Y-107211809D01*
X219447904Y-106830857D01*
X219400285Y-106735619D01*
X219352666Y-106688000D01*
X219257428Y-106640380D01*
X219066952Y-106640380D01*
X218971714Y-106688000D01*
X218924095Y-106735619D01*
X218876476Y-106830857D01*
X218876476Y-107068952D01*
X218924095Y-107164190D01*
X218971714Y-107211809D01*
X219066952Y-107259428D01*
X219257428Y-107259428D01*
X219352666Y-107211809D01*
X219400285Y-107164190D01*
X219447904Y-107068952D01*
X228414342Y-100229942D02*
X228366723Y-100277561D01*
X228223866Y-100325180D01*
X228128628Y-100325180D01*
X227985771Y-100277561D01*
X227890533Y-100182323D01*
X227842914Y-100087085D01*
X227795295Y-99896609D01*
X227795295Y-99753752D01*
X227842914Y-99563276D01*
X227890533Y-99468038D01*
X227985771Y-99372800D01*
X228128628Y-99325180D01*
X228223866Y-99325180D01*
X228366723Y-99372800D01*
X228414342Y-99420419D01*
X228795295Y-99420419D02*
X228842914Y-99372800D01*
X228938152Y-99325180D01*
X229176247Y-99325180D01*
X229271485Y-99372800D01*
X229319104Y-99420419D01*
X229366723Y-99515657D01*
X229366723Y-99610895D01*
X229319104Y-99753752D01*
X228747676Y-100325180D01*
X229366723Y-100325180D01*
X229747676Y-99420419D02*
X229795295Y-99372800D01*
X229890533Y-99325180D01*
X230128628Y-99325180D01*
X230223866Y-99372800D01*
X230271485Y-99420419D01*
X230319104Y-99515657D01*
X230319104Y-99610895D01*
X230271485Y-99753752D01*
X229700057Y-100325180D01*
X230319104Y-100325180D01*
X228617542Y-103328742D02*
X228569923Y-103376361D01*
X228427066Y-103423980D01*
X228331828Y-103423980D01*
X228188971Y-103376361D01*
X228093733Y-103281123D01*
X228046114Y-103185885D01*
X227998495Y-102995409D01*
X227998495Y-102852552D01*
X228046114Y-102662076D01*
X228093733Y-102566838D01*
X228188971Y-102471600D01*
X228331828Y-102423980D01*
X228427066Y-102423980D01*
X228569923Y-102471600D01*
X228617542Y-102519219D01*
X228998495Y-102519219D02*
X229046114Y-102471600D01*
X229141352Y-102423980D01*
X229379447Y-102423980D01*
X229474685Y-102471600D01*
X229522304Y-102519219D01*
X229569923Y-102614457D01*
X229569923Y-102709695D01*
X229522304Y-102852552D01*
X228950876Y-103423980D01*
X229569923Y-103423980D01*
X229903257Y-102423980D02*
X230522304Y-102423980D01*
X230188971Y-102804933D01*
X230331828Y-102804933D01*
X230427066Y-102852552D01*
X230474685Y-102900171D01*
X230522304Y-102995409D01*
X230522304Y-103233504D01*
X230474685Y-103328742D01*
X230427066Y-103376361D01*
X230331828Y-103423980D01*
X230046114Y-103423980D01*
X229950876Y-103376361D01*
X229903257Y-103328742D01*
X209547462Y-80385917D02*
X209595081Y-80433536D01*
X209642700Y-80576393D01*
X209642700Y-80671631D01*
X209595081Y-80814488D01*
X209499843Y-80909726D01*
X209404605Y-80957345D01*
X209214129Y-81004964D01*
X209071272Y-81004964D01*
X208880796Y-80957345D01*
X208785558Y-80909726D01*
X208690320Y-80814488D01*
X208642700Y-80671631D01*
X208642700Y-80576393D01*
X208690320Y-80433536D01*
X208737939Y-80385917D01*
X208737939Y-80004964D02*
X208690320Y-79957345D01*
X208642700Y-79862107D01*
X208642700Y-79624012D01*
X208690320Y-79528774D01*
X208737939Y-79481155D01*
X208833177Y-79433536D01*
X208928415Y-79433536D01*
X209071272Y-79481155D01*
X209642700Y-80052583D01*
X209642700Y-79433536D01*
X208976034Y-78576393D02*
X209642700Y-78576393D01*
X208595081Y-78814488D02*
X209309367Y-79052583D01*
X209309367Y-78433536D01*
X219060302Y-80197957D02*
X219107921Y-80245576D01*
X219155540Y-80388433D01*
X219155540Y-80483671D01*
X219107921Y-80626528D01*
X219012683Y-80721766D01*
X218917445Y-80769385D01*
X218726969Y-80817004D01*
X218584112Y-80817004D01*
X218393636Y-80769385D01*
X218298398Y-80721766D01*
X218203160Y-80626528D01*
X218155540Y-80483671D01*
X218155540Y-80388433D01*
X218203160Y-80245576D01*
X218250779Y-80197957D01*
X218250779Y-79817004D02*
X218203160Y-79769385D01*
X218155540Y-79674147D01*
X218155540Y-79436052D01*
X218203160Y-79340814D01*
X218250779Y-79293195D01*
X218346017Y-79245576D01*
X218441255Y-79245576D01*
X218584112Y-79293195D01*
X219155540Y-79864623D01*
X219155540Y-79245576D01*
X218155540Y-78340814D02*
X218155540Y-78817004D01*
X218631731Y-78864623D01*
X218584112Y-78817004D01*
X218536493Y-78721766D01*
X218536493Y-78483671D01*
X218584112Y-78388433D01*
X218631731Y-78340814D01*
X218726969Y-78293195D01*
X218965064Y-78293195D01*
X219060302Y-78340814D01*
X219107921Y-78388433D01*
X219155540Y-78483671D01*
X219155540Y-78721766D01*
X219107921Y-78817004D01*
X219060302Y-78864623D01*
X128419642Y-108907142D02*
X128372023Y-108954761D01*
X128229166Y-109002380D01*
X128133928Y-109002380D01*
X127991071Y-108954761D01*
X127895833Y-108859523D01*
X127848214Y-108764285D01*
X127800595Y-108573809D01*
X127800595Y-108430952D01*
X127848214Y-108240476D01*
X127895833Y-108145238D01*
X127991071Y-108050000D01*
X128133928Y-108002380D01*
X128229166Y-108002380D01*
X128372023Y-108050000D01*
X128419642Y-108097619D01*
X128752976Y-108002380D02*
X129372023Y-108002380D01*
X129038690Y-108383333D01*
X129181547Y-108383333D01*
X129276785Y-108430952D01*
X129324404Y-108478571D01*
X129372023Y-108573809D01*
X129372023Y-108811904D01*
X129324404Y-108907142D01*
X129276785Y-108954761D01*
X129181547Y-109002380D01*
X128895833Y-109002380D01*
X128800595Y-108954761D01*
X128752976Y-108907142D01*
X129991071Y-108002380D02*
X130086309Y-108002380D01*
X130181547Y-108050000D01*
X130229166Y-108097619D01*
X130276785Y-108192857D01*
X130324404Y-108383333D01*
X130324404Y-108621428D01*
X130276785Y-108811904D01*
X130229166Y-108907142D01*
X130181547Y-108954761D01*
X130086309Y-109002380D01*
X129991071Y-109002380D01*
X129895833Y-108954761D01*
X129848214Y-108907142D01*
X129800595Y-108811904D01*
X129752976Y-108621428D01*
X129752976Y-108383333D01*
X129800595Y-108192857D01*
X129848214Y-108097619D01*
X129895833Y-108050000D01*
X129991071Y-108002380D01*
X131741942Y-109170742D02*
X131694323Y-109218361D01*
X131551466Y-109265980D01*
X131456228Y-109265980D01*
X131313371Y-109218361D01*
X131218133Y-109123123D01*
X131170514Y-109027885D01*
X131122895Y-108837409D01*
X131122895Y-108694552D01*
X131170514Y-108504076D01*
X131218133Y-108408838D01*
X131313371Y-108313600D01*
X131456228Y-108265980D01*
X131551466Y-108265980D01*
X131694323Y-108313600D01*
X131741942Y-108361219D01*
X132075276Y-108265980D02*
X132694323Y-108265980D01*
X132360990Y-108646933D01*
X132503847Y-108646933D01*
X132599085Y-108694552D01*
X132646704Y-108742171D01*
X132694323Y-108837409D01*
X132694323Y-109075504D01*
X132646704Y-109170742D01*
X132599085Y-109218361D01*
X132503847Y-109265980D01*
X132218133Y-109265980D01*
X132122895Y-109218361D01*
X132075276Y-109170742D01*
X133646704Y-109265980D02*
X133075276Y-109265980D01*
X133360990Y-109265980D02*
X133360990Y-108265980D01*
X133265752Y-108408838D01*
X133170514Y-108504076D01*
X133075276Y-108551695D01*
X133316742Y-58573942D02*
X133269123Y-58621561D01*
X133126266Y-58669180D01*
X133031028Y-58669180D01*
X132888171Y-58621561D01*
X132792933Y-58526323D01*
X132745314Y-58431085D01*
X132697695Y-58240609D01*
X132697695Y-58097752D01*
X132745314Y-57907276D01*
X132792933Y-57812038D01*
X132888171Y-57716800D01*
X133031028Y-57669180D01*
X133126266Y-57669180D01*
X133269123Y-57716800D01*
X133316742Y-57764419D01*
X134173885Y-58002514D02*
X134173885Y-58669180D01*
X133935790Y-57621561D02*
X133697695Y-58335847D01*
X134316742Y-58335847D01*
X134840552Y-58097752D02*
X134745314Y-58050133D01*
X134697695Y-58002514D01*
X134650076Y-57907276D01*
X134650076Y-57859657D01*
X134697695Y-57764419D01*
X134745314Y-57716800D01*
X134840552Y-57669180D01*
X135031028Y-57669180D01*
X135126266Y-57716800D01*
X135173885Y-57764419D01*
X135221504Y-57859657D01*
X135221504Y-57907276D01*
X135173885Y-58002514D01*
X135126266Y-58050133D01*
X135031028Y-58097752D01*
X134840552Y-58097752D01*
X134745314Y-58145371D01*
X134697695Y-58192990D01*
X134650076Y-58288228D01*
X134650076Y-58478704D01*
X134697695Y-58573942D01*
X134745314Y-58621561D01*
X134840552Y-58669180D01*
X135031028Y-58669180D01*
X135126266Y-58621561D01*
X135173885Y-58573942D01*
X135221504Y-58478704D01*
X135221504Y-58288228D01*
X135173885Y-58192990D01*
X135126266Y-58145371D01*
X135031028Y-58097752D01*
X142968742Y-59894742D02*
X142921123Y-59942361D01*
X142778266Y-59989980D01*
X142683028Y-59989980D01*
X142540171Y-59942361D01*
X142444933Y-59847123D01*
X142397314Y-59751885D01*
X142349695Y-59561409D01*
X142349695Y-59418552D01*
X142397314Y-59228076D01*
X142444933Y-59132838D01*
X142540171Y-59037600D01*
X142683028Y-58989980D01*
X142778266Y-58989980D01*
X142921123Y-59037600D01*
X142968742Y-59085219D01*
X143825885Y-59323314D02*
X143825885Y-59989980D01*
X143587790Y-58942361D02*
X143349695Y-59656647D01*
X143968742Y-59656647D01*
X144397314Y-59989980D02*
X144587790Y-59989980D01*
X144683028Y-59942361D01*
X144730647Y-59894742D01*
X144825885Y-59751885D01*
X144873504Y-59561409D01*
X144873504Y-59180457D01*
X144825885Y-59085219D01*
X144778266Y-59037600D01*
X144683028Y-58989980D01*
X144492552Y-58989980D01*
X144397314Y-59037600D01*
X144349695Y-59085219D01*
X144302076Y-59180457D01*
X144302076Y-59418552D01*
X144349695Y-59513790D01*
X144397314Y-59561409D01*
X144492552Y-59609028D01*
X144683028Y-59609028D01*
X144778266Y-59561409D01*
X144825885Y-59513790D01*
X144873504Y-59418552D01*
X142409942Y-61825142D02*
X142362323Y-61872761D01*
X142219466Y-61920380D01*
X142124228Y-61920380D01*
X141981371Y-61872761D01*
X141886133Y-61777523D01*
X141838514Y-61682285D01*
X141790895Y-61491809D01*
X141790895Y-61348952D01*
X141838514Y-61158476D01*
X141886133Y-61063238D01*
X141981371Y-60968000D01*
X142124228Y-60920380D01*
X142219466Y-60920380D01*
X142362323Y-60968000D01*
X142409942Y-61015619D01*
X143314704Y-60920380D02*
X142838514Y-60920380D01*
X142790895Y-61396571D01*
X142838514Y-61348952D01*
X142933752Y-61301333D01*
X143171847Y-61301333D01*
X143267085Y-61348952D01*
X143314704Y-61396571D01*
X143362323Y-61491809D01*
X143362323Y-61729904D01*
X143314704Y-61825142D01*
X143267085Y-61872761D01*
X143171847Y-61920380D01*
X142933752Y-61920380D01*
X142838514Y-61872761D01*
X142790895Y-61825142D01*
X143981371Y-60920380D02*
X144076609Y-60920380D01*
X144171847Y-60968000D01*
X144219466Y-61015619D01*
X144267085Y-61110857D01*
X144314704Y-61301333D01*
X144314704Y-61539428D01*
X144267085Y-61729904D01*
X144219466Y-61825142D01*
X144171847Y-61872761D01*
X144076609Y-61920380D01*
X143981371Y-61920380D01*
X143886133Y-61872761D01*
X143838514Y-61825142D01*
X143790895Y-61729904D01*
X143743276Y-61539428D01*
X143743276Y-61301333D01*
X143790895Y-61110857D01*
X143838514Y-61015619D01*
X143886133Y-60968000D01*
X143981371Y-60920380D01*
X122567562Y-67065142D02*
X122519943Y-67112761D01*
X122377086Y-67160380D01*
X122281848Y-67160380D01*
X122138991Y-67112761D01*
X122043753Y-67017523D01*
X121996134Y-66922285D01*
X121948515Y-66731809D01*
X121948515Y-66588952D01*
X121996134Y-66398476D01*
X122043753Y-66303238D01*
X122138991Y-66208000D01*
X122281848Y-66160380D01*
X122377086Y-66160380D01*
X122519943Y-66208000D01*
X122567562Y-66255619D01*
X123472324Y-66160380D02*
X122996134Y-66160380D01*
X122948515Y-66636571D01*
X122996134Y-66588952D01*
X123091372Y-66541333D01*
X123329467Y-66541333D01*
X123424705Y-66588952D01*
X123472324Y-66636571D01*
X123519943Y-66731809D01*
X123519943Y-66969904D01*
X123472324Y-67065142D01*
X123424705Y-67112761D01*
X123329467Y-67160380D01*
X123091372Y-67160380D01*
X122996134Y-67112761D01*
X122948515Y-67065142D01*
X124472324Y-67160380D02*
X123900896Y-67160380D01*
X124186610Y-67160380D02*
X124186610Y-66160380D01*
X124091372Y-66303238D01*
X123996134Y-66398476D01*
X123900896Y-66446095D01*
X128744742Y-65939942D02*
X128697123Y-65987561D01*
X128554266Y-66035180D01*
X128459028Y-66035180D01*
X128316171Y-65987561D01*
X128220933Y-65892323D01*
X128173314Y-65797085D01*
X128125695Y-65606609D01*
X128125695Y-65463752D01*
X128173314Y-65273276D01*
X128220933Y-65178038D01*
X128316171Y-65082800D01*
X128459028Y-65035180D01*
X128554266Y-65035180D01*
X128697123Y-65082800D01*
X128744742Y-65130419D01*
X129649504Y-65035180D02*
X129173314Y-65035180D01*
X129125695Y-65511371D01*
X129173314Y-65463752D01*
X129268552Y-65416133D01*
X129506647Y-65416133D01*
X129601885Y-65463752D01*
X129649504Y-65511371D01*
X129697123Y-65606609D01*
X129697123Y-65844704D01*
X129649504Y-65939942D01*
X129601885Y-65987561D01*
X129506647Y-66035180D01*
X129268552Y-66035180D01*
X129173314Y-65987561D01*
X129125695Y-65939942D01*
X130078076Y-65130419D02*
X130125695Y-65082800D01*
X130220933Y-65035180D01*
X130459028Y-65035180D01*
X130554266Y-65082800D01*
X130601885Y-65130419D01*
X130649504Y-65225657D01*
X130649504Y-65320895D01*
X130601885Y-65463752D01*
X130030457Y-66035180D01*
X130649504Y-66035180D01*
X188282342Y-62688742D02*
X188234723Y-62736361D01*
X188091866Y-62783980D01*
X187996628Y-62783980D01*
X187853771Y-62736361D01*
X187758533Y-62641123D01*
X187710914Y-62545885D01*
X187663295Y-62355409D01*
X187663295Y-62212552D01*
X187710914Y-62022076D01*
X187758533Y-61926838D01*
X187853771Y-61831600D01*
X187996628Y-61783980D01*
X188091866Y-61783980D01*
X188234723Y-61831600D01*
X188282342Y-61879219D01*
X189187104Y-61783980D02*
X188710914Y-61783980D01*
X188663295Y-62260171D01*
X188710914Y-62212552D01*
X188806152Y-62164933D01*
X189044247Y-62164933D01*
X189139485Y-62212552D01*
X189187104Y-62260171D01*
X189234723Y-62355409D01*
X189234723Y-62593504D01*
X189187104Y-62688742D01*
X189139485Y-62736361D01*
X189044247Y-62783980D01*
X188806152Y-62783980D01*
X188710914Y-62736361D01*
X188663295Y-62688742D01*
X189568057Y-61783980D02*
X190187104Y-61783980D01*
X189853771Y-62164933D01*
X189996628Y-62164933D01*
X190091866Y-62212552D01*
X190139485Y-62260171D01*
X190187104Y-62355409D01*
X190187104Y-62593504D01*
X190139485Y-62688742D01*
X190091866Y-62736361D01*
X189996628Y-62783980D01*
X189710914Y-62783980D01*
X189615676Y-62736361D01*
X189568057Y-62688742D01*
X168063942Y-58370742D02*
X168016323Y-58418361D01*
X167873466Y-58465980D01*
X167778228Y-58465980D01*
X167635371Y-58418361D01*
X167540133Y-58323123D01*
X167492514Y-58227885D01*
X167444895Y-58037409D01*
X167444895Y-57894552D01*
X167492514Y-57704076D01*
X167540133Y-57608838D01*
X167635371Y-57513600D01*
X167778228Y-57465980D01*
X167873466Y-57465980D01*
X168016323Y-57513600D01*
X168063942Y-57561219D01*
X168968704Y-57465980D02*
X168492514Y-57465980D01*
X168444895Y-57942171D01*
X168492514Y-57894552D01*
X168587752Y-57846933D01*
X168825847Y-57846933D01*
X168921085Y-57894552D01*
X168968704Y-57942171D01*
X169016323Y-58037409D01*
X169016323Y-58275504D01*
X168968704Y-58370742D01*
X168921085Y-58418361D01*
X168825847Y-58465980D01*
X168587752Y-58465980D01*
X168492514Y-58418361D01*
X168444895Y-58370742D01*
X169873466Y-57799314D02*
X169873466Y-58465980D01*
X169635371Y-57418361D02*
X169397276Y-58132647D01*
X170016323Y-58132647D01*
X150209542Y-56370357D02*
X150257161Y-56417976D01*
X150304780Y-56560833D01*
X150304780Y-56656071D01*
X150257161Y-56798928D01*
X150161923Y-56894166D01*
X150066685Y-56941785D01*
X149876209Y-56989404D01*
X149733352Y-56989404D01*
X149542876Y-56941785D01*
X149447638Y-56894166D01*
X149352400Y-56798928D01*
X149304780Y-56656071D01*
X149304780Y-56560833D01*
X149352400Y-56417976D01*
X149400019Y-56370357D01*
X149304780Y-55465595D02*
X149304780Y-55941785D01*
X149780971Y-55989404D01*
X149733352Y-55941785D01*
X149685733Y-55846547D01*
X149685733Y-55608452D01*
X149733352Y-55513214D01*
X149780971Y-55465595D01*
X149876209Y-55417976D01*
X150114304Y-55417976D01*
X150209542Y-55465595D01*
X150257161Y-55513214D01*
X150304780Y-55608452D01*
X150304780Y-55846547D01*
X150257161Y-55941785D01*
X150209542Y-55989404D01*
X149304780Y-54513214D02*
X149304780Y-54989404D01*
X149780971Y-55037023D01*
X149733352Y-54989404D01*
X149685733Y-54894166D01*
X149685733Y-54656071D01*
X149733352Y-54560833D01*
X149780971Y-54513214D01*
X149876209Y-54465595D01*
X150114304Y-54465595D01*
X150209542Y-54513214D01*
X150257161Y-54560833D01*
X150304780Y-54656071D01*
X150304780Y-54894166D01*
X150257161Y-54989404D01*
X150209542Y-55037023D01*
X166777942Y-62142857D02*
X166825561Y-62190476D01*
X166873180Y-62333333D01*
X166873180Y-62428571D01*
X166825561Y-62571428D01*
X166730323Y-62666666D01*
X166635085Y-62714285D01*
X166444609Y-62761904D01*
X166301752Y-62761904D01*
X166111276Y-62714285D01*
X166016038Y-62666666D01*
X165920800Y-62571428D01*
X165873180Y-62428571D01*
X165873180Y-62333333D01*
X165920800Y-62190476D01*
X165968419Y-62142857D01*
X165873180Y-61238095D02*
X165873180Y-61714285D01*
X166349371Y-61761904D01*
X166301752Y-61714285D01*
X166254133Y-61619047D01*
X166254133Y-61380952D01*
X166301752Y-61285714D01*
X166349371Y-61238095D01*
X166444609Y-61190476D01*
X166682704Y-61190476D01*
X166777942Y-61238095D01*
X166825561Y-61285714D01*
X166873180Y-61380952D01*
X166873180Y-61619047D01*
X166825561Y-61714285D01*
X166777942Y-61761904D01*
X165873180Y-60333333D02*
X165873180Y-60523809D01*
X165920800Y-60619047D01*
X165968419Y-60666666D01*
X166111276Y-60761904D01*
X166301752Y-60809523D01*
X166682704Y-60809523D01*
X166777942Y-60761904D01*
X166825561Y-60714285D01*
X166873180Y-60619047D01*
X166873180Y-60428571D01*
X166825561Y-60333333D01*
X166777942Y-60285714D01*
X166682704Y-60238095D01*
X166444609Y-60238095D01*
X166349371Y-60285714D01*
X166301752Y-60333333D01*
X166254133Y-60428571D01*
X166254133Y-60619047D01*
X166301752Y-60714285D01*
X166349371Y-60761904D01*
X166444609Y-60809523D01*
X163120342Y-57284857D02*
X163167961Y-57332476D01*
X163215580Y-57475333D01*
X163215580Y-57570571D01*
X163167961Y-57713428D01*
X163072723Y-57808666D01*
X162977485Y-57856285D01*
X162787009Y-57903904D01*
X162644152Y-57903904D01*
X162453676Y-57856285D01*
X162358438Y-57808666D01*
X162263200Y-57713428D01*
X162215580Y-57570571D01*
X162215580Y-57475333D01*
X162263200Y-57332476D01*
X162310819Y-57284857D01*
X162215580Y-56380095D02*
X162215580Y-56856285D01*
X162691771Y-56903904D01*
X162644152Y-56856285D01*
X162596533Y-56761047D01*
X162596533Y-56522952D01*
X162644152Y-56427714D01*
X162691771Y-56380095D01*
X162787009Y-56332476D01*
X163025104Y-56332476D01*
X163120342Y-56380095D01*
X163167961Y-56427714D01*
X163215580Y-56522952D01*
X163215580Y-56761047D01*
X163167961Y-56856285D01*
X163120342Y-56903904D01*
X162215580Y-55999142D02*
X162215580Y-55332476D01*
X163215580Y-55761047D01*
X127677942Y-126036342D02*
X127630323Y-126083961D01*
X127487466Y-126131580D01*
X127392228Y-126131580D01*
X127249371Y-126083961D01*
X127154133Y-125988723D01*
X127106514Y-125893485D01*
X127058895Y-125703009D01*
X127058895Y-125560152D01*
X127106514Y-125369676D01*
X127154133Y-125274438D01*
X127249371Y-125179200D01*
X127392228Y-125131580D01*
X127487466Y-125131580D01*
X127630323Y-125179200D01*
X127677942Y-125226819D01*
X128582704Y-125131580D02*
X128106514Y-125131580D01*
X128058895Y-125607771D01*
X128106514Y-125560152D01*
X128201752Y-125512533D01*
X128439847Y-125512533D01*
X128535085Y-125560152D01*
X128582704Y-125607771D01*
X128630323Y-125703009D01*
X128630323Y-125941104D01*
X128582704Y-126036342D01*
X128535085Y-126083961D01*
X128439847Y-126131580D01*
X128201752Y-126131580D01*
X128106514Y-126083961D01*
X128058895Y-126036342D01*
X129201752Y-125560152D02*
X129106514Y-125512533D01*
X129058895Y-125464914D01*
X129011276Y-125369676D01*
X129011276Y-125322057D01*
X129058895Y-125226819D01*
X129106514Y-125179200D01*
X129201752Y-125131580D01*
X129392228Y-125131580D01*
X129487466Y-125179200D01*
X129535085Y-125226819D01*
X129582704Y-125322057D01*
X129582704Y-125369676D01*
X129535085Y-125464914D01*
X129487466Y-125512533D01*
X129392228Y-125560152D01*
X129201752Y-125560152D01*
X129106514Y-125607771D01*
X129058895Y-125655390D01*
X129011276Y-125750628D01*
X129011276Y-125941104D01*
X129058895Y-126036342D01*
X129106514Y-126083961D01*
X129201752Y-126131580D01*
X129392228Y-126131580D01*
X129487466Y-126083961D01*
X129535085Y-126036342D01*
X129582704Y-125941104D01*
X129582704Y-125750628D01*
X129535085Y-125655390D01*
X129487466Y-125607771D01*
X129392228Y-125560152D01*
X123844642Y-125587142D02*
X123797023Y-125634761D01*
X123654166Y-125682380D01*
X123558928Y-125682380D01*
X123416071Y-125634761D01*
X123320833Y-125539523D01*
X123273214Y-125444285D01*
X123225595Y-125253809D01*
X123225595Y-125110952D01*
X123273214Y-124920476D01*
X123320833Y-124825238D01*
X123416071Y-124730000D01*
X123558928Y-124682380D01*
X123654166Y-124682380D01*
X123797023Y-124730000D01*
X123844642Y-124777619D01*
X124749404Y-124682380D02*
X124273214Y-124682380D01*
X124225595Y-125158571D01*
X124273214Y-125110952D01*
X124368452Y-125063333D01*
X124606547Y-125063333D01*
X124701785Y-125110952D01*
X124749404Y-125158571D01*
X124797023Y-125253809D01*
X124797023Y-125491904D01*
X124749404Y-125587142D01*
X124701785Y-125634761D01*
X124606547Y-125682380D01*
X124368452Y-125682380D01*
X124273214Y-125634761D01*
X124225595Y-125587142D01*
X125273214Y-125682380D02*
X125463690Y-125682380D01*
X125558928Y-125634761D01*
X125606547Y-125587142D01*
X125701785Y-125444285D01*
X125749404Y-125253809D01*
X125749404Y-124872857D01*
X125701785Y-124777619D01*
X125654166Y-124730000D01*
X125558928Y-124682380D01*
X125368452Y-124682380D01*
X125273214Y-124730000D01*
X125225595Y-124777619D01*
X125177976Y-124872857D01*
X125177976Y-125110952D01*
X125225595Y-125206190D01*
X125273214Y-125253809D01*
X125368452Y-125301428D01*
X125558928Y-125301428D01*
X125654166Y-125253809D01*
X125701785Y-125206190D01*
X125749404Y-125110952D01*
X80327142Y-125755357D02*
X80374761Y-125802976D01*
X80422380Y-125945833D01*
X80422380Y-126041071D01*
X80374761Y-126183928D01*
X80279523Y-126279166D01*
X80184285Y-126326785D01*
X79993809Y-126374404D01*
X79850952Y-126374404D01*
X79660476Y-126326785D01*
X79565238Y-126279166D01*
X79470000Y-126183928D01*
X79422380Y-126041071D01*
X79422380Y-125945833D01*
X79470000Y-125802976D01*
X79517619Y-125755357D01*
X79422380Y-124898214D02*
X79422380Y-125088690D01*
X79470000Y-125183928D01*
X79517619Y-125231547D01*
X79660476Y-125326785D01*
X79850952Y-125374404D01*
X80231904Y-125374404D01*
X80327142Y-125326785D01*
X80374761Y-125279166D01*
X80422380Y-125183928D01*
X80422380Y-124993452D01*
X80374761Y-124898214D01*
X80327142Y-124850595D01*
X80231904Y-124802976D01*
X79993809Y-124802976D01*
X79898571Y-124850595D01*
X79850952Y-124898214D01*
X79803333Y-124993452D01*
X79803333Y-125183928D01*
X79850952Y-125279166D01*
X79898571Y-125326785D01*
X79993809Y-125374404D01*
X79422380Y-124183928D02*
X79422380Y-124088690D01*
X79470000Y-123993452D01*
X79517619Y-123945833D01*
X79612857Y-123898214D01*
X79803333Y-123850595D01*
X80041428Y-123850595D01*
X80231904Y-123898214D01*
X80327142Y-123945833D01*
X80374761Y-123993452D01*
X80422380Y-124088690D01*
X80422380Y-124183928D01*
X80374761Y-124279166D01*
X80327142Y-124326785D01*
X80231904Y-124374404D01*
X80041428Y-124422023D01*
X79803333Y-124422023D01*
X79612857Y-124374404D01*
X79517619Y-124326785D01*
X79470000Y-124279166D01*
X79422380Y-124183928D01*
X221607142Y-84431142D02*
X221559523Y-84478761D01*
X221416666Y-84526380D01*
X221321428Y-84526380D01*
X221178571Y-84478761D01*
X221083333Y-84383523D01*
X221035714Y-84288285D01*
X220988095Y-84097809D01*
X220988095Y-83954952D01*
X221035714Y-83764476D01*
X221083333Y-83669238D01*
X221178571Y-83574000D01*
X221321428Y-83526380D01*
X221416666Y-83526380D01*
X221559523Y-83574000D01*
X221607142Y-83621619D01*
X222464285Y-83526380D02*
X222273809Y-83526380D01*
X222178571Y-83574000D01*
X222130952Y-83621619D01*
X222035714Y-83764476D01*
X221988095Y-83954952D01*
X221988095Y-84335904D01*
X222035714Y-84431142D01*
X222083333Y-84478761D01*
X222178571Y-84526380D01*
X222369047Y-84526380D01*
X222464285Y-84478761D01*
X222511904Y-84431142D01*
X222559523Y-84335904D01*
X222559523Y-84097809D01*
X222511904Y-84002571D01*
X222464285Y-83954952D01*
X222369047Y-83907333D01*
X222178571Y-83907333D01*
X222083333Y-83954952D01*
X222035714Y-84002571D01*
X221988095Y-84097809D01*
X222940476Y-83621619D02*
X222988095Y-83574000D01*
X223083333Y-83526380D01*
X223321428Y-83526380D01*
X223416666Y-83574000D01*
X223464285Y-83621619D01*
X223511904Y-83716857D01*
X223511904Y-83812095D01*
X223464285Y-83954952D01*
X222892857Y-84526380D01*
X223511904Y-84526380D01*
X234307142Y-84583542D02*
X234259523Y-84631161D01*
X234116666Y-84678780D01*
X234021428Y-84678780D01*
X233878571Y-84631161D01*
X233783333Y-84535923D01*
X233735714Y-84440685D01*
X233688095Y-84250209D01*
X233688095Y-84107352D01*
X233735714Y-83916876D01*
X233783333Y-83821638D01*
X233878571Y-83726400D01*
X234021428Y-83678780D01*
X234116666Y-83678780D01*
X234259523Y-83726400D01*
X234307142Y-83774019D01*
X234688095Y-83774019D02*
X234735714Y-83726400D01*
X234830952Y-83678780D01*
X235069047Y-83678780D01*
X235164285Y-83726400D01*
X235211904Y-83774019D01*
X235259523Y-83869257D01*
X235259523Y-83964495D01*
X235211904Y-84107352D01*
X234640476Y-84678780D01*
X235259523Y-84678780D01*
X235830952Y-84107352D02*
X235735714Y-84059733D01*
X235688095Y-84012114D01*
X235640476Y-83916876D01*
X235640476Y-83869257D01*
X235688095Y-83774019D01*
X235735714Y-83726400D01*
X235830952Y-83678780D01*
X236021428Y-83678780D01*
X236116666Y-83726400D01*
X236164285Y-83774019D01*
X236211904Y-83869257D01*
X236211904Y-83916876D01*
X236164285Y-84012114D01*
X236116666Y-84059733D01*
X236021428Y-84107352D01*
X235830952Y-84107352D01*
X235735714Y-84154971D01*
X235688095Y-84202590D01*
X235640476Y-84297828D01*
X235640476Y-84488304D01*
X235688095Y-84583542D01*
X235735714Y-84631161D01*
X235830952Y-84678780D01*
X236021428Y-84678780D01*
X236116666Y-84631161D01*
X236164285Y-84583542D01*
X236211904Y-84488304D01*
X236211904Y-84297828D01*
X236164285Y-84202590D01*
X236116666Y-84154971D01*
X236021428Y-84107352D01*
X230328742Y-71067257D02*
X230376361Y-71114876D01*
X230423980Y-71257733D01*
X230423980Y-71352971D01*
X230376361Y-71495828D01*
X230281123Y-71591066D01*
X230185885Y-71638685D01*
X229995409Y-71686304D01*
X229852552Y-71686304D01*
X229662076Y-71638685D01*
X229566838Y-71591066D01*
X229471600Y-71495828D01*
X229423980Y-71352971D01*
X229423980Y-71257733D01*
X229471600Y-71114876D01*
X229519219Y-71067257D01*
X229423980Y-70733923D02*
X229423980Y-70114876D01*
X229804933Y-70448209D01*
X229804933Y-70305352D01*
X229852552Y-70210114D01*
X229900171Y-70162495D01*
X229995409Y-70114876D01*
X230233504Y-70114876D01*
X230328742Y-70162495D01*
X230376361Y-70210114D01*
X230423980Y-70305352D01*
X230423980Y-70591066D01*
X230376361Y-70686304D01*
X230328742Y-70733923D01*
X229423980Y-69781542D02*
X229423980Y-69162495D01*
X229804933Y-69495828D01*
X229804933Y-69352971D01*
X229852552Y-69257733D01*
X229900171Y-69210114D01*
X229995409Y-69162495D01*
X230233504Y-69162495D01*
X230328742Y-69210114D01*
X230376361Y-69257733D01*
X230423980Y-69352971D01*
X230423980Y-69638685D01*
X230376361Y-69733923D01*
X230328742Y-69781542D01*
X217501742Y-70403957D02*
X217549361Y-70451576D01*
X217596980Y-70594433D01*
X217596980Y-70689671D01*
X217549361Y-70832528D01*
X217454123Y-70927766D01*
X217358885Y-70975385D01*
X217168409Y-71023004D01*
X217025552Y-71023004D01*
X216835076Y-70975385D01*
X216739838Y-70927766D01*
X216644600Y-70832528D01*
X216596980Y-70689671D01*
X216596980Y-70594433D01*
X216644600Y-70451576D01*
X216692219Y-70403957D01*
X216596980Y-70070623D02*
X216596980Y-69451576D01*
X216977933Y-69784909D01*
X216977933Y-69642052D01*
X217025552Y-69546814D01*
X217073171Y-69499195D01*
X217168409Y-69451576D01*
X217406504Y-69451576D01*
X217501742Y-69499195D01*
X217549361Y-69546814D01*
X217596980Y-69642052D01*
X217596980Y-69927766D01*
X217549361Y-70023004D01*
X217501742Y-70070623D01*
X216930314Y-68594433D02*
X217596980Y-68594433D01*
X216549361Y-68832528D02*
X217263647Y-69070623D01*
X217263647Y-68451576D01*
X230125542Y-81262457D02*
X230173161Y-81310076D01*
X230220780Y-81452933D01*
X230220780Y-81548171D01*
X230173161Y-81691028D01*
X230077923Y-81786266D01*
X229982685Y-81833885D01*
X229792209Y-81881504D01*
X229649352Y-81881504D01*
X229458876Y-81833885D01*
X229363638Y-81786266D01*
X229268400Y-81691028D01*
X229220780Y-81548171D01*
X229220780Y-81452933D01*
X229268400Y-81310076D01*
X229316019Y-81262457D01*
X229220780Y-80929123D02*
X229220780Y-80310076D01*
X229601733Y-80643409D01*
X229601733Y-80500552D01*
X229649352Y-80405314D01*
X229696971Y-80357695D01*
X229792209Y-80310076D01*
X230030304Y-80310076D01*
X230125542Y-80357695D01*
X230173161Y-80405314D01*
X230220780Y-80500552D01*
X230220780Y-80786266D01*
X230173161Y-80881504D01*
X230125542Y-80929123D01*
X229220780Y-79405314D02*
X229220780Y-79881504D01*
X229696971Y-79929123D01*
X229649352Y-79881504D01*
X229601733Y-79786266D01*
X229601733Y-79548171D01*
X229649352Y-79452933D01*
X229696971Y-79405314D01*
X229792209Y-79357695D01*
X230030304Y-79357695D01*
X230125542Y-79405314D01*
X230173161Y-79452933D01*
X230220780Y-79548171D01*
X230220780Y-79786266D01*
X230173161Y-79881504D01*
X230125542Y-79929123D01*
X222826342Y-81637142D02*
X222778723Y-81684761D01*
X222635866Y-81732380D01*
X222540628Y-81732380D01*
X222397771Y-81684761D01*
X222302533Y-81589523D01*
X222254914Y-81494285D01*
X222207295Y-81303809D01*
X222207295Y-81160952D01*
X222254914Y-80970476D01*
X222302533Y-80875238D01*
X222397771Y-80780000D01*
X222540628Y-80732380D01*
X222635866Y-80732380D01*
X222778723Y-80780000D01*
X222826342Y-80827619D01*
X223159676Y-80732380D02*
X223778723Y-80732380D01*
X223445390Y-81113333D01*
X223588247Y-81113333D01*
X223683485Y-81160952D01*
X223731104Y-81208571D01*
X223778723Y-81303809D01*
X223778723Y-81541904D01*
X223731104Y-81637142D01*
X223683485Y-81684761D01*
X223588247Y-81732380D01*
X223302533Y-81732380D01*
X223207295Y-81684761D01*
X223159676Y-81637142D01*
X224635866Y-80732380D02*
X224445390Y-80732380D01*
X224350152Y-80780000D01*
X224302533Y-80827619D01*
X224207295Y-80970476D01*
X224159676Y-81160952D01*
X224159676Y-81541904D01*
X224207295Y-81637142D01*
X224254914Y-81684761D01*
X224350152Y-81732380D01*
X224540628Y-81732380D01*
X224635866Y-81684761D01*
X224683485Y-81637142D01*
X224731104Y-81541904D01*
X224731104Y-81303809D01*
X224683485Y-81208571D01*
X224635866Y-81160952D01*
X224540628Y-81113333D01*
X224350152Y-81113333D01*
X224254914Y-81160952D01*
X224207295Y-81208571D01*
X224159676Y-81303809D01*
X149985504Y-62072780D02*
X149985504Y-61072780D01*
X150223600Y-61072780D01*
X150366457Y-61120400D01*
X150461695Y-61215638D01*
X150509314Y-61310876D01*
X150556933Y-61501352D01*
X150556933Y-61644209D01*
X150509314Y-61834685D01*
X150461695Y-61929923D01*
X150366457Y-62025161D01*
X150223600Y-62072780D01*
X149985504Y-62072780D01*
X151509314Y-62072780D02*
X150937885Y-62072780D01*
X151223600Y-62072780D02*
X151223600Y-61072780D01*
X151128361Y-61215638D01*
X151033123Y-61310876D01*
X150937885Y-61358495D01*
X159789904Y-64206380D02*
X159789904Y-63206380D01*
X160028000Y-63206380D01*
X160170857Y-63254000D01*
X160266095Y-63349238D01*
X160313714Y-63444476D01*
X160361333Y-63634952D01*
X160361333Y-63777809D01*
X160313714Y-63968285D01*
X160266095Y-64063523D01*
X160170857Y-64158761D01*
X160028000Y-64206380D01*
X159789904Y-64206380D01*
X160742285Y-63301619D02*
X160789904Y-63254000D01*
X160885142Y-63206380D01*
X161123238Y-63206380D01*
X161218476Y-63254000D01*
X161266095Y-63301619D01*
X161313714Y-63396857D01*
X161313714Y-63492095D01*
X161266095Y-63634952D01*
X160694666Y-64206380D01*
X161313714Y-64206380D01*
X143159314Y-57145180D02*
X143159314Y-56145180D01*
X143397409Y-56145180D01*
X143540266Y-56192800D01*
X143635504Y-56288038D01*
X143683123Y-56383276D01*
X143730742Y-56573752D01*
X143730742Y-56716609D01*
X143683123Y-56907085D01*
X143635504Y-57002323D01*
X143540266Y-57097561D01*
X143397409Y-57145180D01*
X143159314Y-57145180D01*
X144683123Y-57145180D02*
X144111695Y-57145180D01*
X144397409Y-57145180D02*
X144397409Y-56145180D01*
X144302171Y-56288038D01*
X144206933Y-56383276D01*
X144111695Y-56430895D01*
X145016457Y-56145180D02*
X145635504Y-56145180D01*
X145302171Y-56526133D01*
X145445028Y-56526133D01*
X145540266Y-56573752D01*
X145587885Y-56621371D01*
X145635504Y-56716609D01*
X145635504Y-56954704D01*
X145587885Y-57049942D01*
X145540266Y-57097561D01*
X145445028Y-57145180D01*
X145159314Y-57145180D01*
X145064076Y-57097561D01*
X145016457Y-57049942D01*
X129697314Y-62964820D02*
X129697314Y-61964820D01*
X129935409Y-61964820D01*
X130078266Y-62012440D01*
X130173504Y-62107678D01*
X130221123Y-62202916D01*
X130268742Y-62393392D01*
X130268742Y-62536249D01*
X130221123Y-62726725D01*
X130173504Y-62821963D01*
X130078266Y-62917201D01*
X129935409Y-62964820D01*
X129697314Y-62964820D01*
X131221123Y-62964820D02*
X130649695Y-62964820D01*
X130935409Y-62964820D02*
X130935409Y-61964820D01*
X130840171Y-62107678D01*
X130744933Y-62202916D01*
X130649695Y-62250535D01*
X132078266Y-62298154D02*
X132078266Y-62964820D01*
X131840171Y-61917201D02*
X131602076Y-62631487D01*
X132221123Y-62631487D01*
X197210514Y-56840380D02*
X197210514Y-55840380D01*
X197448609Y-55840380D01*
X197591466Y-55888000D01*
X197686704Y-55983238D01*
X197734323Y-56078476D01*
X197781942Y-56268952D01*
X197781942Y-56411809D01*
X197734323Y-56602285D01*
X197686704Y-56697523D01*
X197591466Y-56792761D01*
X197448609Y-56840380D01*
X197210514Y-56840380D01*
X198734323Y-56840380D02*
X198162895Y-56840380D01*
X198448609Y-56840380D02*
X198448609Y-55840380D01*
X198353371Y-55983238D01*
X198258133Y-56078476D01*
X198162895Y-56126095D01*
X199639085Y-55840380D02*
X199162895Y-55840380D01*
X199115276Y-56316571D01*
X199162895Y-56268952D01*
X199258133Y-56221333D01*
X199496228Y-56221333D01*
X199591466Y-56268952D01*
X199639085Y-56316571D01*
X199686704Y-56411809D01*
X199686704Y-56649904D01*
X199639085Y-56745142D01*
X199591466Y-56792761D01*
X199496228Y-56840380D01*
X199258133Y-56840380D01*
X199162895Y-56792761D01*
X199115276Y-56745142D01*
X187441674Y-69382420D02*
X187441674Y-68382420D01*
X187679769Y-68382420D01*
X187822626Y-68430040D01*
X187917864Y-68525278D01*
X187965483Y-68620516D01*
X188013102Y-68810992D01*
X188013102Y-68953849D01*
X187965483Y-69144325D01*
X187917864Y-69239563D01*
X187822626Y-69334801D01*
X187679769Y-69382420D01*
X187441674Y-69382420D01*
X188965483Y-69382420D02*
X188394055Y-69382420D01*
X188679769Y-69382420D02*
X188679769Y-68382420D01*
X188584531Y-68525278D01*
X188489293Y-68620516D01*
X188394055Y-68668135D01*
X189822626Y-68382420D02*
X189632150Y-68382420D01*
X189536912Y-68430040D01*
X189489293Y-68477659D01*
X189394055Y-68620516D01*
X189346436Y-68810992D01*
X189346436Y-69191944D01*
X189394055Y-69287182D01*
X189441674Y-69334801D01*
X189536912Y-69382420D01*
X189727388Y-69382420D01*
X189822626Y-69334801D01*
X189870245Y-69287182D01*
X189917864Y-69191944D01*
X189917864Y-68953849D01*
X189870245Y-68858611D01*
X189822626Y-68810992D01*
X189727388Y-68763373D01*
X189536912Y-68763373D01*
X189441674Y-68810992D01*
X189394055Y-68858611D01*
X189346436Y-68953849D01*
X147938433Y-48637180D02*
X147462242Y-48637180D01*
X147462242Y-47637180D01*
X148795576Y-48637180D02*
X148224147Y-48637180D01*
X148509861Y-48637180D02*
X148509861Y-47637180D01*
X148414623Y-47780038D01*
X148319385Y-47875276D01*
X148224147Y-47922895D01*
X136421904Y-49321980D02*
X136421904Y-48321980D01*
X136802857Y-48321980D01*
X136898095Y-48369600D01*
X136945714Y-48417219D01*
X136993333Y-48512457D01*
X136993333Y-48655314D01*
X136945714Y-48750552D01*
X136898095Y-48798171D01*
X136802857Y-48845790D01*
X136421904Y-48845790D01*
X137945714Y-49321980D02*
X137374285Y-49321980D01*
X137660000Y-49321980D02*
X137660000Y-48321980D01*
X137564761Y-48464838D01*
X137469523Y-48560076D01*
X137374285Y-48607695D01*
X74496704Y-54147980D02*
X74496704Y-53147980D01*
X74877657Y-53147980D01*
X74972895Y-53195600D01*
X75020514Y-53243219D01*
X75068133Y-53338457D01*
X75068133Y-53481314D01*
X75020514Y-53576552D01*
X74972895Y-53624171D01*
X74877657Y-53671790D01*
X74496704Y-53671790D01*
X75401466Y-53147980D02*
X76020514Y-53147980D01*
X75687180Y-53528933D01*
X75830038Y-53528933D01*
X75925276Y-53576552D01*
X75972895Y-53624171D01*
X76020514Y-53719409D01*
X76020514Y-53957504D01*
X75972895Y-54052742D01*
X75925276Y-54100361D01*
X75830038Y-54147980D01*
X75544323Y-54147980D01*
X75449085Y-54100361D01*
X75401466Y-54052742D01*
X152182380Y-43850095D02*
X151182380Y-43850095D01*
X151182380Y-43469142D01*
X151230000Y-43373904D01*
X151277619Y-43326285D01*
X151372857Y-43278666D01*
X151515714Y-43278666D01*
X151610952Y-43326285D01*
X151658571Y-43373904D01*
X151706190Y-43469142D01*
X151706190Y-43850095D01*
X151182380Y-42373904D02*
X151182380Y-42850095D01*
X151658571Y-42897714D01*
X151610952Y-42850095D01*
X151563333Y-42754857D01*
X151563333Y-42516761D01*
X151610952Y-42421523D01*
X151658571Y-42373904D01*
X151753809Y-42326285D01*
X151991904Y-42326285D01*
X152087142Y-42373904D01*
X152134761Y-42421523D01*
X152182380Y-42516761D01*
X152182380Y-42754857D01*
X152134761Y-42850095D01*
X152087142Y-42897714D01*
X195400704Y-47086780D02*
X195400704Y-46086780D01*
X195781657Y-46086780D01*
X195876895Y-46134400D01*
X195924514Y-46182019D01*
X195972133Y-46277257D01*
X195972133Y-46420114D01*
X195924514Y-46515352D01*
X195876895Y-46562971D01*
X195781657Y-46610590D01*
X195400704Y-46610590D01*
X196829276Y-46086780D02*
X196638800Y-46086780D01*
X196543561Y-46134400D01*
X196495942Y-46182019D01*
X196400704Y-46324876D01*
X196353085Y-46515352D01*
X196353085Y-46896304D01*
X196400704Y-46991542D01*
X196448323Y-47039161D01*
X196543561Y-47086780D01*
X196734038Y-47086780D01*
X196829276Y-47039161D01*
X196876895Y-46991542D01*
X196924514Y-46896304D01*
X196924514Y-46658209D01*
X196876895Y-46562971D01*
X196829276Y-46515352D01*
X196734038Y-46467733D01*
X196543561Y-46467733D01*
X196448323Y-46515352D01*
X196400704Y-46562971D01*
X196353085Y-46658209D01*
X184123104Y-47137580D02*
X184123104Y-46137580D01*
X184504057Y-46137580D01*
X184599295Y-46185200D01*
X184646914Y-46232819D01*
X184694533Y-46328057D01*
X184694533Y-46470914D01*
X184646914Y-46566152D01*
X184599295Y-46613771D01*
X184504057Y-46661390D01*
X184123104Y-46661390D01*
X185027866Y-46137580D02*
X185694533Y-46137580D01*
X185265961Y-47137580D01*
X83488304Y-132633980D02*
X83488304Y-131633980D01*
X83869257Y-131633980D01*
X83964495Y-131681600D01*
X84012114Y-131729219D01*
X84059733Y-131824457D01*
X84059733Y-131967314D01*
X84012114Y-132062552D01*
X83964495Y-132110171D01*
X83869257Y-132157790D01*
X83488304Y-132157790D01*
X84535923Y-132633980D02*
X84726400Y-132633980D01*
X84821638Y-132586361D01*
X84869257Y-132538742D01*
X84964495Y-132395885D01*
X85012114Y-132205409D01*
X85012114Y-131824457D01*
X84964495Y-131729219D01*
X84916876Y-131681600D01*
X84821638Y-131633980D01*
X84631161Y-131633980D01*
X84535923Y-131681600D01*
X84488304Y-131729219D01*
X84440685Y-131824457D01*
X84440685Y-132062552D01*
X84488304Y-132157790D01*
X84535923Y-132205409D01*
X84631161Y-132253028D01*
X84821638Y-132253028D01*
X84916876Y-132205409D01*
X84964495Y-132157790D01*
X85012114Y-132062552D01*
X230676914Y-61917180D02*
X230676914Y-60917180D01*
X231057866Y-60917180D01*
X231153104Y-60964800D01*
X231200723Y-61012419D01*
X231248342Y-61107657D01*
X231248342Y-61250514D01*
X231200723Y-61345752D01*
X231153104Y-61393371D01*
X231057866Y-61440990D01*
X230676914Y-61440990D01*
X232200723Y-61917180D02*
X231629295Y-61917180D01*
X231915009Y-61917180D02*
X231915009Y-60917180D01*
X231819771Y-61060038D01*
X231724533Y-61155276D01*
X231629295Y-61202895D01*
X232819771Y-60917180D02*
X232915009Y-60917180D01*
X233010247Y-60964800D01*
X233057866Y-61012419D01*
X233105485Y-61107657D01*
X233153104Y-61298133D01*
X233153104Y-61536228D01*
X233105485Y-61726704D01*
X233057866Y-61821942D01*
X233010247Y-61869561D01*
X232915009Y-61917180D01*
X232819771Y-61917180D01*
X232724533Y-61869561D01*
X232676914Y-61821942D01*
X232629295Y-61726704D01*
X232581676Y-61536228D01*
X232581676Y-61298133D01*
X232629295Y-61107657D01*
X232676914Y-61012419D01*
X232724533Y-60964800D01*
X232819771Y-60917180D01*
X210071314Y-62007180D02*
X210071314Y-61007180D01*
X210452266Y-61007180D01*
X210547504Y-61054800D01*
X210595123Y-61102419D01*
X210642742Y-61197657D01*
X210642742Y-61340514D01*
X210595123Y-61435752D01*
X210547504Y-61483371D01*
X210452266Y-61530990D01*
X210071314Y-61530990D01*
X211595123Y-62007180D02*
X211023695Y-62007180D01*
X211309409Y-62007180D02*
X211309409Y-61007180D01*
X211214171Y-61150038D01*
X211118933Y-61245276D01*
X211023695Y-61292895D01*
X212547504Y-62007180D02*
X211976076Y-62007180D01*
X212261790Y-62007180D02*
X212261790Y-61007180D01*
X212166552Y-61150038D01*
X212071314Y-61245276D01*
X211976076Y-61292895D01*
X110314914Y-62081180D02*
X110314914Y-61081180D01*
X110695866Y-61081180D01*
X110791104Y-61128800D01*
X110838723Y-61176419D01*
X110886342Y-61271657D01*
X110886342Y-61414514D01*
X110838723Y-61509752D01*
X110791104Y-61557371D01*
X110695866Y-61604990D01*
X110314914Y-61604990D01*
X111838723Y-62081180D02*
X111267295Y-62081180D01*
X111553009Y-62081180D02*
X111553009Y-61081180D01*
X111457771Y-61224038D01*
X111362533Y-61319276D01*
X111267295Y-61366895D01*
X112219676Y-61176419D02*
X112267295Y-61128800D01*
X112362533Y-61081180D01*
X112600628Y-61081180D01*
X112695866Y-61128800D01*
X112743485Y-61176419D01*
X112791104Y-61271657D01*
X112791104Y-61366895D01*
X112743485Y-61509752D01*
X112172057Y-62081180D01*
X112791104Y-62081180D01*
X89413714Y-61875580D02*
X89413714Y-60875580D01*
X89794666Y-60875580D01*
X89889904Y-60923200D01*
X89937523Y-60970819D01*
X89985142Y-61066057D01*
X89985142Y-61208914D01*
X89937523Y-61304152D01*
X89889904Y-61351771D01*
X89794666Y-61399390D01*
X89413714Y-61399390D01*
X90937523Y-61875580D02*
X90366095Y-61875580D01*
X90651809Y-61875580D02*
X90651809Y-60875580D01*
X90556571Y-61018438D01*
X90461333Y-61113676D01*
X90366095Y-61161295D01*
X91270857Y-60875580D02*
X91889904Y-60875580D01*
X91556571Y-61256533D01*
X91699428Y-61256533D01*
X91794666Y-61304152D01*
X91842285Y-61351771D01*
X91889904Y-61447009D01*
X91889904Y-61685104D01*
X91842285Y-61780342D01*
X91794666Y-61827961D01*
X91699428Y-61875580D01*
X91413714Y-61875580D01*
X91318476Y-61827961D01*
X91270857Y-61780342D01*
X232049961Y-76138019D02*
X231954723Y-76090400D01*
X231859485Y-75995161D01*
X231716628Y-75852304D01*
X231621390Y-75804685D01*
X231526152Y-75804685D01*
X231573771Y-76042780D02*
X231478533Y-75995161D01*
X231383295Y-75899923D01*
X231335676Y-75709447D01*
X231335676Y-75376114D01*
X231383295Y-75185638D01*
X231478533Y-75090400D01*
X231573771Y-75042780D01*
X231764247Y-75042780D01*
X231859485Y-75090400D01*
X231954723Y-75185638D01*
X232002342Y-75376114D01*
X232002342Y-75709447D01*
X231954723Y-75899923D01*
X231859485Y-75995161D01*
X231764247Y-76042780D01*
X231573771Y-76042780D01*
X232954723Y-76042780D02*
X232383295Y-76042780D01*
X232669009Y-76042780D02*
X232669009Y-75042780D01*
X232573771Y-75185638D01*
X232478533Y-75280876D01*
X232383295Y-75328495D01*
X219970361Y-73750419D02*
X219875123Y-73702800D01*
X219779885Y-73607561D01*
X219637028Y-73464704D01*
X219541790Y-73417085D01*
X219446552Y-73417085D01*
X219494171Y-73655180D02*
X219398933Y-73607561D01*
X219303695Y-73512323D01*
X219256076Y-73321847D01*
X219256076Y-72988514D01*
X219303695Y-72798038D01*
X219398933Y-72702800D01*
X219494171Y-72655180D01*
X219684647Y-72655180D01*
X219779885Y-72702800D01*
X219875123Y-72798038D01*
X219922742Y-72988514D01*
X219922742Y-73321847D01*
X219875123Y-73512323D01*
X219779885Y-73607561D01*
X219684647Y-73655180D01*
X219494171Y-73655180D01*
X220303695Y-72750419D02*
X220351314Y-72702800D01*
X220446552Y-72655180D01*
X220684647Y-72655180D01*
X220779885Y-72702800D01*
X220827504Y-72750419D01*
X220875123Y-72845657D01*
X220875123Y-72940895D01*
X220827504Y-73083752D01*
X220256076Y-73655180D01*
X220875123Y-73655180D01*
X238145580Y-92673466D02*
X237669390Y-93006800D01*
X238145580Y-93244895D02*
X237145580Y-93244895D01*
X237145580Y-92863942D01*
X237193200Y-92768704D01*
X237240819Y-92721085D01*
X237336057Y-92673466D01*
X237478914Y-92673466D01*
X237574152Y-92721085D01*
X237621771Y-92768704D01*
X237669390Y-92863942D01*
X237669390Y-93244895D01*
X238145580Y-91721085D02*
X238145580Y-92292514D01*
X238145580Y-92006800D02*
X237145580Y-92006800D01*
X237288438Y-92102038D01*
X237383676Y-92197276D01*
X237431295Y-92292514D01*
X236723180Y-92927466D02*
X236246990Y-93260800D01*
X236723180Y-93498895D02*
X235723180Y-93498895D01*
X235723180Y-93117942D01*
X235770800Y-93022704D01*
X235818419Y-92975085D01*
X235913657Y-92927466D01*
X236056514Y-92927466D01*
X236151752Y-92975085D01*
X236199371Y-93022704D01*
X236246990Y-93117942D01*
X236246990Y-93498895D01*
X235818419Y-92546514D02*
X235770800Y-92498895D01*
X235723180Y-92403657D01*
X235723180Y-92165561D01*
X235770800Y-92070323D01*
X235818419Y-92022704D01*
X235913657Y-91975085D01*
X236008895Y-91975085D01*
X236151752Y-92022704D01*
X236723180Y-92594133D01*
X236723180Y-91975085D01*
X229500233Y-91028780D02*
X229166900Y-90552590D01*
X228928804Y-91028780D02*
X228928804Y-90028780D01*
X229309757Y-90028780D01*
X229404995Y-90076400D01*
X229452614Y-90124019D01*
X229500233Y-90219257D01*
X229500233Y-90362114D01*
X229452614Y-90457352D01*
X229404995Y-90504971D01*
X229309757Y-90552590D01*
X228928804Y-90552590D01*
X229833566Y-90028780D02*
X230452614Y-90028780D01*
X230119280Y-90409733D01*
X230262138Y-90409733D01*
X230357376Y-90457352D01*
X230404995Y-90504971D01*
X230452614Y-90600209D01*
X230452614Y-90838304D01*
X230404995Y-90933542D01*
X230357376Y-90981161D01*
X230262138Y-91028780D01*
X229976423Y-91028780D01*
X229881185Y-90981161D01*
X229833566Y-90933542D01*
X213091733Y-94127580D02*
X212758400Y-93651390D01*
X212520304Y-94127580D02*
X212520304Y-93127580D01*
X212901257Y-93127580D01*
X212996495Y-93175200D01*
X213044114Y-93222819D01*
X213091733Y-93318057D01*
X213091733Y-93460914D01*
X213044114Y-93556152D01*
X212996495Y-93603771D01*
X212901257Y-93651390D01*
X212520304Y-93651390D01*
X213948876Y-93460914D02*
X213948876Y-94127580D01*
X213710780Y-93079961D02*
X213472685Y-93794247D01*
X214091733Y-93794247D01*
X213091733Y-95346780D02*
X212758400Y-94870590D01*
X212520304Y-95346780D02*
X212520304Y-94346780D01*
X212901257Y-94346780D01*
X212996495Y-94394400D01*
X213044114Y-94442019D01*
X213091733Y-94537257D01*
X213091733Y-94680114D01*
X213044114Y-94775352D01*
X212996495Y-94822971D01*
X212901257Y-94870590D01*
X212520304Y-94870590D01*
X213996495Y-94346780D02*
X213520304Y-94346780D01*
X213472685Y-94822971D01*
X213520304Y-94775352D01*
X213615542Y-94727733D01*
X213853638Y-94727733D01*
X213948876Y-94775352D01*
X213996495Y-94822971D01*
X214044114Y-94918209D01*
X214044114Y-95156304D01*
X213996495Y-95251542D01*
X213948876Y-95299161D01*
X213853638Y-95346780D01*
X213615542Y-95346780D01*
X213520304Y-95299161D01*
X213472685Y-95251542D01*
X213040933Y-91587580D02*
X212707600Y-91111390D01*
X212469504Y-91587580D02*
X212469504Y-90587580D01*
X212850457Y-90587580D01*
X212945695Y-90635200D01*
X212993314Y-90682819D01*
X213040933Y-90778057D01*
X213040933Y-90920914D01*
X212993314Y-91016152D01*
X212945695Y-91063771D01*
X212850457Y-91111390D01*
X212469504Y-91111390D01*
X213898076Y-90587580D02*
X213707600Y-90587580D01*
X213612361Y-90635200D01*
X213564742Y-90682819D01*
X213469504Y-90825676D01*
X213421885Y-91016152D01*
X213421885Y-91397104D01*
X213469504Y-91492342D01*
X213517123Y-91539961D01*
X213612361Y-91587580D01*
X213802838Y-91587580D01*
X213898076Y-91539961D01*
X213945695Y-91492342D01*
X213993314Y-91397104D01*
X213993314Y-91159009D01*
X213945695Y-91063771D01*
X213898076Y-91016152D01*
X213802838Y-90968533D01*
X213612361Y-90968533D01*
X213517123Y-91016152D01*
X213469504Y-91063771D01*
X213421885Y-91159009D01*
X213040933Y-92857580D02*
X212707600Y-92381390D01*
X212469504Y-92857580D02*
X212469504Y-91857580D01*
X212850457Y-91857580D01*
X212945695Y-91905200D01*
X212993314Y-91952819D01*
X213040933Y-92048057D01*
X213040933Y-92190914D01*
X212993314Y-92286152D01*
X212945695Y-92333771D01*
X212850457Y-92381390D01*
X212469504Y-92381390D01*
X213374266Y-91857580D02*
X214040933Y-91857580D01*
X213612361Y-92857580D01*
X206335333Y-109011980D02*
X206002000Y-108535790D01*
X205763904Y-109011980D02*
X205763904Y-108011980D01*
X206144857Y-108011980D01*
X206240095Y-108059600D01*
X206287714Y-108107219D01*
X206335333Y-108202457D01*
X206335333Y-108345314D01*
X206287714Y-108440552D01*
X206240095Y-108488171D01*
X206144857Y-108535790D01*
X205763904Y-108535790D01*
X206906761Y-108440552D02*
X206811523Y-108392933D01*
X206763904Y-108345314D01*
X206716285Y-108250076D01*
X206716285Y-108202457D01*
X206763904Y-108107219D01*
X206811523Y-108059600D01*
X206906761Y-108011980D01*
X207097238Y-108011980D01*
X207192476Y-108059600D01*
X207240095Y-108107219D01*
X207287714Y-108202457D01*
X207287714Y-108250076D01*
X207240095Y-108345314D01*
X207192476Y-108392933D01*
X207097238Y-108440552D01*
X206906761Y-108440552D01*
X206811523Y-108488171D01*
X206763904Y-108535790D01*
X206716285Y-108631028D01*
X206716285Y-108821504D01*
X206763904Y-108916742D01*
X206811523Y-108964361D01*
X206906761Y-109011980D01*
X207097238Y-109011980D01*
X207192476Y-108964361D01*
X207240095Y-108916742D01*
X207287714Y-108821504D01*
X207287714Y-108631028D01*
X207240095Y-108535790D01*
X207192476Y-108488171D01*
X207097238Y-108440552D01*
X229398533Y-97124780D02*
X229065200Y-96648590D01*
X228827104Y-97124780D02*
X228827104Y-96124780D01*
X229208057Y-96124780D01*
X229303295Y-96172400D01*
X229350914Y-96220019D01*
X229398533Y-96315257D01*
X229398533Y-96458114D01*
X229350914Y-96553352D01*
X229303295Y-96600971D01*
X229208057Y-96648590D01*
X228827104Y-96648590D01*
X229874723Y-97124780D02*
X230065200Y-97124780D01*
X230160438Y-97077161D01*
X230208057Y-97029542D01*
X230303295Y-96886685D01*
X230350914Y-96696209D01*
X230350914Y-96315257D01*
X230303295Y-96220019D01*
X230255676Y-96172400D01*
X230160438Y-96124780D01*
X229969961Y-96124780D01*
X229874723Y-96172400D01*
X229827104Y-96220019D01*
X229779485Y-96315257D01*
X229779485Y-96553352D01*
X229827104Y-96648590D01*
X229874723Y-96696209D01*
X229969961Y-96743828D01*
X230160438Y-96743828D01*
X230255676Y-96696209D01*
X230303295Y-96648590D01*
X230350914Y-96553352D01*
X232252780Y-94267257D02*
X231776590Y-94600590D01*
X232252780Y-94838685D02*
X231252780Y-94838685D01*
X231252780Y-94457733D01*
X231300400Y-94362495D01*
X231348019Y-94314876D01*
X231443257Y-94267257D01*
X231586114Y-94267257D01*
X231681352Y-94314876D01*
X231728971Y-94362495D01*
X231776590Y-94457733D01*
X231776590Y-94838685D01*
X232252780Y-93314876D02*
X232252780Y-93886304D01*
X232252780Y-93600590D02*
X231252780Y-93600590D01*
X231395638Y-93695828D01*
X231490876Y-93791066D01*
X231538495Y-93886304D01*
X231252780Y-92695828D02*
X231252780Y-92600590D01*
X231300400Y-92505352D01*
X231348019Y-92457733D01*
X231443257Y-92410114D01*
X231633733Y-92362495D01*
X231871828Y-92362495D01*
X232062304Y-92410114D01*
X232157542Y-92457733D01*
X232205161Y-92505352D01*
X232252780Y-92600590D01*
X232252780Y-92695828D01*
X232205161Y-92791066D01*
X232157542Y-92838685D01*
X232062304Y-92886304D01*
X231871828Y-92933923D01*
X231633733Y-92933923D01*
X231443257Y-92886304D01*
X231348019Y-92838685D01*
X231300400Y-92791066D01*
X231252780Y-92695828D01*
X205976082Y-110304860D02*
X205642749Y-109828670D01*
X205404654Y-110304860D02*
X205404654Y-109304860D01*
X205785606Y-109304860D01*
X205880844Y-109352480D01*
X205928463Y-109400099D01*
X205976082Y-109495337D01*
X205976082Y-109638194D01*
X205928463Y-109733432D01*
X205880844Y-109781051D01*
X205785606Y-109828670D01*
X205404654Y-109828670D01*
X206928463Y-110304860D02*
X206357035Y-110304860D01*
X206642749Y-110304860D02*
X206642749Y-109304860D01*
X206547511Y-109447718D01*
X206452273Y-109542956D01*
X206357035Y-109590575D01*
X207880844Y-110304860D02*
X207309416Y-110304860D01*
X207595130Y-110304860D02*
X207595130Y-109304860D01*
X207499892Y-109447718D01*
X207404654Y-109542956D01*
X207309416Y-109590575D01*
X235272342Y-98699580D02*
X234939009Y-98223390D01*
X234700914Y-98699580D02*
X234700914Y-97699580D01*
X235081866Y-97699580D01*
X235177104Y-97747200D01*
X235224723Y-97794819D01*
X235272342Y-97890057D01*
X235272342Y-98032914D01*
X235224723Y-98128152D01*
X235177104Y-98175771D01*
X235081866Y-98223390D01*
X234700914Y-98223390D01*
X236224723Y-98699580D02*
X235653295Y-98699580D01*
X235939009Y-98699580D02*
X235939009Y-97699580D01*
X235843771Y-97842438D01*
X235748533Y-97937676D01*
X235653295Y-97985295D01*
X236605676Y-97794819D02*
X236653295Y-97747200D01*
X236748533Y-97699580D01*
X236986628Y-97699580D01*
X237081866Y-97747200D01*
X237129485Y-97794819D01*
X237177104Y-97890057D01*
X237177104Y-97985295D01*
X237129485Y-98128152D01*
X236558057Y-98699580D01*
X237177104Y-98699580D01*
X205960742Y-115158780D02*
X205627409Y-114682590D01*
X205389314Y-115158780D02*
X205389314Y-114158780D01*
X205770266Y-114158780D01*
X205865504Y-114206400D01*
X205913123Y-114254019D01*
X205960742Y-114349257D01*
X205960742Y-114492114D01*
X205913123Y-114587352D01*
X205865504Y-114634971D01*
X205770266Y-114682590D01*
X205389314Y-114682590D01*
X206913123Y-115158780D02*
X206341695Y-115158780D01*
X206627409Y-115158780D02*
X206627409Y-114158780D01*
X206532171Y-114301638D01*
X206436933Y-114396876D01*
X206341695Y-114444495D01*
X207246457Y-114158780D02*
X207865504Y-114158780D01*
X207532171Y-114539733D01*
X207675028Y-114539733D01*
X207770266Y-114587352D01*
X207817885Y-114634971D01*
X207865504Y-114730209D01*
X207865504Y-114968304D01*
X207817885Y-115063542D01*
X207770266Y-115111161D01*
X207675028Y-115158780D01*
X207389314Y-115158780D01*
X207294076Y-115111161D01*
X207246457Y-115063542D01*
X190749180Y-105697257D02*
X190272990Y-106030590D01*
X190749180Y-106268685D02*
X189749180Y-106268685D01*
X189749180Y-105887733D01*
X189796800Y-105792495D01*
X189844419Y-105744876D01*
X189939657Y-105697257D01*
X190082514Y-105697257D01*
X190177752Y-105744876D01*
X190225371Y-105792495D01*
X190272990Y-105887733D01*
X190272990Y-106268685D01*
X190749180Y-104744876D02*
X190749180Y-105316304D01*
X190749180Y-105030590D02*
X189749180Y-105030590D01*
X189892038Y-105125828D01*
X189987276Y-105221066D01*
X190034895Y-105316304D01*
X190082514Y-103887733D02*
X190749180Y-103887733D01*
X189701561Y-104125828D02*
X190415847Y-104363923D01*
X190415847Y-103744876D01*
X190989660Y-100941037D02*
X190513470Y-101274370D01*
X190989660Y-101512465D02*
X189989660Y-101512465D01*
X189989660Y-101131513D01*
X190037280Y-101036275D01*
X190084899Y-100988656D01*
X190180137Y-100941037D01*
X190322994Y-100941037D01*
X190418232Y-100988656D01*
X190465851Y-101036275D01*
X190513470Y-101131513D01*
X190513470Y-101512465D01*
X190989660Y-99988656D02*
X190989660Y-100560084D01*
X190989660Y-100274370D02*
X189989660Y-100274370D01*
X190132518Y-100369608D01*
X190227756Y-100464846D01*
X190275375Y-100560084D01*
X189989660Y-99083894D02*
X189989660Y-99560084D01*
X190465851Y-99607703D01*
X190418232Y-99560084D01*
X190370613Y-99464846D01*
X190370613Y-99226751D01*
X190418232Y-99131513D01*
X190465851Y-99083894D01*
X190561089Y-99036275D01*
X190799184Y-99036275D01*
X190894422Y-99083894D01*
X190942041Y-99131513D01*
X190989660Y-99226751D01*
X190989660Y-99464846D01*
X190942041Y-99560084D01*
X190894422Y-99607703D01*
X241317542Y-77668380D02*
X240984209Y-77192190D01*
X240746114Y-77668380D02*
X240746114Y-76668380D01*
X241127066Y-76668380D01*
X241222304Y-76716000D01*
X241269923Y-76763619D01*
X241317542Y-76858857D01*
X241317542Y-77001714D01*
X241269923Y-77096952D01*
X241222304Y-77144571D01*
X241127066Y-77192190D01*
X240746114Y-77192190D01*
X242269923Y-77668380D02*
X241698495Y-77668380D01*
X241984209Y-77668380D02*
X241984209Y-76668380D01*
X241888971Y-76811238D01*
X241793733Y-76906476D01*
X241698495Y-76954095D01*
X243127066Y-76668380D02*
X242936590Y-76668380D01*
X242841352Y-76716000D01*
X242793733Y-76763619D01*
X242698495Y-76906476D01*
X242650876Y-77096952D01*
X242650876Y-77477904D01*
X242698495Y-77573142D01*
X242746114Y-77620761D01*
X242841352Y-77668380D01*
X243031828Y-77668380D01*
X243127066Y-77620761D01*
X243174685Y-77573142D01*
X243222304Y-77477904D01*
X243222304Y-77239809D01*
X243174685Y-77144571D01*
X243127066Y-77096952D01*
X243031828Y-77049333D01*
X242841352Y-77049333D01*
X242746114Y-77096952D01*
X242698495Y-77144571D01*
X242650876Y-77239809D01*
X205955562Y-103924380D02*
X205622229Y-103448190D01*
X205384134Y-103924380D02*
X205384134Y-102924380D01*
X205765086Y-102924380D01*
X205860324Y-102972000D01*
X205907943Y-103019619D01*
X205955562Y-103114857D01*
X205955562Y-103257714D01*
X205907943Y-103352952D01*
X205860324Y-103400571D01*
X205765086Y-103448190D01*
X205384134Y-103448190D01*
X206907943Y-103924380D02*
X206336515Y-103924380D01*
X206622229Y-103924380D02*
X206622229Y-102924380D01*
X206526991Y-103067238D01*
X206431753Y-103162476D01*
X206336515Y-103210095D01*
X207241277Y-102924380D02*
X207907943Y-102924380D01*
X207479372Y-103924380D01*
X235018342Y-97124780D02*
X234685009Y-96648590D01*
X234446914Y-97124780D02*
X234446914Y-96124780D01*
X234827866Y-96124780D01*
X234923104Y-96172400D01*
X234970723Y-96220019D01*
X235018342Y-96315257D01*
X235018342Y-96458114D01*
X234970723Y-96553352D01*
X234923104Y-96600971D01*
X234827866Y-96648590D01*
X234446914Y-96648590D01*
X235970723Y-97124780D02*
X235399295Y-97124780D01*
X235685009Y-97124780D02*
X235685009Y-96124780D01*
X235589771Y-96267638D01*
X235494533Y-96362876D01*
X235399295Y-96410495D01*
X236542152Y-96553352D02*
X236446914Y-96505733D01*
X236399295Y-96458114D01*
X236351676Y-96362876D01*
X236351676Y-96315257D01*
X236399295Y-96220019D01*
X236446914Y-96172400D01*
X236542152Y-96124780D01*
X236732628Y-96124780D01*
X236827866Y-96172400D01*
X236875485Y-96220019D01*
X236923104Y-96315257D01*
X236923104Y-96362876D01*
X236875485Y-96458114D01*
X236827866Y-96505733D01*
X236732628Y-96553352D01*
X236542152Y-96553352D01*
X236446914Y-96600971D01*
X236399295Y-96648590D01*
X236351676Y-96743828D01*
X236351676Y-96934304D01*
X236399295Y-97029542D01*
X236446914Y-97077161D01*
X236542152Y-97124780D01*
X236732628Y-97124780D01*
X236827866Y-97077161D01*
X236875485Y-97029542D01*
X236923104Y-96934304D01*
X236923104Y-96743828D01*
X236875485Y-96648590D01*
X236827866Y-96600971D01*
X236732628Y-96553352D01*
X234256342Y-89199980D02*
X233923009Y-88723790D01*
X233684914Y-89199980D02*
X233684914Y-88199980D01*
X234065866Y-88199980D01*
X234161104Y-88247600D01*
X234208723Y-88295219D01*
X234256342Y-88390457D01*
X234256342Y-88533314D01*
X234208723Y-88628552D01*
X234161104Y-88676171D01*
X234065866Y-88723790D01*
X233684914Y-88723790D01*
X235208723Y-89199980D02*
X234637295Y-89199980D01*
X234923009Y-89199980D02*
X234923009Y-88199980D01*
X234827771Y-88342838D01*
X234732533Y-88438076D01*
X234637295Y-88485695D01*
X235684914Y-89199980D02*
X235875390Y-89199980D01*
X235970628Y-89152361D01*
X236018247Y-89104742D01*
X236113485Y-88961885D01*
X236161104Y-88771409D01*
X236161104Y-88390457D01*
X236113485Y-88295219D01*
X236065866Y-88247600D01*
X235970628Y-88199980D01*
X235780152Y-88199980D01*
X235684914Y-88247600D01*
X235637295Y-88295219D01*
X235589676Y-88390457D01*
X235589676Y-88628552D01*
X235637295Y-88723790D01*
X235684914Y-88771409D01*
X235780152Y-88819028D01*
X235970628Y-88819028D01*
X236065866Y-88771409D01*
X236113485Y-88723790D01*
X236161104Y-88628552D01*
X231068542Y-89131380D02*
X230735209Y-88655190D01*
X230497114Y-89131380D02*
X230497114Y-88131380D01*
X230878066Y-88131380D01*
X230973304Y-88179000D01*
X231020923Y-88226619D01*
X231068542Y-88321857D01*
X231068542Y-88464714D01*
X231020923Y-88559952D01*
X230973304Y-88607571D01*
X230878066Y-88655190D01*
X230497114Y-88655190D01*
X231449495Y-88226619D02*
X231497114Y-88179000D01*
X231592352Y-88131380D01*
X231830447Y-88131380D01*
X231925685Y-88179000D01*
X231973304Y-88226619D01*
X232020923Y-88321857D01*
X232020923Y-88417095D01*
X231973304Y-88559952D01*
X231401876Y-89131380D01*
X232020923Y-89131380D01*
X232639971Y-88131380D02*
X232735209Y-88131380D01*
X232830447Y-88179000D01*
X232878066Y-88226619D01*
X232925685Y-88321857D01*
X232973304Y-88512333D01*
X232973304Y-88750428D01*
X232925685Y-88940904D01*
X232878066Y-89036142D01*
X232830447Y-89083761D01*
X232735209Y-89131380D01*
X232639971Y-89131380D01*
X232544733Y-89083761D01*
X232497114Y-89036142D01*
X232449495Y-88940904D01*
X232401876Y-88750428D01*
X232401876Y-88512333D01*
X232449495Y-88321857D01*
X232497114Y-88226619D01*
X232544733Y-88179000D01*
X232639971Y-88131380D01*
X228341180Y-84361257D02*
X227864990Y-84694590D01*
X228341180Y-84932685D02*
X227341180Y-84932685D01*
X227341180Y-84551733D01*
X227388800Y-84456495D01*
X227436419Y-84408876D01*
X227531657Y-84361257D01*
X227674514Y-84361257D01*
X227769752Y-84408876D01*
X227817371Y-84456495D01*
X227864990Y-84551733D01*
X227864990Y-84932685D01*
X227436419Y-83980304D02*
X227388800Y-83932685D01*
X227341180Y-83837447D01*
X227341180Y-83599352D01*
X227388800Y-83504114D01*
X227436419Y-83456495D01*
X227531657Y-83408876D01*
X227626895Y-83408876D01*
X227769752Y-83456495D01*
X228341180Y-84027923D01*
X228341180Y-83408876D01*
X228341180Y-82456495D02*
X228341180Y-83027923D01*
X228341180Y-82742209D02*
X227341180Y-82742209D01*
X227484038Y-82837447D01*
X227579276Y-82932685D01*
X227626895Y-83027923D01*
X239169180Y-87155157D02*
X238692990Y-87488490D01*
X239169180Y-87726585D02*
X238169180Y-87726585D01*
X238169180Y-87345633D01*
X238216800Y-87250395D01*
X238264419Y-87202776D01*
X238359657Y-87155157D01*
X238502514Y-87155157D01*
X238597752Y-87202776D01*
X238645371Y-87250395D01*
X238692990Y-87345633D01*
X238692990Y-87726585D01*
X238264419Y-86774204D02*
X238216800Y-86726585D01*
X238169180Y-86631347D01*
X238169180Y-86393252D01*
X238216800Y-86298014D01*
X238264419Y-86250395D01*
X238359657Y-86202776D01*
X238454895Y-86202776D01*
X238597752Y-86250395D01*
X239169180Y-86821823D01*
X239169180Y-86202776D01*
X238264419Y-85821823D02*
X238216800Y-85774204D01*
X238169180Y-85678966D01*
X238169180Y-85440871D01*
X238216800Y-85345633D01*
X238264419Y-85298014D01*
X238359657Y-85250395D01*
X238454895Y-85250395D01*
X238597752Y-85298014D01*
X239169180Y-85869442D01*
X239169180Y-85250395D01*
X244060742Y-68981580D02*
X243727409Y-68505390D01*
X243489314Y-68981580D02*
X243489314Y-67981580D01*
X243870266Y-67981580D01*
X243965504Y-68029200D01*
X244013123Y-68076819D01*
X244060742Y-68172057D01*
X244060742Y-68314914D01*
X244013123Y-68410152D01*
X243965504Y-68457771D01*
X243870266Y-68505390D01*
X243489314Y-68505390D01*
X244441695Y-68076819D02*
X244489314Y-68029200D01*
X244584552Y-67981580D01*
X244822647Y-67981580D01*
X244917885Y-68029200D01*
X244965504Y-68076819D01*
X245013123Y-68172057D01*
X245013123Y-68267295D01*
X244965504Y-68410152D01*
X244394076Y-68981580D01*
X245013123Y-68981580D01*
X245346457Y-67981580D02*
X245965504Y-67981580D01*
X245632171Y-68362533D01*
X245775028Y-68362533D01*
X245870266Y-68410152D01*
X245917885Y-68457771D01*
X245965504Y-68553009D01*
X245965504Y-68791104D01*
X245917885Y-68886342D01*
X245870266Y-68933961D01*
X245775028Y-68981580D01*
X245489314Y-68981580D01*
X245394076Y-68933961D01*
X245346457Y-68886342D01*
X236491542Y-78227180D02*
X236158209Y-77750990D01*
X235920114Y-78227180D02*
X235920114Y-77227180D01*
X236301066Y-77227180D01*
X236396304Y-77274800D01*
X236443923Y-77322419D01*
X236491542Y-77417657D01*
X236491542Y-77560514D01*
X236443923Y-77655752D01*
X236396304Y-77703371D01*
X236301066Y-77750990D01*
X235920114Y-77750990D01*
X236872495Y-77322419D02*
X236920114Y-77274800D01*
X237015352Y-77227180D01*
X237253447Y-77227180D01*
X237348685Y-77274800D01*
X237396304Y-77322419D01*
X237443923Y-77417657D01*
X237443923Y-77512895D01*
X237396304Y-77655752D01*
X236824876Y-78227180D01*
X237443923Y-78227180D01*
X238301066Y-77560514D02*
X238301066Y-78227180D01*
X238062971Y-77179561D02*
X237824876Y-77893847D01*
X238443923Y-77893847D01*
X227042642Y-74320680D02*
X226709309Y-73844490D01*
X226471214Y-74320680D02*
X226471214Y-73320680D01*
X226852166Y-73320680D01*
X226947404Y-73368300D01*
X226995023Y-73415919D01*
X227042642Y-73511157D01*
X227042642Y-73654014D01*
X226995023Y-73749252D01*
X226947404Y-73796871D01*
X226852166Y-73844490D01*
X226471214Y-73844490D01*
X227423595Y-73415919D02*
X227471214Y-73368300D01*
X227566452Y-73320680D01*
X227804547Y-73320680D01*
X227899785Y-73368300D01*
X227947404Y-73415919D01*
X227995023Y-73511157D01*
X227995023Y-73606395D01*
X227947404Y-73749252D01*
X227375976Y-74320680D01*
X227995023Y-74320680D01*
X228899785Y-73320680D02*
X228423595Y-73320680D01*
X228375976Y-73796871D01*
X228423595Y-73749252D01*
X228518833Y-73701633D01*
X228756928Y-73701633D01*
X228852166Y-73749252D01*
X228899785Y-73796871D01*
X228947404Y-73892109D01*
X228947404Y-74130204D01*
X228899785Y-74225442D01*
X228852166Y-74273061D01*
X228756928Y-74320680D01*
X228518833Y-74320680D01*
X228423595Y-74273061D01*
X228375976Y-74225442D01*
X203869642Y-67882380D02*
X203536309Y-67406190D01*
X203298214Y-67882380D02*
X203298214Y-66882380D01*
X203679166Y-66882380D01*
X203774404Y-66930000D01*
X203822023Y-66977619D01*
X203869642Y-67072857D01*
X203869642Y-67215714D01*
X203822023Y-67310952D01*
X203774404Y-67358571D01*
X203679166Y-67406190D01*
X203298214Y-67406190D01*
X204250595Y-66977619D02*
X204298214Y-66930000D01*
X204393452Y-66882380D01*
X204631547Y-66882380D01*
X204726785Y-66930000D01*
X204774404Y-66977619D01*
X204822023Y-67072857D01*
X204822023Y-67168095D01*
X204774404Y-67310952D01*
X204202976Y-67882380D01*
X204822023Y-67882380D01*
X205679166Y-66882380D02*
X205488690Y-66882380D01*
X205393452Y-66930000D01*
X205345833Y-66977619D01*
X205250595Y-67120476D01*
X205202976Y-67310952D01*
X205202976Y-67691904D01*
X205250595Y-67787142D01*
X205298214Y-67834761D01*
X205393452Y-67882380D01*
X205583928Y-67882380D01*
X205679166Y-67834761D01*
X205726785Y-67787142D01*
X205774404Y-67691904D01*
X205774404Y-67453809D01*
X205726785Y-67358571D01*
X205679166Y-67310952D01*
X205583928Y-67263333D01*
X205393452Y-67263333D01*
X205298214Y-67310952D01*
X205250595Y-67358571D01*
X205202976Y-67453809D01*
X202169642Y-69382380D02*
X201836309Y-68906190D01*
X201598214Y-69382380D02*
X201598214Y-68382380D01*
X201979166Y-68382380D01*
X202074404Y-68430000D01*
X202122023Y-68477619D01*
X202169642Y-68572857D01*
X202169642Y-68715714D01*
X202122023Y-68810952D01*
X202074404Y-68858571D01*
X201979166Y-68906190D01*
X201598214Y-68906190D01*
X202550595Y-68477619D02*
X202598214Y-68430000D01*
X202693452Y-68382380D01*
X202931547Y-68382380D01*
X203026785Y-68430000D01*
X203074404Y-68477619D01*
X203122023Y-68572857D01*
X203122023Y-68668095D01*
X203074404Y-68810952D01*
X202502976Y-69382380D01*
X203122023Y-69382380D01*
X203455357Y-68382380D02*
X204122023Y-68382380D01*
X203693452Y-69382380D01*
X120667542Y-69235580D02*
X120334209Y-68759390D01*
X120096114Y-69235580D02*
X120096114Y-68235580D01*
X120477066Y-68235580D01*
X120572304Y-68283200D01*
X120619923Y-68330819D01*
X120667542Y-68426057D01*
X120667542Y-68568914D01*
X120619923Y-68664152D01*
X120572304Y-68711771D01*
X120477066Y-68759390D01*
X120096114Y-68759390D01*
X121048495Y-68330819D02*
X121096114Y-68283200D01*
X121191352Y-68235580D01*
X121429447Y-68235580D01*
X121524685Y-68283200D01*
X121572304Y-68330819D01*
X121619923Y-68426057D01*
X121619923Y-68521295D01*
X121572304Y-68664152D01*
X121000876Y-69235580D01*
X121619923Y-69235580D01*
X122191352Y-68664152D02*
X122096114Y-68616533D01*
X122048495Y-68568914D01*
X122000876Y-68473676D01*
X122000876Y-68426057D01*
X122048495Y-68330819D01*
X122096114Y-68283200D01*
X122191352Y-68235580D01*
X122381828Y-68235580D01*
X122477066Y-68283200D01*
X122524685Y-68330819D01*
X122572304Y-68426057D01*
X122572304Y-68473676D01*
X122524685Y-68568914D01*
X122477066Y-68616533D01*
X122381828Y-68664152D01*
X122191352Y-68664152D01*
X122096114Y-68711771D01*
X122048495Y-68759390D01*
X122000876Y-68854628D01*
X122000876Y-69045104D01*
X122048495Y-69140342D01*
X122096114Y-69187961D01*
X122191352Y-69235580D01*
X122381828Y-69235580D01*
X122477066Y-69187961D01*
X122524685Y-69140342D01*
X122572304Y-69045104D01*
X122572304Y-68854628D01*
X122524685Y-68759390D01*
X122477066Y-68711771D01*
X122381828Y-68664152D01*
X133316742Y-61920380D02*
X132983409Y-61444190D01*
X132745314Y-61920380D02*
X132745314Y-60920380D01*
X133126266Y-60920380D01*
X133221504Y-60968000D01*
X133269123Y-61015619D01*
X133316742Y-61110857D01*
X133316742Y-61253714D01*
X133269123Y-61348952D01*
X133221504Y-61396571D01*
X133126266Y-61444190D01*
X132745314Y-61444190D01*
X134173885Y-61253714D02*
X134173885Y-61920380D01*
X133935790Y-60872761D02*
X133697695Y-61587047D01*
X134316742Y-61587047D01*
X134650076Y-61015619D02*
X134697695Y-60968000D01*
X134792933Y-60920380D01*
X135031028Y-60920380D01*
X135126266Y-60968000D01*
X135173885Y-61015619D01*
X135221504Y-61110857D01*
X135221504Y-61206095D01*
X135173885Y-61348952D01*
X134602457Y-61920380D01*
X135221504Y-61920380D01*
X133215142Y-60294780D02*
X132881809Y-59818590D01*
X132643714Y-60294780D02*
X132643714Y-59294780D01*
X133024666Y-59294780D01*
X133119904Y-59342400D01*
X133167523Y-59390019D01*
X133215142Y-59485257D01*
X133215142Y-59628114D01*
X133167523Y-59723352D01*
X133119904Y-59770971D01*
X133024666Y-59818590D01*
X132643714Y-59818590D01*
X134072285Y-59628114D02*
X134072285Y-60294780D01*
X133834190Y-59247161D02*
X133596095Y-59961447D01*
X134215142Y-59961447D01*
X134500857Y-59294780D02*
X135119904Y-59294780D01*
X134786571Y-59675733D01*
X134929428Y-59675733D01*
X135024666Y-59723352D01*
X135072285Y-59770971D01*
X135119904Y-59866209D01*
X135119904Y-60104304D01*
X135072285Y-60199542D01*
X135024666Y-60247161D01*
X134929428Y-60294780D01*
X134643714Y-60294780D01*
X134548476Y-60247161D01*
X134500857Y-60199542D01*
X128795542Y-67660780D02*
X128462209Y-67184590D01*
X128224114Y-67660780D02*
X128224114Y-66660780D01*
X128605066Y-66660780D01*
X128700304Y-66708400D01*
X128747923Y-66756019D01*
X128795542Y-66851257D01*
X128795542Y-66994114D01*
X128747923Y-67089352D01*
X128700304Y-67136971D01*
X128605066Y-67184590D01*
X128224114Y-67184590D01*
X129652685Y-66994114D02*
X129652685Y-67660780D01*
X129414590Y-66613161D02*
X129176495Y-67327447D01*
X129795542Y-67327447D01*
X130605066Y-66660780D02*
X130414590Y-66660780D01*
X130319352Y-66708400D01*
X130271733Y-66756019D01*
X130176495Y-66898876D01*
X130128876Y-67089352D01*
X130128876Y-67470304D01*
X130176495Y-67565542D01*
X130224114Y-67613161D01*
X130319352Y-67660780D01*
X130509828Y-67660780D01*
X130605066Y-67613161D01*
X130652685Y-67565542D01*
X130700304Y-67470304D01*
X130700304Y-67232209D01*
X130652685Y-67136971D01*
X130605066Y-67089352D01*
X130509828Y-67041733D01*
X130319352Y-67041733D01*
X130224114Y-67089352D01*
X130176495Y-67136971D01*
X130128876Y-67232209D01*
X183669642Y-69482380D02*
X183336309Y-69006190D01*
X183098214Y-69482380D02*
X183098214Y-68482380D01*
X183479166Y-68482380D01*
X183574404Y-68530000D01*
X183622023Y-68577619D01*
X183669642Y-68672857D01*
X183669642Y-68815714D01*
X183622023Y-68910952D01*
X183574404Y-68958571D01*
X183479166Y-69006190D01*
X183098214Y-69006190D01*
X184526785Y-68815714D02*
X184526785Y-69482380D01*
X184288690Y-68434761D02*
X184050595Y-69149047D01*
X184669642Y-69149047D01*
X185193452Y-68910952D02*
X185098214Y-68863333D01*
X185050595Y-68815714D01*
X185002976Y-68720476D01*
X185002976Y-68672857D01*
X185050595Y-68577619D01*
X185098214Y-68530000D01*
X185193452Y-68482380D01*
X185383928Y-68482380D01*
X185479166Y-68530000D01*
X185526785Y-68577619D01*
X185574404Y-68672857D01*
X185574404Y-68720476D01*
X185526785Y-68815714D01*
X185479166Y-68863333D01*
X185383928Y-68910952D01*
X185193452Y-68910952D01*
X185098214Y-68958571D01*
X185050595Y-69006190D01*
X185002976Y-69101428D01*
X185002976Y-69291904D01*
X185050595Y-69387142D01*
X185098214Y-69434761D01*
X185193452Y-69482380D01*
X185383928Y-69482380D01*
X185479166Y-69434761D01*
X185526785Y-69387142D01*
X185574404Y-69291904D01*
X185574404Y-69101428D01*
X185526785Y-69006190D01*
X185479166Y-68958571D01*
X185383928Y-68910952D01*
X184772162Y-55976780D02*
X184438829Y-55500590D01*
X184200734Y-55976780D02*
X184200734Y-54976780D01*
X184581686Y-54976780D01*
X184676924Y-55024400D01*
X184724543Y-55072019D01*
X184772162Y-55167257D01*
X184772162Y-55310114D01*
X184724543Y-55405352D01*
X184676924Y-55452971D01*
X184581686Y-55500590D01*
X184200734Y-55500590D01*
X185676924Y-54976780D02*
X185200734Y-54976780D01*
X185153115Y-55452971D01*
X185200734Y-55405352D01*
X185295972Y-55357733D01*
X185534067Y-55357733D01*
X185629305Y-55405352D01*
X185676924Y-55452971D01*
X185724543Y-55548209D01*
X185724543Y-55786304D01*
X185676924Y-55881542D01*
X185629305Y-55929161D01*
X185534067Y-55976780D01*
X185295972Y-55976780D01*
X185200734Y-55929161D01*
X185153115Y-55881542D01*
X186676924Y-55976780D02*
X186105496Y-55976780D01*
X186391210Y-55976780D02*
X186391210Y-54976780D01*
X186295972Y-55119638D01*
X186200734Y-55214876D01*
X186105496Y-55262495D01*
X182389542Y-62377580D02*
X182056209Y-61901390D01*
X181818114Y-62377580D02*
X181818114Y-61377580D01*
X182199066Y-61377580D01*
X182294304Y-61425200D01*
X182341923Y-61472819D01*
X182389542Y-61568057D01*
X182389542Y-61710914D01*
X182341923Y-61806152D01*
X182294304Y-61853771D01*
X182199066Y-61901390D01*
X181818114Y-61901390D01*
X183294304Y-61377580D02*
X182818114Y-61377580D01*
X182770495Y-61853771D01*
X182818114Y-61806152D01*
X182913352Y-61758533D01*
X183151447Y-61758533D01*
X183246685Y-61806152D01*
X183294304Y-61853771D01*
X183341923Y-61949009D01*
X183341923Y-62187104D01*
X183294304Y-62282342D01*
X183246685Y-62329961D01*
X183151447Y-62377580D01*
X182913352Y-62377580D01*
X182818114Y-62329961D01*
X182770495Y-62282342D01*
X183722876Y-61472819D02*
X183770495Y-61425200D01*
X183865733Y-61377580D01*
X184103828Y-61377580D01*
X184199066Y-61425200D01*
X184246685Y-61472819D01*
X184294304Y-61568057D01*
X184294304Y-61663295D01*
X184246685Y-61806152D01*
X183675257Y-62377580D01*
X184294304Y-62377580D01*
X175785542Y-71826380D02*
X175452209Y-71350190D01*
X175214114Y-71826380D02*
X175214114Y-70826380D01*
X175595066Y-70826380D01*
X175690304Y-70874000D01*
X175737923Y-70921619D01*
X175785542Y-71016857D01*
X175785542Y-71159714D01*
X175737923Y-71254952D01*
X175690304Y-71302571D01*
X175595066Y-71350190D01*
X175214114Y-71350190D01*
X176690304Y-70826380D02*
X176214114Y-70826380D01*
X176166495Y-71302571D01*
X176214114Y-71254952D01*
X176309352Y-71207333D01*
X176547447Y-71207333D01*
X176642685Y-71254952D01*
X176690304Y-71302571D01*
X176737923Y-71397809D01*
X176737923Y-71635904D01*
X176690304Y-71731142D01*
X176642685Y-71778761D01*
X176547447Y-71826380D01*
X176309352Y-71826380D01*
X176214114Y-71778761D01*
X176166495Y-71731142D01*
X177642685Y-70826380D02*
X177166495Y-70826380D01*
X177118876Y-71302571D01*
X177166495Y-71254952D01*
X177261733Y-71207333D01*
X177499828Y-71207333D01*
X177595066Y-71254952D01*
X177642685Y-71302571D01*
X177690304Y-71397809D01*
X177690304Y-71635904D01*
X177642685Y-71731142D01*
X177595066Y-71778761D01*
X177499828Y-71826380D01*
X177261733Y-71826380D01*
X177166495Y-71778761D01*
X177118876Y-71731142D01*
X170269642Y-71607380D02*
X169936309Y-71131190D01*
X169698214Y-71607380D02*
X169698214Y-70607380D01*
X170079166Y-70607380D01*
X170174404Y-70655000D01*
X170222023Y-70702619D01*
X170269642Y-70797857D01*
X170269642Y-70940714D01*
X170222023Y-71035952D01*
X170174404Y-71083571D01*
X170079166Y-71131190D01*
X169698214Y-71131190D01*
X171174404Y-70607380D02*
X170698214Y-70607380D01*
X170650595Y-71083571D01*
X170698214Y-71035952D01*
X170793452Y-70988333D01*
X171031547Y-70988333D01*
X171126785Y-71035952D01*
X171174404Y-71083571D01*
X171222023Y-71178809D01*
X171222023Y-71416904D01*
X171174404Y-71512142D01*
X171126785Y-71559761D01*
X171031547Y-71607380D01*
X170793452Y-71607380D01*
X170698214Y-71559761D01*
X170650595Y-71512142D01*
X172079166Y-70607380D02*
X171888690Y-70607380D01*
X171793452Y-70655000D01*
X171745833Y-70702619D01*
X171650595Y-70845476D01*
X171602976Y-71035952D01*
X171602976Y-71416904D01*
X171650595Y-71512142D01*
X171698214Y-71559761D01*
X171793452Y-71607380D01*
X171983928Y-71607380D01*
X172079166Y-71559761D01*
X172126785Y-71512142D01*
X172174404Y-71416904D01*
X172174404Y-71178809D01*
X172126785Y-71083571D01*
X172079166Y-71035952D01*
X171983928Y-70988333D01*
X171793452Y-70988333D01*
X171698214Y-71035952D01*
X171650595Y-71083571D01*
X171602976Y-71178809D01*
X167555942Y-66187580D02*
X167222609Y-65711390D01*
X166984514Y-66187580D02*
X166984514Y-65187580D01*
X167365466Y-65187580D01*
X167460704Y-65235200D01*
X167508323Y-65282819D01*
X167555942Y-65378057D01*
X167555942Y-65520914D01*
X167508323Y-65616152D01*
X167460704Y-65663771D01*
X167365466Y-65711390D01*
X166984514Y-65711390D01*
X168460704Y-65187580D02*
X167984514Y-65187580D01*
X167936895Y-65663771D01*
X167984514Y-65616152D01*
X168079752Y-65568533D01*
X168317847Y-65568533D01*
X168413085Y-65616152D01*
X168460704Y-65663771D01*
X168508323Y-65759009D01*
X168508323Y-65997104D01*
X168460704Y-66092342D01*
X168413085Y-66139961D01*
X168317847Y-66187580D01*
X168079752Y-66187580D01*
X167984514Y-66139961D01*
X167936895Y-66092342D01*
X168841657Y-65187580D02*
X169508323Y-65187580D01*
X169079752Y-66187580D01*
X181882380Y-67542857D02*
X181406190Y-67876190D01*
X181882380Y-68114285D02*
X180882380Y-68114285D01*
X180882380Y-67733333D01*
X180930000Y-67638095D01*
X180977619Y-67590476D01*
X181072857Y-67542857D01*
X181215714Y-67542857D01*
X181310952Y-67590476D01*
X181358571Y-67638095D01*
X181406190Y-67733333D01*
X181406190Y-68114285D01*
X180882380Y-66638095D02*
X180882380Y-67114285D01*
X181358571Y-67161904D01*
X181310952Y-67114285D01*
X181263333Y-67019047D01*
X181263333Y-66780952D01*
X181310952Y-66685714D01*
X181358571Y-66638095D01*
X181453809Y-66590476D01*
X181691904Y-66590476D01*
X181787142Y-66638095D01*
X181834761Y-66685714D01*
X181882380Y-66780952D01*
X181882380Y-67019047D01*
X181834761Y-67114285D01*
X181787142Y-67161904D01*
X181310952Y-66019047D02*
X181263333Y-66114285D01*
X181215714Y-66161904D01*
X181120476Y-66209523D01*
X181072857Y-66209523D01*
X180977619Y-66161904D01*
X180930000Y-66114285D01*
X180882380Y-66019047D01*
X180882380Y-65828571D01*
X180930000Y-65733333D01*
X180977619Y-65685714D01*
X181072857Y-65638095D01*
X181120476Y-65638095D01*
X181215714Y-65685714D01*
X181263333Y-65733333D01*
X181310952Y-65828571D01*
X181310952Y-66019047D01*
X181358571Y-66114285D01*
X181406190Y-66161904D01*
X181501428Y-66209523D01*
X181691904Y-66209523D01*
X181787142Y-66161904D01*
X181834761Y-66114285D01*
X181882380Y-66019047D01*
X181882380Y-65828571D01*
X181834761Y-65733333D01*
X181787142Y-65685714D01*
X181691904Y-65638095D01*
X181501428Y-65638095D01*
X181406190Y-65685714D01*
X181358571Y-65733333D01*
X181310952Y-65828571D01*
X75861942Y-129738380D02*
X75528609Y-129262190D01*
X75290514Y-129738380D02*
X75290514Y-128738380D01*
X75671466Y-128738380D01*
X75766704Y-128786000D01*
X75814323Y-128833619D01*
X75861942Y-128928857D01*
X75861942Y-129071714D01*
X75814323Y-129166952D01*
X75766704Y-129214571D01*
X75671466Y-129262190D01*
X75290514Y-129262190D01*
X76195276Y-128738380D02*
X76861942Y-128738380D01*
X76433371Y-129738380D01*
X77195276Y-128833619D02*
X77242895Y-128786000D01*
X77338133Y-128738380D01*
X77576228Y-128738380D01*
X77671466Y-128786000D01*
X77719085Y-128833619D01*
X77766704Y-128928857D01*
X77766704Y-129024095D01*
X77719085Y-129166952D01*
X77147657Y-129738380D01*
X77766704Y-129738380D01*
X75709542Y-128163580D02*
X75376209Y-127687390D01*
X75138114Y-128163580D02*
X75138114Y-127163580D01*
X75519066Y-127163580D01*
X75614304Y-127211200D01*
X75661923Y-127258819D01*
X75709542Y-127354057D01*
X75709542Y-127496914D01*
X75661923Y-127592152D01*
X75614304Y-127639771D01*
X75519066Y-127687390D01*
X75138114Y-127687390D01*
X76042876Y-127163580D02*
X76709542Y-127163580D01*
X76280971Y-128163580D01*
X76995257Y-127163580D02*
X77614304Y-127163580D01*
X77280971Y-127544533D01*
X77423828Y-127544533D01*
X77519066Y-127592152D01*
X77566685Y-127639771D01*
X77614304Y-127735009D01*
X77614304Y-127973104D01*
X77566685Y-128068342D01*
X77519066Y-128115961D01*
X77423828Y-128163580D01*
X77138114Y-128163580D01*
X77042876Y-128115961D01*
X76995257Y-128068342D01*
X106341942Y-104592380D02*
X106008609Y-104116190D01*
X105770514Y-104592380D02*
X105770514Y-103592380D01*
X106151466Y-103592380D01*
X106246704Y-103640000D01*
X106294323Y-103687619D01*
X106341942Y-103782857D01*
X106341942Y-103925714D01*
X106294323Y-104020952D01*
X106246704Y-104068571D01*
X106151466Y-104116190D01*
X105770514Y-104116190D01*
X106675276Y-103592380D02*
X107294323Y-103592380D01*
X106960990Y-103973333D01*
X107103847Y-103973333D01*
X107199085Y-104020952D01*
X107246704Y-104068571D01*
X107294323Y-104163809D01*
X107294323Y-104401904D01*
X107246704Y-104497142D01*
X107199085Y-104544761D01*
X107103847Y-104592380D01*
X106818133Y-104592380D01*
X106722895Y-104544761D01*
X106675276Y-104497142D01*
X107913371Y-103592380D02*
X108008609Y-103592380D01*
X108103847Y-103640000D01*
X108151466Y-103687619D01*
X108199085Y-103782857D01*
X108246704Y-103973333D01*
X108246704Y-104211428D01*
X108199085Y-104401904D01*
X108151466Y-104497142D01*
X108103847Y-104544761D01*
X108008609Y-104592380D01*
X107913371Y-104592380D01*
X107818133Y-104544761D01*
X107770514Y-104497142D01*
X107722895Y-104401904D01*
X107675276Y-104211428D01*
X107675276Y-103973333D01*
X107722895Y-103782857D01*
X107770514Y-103687619D01*
X107818133Y-103640000D01*
X107913371Y-103592380D01*
X228582480Y-72334457D02*
X228106290Y-72667790D01*
X228582480Y-72905885D02*
X227582480Y-72905885D01*
X227582480Y-72524933D01*
X227630100Y-72429695D01*
X227677719Y-72382076D01*
X227772957Y-72334457D01*
X227915814Y-72334457D01*
X228011052Y-72382076D01*
X228058671Y-72429695D01*
X228106290Y-72524933D01*
X228106290Y-72905885D01*
X227582480Y-72001123D02*
X227582480Y-71382076D01*
X227963433Y-71715409D01*
X227963433Y-71572552D01*
X228011052Y-71477314D01*
X228058671Y-71429695D01*
X228153909Y-71382076D01*
X228392004Y-71382076D01*
X228487242Y-71429695D01*
X228534861Y-71477314D01*
X228582480Y-71572552D01*
X228582480Y-71858266D01*
X228534861Y-71953504D01*
X228487242Y-72001123D01*
X227677719Y-71001123D02*
X227630100Y-70953504D01*
X227582480Y-70858266D01*
X227582480Y-70620171D01*
X227630100Y-70524933D01*
X227677719Y-70477314D01*
X227772957Y-70429695D01*
X227868195Y-70429695D01*
X228011052Y-70477314D01*
X228582480Y-71048742D01*
X228582480Y-70429695D01*
X236682142Y-73434180D02*
X236348809Y-72957990D01*
X236110714Y-73434180D02*
X236110714Y-72434180D01*
X236491666Y-72434180D01*
X236586904Y-72481800D01*
X236634523Y-72529419D01*
X236682142Y-72624657D01*
X236682142Y-72767514D01*
X236634523Y-72862752D01*
X236586904Y-72910371D01*
X236491666Y-72957990D01*
X236110714Y-72957990D01*
X237015476Y-72434180D02*
X237634523Y-72434180D01*
X237301190Y-72815133D01*
X237444047Y-72815133D01*
X237539285Y-72862752D01*
X237586904Y-72910371D01*
X237634523Y-73005609D01*
X237634523Y-73243704D01*
X237586904Y-73338942D01*
X237539285Y-73386561D01*
X237444047Y-73434180D01*
X237158333Y-73434180D01*
X237063095Y-73386561D01*
X237015476Y-73338942D01*
X238586904Y-73434180D02*
X238015476Y-73434180D01*
X238301190Y-73434180D02*
X238301190Y-72434180D01*
X238205952Y-72577038D01*
X238110714Y-72672276D01*
X238015476Y-72719895D01*
X144018095Y-98258380D02*
X144018095Y-99067904D01*
X144065714Y-99163142D01*
X144113333Y-99210761D01*
X144208571Y-99258380D01*
X144399047Y-99258380D01*
X144494285Y-99210761D01*
X144541904Y-99163142D01*
X144589523Y-99067904D01*
X144589523Y-98258380D01*
X145589523Y-99258380D02*
X145018095Y-99258380D01*
X145303809Y-99258380D02*
X145303809Y-98258380D01*
X145208571Y-98401238D01*
X145113333Y-98496476D01*
X145018095Y-98544095D01*
X174701295Y-73315580D02*
X174701295Y-74125104D01*
X174748914Y-74220342D01*
X174796533Y-74267961D01*
X174891771Y-74315580D01*
X175082247Y-74315580D01*
X175177485Y-74267961D01*
X175225104Y-74220342D01*
X175272723Y-74125104D01*
X175272723Y-73315580D01*
X175701295Y-73410819D02*
X175748914Y-73363200D01*
X175844152Y-73315580D01*
X176082247Y-73315580D01*
X176177485Y-73363200D01*
X176225104Y-73410819D01*
X176272723Y-73506057D01*
X176272723Y-73601295D01*
X176225104Y-73744152D01*
X175653676Y-74315580D01*
X176272723Y-74315580D01*
D16*
X224154193Y-101012839D02*
X224154193Y-101580433D01*
X224187581Y-101647209D01*
X224220969Y-101680597D01*
X224287745Y-101713985D01*
X224421296Y-101713985D01*
X224488072Y-101680597D01*
X224521460Y-101647209D01*
X224554848Y-101580433D01*
X224554848Y-101012839D01*
X224821951Y-101012839D02*
X225255994Y-101012839D01*
X225022279Y-101279942D01*
X225122442Y-101279942D01*
X225189218Y-101313330D01*
X225222606Y-101346718D01*
X225255994Y-101413493D01*
X225255994Y-101580433D01*
X225222606Y-101647209D01*
X225189218Y-101680597D01*
X225122442Y-101713985D01*
X224922115Y-101713985D01*
X224855339Y-101680597D01*
X224821951Y-101647209D01*
D10*
X83838095Y-128052380D02*
X83838095Y-128861904D01*
X83885714Y-128957142D01*
X83933333Y-129004761D01*
X84028571Y-129052380D01*
X84219047Y-129052380D01*
X84314285Y-129004761D01*
X84361904Y-128957142D01*
X84409523Y-128861904D01*
X84409523Y-128052380D01*
X85314285Y-128385714D02*
X85314285Y-129052380D01*
X85076190Y-128004761D02*
X84838095Y-128719047D01*
X85457142Y-128719047D01*
X237236095Y-63663580D02*
X237236095Y-64473104D01*
X237283714Y-64568342D01*
X237331333Y-64615961D01*
X237426571Y-64663580D01*
X237617047Y-64663580D01*
X237712285Y-64615961D01*
X237759904Y-64568342D01*
X237807523Y-64473104D01*
X237807523Y-63663580D01*
X238759904Y-63663580D02*
X238283714Y-63663580D01*
X238236095Y-64139771D01*
X238283714Y-64092152D01*
X238378952Y-64044533D01*
X238617047Y-64044533D01*
X238712285Y-64092152D01*
X238759904Y-64139771D01*
X238807523Y-64235009D01*
X238807523Y-64473104D01*
X238759904Y-64568342D01*
X238712285Y-64615961D01*
X238617047Y-64663580D01*
X238378952Y-64663580D01*
X238283714Y-64615961D01*
X238236095Y-64568342D01*
X118649904Y-61987180D02*
X118649904Y-62796704D01*
X118697523Y-62891942D01*
X118745142Y-62939561D01*
X118840380Y-62987180D01*
X119030857Y-62987180D01*
X119126095Y-62939561D01*
X119173714Y-62891942D01*
X119221333Y-62796704D01*
X119221333Y-61987180D01*
X120221333Y-62987180D02*
X119649904Y-62987180D01*
X119935619Y-62987180D02*
X119935619Y-61987180D01*
X119840380Y-62130038D01*
X119745142Y-62225276D01*
X119649904Y-62272895D01*
X120840380Y-61987180D02*
X120935619Y-61987180D01*
X121030857Y-62034800D01*
X121078476Y-62082419D01*
X121126095Y-62177657D01*
X121173714Y-62368133D01*
X121173714Y-62606228D01*
X121126095Y-62796704D01*
X121078476Y-62891942D01*
X121030857Y-62939561D01*
X120935619Y-62987180D01*
X120840380Y-62987180D01*
X120745142Y-62939561D01*
X120697523Y-62891942D01*
X120649904Y-62796704D01*
X120602285Y-62606228D01*
X120602285Y-62368133D01*
X120649904Y-62177657D01*
X120697523Y-62082419D01*
X120745142Y-62034800D01*
X120840380Y-61987180D01*
X166757504Y-67422780D02*
X166757504Y-68232304D01*
X166805123Y-68327542D01*
X166852742Y-68375161D01*
X166947980Y-68422780D01*
X167138457Y-68422780D01*
X167233695Y-68375161D01*
X167281314Y-68327542D01*
X167328933Y-68232304D01*
X167328933Y-67422780D01*
X168328933Y-68422780D02*
X167757504Y-68422780D01*
X168043219Y-68422780D02*
X168043219Y-67422780D01*
X167947980Y-67565638D01*
X167852742Y-67660876D01*
X167757504Y-67708495D01*
X168709885Y-67518019D02*
X168757504Y-67470400D01*
X168852742Y-67422780D01*
X169090838Y-67422780D01*
X169186076Y-67470400D01*
X169233695Y-67518019D01*
X169281314Y-67613257D01*
X169281314Y-67708495D01*
X169233695Y-67851352D01*
X168662266Y-68422780D01*
X169281314Y-68422780D01*
X212833104Y-76465180D02*
X212833104Y-77274704D01*
X212880723Y-77369942D01*
X212928342Y-77417561D01*
X213023580Y-77465180D01*
X213214057Y-77465180D01*
X213309295Y-77417561D01*
X213356914Y-77369942D01*
X213404533Y-77274704D01*
X213404533Y-76465180D01*
X214404533Y-77465180D02*
X213833104Y-77465180D01*
X214118819Y-77465180D02*
X214118819Y-76465180D01*
X214023580Y-76608038D01*
X213928342Y-76703276D01*
X213833104Y-76750895D01*
X214737866Y-76465180D02*
X215356914Y-76465180D01*
X215023580Y-76846133D01*
X215166438Y-76846133D01*
X215261676Y-76893752D01*
X215309295Y-76941371D01*
X215356914Y-77036609D01*
X215356914Y-77274704D01*
X215309295Y-77369942D01*
X215261676Y-77417561D01*
X215166438Y-77465180D01*
X214880723Y-77465180D01*
X214785485Y-77417561D01*
X214737866Y-77369942D01*
X71382071Y-133737071D02*
X71048738Y-133737071D01*
X71048738Y-134260880D02*
X71048738Y-133260880D01*
X71524928Y-133260880D01*
X71905880Y-134260880D02*
X71905880Y-133260880D01*
X72382071Y-134260880D02*
X72382071Y-133260880D01*
X72620166Y-133260880D01*
X72763023Y-133308500D01*
X72858261Y-133403738D01*
X72905880Y-133498976D01*
X72953500Y-133689452D01*
X72953500Y-133832309D01*
X72905880Y-134022785D01*
X72858261Y-134118023D01*
X72763023Y-134213261D01*
X72620166Y-134260880D01*
X72382071Y-134260880D01*
X73905880Y-134260880D02*
X73334452Y-134260880D01*
X73620166Y-134260880D02*
X73620166Y-133260880D01*
X73524928Y-133403738D01*
X73429690Y-133498976D01*
X73334452Y-133546595D01*
X243721071Y-58489571D02*
X243387738Y-58489571D01*
X243387738Y-59013380D02*
X243387738Y-58013380D01*
X243863928Y-58013380D01*
X244244880Y-59013380D02*
X244244880Y-58013380D01*
X244721071Y-59013380D02*
X244721071Y-58013380D01*
X244959166Y-58013380D01*
X245102023Y-58061000D01*
X245197261Y-58156238D01*
X245244880Y-58251476D01*
X245292500Y-58441952D01*
X245292500Y-58584809D01*
X245244880Y-58775285D01*
X245197261Y-58870523D01*
X245102023Y-58965761D01*
X244959166Y-59013380D01*
X244721071Y-59013380D01*
X245673452Y-58108619D02*
X245721071Y-58061000D01*
X245816309Y-58013380D01*
X246054404Y-58013380D01*
X246149642Y-58061000D01*
X246197261Y-58108619D01*
X246244880Y-58203857D01*
X246244880Y-58299095D01*
X246197261Y-58441952D01*
X245625833Y-59013380D01*
X246244880Y-59013380D01*
X237815571Y-133864071D02*
X237482238Y-133864071D01*
X237482238Y-134387880D02*
X237482238Y-133387880D01*
X237958428Y-133387880D01*
X238339380Y-134387880D02*
X238339380Y-133387880D01*
X238815571Y-134387880D02*
X238815571Y-133387880D01*
X239053666Y-133387880D01*
X239196523Y-133435500D01*
X239291761Y-133530738D01*
X239339380Y-133625976D01*
X239387000Y-133816452D01*
X239387000Y-133959309D01*
X239339380Y-134149785D01*
X239291761Y-134245023D01*
X239196523Y-134340261D01*
X239053666Y-134387880D01*
X238815571Y-134387880D01*
X239720333Y-133387880D02*
X240339380Y-133387880D01*
X240006047Y-133768833D01*
X240148904Y-133768833D01*
X240244142Y-133816452D01*
X240291761Y-133864071D01*
X240339380Y-133959309D01*
X240339380Y-134197404D01*
X240291761Y-134292642D01*
X240244142Y-134340261D01*
X240148904Y-134387880D01*
X239863190Y-134387880D01*
X239767952Y-134340261D01*
X239720333Y-134292642D01*
X150847466Y-59008971D02*
X150514133Y-59008971D01*
X150514133Y-59532780D02*
X150514133Y-58532780D01*
X150990323Y-58532780D01*
X151895085Y-59532780D02*
X151323657Y-59532780D01*
X151609371Y-59532780D02*
X151609371Y-58532780D01*
X151514133Y-58675638D01*
X151418895Y-58770876D01*
X151323657Y-58818495D01*
X167016133Y-97988380D02*
X166539942Y-97988380D01*
X166539942Y-96988380D01*
X167301847Y-97083619D02*
X167349466Y-97036000D01*
X167444704Y-96988380D01*
X167682800Y-96988380D01*
X167778038Y-97036000D01*
X167825657Y-97083619D01*
X167873276Y-97178857D01*
X167873276Y-97274095D01*
X167825657Y-97416952D01*
X167254228Y-97988380D01*
X167873276Y-97988380D01*
X164802380Y-71516666D02*
X164802380Y-71992857D01*
X163802380Y-71992857D01*
X163802380Y-71278571D02*
X163802380Y-70659523D01*
X164183333Y-70992857D01*
X164183333Y-70850000D01*
X164230952Y-70754761D01*
X164278571Y-70707142D01*
X164373809Y-70659523D01*
X164611904Y-70659523D01*
X164707142Y-70707142D01*
X164754761Y-70754761D01*
X164802380Y-70850000D01*
X164802380Y-71135714D01*
X164754761Y-71230952D01*
X164707142Y-71278571D01*
X170642114Y-48559980D02*
X170642114Y-47559980D01*
X171023066Y-47559980D01*
X171118304Y-47607600D01*
X171165923Y-47655219D01*
X171213542Y-47750457D01*
X171213542Y-47893314D01*
X171165923Y-47988552D01*
X171118304Y-48036171D01*
X171023066Y-48083790D01*
X170642114Y-48083790D01*
X172165923Y-48559980D02*
X171594495Y-48559980D01*
X171880209Y-48559980D02*
X171880209Y-47559980D01*
X171784971Y-47702838D01*
X171689733Y-47798076D01*
X171594495Y-47845695D01*
X173023066Y-47893314D02*
X173023066Y-48559980D01*
X172784971Y-47512361D02*
X172546876Y-48226647D01*
X173165923Y-48226647D01*
X182156171Y-58916819D02*
X182060933Y-58869200D01*
X181965695Y-58773961D01*
X181822838Y-58631104D01*
X181727600Y-58583485D01*
X181632361Y-58583485D01*
X181679980Y-58821580D02*
X181584742Y-58773961D01*
X181489504Y-58678723D01*
X181441885Y-58488247D01*
X181441885Y-58154914D01*
X181489504Y-57964438D01*
X181584742Y-57869200D01*
X181679980Y-57821580D01*
X181870457Y-57821580D01*
X181965695Y-57869200D01*
X182060933Y-57964438D01*
X182108552Y-58154914D01*
X182108552Y-58488247D01*
X182060933Y-58678723D01*
X181965695Y-58773961D01*
X181870457Y-58821580D01*
X181679980Y-58821580D01*
X183060933Y-58821580D02*
X182489504Y-58821580D01*
X182775219Y-58821580D02*
X182775219Y-57821580D01*
X182679980Y-57964438D01*
X182584742Y-58059676D01*
X182489504Y-58107295D01*
X183441885Y-57916819D02*
X183489504Y-57869200D01*
X183584742Y-57821580D01*
X183822838Y-57821580D01*
X183918076Y-57869200D01*
X183965695Y-57916819D01*
X184013314Y-58012057D01*
X184013314Y-58107295D01*
X183965695Y-58250152D01*
X183394266Y-58821580D01*
X184013314Y-58821580D01*
X181749771Y-64098419D02*
X181654533Y-64050800D01*
X181559295Y-63955561D01*
X181416438Y-63812704D01*
X181321200Y-63765085D01*
X181225961Y-63765085D01*
X181273580Y-64003180D02*
X181178342Y-63955561D01*
X181083104Y-63860323D01*
X181035485Y-63669847D01*
X181035485Y-63336514D01*
X181083104Y-63146038D01*
X181178342Y-63050800D01*
X181273580Y-63003180D01*
X181464057Y-63003180D01*
X181559295Y-63050800D01*
X181654533Y-63146038D01*
X181702152Y-63336514D01*
X181702152Y-63669847D01*
X181654533Y-63860323D01*
X181559295Y-63955561D01*
X181464057Y-64003180D01*
X181273580Y-64003180D01*
X182654533Y-64003180D02*
X182083104Y-64003180D01*
X182368819Y-64003180D02*
X182368819Y-63003180D01*
X182273580Y-63146038D01*
X182178342Y-63241276D01*
X182083104Y-63288895D01*
X182987866Y-63003180D02*
X183606914Y-63003180D01*
X183273580Y-63384133D01*
X183416438Y-63384133D01*
X183511676Y-63431752D01*
X183559295Y-63479371D01*
X183606914Y-63574609D01*
X183606914Y-63812704D01*
X183559295Y-63907942D01*
X183511676Y-63955561D01*
X183416438Y-64003180D01*
X183130723Y-64003180D01*
X183035485Y-63955561D01*
X182987866Y-63907942D01*
X239482333Y-122985380D02*
X239149000Y-122509190D01*
X238910904Y-122985380D02*
X238910904Y-121985380D01*
X239291857Y-121985380D01*
X239387095Y-122033000D01*
X239434714Y-122080619D01*
X239482333Y-122175857D01*
X239482333Y-122318714D01*
X239434714Y-122413952D01*
X239387095Y-122461571D01*
X239291857Y-122509190D01*
X238910904Y-122509190D01*
X240101380Y-121985380D02*
X240196619Y-121985380D01*
X240291857Y-122033000D01*
X240339476Y-122080619D01*
X240387095Y-122175857D01*
X240434714Y-122366333D01*
X240434714Y-122604428D01*
X240387095Y-122794904D01*
X240339476Y-122890142D01*
X240291857Y-122937761D01*
X240196619Y-122985380D01*
X240101380Y-122985380D01*
X240006142Y-122937761D01*
X239958523Y-122890142D01*
X239910904Y-122794904D01*
X239863285Y-122604428D01*
X239863285Y-122366333D01*
X239910904Y-122175857D01*
X239958523Y-122080619D01*
X240006142Y-122033000D01*
X240101380Y-121985380D01*
X193986304Y-69200780D02*
X193986304Y-70010304D01*
X194033923Y-70105542D01*
X194081542Y-70153161D01*
X194176780Y-70200780D01*
X194367257Y-70200780D01*
X194462495Y-70153161D01*
X194510114Y-70105542D01*
X194557733Y-70010304D01*
X194557733Y-69200780D01*
X195557733Y-70200780D02*
X194986304Y-70200780D01*
X195272019Y-70200780D02*
X195272019Y-69200780D01*
X195176780Y-69343638D01*
X195081542Y-69438876D01*
X194986304Y-69486495D01*
X196510114Y-70200780D02*
X195938685Y-70200780D01*
X196224400Y-70200780D02*
X196224400Y-69200780D01*
X196129161Y-69343638D01*
X196033923Y-69438876D01*
X195938685Y-69486495D01*
X148778933Y-75947542D02*
X148731314Y-75995161D01*
X148588457Y-76042780D01*
X148493219Y-76042780D01*
X148350361Y-75995161D01*
X148255123Y-75899923D01*
X148207504Y-75804685D01*
X148159885Y-75614209D01*
X148159885Y-75471352D01*
X148207504Y-75280876D01*
X148255123Y-75185638D01*
X148350361Y-75090400D01*
X148493219Y-75042780D01*
X148588457Y-75042780D01*
X148731314Y-75090400D01*
X148778933Y-75138019D01*
X149159885Y-75138019D02*
X149207504Y-75090400D01*
X149302742Y-75042780D01*
X149540838Y-75042780D01*
X149636076Y-75090400D01*
X149683695Y-75138019D01*
X149731314Y-75233257D01*
X149731314Y-75328495D01*
X149683695Y-75471352D01*
X149112266Y-76042780D01*
X149731314Y-76042780D01*
X154043142Y-91492342D02*
X153995523Y-91539961D01*
X153852666Y-91587580D01*
X153757428Y-91587580D01*
X153614571Y-91539961D01*
X153519333Y-91444723D01*
X153471714Y-91349485D01*
X153424095Y-91159009D01*
X153424095Y-91016152D01*
X153471714Y-90825676D01*
X153519333Y-90730438D01*
X153614571Y-90635200D01*
X153757428Y-90587580D01*
X153852666Y-90587580D01*
X153995523Y-90635200D01*
X154043142Y-90682819D01*
X154376476Y-90587580D02*
X154995523Y-90587580D01*
X154662190Y-90968533D01*
X154805047Y-90968533D01*
X154900285Y-91016152D01*
X154947904Y-91063771D01*
X154995523Y-91159009D01*
X154995523Y-91397104D01*
X154947904Y-91492342D01*
X154900285Y-91539961D01*
X154805047Y-91587580D01*
X154519333Y-91587580D01*
X154424095Y-91539961D01*
X154376476Y-91492342D01*
X155376476Y-90682819D02*
X155424095Y-90635200D01*
X155519333Y-90587580D01*
X155757428Y-90587580D01*
X155852666Y-90635200D01*
X155900285Y-90682819D01*
X155947904Y-90778057D01*
X155947904Y-90873295D01*
X155900285Y-91016152D01*
X155328857Y-91587580D01*
X155947904Y-91587580D01*
X173883580Y-109094495D02*
X172883580Y-109094495D01*
X172883580Y-108856400D01*
X172931200Y-108713542D01*
X173026438Y-108618304D01*
X173121676Y-108570685D01*
X173312152Y-108523066D01*
X173455009Y-108523066D01*
X173645485Y-108570685D01*
X173740723Y-108618304D01*
X173835961Y-108713542D01*
X173883580Y-108856400D01*
X173883580Y-109094495D01*
X172883580Y-108189733D02*
X172883580Y-107523066D01*
X173883580Y-107951638D01*
X154519333Y-117197142D02*
X154471714Y-117244761D01*
X154328857Y-117292380D01*
X154233619Y-117292380D01*
X154090761Y-117244761D01*
X153995523Y-117149523D01*
X153947904Y-117054285D01*
X153900285Y-116863809D01*
X153900285Y-116720952D01*
X153947904Y-116530476D01*
X153995523Y-116435238D01*
X154090761Y-116340000D01*
X154233619Y-116292380D01*
X154328857Y-116292380D01*
X154471714Y-116340000D01*
X154519333Y-116387619D01*
X154852666Y-116292380D02*
X155471714Y-116292380D01*
X155138380Y-116673333D01*
X155281238Y-116673333D01*
X155376476Y-116720952D01*
X155424095Y-116768571D01*
X155471714Y-116863809D01*
X155471714Y-117101904D01*
X155424095Y-117197142D01*
X155376476Y-117244761D01*
X155281238Y-117292380D01*
X154995523Y-117292380D01*
X154900285Y-117244761D01*
X154852666Y-117197142D01*
X214749142Y-109526342D02*
X214701523Y-109573961D01*
X214558666Y-109621580D01*
X214463428Y-109621580D01*
X214320571Y-109573961D01*
X214225333Y-109478723D01*
X214177714Y-109383485D01*
X214130095Y-109193009D01*
X214130095Y-109050152D01*
X214177714Y-108859676D01*
X214225333Y-108764438D01*
X214320571Y-108669200D01*
X214463428Y-108621580D01*
X214558666Y-108621580D01*
X214701523Y-108669200D01*
X214749142Y-108716819D01*
X215701523Y-109621580D02*
X215130095Y-109621580D01*
X215415809Y-109621580D02*
X215415809Y-108621580D01*
X215320571Y-108764438D01*
X215225333Y-108859676D01*
X215130095Y-108907295D01*
X216034857Y-108621580D02*
X216653904Y-108621580D01*
X216320571Y-109002533D01*
X216463428Y-109002533D01*
X216558666Y-109050152D01*
X216606285Y-109097771D01*
X216653904Y-109193009D01*
X216653904Y-109431104D01*
X216606285Y-109526342D01*
X216558666Y-109573961D01*
X216463428Y-109621580D01*
X216177714Y-109621580D01*
X216082476Y-109573961D01*
X216034857Y-109526342D01*
X215206342Y-113336342D02*
X215158723Y-113383961D01*
X215015866Y-113431580D01*
X214920628Y-113431580D01*
X214777771Y-113383961D01*
X214682533Y-113288723D01*
X214634914Y-113193485D01*
X214587295Y-113003009D01*
X214587295Y-112860152D01*
X214634914Y-112669676D01*
X214682533Y-112574438D01*
X214777771Y-112479200D01*
X214920628Y-112431580D01*
X215015866Y-112431580D01*
X215158723Y-112479200D01*
X215206342Y-112526819D01*
X216158723Y-113431580D02*
X215587295Y-113431580D01*
X215873009Y-113431580D02*
X215873009Y-112431580D01*
X215777771Y-112574438D01*
X215682533Y-112669676D01*
X215587295Y-112717295D01*
X217015866Y-112764914D02*
X217015866Y-113431580D01*
X216777771Y-112383961D02*
X216539676Y-113098247D01*
X217158723Y-113098247D01*
X245009942Y-73337657D02*
X245057561Y-73385276D01*
X245105180Y-73528133D01*
X245105180Y-73623371D01*
X245057561Y-73766228D01*
X244962323Y-73861466D01*
X244867085Y-73909085D01*
X244676609Y-73956704D01*
X244533752Y-73956704D01*
X244343276Y-73909085D01*
X244248038Y-73861466D01*
X244152800Y-73766228D01*
X244105180Y-73623371D01*
X244105180Y-73528133D01*
X244152800Y-73385276D01*
X244200419Y-73337657D01*
X244200419Y-72956704D02*
X244152800Y-72909085D01*
X244105180Y-72813847D01*
X244105180Y-72575752D01*
X244152800Y-72480514D01*
X244200419Y-72432895D01*
X244295657Y-72385276D01*
X244390895Y-72385276D01*
X244533752Y-72432895D01*
X245105180Y-73004323D01*
X245105180Y-72385276D01*
X244105180Y-71528133D02*
X244105180Y-71718609D01*
X244152800Y-71813847D01*
X244200419Y-71861466D01*
X244343276Y-71956704D01*
X244533752Y-72004323D01*
X244914704Y-72004323D01*
X245009942Y-71956704D01*
X245057561Y-71909085D01*
X245105180Y-71813847D01*
X245105180Y-71623371D01*
X245057561Y-71528133D01*
X245009942Y-71480514D01*
X244914704Y-71432895D01*
X244676609Y-71432895D01*
X244581371Y-71480514D01*
X244533752Y-71528133D01*
X244486133Y-71623371D01*
X244486133Y-71813847D01*
X244533752Y-71909085D01*
X244581371Y-71956704D01*
X244676609Y-72004323D01*
X176271180Y-60840857D02*
X175794990Y-61174190D01*
X176271180Y-61412285D02*
X175271180Y-61412285D01*
X175271180Y-61031333D01*
X175318800Y-60936095D01*
X175366419Y-60888476D01*
X175461657Y-60840857D01*
X175604514Y-60840857D01*
X175699752Y-60888476D01*
X175747371Y-60936095D01*
X175794990Y-61031333D01*
X175794990Y-61412285D01*
X175271180Y-59936095D02*
X175271180Y-60412285D01*
X175747371Y-60459904D01*
X175699752Y-60412285D01*
X175652133Y-60317047D01*
X175652133Y-60078952D01*
X175699752Y-59983714D01*
X175747371Y-59936095D01*
X175842609Y-59888476D01*
X176080704Y-59888476D01*
X176175942Y-59936095D01*
X176223561Y-59983714D01*
X176271180Y-60078952D01*
X176271180Y-60317047D01*
X176223561Y-60412285D01*
X176175942Y-60459904D01*
X176271180Y-59412285D02*
X176271180Y-59221809D01*
X176223561Y-59126571D01*
X176175942Y-59078952D01*
X176033085Y-58983714D01*
X175842609Y-58936095D01*
X175461657Y-58936095D01*
X175366419Y-58983714D01*
X175318800Y-59031333D01*
X175271180Y-59126571D01*
X175271180Y-59317047D01*
X175318800Y-59412285D01*
X175366419Y-59459904D01*
X175461657Y-59507523D01*
X175699752Y-59507523D01*
X175794990Y-59459904D01*
X175842609Y-59412285D01*
X175890228Y-59317047D01*
X175890228Y-59126571D01*
X175842609Y-59031333D01*
X175794990Y-58983714D01*
X175699752Y-58936095D01*
X174899580Y-60840857D02*
X174423390Y-61174190D01*
X174899580Y-61412285D02*
X173899580Y-61412285D01*
X173899580Y-61031333D01*
X173947200Y-60936095D01*
X173994819Y-60888476D01*
X174090057Y-60840857D01*
X174232914Y-60840857D01*
X174328152Y-60888476D01*
X174375771Y-60936095D01*
X174423390Y-61031333D01*
X174423390Y-61412285D01*
X173899580Y-59983714D02*
X173899580Y-60174190D01*
X173947200Y-60269428D01*
X173994819Y-60317047D01*
X174137676Y-60412285D01*
X174328152Y-60459904D01*
X174709104Y-60459904D01*
X174804342Y-60412285D01*
X174851961Y-60364666D01*
X174899580Y-60269428D01*
X174899580Y-60078952D01*
X174851961Y-59983714D01*
X174804342Y-59936095D01*
X174709104Y-59888476D01*
X174471009Y-59888476D01*
X174375771Y-59936095D01*
X174328152Y-59983714D01*
X174280533Y-60078952D01*
X174280533Y-60269428D01*
X174328152Y-60364666D01*
X174375771Y-60412285D01*
X174471009Y-60459904D01*
X173899580Y-59269428D02*
X173899580Y-59174190D01*
X173947200Y-59078952D01*
X173994819Y-59031333D01*
X174090057Y-58983714D01*
X174280533Y-58936095D01*
X174518628Y-58936095D01*
X174709104Y-58983714D01*
X174804342Y-59031333D01*
X174851961Y-59078952D01*
X174899580Y-59174190D01*
X174899580Y-59269428D01*
X174851961Y-59364666D01*
X174804342Y-59412285D01*
X174709104Y-59459904D01*
X174518628Y-59507523D01*
X174280533Y-59507523D01*
X174090057Y-59459904D01*
X173994819Y-59412285D01*
X173947200Y-59364666D01*
X173899580Y-59269428D01*
X180131980Y-58148457D02*
X179655790Y-58481790D01*
X180131980Y-58719885D02*
X179131980Y-58719885D01*
X179131980Y-58338933D01*
X179179600Y-58243695D01*
X179227219Y-58196076D01*
X179322457Y-58148457D01*
X179465314Y-58148457D01*
X179560552Y-58196076D01*
X179608171Y-58243695D01*
X179655790Y-58338933D01*
X179655790Y-58719885D01*
X179131980Y-57291314D02*
X179131980Y-57481790D01*
X179179600Y-57577028D01*
X179227219Y-57624647D01*
X179370076Y-57719885D01*
X179560552Y-57767504D01*
X179941504Y-57767504D01*
X180036742Y-57719885D01*
X180084361Y-57672266D01*
X180131980Y-57577028D01*
X180131980Y-57386552D01*
X180084361Y-57291314D01*
X180036742Y-57243695D01*
X179941504Y-57196076D01*
X179703409Y-57196076D01*
X179608171Y-57243695D01*
X179560552Y-57291314D01*
X179512933Y-57386552D01*
X179512933Y-57577028D01*
X179560552Y-57672266D01*
X179608171Y-57719885D01*
X179703409Y-57767504D01*
X180131980Y-56243695D02*
X180131980Y-56815123D01*
X180131980Y-56529409D02*
X179131980Y-56529409D01*
X179274838Y-56624647D01*
X179370076Y-56719885D01*
X179417695Y-56815123D01*
X178861980Y-58199257D02*
X178385790Y-58532590D01*
X178861980Y-58770685D02*
X177861980Y-58770685D01*
X177861980Y-58389733D01*
X177909600Y-58294495D01*
X177957219Y-58246876D01*
X178052457Y-58199257D01*
X178195314Y-58199257D01*
X178290552Y-58246876D01*
X178338171Y-58294495D01*
X178385790Y-58389733D01*
X178385790Y-58770685D01*
X177861980Y-57342114D02*
X177861980Y-57532590D01*
X177909600Y-57627828D01*
X177957219Y-57675447D01*
X178100076Y-57770685D01*
X178290552Y-57818304D01*
X178671504Y-57818304D01*
X178766742Y-57770685D01*
X178814361Y-57723066D01*
X178861980Y-57627828D01*
X178861980Y-57437352D01*
X178814361Y-57342114D01*
X178766742Y-57294495D01*
X178671504Y-57246876D01*
X178433409Y-57246876D01*
X178338171Y-57294495D01*
X178290552Y-57342114D01*
X178242933Y-57437352D01*
X178242933Y-57627828D01*
X178290552Y-57723066D01*
X178338171Y-57770685D01*
X178433409Y-57818304D01*
X177957219Y-56865923D02*
X177909600Y-56818304D01*
X177861980Y-56723066D01*
X177861980Y-56484971D01*
X177909600Y-56389733D01*
X177957219Y-56342114D01*
X178052457Y-56294495D01*
X178147695Y-56294495D01*
X178290552Y-56342114D01*
X178861980Y-56913542D01*
X178861980Y-56294495D01*
X171315142Y-56586380D02*
X170981809Y-56110190D01*
X170743714Y-56586380D02*
X170743714Y-55586380D01*
X171124666Y-55586380D01*
X171219904Y-55634000D01*
X171267523Y-55681619D01*
X171315142Y-55776857D01*
X171315142Y-55919714D01*
X171267523Y-56014952D01*
X171219904Y-56062571D01*
X171124666Y-56110190D01*
X170743714Y-56110190D01*
X172172285Y-55586380D02*
X171981809Y-55586380D01*
X171886571Y-55634000D01*
X171838952Y-55681619D01*
X171743714Y-55824476D01*
X171696095Y-56014952D01*
X171696095Y-56395904D01*
X171743714Y-56491142D01*
X171791333Y-56538761D01*
X171886571Y-56586380D01*
X172077047Y-56586380D01*
X172172285Y-56538761D01*
X172219904Y-56491142D01*
X172267523Y-56395904D01*
X172267523Y-56157809D01*
X172219904Y-56062571D01*
X172172285Y-56014952D01*
X172077047Y-55967333D01*
X171886571Y-55967333D01*
X171791333Y-56014952D01*
X171743714Y-56062571D01*
X171696095Y-56157809D01*
X172600857Y-55586380D02*
X173219904Y-55586380D01*
X172886571Y-55967333D01*
X173029428Y-55967333D01*
X173124666Y-56014952D01*
X173172285Y-56062571D01*
X173219904Y-56157809D01*
X173219904Y-56395904D01*
X173172285Y-56491142D01*
X173124666Y-56538761D01*
X173029428Y-56586380D01*
X172743714Y-56586380D01*
X172648476Y-56538761D01*
X172600857Y-56491142D01*
X188282342Y-59634380D02*
X187949009Y-59158190D01*
X187710914Y-59634380D02*
X187710914Y-58634380D01*
X188091866Y-58634380D01*
X188187104Y-58682000D01*
X188234723Y-58729619D01*
X188282342Y-58824857D01*
X188282342Y-58967714D01*
X188234723Y-59062952D01*
X188187104Y-59110571D01*
X188091866Y-59158190D01*
X187710914Y-59158190D01*
X189139485Y-58967714D02*
X189139485Y-59634380D01*
X188901390Y-58586761D02*
X188663295Y-59301047D01*
X189282342Y-59301047D01*
X189710914Y-59634380D02*
X189901390Y-59634380D01*
X189996628Y-59586761D01*
X190044247Y-59539142D01*
X190139485Y-59396285D01*
X190187104Y-59205809D01*
X190187104Y-58824857D01*
X190139485Y-58729619D01*
X190091866Y-58682000D01*
X189996628Y-58634380D01*
X189806152Y-58634380D01*
X189710914Y-58682000D01*
X189663295Y-58729619D01*
X189615676Y-58824857D01*
X189615676Y-59062952D01*
X189663295Y-59158190D01*
X189710914Y-59205809D01*
X189806152Y-59253428D01*
X189996628Y-59253428D01*
X190091866Y-59205809D01*
X190139485Y-59158190D01*
X190187104Y-59062952D01*
X181271942Y-55976780D02*
X180938609Y-55500590D01*
X180700514Y-55976780D02*
X180700514Y-54976780D01*
X181081466Y-54976780D01*
X181176704Y-55024400D01*
X181224323Y-55072019D01*
X181271942Y-55167257D01*
X181271942Y-55310114D01*
X181224323Y-55405352D01*
X181176704Y-55452971D01*
X181081466Y-55500590D01*
X180700514Y-55500590D01*
X182176704Y-54976780D02*
X181700514Y-54976780D01*
X181652895Y-55452971D01*
X181700514Y-55405352D01*
X181795752Y-55357733D01*
X182033847Y-55357733D01*
X182129085Y-55405352D01*
X182176704Y-55452971D01*
X182224323Y-55548209D01*
X182224323Y-55786304D01*
X182176704Y-55881542D01*
X182129085Y-55929161D01*
X182033847Y-55976780D01*
X181795752Y-55976780D01*
X181700514Y-55929161D01*
X181652895Y-55881542D01*
X182843371Y-54976780D02*
X182938609Y-54976780D01*
X183033847Y-55024400D01*
X183081466Y-55072019D01*
X183129085Y-55167257D01*
X183176704Y-55357733D01*
X183176704Y-55595828D01*
X183129085Y-55786304D01*
X183081466Y-55881542D01*
X183033847Y-55929161D01*
X182938609Y-55976780D01*
X182843371Y-55976780D01*
X182748133Y-55929161D01*
X182700514Y-55881542D01*
X182652895Y-55786304D01*
X182605276Y-55595828D01*
X182605276Y-55357733D01*
X182652895Y-55167257D01*
X182700514Y-55072019D01*
X182748133Y-55024400D01*
X182843371Y-54976780D01*
X67818095Y-69347180D02*
X67818095Y-68347180D01*
X67818095Y-68823371D02*
X68389523Y-68823371D01*
X68389523Y-69347180D02*
X68389523Y-68347180D01*
X69294285Y-68347180D02*
X69103809Y-68347180D01*
X69008571Y-68394800D01*
X68960952Y-68442419D01*
X68865714Y-68585276D01*
X68818095Y-68775752D01*
X68818095Y-69156704D01*
X68865714Y-69251942D01*
X68913333Y-69299561D01*
X69008571Y-69347180D01*
X69199047Y-69347180D01*
X69294285Y-69299561D01*
X69341904Y-69251942D01*
X69389523Y-69156704D01*
X69389523Y-68918609D01*
X69341904Y-68823371D01*
X69294285Y-68775752D01*
X69199047Y-68728133D01*
X69008571Y-68728133D01*
X68913333Y-68775752D01*
X68865714Y-68823371D01*
X68818095Y-68918609D01*
X132435695Y-69296380D02*
X132435695Y-68296380D01*
X132435695Y-68772571D02*
X133007123Y-68772571D01*
X133007123Y-69296380D02*
X133007123Y-68296380D01*
X133388076Y-68296380D02*
X134054742Y-68296380D01*
X133626171Y-69296380D01*
X240697642Y-65957742D02*
X240650023Y-66005361D01*
X240507166Y-66052980D01*
X240411928Y-66052980D01*
X240269071Y-66005361D01*
X240173833Y-65910123D01*
X240126214Y-65814885D01*
X240078595Y-65624409D01*
X240078595Y-65481552D01*
X240126214Y-65291076D01*
X240173833Y-65195838D01*
X240269071Y-65100600D01*
X240411928Y-65052980D01*
X240507166Y-65052980D01*
X240650023Y-65100600D01*
X240697642Y-65148219D01*
X241078595Y-65148219D02*
X241126214Y-65100600D01*
X241221452Y-65052980D01*
X241459547Y-65052980D01*
X241554785Y-65100600D01*
X241602404Y-65148219D01*
X241650023Y-65243457D01*
X241650023Y-65338695D01*
X241602404Y-65481552D01*
X241030976Y-66052980D01*
X241650023Y-66052980D01*
X241983357Y-65052980D02*
X242650023Y-65052980D01*
X242221452Y-66052980D01*
X191584342Y-55410380D02*
X191251009Y-54934190D01*
X191012914Y-55410380D02*
X191012914Y-54410380D01*
X191393866Y-54410380D01*
X191489104Y-54458000D01*
X191536723Y-54505619D01*
X191584342Y-54600857D01*
X191584342Y-54743714D01*
X191536723Y-54838952D01*
X191489104Y-54886571D01*
X191393866Y-54934190D01*
X191012914Y-54934190D01*
X192441485Y-54743714D02*
X192441485Y-55410380D01*
X192203390Y-54362761D02*
X191965295Y-55077047D01*
X192584342Y-55077047D01*
X192870057Y-54410380D02*
X193536723Y-54410380D01*
X193108152Y-55410380D01*
X196130942Y-101943422D02*
X196083323Y-101991041D01*
X195940466Y-102038660D01*
X195845228Y-102038660D01*
X195702371Y-101991041D01*
X195607133Y-101895803D01*
X195559514Y-101800565D01*
X195511895Y-101610089D01*
X195511895Y-101467232D01*
X195559514Y-101276756D01*
X195607133Y-101181518D01*
X195702371Y-101086280D01*
X195845228Y-101038660D01*
X195940466Y-101038660D01*
X196083323Y-101086280D01*
X196130942Y-101133899D01*
X196511895Y-101133899D02*
X196559514Y-101086280D01*
X196654752Y-101038660D01*
X196892847Y-101038660D01*
X196988085Y-101086280D01*
X197035704Y-101133899D01*
X197083323Y-101229137D01*
X197083323Y-101324375D01*
X197035704Y-101467232D01*
X196464276Y-102038660D01*
X197083323Y-102038660D01*
X197702371Y-101038660D02*
X197797609Y-101038660D01*
X197892847Y-101086280D01*
X197940466Y-101133899D01*
X197988085Y-101229137D01*
X198035704Y-101419613D01*
X198035704Y-101657708D01*
X197988085Y-101848184D01*
X197940466Y-101943422D01*
X197892847Y-101991041D01*
X197797609Y-102038660D01*
X197702371Y-102038660D01*
X197607133Y-101991041D01*
X197559514Y-101943422D01*
X197511895Y-101848184D01*
X197464276Y-101657708D01*
X197464276Y-101419613D01*
X197511895Y-101229137D01*
X197559514Y-101133899D01*
X197607133Y-101086280D01*
X197702371Y-101038660D01*
X196166502Y-113078782D02*
X196118883Y-113126401D01*
X195976026Y-113174020D01*
X195880788Y-113174020D01*
X195737931Y-113126401D01*
X195642693Y-113031163D01*
X195595074Y-112935925D01*
X195547455Y-112745449D01*
X195547455Y-112602592D01*
X195595074Y-112412116D01*
X195642693Y-112316878D01*
X195737931Y-112221640D01*
X195880788Y-112174020D01*
X195976026Y-112174020D01*
X196118883Y-112221640D01*
X196166502Y-112269259D01*
X196547455Y-112269259D02*
X196595074Y-112221640D01*
X196690312Y-112174020D01*
X196928407Y-112174020D01*
X197023645Y-112221640D01*
X197071264Y-112269259D01*
X197118883Y-112364497D01*
X197118883Y-112459735D01*
X197071264Y-112602592D01*
X196499836Y-113174020D01*
X197118883Y-113174020D01*
X198071264Y-113174020D02*
X197499836Y-113174020D01*
X197785550Y-113174020D02*
X197785550Y-112174020D01*
X197690312Y-112316878D01*
X197595074Y-112412116D01*
X197499836Y-112459735D01*
X103479695Y-68740780D02*
X103479695Y-67740780D01*
X103479695Y-68216971D02*
X104051123Y-68216971D01*
X104051123Y-68740780D02*
X104051123Y-67740780D01*
X104670171Y-68169352D02*
X104574933Y-68121733D01*
X104527314Y-68074114D01*
X104479695Y-67978876D01*
X104479695Y-67931257D01*
X104527314Y-67836019D01*
X104574933Y-67788400D01*
X104670171Y-67740780D01*
X104860647Y-67740780D01*
X104955885Y-67788400D01*
X105003504Y-67836019D01*
X105051123Y-67931257D01*
X105051123Y-67978876D01*
X105003504Y-68074114D01*
X104955885Y-68121733D01*
X104860647Y-68169352D01*
X104670171Y-68169352D01*
X104574933Y-68216971D01*
X104527314Y-68264590D01*
X104479695Y-68359828D01*
X104479695Y-68550304D01*
X104527314Y-68645542D01*
X104574933Y-68693161D01*
X104670171Y-68740780D01*
X104860647Y-68740780D01*
X104955885Y-68693161D01*
X105003504Y-68645542D01*
X105051123Y-68550304D01*
X105051123Y-68359828D01*
X105003504Y-68264590D01*
X104955885Y-68216971D01*
X104860647Y-68169352D01*
X69494495Y-102776780D02*
X69494495Y-101776780D01*
X69494495Y-102252971D02*
X70065923Y-102252971D01*
X70065923Y-102776780D02*
X70065923Y-101776780D01*
X70589733Y-102776780D02*
X70780209Y-102776780D01*
X70875447Y-102729161D01*
X70923066Y-102681542D01*
X71018304Y-102538685D01*
X71065923Y-102348209D01*
X71065923Y-101967257D01*
X71018304Y-101872019D01*
X70970685Y-101824400D01*
X70875447Y-101776780D01*
X70684971Y-101776780D01*
X70589733Y-101824400D01*
X70542114Y-101872019D01*
X70494495Y-101967257D01*
X70494495Y-102205352D01*
X70542114Y-102300590D01*
X70589733Y-102348209D01*
X70684971Y-102395828D01*
X70875447Y-102395828D01*
X70970685Y-102348209D01*
X71018304Y-102300590D01*
X71065923Y-102205352D01*
D16*
X133996515Y-124576537D02*
X133996515Y-123575197D01*
X134377978Y-123575197D01*
X134473344Y-123622880D01*
X134521027Y-123670562D01*
X134568710Y-123765928D01*
X134568710Y-123908977D01*
X134521027Y-124004342D01*
X134473344Y-124052025D01*
X134377978Y-124099708D01*
X133996515Y-124099708D01*
X135427001Y-123908977D02*
X135427001Y-124576537D01*
X135188587Y-123527514D02*
X134950172Y-124242757D01*
X135570050Y-124242757D01*
X127072425Y-96008445D02*
X127549125Y-96008445D01*
X126977085Y-96294465D02*
X127310775Y-95293395D01*
X127644465Y-96294465D01*
X127930485Y-96246795D02*
X128073495Y-96294465D01*
X128311845Y-96294465D01*
X128407185Y-96246795D01*
X128454855Y-96199125D01*
X128502525Y-96103785D01*
X128502525Y-96008445D01*
X128454855Y-95913105D01*
X128407185Y-95865435D01*
X128311845Y-95817765D01*
X128121165Y-95770095D01*
X128025825Y-95722425D01*
X127978155Y-95674755D01*
X127930485Y-95579415D01*
X127930485Y-95484075D01*
X127978155Y-95388735D01*
X128025825Y-95341065D01*
X128121165Y-95293395D01*
X128359515Y-95293395D01*
X128502525Y-95341065D01*
X129122235Y-95293395D02*
X129217575Y-95293395D01*
X129312915Y-95341065D01*
X129360585Y-95388735D01*
X129408255Y-95484075D01*
X129455925Y-95674755D01*
X129455925Y-95913105D01*
X129408255Y-96103785D01*
X129360585Y-96199125D01*
X129312915Y-96246795D01*
X129217575Y-96294465D01*
X129122235Y-96294465D01*
X129026895Y-96246795D01*
X128979225Y-96199125D01*
X128931555Y-96103785D01*
X128883885Y-95913105D01*
X128883885Y-95674755D01*
X128931555Y-95484075D01*
X128979225Y-95388735D01*
X129026895Y-95341065D01*
X129122235Y-95293395D01*
X129837285Y-96008445D02*
X130313985Y-96008445D01*
X129741945Y-96294465D02*
X130075635Y-95293395D01*
X130409325Y-96294465D01*
X130886025Y-95722425D02*
X130790685Y-95674755D01*
X130743015Y-95627085D01*
X130695345Y-95531745D01*
X130695345Y-95484075D01*
X130743015Y-95388735D01*
X130790685Y-95341065D01*
X130886025Y-95293395D01*
X131076705Y-95293395D01*
X131172045Y-95341065D01*
X131219715Y-95388735D01*
X131267385Y-95484075D01*
X131267385Y-95531745D01*
X131219715Y-95627085D01*
X131172045Y-95674755D01*
X131076705Y-95722425D01*
X130886025Y-95722425D01*
X130790685Y-95770095D01*
X130743015Y-95817765D01*
X130695345Y-95913105D01*
X130695345Y-96103785D01*
X130743015Y-96199125D01*
X130790685Y-96246795D01*
X130886025Y-96294465D01*
X131076705Y-96294465D01*
X131172045Y-96246795D01*
X131219715Y-96199125D01*
X131267385Y-96103785D01*
X131267385Y-95913105D01*
X131219715Y-95817765D01*
X131172045Y-95770095D01*
X131076705Y-95722425D01*
X131648745Y-95388735D02*
X131696415Y-95341065D01*
X131791755Y-95293395D01*
X132030105Y-95293395D01*
X132125445Y-95341065D01*
X132173115Y-95388735D01*
X132220785Y-95484075D01*
X132220785Y-95579415D01*
X132173115Y-95722425D01*
X131601075Y-96294465D01*
X132220785Y-96294465D01*
X132554475Y-95293395D02*
X133174185Y-95293395D01*
X132840495Y-95674755D01*
X132983505Y-95674755D01*
X133078845Y-95722425D01*
X133126515Y-95770095D01*
X133174185Y-95865435D01*
X133174185Y-96103785D01*
X133126515Y-96199125D01*
X133078845Y-96246795D01*
X132983505Y-96294465D01*
X132697485Y-96294465D01*
X132602145Y-96246795D01*
X132554475Y-96199125D01*
X133603215Y-95913105D02*
X134365935Y-95913105D01*
X134842635Y-96294465D02*
X134842635Y-95293395D01*
X134842635Y-95770095D02*
X135414675Y-95770095D01*
X135414675Y-96294465D02*
X135414675Y-95293395D01*
X136320405Y-95627085D02*
X136320405Y-96294465D01*
X136082055Y-95245725D02*
X135843705Y-95960775D01*
X136463415Y-95960775D01*
X136797105Y-96246795D02*
X136940115Y-96294465D01*
X137178465Y-96294465D01*
X137273805Y-96246795D01*
X137321475Y-96199125D01*
X137369145Y-96103785D01*
X137369145Y-96008445D01*
X137321475Y-95913105D01*
X137273805Y-95865435D01*
X137178465Y-95817765D01*
X136987785Y-95770095D01*
X136892445Y-95722425D01*
X136844775Y-95674755D01*
X136797105Y-95579415D01*
X136797105Y-95484075D01*
X136844775Y-95388735D01*
X136892445Y-95341065D01*
X136987785Y-95293395D01*
X137226135Y-95293395D01*
X137369145Y-95341065D01*
X138131865Y-95770095D02*
X138274875Y-95817765D01*
X138322545Y-95865435D01*
X138370215Y-95960775D01*
X138370215Y-96103785D01*
X138322545Y-96199125D01*
X138274875Y-96246795D01*
X138179535Y-96294465D01*
X137798175Y-96294465D01*
X137798175Y-95293395D01*
X138131865Y-95293395D01*
X138227205Y-95341065D01*
X138274875Y-95388735D01*
X138322545Y-95484075D01*
X138322545Y-95579415D01*
X138274875Y-95674755D01*
X138227205Y-95722425D01*
X138131865Y-95770095D01*
X137798175Y-95770095D01*
X138799245Y-95913105D02*
X139561965Y-95913105D01*
X139943325Y-95293395D02*
X140610705Y-95293395D01*
X140181675Y-96294465D01*
X140992065Y-96294465D02*
X140992065Y-95293395D01*
X140992065Y-95770095D02*
X141564105Y-95770095D01*
X141564105Y-96294465D02*
X141564105Y-95293395D01*
D10*
X124527084Y-61553600D02*
X124527084Y-60553600D01*
X124908037Y-60553600D01*
X125003275Y-60601220D01*
X125050894Y-60648839D01*
X125098513Y-60744077D01*
X125098513Y-60886934D01*
X125050894Y-60982172D01*
X125003275Y-61029791D01*
X124908037Y-61077410D01*
X124527084Y-61077410D01*
X125479465Y-60648839D02*
X125527084Y-60601220D01*
X125622322Y-60553600D01*
X125860418Y-60553600D01*
X125955656Y-60601220D01*
X126003275Y-60648839D01*
X126050894Y-60744077D01*
X126050894Y-60839315D01*
X126003275Y-60982172D01*
X125431846Y-61553600D01*
X126050894Y-61553600D01*
M02*
