G04 #@! TF.GenerationSoftware,KiCad,Pcbnew,5.1.10-88a1d61d58~90~ubuntu20.04.1*
G04 #@! TF.CreationDate,2021-10-08T16:59:15+02:00*
G04 #@! TF.ProjectId,bottom-board,626f7474-6f6d-42d6-926f-6172642e6b69,rev?*
G04 #@! TF.SameCoordinates,Original*
G04 #@! TF.FileFunction,Profile,NP*
%FSLAX46Y46*%
G04 Gerber Fmt 4.6, Leading zero omitted, Abs format (unit mm)*
G04 Created by KiCad (PCBNEW 5.1.10-88a1d61d58~90~ubuntu20.04.1) date 2021-10-08 16:59:15*
%MOMM*%
%LPD*%
G01*
G04 APERTURE LIST*
G04 #@! TA.AperFunction,Profile*
%ADD10C,0.200000*%
G04 #@! TD*
G04 APERTURE END LIST*
D10*
X220572362Y-133826432D02*
G75*
G02*
X236248367Y-133830000I7837638J-1603568D01*
G01*
X252910000Y-127830000D02*
G75*
G02*
X250910000Y-129830000I-2000000J0D01*
G01*
X64510000Y-43430000D02*
G75*
G02*
X66510000Y-41430000I2000000J0D01*
G01*
X220571890Y-133828736D02*
G75*
G02*
X218612041Y-135430000I-1959849J398736D01*
G01*
X250910000Y-47030000D02*
G75*
G02*
X252910000Y-49030000I0J-2000000D01*
G01*
X61510000Y-129830000D02*
G75*
G02*
X64510000Y-132830000I0J-3000000D01*
G01*
X252910000Y-49030000D02*
X252910000Y-127830000D01*
X247310000Y-43430000D02*
X247310000Y-44030000D01*
X66510000Y-135430000D02*
G75*
G02*
X64510000Y-133430000I0J2000000D01*
G01*
X245310000Y-41430000D02*
G75*
G02*
X247310000Y-43430000I0J-2000000D01*
G01*
X247310000Y-133430000D02*
G75*
G02*
X245310000Y-135430000I-2000000J0D01*
G01*
X247310000Y-132830000D02*
G75*
G02*
X250310000Y-129830000I3000000J0D01*
G01*
X64510000Y-44030000D02*
X64510000Y-43430000D01*
X250310000Y-47030000D02*
G75*
G02*
X247310000Y-44030000I0J3000000D01*
G01*
X66510000Y-41430000D02*
X245310000Y-41430000D01*
X60910000Y-129830000D02*
G75*
G02*
X58910000Y-127830000I0J2000000D01*
G01*
X238209249Y-135430000D02*
G75*
G02*
X236248367Y-133830000I-1290J2000000D01*
G01*
X247310000Y-132830000D02*
X247310000Y-133430000D01*
X58910000Y-49030000D02*
G75*
G02*
X60910000Y-47030000I2000000J0D01*
G01*
X250910000Y-129830000D02*
X250310000Y-129830000D01*
X250310000Y-47030000D02*
X250910000Y-47030000D01*
X245310000Y-135430000D02*
X238207959Y-135430000D01*
X218612041Y-135430000D02*
X66510000Y-135430000D01*
X64510000Y-133430000D02*
X64510000Y-132830000D01*
X60910000Y-129830000D02*
X61510000Y-129830000D01*
X58910000Y-49030000D02*
X58910000Y-127830000D01*
X60910000Y-47030000D02*
X61510000Y-47030000D01*
X64510000Y-44030000D02*
G75*
G02*
X61510000Y-47030000I-3000000J0D01*
G01*
M02*
