M48
; DRILL file {KiCad 5.1.7-a382d34a8~87~ubuntu20.04.1} date Fri Oct 30 10:44:53 2020
; FORMAT={-:-/ absolute / metric / decimal}
; #@! TF.CreationDate,2020-10-30T10:44:53+01:00
; #@! TF.GenerationSoftware,Kicad,Pcbnew,5.1.7-a382d34a8~87~ubuntu20.04.1
; #@! TF.FileFunction,Plated,1,2,PTH
FMAT,2
METRIC
T1C0.400
T2C0.600
T3C0.920
T4C0.960
T5C1.000
T6C1.016
T7C1.350
T8C1.500
T9C2.330
T10C3.200
T11C3.500
%
G90
G05
T1
X62.28Y-61.36
X62.39Y-112.71
X72.63Y-126.44
X72.85Y-130.92
X73.23Y-128.34
X74.41Y-128.56
X75.825Y-116.185
X76.65Y-119.724
X77.34Y-130.95
X77.375Y-118.724
X81.565Y-121.852
X81.565Y-129.13
X82.29Y-122.57
X82.3Y-130.31
X83.25Y-117.0
X84.0Y-122.5
X84.08Y-114.56
X84.21Y-130.65
X85.0Y-122.5
X85.23Y-130.34
X86.36Y-122.65
X86.74Y-130.87
X87.22Y-117.38
X87.684Y-129.926
X88.758Y-129.878
X88.835Y-118.0
X89.28Y-130.81
X89.6Y-112.21
X90.755Y-130.665
X91.39Y-121.65
X91.43Y-122.66
X91.77Y-130.74
X93.2Y-119.4
X94.21Y-126.17
X94.27Y-128.97
X94.34Y-130.88
X95.21Y-126.17
X95.59Y-129.69
X95.7Y-118.7
X96.32Y-126.17
X96.35Y-130.69
X97.96Y-122.36
X98.33Y-130.82
X99.48Y-130.56
X99.58Y-122.035
X100.3Y-118.571
X100.594Y-119.599
X100.6Y-122.035
X101.06Y-130.77
X101.59Y-119.685
X101.6Y-122.035
X102.08Y-130.69
X102.6Y-122.035
X102.77Y-125.84
X103.009Y-130.32
X103.7Y-122.035
X103.8Y-125.72
X104.79Y-111.46
X104.9Y-50.975
X105.56Y-132.44
X105.8Y-111.485
X105.87Y-130.89
X105.962Y-109.262
X106.25Y-69.4
X109.11Y-121.71
X109.13Y-111.39
X110.39Y-68.025
X112.5Y-70.1
X113.17Y-111.07
X114.439Y-66.244
X114.85Y-130.81
X115.44Y-71.79
X115.48Y-65.17
X115.79Y-63.0
X115.86Y-64.23
X116.89Y-70.39
X116.93Y-78.64
X116.96Y-77.59
X117.45Y-122.3
X119.0Y-45.5
X120.175Y-64.675
X121.274Y-130.275
X121.87Y-61.72
X122.5Y-66.0
X122.58Y-130.34
X123.175Y-57.425
X124.075Y-65.5
X125.405Y-62.275
X125.827Y-122.743
X126.3Y-130.67
X126.65Y-65.725
X126.74Y-121.76
X127.575Y-66.45
X128.47Y-130.75
X128.56Y-122.47
X129.025Y-66.075
X130.55Y-120.85
X130.77Y-122.75
X130.875Y-58.925
X132.22Y-130.99
X132.72Y-122.85
X132.75Y-106.023
X133.075Y-61.75
X139.404Y-131.186
X150.725Y-102.175
X151.138Y-97.25
X151.138Y-98.25
X151.138Y-99.25
X151.138Y-100.264
X151.138Y-101.264
X164.8Y-96.25
X168.0Y-58.5
X171.17Y-134.08
X173.7Y-133.525
X174.775Y-106.7
X175.125Y-81.15
X175.55Y-74.7
X176.325Y-106.7
X177.45Y-97.525
X177.525Y-67.675
X179.725Y-103.525
X181.15Y-102.825
X182.196Y-133.075
X183.15Y-132.625
X190.825Y-97.475
X194.0Y-100.6
X195.75Y-84.925
X195.975Y-99.725
X196.275Y-108.5
X197.45Y-90.3
X197.843Y-88.775
X198.89Y-86.0
X200.625Y-85.625
X200.725Y-79.575
X200.95Y-108.5
X201.48Y-100.01
X202.7Y-108.375
X205.6Y-93.5
X207.75Y-109.875
X208.15Y-105.2
X208.28Y-99.55
X208.455Y-88.445
X209.381Y-88.125
X212.125Y-96.875
X214.0Y-110.25
X214.35Y-70.65
X217.62Y-95.55
X217.85Y-71.4
X217.9Y-104.5
X217.9Y-86.425
X217.95Y-84.725
X218.29Y-102.86
X220.35Y-101.56
X220.375Y-92.375
X220.418Y-94.032
X220.6Y-108.55
X221.391Y-83.835
X222.025Y-92.05
X222.3Y-84.314
X223.15Y-71.275
X223.85Y-105.15
X224.05Y-70.4
X225.407Y-103.332
X225.45Y-90.71
X226.605Y-92.565
X227.343Y-101.344
X227.35Y-95.125
X228.1Y-89.8
X228.235Y-100.893
X228.298Y-92.559
X229.6Y-89.2
X230.5Y-104.05
X230.6Y-97.125
X230.825Y-101.1
X231.121Y-103.267
X232.575Y-88.9
X233.03Y-99.15
X234.845Y-76.28
X235.25Y-103.4
X235.61Y-71.27
X236.49Y-69.97
X236.709Y-103.164
X237.3Y-99.35
X244.2Y-75.575
X244.66Y-85.1
X244.77Y-88.0
X245.375Y-77.0
X246.625Y-85.075
X247.75Y-83.05
T2
X96.62Y-65.49
X98.058Y-65.443
X99.55Y-65.45
X100.95Y-65.35
X113.95Y-79.3
X130.32Y-130.84
X133.87Y-103.015
X135.49Y-103.015
X136.475Y-132.475
X136.79Y-101.0
X136.83Y-99.55
X137.2Y-124.15
X140.445Y-116.905
X141.415Y-117.875
X147.3Y-83.0
X148.27Y-125.95
X148.975Y-110.325
X149.0Y-75.6
X150.56Y-95.16
X154.1Y-71.8
X161.675Y-68.875
X164.975Y-83.0
X166.01Y-63.31
X166.275Y-85.225
X166.275Y-94.275
X166.878Y-80.924
X170.01Y-79.75
X171.196Y-86.36
X173.32Y-56.65
X173.325Y-81.25
X177.275Y-74.15
X177.55Y-80.1
X179.28Y-94.42
X181.4Y-64.075
X181.6Y-90.925
X182.127Y-66.757
X182.35Y-81.85
X182.675Y-87.1
X187.77Y-63.27
X188.2Y-59.65
X190.975Y-85.7
X190.975Y-96.0
X191.2Y-65.35
X192.225Y-90.675
X199.72Y-69.35
X200.91Y-67.66
X211.425Y-85.525
X225.05Y-98.35
X225.6Y-105.875
X228.46Y-110.18
X237.0Y-102.0
T3
X125.25Y-53.73
X125.25Y-55.73
X125.25Y-57.73
X125.25Y-59.73
X136.6Y-51.56
X136.6Y-53.56
X139.1Y-51.56
X139.1Y-53.56
T4
X167.36Y-54.94
X168.63Y-52.4
X169.9Y-54.94
X171.17Y-52.4
X172.44Y-54.94
X173.71Y-52.4
X174.98Y-54.94
X176.25Y-52.4
T5
X168.63Y-124.49
X171.17Y-124.49
X173.71Y-124.49
T6
X185.28Y-122.9
X185.28Y-125.44
X187.82Y-122.9
X187.82Y-125.44
X190.36Y-122.9
X190.36Y-125.44
X192.9Y-122.9
X192.9Y-125.44
X195.44Y-122.9
X195.44Y-125.44
X197.98Y-122.9
X197.98Y-125.44
X200.52Y-122.9
X200.52Y-125.44
X203.06Y-122.9
X203.06Y-125.44
X205.6Y-122.9
X205.6Y-125.44
X208.14Y-122.9
X208.14Y-125.44
T7
X122.53Y-53.0
X122.53Y-60.0
X127.97Y-53.0
X127.97Y-60.0
T8
X67.23Y-48.41
X67.23Y-54.76
X67.23Y-61.11
X83.46Y-48.41
X83.46Y-54.76
X83.46Y-61.11
X88.22Y-48.31
X88.22Y-54.66
X88.22Y-61.01
X104.45Y-48.31
X104.45Y-54.66
X104.45Y-61.01
X207.59Y-48.38
X207.59Y-54.73
X207.59Y-61.08
X223.82Y-48.38
X223.82Y-54.73
X223.82Y-61.08
X228.64Y-48.29
X228.64Y-54.64
X228.64Y-60.99
X244.87Y-48.29
X244.87Y-54.64
X244.87Y-60.99
T9
X131.83Y-48.85
X143.87Y-48.85
T10
X71.17Y-83.72
X249.275Y-120.8
X134.68Y-83.74
T11
X250.275Y-49.65
X147.875Y-45.15
X62.575Y-120.75
X61.475Y-49.65
T5
G00X151.55Y-48.15
M15
G01X151.55Y-50.15
M16
G05
G00X157.25Y-46.15
M15
G01X155.25Y-46.15
M16
G05
G00X157.25Y-52.15
M15
G01X155.25Y-52.15
M16
G05
T0
M30
