G04 #@! TF.GenerationSoftware,KiCad,Pcbnew,5.1.11-e4df9d881f~92~ubuntu20.04.1*
G04 #@! TF.CreationDate,2021-11-11T13:36:33+01:00*
G04 #@! TF.ProjectId,bottom-board,626f7474-6f6d-42d6-926f-6172642e6b69,rev?*
G04 #@! TF.SameCoordinates,Original*
G04 #@! TF.FileFunction,Paste,Top*
G04 #@! TF.FilePolarity,Positive*
%FSLAX46Y46*%
G04 Gerber Fmt 4.6, Leading zero omitted, Abs format (unit mm)*
G04 Created by KiCad (PCBNEW 5.1.11-e4df9d881f~92~ubuntu20.04.1) date 2021-11-11 13:36:33*
%MOMM*%
%LPD*%
G01*
G04 APERTURE LIST*
%ADD10R,0.300000X1.750000*%
%ADD11R,3.500000X4.600000*%
%ADD12R,0.600000X0.450000*%
%ADD13R,1.500000X6.600000*%
%ADD14R,1.400000X1.200000*%
%ADD15R,1.400000X1.000000*%
%ADD16R,1.000000X1.400000*%
%ADD17R,1.200000X1.400000*%
%ADD18R,2.800000X2.200000*%
%ADD19R,2.800000X2.800000*%
%ADD20R,4.600000X1.100000*%
%ADD21R,4.550000X5.250000*%
%ADD22R,0.650000X1.060000*%
%ADD23R,0.800000X0.900000*%
%ADD24C,1.000000*%
%ADD25R,1.500000X2.700000*%
%ADD26R,0.450000X0.600000*%
%ADD27R,0.250000X1.100000*%
%ADD28R,0.900000X0.800000*%
%ADD29R,2.200000X1.200000*%
%ADD30R,3.050000X2.750000*%
%ADD31R,2.000000X1.800000*%
%ADD32R,2.000000X3.800000*%
%ADD33R,2.000000X1.500000*%
%ADD34R,1.400000X1.300000*%
%ADD35R,1.060000X0.650000*%
%ADD36R,5.400000X2.900000*%
%ADD37R,2.100000X1.400000*%
%ADD38R,1.400000X2.100000*%
G04 APERTURE END LIST*
D10*
X69435000Y-132360000D03*
X69685000Y-124160000D03*
X69935000Y-132360000D03*
X70185000Y-124160000D03*
X70435000Y-132360000D03*
X70685000Y-124160000D03*
X70935000Y-132360000D03*
X71185000Y-124160000D03*
X71435000Y-132360000D03*
X71685000Y-124160000D03*
X71935000Y-132360000D03*
X72185000Y-124160000D03*
X72435000Y-132360000D03*
X72685000Y-124160000D03*
X72935000Y-132360000D03*
X73185000Y-124160000D03*
X73435000Y-132360000D03*
X73685000Y-124160000D03*
X73935000Y-132360000D03*
X74185000Y-124160000D03*
X74435000Y-132360000D03*
X74685000Y-124160000D03*
X74935000Y-132360000D03*
X75185000Y-124160000D03*
X75435000Y-132360000D03*
X75685000Y-124160000D03*
X75935000Y-132360000D03*
X76185000Y-124160000D03*
X76435000Y-132360000D03*
X76685000Y-124160000D03*
X76935000Y-132360000D03*
X77185000Y-124160000D03*
X77435000Y-132360000D03*
X77685000Y-124160000D03*
X77935000Y-132360000D03*
X78185000Y-124160000D03*
X78435000Y-132360000D03*
X78685000Y-124160000D03*
X78935000Y-132360000D03*
X79185000Y-124160000D03*
X79435000Y-132360000D03*
X79685000Y-124160000D03*
X79935000Y-132360000D03*
X80185000Y-124160000D03*
X80435000Y-132360000D03*
X80685000Y-124160000D03*
X80935000Y-132360000D03*
X81185000Y-124160000D03*
X81435000Y-132360000D03*
X81685000Y-124160000D03*
X81935000Y-132360000D03*
X82185000Y-124160000D03*
X82435000Y-132360000D03*
X82685000Y-124160000D03*
X82935000Y-132360000D03*
X83185000Y-124160000D03*
X83435000Y-132360000D03*
X83685000Y-124160000D03*
X83935000Y-132360000D03*
X84185000Y-124160000D03*
X84435000Y-132360000D03*
X84685000Y-124160000D03*
X84935000Y-132360000D03*
X85185000Y-124160000D03*
X85435000Y-132360000D03*
X85685000Y-124160000D03*
X85935000Y-132360000D03*
X86185000Y-124160000D03*
X86435000Y-132360000D03*
X86685000Y-124160000D03*
X86935000Y-132360000D03*
X87185000Y-124160000D03*
X87435000Y-132360000D03*
X87685000Y-124160000D03*
X87935000Y-132360000D03*
X88185000Y-124160000D03*
X88435000Y-132360000D03*
X88685000Y-124160000D03*
X88935000Y-132360000D03*
X89185000Y-124160000D03*
X89435000Y-132360000D03*
X89685000Y-124160000D03*
X89935000Y-132360000D03*
X90185000Y-124160000D03*
X90435000Y-132360000D03*
X90685000Y-124160000D03*
X90935000Y-132360000D03*
X91185000Y-124160000D03*
X91435000Y-132360000D03*
X91685000Y-124160000D03*
X91935000Y-132360000D03*
X92185000Y-124160000D03*
X92435000Y-132360000D03*
X92685000Y-124160000D03*
X92935000Y-132360000D03*
X93185000Y-124160000D03*
X93435000Y-132360000D03*
X93685000Y-124160000D03*
X93935000Y-132360000D03*
X94185000Y-124160000D03*
X94435000Y-132360000D03*
X94685000Y-124160000D03*
X94935000Y-132360000D03*
X95185000Y-124160000D03*
X95435000Y-132360000D03*
X95685000Y-124160000D03*
X95935000Y-132360000D03*
X96185000Y-124160000D03*
X96435000Y-132360000D03*
X96685000Y-124160000D03*
X96935000Y-132360000D03*
X97185000Y-124160000D03*
X97435000Y-132360000D03*
X97685000Y-124160000D03*
X97935000Y-132360000D03*
X98185000Y-124160000D03*
X98435000Y-132360000D03*
X98685000Y-124160000D03*
X98935000Y-132360000D03*
X99185000Y-124160000D03*
X99435000Y-132360000D03*
X99685000Y-124160000D03*
X99935000Y-132360000D03*
X100185000Y-124160000D03*
X100435000Y-132360000D03*
X100685000Y-124160000D03*
X100935000Y-132360000D03*
X101185000Y-124160000D03*
X101435000Y-132360000D03*
X101685000Y-124160000D03*
X101935000Y-132360000D03*
X102185000Y-124160000D03*
X102435000Y-132360000D03*
X102685000Y-124160000D03*
X102935000Y-132360000D03*
X103185000Y-124160000D03*
X103435000Y-132360000D03*
X103685000Y-124160000D03*
X103935000Y-132360000D03*
X104185000Y-124160000D03*
X104435000Y-132360000D03*
X104685000Y-124160000D03*
X104935000Y-132360000D03*
X105185000Y-124160000D03*
X107435000Y-132360000D03*
X107685000Y-124160000D03*
X107935000Y-132360000D03*
X108185000Y-124160000D03*
X108435000Y-132360000D03*
X108685000Y-124160000D03*
X108935000Y-132360000D03*
X109185000Y-124160000D03*
X109435000Y-132360000D03*
X109685000Y-124160000D03*
X109935000Y-132360000D03*
X110185000Y-124160000D03*
X110435000Y-132360000D03*
X110685000Y-124160000D03*
X110935000Y-132360000D03*
X111185000Y-124160000D03*
X111435000Y-132360000D03*
X111685000Y-124160000D03*
X111935000Y-132360000D03*
X112185000Y-124160000D03*
X112435000Y-132360000D03*
X112685000Y-124160000D03*
X112935000Y-132360000D03*
X113185000Y-124160000D03*
X113435000Y-132360000D03*
X113685000Y-124160000D03*
X113935000Y-132360000D03*
X114185000Y-124160000D03*
X114435000Y-132360000D03*
X114685000Y-124160000D03*
X114935000Y-132360000D03*
X115185000Y-124160000D03*
X115435000Y-132360000D03*
X115685000Y-124160000D03*
X115935000Y-132360000D03*
X116185000Y-124160000D03*
X116435000Y-132360000D03*
X116685000Y-124160000D03*
X116935000Y-132360000D03*
X117185000Y-124160000D03*
X117435000Y-132360000D03*
X117685000Y-124160000D03*
X117935000Y-132360000D03*
X118185000Y-124160000D03*
X118435000Y-132360000D03*
X118685000Y-124160000D03*
X118935000Y-132360000D03*
X119185000Y-124160000D03*
X119435000Y-132360000D03*
X119685000Y-124160000D03*
X119935000Y-132360000D03*
X120185000Y-124160000D03*
X120435000Y-132360000D03*
X120685000Y-124160000D03*
X120935000Y-132360000D03*
X121185000Y-124160000D03*
X121435000Y-132360000D03*
X121685000Y-124160000D03*
X121935000Y-132360000D03*
X122185000Y-124160000D03*
X122435000Y-132360000D03*
X122685000Y-124160000D03*
X122935000Y-132360000D03*
X123185000Y-124160000D03*
X123435000Y-132360000D03*
X123685000Y-124160000D03*
X123935000Y-132360000D03*
X124185000Y-124160000D03*
X124435000Y-132360000D03*
X124685000Y-124160000D03*
X124935000Y-132360000D03*
X125185000Y-124160000D03*
X125435000Y-132360000D03*
X125685000Y-124160000D03*
X125935000Y-132360000D03*
X126185000Y-124160000D03*
X126435000Y-132360000D03*
X126685000Y-124160000D03*
X126935000Y-132360000D03*
X127185000Y-124160000D03*
X127435000Y-132360000D03*
X127685000Y-124160000D03*
X127935000Y-132360000D03*
X128185000Y-124160000D03*
X128435000Y-132360000D03*
X128685000Y-124160000D03*
X128935000Y-132360000D03*
X129185000Y-124160000D03*
X129435000Y-132360000D03*
X129685000Y-124160000D03*
X129935000Y-132360000D03*
X130185000Y-124160000D03*
X130435000Y-132360000D03*
X130685000Y-124160000D03*
X130935000Y-132360000D03*
X131185000Y-124160000D03*
X131435000Y-132360000D03*
X131685000Y-124160000D03*
X131935000Y-132360000D03*
X132185000Y-124160000D03*
X132435000Y-132360000D03*
X132685000Y-124160000D03*
X132935000Y-132360000D03*
X133185000Y-124160000D03*
X133435000Y-132360000D03*
X133685000Y-124160000D03*
X133935000Y-132360000D03*
X134185000Y-124160000D03*
X134435000Y-132360000D03*
X134685000Y-124160000D03*
X134935000Y-132360000D03*
X135185000Y-124160000D03*
X135435000Y-132360000D03*
X135685000Y-124160000D03*
X135935000Y-132360000D03*
X136185000Y-124160000D03*
D11*
X136610000Y-116260000D03*
X69010000Y-116260000D03*
G36*
G01*
X237550000Y-100631250D02*
X237550000Y-100118750D01*
G75*
G02*
X237768750Y-99900000I218750J0D01*
G01*
X238206250Y-99900000D01*
G75*
G02*
X238425000Y-100118750I0J-218750D01*
G01*
X238425000Y-100631250D01*
G75*
G02*
X238206250Y-100850000I-218750J0D01*
G01*
X237768750Y-100850000D01*
G75*
G02*
X237550000Y-100631250I0J218750D01*
G01*
G37*
G36*
G01*
X239125000Y-100631250D02*
X239125000Y-100118750D01*
G75*
G02*
X239343750Y-99900000I218750J0D01*
G01*
X239781250Y-99900000D01*
G75*
G02*
X240000000Y-100118750I0J-218750D01*
G01*
X240000000Y-100631250D01*
G75*
G02*
X239781250Y-100850000I-218750J0D01*
G01*
X239343750Y-100850000D01*
G75*
G02*
X239125000Y-100631250I0J218750D01*
G01*
G37*
D12*
X196260000Y-57020000D03*
X198360000Y-57020000D03*
G36*
G01*
X142401320Y-126352290D02*
X142401320Y-125439790D01*
G75*
G02*
X142645070Y-125196040I243750J0D01*
G01*
X143132570Y-125196040D01*
G75*
G02*
X143376320Y-125439790I0J-243750D01*
G01*
X143376320Y-126352290D01*
G75*
G02*
X143132570Y-126596040I-243750J0D01*
G01*
X142645070Y-126596040D01*
G75*
G02*
X142401320Y-126352290I0J243750D01*
G01*
G37*
G36*
G01*
X144276320Y-126352290D02*
X144276320Y-125439790D01*
G75*
G02*
X144520070Y-125196040I243750J0D01*
G01*
X145007570Y-125196040D01*
G75*
G02*
X145251320Y-125439790I0J-243750D01*
G01*
X145251320Y-126352290D01*
G75*
G02*
X145007570Y-126596040I-243750J0D01*
G01*
X144520070Y-126596040D01*
G75*
G02*
X144276320Y-126352290I0J243750D01*
G01*
G37*
G36*
G01*
X98056250Y-117880000D02*
X97543750Y-117880000D01*
G75*
G02*
X97325000Y-117661250I0J218750D01*
G01*
X97325000Y-117223750D01*
G75*
G02*
X97543750Y-117005000I218750J0D01*
G01*
X98056250Y-117005000D01*
G75*
G02*
X98275000Y-117223750I0J-218750D01*
G01*
X98275000Y-117661250D01*
G75*
G02*
X98056250Y-117880000I-218750J0D01*
G01*
G37*
G36*
G01*
X98056250Y-119455000D02*
X97543750Y-119455000D01*
G75*
G02*
X97325000Y-119236250I0J218750D01*
G01*
X97325000Y-118798750D01*
G75*
G02*
X97543750Y-118580000I218750J0D01*
G01*
X98056250Y-118580000D01*
G75*
G02*
X98275000Y-118798750I0J-218750D01*
G01*
X98275000Y-119236250D01*
G75*
G02*
X98056250Y-119455000I-218750J0D01*
G01*
G37*
G36*
G01*
X211547500Y-110543750D02*
X211547500Y-111056250D01*
G75*
G02*
X211328750Y-111275000I-218750J0D01*
G01*
X210891250Y-111275000D01*
G75*
G02*
X210672500Y-111056250I0J218750D01*
G01*
X210672500Y-110543750D01*
G75*
G02*
X210891250Y-110325000I218750J0D01*
G01*
X211328750Y-110325000D01*
G75*
G02*
X211547500Y-110543750I0J-218750D01*
G01*
G37*
G36*
G01*
X213122500Y-110543750D02*
X213122500Y-111056250D01*
G75*
G02*
X212903750Y-111275000I-218750J0D01*
G01*
X212466250Y-111275000D01*
G75*
G02*
X212247500Y-111056250I0J218750D01*
G01*
X212247500Y-110543750D01*
G75*
G02*
X212466250Y-110325000I218750J0D01*
G01*
X212903750Y-110325000D01*
G75*
G02*
X213122500Y-110543750I0J-218750D01*
G01*
G37*
G36*
G01*
X212960000Y-101820000D02*
X212960000Y-100720000D01*
G75*
G02*
X213210000Y-100470000I250000J0D01*
G01*
X215310000Y-100470000D01*
G75*
G02*
X215560000Y-100720000I0J-250000D01*
G01*
X215560000Y-101820000D01*
G75*
G02*
X215310000Y-102070000I-250000J0D01*
G01*
X213210000Y-102070000D01*
G75*
G02*
X212960000Y-101820000I0J250000D01*
G01*
G37*
G36*
G01*
X216560000Y-101820000D02*
X216560000Y-100720000D01*
G75*
G02*
X216810000Y-100470000I250000J0D01*
G01*
X218910000Y-100470000D01*
G75*
G02*
X219160000Y-100720000I0J-250000D01*
G01*
X219160000Y-101820000D01*
G75*
G02*
X218910000Y-102070000I-250000J0D01*
G01*
X216810000Y-102070000D01*
G75*
G02*
X216560000Y-101820000I0J250000D01*
G01*
G37*
G36*
G01*
X210760000Y-99693750D02*
X210760000Y-100206250D01*
G75*
G02*
X210541250Y-100425000I-218750J0D01*
G01*
X210103750Y-100425000D01*
G75*
G02*
X209885000Y-100206250I0J218750D01*
G01*
X209885000Y-99693750D01*
G75*
G02*
X210103750Y-99475000I218750J0D01*
G01*
X210541250Y-99475000D01*
G75*
G02*
X210760000Y-99693750I0J-218750D01*
G01*
G37*
G36*
G01*
X212335000Y-99693750D02*
X212335000Y-100206250D01*
G75*
G02*
X212116250Y-100425000I-218750J0D01*
G01*
X211678750Y-100425000D01*
G75*
G02*
X211460000Y-100206250I0J218750D01*
G01*
X211460000Y-99693750D01*
G75*
G02*
X211678750Y-99475000I218750J0D01*
G01*
X212116250Y-99475000D01*
G75*
G02*
X212335000Y-99693750I0J-218750D01*
G01*
G37*
D13*
X142100000Y-86760000D03*
X147967400Y-86798100D03*
G36*
G01*
X163337500Y-104893750D02*
X163337500Y-105406250D01*
G75*
G02*
X163118750Y-105625000I-218750J0D01*
G01*
X162681250Y-105625000D01*
G75*
G02*
X162462500Y-105406250I0J218750D01*
G01*
X162462500Y-104893750D01*
G75*
G02*
X162681250Y-104675000I218750J0D01*
G01*
X163118750Y-104675000D01*
G75*
G02*
X163337500Y-104893750I0J-218750D01*
G01*
G37*
G36*
G01*
X164912500Y-104893750D02*
X164912500Y-105406250D01*
G75*
G02*
X164693750Y-105625000I-218750J0D01*
G01*
X164256250Y-105625000D01*
G75*
G02*
X164037500Y-105406250I0J218750D01*
G01*
X164037500Y-104893750D01*
G75*
G02*
X164256250Y-104675000I218750J0D01*
G01*
X164693750Y-104675000D01*
G75*
G02*
X164912500Y-104893750I0J-218750D01*
G01*
G37*
G36*
G01*
X205836250Y-111387500D02*
X205323750Y-111387500D01*
G75*
G02*
X205105000Y-111168750I0J218750D01*
G01*
X205105000Y-110731250D01*
G75*
G02*
X205323750Y-110512500I218750J0D01*
G01*
X205836250Y-110512500D01*
G75*
G02*
X206055000Y-110731250I0J-218750D01*
G01*
X206055000Y-111168750D01*
G75*
G02*
X205836250Y-111387500I-218750J0D01*
G01*
G37*
G36*
G01*
X205836250Y-109812500D02*
X205323750Y-109812500D01*
G75*
G02*
X205105000Y-109593750I0J218750D01*
G01*
X205105000Y-109156250D01*
G75*
G02*
X205323750Y-108937500I218750J0D01*
G01*
X205836250Y-108937500D01*
G75*
G02*
X206055000Y-109156250I0J-218750D01*
G01*
X206055000Y-109593750D01*
G75*
G02*
X205836250Y-109812500I-218750J0D01*
G01*
G37*
G36*
G01*
X210968000Y-107419000D02*
X210968000Y-107719000D01*
G75*
G02*
X210818000Y-107869000I-150000J0D01*
G01*
X209168000Y-107869000D01*
G75*
G02*
X209018000Y-107719000I0J150000D01*
G01*
X209018000Y-107419000D01*
G75*
G02*
X209168000Y-107269000I150000J0D01*
G01*
X210818000Y-107269000D01*
G75*
G02*
X210968000Y-107419000I0J-150000D01*
G01*
G37*
G36*
G01*
X210968000Y-106149000D02*
X210968000Y-106449000D01*
G75*
G02*
X210818000Y-106599000I-150000J0D01*
G01*
X209168000Y-106599000D01*
G75*
G02*
X209018000Y-106449000I0J150000D01*
G01*
X209018000Y-106149000D01*
G75*
G02*
X209168000Y-105999000I150000J0D01*
G01*
X210818000Y-105999000D01*
G75*
G02*
X210968000Y-106149000I0J-150000D01*
G01*
G37*
G36*
G01*
X210968000Y-104879000D02*
X210968000Y-105179000D01*
G75*
G02*
X210818000Y-105329000I-150000J0D01*
G01*
X209168000Y-105329000D01*
G75*
G02*
X209018000Y-105179000I0J150000D01*
G01*
X209018000Y-104879000D01*
G75*
G02*
X209168000Y-104729000I150000J0D01*
G01*
X210818000Y-104729000D01*
G75*
G02*
X210968000Y-104879000I0J-150000D01*
G01*
G37*
G36*
G01*
X210968000Y-103609000D02*
X210968000Y-103909000D01*
G75*
G02*
X210818000Y-104059000I-150000J0D01*
G01*
X209168000Y-104059000D01*
G75*
G02*
X209018000Y-103909000I0J150000D01*
G01*
X209018000Y-103609000D01*
G75*
G02*
X209168000Y-103459000I150000J0D01*
G01*
X210818000Y-103459000D01*
G75*
G02*
X210968000Y-103609000I0J-150000D01*
G01*
G37*
G36*
G01*
X206018000Y-103609000D02*
X206018000Y-103909000D01*
G75*
G02*
X205868000Y-104059000I-150000J0D01*
G01*
X204218000Y-104059000D01*
G75*
G02*
X204068000Y-103909000I0J150000D01*
G01*
X204068000Y-103609000D01*
G75*
G02*
X204218000Y-103459000I150000J0D01*
G01*
X205868000Y-103459000D01*
G75*
G02*
X206018000Y-103609000I0J-150000D01*
G01*
G37*
G36*
G01*
X206018000Y-104879000D02*
X206018000Y-105179000D01*
G75*
G02*
X205868000Y-105329000I-150000J0D01*
G01*
X204218000Y-105329000D01*
G75*
G02*
X204068000Y-105179000I0J150000D01*
G01*
X204068000Y-104879000D01*
G75*
G02*
X204218000Y-104729000I150000J0D01*
G01*
X205868000Y-104729000D01*
G75*
G02*
X206018000Y-104879000I0J-150000D01*
G01*
G37*
G36*
G01*
X206018000Y-106149000D02*
X206018000Y-106449000D01*
G75*
G02*
X205868000Y-106599000I-150000J0D01*
G01*
X204218000Y-106599000D01*
G75*
G02*
X204068000Y-106449000I0J150000D01*
G01*
X204068000Y-106149000D01*
G75*
G02*
X204218000Y-105999000I150000J0D01*
G01*
X205868000Y-105999000D01*
G75*
G02*
X206018000Y-106149000I0J-150000D01*
G01*
G37*
G36*
G01*
X206018000Y-107419000D02*
X206018000Y-107719000D01*
G75*
G02*
X205868000Y-107869000I-150000J0D01*
G01*
X204218000Y-107869000D01*
G75*
G02*
X204068000Y-107719000I0J150000D01*
G01*
X204068000Y-107419000D01*
G75*
G02*
X204218000Y-107269000I150000J0D01*
G01*
X205868000Y-107269000D01*
G75*
G02*
X206018000Y-107419000I0J-150000D01*
G01*
G37*
G36*
G01*
X214050000Y-85100000D02*
X215150000Y-85100000D01*
G75*
G02*
X215400000Y-85350000I0J-250000D01*
G01*
X215400000Y-87450000D01*
G75*
G02*
X215150000Y-87700000I-250000J0D01*
G01*
X214050000Y-87700000D01*
G75*
G02*
X213800000Y-87450000I0J250000D01*
G01*
X213800000Y-85350000D01*
G75*
G02*
X214050000Y-85100000I250000J0D01*
G01*
G37*
G36*
G01*
X214050000Y-81500000D02*
X215150000Y-81500000D01*
G75*
G02*
X215400000Y-81750000I0J-250000D01*
G01*
X215400000Y-83850000D01*
G75*
G02*
X215150000Y-84100000I-250000J0D01*
G01*
X214050000Y-84100000D01*
G75*
G02*
X213800000Y-83850000I0J250000D01*
G01*
X213800000Y-81750000D01*
G75*
G02*
X214050000Y-81500000I250000J0D01*
G01*
G37*
G36*
G01*
X133635000Y-64311250D02*
X133635000Y-63798750D01*
G75*
G02*
X133853750Y-63580000I218750J0D01*
G01*
X134291250Y-63580000D01*
G75*
G02*
X134510000Y-63798750I0J-218750D01*
G01*
X134510000Y-64311250D01*
G75*
G02*
X134291250Y-64530000I-218750J0D01*
G01*
X133853750Y-64530000D01*
G75*
G02*
X133635000Y-64311250I0J218750D01*
G01*
G37*
G36*
G01*
X135210000Y-64311250D02*
X135210000Y-63798750D01*
G75*
G02*
X135428750Y-63580000I218750J0D01*
G01*
X135866250Y-63580000D01*
G75*
G02*
X136085000Y-63798750I0J-218750D01*
G01*
X136085000Y-64311250D01*
G75*
G02*
X135866250Y-64530000I-218750J0D01*
G01*
X135428750Y-64530000D01*
G75*
G02*
X135210000Y-64311250I0J218750D01*
G01*
G37*
G36*
G01*
X164762500Y-69006250D02*
X164762500Y-68493750D01*
G75*
G02*
X164981250Y-68275000I218750J0D01*
G01*
X165418750Y-68275000D01*
G75*
G02*
X165637500Y-68493750I0J-218750D01*
G01*
X165637500Y-69006250D01*
G75*
G02*
X165418750Y-69225000I-218750J0D01*
G01*
X164981250Y-69225000D01*
G75*
G02*
X164762500Y-69006250I0J218750D01*
G01*
G37*
G36*
G01*
X166337500Y-69006250D02*
X166337500Y-68493750D01*
G75*
G02*
X166556250Y-68275000I218750J0D01*
G01*
X166993750Y-68275000D01*
G75*
G02*
X167212500Y-68493750I0J-218750D01*
G01*
X167212500Y-69006250D01*
G75*
G02*
X166993750Y-69225000I-218750J0D01*
G01*
X166556250Y-69225000D01*
G75*
G02*
X166337500Y-69006250I0J218750D01*
G01*
G37*
G36*
G01*
X151340000Y-84666250D02*
X151340000Y-84153750D01*
G75*
G02*
X151558750Y-83935000I218750J0D01*
G01*
X151996250Y-83935000D01*
G75*
G02*
X152215000Y-84153750I0J-218750D01*
G01*
X152215000Y-84666250D01*
G75*
G02*
X151996250Y-84885000I-218750J0D01*
G01*
X151558750Y-84885000D01*
G75*
G02*
X151340000Y-84666250I0J218750D01*
G01*
G37*
G36*
G01*
X149765000Y-84666250D02*
X149765000Y-84153750D01*
G75*
G02*
X149983750Y-83935000I218750J0D01*
G01*
X150421250Y-83935000D01*
G75*
G02*
X150640000Y-84153750I0J-218750D01*
G01*
X150640000Y-84666250D01*
G75*
G02*
X150421250Y-84885000I-218750J0D01*
G01*
X149983750Y-84885000D01*
G75*
G02*
X149765000Y-84666250I0J218750D01*
G01*
G37*
G36*
G01*
X167056250Y-65670000D02*
X166143750Y-65670000D01*
G75*
G02*
X165900000Y-65426250I0J243750D01*
G01*
X165900000Y-64938750D01*
G75*
G02*
X166143750Y-64695000I243750J0D01*
G01*
X167056250Y-64695000D01*
G75*
G02*
X167300000Y-64938750I0J-243750D01*
G01*
X167300000Y-65426250D01*
G75*
G02*
X167056250Y-65670000I-243750J0D01*
G01*
G37*
G36*
G01*
X167056250Y-67545000D02*
X166143750Y-67545000D01*
G75*
G02*
X165900000Y-67301250I0J243750D01*
G01*
X165900000Y-66813750D01*
G75*
G02*
X166143750Y-66570000I243750J0D01*
G01*
X167056250Y-66570000D01*
G75*
G02*
X167300000Y-66813750I0J-243750D01*
G01*
X167300000Y-67301250D01*
G75*
G02*
X167056250Y-67545000I-243750J0D01*
G01*
G37*
G36*
G01*
X169056250Y-67712500D02*
X168543750Y-67712500D01*
G75*
G02*
X168325000Y-67493750I0J218750D01*
G01*
X168325000Y-67056250D01*
G75*
G02*
X168543750Y-66837500I218750J0D01*
G01*
X169056250Y-66837500D01*
G75*
G02*
X169275000Y-67056250I0J-218750D01*
G01*
X169275000Y-67493750D01*
G75*
G02*
X169056250Y-67712500I-218750J0D01*
G01*
G37*
G36*
G01*
X169056250Y-66137500D02*
X168543750Y-66137500D01*
G75*
G02*
X168325000Y-65918750I0J218750D01*
G01*
X168325000Y-65481250D01*
G75*
G02*
X168543750Y-65262500I218750J0D01*
G01*
X169056250Y-65262500D01*
G75*
G02*
X169275000Y-65481250I0J-218750D01*
G01*
X169275000Y-65918750D01*
G75*
G02*
X169056250Y-66137500I-218750J0D01*
G01*
G37*
G36*
G01*
X191616250Y-75480000D02*
X191103750Y-75480000D01*
G75*
G02*
X190885000Y-75261250I0J218750D01*
G01*
X190885000Y-74823750D01*
G75*
G02*
X191103750Y-74605000I218750J0D01*
G01*
X191616250Y-74605000D01*
G75*
G02*
X191835000Y-74823750I0J-218750D01*
G01*
X191835000Y-75261250D01*
G75*
G02*
X191616250Y-75480000I-218750J0D01*
G01*
G37*
G36*
G01*
X191616250Y-77055000D02*
X191103750Y-77055000D01*
G75*
G02*
X190885000Y-76836250I0J218750D01*
G01*
X190885000Y-76398750D01*
G75*
G02*
X191103750Y-76180000I218750J0D01*
G01*
X191616250Y-76180000D01*
G75*
G02*
X191835000Y-76398750I0J-218750D01*
G01*
X191835000Y-76836250D01*
G75*
G02*
X191616250Y-77055000I-218750J0D01*
G01*
G37*
G36*
G01*
X237150000Y-98881250D02*
X237150000Y-97968750D01*
G75*
G02*
X237393750Y-97725000I243750J0D01*
G01*
X237881250Y-97725000D01*
G75*
G02*
X238125000Y-97968750I0J-243750D01*
G01*
X238125000Y-98881250D01*
G75*
G02*
X237881250Y-99125000I-243750J0D01*
G01*
X237393750Y-99125000D01*
G75*
G02*
X237150000Y-98881250I0J243750D01*
G01*
G37*
G36*
G01*
X239025000Y-98881250D02*
X239025000Y-97968750D01*
G75*
G02*
X239268750Y-97725000I243750J0D01*
G01*
X239756250Y-97725000D01*
G75*
G02*
X240000000Y-97968750I0J-243750D01*
G01*
X240000000Y-98881250D01*
G75*
G02*
X239756250Y-99125000I-243750J0D01*
G01*
X239268750Y-99125000D01*
G75*
G02*
X239025000Y-98881250I0J243750D01*
G01*
G37*
G36*
G01*
X144023920Y-128161430D02*
X144023920Y-127648930D01*
G75*
G02*
X144242670Y-127430180I218750J0D01*
G01*
X144680170Y-127430180D01*
G75*
G02*
X144898920Y-127648930I0J-218750D01*
G01*
X144898920Y-128161430D01*
G75*
G02*
X144680170Y-128380180I-218750J0D01*
G01*
X144242670Y-128380180D01*
G75*
G02*
X144023920Y-128161430I0J218750D01*
G01*
G37*
G36*
G01*
X142448920Y-128161430D02*
X142448920Y-127648930D01*
G75*
G02*
X142667670Y-127430180I218750J0D01*
G01*
X143105170Y-127430180D01*
G75*
G02*
X143323920Y-127648930I0J-218750D01*
G01*
X143323920Y-128161430D01*
G75*
G02*
X143105170Y-128380180I-218750J0D01*
G01*
X142667670Y-128380180D01*
G75*
G02*
X142448920Y-128161430I0J218750D01*
G01*
G37*
G36*
G01*
X131991250Y-58562500D02*
X131478750Y-58562500D01*
G75*
G02*
X131260000Y-58343750I0J218750D01*
G01*
X131260000Y-57906250D01*
G75*
G02*
X131478750Y-57687500I218750J0D01*
G01*
X131991250Y-57687500D01*
G75*
G02*
X132210000Y-57906250I0J-218750D01*
G01*
X132210000Y-58343750D01*
G75*
G02*
X131991250Y-58562500I-218750J0D01*
G01*
G37*
G36*
G01*
X131991250Y-56987500D02*
X131478750Y-56987500D01*
G75*
G02*
X131260000Y-56768750I0J218750D01*
G01*
X131260000Y-56331250D01*
G75*
G02*
X131478750Y-56112500I218750J0D01*
G01*
X131991250Y-56112500D01*
G75*
G02*
X132210000Y-56331250I0J-218750D01*
G01*
X132210000Y-56768750D01*
G75*
G02*
X131991250Y-56987500I-218750J0D01*
G01*
G37*
G36*
G01*
X136050000Y-60781250D02*
X136050000Y-59868750D01*
G75*
G02*
X136293750Y-59625000I243750J0D01*
G01*
X136781250Y-59625000D01*
G75*
G02*
X137025000Y-59868750I0J-243750D01*
G01*
X137025000Y-60781250D01*
G75*
G02*
X136781250Y-61025000I-243750J0D01*
G01*
X136293750Y-61025000D01*
G75*
G02*
X136050000Y-60781250I0J243750D01*
G01*
G37*
G36*
G01*
X137925000Y-60781250D02*
X137925000Y-59868750D01*
G75*
G02*
X138168750Y-59625000I243750J0D01*
G01*
X138656250Y-59625000D01*
G75*
G02*
X138900000Y-59868750I0J-243750D01*
G01*
X138900000Y-60781250D01*
G75*
G02*
X138656250Y-61025000I-243750J0D01*
G01*
X138168750Y-61025000D01*
G75*
G02*
X137925000Y-60781250I0J243750D01*
G01*
G37*
G36*
G01*
X138862500Y-61918750D02*
X138862500Y-62431250D01*
G75*
G02*
X138643750Y-62650000I-218750J0D01*
G01*
X138206250Y-62650000D01*
G75*
G02*
X137987500Y-62431250I0J218750D01*
G01*
X137987500Y-61918750D01*
G75*
G02*
X138206250Y-61700000I218750J0D01*
G01*
X138643750Y-61700000D01*
G75*
G02*
X138862500Y-61918750I0J-218750D01*
G01*
G37*
G36*
G01*
X137287500Y-61918750D02*
X137287500Y-62431250D01*
G75*
G02*
X137068750Y-62650000I-218750J0D01*
G01*
X136631250Y-62650000D01*
G75*
G02*
X136412500Y-62431250I0J218750D01*
G01*
X136412500Y-61918750D01*
G75*
G02*
X136631250Y-61700000I218750J0D01*
G01*
X137068750Y-61700000D01*
G75*
G02*
X137287500Y-61918750I0J-218750D01*
G01*
G37*
G36*
G01*
X124212500Y-64106250D02*
X124212500Y-63593750D01*
G75*
G02*
X124431250Y-63375000I218750J0D01*
G01*
X124868750Y-63375000D01*
G75*
G02*
X125087500Y-63593750I0J-218750D01*
G01*
X125087500Y-64106250D01*
G75*
G02*
X124868750Y-64325000I-218750J0D01*
G01*
X124431250Y-64325000D01*
G75*
G02*
X124212500Y-64106250I0J218750D01*
G01*
G37*
G36*
G01*
X122637500Y-64106250D02*
X122637500Y-63593750D01*
G75*
G02*
X122856250Y-63375000I218750J0D01*
G01*
X123293750Y-63375000D01*
G75*
G02*
X123512500Y-63593750I0J-218750D01*
G01*
X123512500Y-64106250D01*
G75*
G02*
X123293750Y-64325000I-218750J0D01*
G01*
X122856250Y-64325000D01*
G75*
G02*
X122637500Y-64106250I0J218750D01*
G01*
G37*
G36*
G01*
X168256250Y-61437500D02*
X167743750Y-61437500D01*
G75*
G02*
X167525000Y-61218750I0J218750D01*
G01*
X167525000Y-60781250D01*
G75*
G02*
X167743750Y-60562500I218750J0D01*
G01*
X168256250Y-60562500D01*
G75*
G02*
X168475000Y-60781250I0J-218750D01*
G01*
X168475000Y-61218750D01*
G75*
G02*
X168256250Y-61437500I-218750J0D01*
G01*
G37*
G36*
G01*
X168256250Y-59862500D02*
X167743750Y-59862500D01*
G75*
G02*
X167525000Y-59643750I0J218750D01*
G01*
X167525000Y-59206250D01*
G75*
G02*
X167743750Y-58987500I218750J0D01*
G01*
X168256250Y-58987500D01*
G75*
G02*
X168475000Y-59206250I0J-218750D01*
G01*
X168475000Y-59643750D01*
G75*
G02*
X168256250Y-59862500I-218750J0D01*
G01*
G37*
G36*
G01*
X145486250Y-122480000D02*
X144573750Y-122480000D01*
G75*
G02*
X144330000Y-122236250I0J243750D01*
G01*
X144330000Y-121748750D01*
G75*
G02*
X144573750Y-121505000I243750J0D01*
G01*
X145486250Y-121505000D01*
G75*
G02*
X145730000Y-121748750I0J-243750D01*
G01*
X145730000Y-122236250D01*
G75*
G02*
X145486250Y-122480000I-243750J0D01*
G01*
G37*
G36*
G01*
X145486250Y-124355000D02*
X144573750Y-124355000D01*
G75*
G02*
X144330000Y-124111250I0J243750D01*
G01*
X144330000Y-123623750D01*
G75*
G02*
X144573750Y-123380000I243750J0D01*
G01*
X145486250Y-123380000D01*
G75*
G02*
X145730000Y-123623750I0J-243750D01*
G01*
X145730000Y-124111250D01*
G75*
G02*
X145486250Y-124355000I-243750J0D01*
G01*
G37*
G36*
G01*
X143296250Y-124095000D02*
X142783750Y-124095000D01*
G75*
G02*
X142565000Y-123876250I0J218750D01*
G01*
X142565000Y-123438750D01*
G75*
G02*
X142783750Y-123220000I218750J0D01*
G01*
X143296250Y-123220000D01*
G75*
G02*
X143515000Y-123438750I0J-218750D01*
G01*
X143515000Y-123876250D01*
G75*
G02*
X143296250Y-124095000I-218750J0D01*
G01*
G37*
G36*
G01*
X143296250Y-122520000D02*
X142783750Y-122520000D01*
G75*
G02*
X142565000Y-122301250I0J218750D01*
G01*
X142565000Y-121863750D01*
G75*
G02*
X142783750Y-121645000I218750J0D01*
G01*
X143296250Y-121645000D01*
G75*
G02*
X143515000Y-121863750I0J-218750D01*
G01*
X143515000Y-122301250D01*
G75*
G02*
X143296250Y-122520000I-218750J0D01*
G01*
G37*
G36*
G01*
X85650000Y-117626250D02*
X85650000Y-117113750D01*
G75*
G02*
X85868750Y-116895000I218750J0D01*
G01*
X86306250Y-116895000D01*
G75*
G02*
X86525000Y-117113750I0J-218750D01*
G01*
X86525000Y-117626250D01*
G75*
G02*
X86306250Y-117845000I-218750J0D01*
G01*
X85868750Y-117845000D01*
G75*
G02*
X85650000Y-117626250I0J218750D01*
G01*
G37*
G36*
G01*
X84075000Y-117626250D02*
X84075000Y-117113750D01*
G75*
G02*
X84293750Y-116895000I218750J0D01*
G01*
X84731250Y-116895000D01*
G75*
G02*
X84950000Y-117113750I0J-218750D01*
G01*
X84950000Y-117626250D01*
G75*
G02*
X84731250Y-117845000I-218750J0D01*
G01*
X84293750Y-117845000D01*
G75*
G02*
X84075000Y-117626250I0J218750D01*
G01*
G37*
D14*
X138950000Y-58295000D03*
D15*
X138950000Y-56575000D03*
X136750000Y-56575000D03*
X136750000Y-58475000D03*
D16*
X130175000Y-61330000D03*
X132075000Y-61330000D03*
X132075000Y-63530000D03*
D17*
X130355000Y-63530000D03*
D18*
X202810000Y-44930000D03*
X195410000Y-42930000D03*
D19*
X195410000Y-52330000D03*
X183910000Y-52330000D03*
D18*
X183910000Y-42930000D03*
X191310000Y-44930000D03*
G36*
G01*
X134616030Y-57677540D02*
X135128530Y-57677540D01*
G75*
G02*
X135347280Y-57896290I0J-218750D01*
G01*
X135347280Y-58333790D01*
G75*
G02*
X135128530Y-58552540I-218750J0D01*
G01*
X134616030Y-58552540D01*
G75*
G02*
X134397280Y-58333790I0J218750D01*
G01*
X134397280Y-57896290D01*
G75*
G02*
X134616030Y-57677540I218750J0D01*
G01*
G37*
G36*
G01*
X134616030Y-56102540D02*
X135128530Y-56102540D01*
G75*
G02*
X135347280Y-56321290I0J-218750D01*
G01*
X135347280Y-56758790D01*
G75*
G02*
X135128530Y-56977540I-218750J0D01*
G01*
X134616030Y-56977540D01*
G75*
G02*
X134397280Y-56758790I0J218750D01*
G01*
X134397280Y-56321290D01*
G75*
G02*
X134616030Y-56102540I218750J0D01*
G01*
G37*
G36*
G01*
X133541250Y-58550000D02*
X133028750Y-58550000D01*
G75*
G02*
X132810000Y-58331250I0J218750D01*
G01*
X132810000Y-57893750D01*
G75*
G02*
X133028750Y-57675000I218750J0D01*
G01*
X133541250Y-57675000D01*
G75*
G02*
X133760000Y-57893750I0J-218750D01*
G01*
X133760000Y-58331250D01*
G75*
G02*
X133541250Y-58550000I-218750J0D01*
G01*
G37*
G36*
G01*
X133541250Y-56975000D02*
X133028750Y-56975000D01*
G75*
G02*
X132810000Y-56756250I0J218750D01*
G01*
X132810000Y-56318750D01*
G75*
G02*
X133028750Y-56100000I218750J0D01*
G01*
X133541250Y-56100000D01*
G75*
G02*
X133760000Y-56318750I0J-218750D01*
G01*
X133760000Y-56756250D01*
G75*
G02*
X133541250Y-56975000I-218750J0D01*
G01*
G37*
G36*
G01*
X123525000Y-61968750D02*
X123525000Y-62481250D01*
G75*
G02*
X123306250Y-62700000I-218750J0D01*
G01*
X122868750Y-62700000D01*
G75*
G02*
X122650000Y-62481250I0J218750D01*
G01*
X122650000Y-61968750D01*
G75*
G02*
X122868750Y-61750000I218750J0D01*
G01*
X123306250Y-61750000D01*
G75*
G02*
X123525000Y-61968750I0J-218750D01*
G01*
G37*
G36*
G01*
X125100000Y-61968750D02*
X125100000Y-62481250D01*
G75*
G02*
X124881250Y-62700000I-218750J0D01*
G01*
X124443750Y-62700000D01*
G75*
G02*
X124225000Y-62481250I0J218750D01*
G01*
X124225000Y-61968750D01*
G75*
G02*
X124443750Y-61750000I218750J0D01*
G01*
X124881250Y-61750000D01*
G75*
G02*
X125100000Y-61968750I0J-218750D01*
G01*
G37*
G36*
G01*
X192025000Y-62143750D02*
X192025000Y-62656250D01*
G75*
G02*
X191806250Y-62875000I-218750J0D01*
G01*
X191368750Y-62875000D01*
G75*
G02*
X191150000Y-62656250I0J218750D01*
G01*
X191150000Y-62143750D01*
G75*
G02*
X191368750Y-61925000I218750J0D01*
G01*
X191806250Y-61925000D01*
G75*
G02*
X192025000Y-62143750I0J-218750D01*
G01*
G37*
G36*
G01*
X190450000Y-62143750D02*
X190450000Y-62656250D01*
G75*
G02*
X190231250Y-62875000I-218750J0D01*
G01*
X189793750Y-62875000D01*
G75*
G02*
X189575000Y-62656250I0J218750D01*
G01*
X189575000Y-62143750D01*
G75*
G02*
X189793750Y-61925000I218750J0D01*
G01*
X190231250Y-61925000D01*
G75*
G02*
X190450000Y-62143750I0J-218750D01*
G01*
G37*
G36*
G01*
X184137500Y-58656250D02*
X184137500Y-58143750D01*
G75*
G02*
X184356250Y-57925000I218750J0D01*
G01*
X184793750Y-57925000D01*
G75*
G02*
X185012500Y-58143750I0J-218750D01*
G01*
X185012500Y-58656250D01*
G75*
G02*
X184793750Y-58875000I-218750J0D01*
G01*
X184356250Y-58875000D01*
G75*
G02*
X184137500Y-58656250I0J218750D01*
G01*
G37*
G36*
G01*
X182562500Y-58656250D02*
X182562500Y-58143750D01*
G75*
G02*
X182781250Y-57925000I218750J0D01*
G01*
X183218750Y-57925000D01*
G75*
G02*
X183437500Y-58143750I0J-218750D01*
G01*
X183437500Y-58656250D01*
G75*
G02*
X183218750Y-58875000I-218750J0D01*
G01*
X182781250Y-58875000D01*
G75*
G02*
X182562500Y-58656250I0J218750D01*
G01*
G37*
G36*
G01*
X175287500Y-70056250D02*
X175287500Y-69543750D01*
G75*
G02*
X175506250Y-69325000I218750J0D01*
G01*
X175943750Y-69325000D01*
G75*
G02*
X176162500Y-69543750I0J-218750D01*
G01*
X176162500Y-70056250D01*
G75*
G02*
X175943750Y-70275000I-218750J0D01*
G01*
X175506250Y-70275000D01*
G75*
G02*
X175287500Y-70056250I0J218750D01*
G01*
G37*
G36*
G01*
X176862500Y-70056250D02*
X176862500Y-69543750D01*
G75*
G02*
X177081250Y-69325000I218750J0D01*
G01*
X177518750Y-69325000D01*
G75*
G02*
X177737500Y-69543750I0J-218750D01*
G01*
X177737500Y-70056250D01*
G75*
G02*
X177518750Y-70275000I-218750J0D01*
G01*
X177081250Y-70275000D01*
G75*
G02*
X176862500Y-70056250I0J218750D01*
G01*
G37*
G36*
G01*
X171613750Y-70892500D02*
X172126250Y-70892500D01*
G75*
G02*
X172345000Y-71111250I0J-218750D01*
G01*
X172345000Y-71548750D01*
G75*
G02*
X172126250Y-71767500I-218750J0D01*
G01*
X171613750Y-71767500D01*
G75*
G02*
X171395000Y-71548750I0J218750D01*
G01*
X171395000Y-71111250D01*
G75*
G02*
X171613750Y-70892500I218750J0D01*
G01*
G37*
G36*
G01*
X171613750Y-69317500D02*
X172126250Y-69317500D01*
G75*
G02*
X172345000Y-69536250I0J-218750D01*
G01*
X172345000Y-69973750D01*
G75*
G02*
X172126250Y-70192500I-218750J0D01*
G01*
X171613750Y-70192500D01*
G75*
G02*
X171395000Y-69973750I0J218750D01*
G01*
X171395000Y-69536250D01*
G75*
G02*
X171613750Y-69317500I218750J0D01*
G01*
G37*
G36*
G01*
X168543750Y-63737500D02*
X169056250Y-63737500D01*
G75*
G02*
X169275000Y-63956250I0J-218750D01*
G01*
X169275000Y-64393750D01*
G75*
G02*
X169056250Y-64612500I-218750J0D01*
G01*
X168543750Y-64612500D01*
G75*
G02*
X168325000Y-64393750I0J218750D01*
G01*
X168325000Y-63956250D01*
G75*
G02*
X168543750Y-63737500I218750J0D01*
G01*
G37*
G36*
G01*
X168543750Y-62162500D02*
X169056250Y-62162500D01*
G75*
G02*
X169275000Y-62381250I0J-218750D01*
G01*
X169275000Y-62818750D01*
G75*
G02*
X169056250Y-63037500I-218750J0D01*
G01*
X168543750Y-63037500D01*
G75*
G02*
X168325000Y-62818750I0J218750D01*
G01*
X168325000Y-62381250D01*
G75*
G02*
X168543750Y-62162500I218750J0D01*
G01*
G37*
G36*
G01*
X179743750Y-67250000D02*
X180256250Y-67250000D01*
G75*
G02*
X180475000Y-67468750I0J-218750D01*
G01*
X180475000Y-67906250D01*
G75*
G02*
X180256250Y-68125000I-218750J0D01*
G01*
X179743750Y-68125000D01*
G75*
G02*
X179525000Y-67906250I0J218750D01*
G01*
X179525000Y-67468750D01*
G75*
G02*
X179743750Y-67250000I218750J0D01*
G01*
G37*
G36*
G01*
X179743750Y-65675000D02*
X180256250Y-65675000D01*
G75*
G02*
X180475000Y-65893750I0J-218750D01*
G01*
X180475000Y-66331250D01*
G75*
G02*
X180256250Y-66550000I-218750J0D01*
G01*
X179743750Y-66550000D01*
G75*
G02*
X179525000Y-66331250I0J218750D01*
G01*
X179525000Y-65893750D01*
G75*
G02*
X179743750Y-65675000I218750J0D01*
G01*
G37*
G36*
G01*
X102947500Y-100973750D02*
X102947500Y-101486250D01*
G75*
G02*
X102728750Y-101705000I-218750J0D01*
G01*
X102291250Y-101705000D01*
G75*
G02*
X102072500Y-101486250I0J218750D01*
G01*
X102072500Y-100973750D01*
G75*
G02*
X102291250Y-100755000I218750J0D01*
G01*
X102728750Y-100755000D01*
G75*
G02*
X102947500Y-100973750I0J-218750D01*
G01*
G37*
G36*
G01*
X101372500Y-100973750D02*
X101372500Y-101486250D01*
G75*
G02*
X101153750Y-101705000I-218750J0D01*
G01*
X100716250Y-101705000D01*
G75*
G02*
X100497500Y-101486250I0J218750D01*
G01*
X100497500Y-100973750D01*
G75*
G02*
X100716250Y-100755000I218750J0D01*
G01*
X101153750Y-100755000D01*
G75*
G02*
X101372500Y-100973750I0J-218750D01*
G01*
G37*
D20*
X138235000Y-74380000D03*
X138235000Y-72680000D03*
X138235000Y-70980000D03*
X138235000Y-69280000D03*
X138235000Y-67580000D03*
D21*
X126660000Y-68205000D03*
X131510000Y-73755000D03*
X126660000Y-73755000D03*
X131510000Y-68205000D03*
D22*
X84090000Y-119290000D03*
X85990000Y-119290000D03*
X85990000Y-121490000D03*
X85040000Y-121490000D03*
X84090000Y-121490000D03*
G36*
G01*
X170740000Y-68650000D02*
X170440000Y-68650000D01*
G75*
G02*
X170290000Y-68500000I0J150000D01*
G01*
X170290000Y-66850000D01*
G75*
G02*
X170440000Y-66700000I150000J0D01*
G01*
X170740000Y-66700000D01*
G75*
G02*
X170890000Y-66850000I0J-150000D01*
G01*
X170890000Y-68500000D01*
G75*
G02*
X170740000Y-68650000I-150000J0D01*
G01*
G37*
G36*
G01*
X172010000Y-68650000D02*
X171710000Y-68650000D01*
G75*
G02*
X171560000Y-68500000I0J150000D01*
G01*
X171560000Y-66850000D01*
G75*
G02*
X171710000Y-66700000I150000J0D01*
G01*
X172010000Y-66700000D01*
G75*
G02*
X172160000Y-66850000I0J-150000D01*
G01*
X172160000Y-68500000D01*
G75*
G02*
X172010000Y-68650000I-150000J0D01*
G01*
G37*
G36*
G01*
X173280000Y-68650000D02*
X172980000Y-68650000D01*
G75*
G02*
X172830000Y-68500000I0J150000D01*
G01*
X172830000Y-66850000D01*
G75*
G02*
X172980000Y-66700000I150000J0D01*
G01*
X173280000Y-66700000D01*
G75*
G02*
X173430000Y-66850000I0J-150000D01*
G01*
X173430000Y-68500000D01*
G75*
G02*
X173280000Y-68650000I-150000J0D01*
G01*
G37*
G36*
G01*
X174550000Y-68650000D02*
X174250000Y-68650000D01*
G75*
G02*
X174100000Y-68500000I0J150000D01*
G01*
X174100000Y-66850000D01*
G75*
G02*
X174250000Y-66700000I150000J0D01*
G01*
X174550000Y-66700000D01*
G75*
G02*
X174700000Y-66850000I0J-150000D01*
G01*
X174700000Y-68500000D01*
G75*
G02*
X174550000Y-68650000I-150000J0D01*
G01*
G37*
G36*
G01*
X175820000Y-68650000D02*
X175520000Y-68650000D01*
G75*
G02*
X175370000Y-68500000I0J150000D01*
G01*
X175370000Y-66850000D01*
G75*
G02*
X175520000Y-66700000I150000J0D01*
G01*
X175820000Y-66700000D01*
G75*
G02*
X175970000Y-66850000I0J-150000D01*
G01*
X175970000Y-68500000D01*
G75*
G02*
X175820000Y-68650000I-150000J0D01*
G01*
G37*
G36*
G01*
X177090000Y-68650000D02*
X176790000Y-68650000D01*
G75*
G02*
X176640000Y-68500000I0J150000D01*
G01*
X176640000Y-66850000D01*
G75*
G02*
X176790000Y-66700000I150000J0D01*
G01*
X177090000Y-66700000D01*
G75*
G02*
X177240000Y-66850000I0J-150000D01*
G01*
X177240000Y-68500000D01*
G75*
G02*
X177090000Y-68650000I-150000J0D01*
G01*
G37*
G36*
G01*
X178360000Y-68650000D02*
X178060000Y-68650000D01*
G75*
G02*
X177910000Y-68500000I0J150000D01*
G01*
X177910000Y-66850000D01*
G75*
G02*
X178060000Y-66700000I150000J0D01*
G01*
X178360000Y-66700000D01*
G75*
G02*
X178510000Y-66850000I0J-150000D01*
G01*
X178510000Y-68500000D01*
G75*
G02*
X178360000Y-68650000I-150000J0D01*
G01*
G37*
G36*
G01*
X178360000Y-63700000D02*
X178060000Y-63700000D01*
G75*
G02*
X177910000Y-63550000I0J150000D01*
G01*
X177910000Y-61900000D01*
G75*
G02*
X178060000Y-61750000I150000J0D01*
G01*
X178360000Y-61750000D01*
G75*
G02*
X178510000Y-61900000I0J-150000D01*
G01*
X178510000Y-63550000D01*
G75*
G02*
X178360000Y-63700000I-150000J0D01*
G01*
G37*
G36*
G01*
X177090000Y-63700000D02*
X176790000Y-63700000D01*
G75*
G02*
X176640000Y-63550000I0J150000D01*
G01*
X176640000Y-61900000D01*
G75*
G02*
X176790000Y-61750000I150000J0D01*
G01*
X177090000Y-61750000D01*
G75*
G02*
X177240000Y-61900000I0J-150000D01*
G01*
X177240000Y-63550000D01*
G75*
G02*
X177090000Y-63700000I-150000J0D01*
G01*
G37*
G36*
G01*
X175820000Y-63700000D02*
X175520000Y-63700000D01*
G75*
G02*
X175370000Y-63550000I0J150000D01*
G01*
X175370000Y-61900000D01*
G75*
G02*
X175520000Y-61750000I150000J0D01*
G01*
X175820000Y-61750000D01*
G75*
G02*
X175970000Y-61900000I0J-150000D01*
G01*
X175970000Y-63550000D01*
G75*
G02*
X175820000Y-63700000I-150000J0D01*
G01*
G37*
G36*
G01*
X174550000Y-63700000D02*
X174250000Y-63700000D01*
G75*
G02*
X174100000Y-63550000I0J150000D01*
G01*
X174100000Y-61900000D01*
G75*
G02*
X174250000Y-61750000I150000J0D01*
G01*
X174550000Y-61750000D01*
G75*
G02*
X174700000Y-61900000I0J-150000D01*
G01*
X174700000Y-63550000D01*
G75*
G02*
X174550000Y-63700000I-150000J0D01*
G01*
G37*
G36*
G01*
X173280000Y-63700000D02*
X172980000Y-63700000D01*
G75*
G02*
X172830000Y-63550000I0J150000D01*
G01*
X172830000Y-61900000D01*
G75*
G02*
X172980000Y-61750000I150000J0D01*
G01*
X173280000Y-61750000D01*
G75*
G02*
X173430000Y-61900000I0J-150000D01*
G01*
X173430000Y-63550000D01*
G75*
G02*
X173280000Y-63700000I-150000J0D01*
G01*
G37*
G36*
G01*
X172010000Y-63700000D02*
X171710000Y-63700000D01*
G75*
G02*
X171560000Y-63550000I0J150000D01*
G01*
X171560000Y-61900000D01*
G75*
G02*
X171710000Y-61750000I150000J0D01*
G01*
X172010000Y-61750000D01*
G75*
G02*
X172160000Y-61900000I0J-150000D01*
G01*
X172160000Y-63550000D01*
G75*
G02*
X172010000Y-63700000I-150000J0D01*
G01*
G37*
G36*
G01*
X170740000Y-63700000D02*
X170440000Y-63700000D01*
G75*
G02*
X170290000Y-63550000I0J150000D01*
G01*
X170290000Y-61900000D01*
G75*
G02*
X170440000Y-61750000I150000J0D01*
G01*
X170740000Y-61750000D01*
G75*
G02*
X170890000Y-61900000I0J-150000D01*
G01*
X170890000Y-63550000D01*
G75*
G02*
X170740000Y-63700000I-150000J0D01*
G01*
G37*
D23*
X237650000Y-104050000D03*
X239550000Y-104050000D03*
X238600000Y-102050000D03*
D24*
X64280000Y-78300000D03*
X249650000Y-59750000D03*
X242900000Y-131600000D03*
G36*
G01*
X163325000Y-54949999D02*
X163325000Y-59900001D01*
G75*
G02*
X163075001Y-60150000I-249999J0D01*
G01*
X161649999Y-60150000D01*
G75*
G02*
X161400000Y-59900001I0J249999D01*
G01*
X161400000Y-54949999D01*
G75*
G02*
X161649999Y-54700000I249999J0D01*
G01*
X163075001Y-54700000D01*
G75*
G02*
X163325000Y-54949999I0J-249999D01*
G01*
G37*
G36*
G01*
X156550000Y-54949999D02*
X156550000Y-59900001D01*
G75*
G02*
X156300001Y-60150000I-249999J0D01*
G01*
X154874999Y-60150000D01*
G75*
G02*
X154625000Y-59900001I0J249999D01*
G01*
X154625000Y-54949999D01*
G75*
G02*
X154874999Y-54700000I249999J0D01*
G01*
X156300001Y-54700000D01*
G75*
G02*
X156550000Y-54949999I0J-249999D01*
G01*
G37*
D23*
X187400000Y-56770000D03*
X188350000Y-58770000D03*
X186450000Y-58770000D03*
X182850000Y-62000000D03*
X184750000Y-62000000D03*
X183800000Y-60000000D03*
D25*
X129460000Y-78670000D03*
X124660000Y-78670000D03*
G36*
G01*
X172543750Y-58587500D02*
X173056250Y-58587500D01*
G75*
G02*
X173275000Y-58806250I0J-218750D01*
G01*
X173275000Y-59243750D01*
G75*
G02*
X173056250Y-59462500I-218750J0D01*
G01*
X172543750Y-59462500D01*
G75*
G02*
X172325000Y-59243750I0J218750D01*
G01*
X172325000Y-58806250D01*
G75*
G02*
X172543750Y-58587500I218750J0D01*
G01*
G37*
G36*
G01*
X172543750Y-60162500D02*
X173056250Y-60162500D01*
G75*
G02*
X173275000Y-60381250I0J-218750D01*
G01*
X173275000Y-60818750D01*
G75*
G02*
X173056250Y-61037500I-218750J0D01*
G01*
X172543750Y-61037500D01*
G75*
G02*
X172325000Y-60818750I0J218750D01*
G01*
X172325000Y-60381250D01*
G75*
G02*
X172543750Y-60162500I218750J0D01*
G01*
G37*
G36*
G01*
X170743750Y-58587500D02*
X171256250Y-58587500D01*
G75*
G02*
X171475000Y-58806250I0J-218750D01*
G01*
X171475000Y-59243750D01*
G75*
G02*
X171256250Y-59462500I-218750J0D01*
G01*
X170743750Y-59462500D01*
G75*
G02*
X170525000Y-59243750I0J218750D01*
G01*
X170525000Y-58806250D01*
G75*
G02*
X170743750Y-58587500I218750J0D01*
G01*
G37*
G36*
G01*
X170743750Y-60162500D02*
X171256250Y-60162500D01*
G75*
G02*
X171475000Y-60381250I0J-218750D01*
G01*
X171475000Y-60818750D01*
G75*
G02*
X171256250Y-61037500I-218750J0D01*
G01*
X170743750Y-61037500D01*
G75*
G02*
X170525000Y-60818750I0J218750D01*
G01*
X170525000Y-60381250D01*
G75*
G02*
X170743750Y-60162500I218750J0D01*
G01*
G37*
G36*
G01*
X176673750Y-56915000D02*
X177186250Y-56915000D01*
G75*
G02*
X177405000Y-57133750I0J-218750D01*
G01*
X177405000Y-57571250D01*
G75*
G02*
X177186250Y-57790000I-218750J0D01*
G01*
X176673750Y-57790000D01*
G75*
G02*
X176455000Y-57571250I0J218750D01*
G01*
X176455000Y-57133750D01*
G75*
G02*
X176673750Y-56915000I218750J0D01*
G01*
G37*
G36*
G01*
X176673750Y-58490000D02*
X177186250Y-58490000D01*
G75*
G02*
X177405000Y-58708750I0J-218750D01*
G01*
X177405000Y-59146250D01*
G75*
G02*
X177186250Y-59365000I-218750J0D01*
G01*
X176673750Y-59365000D01*
G75*
G02*
X176455000Y-59146250I0J218750D01*
G01*
X176455000Y-58708750D01*
G75*
G02*
X176673750Y-58490000I218750J0D01*
G01*
G37*
G36*
G01*
X174543750Y-58500000D02*
X175056250Y-58500000D01*
G75*
G02*
X175275000Y-58718750I0J-218750D01*
G01*
X175275000Y-59156250D01*
G75*
G02*
X175056250Y-59375000I-218750J0D01*
G01*
X174543750Y-59375000D01*
G75*
G02*
X174325000Y-59156250I0J218750D01*
G01*
X174325000Y-58718750D01*
G75*
G02*
X174543750Y-58500000I218750J0D01*
G01*
G37*
G36*
G01*
X174543750Y-56925000D02*
X175056250Y-56925000D01*
G75*
G02*
X175275000Y-57143750I0J-218750D01*
G01*
X175275000Y-57581250D01*
G75*
G02*
X175056250Y-57800000I-218750J0D01*
G01*
X174543750Y-57800000D01*
G75*
G02*
X174325000Y-57581250I0J218750D01*
G01*
X174325000Y-57143750D01*
G75*
G02*
X174543750Y-56925000I218750J0D01*
G01*
G37*
G36*
G01*
X171637500Y-57143750D02*
X171637500Y-57656250D01*
G75*
G02*
X171418750Y-57875000I-218750J0D01*
G01*
X170981250Y-57875000D01*
G75*
G02*
X170762500Y-57656250I0J218750D01*
G01*
X170762500Y-57143750D01*
G75*
G02*
X170981250Y-56925000I218750J0D01*
G01*
X171418750Y-56925000D01*
G75*
G02*
X171637500Y-57143750I0J-218750D01*
G01*
G37*
G36*
G01*
X173212500Y-57143750D02*
X173212500Y-57656250D01*
G75*
G02*
X172993750Y-57875000I-218750J0D01*
G01*
X172556250Y-57875000D01*
G75*
G02*
X172337500Y-57656250I0J218750D01*
G01*
X172337500Y-57143750D01*
G75*
G02*
X172556250Y-56925000I218750J0D01*
G01*
X172993750Y-56925000D01*
G75*
G02*
X173212500Y-57143750I0J-218750D01*
G01*
G37*
G36*
G01*
X181143750Y-56362500D02*
X181656250Y-56362500D01*
G75*
G02*
X181875000Y-56581250I0J-218750D01*
G01*
X181875000Y-57018750D01*
G75*
G02*
X181656250Y-57237500I-218750J0D01*
G01*
X181143750Y-57237500D01*
G75*
G02*
X180925000Y-57018750I0J218750D01*
G01*
X180925000Y-56581250D01*
G75*
G02*
X181143750Y-56362500I218750J0D01*
G01*
G37*
G36*
G01*
X181143750Y-57937500D02*
X181656250Y-57937500D01*
G75*
G02*
X181875000Y-58156250I0J-218750D01*
G01*
X181875000Y-58593750D01*
G75*
G02*
X181656250Y-58812500I-218750J0D01*
G01*
X181143750Y-58812500D01*
G75*
G02*
X180925000Y-58593750I0J218750D01*
G01*
X180925000Y-58156250D01*
G75*
G02*
X181143750Y-57937500I218750J0D01*
G01*
G37*
G36*
G01*
X190450000Y-60543750D02*
X190450000Y-61056250D01*
G75*
G02*
X190231250Y-61275000I-218750J0D01*
G01*
X189793750Y-61275000D01*
G75*
G02*
X189575000Y-61056250I0J218750D01*
G01*
X189575000Y-60543750D01*
G75*
G02*
X189793750Y-60325000I218750J0D01*
G01*
X190231250Y-60325000D01*
G75*
G02*
X190450000Y-60543750I0J-218750D01*
G01*
G37*
G36*
G01*
X192025000Y-60543750D02*
X192025000Y-61056250D01*
G75*
G02*
X191806250Y-61275000I-218750J0D01*
G01*
X191368750Y-61275000D01*
G75*
G02*
X191150000Y-61056250I0J218750D01*
G01*
X191150000Y-60543750D01*
G75*
G02*
X191368750Y-60325000I218750J0D01*
G01*
X191806250Y-60325000D01*
G75*
G02*
X192025000Y-60543750I0J-218750D01*
G01*
G37*
G36*
G01*
X201825000Y-56543750D02*
X201825000Y-57056250D01*
G75*
G02*
X201606250Y-57275000I-218750J0D01*
G01*
X201168750Y-57275000D01*
G75*
G02*
X200950000Y-57056250I0J218750D01*
G01*
X200950000Y-56543750D01*
G75*
G02*
X201168750Y-56325000I218750J0D01*
G01*
X201606250Y-56325000D01*
G75*
G02*
X201825000Y-56543750I0J-218750D01*
G01*
G37*
G36*
G01*
X200250000Y-56543750D02*
X200250000Y-57056250D01*
G75*
G02*
X200031250Y-57275000I-218750J0D01*
G01*
X199593750Y-57275000D01*
G75*
G02*
X199375000Y-57056250I0J218750D01*
G01*
X199375000Y-56543750D01*
G75*
G02*
X199593750Y-56325000I218750J0D01*
G01*
X200031250Y-56325000D01*
G75*
G02*
X200250000Y-56543750I0J-218750D01*
G01*
G37*
G36*
G01*
X143660000Y-95130000D02*
X143660000Y-97130000D01*
G75*
G02*
X143410000Y-97380000I-250000J0D01*
G01*
X139510000Y-97380000D01*
G75*
G02*
X139260000Y-97130000I0J250000D01*
G01*
X139260000Y-95130000D01*
G75*
G02*
X139510000Y-94880000I250000J0D01*
G01*
X143410000Y-94880000D01*
G75*
G02*
X143660000Y-95130000I0J-250000D01*
G01*
G37*
G36*
G01*
X151060000Y-95130000D02*
X151060000Y-97130000D01*
G75*
G02*
X150810000Y-97380000I-250000J0D01*
G01*
X146910000Y-97380000D01*
G75*
G02*
X146660000Y-97130000I0J250000D01*
G01*
X146660000Y-95130000D01*
G75*
G02*
X146910000Y-94880000I250000J0D01*
G01*
X150810000Y-94880000D01*
G75*
G02*
X151060000Y-95130000I0J-250000D01*
G01*
G37*
G36*
G01*
X152500000Y-54193750D02*
X152500000Y-54706250D01*
G75*
G02*
X152281250Y-54925000I-218750J0D01*
G01*
X151843750Y-54925000D01*
G75*
G02*
X151625000Y-54706250I0J218750D01*
G01*
X151625000Y-54193750D01*
G75*
G02*
X151843750Y-53975000I218750J0D01*
G01*
X152281250Y-53975000D01*
G75*
G02*
X152500000Y-54193750I0J-218750D01*
G01*
G37*
G36*
G01*
X150925000Y-54193750D02*
X150925000Y-54706250D01*
G75*
G02*
X150706250Y-54925000I-218750J0D01*
G01*
X150268750Y-54925000D01*
G75*
G02*
X150050000Y-54706250I0J218750D01*
G01*
X150050000Y-54193750D01*
G75*
G02*
X150268750Y-53975000I218750J0D01*
G01*
X150706250Y-53975000D01*
G75*
G02*
X150925000Y-54193750I0J-218750D01*
G01*
G37*
G36*
G01*
X227656250Y-93837500D02*
X227143750Y-93837500D01*
G75*
G02*
X226925000Y-93618750I0J218750D01*
G01*
X226925000Y-93181250D01*
G75*
G02*
X227143750Y-92962500I218750J0D01*
G01*
X227656250Y-92962500D01*
G75*
G02*
X227875000Y-93181250I0J-218750D01*
G01*
X227875000Y-93618750D01*
G75*
G02*
X227656250Y-93837500I-218750J0D01*
G01*
G37*
G36*
G01*
X227656250Y-92262500D02*
X227143750Y-92262500D01*
G75*
G02*
X226925000Y-92043750I0J218750D01*
G01*
X226925000Y-91606250D01*
G75*
G02*
X227143750Y-91387500I218750J0D01*
G01*
X227656250Y-91387500D01*
G75*
G02*
X227875000Y-91606250I0J-218750D01*
G01*
X227875000Y-92043750D01*
G75*
G02*
X227656250Y-92262500I-218750J0D01*
G01*
G37*
G36*
G01*
X229356250Y-93825000D02*
X228843750Y-93825000D01*
G75*
G02*
X228625000Y-93606250I0J218750D01*
G01*
X228625000Y-93168750D01*
G75*
G02*
X228843750Y-92950000I218750J0D01*
G01*
X229356250Y-92950000D01*
G75*
G02*
X229575000Y-93168750I0J-218750D01*
G01*
X229575000Y-93606250D01*
G75*
G02*
X229356250Y-93825000I-218750J0D01*
G01*
G37*
G36*
G01*
X229356250Y-92250000D02*
X228843750Y-92250000D01*
G75*
G02*
X228625000Y-92031250I0J218750D01*
G01*
X228625000Y-91593750D01*
G75*
G02*
X228843750Y-91375000I218750J0D01*
G01*
X229356250Y-91375000D01*
G75*
G02*
X229575000Y-91593750I0J-218750D01*
G01*
X229575000Y-92031250D01*
G75*
G02*
X229356250Y-92250000I-218750J0D01*
G01*
G37*
G36*
G01*
X223107500Y-90183750D02*
X223107500Y-90696250D01*
G75*
G02*
X222888750Y-90915000I-218750J0D01*
G01*
X222451250Y-90915000D01*
G75*
G02*
X222232500Y-90696250I0J218750D01*
G01*
X222232500Y-90183750D01*
G75*
G02*
X222451250Y-89965000I218750J0D01*
G01*
X222888750Y-89965000D01*
G75*
G02*
X223107500Y-90183750I0J-218750D01*
G01*
G37*
G36*
G01*
X224682500Y-90183750D02*
X224682500Y-90696250D01*
G75*
G02*
X224463750Y-90915000I-218750J0D01*
G01*
X224026250Y-90915000D01*
G75*
G02*
X223807500Y-90696250I0J218750D01*
G01*
X223807500Y-90183750D01*
G75*
G02*
X224026250Y-89965000I218750J0D01*
G01*
X224463750Y-89965000D01*
G75*
G02*
X224682500Y-90183750I0J-218750D01*
G01*
G37*
G36*
G01*
X226458000Y-86064000D02*
X226458000Y-87164000D01*
G75*
G02*
X226208000Y-87414000I-250000J0D01*
G01*
X223708000Y-87414000D01*
G75*
G02*
X223458000Y-87164000I0J250000D01*
G01*
X223458000Y-86064000D01*
G75*
G02*
X223708000Y-85814000I250000J0D01*
G01*
X226208000Y-85814000D01*
G75*
G02*
X226458000Y-86064000I0J-250000D01*
G01*
G37*
G36*
G01*
X222058000Y-86064000D02*
X222058000Y-87164000D01*
G75*
G02*
X221808000Y-87414000I-250000J0D01*
G01*
X219308000Y-87414000D01*
G75*
G02*
X219058000Y-87164000I0J250000D01*
G01*
X219058000Y-86064000D01*
G75*
G02*
X219308000Y-85814000I250000J0D01*
G01*
X221808000Y-85814000D01*
G75*
G02*
X222058000Y-86064000I0J-250000D01*
G01*
G37*
G36*
G01*
X226056250Y-93837500D02*
X225543750Y-93837500D01*
G75*
G02*
X225325000Y-93618750I0J218750D01*
G01*
X225325000Y-93181250D01*
G75*
G02*
X225543750Y-92962500I218750J0D01*
G01*
X226056250Y-92962500D01*
G75*
G02*
X226275000Y-93181250I0J-218750D01*
G01*
X226275000Y-93618750D01*
G75*
G02*
X226056250Y-93837500I-218750J0D01*
G01*
G37*
G36*
G01*
X226056250Y-92262500D02*
X225543750Y-92262500D01*
G75*
G02*
X225325000Y-92043750I0J218750D01*
G01*
X225325000Y-91606250D01*
G75*
G02*
X225543750Y-91387500I218750J0D01*
G01*
X226056250Y-91387500D01*
G75*
G02*
X226275000Y-91606250I0J-218750D01*
G01*
X226275000Y-92043750D01*
G75*
G02*
X226056250Y-92262500I-218750J0D01*
G01*
G37*
G36*
G01*
X220332500Y-70146250D02*
X220332500Y-69633750D01*
G75*
G02*
X220551250Y-69415000I218750J0D01*
G01*
X220988750Y-69415000D01*
G75*
G02*
X221207500Y-69633750I0J-218750D01*
G01*
X221207500Y-70146250D01*
G75*
G02*
X220988750Y-70365000I-218750J0D01*
G01*
X220551250Y-70365000D01*
G75*
G02*
X220332500Y-70146250I0J218750D01*
G01*
G37*
G36*
G01*
X221907500Y-70146250D02*
X221907500Y-69633750D01*
G75*
G02*
X222126250Y-69415000I218750J0D01*
G01*
X222563750Y-69415000D01*
G75*
G02*
X222782500Y-69633750I0J-218750D01*
G01*
X222782500Y-70146250D01*
G75*
G02*
X222563750Y-70365000I-218750J0D01*
G01*
X222126250Y-70365000D01*
G75*
G02*
X221907500Y-70146250I0J218750D01*
G01*
G37*
G36*
G01*
X232412500Y-70016250D02*
X232412500Y-69503750D01*
G75*
G02*
X232631250Y-69285000I218750J0D01*
G01*
X233068750Y-69285000D01*
G75*
G02*
X233287500Y-69503750I0J-218750D01*
G01*
X233287500Y-70016250D01*
G75*
G02*
X233068750Y-70235000I-218750J0D01*
G01*
X232631250Y-70235000D01*
G75*
G02*
X232412500Y-70016250I0J218750D01*
G01*
G37*
G36*
G01*
X233987500Y-70016250D02*
X233987500Y-69503750D01*
G75*
G02*
X234206250Y-69285000I218750J0D01*
G01*
X234643750Y-69285000D01*
G75*
G02*
X234862500Y-69503750I0J-218750D01*
G01*
X234862500Y-70016250D01*
G75*
G02*
X234643750Y-70235000I-218750J0D01*
G01*
X234206250Y-70235000D01*
G75*
G02*
X233987500Y-70016250I0J218750D01*
G01*
G37*
G36*
G01*
X217143750Y-77362500D02*
X217656250Y-77362500D01*
G75*
G02*
X217875000Y-77581250I0J-218750D01*
G01*
X217875000Y-78018750D01*
G75*
G02*
X217656250Y-78237500I-218750J0D01*
G01*
X217143750Y-78237500D01*
G75*
G02*
X216925000Y-78018750I0J218750D01*
G01*
X216925000Y-77581250D01*
G75*
G02*
X217143750Y-77362500I218750J0D01*
G01*
G37*
G36*
G01*
X217143750Y-75787500D02*
X217656250Y-75787500D01*
G75*
G02*
X217875000Y-76006250I0J-218750D01*
G01*
X217875000Y-76443750D01*
G75*
G02*
X217656250Y-76662500I-218750J0D01*
G01*
X217143750Y-76662500D01*
G75*
G02*
X216925000Y-76443750I0J218750D01*
G01*
X216925000Y-76006250D01*
G75*
G02*
X217143750Y-75787500I218750J0D01*
G01*
G37*
G36*
G01*
X226843750Y-78550000D02*
X227356250Y-78550000D01*
G75*
G02*
X227575000Y-78768750I0J-218750D01*
G01*
X227575000Y-79206250D01*
G75*
G02*
X227356250Y-79425000I-218750J0D01*
G01*
X226843750Y-79425000D01*
G75*
G02*
X226625000Y-79206250I0J218750D01*
G01*
X226625000Y-78768750D01*
G75*
G02*
X226843750Y-78550000I218750J0D01*
G01*
G37*
G36*
G01*
X226843750Y-76975000D02*
X227356250Y-76975000D01*
G75*
G02*
X227575000Y-77193750I0J-218750D01*
G01*
X227575000Y-77631250D01*
G75*
G02*
X227356250Y-77850000I-218750J0D01*
G01*
X226843750Y-77850000D01*
G75*
G02*
X226625000Y-77631250I0J218750D01*
G01*
X226625000Y-77193750D01*
G75*
G02*
X226843750Y-76975000I218750J0D01*
G01*
G37*
G36*
G01*
X231098000Y-85336000D02*
X232198000Y-85336000D01*
G75*
G02*
X232448000Y-85586000I0J-250000D01*
G01*
X232448000Y-87686000D01*
G75*
G02*
X232198000Y-87936000I-250000J0D01*
G01*
X231098000Y-87936000D01*
G75*
G02*
X230848000Y-87686000I0J250000D01*
G01*
X230848000Y-85586000D01*
G75*
G02*
X231098000Y-85336000I250000J0D01*
G01*
G37*
G36*
G01*
X231098000Y-81736000D02*
X232198000Y-81736000D01*
G75*
G02*
X232448000Y-81986000I0J-250000D01*
G01*
X232448000Y-84086000D01*
G75*
G02*
X232198000Y-84336000I-250000J0D01*
G01*
X231098000Y-84336000D01*
G75*
G02*
X230848000Y-84086000I0J250000D01*
G01*
X230848000Y-81986000D01*
G75*
G02*
X231098000Y-81736000I250000J0D01*
G01*
G37*
G36*
G01*
X221355000Y-80956250D02*
X221355000Y-80443750D01*
G75*
G02*
X221573750Y-80225000I218750J0D01*
G01*
X222011250Y-80225000D01*
G75*
G02*
X222230000Y-80443750I0J-218750D01*
G01*
X222230000Y-80956250D01*
G75*
G02*
X222011250Y-81175000I-218750J0D01*
G01*
X221573750Y-81175000D01*
G75*
G02*
X221355000Y-80956250I0J218750D01*
G01*
G37*
G36*
G01*
X222930000Y-80956250D02*
X222930000Y-80443750D01*
G75*
G02*
X223148750Y-80225000I218750J0D01*
G01*
X223586250Y-80225000D01*
G75*
G02*
X223805000Y-80443750I0J-218750D01*
G01*
X223805000Y-80956250D01*
G75*
G02*
X223586250Y-81175000I-218750J0D01*
G01*
X223148750Y-81175000D01*
G75*
G02*
X222930000Y-80956250I0J218750D01*
G01*
G37*
G36*
G01*
X197297500Y-97018750D02*
X197297500Y-97531250D01*
G75*
G02*
X197078750Y-97750000I-218750J0D01*
G01*
X196641250Y-97750000D01*
G75*
G02*
X196422500Y-97531250I0J218750D01*
G01*
X196422500Y-97018750D01*
G75*
G02*
X196641250Y-96800000I218750J0D01*
G01*
X197078750Y-96800000D01*
G75*
G02*
X197297500Y-97018750I0J-218750D01*
G01*
G37*
G36*
G01*
X195722500Y-97018750D02*
X195722500Y-97531250D01*
G75*
G02*
X195503750Y-97750000I-218750J0D01*
G01*
X195066250Y-97750000D01*
G75*
G02*
X194847500Y-97531250I0J218750D01*
G01*
X194847500Y-97018750D01*
G75*
G02*
X195066250Y-96800000I218750J0D01*
G01*
X195503750Y-96800000D01*
G75*
G02*
X195722500Y-97018750I0J-218750D01*
G01*
G37*
G36*
G01*
X204172500Y-108918750D02*
X204172500Y-109431250D01*
G75*
G02*
X203953750Y-109650000I-218750J0D01*
G01*
X203516250Y-109650000D01*
G75*
G02*
X203297500Y-109431250I0J218750D01*
G01*
X203297500Y-108918750D01*
G75*
G02*
X203516250Y-108700000I218750J0D01*
G01*
X203953750Y-108700000D01*
G75*
G02*
X204172500Y-108918750I0J-218750D01*
G01*
G37*
G36*
G01*
X202597500Y-108918750D02*
X202597500Y-109431250D01*
G75*
G02*
X202378750Y-109650000I-218750J0D01*
G01*
X201941250Y-109650000D01*
G75*
G02*
X201722500Y-109431250I0J218750D01*
G01*
X201722500Y-108918750D01*
G75*
G02*
X201941250Y-108700000I218750J0D01*
G01*
X202378750Y-108700000D01*
G75*
G02*
X202597500Y-108918750I0J-218750D01*
G01*
G37*
G36*
G01*
X212250000Y-109476250D02*
X212250000Y-108963750D01*
G75*
G02*
X212468750Y-108745000I218750J0D01*
G01*
X212906250Y-108745000D01*
G75*
G02*
X213125000Y-108963750I0J-218750D01*
G01*
X213125000Y-109476250D01*
G75*
G02*
X212906250Y-109695000I-218750J0D01*
G01*
X212468750Y-109695000D01*
G75*
G02*
X212250000Y-109476250I0J218750D01*
G01*
G37*
G36*
G01*
X210675000Y-109476250D02*
X210675000Y-108963750D01*
G75*
G02*
X210893750Y-108745000I218750J0D01*
G01*
X211331250Y-108745000D01*
G75*
G02*
X211550000Y-108963750I0J-218750D01*
G01*
X211550000Y-109476250D01*
G75*
G02*
X211331250Y-109695000I-218750J0D01*
G01*
X210893750Y-109695000D01*
G75*
G02*
X210675000Y-109476250I0J218750D01*
G01*
G37*
G36*
G01*
X167312500Y-57756250D02*
X167312500Y-57243750D01*
G75*
G02*
X167531250Y-57025000I218750J0D01*
G01*
X167968750Y-57025000D01*
G75*
G02*
X168187500Y-57243750I0J-218750D01*
G01*
X168187500Y-57756250D01*
G75*
G02*
X167968750Y-57975000I-218750J0D01*
G01*
X167531250Y-57975000D01*
G75*
G02*
X167312500Y-57756250I0J218750D01*
G01*
G37*
G36*
G01*
X165737500Y-57756250D02*
X165737500Y-57243750D01*
G75*
G02*
X165956250Y-57025000I218750J0D01*
G01*
X166393750Y-57025000D01*
G75*
G02*
X166612500Y-57243750I0J-218750D01*
G01*
X166612500Y-57756250D01*
G75*
G02*
X166393750Y-57975000I-218750J0D01*
G01*
X165956250Y-57975000D01*
G75*
G02*
X165737500Y-57756250I0J218750D01*
G01*
G37*
G36*
G01*
X175850000Y-102150000D02*
X175850000Y-103250000D01*
G75*
G02*
X175600000Y-103500000I-250000J0D01*
G01*
X173500000Y-103500000D01*
G75*
G02*
X173250000Y-103250000I0J250000D01*
G01*
X173250000Y-102150000D01*
G75*
G02*
X173500000Y-101900000I250000J0D01*
G01*
X175600000Y-101900000D01*
G75*
G02*
X175850000Y-102150000I0J-250000D01*
G01*
G37*
G36*
G01*
X172250000Y-102150000D02*
X172250000Y-103250000D01*
G75*
G02*
X172000000Y-103500000I-250000J0D01*
G01*
X169900000Y-103500000D01*
G75*
G02*
X169650000Y-103250000I0J250000D01*
G01*
X169650000Y-102150000D01*
G75*
G02*
X169900000Y-101900000I250000J0D01*
G01*
X172000000Y-101900000D01*
G75*
G02*
X172250000Y-102150000I0J-250000D01*
G01*
G37*
G36*
G01*
X172250000Y-97300000D02*
X172250000Y-98400000D01*
G75*
G02*
X172000000Y-98650000I-250000J0D01*
G01*
X169900000Y-98650000D01*
G75*
G02*
X169650000Y-98400000I0J250000D01*
G01*
X169650000Y-97300000D01*
G75*
G02*
X169900000Y-97050000I250000J0D01*
G01*
X172000000Y-97050000D01*
G75*
G02*
X172250000Y-97300000I0J-250000D01*
G01*
G37*
G36*
G01*
X175850000Y-97300000D02*
X175850000Y-98400000D01*
G75*
G02*
X175600000Y-98650000I-250000J0D01*
G01*
X173500000Y-98650000D01*
G75*
G02*
X173250000Y-98400000I0J250000D01*
G01*
X173250000Y-97300000D01*
G75*
G02*
X173500000Y-97050000I250000J0D01*
G01*
X175600000Y-97050000D01*
G75*
G02*
X175850000Y-97300000I0J-250000D01*
G01*
G37*
G36*
G01*
X159650000Y-101860000D02*
X159650000Y-102960000D01*
G75*
G02*
X159400000Y-103210000I-250000J0D01*
G01*
X157300000Y-103210000D01*
G75*
G02*
X157050000Y-102960000I0J250000D01*
G01*
X157050000Y-101860000D01*
G75*
G02*
X157300000Y-101610000I250000J0D01*
G01*
X159400000Y-101610000D01*
G75*
G02*
X159650000Y-101860000I0J-250000D01*
G01*
G37*
G36*
G01*
X163250000Y-101860000D02*
X163250000Y-102960000D01*
G75*
G02*
X163000000Y-103210000I-250000J0D01*
G01*
X160900000Y-103210000D01*
G75*
G02*
X160650000Y-102960000I0J250000D01*
G01*
X160650000Y-101860000D01*
G75*
G02*
X160900000Y-101610000I250000J0D01*
G01*
X163000000Y-101610000D01*
G75*
G02*
X163250000Y-101860000I0J-250000D01*
G01*
G37*
G36*
G01*
X163150000Y-96900000D02*
X163150000Y-98000000D01*
G75*
G02*
X162900000Y-98250000I-250000J0D01*
G01*
X160800000Y-98250000D01*
G75*
G02*
X160550000Y-98000000I0J250000D01*
G01*
X160550000Y-96900000D01*
G75*
G02*
X160800000Y-96650000I250000J0D01*
G01*
X162900000Y-96650000D01*
G75*
G02*
X163150000Y-96900000I0J-250000D01*
G01*
G37*
G36*
G01*
X159550000Y-96900000D02*
X159550000Y-98000000D01*
G75*
G02*
X159300000Y-98250000I-250000J0D01*
G01*
X157200000Y-98250000D01*
G75*
G02*
X156950000Y-98000000I0J250000D01*
G01*
X156950000Y-96900000D01*
G75*
G02*
X157200000Y-96650000I250000J0D01*
G01*
X159300000Y-96650000D01*
G75*
G02*
X159550000Y-96900000I0J-250000D01*
G01*
G37*
G36*
G01*
X111862500Y-74643750D02*
X111862500Y-75156250D01*
G75*
G02*
X111643750Y-75375000I-218750J0D01*
G01*
X111206250Y-75375000D01*
G75*
G02*
X110987500Y-75156250I0J218750D01*
G01*
X110987500Y-74643750D01*
G75*
G02*
X111206250Y-74425000I218750J0D01*
G01*
X111643750Y-74425000D01*
G75*
G02*
X111862500Y-74643750I0J-218750D01*
G01*
G37*
G36*
G01*
X113437500Y-74643750D02*
X113437500Y-75156250D01*
G75*
G02*
X113218750Y-75375000I-218750J0D01*
G01*
X112781250Y-75375000D01*
G75*
G02*
X112562500Y-75156250I0J218750D01*
G01*
X112562500Y-74643750D01*
G75*
G02*
X112781250Y-74425000I218750J0D01*
G01*
X113218750Y-74425000D01*
G75*
G02*
X113437500Y-74643750I0J-218750D01*
G01*
G37*
G36*
G01*
X110750000Y-61450000D02*
X109650000Y-61450000D01*
G75*
G02*
X109400000Y-61200000I0J250000D01*
G01*
X109400000Y-58200000D01*
G75*
G02*
X109650000Y-57950000I250000J0D01*
G01*
X110750000Y-57950000D01*
G75*
G02*
X111000000Y-58200000I0J-250000D01*
G01*
X111000000Y-61200000D01*
G75*
G02*
X110750000Y-61450000I-250000J0D01*
G01*
G37*
G36*
G01*
X110750000Y-66850000D02*
X109650000Y-66850000D01*
G75*
G02*
X109400000Y-66600000I0J250000D01*
G01*
X109400000Y-63600000D01*
G75*
G02*
X109650000Y-63350000I250000J0D01*
G01*
X110750000Y-63350000D01*
G75*
G02*
X111000000Y-63600000I0J-250000D01*
G01*
X111000000Y-66600000D01*
G75*
G02*
X110750000Y-66850000I-250000J0D01*
G01*
G37*
G36*
G01*
X118000000Y-66000000D02*
X116900000Y-66000000D01*
G75*
G02*
X116650000Y-65750000I0J250000D01*
G01*
X116650000Y-62750000D01*
G75*
G02*
X116900000Y-62500000I250000J0D01*
G01*
X118000000Y-62500000D01*
G75*
G02*
X118250000Y-62750000I0J-250000D01*
G01*
X118250000Y-65750000D01*
G75*
G02*
X118000000Y-66000000I-250000J0D01*
G01*
G37*
G36*
G01*
X118000000Y-60600000D02*
X116900000Y-60600000D01*
G75*
G02*
X116650000Y-60350000I0J250000D01*
G01*
X116650000Y-57350000D01*
G75*
G02*
X116900000Y-57100000I250000J0D01*
G01*
X118000000Y-57100000D01*
G75*
G02*
X118250000Y-57350000I0J-250000D01*
G01*
X118250000Y-60350000D01*
G75*
G02*
X118000000Y-60600000I-250000J0D01*
G01*
G37*
D12*
X204250000Y-83600000D03*
X206350000Y-83600000D03*
X238350000Y-85000000D03*
X240450000Y-85000000D03*
D26*
X209000000Y-83500000D03*
X209000000Y-85600000D03*
D12*
X240550000Y-77600000D03*
X238450000Y-77600000D03*
D18*
X116410000Y-44930000D03*
X109010000Y-42930000D03*
D19*
X109010000Y-52330000D03*
G36*
G01*
X234025000Y-99736250D02*
X234025000Y-99223750D01*
G75*
G02*
X234243750Y-99005000I218750J0D01*
G01*
X234681250Y-99005000D01*
G75*
G02*
X234900000Y-99223750I0J-218750D01*
G01*
X234900000Y-99736250D01*
G75*
G02*
X234681250Y-99955000I-218750J0D01*
G01*
X234243750Y-99955000D01*
G75*
G02*
X234025000Y-99736250I0J218750D01*
G01*
G37*
G36*
G01*
X235600000Y-99736250D02*
X235600000Y-99223750D01*
G75*
G02*
X235818750Y-99005000I218750J0D01*
G01*
X236256250Y-99005000D01*
G75*
G02*
X236475000Y-99223750I0J-218750D01*
G01*
X236475000Y-99736250D01*
G75*
G02*
X236256250Y-99955000I-218750J0D01*
G01*
X235818750Y-99955000D01*
G75*
G02*
X235600000Y-99736250I0J218750D01*
G01*
G37*
G36*
G01*
X177380000Y-122133750D02*
X177380000Y-122646250D01*
G75*
G02*
X177161250Y-122865000I-218750J0D01*
G01*
X176723750Y-122865000D01*
G75*
G02*
X176505000Y-122646250I0J218750D01*
G01*
X176505000Y-122133750D01*
G75*
G02*
X176723750Y-121915000I218750J0D01*
G01*
X177161250Y-121915000D01*
G75*
G02*
X177380000Y-122133750I0J-218750D01*
G01*
G37*
G36*
G01*
X178955000Y-122133750D02*
X178955000Y-122646250D01*
G75*
G02*
X178736250Y-122865000I-218750J0D01*
G01*
X178298750Y-122865000D01*
G75*
G02*
X178080000Y-122646250I0J218750D01*
G01*
X178080000Y-122133750D01*
G75*
G02*
X178298750Y-121915000I218750J0D01*
G01*
X178736250Y-121915000D01*
G75*
G02*
X178955000Y-122133750I0J-218750D01*
G01*
G37*
G36*
G01*
X178955000Y-120363750D02*
X178955000Y-120876250D01*
G75*
G02*
X178736250Y-121095000I-218750J0D01*
G01*
X178298750Y-121095000D01*
G75*
G02*
X178080000Y-120876250I0J218750D01*
G01*
X178080000Y-120363750D01*
G75*
G02*
X178298750Y-120145000I218750J0D01*
G01*
X178736250Y-120145000D01*
G75*
G02*
X178955000Y-120363750I0J-218750D01*
G01*
G37*
G36*
G01*
X177380000Y-120363750D02*
X177380000Y-120876250D01*
G75*
G02*
X177161250Y-121095000I-218750J0D01*
G01*
X176723750Y-121095000D01*
G75*
G02*
X176505000Y-120876250I0J218750D01*
G01*
X176505000Y-120363750D01*
G75*
G02*
X176723750Y-120145000I218750J0D01*
G01*
X177161250Y-120145000D01*
G75*
G02*
X177380000Y-120363750I0J-218750D01*
G01*
G37*
G36*
G01*
X245876250Y-70582500D02*
X245363750Y-70582500D01*
G75*
G02*
X245145000Y-70363750I0J218750D01*
G01*
X245145000Y-69926250D01*
G75*
G02*
X245363750Y-69707500I218750J0D01*
G01*
X245876250Y-69707500D01*
G75*
G02*
X246095000Y-69926250I0J-218750D01*
G01*
X246095000Y-70363750D01*
G75*
G02*
X245876250Y-70582500I-218750J0D01*
G01*
G37*
G36*
G01*
X245876250Y-72157500D02*
X245363750Y-72157500D01*
G75*
G02*
X245145000Y-71938750I0J218750D01*
G01*
X245145000Y-71501250D01*
G75*
G02*
X245363750Y-71282500I218750J0D01*
G01*
X245876250Y-71282500D01*
G75*
G02*
X246095000Y-71501250I0J-218750D01*
G01*
X246095000Y-71938750D01*
G75*
G02*
X245876250Y-72157500I-218750J0D01*
G01*
G37*
G36*
G01*
X244126250Y-72145000D02*
X243613750Y-72145000D01*
G75*
G02*
X243395000Y-71926250I0J218750D01*
G01*
X243395000Y-71488750D01*
G75*
G02*
X243613750Y-71270000I218750J0D01*
G01*
X244126250Y-71270000D01*
G75*
G02*
X244345000Y-71488750I0J-218750D01*
G01*
X244345000Y-71926250D01*
G75*
G02*
X244126250Y-72145000I-218750J0D01*
G01*
G37*
G36*
G01*
X244126250Y-70570000D02*
X243613750Y-70570000D01*
G75*
G02*
X243395000Y-70351250I0J218750D01*
G01*
X243395000Y-69913750D01*
G75*
G02*
X243613750Y-69695000I218750J0D01*
G01*
X244126250Y-69695000D01*
G75*
G02*
X244345000Y-69913750I0J-218750D01*
G01*
X244345000Y-70351250D01*
G75*
G02*
X244126250Y-70570000I-218750J0D01*
G01*
G37*
G36*
G01*
X219426250Y-71927500D02*
X218913750Y-71927500D01*
G75*
G02*
X218695000Y-71708750I0J218750D01*
G01*
X218695000Y-71271250D01*
G75*
G02*
X218913750Y-71052500I218750J0D01*
G01*
X219426250Y-71052500D01*
G75*
G02*
X219645000Y-71271250I0J-218750D01*
G01*
X219645000Y-71708750D01*
G75*
G02*
X219426250Y-71927500I-218750J0D01*
G01*
G37*
G36*
G01*
X219426250Y-70352500D02*
X218913750Y-70352500D01*
G75*
G02*
X218695000Y-70133750I0J218750D01*
G01*
X218695000Y-69696250D01*
G75*
G02*
X218913750Y-69477500I218750J0D01*
G01*
X219426250Y-69477500D01*
G75*
G02*
X219645000Y-69696250I0J-218750D01*
G01*
X219645000Y-70133750D01*
G75*
G02*
X219426250Y-70352500I-218750J0D01*
G01*
G37*
G36*
G01*
X231506250Y-70222500D02*
X230993750Y-70222500D01*
G75*
G02*
X230775000Y-70003750I0J218750D01*
G01*
X230775000Y-69566250D01*
G75*
G02*
X230993750Y-69347500I218750J0D01*
G01*
X231506250Y-69347500D01*
G75*
G02*
X231725000Y-69566250I0J-218750D01*
G01*
X231725000Y-70003750D01*
G75*
G02*
X231506250Y-70222500I-218750J0D01*
G01*
G37*
G36*
G01*
X231506250Y-71797500D02*
X230993750Y-71797500D01*
G75*
G02*
X230775000Y-71578750I0J218750D01*
G01*
X230775000Y-71141250D01*
G75*
G02*
X230993750Y-70922500I218750J0D01*
G01*
X231506250Y-70922500D01*
G75*
G02*
X231725000Y-71141250I0J-218750D01*
G01*
X231725000Y-71578750D01*
G75*
G02*
X231506250Y-71797500I-218750J0D01*
G01*
G37*
G36*
G01*
X199156250Y-85412500D02*
X198643750Y-85412500D01*
G75*
G02*
X198425000Y-85193750I0J218750D01*
G01*
X198425000Y-84756250D01*
G75*
G02*
X198643750Y-84537500I218750J0D01*
G01*
X199156250Y-84537500D01*
G75*
G02*
X199375000Y-84756250I0J-218750D01*
G01*
X199375000Y-85193750D01*
G75*
G02*
X199156250Y-85412500I-218750J0D01*
G01*
G37*
G36*
G01*
X199156250Y-83837500D02*
X198643750Y-83837500D01*
G75*
G02*
X198425000Y-83618750I0J218750D01*
G01*
X198425000Y-83181250D01*
G75*
G02*
X198643750Y-82962500I218750J0D01*
G01*
X199156250Y-82962500D01*
G75*
G02*
X199375000Y-83181250I0J-218750D01*
G01*
X199375000Y-83618750D01*
G75*
G02*
X199156250Y-83837500I-218750J0D01*
G01*
G37*
G36*
G01*
X245743750Y-84087500D02*
X246256250Y-84087500D01*
G75*
G02*
X246475000Y-84306250I0J-218750D01*
G01*
X246475000Y-84743750D01*
G75*
G02*
X246256250Y-84962500I-218750J0D01*
G01*
X245743750Y-84962500D01*
G75*
G02*
X245525000Y-84743750I0J218750D01*
G01*
X245525000Y-84306250D01*
G75*
G02*
X245743750Y-84087500I218750J0D01*
G01*
G37*
G36*
G01*
X245743750Y-85662500D02*
X246256250Y-85662500D01*
G75*
G02*
X246475000Y-85881250I0J-218750D01*
G01*
X246475000Y-86318750D01*
G75*
G02*
X246256250Y-86537500I-218750J0D01*
G01*
X245743750Y-86537500D01*
G75*
G02*
X245525000Y-86318750I0J218750D01*
G01*
X245525000Y-85881250D01*
G75*
G02*
X245743750Y-85662500I218750J0D01*
G01*
G37*
G36*
G01*
X221232500Y-71233750D02*
X221232500Y-71746250D01*
G75*
G02*
X221013750Y-71965000I-218750J0D01*
G01*
X220576250Y-71965000D01*
G75*
G02*
X220357500Y-71746250I0J218750D01*
G01*
X220357500Y-71233750D01*
G75*
G02*
X220576250Y-71015000I218750J0D01*
G01*
X221013750Y-71015000D01*
G75*
G02*
X221232500Y-71233750I0J-218750D01*
G01*
G37*
G36*
G01*
X222807500Y-71233750D02*
X222807500Y-71746250D01*
G75*
G02*
X222588750Y-71965000I-218750J0D01*
G01*
X222151250Y-71965000D01*
G75*
G02*
X221932500Y-71746250I0J218750D01*
G01*
X221932500Y-71233750D01*
G75*
G02*
X222151250Y-71015000I218750J0D01*
G01*
X222588750Y-71015000D01*
G75*
G02*
X222807500Y-71233750I0J-218750D01*
G01*
G37*
G36*
G01*
X234862500Y-71103750D02*
X234862500Y-71616250D01*
G75*
G02*
X234643750Y-71835000I-218750J0D01*
G01*
X234206250Y-71835000D01*
G75*
G02*
X233987500Y-71616250I0J218750D01*
G01*
X233987500Y-71103750D01*
G75*
G02*
X234206250Y-70885000I218750J0D01*
G01*
X234643750Y-70885000D01*
G75*
G02*
X234862500Y-71103750I0J-218750D01*
G01*
G37*
G36*
G01*
X233287500Y-71103750D02*
X233287500Y-71616250D01*
G75*
G02*
X233068750Y-71835000I-218750J0D01*
G01*
X232631250Y-71835000D01*
G75*
G02*
X232412500Y-71616250I0J218750D01*
G01*
X232412500Y-71103750D01*
G75*
G02*
X232631250Y-70885000I218750J0D01*
G01*
X233068750Y-70885000D01*
G75*
G02*
X233287500Y-71103750I0J-218750D01*
G01*
G37*
G36*
G01*
X200862500Y-81043750D02*
X200862500Y-81556250D01*
G75*
G02*
X200643750Y-81775000I-218750J0D01*
G01*
X200206250Y-81775000D01*
G75*
G02*
X199987500Y-81556250I0J218750D01*
G01*
X199987500Y-81043750D01*
G75*
G02*
X200206250Y-80825000I218750J0D01*
G01*
X200643750Y-80825000D01*
G75*
G02*
X200862500Y-81043750I0J-218750D01*
G01*
G37*
G36*
G01*
X202437500Y-81043750D02*
X202437500Y-81556250D01*
G75*
G02*
X202218750Y-81775000I-218750J0D01*
G01*
X201781250Y-81775000D01*
G75*
G02*
X201562500Y-81556250I0J218750D01*
G01*
X201562500Y-81043750D01*
G75*
G02*
X201781250Y-80825000I218750J0D01*
G01*
X202218750Y-80825000D01*
G75*
G02*
X202437500Y-81043750I0J-218750D01*
G01*
G37*
G36*
G01*
X241956250Y-81337500D02*
X241443750Y-81337500D01*
G75*
G02*
X241225000Y-81118750I0J218750D01*
G01*
X241225000Y-80681250D01*
G75*
G02*
X241443750Y-80462500I218750J0D01*
G01*
X241956250Y-80462500D01*
G75*
G02*
X242175000Y-80681250I0J-218750D01*
G01*
X242175000Y-81118750D01*
G75*
G02*
X241956250Y-81337500I-218750J0D01*
G01*
G37*
G36*
G01*
X241956250Y-82912500D02*
X241443750Y-82912500D01*
G75*
G02*
X241225000Y-82693750I0J218750D01*
G01*
X241225000Y-82256250D01*
G75*
G02*
X241443750Y-82037500I218750J0D01*
G01*
X241956250Y-82037500D01*
G75*
G02*
X242175000Y-82256250I0J-218750D01*
G01*
X242175000Y-82693750D01*
G75*
G02*
X241956250Y-82912500I-218750J0D01*
G01*
G37*
G36*
G01*
X203343750Y-79275000D02*
X203856250Y-79275000D01*
G75*
G02*
X204075000Y-79493750I0J-218750D01*
G01*
X204075000Y-79931250D01*
G75*
G02*
X203856250Y-80150000I-218750J0D01*
G01*
X203343750Y-80150000D01*
G75*
G02*
X203125000Y-79931250I0J218750D01*
G01*
X203125000Y-79493750D01*
G75*
G02*
X203343750Y-79275000I218750J0D01*
G01*
G37*
G36*
G01*
X203343750Y-80850000D02*
X203856250Y-80850000D01*
G75*
G02*
X204075000Y-81068750I0J-218750D01*
G01*
X204075000Y-81506250D01*
G75*
G02*
X203856250Y-81725000I-218750J0D01*
G01*
X203343750Y-81725000D01*
G75*
G02*
X203125000Y-81506250I0J218750D01*
G01*
X203125000Y-81068750D01*
G75*
G02*
X203343750Y-80850000I218750J0D01*
G01*
G37*
G36*
G01*
X211743750Y-72860000D02*
X212256250Y-72860000D01*
G75*
G02*
X212475000Y-73078750I0J-218750D01*
G01*
X212475000Y-73516250D01*
G75*
G02*
X212256250Y-73735000I-218750J0D01*
G01*
X211743750Y-73735000D01*
G75*
G02*
X211525000Y-73516250I0J218750D01*
G01*
X211525000Y-73078750D01*
G75*
G02*
X211743750Y-72860000I218750J0D01*
G01*
G37*
G36*
G01*
X211743750Y-71285000D02*
X212256250Y-71285000D01*
G75*
G02*
X212475000Y-71503750I0J-218750D01*
G01*
X212475000Y-71941250D01*
G75*
G02*
X212256250Y-72160000I-218750J0D01*
G01*
X211743750Y-72160000D01*
G75*
G02*
X211525000Y-71941250I0J218750D01*
G01*
X211525000Y-71503750D01*
G75*
G02*
X211743750Y-71285000I218750J0D01*
G01*
G37*
G36*
G01*
X226693750Y-70237500D02*
X227206250Y-70237500D01*
G75*
G02*
X227425000Y-70456250I0J-218750D01*
G01*
X227425000Y-70893750D01*
G75*
G02*
X227206250Y-71112500I-218750J0D01*
G01*
X226693750Y-71112500D01*
G75*
G02*
X226475000Y-70893750I0J218750D01*
G01*
X226475000Y-70456250D01*
G75*
G02*
X226693750Y-70237500I218750J0D01*
G01*
G37*
G36*
G01*
X226693750Y-68662500D02*
X227206250Y-68662500D01*
G75*
G02*
X227425000Y-68881250I0J-218750D01*
G01*
X227425000Y-69318750D01*
G75*
G02*
X227206250Y-69537500I-218750J0D01*
G01*
X226693750Y-69537500D01*
G75*
G02*
X226475000Y-69318750I0J218750D01*
G01*
X226475000Y-68881250D01*
G75*
G02*
X226693750Y-68662500I218750J0D01*
G01*
G37*
G36*
G01*
X213350000Y-79956250D02*
X213350000Y-79443750D01*
G75*
G02*
X213568750Y-79225000I218750J0D01*
G01*
X214006250Y-79225000D01*
G75*
G02*
X214225000Y-79443750I0J-218750D01*
G01*
X214225000Y-79956250D01*
G75*
G02*
X214006250Y-80175000I-218750J0D01*
G01*
X213568750Y-80175000D01*
G75*
G02*
X213350000Y-79956250I0J218750D01*
G01*
G37*
G36*
G01*
X211775000Y-79956250D02*
X211775000Y-79443750D01*
G75*
G02*
X211993750Y-79225000I218750J0D01*
G01*
X212431250Y-79225000D01*
G75*
G02*
X212650000Y-79443750I0J-218750D01*
G01*
X212650000Y-79956250D01*
G75*
G02*
X212431250Y-80175000I-218750J0D01*
G01*
X211993750Y-80175000D01*
G75*
G02*
X211775000Y-79956250I0J218750D01*
G01*
G37*
G36*
G01*
X233737500Y-80243750D02*
X233737500Y-80756250D01*
G75*
G02*
X233518750Y-80975000I-218750J0D01*
G01*
X233081250Y-80975000D01*
G75*
G02*
X232862500Y-80756250I0J218750D01*
G01*
X232862500Y-80243750D01*
G75*
G02*
X233081250Y-80025000I218750J0D01*
G01*
X233518750Y-80025000D01*
G75*
G02*
X233737500Y-80243750I0J-218750D01*
G01*
G37*
G36*
G01*
X232162500Y-80243750D02*
X232162500Y-80756250D01*
G75*
G02*
X231943750Y-80975000I-218750J0D01*
G01*
X231506250Y-80975000D01*
G75*
G02*
X231287500Y-80756250I0J218750D01*
G01*
X231287500Y-80243750D01*
G75*
G02*
X231506250Y-80025000I218750J0D01*
G01*
X231943750Y-80025000D01*
G75*
G02*
X232162500Y-80243750I0J-218750D01*
G01*
G37*
G36*
G01*
X213487500Y-75056250D02*
X213487500Y-74543750D01*
G75*
G02*
X213706250Y-74325000I218750J0D01*
G01*
X214143750Y-74325000D01*
G75*
G02*
X214362500Y-74543750I0J-218750D01*
G01*
X214362500Y-75056250D01*
G75*
G02*
X214143750Y-75275000I-218750J0D01*
G01*
X213706250Y-75275000D01*
G75*
G02*
X213487500Y-75056250I0J218750D01*
G01*
G37*
G36*
G01*
X215062500Y-75056250D02*
X215062500Y-74543750D01*
G75*
G02*
X215281250Y-74325000I218750J0D01*
G01*
X215718750Y-74325000D01*
G75*
G02*
X215937500Y-74543750I0J-218750D01*
G01*
X215937500Y-75056250D01*
G75*
G02*
X215718750Y-75275000I-218750J0D01*
G01*
X215281250Y-75275000D01*
G75*
G02*
X215062500Y-75056250I0J218750D01*
G01*
G37*
G36*
G01*
X228237500Y-75543750D02*
X228237500Y-76056250D01*
G75*
G02*
X228018750Y-76275000I-218750J0D01*
G01*
X227581250Y-76275000D01*
G75*
G02*
X227362500Y-76056250I0J218750D01*
G01*
X227362500Y-75543750D01*
G75*
G02*
X227581250Y-75325000I218750J0D01*
G01*
X228018750Y-75325000D01*
G75*
G02*
X228237500Y-75543750I0J-218750D01*
G01*
G37*
G36*
G01*
X229812500Y-75543750D02*
X229812500Y-76056250D01*
G75*
G02*
X229593750Y-76275000I-218750J0D01*
G01*
X229156250Y-76275000D01*
G75*
G02*
X228937500Y-76056250I0J218750D01*
G01*
X228937500Y-75543750D01*
G75*
G02*
X229156250Y-75325000I218750J0D01*
G01*
X229593750Y-75325000D01*
G75*
G02*
X229812500Y-75543750I0J-218750D01*
G01*
G37*
G36*
G01*
X211962500Y-76556250D02*
X211962500Y-76043750D01*
G75*
G02*
X212181250Y-75825000I218750J0D01*
G01*
X212618750Y-75825000D01*
G75*
G02*
X212837500Y-76043750I0J-218750D01*
G01*
X212837500Y-76556250D01*
G75*
G02*
X212618750Y-76775000I-218750J0D01*
G01*
X212181250Y-76775000D01*
G75*
G02*
X211962500Y-76556250I0J218750D01*
G01*
G37*
G36*
G01*
X210387500Y-76556250D02*
X210387500Y-76043750D01*
G75*
G02*
X210606250Y-75825000I218750J0D01*
G01*
X211043750Y-75825000D01*
G75*
G02*
X211262500Y-76043750I0J-218750D01*
G01*
X211262500Y-76556250D01*
G75*
G02*
X211043750Y-76775000I-218750J0D01*
G01*
X210606250Y-76775000D01*
G75*
G02*
X210387500Y-76556250I0J218750D01*
G01*
G37*
G36*
G01*
X233712500Y-77143750D02*
X233712500Y-77656250D01*
G75*
G02*
X233493750Y-77875000I-218750J0D01*
G01*
X233056250Y-77875000D01*
G75*
G02*
X232837500Y-77656250I0J218750D01*
G01*
X232837500Y-77143750D01*
G75*
G02*
X233056250Y-76925000I218750J0D01*
G01*
X233493750Y-76925000D01*
G75*
G02*
X233712500Y-77143750I0J-218750D01*
G01*
G37*
G36*
G01*
X232137500Y-77143750D02*
X232137500Y-77656250D01*
G75*
G02*
X231918750Y-77875000I-218750J0D01*
G01*
X231481250Y-77875000D01*
G75*
G02*
X231262500Y-77656250I0J218750D01*
G01*
X231262500Y-77143750D01*
G75*
G02*
X231481250Y-76925000I218750J0D01*
G01*
X231918750Y-76925000D01*
G75*
G02*
X232137500Y-77143750I0J-218750D01*
G01*
G37*
G36*
G01*
X214256250Y-78412500D02*
X213743750Y-78412500D01*
G75*
G02*
X213525000Y-78193750I0J218750D01*
G01*
X213525000Y-77756250D01*
G75*
G02*
X213743750Y-77537500I218750J0D01*
G01*
X214256250Y-77537500D01*
G75*
G02*
X214475000Y-77756250I0J-218750D01*
G01*
X214475000Y-78193750D01*
G75*
G02*
X214256250Y-78412500I-218750J0D01*
G01*
G37*
G36*
G01*
X214256250Y-76837500D02*
X213743750Y-76837500D01*
G75*
G02*
X213525000Y-76618750I0J218750D01*
G01*
X213525000Y-76181250D01*
G75*
G02*
X213743750Y-75962500I218750J0D01*
G01*
X214256250Y-75962500D01*
G75*
G02*
X214475000Y-76181250I0J-218750D01*
G01*
X214475000Y-76618750D01*
G75*
G02*
X214256250Y-76837500I-218750J0D01*
G01*
G37*
G36*
G01*
X230256250Y-79412500D02*
X229743750Y-79412500D01*
G75*
G02*
X229525000Y-79193750I0J218750D01*
G01*
X229525000Y-78756250D01*
G75*
G02*
X229743750Y-78537500I218750J0D01*
G01*
X230256250Y-78537500D01*
G75*
G02*
X230475000Y-78756250I0J-218750D01*
G01*
X230475000Y-79193750D01*
G75*
G02*
X230256250Y-79412500I-218750J0D01*
G01*
G37*
G36*
G01*
X230256250Y-77837500D02*
X229743750Y-77837500D01*
G75*
G02*
X229525000Y-77618750I0J218750D01*
G01*
X229525000Y-77181250D01*
G75*
G02*
X229743750Y-76962500I218750J0D01*
G01*
X230256250Y-76962500D01*
G75*
G02*
X230475000Y-77181250I0J-218750D01*
G01*
X230475000Y-77618750D01*
G75*
G02*
X230256250Y-77837500I-218750J0D01*
G01*
G37*
G36*
G01*
X205043750Y-80762500D02*
X205556250Y-80762500D01*
G75*
G02*
X205775000Y-80981250I0J-218750D01*
G01*
X205775000Y-81418750D01*
G75*
G02*
X205556250Y-81637500I-218750J0D01*
G01*
X205043750Y-81637500D01*
G75*
G02*
X204825000Y-81418750I0J218750D01*
G01*
X204825000Y-80981250D01*
G75*
G02*
X205043750Y-80762500I218750J0D01*
G01*
G37*
G36*
G01*
X205043750Y-79187500D02*
X205556250Y-79187500D01*
G75*
G02*
X205775000Y-79406250I0J-218750D01*
G01*
X205775000Y-79843750D01*
G75*
G02*
X205556250Y-80062500I-218750J0D01*
G01*
X205043750Y-80062500D01*
G75*
G02*
X204825000Y-79843750I0J218750D01*
G01*
X204825000Y-79406250D01*
G75*
G02*
X205043750Y-79187500I218750J0D01*
G01*
G37*
G36*
G01*
X216956250Y-79837500D02*
X216443750Y-79837500D01*
G75*
G02*
X216225000Y-79618750I0J218750D01*
G01*
X216225000Y-79181250D01*
G75*
G02*
X216443750Y-78962500I218750J0D01*
G01*
X216956250Y-78962500D01*
G75*
G02*
X217175000Y-79181250I0J-218750D01*
G01*
X217175000Y-79618750D01*
G75*
G02*
X216956250Y-79837500I-218750J0D01*
G01*
G37*
G36*
G01*
X216956250Y-81412500D02*
X216443750Y-81412500D01*
G75*
G02*
X216225000Y-81193750I0J218750D01*
G01*
X216225000Y-80756250D01*
G75*
G02*
X216443750Y-80537500I218750J0D01*
G01*
X216956250Y-80537500D01*
G75*
G02*
X217175000Y-80756250I0J-218750D01*
G01*
X217175000Y-81193750D01*
G75*
G02*
X216956250Y-81412500I-218750J0D01*
G01*
G37*
G36*
G01*
X236262500Y-76056250D02*
X236262500Y-75543750D01*
G75*
G02*
X236481250Y-75325000I218750J0D01*
G01*
X236918750Y-75325000D01*
G75*
G02*
X237137500Y-75543750I0J-218750D01*
G01*
X237137500Y-76056250D01*
G75*
G02*
X236918750Y-76275000I-218750J0D01*
G01*
X236481250Y-76275000D01*
G75*
G02*
X236262500Y-76056250I0J218750D01*
G01*
G37*
G36*
G01*
X237837500Y-76056250D02*
X237837500Y-75543750D01*
G75*
G02*
X238056250Y-75325000I218750J0D01*
G01*
X238493750Y-75325000D01*
G75*
G02*
X238712500Y-75543750I0J-218750D01*
G01*
X238712500Y-76056250D01*
G75*
G02*
X238493750Y-76275000I-218750J0D01*
G01*
X238056250Y-76275000D01*
G75*
G02*
X237837500Y-76056250I0J218750D01*
G01*
G37*
G36*
G01*
X228756250Y-81162500D02*
X228243750Y-81162500D01*
G75*
G02*
X228025000Y-80943750I0J218750D01*
G01*
X228025000Y-80506250D01*
G75*
G02*
X228243750Y-80287500I218750J0D01*
G01*
X228756250Y-80287500D01*
G75*
G02*
X228975000Y-80506250I0J-218750D01*
G01*
X228975000Y-80943750D01*
G75*
G02*
X228756250Y-81162500I-218750J0D01*
G01*
G37*
G36*
G01*
X228756250Y-82737500D02*
X228243750Y-82737500D01*
G75*
G02*
X228025000Y-82518750I0J218750D01*
G01*
X228025000Y-82081250D01*
G75*
G02*
X228243750Y-81862500I218750J0D01*
G01*
X228756250Y-81862500D01*
G75*
G02*
X228975000Y-82081250I0J-218750D01*
G01*
X228975000Y-82518750D01*
G75*
G02*
X228756250Y-82737500I-218750J0D01*
G01*
G37*
G36*
G01*
X202812500Y-88043750D02*
X202812500Y-88556250D01*
G75*
G02*
X202593750Y-88775000I-218750J0D01*
G01*
X202156250Y-88775000D01*
G75*
G02*
X201937500Y-88556250I0J218750D01*
G01*
X201937500Y-88043750D01*
G75*
G02*
X202156250Y-87825000I218750J0D01*
G01*
X202593750Y-87825000D01*
G75*
G02*
X202812500Y-88043750I0J-218750D01*
G01*
G37*
G36*
G01*
X201237500Y-88043750D02*
X201237500Y-88556250D01*
G75*
G02*
X201018750Y-88775000I-218750J0D01*
G01*
X200581250Y-88775000D01*
G75*
G02*
X200362500Y-88556250I0J218750D01*
G01*
X200362500Y-88043750D01*
G75*
G02*
X200581250Y-87825000I218750J0D01*
G01*
X201018750Y-87825000D01*
G75*
G02*
X201237500Y-88043750I0J-218750D01*
G01*
G37*
G36*
G01*
X240656250Y-74562500D02*
X240143750Y-74562500D01*
G75*
G02*
X239925000Y-74343750I0J218750D01*
G01*
X239925000Y-73906250D01*
G75*
G02*
X240143750Y-73687500I218750J0D01*
G01*
X240656250Y-73687500D01*
G75*
G02*
X240875000Y-73906250I0J-218750D01*
G01*
X240875000Y-74343750D01*
G75*
G02*
X240656250Y-74562500I-218750J0D01*
G01*
G37*
G36*
G01*
X240656250Y-76137500D02*
X240143750Y-76137500D01*
G75*
G02*
X239925000Y-75918750I0J218750D01*
G01*
X239925000Y-75481250D01*
G75*
G02*
X240143750Y-75262500I218750J0D01*
G01*
X240656250Y-75262500D01*
G75*
G02*
X240875000Y-75481250I0J-218750D01*
G01*
X240875000Y-75918750D01*
G75*
G02*
X240656250Y-76137500I-218750J0D01*
G01*
G37*
G36*
G01*
X205037500Y-90143750D02*
X205037500Y-90656250D01*
G75*
G02*
X204818750Y-90875000I-218750J0D01*
G01*
X204381250Y-90875000D01*
G75*
G02*
X204162500Y-90656250I0J218750D01*
G01*
X204162500Y-90143750D01*
G75*
G02*
X204381250Y-89925000I218750J0D01*
G01*
X204818750Y-89925000D01*
G75*
G02*
X205037500Y-90143750I0J-218750D01*
G01*
G37*
G36*
G01*
X206612500Y-90143750D02*
X206612500Y-90656250D01*
G75*
G02*
X206393750Y-90875000I-218750J0D01*
G01*
X205956250Y-90875000D01*
G75*
G02*
X205737500Y-90656250I0J218750D01*
G01*
X205737500Y-90143750D01*
G75*
G02*
X205956250Y-89925000I218750J0D01*
G01*
X206393750Y-89925000D01*
G75*
G02*
X206612500Y-90143750I0J-218750D01*
G01*
G37*
G36*
G01*
X245643750Y-77862500D02*
X246156250Y-77862500D01*
G75*
G02*
X246375000Y-78081250I0J-218750D01*
G01*
X246375000Y-78518750D01*
G75*
G02*
X246156250Y-78737500I-218750J0D01*
G01*
X245643750Y-78737500D01*
G75*
G02*
X245425000Y-78518750I0J218750D01*
G01*
X245425000Y-78081250D01*
G75*
G02*
X245643750Y-77862500I218750J0D01*
G01*
G37*
G36*
G01*
X245643750Y-76287500D02*
X246156250Y-76287500D01*
G75*
G02*
X246375000Y-76506250I0J-218750D01*
G01*
X246375000Y-76943750D01*
G75*
G02*
X246156250Y-77162500I-218750J0D01*
G01*
X245643750Y-77162500D01*
G75*
G02*
X245425000Y-76943750I0J218750D01*
G01*
X245425000Y-76506250D01*
G75*
G02*
X245643750Y-76287500I218750J0D01*
G01*
G37*
G36*
G01*
X63850000Y-67312250D02*
X63850000Y-66799750D01*
G75*
G02*
X64068750Y-66581000I218750J0D01*
G01*
X64506250Y-66581000D01*
G75*
G02*
X64725000Y-66799750I0J-218750D01*
G01*
X64725000Y-67312250D01*
G75*
G02*
X64506250Y-67531000I-218750J0D01*
G01*
X64068750Y-67531000D01*
G75*
G02*
X63850000Y-67312250I0J218750D01*
G01*
G37*
G36*
G01*
X62275000Y-67312250D02*
X62275000Y-66799750D01*
G75*
G02*
X62493750Y-66581000I218750J0D01*
G01*
X62931250Y-66581000D01*
G75*
G02*
X63150000Y-66799750I0J-218750D01*
G01*
X63150000Y-67312250D01*
G75*
G02*
X62931250Y-67531000I-218750J0D01*
G01*
X62493750Y-67531000D01*
G75*
G02*
X62275000Y-67312250I0J218750D01*
G01*
G37*
G36*
G01*
X62072000Y-65534250D02*
X62072000Y-65021750D01*
G75*
G02*
X62290750Y-64803000I218750J0D01*
G01*
X62728250Y-64803000D01*
G75*
G02*
X62947000Y-65021750I0J-218750D01*
G01*
X62947000Y-65534250D01*
G75*
G02*
X62728250Y-65753000I-218750J0D01*
G01*
X62290750Y-65753000D01*
G75*
G02*
X62072000Y-65534250I0J218750D01*
G01*
G37*
G36*
G01*
X60497000Y-65534250D02*
X60497000Y-65021750D01*
G75*
G02*
X60715750Y-64803000I218750J0D01*
G01*
X61153250Y-64803000D01*
G75*
G02*
X61372000Y-65021750I0J-218750D01*
G01*
X61372000Y-65534250D01*
G75*
G02*
X61153250Y-65753000I-218750J0D01*
G01*
X60715750Y-65753000D01*
G75*
G02*
X60497000Y-65534250I0J218750D01*
G01*
G37*
G36*
G01*
X171450000Y-105743750D02*
X171450000Y-106256250D01*
G75*
G02*
X171231250Y-106475000I-218750J0D01*
G01*
X170793750Y-106475000D01*
G75*
G02*
X170575000Y-106256250I0J218750D01*
G01*
X170575000Y-105743750D01*
G75*
G02*
X170793750Y-105525000I218750J0D01*
G01*
X171231250Y-105525000D01*
G75*
G02*
X171450000Y-105743750I0J-218750D01*
G01*
G37*
G36*
G01*
X173025000Y-105743750D02*
X173025000Y-106256250D01*
G75*
G02*
X172806250Y-106475000I-218750J0D01*
G01*
X172368750Y-106475000D01*
G75*
G02*
X172150000Y-106256250I0J218750D01*
G01*
X172150000Y-105743750D01*
G75*
G02*
X172368750Y-105525000I218750J0D01*
G01*
X172806250Y-105525000D01*
G75*
G02*
X173025000Y-105743750I0J-218750D01*
G01*
G37*
G36*
G01*
X177267500Y-94643750D02*
X177267500Y-95156250D01*
G75*
G02*
X177048750Y-95375000I-218750J0D01*
G01*
X176611250Y-95375000D01*
G75*
G02*
X176392500Y-95156250I0J218750D01*
G01*
X176392500Y-94643750D01*
G75*
G02*
X176611250Y-94425000I218750J0D01*
G01*
X177048750Y-94425000D01*
G75*
G02*
X177267500Y-94643750I0J-218750D01*
G01*
G37*
G36*
G01*
X175692500Y-94643750D02*
X175692500Y-95156250D01*
G75*
G02*
X175473750Y-95375000I-218750J0D01*
G01*
X175036250Y-95375000D01*
G75*
G02*
X174817500Y-95156250I0J218750D01*
G01*
X174817500Y-94643750D01*
G75*
G02*
X175036250Y-94425000I218750J0D01*
G01*
X175473750Y-94425000D01*
G75*
G02*
X175692500Y-94643750I0J-218750D01*
G01*
G37*
G36*
G01*
X163487500Y-94993750D02*
X163487500Y-95506250D01*
G75*
G02*
X163268750Y-95725000I-218750J0D01*
G01*
X162831250Y-95725000D01*
G75*
G02*
X162612500Y-95506250I0J218750D01*
G01*
X162612500Y-94993750D01*
G75*
G02*
X162831250Y-94775000I218750J0D01*
G01*
X163268750Y-94775000D01*
G75*
G02*
X163487500Y-94993750I0J-218750D01*
G01*
G37*
G36*
G01*
X165062500Y-94993750D02*
X165062500Y-95506250D01*
G75*
G02*
X164843750Y-95725000I-218750J0D01*
G01*
X164406250Y-95725000D01*
G75*
G02*
X164187500Y-95506250I0J218750D01*
G01*
X164187500Y-94993750D01*
G75*
G02*
X164406250Y-94775000I218750J0D01*
G01*
X164843750Y-94775000D01*
G75*
G02*
X165062500Y-94993750I0J-218750D01*
G01*
G37*
G36*
G01*
X110006250Y-75312500D02*
X109493750Y-75312500D01*
G75*
G02*
X109275000Y-75093750I0J218750D01*
G01*
X109275000Y-74656250D01*
G75*
G02*
X109493750Y-74437500I218750J0D01*
G01*
X110006250Y-74437500D01*
G75*
G02*
X110225000Y-74656250I0J-218750D01*
G01*
X110225000Y-75093750D01*
G75*
G02*
X110006250Y-75312500I-218750J0D01*
G01*
G37*
G36*
G01*
X110006250Y-76887500D02*
X109493750Y-76887500D01*
G75*
G02*
X109275000Y-76668750I0J218750D01*
G01*
X109275000Y-76231250D01*
G75*
G02*
X109493750Y-76012500I218750J0D01*
G01*
X110006250Y-76012500D01*
G75*
G02*
X110225000Y-76231250I0J-218750D01*
G01*
X110225000Y-76668750D01*
G75*
G02*
X110006250Y-76887500I-218750J0D01*
G01*
G37*
G36*
G01*
X107216250Y-73465000D02*
X106703750Y-73465000D01*
G75*
G02*
X106485000Y-73246250I0J218750D01*
G01*
X106485000Y-72808750D01*
G75*
G02*
X106703750Y-72590000I218750J0D01*
G01*
X107216250Y-72590000D01*
G75*
G02*
X107435000Y-72808750I0J-218750D01*
G01*
X107435000Y-73246250D01*
G75*
G02*
X107216250Y-73465000I-218750J0D01*
G01*
G37*
G36*
G01*
X107216250Y-71890000D02*
X106703750Y-71890000D01*
G75*
G02*
X106485000Y-71671250I0J218750D01*
G01*
X106485000Y-71233750D01*
G75*
G02*
X106703750Y-71015000I218750J0D01*
G01*
X107216250Y-71015000D01*
G75*
G02*
X107435000Y-71233750I0J-218750D01*
G01*
X107435000Y-71671250D01*
G75*
G02*
X107216250Y-71890000I-218750J0D01*
G01*
G37*
G36*
G01*
X113987500Y-56593750D02*
X113987500Y-57106250D01*
G75*
G02*
X113768750Y-57325000I-218750J0D01*
G01*
X113331250Y-57325000D01*
G75*
G02*
X113112500Y-57106250I0J218750D01*
G01*
X113112500Y-56593750D01*
G75*
G02*
X113331250Y-56375000I218750J0D01*
G01*
X113768750Y-56375000D01*
G75*
G02*
X113987500Y-56593750I0J-218750D01*
G01*
G37*
G36*
G01*
X112412500Y-56593750D02*
X112412500Y-57106250D01*
G75*
G02*
X112193750Y-57325000I-218750J0D01*
G01*
X111756250Y-57325000D01*
G75*
G02*
X111537500Y-57106250I0J218750D01*
G01*
X111537500Y-56593750D01*
G75*
G02*
X111756250Y-56375000I218750J0D01*
G01*
X112193750Y-56375000D01*
G75*
G02*
X112412500Y-56593750I0J-218750D01*
G01*
G37*
G36*
G01*
X118843750Y-55412500D02*
X119356250Y-55412500D01*
G75*
G02*
X119575000Y-55631250I0J-218750D01*
G01*
X119575000Y-56068750D01*
G75*
G02*
X119356250Y-56287500I-218750J0D01*
G01*
X118843750Y-56287500D01*
G75*
G02*
X118625000Y-56068750I0J218750D01*
G01*
X118625000Y-55631250D01*
G75*
G02*
X118843750Y-55412500I218750J0D01*
G01*
G37*
G36*
G01*
X118843750Y-53837500D02*
X119356250Y-53837500D01*
G75*
G02*
X119575000Y-54056250I0J-218750D01*
G01*
X119575000Y-54493750D01*
G75*
G02*
X119356250Y-54712500I-218750J0D01*
G01*
X118843750Y-54712500D01*
G75*
G02*
X118625000Y-54493750I0J218750D01*
G01*
X118625000Y-54056250D01*
G75*
G02*
X118843750Y-53837500I218750J0D01*
G01*
G37*
D27*
X112950000Y-68550000D03*
X112450000Y-68550000D03*
X111950000Y-68550000D03*
X111450000Y-68550000D03*
X110950000Y-68550000D03*
X110950000Y-72850000D03*
X111450000Y-72850000D03*
X111950000Y-72850000D03*
X112450000Y-72850000D03*
X112950000Y-72850000D03*
D28*
X200600000Y-83250000D03*
X200600000Y-85150000D03*
X202600000Y-84200000D03*
X242400000Y-85150000D03*
X244400000Y-84200000D03*
X244400000Y-86100000D03*
D23*
X209500000Y-81700000D03*
X208550000Y-79700000D03*
X210450000Y-79700000D03*
D28*
X235000000Y-81150000D03*
X235000000Y-83050000D03*
X237000000Y-82100000D03*
D23*
X209050000Y-76100000D03*
X207150000Y-76100000D03*
X208100000Y-78100000D03*
D28*
X237100000Y-78350000D03*
X235100000Y-79300000D03*
X235100000Y-77400000D03*
D23*
X204550000Y-88800000D03*
X206450000Y-88800000D03*
X205500000Y-86800000D03*
D28*
X244100000Y-78250000D03*
X244100000Y-76350000D03*
X242100000Y-77300000D03*
X168050000Y-102800000D03*
X166050000Y-103750000D03*
X166050000Y-101850000D03*
X168250000Y-97600000D03*
X166250000Y-98550000D03*
X166250000Y-96650000D03*
G36*
G01*
X220700000Y-78955000D02*
X220700000Y-79255000D01*
G75*
G02*
X220550000Y-79405000I-150000J0D01*
G01*
X218900000Y-79405000D01*
G75*
G02*
X218750000Y-79255000I0J150000D01*
G01*
X218750000Y-78955000D01*
G75*
G02*
X218900000Y-78805000I150000J0D01*
G01*
X220550000Y-78805000D01*
G75*
G02*
X220700000Y-78955000I0J-150000D01*
G01*
G37*
G36*
G01*
X220700000Y-77685000D02*
X220700000Y-77985000D01*
G75*
G02*
X220550000Y-78135000I-150000J0D01*
G01*
X218900000Y-78135000D01*
G75*
G02*
X218750000Y-77985000I0J150000D01*
G01*
X218750000Y-77685000D01*
G75*
G02*
X218900000Y-77535000I150000J0D01*
G01*
X220550000Y-77535000D01*
G75*
G02*
X220700000Y-77685000I0J-150000D01*
G01*
G37*
G36*
G01*
X220700000Y-76415000D02*
X220700000Y-76715000D01*
G75*
G02*
X220550000Y-76865000I-150000J0D01*
G01*
X218900000Y-76865000D01*
G75*
G02*
X218750000Y-76715000I0J150000D01*
G01*
X218750000Y-76415000D01*
G75*
G02*
X218900000Y-76265000I150000J0D01*
G01*
X220550000Y-76265000D01*
G75*
G02*
X220700000Y-76415000I0J-150000D01*
G01*
G37*
G36*
G01*
X220700000Y-75145000D02*
X220700000Y-75445000D01*
G75*
G02*
X220550000Y-75595000I-150000J0D01*
G01*
X218900000Y-75595000D01*
G75*
G02*
X218750000Y-75445000I0J150000D01*
G01*
X218750000Y-75145000D01*
G75*
G02*
X218900000Y-74995000I150000J0D01*
G01*
X220550000Y-74995000D01*
G75*
G02*
X220700000Y-75145000I0J-150000D01*
G01*
G37*
G36*
G01*
X225650000Y-75145000D02*
X225650000Y-75445000D01*
G75*
G02*
X225500000Y-75595000I-150000J0D01*
G01*
X223850000Y-75595000D01*
G75*
G02*
X223700000Y-75445000I0J150000D01*
G01*
X223700000Y-75145000D01*
G75*
G02*
X223850000Y-74995000I150000J0D01*
G01*
X225500000Y-74995000D01*
G75*
G02*
X225650000Y-75145000I0J-150000D01*
G01*
G37*
G36*
G01*
X225650000Y-76415000D02*
X225650000Y-76715000D01*
G75*
G02*
X225500000Y-76865000I-150000J0D01*
G01*
X223850000Y-76865000D01*
G75*
G02*
X223700000Y-76715000I0J150000D01*
G01*
X223700000Y-76415000D01*
G75*
G02*
X223850000Y-76265000I150000J0D01*
G01*
X225500000Y-76265000D01*
G75*
G02*
X225650000Y-76415000I0J-150000D01*
G01*
G37*
G36*
G01*
X225650000Y-77685000D02*
X225650000Y-77985000D01*
G75*
G02*
X225500000Y-78135000I-150000J0D01*
G01*
X223850000Y-78135000D01*
G75*
G02*
X223700000Y-77985000I0J150000D01*
G01*
X223700000Y-77685000D01*
G75*
G02*
X223850000Y-77535000I150000J0D01*
G01*
X225500000Y-77535000D01*
G75*
G02*
X225650000Y-77685000I0J-150000D01*
G01*
G37*
G36*
G01*
X225650000Y-78955000D02*
X225650000Y-79255000D01*
G75*
G02*
X225500000Y-79405000I-150000J0D01*
G01*
X223850000Y-79405000D01*
G75*
G02*
X223700000Y-79255000I0J150000D01*
G01*
X223700000Y-78955000D01*
G75*
G02*
X223850000Y-78805000I150000J0D01*
G01*
X225500000Y-78805000D01*
G75*
G02*
X225650000Y-78955000I0J-150000D01*
G01*
G37*
G36*
G01*
X205010000Y-97005000D02*
X205010000Y-97305000D01*
G75*
G02*
X204860000Y-97455000I-150000J0D01*
G01*
X203210000Y-97455000D01*
G75*
G02*
X203060000Y-97305000I0J150000D01*
G01*
X203060000Y-97005000D01*
G75*
G02*
X203210000Y-96855000I150000J0D01*
G01*
X204860000Y-96855000D01*
G75*
G02*
X205010000Y-97005000I0J-150000D01*
G01*
G37*
G36*
G01*
X205010000Y-95735000D02*
X205010000Y-96035000D01*
G75*
G02*
X204860000Y-96185000I-150000J0D01*
G01*
X203210000Y-96185000D01*
G75*
G02*
X203060000Y-96035000I0J150000D01*
G01*
X203060000Y-95735000D01*
G75*
G02*
X203210000Y-95585000I150000J0D01*
G01*
X204860000Y-95585000D01*
G75*
G02*
X205010000Y-95735000I0J-150000D01*
G01*
G37*
G36*
G01*
X205010000Y-94465000D02*
X205010000Y-94765000D01*
G75*
G02*
X204860000Y-94915000I-150000J0D01*
G01*
X203210000Y-94915000D01*
G75*
G02*
X203060000Y-94765000I0J150000D01*
G01*
X203060000Y-94465000D01*
G75*
G02*
X203210000Y-94315000I150000J0D01*
G01*
X204860000Y-94315000D01*
G75*
G02*
X205010000Y-94465000I0J-150000D01*
G01*
G37*
G36*
G01*
X205010000Y-93195000D02*
X205010000Y-93495000D01*
G75*
G02*
X204860000Y-93645000I-150000J0D01*
G01*
X203210000Y-93645000D01*
G75*
G02*
X203060000Y-93495000I0J150000D01*
G01*
X203060000Y-93195000D01*
G75*
G02*
X203210000Y-93045000I150000J0D01*
G01*
X204860000Y-93045000D01*
G75*
G02*
X205010000Y-93195000I0J-150000D01*
G01*
G37*
G36*
G01*
X200060000Y-93195000D02*
X200060000Y-93495000D01*
G75*
G02*
X199910000Y-93645000I-150000J0D01*
G01*
X198260000Y-93645000D01*
G75*
G02*
X198110000Y-93495000I0J150000D01*
G01*
X198110000Y-93195000D01*
G75*
G02*
X198260000Y-93045000I150000J0D01*
G01*
X199910000Y-93045000D01*
G75*
G02*
X200060000Y-93195000I0J-150000D01*
G01*
G37*
G36*
G01*
X200060000Y-94465000D02*
X200060000Y-94765000D01*
G75*
G02*
X199910000Y-94915000I-150000J0D01*
G01*
X198260000Y-94915000D01*
G75*
G02*
X198110000Y-94765000I0J150000D01*
G01*
X198110000Y-94465000D01*
G75*
G02*
X198260000Y-94315000I150000J0D01*
G01*
X199910000Y-94315000D01*
G75*
G02*
X200060000Y-94465000I0J-150000D01*
G01*
G37*
G36*
G01*
X200060000Y-95735000D02*
X200060000Y-96035000D01*
G75*
G02*
X199910000Y-96185000I-150000J0D01*
G01*
X198260000Y-96185000D01*
G75*
G02*
X198110000Y-96035000I0J150000D01*
G01*
X198110000Y-95735000D01*
G75*
G02*
X198260000Y-95585000I150000J0D01*
G01*
X199910000Y-95585000D01*
G75*
G02*
X200060000Y-95735000I0J-150000D01*
G01*
G37*
G36*
G01*
X200060000Y-97005000D02*
X200060000Y-97305000D01*
G75*
G02*
X199910000Y-97455000I-150000J0D01*
G01*
X198260000Y-97455000D01*
G75*
G02*
X198110000Y-97305000I0J150000D01*
G01*
X198110000Y-97005000D01*
G75*
G02*
X198260000Y-96855000I150000J0D01*
G01*
X199910000Y-96855000D01*
G75*
G02*
X200060000Y-97005000I0J-150000D01*
G01*
G37*
G36*
G01*
X212335000Y-101233750D02*
X212335000Y-101746250D01*
G75*
G02*
X212116250Y-101965000I-218750J0D01*
G01*
X211678750Y-101965000D01*
G75*
G02*
X211460000Y-101746250I0J218750D01*
G01*
X211460000Y-101233750D01*
G75*
G02*
X211678750Y-101015000I218750J0D01*
G01*
X212116250Y-101015000D01*
G75*
G02*
X212335000Y-101233750I0J-218750D01*
G01*
G37*
G36*
G01*
X210760000Y-101233750D02*
X210760000Y-101746250D01*
G75*
G02*
X210541250Y-101965000I-218750J0D01*
G01*
X210103750Y-101965000D01*
G75*
G02*
X209885000Y-101746250I0J218750D01*
G01*
X209885000Y-101233750D01*
G75*
G02*
X210103750Y-101015000I218750J0D01*
G01*
X210541250Y-101015000D01*
G75*
G02*
X210760000Y-101233750I0J-218750D01*
G01*
G37*
G36*
G01*
X205372500Y-101818750D02*
X205372500Y-102331250D01*
G75*
G02*
X205153750Y-102550000I-218750J0D01*
G01*
X204716250Y-102550000D01*
G75*
G02*
X204497500Y-102331250I0J218750D01*
G01*
X204497500Y-101818750D01*
G75*
G02*
X204716250Y-101600000I218750J0D01*
G01*
X205153750Y-101600000D01*
G75*
G02*
X205372500Y-101818750I0J-218750D01*
G01*
G37*
G36*
G01*
X206947500Y-101818750D02*
X206947500Y-102331250D01*
G75*
G02*
X206728750Y-102550000I-218750J0D01*
G01*
X206291250Y-102550000D01*
G75*
G02*
X206072500Y-102331250I0J218750D01*
G01*
X206072500Y-101818750D01*
G75*
G02*
X206291250Y-101600000I218750J0D01*
G01*
X206728750Y-101600000D01*
G75*
G02*
X206947500Y-101818750I0J-218750D01*
G01*
G37*
G36*
G01*
X199106250Y-80687500D02*
X198593750Y-80687500D01*
G75*
G02*
X198375000Y-80468750I0J218750D01*
G01*
X198375000Y-80031250D01*
G75*
G02*
X198593750Y-79812500I218750J0D01*
G01*
X199106250Y-79812500D01*
G75*
G02*
X199325000Y-80031250I0J-218750D01*
G01*
X199325000Y-80468750D01*
G75*
G02*
X199106250Y-80687500I-218750J0D01*
G01*
G37*
G36*
G01*
X199106250Y-82262500D02*
X198593750Y-82262500D01*
G75*
G02*
X198375000Y-82043750I0J218750D01*
G01*
X198375000Y-81606250D01*
G75*
G02*
X198593750Y-81387500I218750J0D01*
G01*
X199106250Y-81387500D01*
G75*
G02*
X199325000Y-81606250I0J-218750D01*
G01*
X199325000Y-82043750D01*
G75*
G02*
X199106250Y-82262500I-218750J0D01*
G01*
G37*
G36*
G01*
X226445000Y-98622500D02*
X226445000Y-99037500D01*
G75*
G02*
X226237500Y-99245000I-207500J0D01*
G01*
X225822500Y-99245000D01*
G75*
G02*
X225615000Y-99037500I0J207500D01*
G01*
X225615000Y-98622500D01*
G75*
G02*
X225822500Y-98415000I207500J0D01*
G01*
X226237500Y-98415000D01*
G75*
G02*
X226445000Y-98622500I0J-207500D01*
G01*
G37*
G36*
G01*
X226445000Y-97592500D02*
X226445000Y-98007500D01*
G75*
G02*
X226237500Y-98215000I-207500J0D01*
G01*
X225822500Y-98215000D01*
G75*
G02*
X225615000Y-98007500I0J207500D01*
G01*
X225615000Y-97592500D01*
G75*
G02*
X225822500Y-97385000I207500J0D01*
G01*
X226237500Y-97385000D01*
G75*
G02*
X226445000Y-97592500I0J-207500D01*
G01*
G37*
G36*
G01*
X226445000Y-96562500D02*
X226445000Y-96977500D01*
G75*
G02*
X226237500Y-97185000I-207500J0D01*
G01*
X225822500Y-97185000D01*
G75*
G02*
X225615000Y-96977500I0J207500D01*
G01*
X225615000Y-96562500D01*
G75*
G02*
X225822500Y-96355000I207500J0D01*
G01*
X226237500Y-96355000D01*
G75*
G02*
X226445000Y-96562500I0J-207500D01*
G01*
G37*
G36*
G01*
X225415000Y-98622500D02*
X225415000Y-99037500D01*
G75*
G02*
X225207500Y-99245000I-207500J0D01*
G01*
X224792500Y-99245000D01*
G75*
G02*
X224585000Y-99037500I0J207500D01*
G01*
X224585000Y-98622500D01*
G75*
G02*
X224792500Y-98415000I207500J0D01*
G01*
X225207500Y-98415000D01*
G75*
G02*
X225415000Y-98622500I0J-207500D01*
G01*
G37*
G36*
G01*
X225415000Y-97592500D02*
X225415000Y-98007500D01*
G75*
G02*
X225207500Y-98215000I-207500J0D01*
G01*
X224792500Y-98215000D01*
G75*
G02*
X224585000Y-98007500I0J207500D01*
G01*
X224585000Y-97592500D01*
G75*
G02*
X224792500Y-97385000I207500J0D01*
G01*
X225207500Y-97385000D01*
G75*
G02*
X225415000Y-97592500I0J-207500D01*
G01*
G37*
G36*
G01*
X225415000Y-96562500D02*
X225415000Y-96977500D01*
G75*
G02*
X225207500Y-97185000I-207500J0D01*
G01*
X224792500Y-97185000D01*
G75*
G02*
X224585000Y-96977500I0J207500D01*
G01*
X224585000Y-96562500D01*
G75*
G02*
X224792500Y-96355000I207500J0D01*
G01*
X225207500Y-96355000D01*
G75*
G02*
X225415000Y-96562500I0J-207500D01*
G01*
G37*
G36*
G01*
X224385000Y-98622500D02*
X224385000Y-99037500D01*
G75*
G02*
X224177500Y-99245000I-207500J0D01*
G01*
X223762500Y-99245000D01*
G75*
G02*
X223555000Y-99037500I0J207500D01*
G01*
X223555000Y-98622500D01*
G75*
G02*
X223762500Y-98415000I207500J0D01*
G01*
X224177500Y-98415000D01*
G75*
G02*
X224385000Y-98622500I0J-207500D01*
G01*
G37*
G36*
G01*
X224385000Y-97592500D02*
X224385000Y-98007500D01*
G75*
G02*
X224177500Y-98215000I-207500J0D01*
G01*
X223762500Y-98215000D01*
G75*
G02*
X223555000Y-98007500I0J207500D01*
G01*
X223555000Y-97592500D01*
G75*
G02*
X223762500Y-97385000I207500J0D01*
G01*
X224177500Y-97385000D01*
G75*
G02*
X224385000Y-97592500I0J-207500D01*
G01*
G37*
G36*
G01*
X224385000Y-96562500D02*
X224385000Y-96977500D01*
G75*
G02*
X224177500Y-97185000I-207500J0D01*
G01*
X223762500Y-97185000D01*
G75*
G02*
X223555000Y-96977500I0J207500D01*
G01*
X223555000Y-96562500D01*
G75*
G02*
X223762500Y-96355000I207500J0D01*
G01*
X224177500Y-96355000D01*
G75*
G02*
X224385000Y-96562500I0J-207500D01*
G01*
G37*
G36*
G01*
X227875000Y-99487500D02*
X227875000Y-99612500D01*
G75*
G02*
X227812500Y-99675000I-62500J0D01*
G01*
X227062500Y-99675000D01*
G75*
G02*
X227000000Y-99612500I0J62500D01*
G01*
X227000000Y-99487500D01*
G75*
G02*
X227062500Y-99425000I62500J0D01*
G01*
X227812500Y-99425000D01*
G75*
G02*
X227875000Y-99487500I0J-62500D01*
G01*
G37*
G36*
G01*
X227875000Y-98987500D02*
X227875000Y-99112500D01*
G75*
G02*
X227812500Y-99175000I-62500J0D01*
G01*
X227062500Y-99175000D01*
G75*
G02*
X227000000Y-99112500I0J62500D01*
G01*
X227000000Y-98987500D01*
G75*
G02*
X227062500Y-98925000I62500J0D01*
G01*
X227812500Y-98925000D01*
G75*
G02*
X227875000Y-98987500I0J-62500D01*
G01*
G37*
G36*
G01*
X227875000Y-98487500D02*
X227875000Y-98612500D01*
G75*
G02*
X227812500Y-98675000I-62500J0D01*
G01*
X227062500Y-98675000D01*
G75*
G02*
X227000000Y-98612500I0J62500D01*
G01*
X227000000Y-98487500D01*
G75*
G02*
X227062500Y-98425000I62500J0D01*
G01*
X227812500Y-98425000D01*
G75*
G02*
X227875000Y-98487500I0J-62500D01*
G01*
G37*
G36*
G01*
X227875000Y-97987500D02*
X227875000Y-98112500D01*
G75*
G02*
X227812500Y-98175000I-62500J0D01*
G01*
X227062500Y-98175000D01*
G75*
G02*
X227000000Y-98112500I0J62500D01*
G01*
X227000000Y-97987500D01*
G75*
G02*
X227062500Y-97925000I62500J0D01*
G01*
X227812500Y-97925000D01*
G75*
G02*
X227875000Y-97987500I0J-62500D01*
G01*
G37*
G36*
G01*
X227875000Y-97487500D02*
X227875000Y-97612500D01*
G75*
G02*
X227812500Y-97675000I-62500J0D01*
G01*
X227062500Y-97675000D01*
G75*
G02*
X227000000Y-97612500I0J62500D01*
G01*
X227000000Y-97487500D01*
G75*
G02*
X227062500Y-97425000I62500J0D01*
G01*
X227812500Y-97425000D01*
G75*
G02*
X227875000Y-97487500I0J-62500D01*
G01*
G37*
G36*
G01*
X227875000Y-96987500D02*
X227875000Y-97112500D01*
G75*
G02*
X227812500Y-97175000I-62500J0D01*
G01*
X227062500Y-97175000D01*
G75*
G02*
X227000000Y-97112500I0J62500D01*
G01*
X227000000Y-96987500D01*
G75*
G02*
X227062500Y-96925000I62500J0D01*
G01*
X227812500Y-96925000D01*
G75*
G02*
X227875000Y-96987500I0J-62500D01*
G01*
G37*
G36*
G01*
X227875000Y-96487500D02*
X227875000Y-96612500D01*
G75*
G02*
X227812500Y-96675000I-62500J0D01*
G01*
X227062500Y-96675000D01*
G75*
G02*
X227000000Y-96612500I0J62500D01*
G01*
X227000000Y-96487500D01*
G75*
G02*
X227062500Y-96425000I62500J0D01*
G01*
X227812500Y-96425000D01*
G75*
G02*
X227875000Y-96487500I0J-62500D01*
G01*
G37*
G36*
G01*
X227875000Y-95987500D02*
X227875000Y-96112500D01*
G75*
G02*
X227812500Y-96175000I-62500J0D01*
G01*
X227062500Y-96175000D01*
G75*
G02*
X227000000Y-96112500I0J62500D01*
G01*
X227000000Y-95987500D01*
G75*
G02*
X227062500Y-95925000I62500J0D01*
G01*
X227812500Y-95925000D01*
G75*
G02*
X227875000Y-95987500I0J-62500D01*
G01*
G37*
G36*
G01*
X226875000Y-94987500D02*
X226875000Y-95737500D01*
G75*
G02*
X226812500Y-95800000I-62500J0D01*
G01*
X226687500Y-95800000D01*
G75*
G02*
X226625000Y-95737500I0J62500D01*
G01*
X226625000Y-94987500D01*
G75*
G02*
X226687500Y-94925000I62500J0D01*
G01*
X226812500Y-94925000D01*
G75*
G02*
X226875000Y-94987500I0J-62500D01*
G01*
G37*
G36*
G01*
X226375000Y-94987500D02*
X226375000Y-95737500D01*
G75*
G02*
X226312500Y-95800000I-62500J0D01*
G01*
X226187500Y-95800000D01*
G75*
G02*
X226125000Y-95737500I0J62500D01*
G01*
X226125000Y-94987500D01*
G75*
G02*
X226187500Y-94925000I62500J0D01*
G01*
X226312500Y-94925000D01*
G75*
G02*
X226375000Y-94987500I0J-62500D01*
G01*
G37*
G36*
G01*
X225875000Y-94987500D02*
X225875000Y-95737500D01*
G75*
G02*
X225812500Y-95800000I-62500J0D01*
G01*
X225687500Y-95800000D01*
G75*
G02*
X225625000Y-95737500I0J62500D01*
G01*
X225625000Y-94987500D01*
G75*
G02*
X225687500Y-94925000I62500J0D01*
G01*
X225812500Y-94925000D01*
G75*
G02*
X225875000Y-94987500I0J-62500D01*
G01*
G37*
G36*
G01*
X225375000Y-94987500D02*
X225375000Y-95737500D01*
G75*
G02*
X225312500Y-95800000I-62500J0D01*
G01*
X225187500Y-95800000D01*
G75*
G02*
X225125000Y-95737500I0J62500D01*
G01*
X225125000Y-94987500D01*
G75*
G02*
X225187500Y-94925000I62500J0D01*
G01*
X225312500Y-94925000D01*
G75*
G02*
X225375000Y-94987500I0J-62500D01*
G01*
G37*
G36*
G01*
X224875000Y-94987500D02*
X224875000Y-95737500D01*
G75*
G02*
X224812500Y-95800000I-62500J0D01*
G01*
X224687500Y-95800000D01*
G75*
G02*
X224625000Y-95737500I0J62500D01*
G01*
X224625000Y-94987500D01*
G75*
G02*
X224687500Y-94925000I62500J0D01*
G01*
X224812500Y-94925000D01*
G75*
G02*
X224875000Y-94987500I0J-62500D01*
G01*
G37*
G36*
G01*
X224375000Y-94987500D02*
X224375000Y-95737500D01*
G75*
G02*
X224312500Y-95800000I-62500J0D01*
G01*
X224187500Y-95800000D01*
G75*
G02*
X224125000Y-95737500I0J62500D01*
G01*
X224125000Y-94987500D01*
G75*
G02*
X224187500Y-94925000I62500J0D01*
G01*
X224312500Y-94925000D01*
G75*
G02*
X224375000Y-94987500I0J-62500D01*
G01*
G37*
G36*
G01*
X223875000Y-94987500D02*
X223875000Y-95737500D01*
G75*
G02*
X223812500Y-95800000I-62500J0D01*
G01*
X223687500Y-95800000D01*
G75*
G02*
X223625000Y-95737500I0J62500D01*
G01*
X223625000Y-94987500D01*
G75*
G02*
X223687500Y-94925000I62500J0D01*
G01*
X223812500Y-94925000D01*
G75*
G02*
X223875000Y-94987500I0J-62500D01*
G01*
G37*
G36*
G01*
X223375000Y-94987500D02*
X223375000Y-95737500D01*
G75*
G02*
X223312500Y-95800000I-62500J0D01*
G01*
X223187500Y-95800000D01*
G75*
G02*
X223125000Y-95737500I0J62500D01*
G01*
X223125000Y-94987500D01*
G75*
G02*
X223187500Y-94925000I62500J0D01*
G01*
X223312500Y-94925000D01*
G75*
G02*
X223375000Y-94987500I0J-62500D01*
G01*
G37*
G36*
G01*
X223000000Y-95987500D02*
X223000000Y-96112500D01*
G75*
G02*
X222937500Y-96175000I-62500J0D01*
G01*
X222187500Y-96175000D01*
G75*
G02*
X222125000Y-96112500I0J62500D01*
G01*
X222125000Y-95987500D01*
G75*
G02*
X222187500Y-95925000I62500J0D01*
G01*
X222937500Y-95925000D01*
G75*
G02*
X223000000Y-95987500I0J-62500D01*
G01*
G37*
G36*
G01*
X223000000Y-96487500D02*
X223000000Y-96612500D01*
G75*
G02*
X222937500Y-96675000I-62500J0D01*
G01*
X222187500Y-96675000D01*
G75*
G02*
X222125000Y-96612500I0J62500D01*
G01*
X222125000Y-96487500D01*
G75*
G02*
X222187500Y-96425000I62500J0D01*
G01*
X222937500Y-96425000D01*
G75*
G02*
X223000000Y-96487500I0J-62500D01*
G01*
G37*
G36*
G01*
X223000000Y-96987500D02*
X223000000Y-97112500D01*
G75*
G02*
X222937500Y-97175000I-62500J0D01*
G01*
X222187500Y-97175000D01*
G75*
G02*
X222125000Y-97112500I0J62500D01*
G01*
X222125000Y-96987500D01*
G75*
G02*
X222187500Y-96925000I62500J0D01*
G01*
X222937500Y-96925000D01*
G75*
G02*
X223000000Y-96987500I0J-62500D01*
G01*
G37*
G36*
G01*
X223000000Y-97487500D02*
X223000000Y-97612500D01*
G75*
G02*
X222937500Y-97675000I-62500J0D01*
G01*
X222187500Y-97675000D01*
G75*
G02*
X222125000Y-97612500I0J62500D01*
G01*
X222125000Y-97487500D01*
G75*
G02*
X222187500Y-97425000I62500J0D01*
G01*
X222937500Y-97425000D01*
G75*
G02*
X223000000Y-97487500I0J-62500D01*
G01*
G37*
G36*
G01*
X223000000Y-97987500D02*
X223000000Y-98112500D01*
G75*
G02*
X222937500Y-98175000I-62500J0D01*
G01*
X222187500Y-98175000D01*
G75*
G02*
X222125000Y-98112500I0J62500D01*
G01*
X222125000Y-97987500D01*
G75*
G02*
X222187500Y-97925000I62500J0D01*
G01*
X222937500Y-97925000D01*
G75*
G02*
X223000000Y-97987500I0J-62500D01*
G01*
G37*
G36*
G01*
X223000000Y-98487500D02*
X223000000Y-98612500D01*
G75*
G02*
X222937500Y-98675000I-62500J0D01*
G01*
X222187500Y-98675000D01*
G75*
G02*
X222125000Y-98612500I0J62500D01*
G01*
X222125000Y-98487500D01*
G75*
G02*
X222187500Y-98425000I62500J0D01*
G01*
X222937500Y-98425000D01*
G75*
G02*
X223000000Y-98487500I0J-62500D01*
G01*
G37*
G36*
G01*
X223000000Y-98987500D02*
X223000000Y-99112500D01*
G75*
G02*
X222937500Y-99175000I-62500J0D01*
G01*
X222187500Y-99175000D01*
G75*
G02*
X222125000Y-99112500I0J62500D01*
G01*
X222125000Y-98987500D01*
G75*
G02*
X222187500Y-98925000I62500J0D01*
G01*
X222937500Y-98925000D01*
G75*
G02*
X223000000Y-98987500I0J-62500D01*
G01*
G37*
G36*
G01*
X223000000Y-99487500D02*
X223000000Y-99612500D01*
G75*
G02*
X222937500Y-99675000I-62500J0D01*
G01*
X222187500Y-99675000D01*
G75*
G02*
X222125000Y-99612500I0J62500D01*
G01*
X222125000Y-99487500D01*
G75*
G02*
X222187500Y-99425000I62500J0D01*
G01*
X222937500Y-99425000D01*
G75*
G02*
X223000000Y-99487500I0J-62500D01*
G01*
G37*
G36*
G01*
X223375000Y-99862500D02*
X223375000Y-100612500D01*
G75*
G02*
X223312500Y-100675000I-62500J0D01*
G01*
X223187500Y-100675000D01*
G75*
G02*
X223125000Y-100612500I0J62500D01*
G01*
X223125000Y-99862500D01*
G75*
G02*
X223187500Y-99800000I62500J0D01*
G01*
X223312500Y-99800000D01*
G75*
G02*
X223375000Y-99862500I0J-62500D01*
G01*
G37*
G36*
G01*
X223875000Y-99862500D02*
X223875000Y-100612500D01*
G75*
G02*
X223812500Y-100675000I-62500J0D01*
G01*
X223687500Y-100675000D01*
G75*
G02*
X223625000Y-100612500I0J62500D01*
G01*
X223625000Y-99862500D01*
G75*
G02*
X223687500Y-99800000I62500J0D01*
G01*
X223812500Y-99800000D01*
G75*
G02*
X223875000Y-99862500I0J-62500D01*
G01*
G37*
G36*
G01*
X224375000Y-99862500D02*
X224375000Y-100612500D01*
G75*
G02*
X224312500Y-100675000I-62500J0D01*
G01*
X224187500Y-100675000D01*
G75*
G02*
X224125000Y-100612500I0J62500D01*
G01*
X224125000Y-99862500D01*
G75*
G02*
X224187500Y-99800000I62500J0D01*
G01*
X224312500Y-99800000D01*
G75*
G02*
X224375000Y-99862500I0J-62500D01*
G01*
G37*
G36*
G01*
X224875000Y-99862500D02*
X224875000Y-100612500D01*
G75*
G02*
X224812500Y-100675000I-62500J0D01*
G01*
X224687500Y-100675000D01*
G75*
G02*
X224625000Y-100612500I0J62500D01*
G01*
X224625000Y-99862500D01*
G75*
G02*
X224687500Y-99800000I62500J0D01*
G01*
X224812500Y-99800000D01*
G75*
G02*
X224875000Y-99862500I0J-62500D01*
G01*
G37*
G36*
G01*
X225375000Y-99862500D02*
X225375000Y-100612500D01*
G75*
G02*
X225312500Y-100675000I-62500J0D01*
G01*
X225187500Y-100675000D01*
G75*
G02*
X225125000Y-100612500I0J62500D01*
G01*
X225125000Y-99862500D01*
G75*
G02*
X225187500Y-99800000I62500J0D01*
G01*
X225312500Y-99800000D01*
G75*
G02*
X225375000Y-99862500I0J-62500D01*
G01*
G37*
G36*
G01*
X225875000Y-99862500D02*
X225875000Y-100612500D01*
G75*
G02*
X225812500Y-100675000I-62500J0D01*
G01*
X225687500Y-100675000D01*
G75*
G02*
X225625000Y-100612500I0J62500D01*
G01*
X225625000Y-99862500D01*
G75*
G02*
X225687500Y-99800000I62500J0D01*
G01*
X225812500Y-99800000D01*
G75*
G02*
X225875000Y-99862500I0J-62500D01*
G01*
G37*
G36*
G01*
X226375000Y-99862500D02*
X226375000Y-100612500D01*
G75*
G02*
X226312500Y-100675000I-62500J0D01*
G01*
X226187500Y-100675000D01*
G75*
G02*
X226125000Y-100612500I0J62500D01*
G01*
X226125000Y-99862500D01*
G75*
G02*
X226187500Y-99800000I62500J0D01*
G01*
X226312500Y-99800000D01*
G75*
G02*
X226375000Y-99862500I0J-62500D01*
G01*
G37*
G36*
G01*
X226875000Y-99862500D02*
X226875000Y-100612500D01*
G75*
G02*
X226812500Y-100675000I-62500J0D01*
G01*
X226687500Y-100675000D01*
G75*
G02*
X226625000Y-100612500I0J62500D01*
G01*
X226625000Y-99862500D01*
G75*
G02*
X226687500Y-99800000I62500J0D01*
G01*
X226812500Y-99800000D01*
G75*
G02*
X226875000Y-99862500I0J-62500D01*
G01*
G37*
G36*
G01*
X247956250Y-86512500D02*
X247443750Y-86512500D01*
G75*
G02*
X247225000Y-86293750I0J218750D01*
G01*
X247225000Y-85856250D01*
G75*
G02*
X247443750Y-85637500I218750J0D01*
G01*
X247956250Y-85637500D01*
G75*
G02*
X248175000Y-85856250I0J-218750D01*
G01*
X248175000Y-86293750D01*
G75*
G02*
X247956250Y-86512500I-218750J0D01*
G01*
G37*
G36*
G01*
X247956250Y-84937500D02*
X247443750Y-84937500D01*
G75*
G02*
X247225000Y-84718750I0J218750D01*
G01*
X247225000Y-84281250D01*
G75*
G02*
X247443750Y-84062500I218750J0D01*
G01*
X247956250Y-84062500D01*
G75*
G02*
X248175000Y-84281250I0J-218750D01*
G01*
X248175000Y-84718750D01*
G75*
G02*
X247956250Y-84937500I-218750J0D01*
G01*
G37*
G36*
G01*
X201250000Y-89843750D02*
X201250000Y-90356250D01*
G75*
G02*
X201031250Y-90575000I-218750J0D01*
G01*
X200593750Y-90575000D01*
G75*
G02*
X200375000Y-90356250I0J218750D01*
G01*
X200375000Y-89843750D01*
G75*
G02*
X200593750Y-89625000I218750J0D01*
G01*
X201031250Y-89625000D01*
G75*
G02*
X201250000Y-89843750I0J-218750D01*
G01*
G37*
G36*
G01*
X202825000Y-89843750D02*
X202825000Y-90356250D01*
G75*
G02*
X202606250Y-90575000I-218750J0D01*
G01*
X202168750Y-90575000D01*
G75*
G02*
X201950000Y-90356250I0J218750D01*
G01*
X201950000Y-89843750D01*
G75*
G02*
X202168750Y-89625000I218750J0D01*
G01*
X202606250Y-89625000D01*
G75*
G02*
X202825000Y-89843750I0J-218750D01*
G01*
G37*
G36*
G01*
X247756250Y-77137500D02*
X247243750Y-77137500D01*
G75*
G02*
X247025000Y-76918750I0J218750D01*
G01*
X247025000Y-76481250D01*
G75*
G02*
X247243750Y-76262500I218750J0D01*
G01*
X247756250Y-76262500D01*
G75*
G02*
X247975000Y-76481250I0J-218750D01*
G01*
X247975000Y-76918750D01*
G75*
G02*
X247756250Y-77137500I-218750J0D01*
G01*
G37*
G36*
G01*
X247756250Y-78712500D02*
X247243750Y-78712500D01*
G75*
G02*
X247025000Y-78493750I0J218750D01*
G01*
X247025000Y-78056250D01*
G75*
G02*
X247243750Y-77837500I218750J0D01*
G01*
X247756250Y-77837500D01*
G75*
G02*
X247975000Y-78056250I0J-218750D01*
G01*
X247975000Y-78493750D01*
G75*
G02*
X247756250Y-78712500I-218750J0D01*
G01*
G37*
G36*
G01*
X232695000Y-101123750D02*
X232695000Y-101636250D01*
G75*
G02*
X232476250Y-101855000I-218750J0D01*
G01*
X232038750Y-101855000D01*
G75*
G02*
X231820000Y-101636250I0J218750D01*
G01*
X231820000Y-101123750D01*
G75*
G02*
X232038750Y-100905000I218750J0D01*
G01*
X232476250Y-100905000D01*
G75*
G02*
X232695000Y-101123750I0J-218750D01*
G01*
G37*
G36*
G01*
X234270000Y-101123750D02*
X234270000Y-101636250D01*
G75*
G02*
X234051250Y-101855000I-218750J0D01*
G01*
X233613750Y-101855000D01*
G75*
G02*
X233395000Y-101636250I0J218750D01*
G01*
X233395000Y-101123750D01*
G75*
G02*
X233613750Y-100905000I218750J0D01*
G01*
X234051250Y-100905000D01*
G75*
G02*
X234270000Y-101123750I0J-218750D01*
G01*
G37*
G36*
G01*
X233465000Y-105888750D02*
X233465000Y-106401250D01*
G75*
G02*
X233246250Y-106620000I-218750J0D01*
G01*
X232808750Y-106620000D01*
G75*
G02*
X232590000Y-106401250I0J218750D01*
G01*
X232590000Y-105888750D01*
G75*
G02*
X232808750Y-105670000I218750J0D01*
G01*
X233246250Y-105670000D01*
G75*
G02*
X233465000Y-105888750I0J-218750D01*
G01*
G37*
G36*
G01*
X231890000Y-105888750D02*
X231890000Y-106401250D01*
G75*
G02*
X231671250Y-106620000I-218750J0D01*
G01*
X231233750Y-106620000D01*
G75*
G02*
X231015000Y-106401250I0J218750D01*
G01*
X231015000Y-105888750D01*
G75*
G02*
X231233750Y-105670000I218750J0D01*
G01*
X231671250Y-105670000D01*
G75*
G02*
X231890000Y-105888750I0J-218750D01*
G01*
G37*
G36*
G01*
X105112500Y-118543750D02*
X105112500Y-119056250D01*
G75*
G02*
X104893750Y-119275000I-218750J0D01*
G01*
X104456250Y-119275000D01*
G75*
G02*
X104237500Y-119056250I0J218750D01*
G01*
X104237500Y-118543750D01*
G75*
G02*
X104456250Y-118325000I218750J0D01*
G01*
X104893750Y-118325000D01*
G75*
G02*
X105112500Y-118543750I0J-218750D01*
G01*
G37*
G36*
G01*
X103537500Y-118543750D02*
X103537500Y-119056250D01*
G75*
G02*
X103318750Y-119275000I-218750J0D01*
G01*
X102881250Y-119275000D01*
G75*
G02*
X102662500Y-119056250I0J218750D01*
G01*
X102662500Y-118543750D01*
G75*
G02*
X102881250Y-118325000I218750J0D01*
G01*
X103318750Y-118325000D01*
G75*
G02*
X103537500Y-118543750I0J-218750D01*
G01*
G37*
G36*
G01*
X100083750Y-119972500D02*
X100596250Y-119972500D01*
G75*
G02*
X100815000Y-120191250I0J-218750D01*
G01*
X100815000Y-120628750D01*
G75*
G02*
X100596250Y-120847500I-218750J0D01*
G01*
X100083750Y-120847500D01*
G75*
G02*
X99865000Y-120628750I0J218750D01*
G01*
X99865000Y-120191250D01*
G75*
G02*
X100083750Y-119972500I218750J0D01*
G01*
G37*
G36*
G01*
X100083750Y-118397500D02*
X100596250Y-118397500D01*
G75*
G02*
X100815000Y-118616250I0J-218750D01*
G01*
X100815000Y-119053750D01*
G75*
G02*
X100596250Y-119272500I-218750J0D01*
G01*
X100083750Y-119272500D01*
G75*
G02*
X99865000Y-119053750I0J218750D01*
G01*
X99865000Y-118616250D01*
G75*
G02*
X100083750Y-118397500I218750J0D01*
G01*
G37*
G36*
G01*
X221083750Y-102417500D02*
X221596250Y-102417500D01*
G75*
G02*
X221815000Y-102636250I0J-218750D01*
G01*
X221815000Y-103073750D01*
G75*
G02*
X221596250Y-103292500I-218750J0D01*
G01*
X221083750Y-103292500D01*
G75*
G02*
X220865000Y-103073750I0J218750D01*
G01*
X220865000Y-102636250D01*
G75*
G02*
X221083750Y-102417500I218750J0D01*
G01*
G37*
G36*
G01*
X221083750Y-103992500D02*
X221596250Y-103992500D01*
G75*
G02*
X221815000Y-104211250I0J-218750D01*
G01*
X221815000Y-104648750D01*
G75*
G02*
X221596250Y-104867500I-218750J0D01*
G01*
X221083750Y-104867500D01*
G75*
G02*
X220865000Y-104648750I0J218750D01*
G01*
X220865000Y-104211250D01*
G75*
G02*
X221083750Y-103992500I218750J0D01*
G01*
G37*
G36*
G01*
X231012500Y-104831250D02*
X231012500Y-104318750D01*
G75*
G02*
X231231250Y-104100000I218750J0D01*
G01*
X231668750Y-104100000D01*
G75*
G02*
X231887500Y-104318750I0J-218750D01*
G01*
X231887500Y-104831250D01*
G75*
G02*
X231668750Y-105050000I-218750J0D01*
G01*
X231231250Y-105050000D01*
G75*
G02*
X231012500Y-104831250I0J218750D01*
G01*
G37*
G36*
G01*
X232587500Y-104831250D02*
X232587500Y-104318750D01*
G75*
G02*
X232806250Y-104100000I218750J0D01*
G01*
X233243750Y-104100000D01*
G75*
G02*
X233462500Y-104318750I0J-218750D01*
G01*
X233462500Y-104831250D01*
G75*
G02*
X233243750Y-105050000I-218750J0D01*
G01*
X232806250Y-105050000D01*
G75*
G02*
X232587500Y-104831250I0J218750D01*
G01*
G37*
G36*
G01*
X233425000Y-103206250D02*
X233425000Y-102693750D01*
G75*
G02*
X233643750Y-102475000I218750J0D01*
G01*
X234081250Y-102475000D01*
G75*
G02*
X234300000Y-102693750I0J-218750D01*
G01*
X234300000Y-103206250D01*
G75*
G02*
X234081250Y-103425000I-218750J0D01*
G01*
X233643750Y-103425000D01*
G75*
G02*
X233425000Y-103206250I0J218750D01*
G01*
G37*
G36*
G01*
X231850000Y-103206250D02*
X231850000Y-102693750D01*
G75*
G02*
X232068750Y-102475000I218750J0D01*
G01*
X232506250Y-102475000D01*
G75*
G02*
X232725000Y-102693750I0J-218750D01*
G01*
X232725000Y-103206250D01*
G75*
G02*
X232506250Y-103425000I-218750J0D01*
G01*
X232068750Y-103425000D01*
G75*
G02*
X231850000Y-103206250I0J218750D01*
G01*
G37*
G36*
G01*
X214006250Y-73725000D02*
X213493750Y-73725000D01*
G75*
G02*
X213275000Y-73506250I0J218750D01*
G01*
X213275000Y-73068750D01*
G75*
G02*
X213493750Y-72850000I218750J0D01*
G01*
X214006250Y-72850000D01*
G75*
G02*
X214225000Y-73068750I0J-218750D01*
G01*
X214225000Y-73506250D01*
G75*
G02*
X214006250Y-73725000I-218750J0D01*
G01*
G37*
G36*
G01*
X214006250Y-72150000D02*
X213493750Y-72150000D01*
G75*
G02*
X213275000Y-71931250I0J218750D01*
G01*
X213275000Y-71493750D01*
G75*
G02*
X213493750Y-71275000I218750J0D01*
G01*
X214006250Y-71275000D01*
G75*
G02*
X214225000Y-71493750I0J-218750D01*
G01*
X214225000Y-71931250D01*
G75*
G02*
X214006250Y-72150000I-218750J0D01*
G01*
G37*
G36*
G01*
X228806250Y-69537500D02*
X228293750Y-69537500D01*
G75*
G02*
X228075000Y-69318750I0J218750D01*
G01*
X228075000Y-68881250D01*
G75*
G02*
X228293750Y-68662500I218750J0D01*
G01*
X228806250Y-68662500D01*
G75*
G02*
X229025000Y-68881250I0J-218750D01*
G01*
X229025000Y-69318750D01*
G75*
G02*
X228806250Y-69537500I-218750J0D01*
G01*
G37*
G36*
G01*
X228806250Y-71112500D02*
X228293750Y-71112500D01*
G75*
G02*
X228075000Y-70893750I0J218750D01*
G01*
X228075000Y-70456250D01*
G75*
G02*
X228293750Y-70237500I218750J0D01*
G01*
X228806250Y-70237500D01*
G75*
G02*
X229025000Y-70456250I0J-218750D01*
G01*
X229025000Y-70893750D01*
G75*
G02*
X228806250Y-71112500I-218750J0D01*
G01*
G37*
G36*
G01*
X234787500Y-85156250D02*
X234787500Y-84643750D01*
G75*
G02*
X235006250Y-84425000I218750J0D01*
G01*
X235443750Y-84425000D01*
G75*
G02*
X235662500Y-84643750I0J-218750D01*
G01*
X235662500Y-85156250D01*
G75*
G02*
X235443750Y-85375000I-218750J0D01*
G01*
X235006250Y-85375000D01*
G75*
G02*
X234787500Y-85156250I0J218750D01*
G01*
G37*
G36*
G01*
X236362500Y-85156250D02*
X236362500Y-84643750D01*
G75*
G02*
X236581250Y-84425000I218750J0D01*
G01*
X237018750Y-84425000D01*
G75*
G02*
X237237500Y-84643750I0J-218750D01*
G01*
X237237500Y-85156250D01*
G75*
G02*
X237018750Y-85375000I-218750J0D01*
G01*
X236581250Y-85375000D01*
G75*
G02*
X236362500Y-85156250I0J218750D01*
G01*
G37*
G36*
G01*
X121766250Y-120890000D02*
X121253750Y-120890000D01*
G75*
G02*
X121035000Y-120671250I0J218750D01*
G01*
X121035000Y-120233750D01*
G75*
G02*
X121253750Y-120015000I218750J0D01*
G01*
X121766250Y-120015000D01*
G75*
G02*
X121985000Y-120233750I0J-218750D01*
G01*
X121985000Y-120671250D01*
G75*
G02*
X121766250Y-120890000I-218750J0D01*
G01*
G37*
G36*
G01*
X121766250Y-122465000D02*
X121253750Y-122465000D01*
G75*
G02*
X121035000Y-122246250I0J218750D01*
G01*
X121035000Y-121808750D01*
G75*
G02*
X121253750Y-121590000I218750J0D01*
G01*
X121766250Y-121590000D01*
G75*
G02*
X121985000Y-121808750I0J-218750D01*
G01*
X121985000Y-122246250D01*
G75*
G02*
X121766250Y-122465000I-218750J0D01*
G01*
G37*
G36*
G01*
X88046250Y-120790000D02*
X87533750Y-120790000D01*
G75*
G02*
X87315000Y-120571250I0J218750D01*
G01*
X87315000Y-120133750D01*
G75*
G02*
X87533750Y-119915000I218750J0D01*
G01*
X88046250Y-119915000D01*
G75*
G02*
X88265000Y-120133750I0J-218750D01*
G01*
X88265000Y-120571250D01*
G75*
G02*
X88046250Y-120790000I-218750J0D01*
G01*
G37*
G36*
G01*
X88046250Y-122365000D02*
X87533750Y-122365000D01*
G75*
G02*
X87315000Y-122146250I0J218750D01*
G01*
X87315000Y-121708750D01*
G75*
G02*
X87533750Y-121490000I218750J0D01*
G01*
X88046250Y-121490000D01*
G75*
G02*
X88265000Y-121708750I0J-218750D01*
G01*
X88265000Y-122146250D01*
G75*
G02*
X88046250Y-122365000I-218750J0D01*
G01*
G37*
G36*
G01*
X123316250Y-122465000D02*
X122803750Y-122465000D01*
G75*
G02*
X122585000Y-122246250I0J218750D01*
G01*
X122585000Y-121808750D01*
G75*
G02*
X122803750Y-121590000I218750J0D01*
G01*
X123316250Y-121590000D01*
G75*
G02*
X123535000Y-121808750I0J-218750D01*
G01*
X123535000Y-122246250D01*
G75*
G02*
X123316250Y-122465000I-218750J0D01*
G01*
G37*
G36*
G01*
X123316250Y-120890000D02*
X122803750Y-120890000D01*
G75*
G02*
X122585000Y-120671250I0J218750D01*
G01*
X122585000Y-120233750D01*
G75*
G02*
X122803750Y-120015000I218750J0D01*
G01*
X123316250Y-120015000D01*
G75*
G02*
X123535000Y-120233750I0J-218750D01*
G01*
X123535000Y-120671250D01*
G75*
G02*
X123316250Y-120890000I-218750J0D01*
G01*
G37*
G36*
G01*
X89665610Y-122632860D02*
X89153110Y-122632860D01*
G75*
G02*
X88934360Y-122414110I0J218750D01*
G01*
X88934360Y-121976610D01*
G75*
G02*
X89153110Y-121757860I218750J0D01*
G01*
X89665610Y-121757860D01*
G75*
G02*
X89884360Y-121976610I0J-218750D01*
G01*
X89884360Y-122414110D01*
G75*
G02*
X89665610Y-122632860I-218750J0D01*
G01*
G37*
G36*
G01*
X89665610Y-121057860D02*
X89153110Y-121057860D01*
G75*
G02*
X88934360Y-120839110I0J218750D01*
G01*
X88934360Y-120401610D01*
G75*
G02*
X89153110Y-120182860I218750J0D01*
G01*
X89665610Y-120182860D01*
G75*
G02*
X89884360Y-120401610I0J-218750D01*
G01*
X89884360Y-120839110D01*
G75*
G02*
X89665610Y-121057860I-218750J0D01*
G01*
G37*
D23*
X227650000Y-90154000D03*
X229550000Y-90154000D03*
X228600000Y-88154000D03*
D28*
X216932000Y-89662000D03*
X218932000Y-88712000D03*
X218932000Y-90612000D03*
G36*
G01*
X220343750Y-98450000D02*
X220856250Y-98450000D01*
G75*
G02*
X221075000Y-98668750I0J-218750D01*
G01*
X221075000Y-99106250D01*
G75*
G02*
X220856250Y-99325000I-218750J0D01*
G01*
X220343750Y-99325000D01*
G75*
G02*
X220125000Y-99106250I0J218750D01*
G01*
X220125000Y-98668750D01*
G75*
G02*
X220343750Y-98450000I218750J0D01*
G01*
G37*
G36*
G01*
X220343750Y-100025000D02*
X220856250Y-100025000D01*
G75*
G02*
X221075000Y-100243750I0J-218750D01*
G01*
X221075000Y-100681250D01*
G75*
G02*
X220856250Y-100900000I-218750J0D01*
G01*
X220343750Y-100900000D01*
G75*
G02*
X220125000Y-100681250I0J218750D01*
G01*
X220125000Y-100243750D01*
G75*
G02*
X220343750Y-100025000I218750J0D01*
G01*
G37*
G36*
G01*
X229112500Y-105906250D02*
X229112500Y-104993750D01*
G75*
G02*
X229356250Y-104750000I243750J0D01*
G01*
X229843750Y-104750000D01*
G75*
G02*
X230087500Y-104993750I0J-243750D01*
G01*
X230087500Y-105906250D01*
G75*
G02*
X229843750Y-106150000I-243750J0D01*
G01*
X229356250Y-106150000D01*
G75*
G02*
X229112500Y-105906250I0J243750D01*
G01*
G37*
G36*
G01*
X227237500Y-105906250D02*
X227237500Y-104993750D01*
G75*
G02*
X227481250Y-104750000I243750J0D01*
G01*
X227968750Y-104750000D01*
G75*
G02*
X228212500Y-104993750I0J-243750D01*
G01*
X228212500Y-105906250D01*
G75*
G02*
X227968750Y-106150000I-243750J0D01*
G01*
X227481250Y-106150000D01*
G75*
G02*
X227237500Y-105906250I0J243750D01*
G01*
G37*
G36*
G01*
X227200000Y-103906250D02*
X227200000Y-103393750D01*
G75*
G02*
X227418750Y-103175000I218750J0D01*
G01*
X227856250Y-103175000D01*
G75*
G02*
X228075000Y-103393750I0J-218750D01*
G01*
X228075000Y-103906250D01*
G75*
G02*
X227856250Y-104125000I-218750J0D01*
G01*
X227418750Y-104125000D01*
G75*
G02*
X227200000Y-103906250I0J218750D01*
G01*
G37*
G36*
G01*
X228775000Y-103906250D02*
X228775000Y-103393750D01*
G75*
G02*
X228993750Y-103175000I218750J0D01*
G01*
X229431250Y-103175000D01*
G75*
G02*
X229650000Y-103393750I0J-218750D01*
G01*
X229650000Y-103906250D01*
G75*
G02*
X229431250Y-104125000I-218750J0D01*
G01*
X228993750Y-104125000D01*
G75*
G02*
X228775000Y-103906250I0J218750D01*
G01*
G37*
G36*
G01*
X232156250Y-99525000D02*
X231243750Y-99525000D01*
G75*
G02*
X231000000Y-99281250I0J243750D01*
G01*
X231000000Y-98793750D01*
G75*
G02*
X231243750Y-98550000I243750J0D01*
G01*
X232156250Y-98550000D01*
G75*
G02*
X232400000Y-98793750I0J-243750D01*
G01*
X232400000Y-99281250D01*
G75*
G02*
X232156250Y-99525000I-243750J0D01*
G01*
G37*
G36*
G01*
X232156250Y-97650000D02*
X231243750Y-97650000D01*
G75*
G02*
X231000000Y-97406250I0J243750D01*
G01*
X231000000Y-96918750D01*
G75*
G02*
X231243750Y-96675000I243750J0D01*
G01*
X232156250Y-96675000D01*
G75*
G02*
X232400000Y-96918750I0J-243750D01*
G01*
X232400000Y-97406250D01*
G75*
G02*
X232156250Y-97650000I-243750J0D01*
G01*
G37*
G36*
G01*
X221306250Y-94575000D02*
X220793750Y-94575000D01*
G75*
G02*
X220575000Y-94356250I0J218750D01*
G01*
X220575000Y-93918750D01*
G75*
G02*
X220793750Y-93700000I218750J0D01*
G01*
X221306250Y-93700000D01*
G75*
G02*
X221525000Y-93918750I0J-218750D01*
G01*
X221525000Y-94356250D01*
G75*
G02*
X221306250Y-94575000I-218750J0D01*
G01*
G37*
G36*
G01*
X221306250Y-96150000D02*
X220793750Y-96150000D01*
G75*
G02*
X220575000Y-95931250I0J218750D01*
G01*
X220575000Y-95493750D01*
G75*
G02*
X220793750Y-95275000I218750J0D01*
G01*
X221306250Y-95275000D01*
G75*
G02*
X221525000Y-95493750I0J-218750D01*
G01*
X221525000Y-95931250D01*
G75*
G02*
X221306250Y-96150000I-218750J0D01*
G01*
G37*
G36*
G01*
X219731250Y-94412500D02*
X218818750Y-94412500D01*
G75*
G02*
X218575000Y-94168750I0J243750D01*
G01*
X218575000Y-93681250D01*
G75*
G02*
X218818750Y-93437500I243750J0D01*
G01*
X219731250Y-93437500D01*
G75*
G02*
X219975000Y-93681250I0J-243750D01*
G01*
X219975000Y-94168750D01*
G75*
G02*
X219731250Y-94412500I-243750J0D01*
G01*
G37*
G36*
G01*
X219731250Y-96287500D02*
X218818750Y-96287500D01*
G75*
G02*
X218575000Y-96043750I0J243750D01*
G01*
X218575000Y-95556250D01*
G75*
G02*
X218818750Y-95312500I243750J0D01*
G01*
X219731250Y-95312500D01*
G75*
G02*
X219975000Y-95556250I0J-243750D01*
G01*
X219975000Y-96043750D01*
G75*
G02*
X219731250Y-96287500I-243750J0D01*
G01*
G37*
G36*
G01*
X230156250Y-99112500D02*
X229643750Y-99112500D01*
G75*
G02*
X229425000Y-98893750I0J218750D01*
G01*
X229425000Y-98456250D01*
G75*
G02*
X229643750Y-98237500I218750J0D01*
G01*
X230156250Y-98237500D01*
G75*
G02*
X230375000Y-98456250I0J-218750D01*
G01*
X230375000Y-98893750D01*
G75*
G02*
X230156250Y-99112500I-218750J0D01*
G01*
G37*
G36*
G01*
X230156250Y-97537500D02*
X229643750Y-97537500D01*
G75*
G02*
X229425000Y-97318750I0J218750D01*
G01*
X229425000Y-96881250D01*
G75*
G02*
X229643750Y-96662500I218750J0D01*
G01*
X230156250Y-96662500D01*
G75*
G02*
X230375000Y-96881250I0J-218750D01*
G01*
X230375000Y-97318750D01*
G75*
G02*
X230156250Y-97537500I-218750J0D01*
G01*
G37*
G36*
G01*
X201678750Y-105737500D02*
X202191250Y-105737500D01*
G75*
G02*
X202410000Y-105956250I0J-218750D01*
G01*
X202410000Y-106393750D01*
G75*
G02*
X202191250Y-106612500I-218750J0D01*
G01*
X201678750Y-106612500D01*
G75*
G02*
X201460000Y-106393750I0J218750D01*
G01*
X201460000Y-105956250D01*
G75*
G02*
X201678750Y-105737500I218750J0D01*
G01*
G37*
G36*
G01*
X201678750Y-104162500D02*
X202191250Y-104162500D01*
G75*
G02*
X202410000Y-104381250I0J-218750D01*
G01*
X202410000Y-104818750D01*
G75*
G02*
X202191250Y-105037500I-218750J0D01*
G01*
X201678750Y-105037500D01*
G75*
G02*
X201460000Y-104818750I0J218750D01*
G01*
X201460000Y-104381250D01*
G75*
G02*
X201678750Y-104162500I218750J0D01*
G01*
G37*
G36*
G01*
X228575000Y-102331250D02*
X228575000Y-101818750D01*
G75*
G02*
X228793750Y-101600000I218750J0D01*
G01*
X229231250Y-101600000D01*
G75*
G02*
X229450000Y-101818750I0J-218750D01*
G01*
X229450000Y-102331250D01*
G75*
G02*
X229231250Y-102550000I-218750J0D01*
G01*
X228793750Y-102550000D01*
G75*
G02*
X228575000Y-102331250I0J218750D01*
G01*
G37*
G36*
G01*
X230150000Y-102331250D02*
X230150000Y-101818750D01*
G75*
G02*
X230368750Y-101600000I218750J0D01*
G01*
X230806250Y-101600000D01*
G75*
G02*
X231025000Y-101818750I0J-218750D01*
G01*
X231025000Y-102331250D01*
G75*
G02*
X230806250Y-102550000I-218750J0D01*
G01*
X230368750Y-102550000D01*
G75*
G02*
X230150000Y-102331250I0J218750D01*
G01*
G37*
G36*
G01*
X185010000Y-83580000D02*
X183910000Y-83580000D01*
G75*
G02*
X183660000Y-83330000I0J250000D01*
G01*
X183660000Y-81230000D01*
G75*
G02*
X183910000Y-80980000I250000J0D01*
G01*
X185010000Y-80980000D01*
G75*
G02*
X185260000Y-81230000I0J-250000D01*
G01*
X185260000Y-83330000D01*
G75*
G02*
X185010000Y-83580000I-250000J0D01*
G01*
G37*
G36*
G01*
X185010000Y-87180000D02*
X183910000Y-87180000D01*
G75*
G02*
X183660000Y-86930000I0J250000D01*
G01*
X183660000Y-84830000D01*
G75*
G02*
X183910000Y-84580000I250000J0D01*
G01*
X185010000Y-84580000D01*
G75*
G02*
X185260000Y-84830000I0J-250000D01*
G01*
X185260000Y-86930000D01*
G75*
G02*
X185010000Y-87180000I-250000J0D01*
G01*
G37*
G36*
G01*
X88836250Y-119155000D02*
X88323750Y-119155000D01*
G75*
G02*
X88105000Y-118936250I0J218750D01*
G01*
X88105000Y-118498750D01*
G75*
G02*
X88323750Y-118280000I218750J0D01*
G01*
X88836250Y-118280000D01*
G75*
G02*
X89055000Y-118498750I0J-218750D01*
G01*
X89055000Y-118936250D01*
G75*
G02*
X88836250Y-119155000I-218750J0D01*
G01*
G37*
G36*
G01*
X88836250Y-117580000D02*
X88323750Y-117580000D01*
G75*
G02*
X88105000Y-117361250I0J218750D01*
G01*
X88105000Y-116923750D01*
G75*
G02*
X88323750Y-116705000I218750J0D01*
G01*
X88836250Y-116705000D01*
G75*
G02*
X89055000Y-116923750I0J-218750D01*
G01*
X89055000Y-117361250D01*
G75*
G02*
X88836250Y-117580000I-218750J0D01*
G01*
G37*
G36*
G01*
X196993750Y-85237500D02*
X197506250Y-85237500D01*
G75*
G02*
X197725000Y-85456250I0J-218750D01*
G01*
X197725000Y-85893750D01*
G75*
G02*
X197506250Y-86112500I-218750J0D01*
G01*
X196993750Y-86112500D01*
G75*
G02*
X196775000Y-85893750I0J218750D01*
G01*
X196775000Y-85456250D01*
G75*
G02*
X196993750Y-85237500I218750J0D01*
G01*
G37*
G36*
G01*
X196993750Y-86812500D02*
X197506250Y-86812500D01*
G75*
G02*
X197725000Y-87031250I0J-218750D01*
G01*
X197725000Y-87468750D01*
G75*
G02*
X197506250Y-87687500I-218750J0D01*
G01*
X196993750Y-87687500D01*
G75*
G02*
X196775000Y-87468750I0J218750D01*
G01*
X196775000Y-87031250D01*
G75*
G02*
X196993750Y-86812500I218750J0D01*
G01*
G37*
G36*
G01*
X242062500Y-88256250D02*
X242062500Y-87743750D01*
G75*
G02*
X242281250Y-87525000I218750J0D01*
G01*
X242718750Y-87525000D01*
G75*
G02*
X242937500Y-87743750I0J-218750D01*
G01*
X242937500Y-88256250D01*
G75*
G02*
X242718750Y-88475000I-218750J0D01*
G01*
X242281250Y-88475000D01*
G75*
G02*
X242062500Y-88256250I0J218750D01*
G01*
G37*
G36*
G01*
X243637500Y-88256250D02*
X243637500Y-87743750D01*
G75*
G02*
X243856250Y-87525000I218750J0D01*
G01*
X244293750Y-87525000D01*
G75*
G02*
X244512500Y-87743750I0J-218750D01*
G01*
X244512500Y-88256250D01*
G75*
G02*
X244293750Y-88475000I-218750J0D01*
G01*
X243856250Y-88475000D01*
G75*
G02*
X243637500Y-88256250I0J218750D01*
G01*
G37*
G36*
G01*
X202256250Y-78400000D02*
X201743750Y-78400000D01*
G75*
G02*
X201525000Y-78181250I0J218750D01*
G01*
X201525000Y-77743750D01*
G75*
G02*
X201743750Y-77525000I218750J0D01*
G01*
X202256250Y-77525000D01*
G75*
G02*
X202475000Y-77743750I0J-218750D01*
G01*
X202475000Y-78181250D01*
G75*
G02*
X202256250Y-78400000I-218750J0D01*
G01*
G37*
G36*
G01*
X202256250Y-79975000D02*
X201743750Y-79975000D01*
G75*
G02*
X201525000Y-79756250I0J218750D01*
G01*
X201525000Y-79318750D01*
G75*
G02*
X201743750Y-79100000I218750J0D01*
G01*
X202256250Y-79100000D01*
G75*
G02*
X202475000Y-79318750I0J-218750D01*
G01*
X202475000Y-79756250D01*
G75*
G02*
X202256250Y-79975000I-218750J0D01*
G01*
G37*
G36*
G01*
X235650000Y-86493750D02*
X235650000Y-87006250D01*
G75*
G02*
X235431250Y-87225000I-218750J0D01*
G01*
X234993750Y-87225000D01*
G75*
G02*
X234775000Y-87006250I0J218750D01*
G01*
X234775000Y-86493750D01*
G75*
G02*
X234993750Y-86275000I218750J0D01*
G01*
X235431250Y-86275000D01*
G75*
G02*
X235650000Y-86493750I0J-218750D01*
G01*
G37*
G36*
G01*
X237225000Y-86493750D02*
X237225000Y-87006250D01*
G75*
G02*
X237006250Y-87225000I-218750J0D01*
G01*
X236568750Y-87225000D01*
G75*
G02*
X236350000Y-87006250I0J218750D01*
G01*
X236350000Y-86493750D01*
G75*
G02*
X236568750Y-86275000I218750J0D01*
G01*
X237006250Y-86275000D01*
G75*
G02*
X237225000Y-86493750I0J-218750D01*
G01*
G37*
G36*
G01*
X207156250Y-81612500D02*
X206643750Y-81612500D01*
G75*
G02*
X206425000Y-81393750I0J218750D01*
G01*
X206425000Y-80956250D01*
G75*
G02*
X206643750Y-80737500I218750J0D01*
G01*
X207156250Y-80737500D01*
G75*
G02*
X207375000Y-80956250I0J-218750D01*
G01*
X207375000Y-81393750D01*
G75*
G02*
X207156250Y-81612500I-218750J0D01*
G01*
G37*
G36*
G01*
X207156250Y-80037500D02*
X206643750Y-80037500D01*
G75*
G02*
X206425000Y-79818750I0J218750D01*
G01*
X206425000Y-79381250D01*
G75*
G02*
X206643750Y-79162500I218750J0D01*
G01*
X207156250Y-79162500D01*
G75*
G02*
X207375000Y-79381250I0J-218750D01*
G01*
X207375000Y-79818750D01*
G75*
G02*
X207156250Y-80037500I-218750J0D01*
G01*
G37*
G36*
G01*
X238687500Y-73743750D02*
X238687500Y-74256250D01*
G75*
G02*
X238468750Y-74475000I-218750J0D01*
G01*
X238031250Y-74475000D01*
G75*
G02*
X237812500Y-74256250I0J218750D01*
G01*
X237812500Y-73743750D01*
G75*
G02*
X238031250Y-73525000I218750J0D01*
G01*
X238468750Y-73525000D01*
G75*
G02*
X238687500Y-73743750I0J-218750D01*
G01*
G37*
G36*
G01*
X237112500Y-73743750D02*
X237112500Y-74256250D01*
G75*
G02*
X236893750Y-74475000I-218750J0D01*
G01*
X236456250Y-74475000D01*
G75*
G02*
X236237500Y-74256250I0J218750D01*
G01*
X236237500Y-73743750D01*
G75*
G02*
X236456250Y-73525000I218750J0D01*
G01*
X236893750Y-73525000D01*
G75*
G02*
X237112500Y-73743750I0J-218750D01*
G01*
G37*
G36*
G01*
X246887500Y-82256250D02*
X246887500Y-81743750D01*
G75*
G02*
X247106250Y-81525000I218750J0D01*
G01*
X247543750Y-81525000D01*
G75*
G02*
X247762500Y-81743750I0J-218750D01*
G01*
X247762500Y-82256250D01*
G75*
G02*
X247543750Y-82475000I-218750J0D01*
G01*
X247106250Y-82475000D01*
G75*
G02*
X246887500Y-82256250I0J218750D01*
G01*
G37*
G36*
G01*
X245312500Y-82256250D02*
X245312500Y-81743750D01*
G75*
G02*
X245531250Y-81525000I218750J0D01*
G01*
X245968750Y-81525000D01*
G75*
G02*
X246187500Y-81743750I0J-218750D01*
G01*
X246187500Y-82256250D01*
G75*
G02*
X245968750Y-82475000I-218750J0D01*
G01*
X245531250Y-82475000D01*
G75*
G02*
X245312500Y-82256250I0J218750D01*
G01*
G37*
G36*
G01*
X192831250Y-86275000D02*
X192318750Y-86275000D01*
G75*
G02*
X192100000Y-86056250I0J218750D01*
G01*
X192100000Y-85618750D01*
G75*
G02*
X192318750Y-85400000I218750J0D01*
G01*
X192831250Y-85400000D01*
G75*
G02*
X193050000Y-85618750I0J-218750D01*
G01*
X193050000Y-86056250D01*
G75*
G02*
X192831250Y-86275000I-218750J0D01*
G01*
G37*
G36*
G01*
X192831250Y-87850000D02*
X192318750Y-87850000D01*
G75*
G02*
X192100000Y-87631250I0J218750D01*
G01*
X192100000Y-87193750D01*
G75*
G02*
X192318750Y-86975000I218750J0D01*
G01*
X192831250Y-86975000D01*
G75*
G02*
X193050000Y-87193750I0J-218750D01*
G01*
X193050000Y-87631250D01*
G75*
G02*
X192831250Y-87850000I-218750J0D01*
G01*
G37*
G36*
G01*
X189487500Y-64256250D02*
X189487500Y-63743750D01*
G75*
G02*
X189706250Y-63525000I218750J0D01*
G01*
X190143750Y-63525000D01*
G75*
G02*
X190362500Y-63743750I0J-218750D01*
G01*
X190362500Y-64256250D01*
G75*
G02*
X190143750Y-64475000I-218750J0D01*
G01*
X189706250Y-64475000D01*
G75*
G02*
X189487500Y-64256250I0J218750D01*
G01*
G37*
G36*
G01*
X191062500Y-64256250D02*
X191062500Y-63743750D01*
G75*
G02*
X191281250Y-63525000I218750J0D01*
G01*
X191718750Y-63525000D01*
G75*
G02*
X191937500Y-63743750I0J-218750D01*
G01*
X191937500Y-64256250D01*
G75*
G02*
X191718750Y-64475000I-218750J0D01*
G01*
X191281250Y-64475000D01*
G75*
G02*
X191062500Y-64256250I0J218750D01*
G01*
G37*
G36*
G01*
X114312500Y-66643750D02*
X114312500Y-67156250D01*
G75*
G02*
X114093750Y-67375000I-218750J0D01*
G01*
X113656250Y-67375000D01*
G75*
G02*
X113437500Y-67156250I0J218750D01*
G01*
X113437500Y-66643750D01*
G75*
G02*
X113656250Y-66425000I218750J0D01*
G01*
X114093750Y-66425000D01*
G75*
G02*
X114312500Y-66643750I0J-218750D01*
G01*
G37*
G36*
G01*
X112737500Y-66643750D02*
X112737500Y-67156250D01*
G75*
G02*
X112518750Y-67375000I-218750J0D01*
G01*
X112081250Y-67375000D01*
G75*
G02*
X111862500Y-67156250I0J218750D01*
G01*
X111862500Y-66643750D01*
G75*
G02*
X112081250Y-66425000I218750J0D01*
G01*
X112518750Y-66425000D01*
G75*
G02*
X112737500Y-66643750I0J-218750D01*
G01*
G37*
G36*
G01*
X115450000Y-69743750D02*
X115450000Y-70256250D01*
G75*
G02*
X115231250Y-70475000I-218750J0D01*
G01*
X114793750Y-70475000D01*
G75*
G02*
X114575000Y-70256250I0J218750D01*
G01*
X114575000Y-69743750D01*
G75*
G02*
X114793750Y-69525000I218750J0D01*
G01*
X115231250Y-69525000D01*
G75*
G02*
X115450000Y-69743750I0J-218750D01*
G01*
G37*
G36*
G01*
X117025000Y-69743750D02*
X117025000Y-70256250D01*
G75*
G02*
X116806250Y-70475000I-218750J0D01*
G01*
X116368750Y-70475000D01*
G75*
G02*
X116150000Y-70256250I0J218750D01*
G01*
X116150000Y-69743750D01*
G75*
G02*
X116368750Y-69525000I218750J0D01*
G01*
X116806250Y-69525000D01*
G75*
G02*
X117025000Y-69743750I0J-218750D01*
G01*
G37*
D23*
X217450000Y-71250000D03*
X215550000Y-71250000D03*
X216500000Y-73250000D03*
D28*
X228750000Y-74200000D03*
X228750000Y-72300000D03*
X226750000Y-73250000D03*
X192060000Y-57800000D03*
X190060000Y-58750000D03*
X190060000Y-56850000D03*
X105000000Y-66650000D03*
X105000000Y-68550000D03*
X107000000Y-67600000D03*
X114700000Y-72800000D03*
X116700000Y-71850000D03*
X116700000Y-73750000D03*
G36*
G01*
X81993750Y-119350000D02*
X82506250Y-119350000D01*
G75*
G02*
X82725000Y-119568750I0J-218750D01*
G01*
X82725000Y-120006250D01*
G75*
G02*
X82506250Y-120225000I-218750J0D01*
G01*
X81993750Y-120225000D01*
G75*
G02*
X81775000Y-120006250I0J218750D01*
G01*
X81775000Y-119568750D01*
G75*
G02*
X81993750Y-119350000I218750J0D01*
G01*
G37*
G36*
G01*
X81993750Y-117775000D02*
X82506250Y-117775000D01*
G75*
G02*
X82725000Y-117993750I0J-218750D01*
G01*
X82725000Y-118431250D01*
G75*
G02*
X82506250Y-118650000I-218750J0D01*
G01*
X81993750Y-118650000D01*
G75*
G02*
X81775000Y-118431250I0J218750D01*
G01*
X81775000Y-117993750D01*
G75*
G02*
X81993750Y-117775000I218750J0D01*
G01*
G37*
G36*
G01*
X90416250Y-117522500D02*
X89903750Y-117522500D01*
G75*
G02*
X89685000Y-117303750I0J218750D01*
G01*
X89685000Y-116866250D01*
G75*
G02*
X89903750Y-116647500I218750J0D01*
G01*
X90416250Y-116647500D01*
G75*
G02*
X90635000Y-116866250I0J-218750D01*
G01*
X90635000Y-117303750D01*
G75*
G02*
X90416250Y-117522500I-218750J0D01*
G01*
G37*
G36*
G01*
X90416250Y-119097500D02*
X89903750Y-119097500D01*
G75*
G02*
X89685000Y-118878750I0J218750D01*
G01*
X89685000Y-118441250D01*
G75*
G02*
X89903750Y-118222500I218750J0D01*
G01*
X90416250Y-118222500D01*
G75*
G02*
X90635000Y-118441250I0J-218750D01*
G01*
X90635000Y-118878750D01*
G75*
G02*
X90416250Y-119097500I-218750J0D01*
G01*
G37*
G36*
G01*
X197506250Y-82937500D02*
X196993750Y-82937500D01*
G75*
G02*
X196775000Y-82718750I0J218750D01*
G01*
X196775000Y-82281250D01*
G75*
G02*
X196993750Y-82062500I218750J0D01*
G01*
X197506250Y-82062500D01*
G75*
G02*
X197725000Y-82281250I0J-218750D01*
G01*
X197725000Y-82718750D01*
G75*
G02*
X197506250Y-82937500I-218750J0D01*
G01*
G37*
G36*
G01*
X197506250Y-84512500D02*
X196993750Y-84512500D01*
G75*
G02*
X196775000Y-84293750I0J218750D01*
G01*
X196775000Y-83856250D01*
G75*
G02*
X196993750Y-83637500I218750J0D01*
G01*
X197506250Y-83637500D01*
G75*
G02*
X197725000Y-83856250I0J-218750D01*
G01*
X197725000Y-84293750D01*
G75*
G02*
X197506250Y-84512500I-218750J0D01*
G01*
G37*
G36*
G01*
X240387500Y-87506250D02*
X240387500Y-86993750D01*
G75*
G02*
X240606250Y-86775000I218750J0D01*
G01*
X241043750Y-86775000D01*
G75*
G02*
X241262500Y-86993750I0J-218750D01*
G01*
X241262500Y-87506250D01*
G75*
G02*
X241043750Y-87725000I-218750J0D01*
G01*
X240606250Y-87725000D01*
G75*
G02*
X240387500Y-87506250I0J218750D01*
G01*
G37*
G36*
G01*
X238812500Y-87506250D02*
X238812500Y-86993750D01*
G75*
G02*
X239031250Y-86775000I218750J0D01*
G01*
X239468750Y-86775000D01*
G75*
G02*
X239687500Y-86993750I0J-218750D01*
G01*
X239687500Y-87506250D01*
G75*
G02*
X239468750Y-87725000I-218750J0D01*
G01*
X239031250Y-87725000D01*
G75*
G02*
X238812500Y-87506250I0J218750D01*
G01*
G37*
G36*
G01*
X246225000Y-79743750D02*
X246225000Y-80256250D01*
G75*
G02*
X246006250Y-80475000I-218750J0D01*
G01*
X245568750Y-80475000D01*
G75*
G02*
X245350000Y-80256250I0J218750D01*
G01*
X245350000Y-79743750D01*
G75*
G02*
X245568750Y-79525000I218750J0D01*
G01*
X246006250Y-79525000D01*
G75*
G02*
X246225000Y-79743750I0J-218750D01*
G01*
G37*
G36*
G01*
X244650000Y-79743750D02*
X244650000Y-80256250D01*
G75*
G02*
X244431250Y-80475000I-218750J0D01*
G01*
X243993750Y-80475000D01*
G75*
G02*
X243775000Y-80256250I0J218750D01*
G01*
X243775000Y-79743750D01*
G75*
G02*
X243993750Y-79525000I218750J0D01*
G01*
X244431250Y-79525000D01*
G75*
G02*
X244650000Y-79743750I0J-218750D01*
G01*
G37*
G36*
G01*
X193737500Y-89756250D02*
X193737500Y-89243750D01*
G75*
G02*
X193956250Y-89025000I218750J0D01*
G01*
X194393750Y-89025000D01*
G75*
G02*
X194612500Y-89243750I0J-218750D01*
G01*
X194612500Y-89756250D01*
G75*
G02*
X194393750Y-89975000I-218750J0D01*
G01*
X193956250Y-89975000D01*
G75*
G02*
X193737500Y-89756250I0J218750D01*
G01*
G37*
G36*
G01*
X195312500Y-89756250D02*
X195312500Y-89243750D01*
G75*
G02*
X195531250Y-89025000I218750J0D01*
G01*
X195968750Y-89025000D01*
G75*
G02*
X196187500Y-89243750I0J-218750D01*
G01*
X196187500Y-89756250D01*
G75*
G02*
X195968750Y-89975000I-218750J0D01*
G01*
X195531250Y-89975000D01*
G75*
G02*
X195312500Y-89756250I0J218750D01*
G01*
G37*
G36*
G01*
X205475000Y-77243750D02*
X205475000Y-77756250D01*
G75*
G02*
X205256250Y-77975000I-218750J0D01*
G01*
X204818750Y-77975000D01*
G75*
G02*
X204600000Y-77756250I0J218750D01*
G01*
X204600000Y-77243750D01*
G75*
G02*
X204818750Y-77025000I218750J0D01*
G01*
X205256250Y-77025000D01*
G75*
G02*
X205475000Y-77243750I0J-218750D01*
G01*
G37*
G36*
G01*
X203900000Y-77243750D02*
X203900000Y-77756250D01*
G75*
G02*
X203681250Y-77975000I-218750J0D01*
G01*
X203243750Y-77975000D01*
G75*
G02*
X203025000Y-77756250I0J218750D01*
G01*
X203025000Y-77243750D01*
G75*
G02*
X203243750Y-77025000I218750J0D01*
G01*
X203681250Y-77025000D01*
G75*
G02*
X203900000Y-77243750I0J-218750D01*
G01*
G37*
G36*
G01*
X106937500Y-57056250D02*
X106937500Y-56543750D01*
G75*
G02*
X107156250Y-56325000I218750J0D01*
G01*
X107593750Y-56325000D01*
G75*
G02*
X107812500Y-56543750I0J-218750D01*
G01*
X107812500Y-57056250D01*
G75*
G02*
X107593750Y-57275000I-218750J0D01*
G01*
X107156250Y-57275000D01*
G75*
G02*
X106937500Y-57056250I0J218750D01*
G01*
G37*
G36*
G01*
X108512500Y-57056250D02*
X108512500Y-56543750D01*
G75*
G02*
X108731250Y-56325000I218750J0D01*
G01*
X109168750Y-56325000D01*
G75*
G02*
X109387500Y-56543750I0J-218750D01*
G01*
X109387500Y-57056250D01*
G75*
G02*
X109168750Y-57275000I-218750J0D01*
G01*
X108731250Y-57275000D01*
G75*
G02*
X108512500Y-57056250I0J218750D01*
G01*
G37*
G36*
G01*
X119756250Y-50550000D02*
X119243750Y-50550000D01*
G75*
G02*
X119025000Y-50331250I0J218750D01*
G01*
X119025000Y-49893750D01*
G75*
G02*
X119243750Y-49675000I218750J0D01*
G01*
X119756250Y-49675000D01*
G75*
G02*
X119975000Y-49893750I0J-218750D01*
G01*
X119975000Y-50331250D01*
G75*
G02*
X119756250Y-50550000I-218750J0D01*
G01*
G37*
G36*
G01*
X119756250Y-52125000D02*
X119243750Y-52125000D01*
G75*
G02*
X119025000Y-51906250I0J218750D01*
G01*
X119025000Y-51468750D01*
G75*
G02*
X119243750Y-51250000I218750J0D01*
G01*
X119756250Y-51250000D01*
G75*
G02*
X119975000Y-51468750I0J-218750D01*
G01*
X119975000Y-51906250D01*
G75*
G02*
X119756250Y-52125000I-218750J0D01*
G01*
G37*
G36*
G01*
X203747500Y-99181250D02*
X203747500Y-98668750D01*
G75*
G02*
X203966250Y-98450000I218750J0D01*
G01*
X204403750Y-98450000D01*
G75*
G02*
X204622500Y-98668750I0J-218750D01*
G01*
X204622500Y-99181250D01*
G75*
G02*
X204403750Y-99400000I-218750J0D01*
G01*
X203966250Y-99400000D01*
G75*
G02*
X203747500Y-99181250I0J218750D01*
G01*
G37*
G36*
G01*
X205322500Y-99181250D02*
X205322500Y-98668750D01*
G75*
G02*
X205541250Y-98450000I218750J0D01*
G01*
X205978750Y-98450000D01*
G75*
G02*
X206197500Y-98668750I0J-218750D01*
G01*
X206197500Y-99181250D01*
G75*
G02*
X205978750Y-99400000I-218750J0D01*
G01*
X205541250Y-99400000D01*
G75*
G02*
X205322500Y-99181250I0J218750D01*
G01*
G37*
G36*
G01*
X196310000Y-101106250D02*
X196310000Y-100593750D01*
G75*
G02*
X196528750Y-100375000I218750J0D01*
G01*
X196966250Y-100375000D01*
G75*
G02*
X197185000Y-100593750I0J-218750D01*
G01*
X197185000Y-101106250D01*
G75*
G02*
X196966250Y-101325000I-218750J0D01*
G01*
X196528750Y-101325000D01*
G75*
G02*
X196310000Y-101106250I0J218750D01*
G01*
G37*
G36*
G01*
X194735000Y-101106250D02*
X194735000Y-100593750D01*
G75*
G02*
X194953750Y-100375000I218750J0D01*
G01*
X195391250Y-100375000D01*
G75*
G02*
X195610000Y-100593750I0J-218750D01*
G01*
X195610000Y-101106250D01*
G75*
G02*
X195391250Y-101325000I-218750J0D01*
G01*
X194953750Y-101325000D01*
G75*
G02*
X194735000Y-101106250I0J218750D01*
G01*
G37*
G36*
G01*
X199783750Y-110720000D02*
X200296250Y-110720000D01*
G75*
G02*
X200515000Y-110938750I0J-218750D01*
G01*
X200515000Y-111376250D01*
G75*
G02*
X200296250Y-111595000I-218750J0D01*
G01*
X199783750Y-111595000D01*
G75*
G02*
X199565000Y-111376250I0J218750D01*
G01*
X199565000Y-110938750D01*
G75*
G02*
X199783750Y-110720000I218750J0D01*
G01*
G37*
G36*
G01*
X199783750Y-109145000D02*
X200296250Y-109145000D01*
G75*
G02*
X200515000Y-109363750I0J-218750D01*
G01*
X200515000Y-109801250D01*
G75*
G02*
X200296250Y-110020000I-218750J0D01*
G01*
X199783750Y-110020000D01*
G75*
G02*
X199565000Y-109801250I0J218750D01*
G01*
X199565000Y-109363750D01*
G75*
G02*
X199783750Y-109145000I218750J0D01*
G01*
G37*
G36*
G01*
X195962500Y-91518750D02*
X195962500Y-92031250D01*
G75*
G02*
X195743750Y-92250000I-218750J0D01*
G01*
X195306250Y-92250000D01*
G75*
G02*
X195087500Y-92031250I0J218750D01*
G01*
X195087500Y-91518750D01*
G75*
G02*
X195306250Y-91300000I218750J0D01*
G01*
X195743750Y-91300000D01*
G75*
G02*
X195962500Y-91518750I0J-218750D01*
G01*
G37*
G36*
G01*
X194387500Y-91518750D02*
X194387500Y-92031250D01*
G75*
G02*
X194168750Y-92250000I-218750J0D01*
G01*
X193731250Y-92250000D01*
G75*
G02*
X193512500Y-92031250I0J218750D01*
G01*
X193512500Y-91518750D01*
G75*
G02*
X193731250Y-91300000I218750J0D01*
G01*
X194168750Y-91300000D01*
G75*
G02*
X194387500Y-91518750I0J-218750D01*
G01*
G37*
G36*
G01*
X196860000Y-104668750D02*
X196860000Y-105181250D01*
G75*
G02*
X196641250Y-105400000I-218750J0D01*
G01*
X196203750Y-105400000D01*
G75*
G02*
X195985000Y-105181250I0J218750D01*
G01*
X195985000Y-104668750D01*
G75*
G02*
X196203750Y-104450000I218750J0D01*
G01*
X196641250Y-104450000D01*
G75*
G02*
X196860000Y-104668750I0J-218750D01*
G01*
G37*
G36*
G01*
X195285000Y-104668750D02*
X195285000Y-105181250D01*
G75*
G02*
X195066250Y-105400000I-218750J0D01*
G01*
X194628750Y-105400000D01*
G75*
G02*
X194410000Y-105181250I0J218750D01*
G01*
X194410000Y-104668750D01*
G75*
G02*
X194628750Y-104450000I218750J0D01*
G01*
X195066250Y-104450000D01*
G75*
G02*
X195285000Y-104668750I0J-218750D01*
G01*
G37*
D23*
X201435000Y-102625000D03*
X200485000Y-100625000D03*
X202385000Y-100625000D03*
X208500000Y-111120000D03*
X207550000Y-109120000D03*
X209450000Y-109120000D03*
X191635000Y-97250000D03*
X193535000Y-97250000D03*
X192585000Y-95250000D03*
D28*
X198140000Y-105170000D03*
X198140000Y-107070000D03*
X200140000Y-106120000D03*
G36*
G01*
X214610500Y-97787750D02*
X214610500Y-98300250D01*
G75*
G02*
X214391750Y-98519000I-218750J0D01*
G01*
X213954250Y-98519000D01*
G75*
G02*
X213735500Y-98300250I0J218750D01*
G01*
X213735500Y-97787750D01*
G75*
G02*
X213954250Y-97569000I218750J0D01*
G01*
X214391750Y-97569000D01*
G75*
G02*
X214610500Y-97787750I0J-218750D01*
G01*
G37*
G36*
G01*
X213035500Y-97787750D02*
X213035500Y-98300250D01*
G75*
G02*
X212816750Y-98519000I-218750J0D01*
G01*
X212379250Y-98519000D01*
G75*
G02*
X212160500Y-98300250I0J218750D01*
G01*
X212160500Y-97787750D01*
G75*
G02*
X212379250Y-97569000I218750J0D01*
G01*
X212816750Y-97569000D01*
G75*
G02*
X213035500Y-97787750I0J-218750D01*
G01*
G37*
G36*
G01*
X209522500Y-97787750D02*
X209522500Y-98300250D01*
G75*
G02*
X209303750Y-98519000I-218750J0D01*
G01*
X208866250Y-98519000D01*
G75*
G02*
X208647500Y-98300250I0J218750D01*
G01*
X208647500Y-97787750D01*
G75*
G02*
X208866250Y-97569000I218750J0D01*
G01*
X209303750Y-97569000D01*
G75*
G02*
X209522500Y-97787750I0J-218750D01*
G01*
G37*
G36*
G01*
X211097500Y-97787750D02*
X211097500Y-98300250D01*
G75*
G02*
X210878750Y-98519000I-218750J0D01*
G01*
X210441250Y-98519000D01*
G75*
G02*
X210222500Y-98300250I0J218750D01*
G01*
X210222500Y-97787750D01*
G75*
G02*
X210441250Y-97569000I218750J0D01*
G01*
X210878750Y-97569000D01*
G75*
G02*
X211097500Y-97787750I0J-218750D01*
G01*
G37*
G36*
G01*
X207007750Y-96819000D02*
X207520250Y-96819000D01*
G75*
G02*
X207739000Y-97037750I0J-218750D01*
G01*
X207739000Y-97475250D01*
G75*
G02*
X207520250Y-97694000I-218750J0D01*
G01*
X207007750Y-97694000D01*
G75*
G02*
X206789000Y-97475250I0J218750D01*
G01*
X206789000Y-97037750D01*
G75*
G02*
X207007750Y-96819000I218750J0D01*
G01*
G37*
G36*
G01*
X207007750Y-98394000D02*
X207520250Y-98394000D01*
G75*
G02*
X207739000Y-98612750I0J-218750D01*
G01*
X207739000Y-99050250D01*
G75*
G02*
X207520250Y-99269000I-218750J0D01*
G01*
X207007750Y-99269000D01*
G75*
G02*
X206789000Y-99050250I0J218750D01*
G01*
X206789000Y-98612750D01*
G75*
G02*
X207007750Y-98394000I218750J0D01*
G01*
G37*
G36*
G01*
X202897500Y-98768750D02*
X202897500Y-99281250D01*
G75*
G02*
X202678750Y-99500000I-218750J0D01*
G01*
X202241250Y-99500000D01*
G75*
G02*
X202022500Y-99281250I0J218750D01*
G01*
X202022500Y-98768750D01*
G75*
G02*
X202241250Y-98550000I218750J0D01*
G01*
X202678750Y-98550000D01*
G75*
G02*
X202897500Y-98768750I0J-218750D01*
G01*
G37*
G36*
G01*
X201322500Y-98768750D02*
X201322500Y-99281250D01*
G75*
G02*
X201103750Y-99500000I-218750J0D01*
G01*
X200666250Y-99500000D01*
G75*
G02*
X200447500Y-99281250I0J218750D01*
G01*
X200447500Y-98768750D01*
G75*
G02*
X200666250Y-98550000I218750J0D01*
G01*
X201103750Y-98550000D01*
G75*
G02*
X201322500Y-98768750I0J-218750D01*
G01*
G37*
G36*
G01*
X197975000Y-91418750D02*
X197975000Y-91931250D01*
G75*
G02*
X197756250Y-92150000I-218750J0D01*
G01*
X197318750Y-92150000D01*
G75*
G02*
X197100000Y-91931250I0J218750D01*
G01*
X197100000Y-91418750D01*
G75*
G02*
X197318750Y-91200000I218750J0D01*
G01*
X197756250Y-91200000D01*
G75*
G02*
X197975000Y-91418750I0J-218750D01*
G01*
G37*
G36*
G01*
X199550000Y-91418750D02*
X199550000Y-91931250D01*
G75*
G02*
X199331250Y-92150000I-218750J0D01*
G01*
X198893750Y-92150000D01*
G75*
G02*
X198675000Y-91931250I0J218750D01*
G01*
X198675000Y-91418750D01*
G75*
G02*
X198893750Y-91200000I218750J0D01*
G01*
X199331250Y-91200000D01*
G75*
G02*
X199550000Y-91418750I0J-218750D01*
G01*
G37*
G36*
G01*
X208563750Y-99359000D02*
X209076250Y-99359000D01*
G75*
G02*
X209295000Y-99577750I0J-218750D01*
G01*
X209295000Y-100015250D01*
G75*
G02*
X209076250Y-100234000I-218750J0D01*
G01*
X208563750Y-100234000D01*
G75*
G02*
X208345000Y-100015250I0J218750D01*
G01*
X208345000Y-99577750D01*
G75*
G02*
X208563750Y-99359000I218750J0D01*
G01*
G37*
G36*
G01*
X208563750Y-100934000D02*
X209076250Y-100934000D01*
G75*
G02*
X209295000Y-101152750I0J-218750D01*
G01*
X209295000Y-101590250D01*
G75*
G02*
X209076250Y-101809000I-218750J0D01*
G01*
X208563750Y-101809000D01*
G75*
G02*
X208345000Y-101590250I0J218750D01*
G01*
X208345000Y-101152750D01*
G75*
G02*
X208563750Y-100934000I218750J0D01*
G01*
G37*
G36*
G01*
X204647500Y-100268750D02*
X204647500Y-100781250D01*
G75*
G02*
X204428750Y-101000000I-218750J0D01*
G01*
X203991250Y-101000000D01*
G75*
G02*
X203772500Y-100781250I0J218750D01*
G01*
X203772500Y-100268750D01*
G75*
G02*
X203991250Y-100050000I218750J0D01*
G01*
X204428750Y-100050000D01*
G75*
G02*
X204647500Y-100268750I0J-218750D01*
G01*
G37*
G36*
G01*
X206222500Y-100268750D02*
X206222500Y-100781250D01*
G75*
G02*
X206003750Y-101000000I-218750J0D01*
G01*
X205566250Y-101000000D01*
G75*
G02*
X205347500Y-100781250I0J218750D01*
G01*
X205347500Y-100268750D01*
G75*
G02*
X205566250Y-100050000I218750J0D01*
G01*
X206003750Y-100050000D01*
G75*
G02*
X206222500Y-100268750I0J-218750D01*
G01*
G37*
G36*
G01*
X195803750Y-93637500D02*
X196316250Y-93637500D01*
G75*
G02*
X196535000Y-93856250I0J-218750D01*
G01*
X196535000Y-94293750D01*
G75*
G02*
X196316250Y-94512500I-218750J0D01*
G01*
X195803750Y-94512500D01*
G75*
G02*
X195585000Y-94293750I0J218750D01*
G01*
X195585000Y-93856250D01*
G75*
G02*
X195803750Y-93637500I218750J0D01*
G01*
G37*
G36*
G01*
X195803750Y-95212500D02*
X196316250Y-95212500D01*
G75*
G02*
X196535000Y-95431250I0J-218750D01*
G01*
X196535000Y-95868750D01*
G75*
G02*
X196316250Y-96087500I-218750J0D01*
G01*
X195803750Y-96087500D01*
G75*
G02*
X195585000Y-95868750I0J218750D01*
G01*
X195585000Y-95431250D01*
G75*
G02*
X195803750Y-95212500I218750J0D01*
G01*
G37*
G36*
G01*
X199247500Y-102443750D02*
X199247500Y-102956250D01*
G75*
G02*
X199028750Y-103175000I-218750J0D01*
G01*
X198591250Y-103175000D01*
G75*
G02*
X198372500Y-102956250I0J218750D01*
G01*
X198372500Y-102443750D01*
G75*
G02*
X198591250Y-102225000I218750J0D01*
G01*
X199028750Y-102225000D01*
G75*
G02*
X199247500Y-102443750I0J-218750D01*
G01*
G37*
G36*
G01*
X197672500Y-102443750D02*
X197672500Y-102956250D01*
G75*
G02*
X197453750Y-103175000I-218750J0D01*
G01*
X197016250Y-103175000D01*
G75*
G02*
X196797500Y-102956250I0J218750D01*
G01*
X196797500Y-102443750D01*
G75*
G02*
X197016250Y-102225000I218750J0D01*
G01*
X197453750Y-102225000D01*
G75*
G02*
X197672500Y-102443750I0J-218750D01*
G01*
G37*
G36*
G01*
X196230000Y-111746250D02*
X196230000Y-111233750D01*
G75*
G02*
X196448750Y-111015000I218750J0D01*
G01*
X196886250Y-111015000D01*
G75*
G02*
X197105000Y-111233750I0J-218750D01*
G01*
X197105000Y-111746250D01*
G75*
G02*
X196886250Y-111965000I-218750J0D01*
G01*
X196448750Y-111965000D01*
G75*
G02*
X196230000Y-111746250I0J218750D01*
G01*
G37*
G36*
G01*
X194655000Y-111746250D02*
X194655000Y-111233750D01*
G75*
G02*
X194873750Y-111015000I218750J0D01*
G01*
X195311250Y-111015000D01*
G75*
G02*
X195530000Y-111233750I0J-218750D01*
G01*
X195530000Y-111746250D01*
G75*
G02*
X195311250Y-111965000I-218750J0D01*
G01*
X194873750Y-111965000D01*
G75*
G02*
X194655000Y-111746250I0J218750D01*
G01*
G37*
G36*
G01*
X193422500Y-93243750D02*
X193422500Y-93756250D01*
G75*
G02*
X193203750Y-93975000I-218750J0D01*
G01*
X192766250Y-93975000D01*
G75*
G02*
X192547500Y-93756250I0J218750D01*
G01*
X192547500Y-93243750D01*
G75*
G02*
X192766250Y-93025000I218750J0D01*
G01*
X193203750Y-93025000D01*
G75*
G02*
X193422500Y-93243750I0J-218750D01*
G01*
G37*
G36*
G01*
X191847500Y-93243750D02*
X191847500Y-93756250D01*
G75*
G02*
X191628750Y-93975000I-218750J0D01*
G01*
X191191250Y-93975000D01*
G75*
G02*
X190972500Y-93756250I0J218750D01*
G01*
X190972500Y-93243750D01*
G75*
G02*
X191191250Y-93025000I218750J0D01*
G01*
X191628750Y-93025000D01*
G75*
G02*
X191847500Y-93243750I0J-218750D01*
G01*
G37*
G36*
G01*
X194385000Y-102443750D02*
X194385000Y-102956250D01*
G75*
G02*
X194166250Y-103175000I-218750J0D01*
G01*
X193728750Y-103175000D01*
G75*
G02*
X193510000Y-102956250I0J218750D01*
G01*
X193510000Y-102443750D01*
G75*
G02*
X193728750Y-102225000I218750J0D01*
G01*
X194166250Y-102225000D01*
G75*
G02*
X194385000Y-102443750I0J-218750D01*
G01*
G37*
G36*
G01*
X195960000Y-102443750D02*
X195960000Y-102956250D01*
G75*
G02*
X195741250Y-103175000I-218750J0D01*
G01*
X195303750Y-103175000D01*
G75*
G02*
X195085000Y-102956250I0J218750D01*
G01*
X195085000Y-102443750D01*
G75*
G02*
X195303750Y-102225000I218750J0D01*
G01*
X195741250Y-102225000D01*
G75*
G02*
X195960000Y-102443750I0J-218750D01*
G01*
G37*
G36*
G01*
X196860000Y-106593750D02*
X196860000Y-107106250D01*
G75*
G02*
X196641250Y-107325000I-218750J0D01*
G01*
X196203750Y-107325000D01*
G75*
G02*
X195985000Y-107106250I0J218750D01*
G01*
X195985000Y-106593750D01*
G75*
G02*
X196203750Y-106375000I218750J0D01*
G01*
X196641250Y-106375000D01*
G75*
G02*
X196860000Y-106593750I0J-218750D01*
G01*
G37*
G36*
G01*
X195285000Y-106593750D02*
X195285000Y-107106250D01*
G75*
G02*
X195066250Y-107325000I-218750J0D01*
G01*
X194628750Y-107325000D01*
G75*
G02*
X194410000Y-107106250I0J218750D01*
G01*
X194410000Y-106593750D01*
G75*
G02*
X194628750Y-106375000I218750J0D01*
G01*
X195066250Y-106375000D01*
G75*
G02*
X195285000Y-106593750I0J-218750D01*
G01*
G37*
G36*
G01*
X198566250Y-109617500D02*
X198053750Y-109617500D01*
G75*
G02*
X197835000Y-109398750I0J218750D01*
G01*
X197835000Y-108961250D01*
G75*
G02*
X198053750Y-108742500I218750J0D01*
G01*
X198566250Y-108742500D01*
G75*
G02*
X198785000Y-108961250I0J-218750D01*
G01*
X198785000Y-109398750D01*
G75*
G02*
X198566250Y-109617500I-218750J0D01*
G01*
G37*
G36*
G01*
X198566250Y-111192500D02*
X198053750Y-111192500D01*
G75*
G02*
X197835000Y-110973750I0J218750D01*
G01*
X197835000Y-110536250D01*
G75*
G02*
X198053750Y-110317500I218750J0D01*
G01*
X198566250Y-110317500D01*
G75*
G02*
X198785000Y-110536250I0J-218750D01*
G01*
X198785000Y-110973750D01*
G75*
G02*
X198566250Y-111192500I-218750J0D01*
G01*
G37*
G36*
G01*
X189481750Y-94838000D02*
X189994250Y-94838000D01*
G75*
G02*
X190213000Y-95056750I0J-218750D01*
G01*
X190213000Y-95494250D01*
G75*
G02*
X189994250Y-95713000I-218750J0D01*
G01*
X189481750Y-95713000D01*
G75*
G02*
X189263000Y-95494250I0J218750D01*
G01*
X189263000Y-95056750D01*
G75*
G02*
X189481750Y-94838000I218750J0D01*
G01*
G37*
G36*
G01*
X189481750Y-93263000D02*
X189994250Y-93263000D01*
G75*
G02*
X190213000Y-93481750I0J-218750D01*
G01*
X190213000Y-93919250D01*
G75*
G02*
X189994250Y-94138000I-218750J0D01*
G01*
X189481750Y-94138000D01*
G75*
G02*
X189263000Y-93919250I0J218750D01*
G01*
X189263000Y-93481750D01*
G75*
G02*
X189481750Y-93263000I218750J0D01*
G01*
G37*
G36*
G01*
X192664500Y-108201750D02*
X192664500Y-108714250D01*
G75*
G02*
X192445750Y-108933000I-218750J0D01*
G01*
X192008250Y-108933000D01*
G75*
G02*
X191789500Y-108714250I0J218750D01*
G01*
X191789500Y-108201750D01*
G75*
G02*
X192008250Y-107983000I218750J0D01*
G01*
X192445750Y-107983000D01*
G75*
G02*
X192664500Y-108201750I0J-218750D01*
G01*
G37*
G36*
G01*
X194239500Y-108201750D02*
X194239500Y-108714250D01*
G75*
G02*
X194020750Y-108933000I-218750J0D01*
G01*
X193583250Y-108933000D01*
G75*
G02*
X193364500Y-108714250I0J218750D01*
G01*
X193364500Y-108201750D01*
G75*
G02*
X193583250Y-107983000I218750J0D01*
G01*
X194020750Y-107983000D01*
G75*
G02*
X194239500Y-108201750I0J-218750D01*
G01*
G37*
G36*
G01*
X235981250Y-104225000D02*
X235468750Y-104225000D01*
G75*
G02*
X235250000Y-104006250I0J218750D01*
G01*
X235250000Y-103568750D01*
G75*
G02*
X235468750Y-103350000I218750J0D01*
G01*
X235981250Y-103350000D01*
G75*
G02*
X236200000Y-103568750I0J-218750D01*
G01*
X236200000Y-104006250D01*
G75*
G02*
X235981250Y-104225000I-218750J0D01*
G01*
G37*
G36*
G01*
X235981250Y-102650000D02*
X235468750Y-102650000D01*
G75*
G02*
X235250000Y-102431250I0J218750D01*
G01*
X235250000Y-101993750D01*
G75*
G02*
X235468750Y-101775000I218750J0D01*
G01*
X235981250Y-101775000D01*
G75*
G02*
X236200000Y-101993750I0J-218750D01*
G01*
X236200000Y-102431250D01*
G75*
G02*
X235981250Y-102650000I-218750J0D01*
G01*
G37*
G36*
G01*
X202214340Y-71518360D02*
X202214340Y-72618360D01*
G75*
G02*
X201964340Y-72868360I-250000J0D01*
G01*
X199464340Y-72868360D01*
G75*
G02*
X199214340Y-72618360I0J250000D01*
G01*
X199214340Y-71518360D01*
G75*
G02*
X199464340Y-71268360I250000J0D01*
G01*
X201964340Y-71268360D01*
G75*
G02*
X202214340Y-71518360I0J-250000D01*
G01*
G37*
G36*
G01*
X206614340Y-71518360D02*
X206614340Y-72618360D01*
G75*
G02*
X206364340Y-72868360I-250000J0D01*
G01*
X203864340Y-72868360D01*
G75*
G02*
X203614340Y-72618360I0J250000D01*
G01*
X203614340Y-71518360D01*
G75*
G02*
X203864340Y-71268360I250000J0D01*
G01*
X206364340Y-71268360D01*
G75*
G02*
X206614340Y-71518360I0J-250000D01*
G01*
G37*
G36*
G01*
X209500000Y-94825000D02*
X209500000Y-93725000D01*
G75*
G02*
X209750000Y-93475000I250000J0D01*
G01*
X212250000Y-93475000D01*
G75*
G02*
X212500000Y-93725000I0J-250000D01*
G01*
X212500000Y-94825000D01*
G75*
G02*
X212250000Y-95075000I-250000J0D01*
G01*
X209750000Y-95075000D01*
G75*
G02*
X209500000Y-94825000I0J250000D01*
G01*
G37*
G36*
G01*
X213900000Y-94825000D02*
X213900000Y-93725000D01*
G75*
G02*
X214150000Y-93475000I250000J0D01*
G01*
X216650000Y-93475000D01*
G75*
G02*
X216900000Y-93725000I0J-250000D01*
G01*
X216900000Y-94825000D01*
G75*
G02*
X216650000Y-95075000I-250000J0D01*
G01*
X214150000Y-95075000D01*
G75*
G02*
X213900000Y-94825000I0J250000D01*
G01*
G37*
G36*
G01*
X172016250Y-83217500D02*
X171503750Y-83217500D01*
G75*
G02*
X171285000Y-82998750I0J218750D01*
G01*
X171285000Y-82561250D01*
G75*
G02*
X171503750Y-82342500I218750J0D01*
G01*
X172016250Y-82342500D01*
G75*
G02*
X172235000Y-82561250I0J-218750D01*
G01*
X172235000Y-82998750D01*
G75*
G02*
X172016250Y-83217500I-218750J0D01*
G01*
G37*
G36*
G01*
X172016250Y-81642500D02*
X171503750Y-81642500D01*
G75*
G02*
X171285000Y-81423750I0J218750D01*
G01*
X171285000Y-80986250D01*
G75*
G02*
X171503750Y-80767500I218750J0D01*
G01*
X172016250Y-80767500D01*
G75*
G02*
X172235000Y-80986250I0J-218750D01*
G01*
X172235000Y-81423750D01*
G75*
G02*
X172016250Y-81642500I-218750J0D01*
G01*
G37*
G36*
G01*
X216580000Y-106720000D02*
X216580000Y-105620000D01*
G75*
G02*
X216830000Y-105370000I250000J0D01*
G01*
X218930000Y-105370000D01*
G75*
G02*
X219180000Y-105620000I0J-250000D01*
G01*
X219180000Y-106720000D01*
G75*
G02*
X218930000Y-106970000I-250000J0D01*
G01*
X216830000Y-106970000D01*
G75*
G02*
X216580000Y-106720000I0J250000D01*
G01*
G37*
G36*
G01*
X212980000Y-106720000D02*
X212980000Y-105620000D01*
G75*
G02*
X213230000Y-105370000I250000J0D01*
G01*
X215330000Y-105370000D01*
G75*
G02*
X215580000Y-105620000I0J-250000D01*
G01*
X215580000Y-106720000D01*
G75*
G02*
X215330000Y-106970000I-250000J0D01*
G01*
X213230000Y-106970000D01*
G75*
G02*
X212980000Y-106720000I0J250000D01*
G01*
G37*
G36*
G01*
X215585000Y-98246250D02*
X215585000Y-97733750D01*
G75*
G02*
X215803750Y-97515000I218750J0D01*
G01*
X216241250Y-97515000D01*
G75*
G02*
X216460000Y-97733750I0J-218750D01*
G01*
X216460000Y-98246250D01*
G75*
G02*
X216241250Y-98465000I-218750J0D01*
G01*
X215803750Y-98465000D01*
G75*
G02*
X215585000Y-98246250I0J218750D01*
G01*
G37*
G36*
G01*
X217160000Y-98246250D02*
X217160000Y-97733750D01*
G75*
G02*
X217378750Y-97515000I218750J0D01*
G01*
X217816250Y-97515000D01*
G75*
G02*
X218035000Y-97733750I0J-218750D01*
G01*
X218035000Y-98246250D01*
G75*
G02*
X217816250Y-98465000I-218750J0D01*
G01*
X217378750Y-98465000D01*
G75*
G02*
X217160000Y-98246250I0J218750D01*
G01*
G37*
G36*
G01*
X214098250Y-110495500D02*
X214610750Y-110495500D01*
G75*
G02*
X214829500Y-110714250I0J-218750D01*
G01*
X214829500Y-111151750D01*
G75*
G02*
X214610750Y-111370500I-218750J0D01*
G01*
X214098250Y-111370500D01*
G75*
G02*
X213879500Y-111151750I0J218750D01*
G01*
X213879500Y-110714250D01*
G75*
G02*
X214098250Y-110495500I218750J0D01*
G01*
G37*
G36*
G01*
X214098250Y-108920500D02*
X214610750Y-108920500D01*
G75*
G02*
X214829500Y-109139250I0J-218750D01*
G01*
X214829500Y-109576750D01*
G75*
G02*
X214610750Y-109795500I-218750J0D01*
G01*
X214098250Y-109795500D01*
G75*
G02*
X213879500Y-109576750I0J218750D01*
G01*
X213879500Y-109139250D01*
G75*
G02*
X214098250Y-108920500I218750J0D01*
G01*
G37*
G36*
G01*
X149025000Y-51903750D02*
X149025000Y-52416250D01*
G75*
G02*
X148806250Y-52635000I-218750J0D01*
G01*
X148368750Y-52635000D01*
G75*
G02*
X148150000Y-52416250I0J218750D01*
G01*
X148150000Y-51903750D01*
G75*
G02*
X148368750Y-51685000I218750J0D01*
G01*
X148806250Y-51685000D01*
G75*
G02*
X149025000Y-51903750I0J-218750D01*
G01*
G37*
G36*
G01*
X147450000Y-51903750D02*
X147450000Y-52416250D01*
G75*
G02*
X147231250Y-52635000I-218750J0D01*
G01*
X146793750Y-52635000D01*
G75*
G02*
X146575000Y-52416250I0J218750D01*
G01*
X146575000Y-51903750D01*
G75*
G02*
X146793750Y-51685000I218750J0D01*
G01*
X147231250Y-51685000D01*
G75*
G02*
X147450000Y-51903750I0J-218750D01*
G01*
G37*
G36*
G01*
X120006250Y-43890000D02*
X119493750Y-43890000D01*
G75*
G02*
X119275000Y-43671250I0J218750D01*
G01*
X119275000Y-43233750D01*
G75*
G02*
X119493750Y-43015000I218750J0D01*
G01*
X120006250Y-43015000D01*
G75*
G02*
X120225000Y-43233750I0J-218750D01*
G01*
X120225000Y-43671250D01*
G75*
G02*
X120006250Y-43890000I-218750J0D01*
G01*
G37*
G36*
G01*
X120006250Y-45465000D02*
X119493750Y-45465000D01*
G75*
G02*
X119275000Y-45246250I0J218750D01*
G01*
X119275000Y-44808750D01*
G75*
G02*
X119493750Y-44590000I218750J0D01*
G01*
X120006250Y-44590000D01*
G75*
G02*
X120225000Y-44808750I0J-218750D01*
G01*
X120225000Y-45246250D01*
G75*
G02*
X120006250Y-45465000I-218750J0D01*
G01*
G37*
G36*
G01*
X208087500Y-90381250D02*
X208087500Y-89868750D01*
G75*
G02*
X208306250Y-89650000I218750J0D01*
G01*
X208743750Y-89650000D01*
G75*
G02*
X208962500Y-89868750I0J-218750D01*
G01*
X208962500Y-90381250D01*
G75*
G02*
X208743750Y-90600000I-218750J0D01*
G01*
X208306250Y-90600000D01*
G75*
G02*
X208087500Y-90381250I0J218750D01*
G01*
G37*
G36*
G01*
X209662500Y-90381250D02*
X209662500Y-89868750D01*
G75*
G02*
X209881250Y-89650000I218750J0D01*
G01*
X210318750Y-89650000D01*
G75*
G02*
X210537500Y-89868750I0J-218750D01*
G01*
X210537500Y-90381250D01*
G75*
G02*
X210318750Y-90600000I-218750J0D01*
G01*
X209881250Y-90600000D01*
G75*
G02*
X209662500Y-90381250I0J218750D01*
G01*
G37*
G36*
G01*
X148656250Y-49430000D02*
X148143750Y-49430000D01*
G75*
G02*
X147925000Y-49211250I0J218750D01*
G01*
X147925000Y-48773750D01*
G75*
G02*
X148143750Y-48555000I218750J0D01*
G01*
X148656250Y-48555000D01*
G75*
G02*
X148875000Y-48773750I0J-218750D01*
G01*
X148875000Y-49211250D01*
G75*
G02*
X148656250Y-49430000I-218750J0D01*
G01*
G37*
G36*
G01*
X148656250Y-51005000D02*
X148143750Y-51005000D01*
G75*
G02*
X147925000Y-50786250I0J218750D01*
G01*
X147925000Y-50348750D01*
G75*
G02*
X148143750Y-50130000I218750J0D01*
G01*
X148656250Y-50130000D01*
G75*
G02*
X148875000Y-50348750I0J-218750D01*
G01*
X148875000Y-50786250D01*
G75*
G02*
X148656250Y-51005000I-218750J0D01*
G01*
G37*
G36*
G01*
X120036250Y-48535000D02*
X119523750Y-48535000D01*
G75*
G02*
X119305000Y-48316250I0J218750D01*
G01*
X119305000Y-47878750D01*
G75*
G02*
X119523750Y-47660000I218750J0D01*
G01*
X120036250Y-47660000D01*
G75*
G02*
X120255000Y-47878750I0J-218750D01*
G01*
X120255000Y-48316250D01*
G75*
G02*
X120036250Y-48535000I-218750J0D01*
G01*
G37*
G36*
G01*
X120036250Y-46960000D02*
X119523750Y-46960000D01*
G75*
G02*
X119305000Y-46741250I0J218750D01*
G01*
X119305000Y-46303750D01*
G75*
G02*
X119523750Y-46085000I218750J0D01*
G01*
X120036250Y-46085000D01*
G75*
G02*
X120255000Y-46303750I0J-218750D01*
G01*
X120255000Y-46741250D01*
G75*
G02*
X120036250Y-46960000I-218750J0D01*
G01*
G37*
G36*
G01*
X191590000Y-99260000D02*
X191590000Y-100360000D01*
G75*
G02*
X191340000Y-100610000I-250000J0D01*
G01*
X188840000Y-100610000D01*
G75*
G02*
X188590000Y-100360000I0J250000D01*
G01*
X188590000Y-99260000D01*
G75*
G02*
X188840000Y-99010000I250000J0D01*
G01*
X191340000Y-99010000D01*
G75*
G02*
X191590000Y-99260000I0J-250000D01*
G01*
G37*
G36*
G01*
X187190000Y-99260000D02*
X187190000Y-100360000D01*
G75*
G02*
X186940000Y-100610000I-250000J0D01*
G01*
X184440000Y-100610000D01*
G75*
G02*
X184190000Y-100360000I0J250000D01*
G01*
X184190000Y-99260000D01*
G75*
G02*
X184440000Y-99010000I250000J0D01*
G01*
X186940000Y-99010000D01*
G75*
G02*
X187190000Y-99260000I0J-250000D01*
G01*
G37*
G36*
G01*
X186290000Y-109800000D02*
X186290000Y-110900000D01*
G75*
G02*
X186040000Y-111150000I-250000J0D01*
G01*
X183540000Y-111150000D01*
G75*
G02*
X183290000Y-110900000I0J250000D01*
G01*
X183290000Y-109800000D01*
G75*
G02*
X183540000Y-109550000I250000J0D01*
G01*
X186040000Y-109550000D01*
G75*
G02*
X186290000Y-109800000I0J-250000D01*
G01*
G37*
G36*
G01*
X181890000Y-109800000D02*
X181890000Y-110900000D01*
G75*
G02*
X181640000Y-111150000I-250000J0D01*
G01*
X179140000Y-111150000D01*
G75*
G02*
X178890000Y-110900000I0J250000D01*
G01*
X178890000Y-109800000D01*
G75*
G02*
X179140000Y-109550000I250000J0D01*
G01*
X181640000Y-109550000D01*
G75*
G02*
X181890000Y-109800000I0J-250000D01*
G01*
G37*
G36*
G01*
X184110000Y-93260000D02*
X184110000Y-94360000D01*
G75*
G02*
X183860000Y-94610000I-250000J0D01*
G01*
X181360000Y-94610000D01*
G75*
G02*
X181110000Y-94360000I0J250000D01*
G01*
X181110000Y-93260000D01*
G75*
G02*
X181360000Y-93010000I250000J0D01*
G01*
X183860000Y-93010000D01*
G75*
G02*
X184110000Y-93260000I0J-250000D01*
G01*
G37*
G36*
G01*
X188510000Y-93260000D02*
X188510000Y-94360000D01*
G75*
G02*
X188260000Y-94610000I-250000J0D01*
G01*
X185760000Y-94610000D01*
G75*
G02*
X185510000Y-94360000I0J250000D01*
G01*
X185510000Y-93260000D01*
G75*
G02*
X185760000Y-93010000I250000J0D01*
G01*
X188260000Y-93010000D01*
G75*
G02*
X188510000Y-93260000I0J-250000D01*
G01*
G37*
G36*
G01*
X187860000Y-105330000D02*
X187860000Y-106430000D01*
G75*
G02*
X187610000Y-106680000I-250000J0D01*
G01*
X185110000Y-106680000D01*
G75*
G02*
X184860000Y-106430000I0J250000D01*
G01*
X184860000Y-105330000D01*
G75*
G02*
X185110000Y-105080000I250000J0D01*
G01*
X187610000Y-105080000D01*
G75*
G02*
X187860000Y-105330000I0J-250000D01*
G01*
G37*
G36*
G01*
X192260000Y-105330000D02*
X192260000Y-106430000D01*
G75*
G02*
X192010000Y-106680000I-250000J0D01*
G01*
X189510000Y-106680000D01*
G75*
G02*
X189260000Y-106430000I0J250000D01*
G01*
X189260000Y-105330000D01*
G75*
G02*
X189510000Y-105080000I250000J0D01*
G01*
X192010000Y-105080000D01*
G75*
G02*
X192260000Y-105330000I0J-250000D01*
G01*
G37*
D29*
X173360000Y-73500000D03*
X173360000Y-75780000D03*
X173360000Y-78060000D03*
D30*
X181335000Y-77305000D03*
X177985000Y-74255000D03*
X181335000Y-74255000D03*
X177985000Y-77305000D03*
G36*
G01*
X231150000Y-111520000D02*
X230650000Y-111520000D01*
G75*
G02*
X230425000Y-111295000I0J225000D01*
G01*
X230425000Y-110845000D01*
G75*
G02*
X230650000Y-110620000I225000J0D01*
G01*
X231150000Y-110620000D01*
G75*
G02*
X231375000Y-110845000I0J-225000D01*
G01*
X231375000Y-111295000D01*
G75*
G02*
X231150000Y-111520000I-225000J0D01*
G01*
G37*
G36*
G01*
X231150000Y-109970000D02*
X230650000Y-109970000D01*
G75*
G02*
X230425000Y-109745000I0J225000D01*
G01*
X230425000Y-109295000D01*
G75*
G02*
X230650000Y-109070000I225000J0D01*
G01*
X231150000Y-109070000D01*
G75*
G02*
X231375000Y-109295000I0J-225000D01*
G01*
X231375000Y-109745000D01*
G75*
G02*
X231150000Y-109970000I-225000J0D01*
G01*
G37*
D31*
X228630000Y-113430000D03*
X228630000Y-108350000D03*
X224630000Y-108350000D03*
X224630000Y-113430000D03*
G36*
G01*
X108370000Y-119065000D02*
X108370000Y-119615000D01*
G75*
G02*
X108170000Y-119815000I-200000J0D01*
G01*
X107770000Y-119815000D01*
G75*
G02*
X107570000Y-119615000I0J200000D01*
G01*
X107570000Y-119065000D01*
G75*
G02*
X107770000Y-118865000I200000J0D01*
G01*
X108170000Y-118865000D01*
G75*
G02*
X108370000Y-119065000I0J-200000D01*
G01*
G37*
G36*
G01*
X106720000Y-119065000D02*
X106720000Y-119615000D01*
G75*
G02*
X106520000Y-119815000I-200000J0D01*
G01*
X106120000Y-119815000D01*
G75*
G02*
X105920000Y-119615000I0J200000D01*
G01*
X105920000Y-119065000D01*
G75*
G02*
X106120000Y-118865000I200000J0D01*
G01*
X106520000Y-118865000D01*
G75*
G02*
X106720000Y-119065000I0J-200000D01*
G01*
G37*
G36*
G01*
X157750000Y-64790000D02*
X158850000Y-64790000D01*
G75*
G02*
X159100000Y-65040000I0J-250000D01*
G01*
X159100000Y-67140000D01*
G75*
G02*
X158850000Y-67390000I-250000J0D01*
G01*
X157750000Y-67390000D01*
G75*
G02*
X157500000Y-67140000I0J250000D01*
G01*
X157500000Y-65040000D01*
G75*
G02*
X157750000Y-64790000I250000J0D01*
G01*
G37*
G36*
G01*
X157750000Y-68390000D02*
X158850000Y-68390000D01*
G75*
G02*
X159100000Y-68640000I0J-250000D01*
G01*
X159100000Y-70740000D01*
G75*
G02*
X158850000Y-70990000I-250000J0D01*
G01*
X157750000Y-70990000D01*
G75*
G02*
X157500000Y-70740000I0J250000D01*
G01*
X157500000Y-68640000D01*
G75*
G02*
X157750000Y-68390000I250000J0D01*
G01*
G37*
D12*
X197770000Y-70140000D03*
X195670000Y-70140000D03*
G36*
G01*
X187460000Y-81080000D02*
X186360000Y-81080000D01*
G75*
G02*
X186110000Y-80830000I0J250000D01*
G01*
X186110000Y-77830000D01*
G75*
G02*
X186360000Y-77580000I250000J0D01*
G01*
X187460000Y-77580000D01*
G75*
G02*
X187710000Y-77830000I0J-250000D01*
G01*
X187710000Y-80830000D01*
G75*
G02*
X187460000Y-81080000I-250000J0D01*
G01*
G37*
G36*
G01*
X187460000Y-75680000D02*
X186360000Y-75680000D01*
G75*
G02*
X186110000Y-75430000I0J250000D01*
G01*
X186110000Y-72430000D01*
G75*
G02*
X186360000Y-72180000I250000J0D01*
G01*
X187460000Y-72180000D01*
G75*
G02*
X187710000Y-72430000I0J-250000D01*
G01*
X187710000Y-75430000D01*
G75*
G02*
X187460000Y-75680000I-250000J0D01*
G01*
G37*
G36*
G01*
X230920000Y-93395000D02*
X230420000Y-93395000D01*
G75*
G02*
X230195000Y-93170000I0J225000D01*
G01*
X230195000Y-92720000D01*
G75*
G02*
X230420000Y-92495000I225000J0D01*
G01*
X230920000Y-92495000D01*
G75*
G02*
X231145000Y-92720000I0J-225000D01*
G01*
X231145000Y-93170000D01*
G75*
G02*
X230920000Y-93395000I-225000J0D01*
G01*
G37*
G36*
G01*
X230920000Y-94945000D02*
X230420000Y-94945000D01*
G75*
G02*
X230195000Y-94720000I0J225000D01*
G01*
X230195000Y-94270000D01*
G75*
G02*
X230420000Y-94045000I225000J0D01*
G01*
X230920000Y-94045000D01*
G75*
G02*
X231145000Y-94270000I0J-225000D01*
G01*
X231145000Y-94720000D01*
G75*
G02*
X230920000Y-94945000I-225000J0D01*
G01*
G37*
D32*
X180360000Y-83405000D03*
D33*
X174060000Y-83405000D03*
X174060000Y-85705000D03*
X174060000Y-81105000D03*
D34*
X193760000Y-67000000D03*
X193760000Y-64460000D03*
X193760000Y-61920000D03*
X193760000Y-59380000D03*
X203300000Y-66930000D03*
X203300000Y-64390000D03*
X203300000Y-61850000D03*
X203300000Y-59310000D03*
G36*
G01*
X226885000Y-112035000D02*
X226335000Y-112035000D01*
G75*
G02*
X226135000Y-111835000I0J200000D01*
G01*
X226135000Y-111435000D01*
G75*
G02*
X226335000Y-111235000I200000J0D01*
G01*
X226885000Y-111235000D01*
G75*
G02*
X227085000Y-111435000I0J-200000D01*
G01*
X227085000Y-111835000D01*
G75*
G02*
X226885000Y-112035000I-200000J0D01*
G01*
G37*
G36*
G01*
X226885000Y-110385000D02*
X226335000Y-110385000D01*
G75*
G02*
X226135000Y-110185000I0J200000D01*
G01*
X226135000Y-109785000D01*
G75*
G02*
X226335000Y-109585000I200000J0D01*
G01*
X226885000Y-109585000D01*
G75*
G02*
X227085000Y-109785000I0J-200000D01*
G01*
X227085000Y-110185000D01*
G75*
G02*
X226885000Y-110385000I-200000J0D01*
G01*
G37*
G36*
G01*
X64320000Y-105600000D02*
X64320000Y-106100000D01*
G75*
G02*
X64095000Y-106325000I-225000J0D01*
G01*
X63645000Y-106325000D01*
G75*
G02*
X63420000Y-106100000I0J225000D01*
G01*
X63420000Y-105600000D01*
G75*
G02*
X63645000Y-105375000I225000J0D01*
G01*
X64095000Y-105375000D01*
G75*
G02*
X64320000Y-105600000I0J-225000D01*
G01*
G37*
G36*
G01*
X65870000Y-105600000D02*
X65870000Y-106100000D01*
G75*
G02*
X65645000Y-106325000I-225000J0D01*
G01*
X65195000Y-106325000D01*
G75*
G02*
X64970000Y-106100000I0J225000D01*
G01*
X64970000Y-105600000D01*
G75*
G02*
X65195000Y-105375000I225000J0D01*
G01*
X65645000Y-105375000D01*
G75*
G02*
X65870000Y-105600000I0J-225000D01*
G01*
G37*
G36*
G01*
X64330000Y-103770000D02*
X64330000Y-104270000D01*
G75*
G02*
X64105000Y-104495000I-225000J0D01*
G01*
X63655000Y-104495000D01*
G75*
G02*
X63430000Y-104270000I0J225000D01*
G01*
X63430000Y-103770000D01*
G75*
G02*
X63655000Y-103545000I225000J0D01*
G01*
X64105000Y-103545000D01*
G75*
G02*
X64330000Y-103770000I0J-225000D01*
G01*
G37*
G36*
G01*
X65880000Y-103770000D02*
X65880000Y-104270000D01*
G75*
G02*
X65655000Y-104495000I-225000J0D01*
G01*
X65205000Y-104495000D01*
G75*
G02*
X64980000Y-104270000I0J225000D01*
G01*
X64980000Y-103770000D01*
G75*
G02*
X65205000Y-103545000I225000J0D01*
G01*
X65655000Y-103545000D01*
G75*
G02*
X65880000Y-103770000I0J-225000D01*
G01*
G37*
G36*
G01*
X150975000Y-128150000D02*
X150025000Y-128150000D01*
G75*
G02*
X149775000Y-127900000I0J250000D01*
G01*
X149775000Y-127400000D01*
G75*
G02*
X150025000Y-127150000I250000J0D01*
G01*
X150975000Y-127150000D01*
G75*
G02*
X151225000Y-127400000I0J-250000D01*
G01*
X151225000Y-127900000D01*
G75*
G02*
X150975000Y-128150000I-250000J0D01*
G01*
G37*
G36*
G01*
X150975000Y-126250000D02*
X150025000Y-126250000D01*
G75*
G02*
X149775000Y-126000000I0J250000D01*
G01*
X149775000Y-125500000D01*
G75*
G02*
X150025000Y-125250000I250000J0D01*
G01*
X150975000Y-125250000D01*
G75*
G02*
X151225000Y-125500000I0J-250000D01*
G01*
X151225000Y-126000000D01*
G75*
G02*
X150975000Y-126250000I-250000J0D01*
G01*
G37*
G36*
G01*
X152840000Y-127870000D02*
X152340000Y-127870000D01*
G75*
G02*
X152115000Y-127645000I0J225000D01*
G01*
X152115000Y-127195000D01*
G75*
G02*
X152340000Y-126970000I225000J0D01*
G01*
X152840000Y-126970000D01*
G75*
G02*
X153065000Y-127195000I0J-225000D01*
G01*
X153065000Y-127645000D01*
G75*
G02*
X152840000Y-127870000I-225000J0D01*
G01*
G37*
G36*
G01*
X152840000Y-126320000D02*
X152340000Y-126320000D01*
G75*
G02*
X152115000Y-126095000I0J225000D01*
G01*
X152115000Y-125645000D01*
G75*
G02*
X152340000Y-125420000I225000J0D01*
G01*
X152840000Y-125420000D01*
G75*
G02*
X153065000Y-125645000I0J-225000D01*
G01*
X153065000Y-126095000D01*
G75*
G02*
X152840000Y-126320000I-225000J0D01*
G01*
G37*
G36*
G01*
X150935000Y-122420000D02*
X149985000Y-122420000D01*
G75*
G02*
X149735000Y-122170000I0J250000D01*
G01*
X149735000Y-121670000D01*
G75*
G02*
X149985000Y-121420000I250000J0D01*
G01*
X150935000Y-121420000D01*
G75*
G02*
X151185000Y-121670000I0J-250000D01*
G01*
X151185000Y-122170000D01*
G75*
G02*
X150935000Y-122420000I-250000J0D01*
G01*
G37*
G36*
G01*
X150935000Y-124320000D02*
X149985000Y-124320000D01*
G75*
G02*
X149735000Y-124070000I0J250000D01*
G01*
X149735000Y-123570000D01*
G75*
G02*
X149985000Y-123320000I250000J0D01*
G01*
X150935000Y-123320000D01*
G75*
G02*
X151185000Y-123570000I0J-250000D01*
G01*
X151185000Y-124070000D01*
G75*
G02*
X150935000Y-124320000I-250000J0D01*
G01*
G37*
G36*
G01*
X152790000Y-124140000D02*
X152290000Y-124140000D01*
G75*
G02*
X152065000Y-123915000I0J225000D01*
G01*
X152065000Y-123465000D01*
G75*
G02*
X152290000Y-123240000I225000J0D01*
G01*
X152790000Y-123240000D01*
G75*
G02*
X153015000Y-123465000I0J-225000D01*
G01*
X153015000Y-123915000D01*
G75*
G02*
X152790000Y-124140000I-225000J0D01*
G01*
G37*
G36*
G01*
X152790000Y-122590000D02*
X152290000Y-122590000D01*
G75*
G02*
X152065000Y-122365000I0J225000D01*
G01*
X152065000Y-121915000D01*
G75*
G02*
X152290000Y-121690000I225000J0D01*
G01*
X152790000Y-121690000D01*
G75*
G02*
X153015000Y-121915000I0J-225000D01*
G01*
X153015000Y-122365000D01*
G75*
G02*
X152790000Y-122590000I-225000J0D01*
G01*
G37*
G36*
G01*
X157610000Y-126535000D02*
X157110000Y-126535000D01*
G75*
G02*
X156885000Y-126310000I0J225000D01*
G01*
X156885000Y-125860000D01*
G75*
G02*
X157110000Y-125635000I225000J0D01*
G01*
X157610000Y-125635000D01*
G75*
G02*
X157835000Y-125860000I0J-225000D01*
G01*
X157835000Y-126310000D01*
G75*
G02*
X157610000Y-126535000I-225000J0D01*
G01*
G37*
G36*
G01*
X157610000Y-128085000D02*
X157110000Y-128085000D01*
G75*
G02*
X156885000Y-127860000I0J225000D01*
G01*
X156885000Y-127410000D01*
G75*
G02*
X157110000Y-127185000I225000J0D01*
G01*
X157610000Y-127185000D01*
G75*
G02*
X157835000Y-127410000I0J-225000D01*
G01*
X157835000Y-127860000D01*
G75*
G02*
X157610000Y-128085000I-225000J0D01*
G01*
G37*
G36*
G01*
X155460000Y-128065000D02*
X154960000Y-128065000D01*
G75*
G02*
X154735000Y-127840000I0J225000D01*
G01*
X154735000Y-127390000D01*
G75*
G02*
X154960000Y-127165000I225000J0D01*
G01*
X155460000Y-127165000D01*
G75*
G02*
X155685000Y-127390000I0J-225000D01*
G01*
X155685000Y-127840000D01*
G75*
G02*
X155460000Y-128065000I-225000J0D01*
G01*
G37*
G36*
G01*
X155460000Y-126515000D02*
X154960000Y-126515000D01*
G75*
G02*
X154735000Y-126290000I0J225000D01*
G01*
X154735000Y-125840000D01*
G75*
G02*
X154960000Y-125615000I225000J0D01*
G01*
X155460000Y-125615000D01*
G75*
G02*
X155685000Y-125840000I0J-225000D01*
G01*
X155685000Y-126290000D01*
G75*
G02*
X155460000Y-126515000I-225000J0D01*
G01*
G37*
G36*
G01*
X93050000Y-119870000D02*
X92550000Y-119870000D01*
G75*
G02*
X92325000Y-119645000I0J225000D01*
G01*
X92325000Y-119195000D01*
G75*
G02*
X92550000Y-118970000I225000J0D01*
G01*
X93050000Y-118970000D01*
G75*
G02*
X93275000Y-119195000I0J-225000D01*
G01*
X93275000Y-119645000D01*
G75*
G02*
X93050000Y-119870000I-225000J0D01*
G01*
G37*
G36*
G01*
X93050000Y-121420000D02*
X92550000Y-121420000D01*
G75*
G02*
X92325000Y-121195000I0J225000D01*
G01*
X92325000Y-120745000D01*
G75*
G02*
X92550000Y-120520000I225000J0D01*
G01*
X93050000Y-120520000D01*
G75*
G02*
X93275000Y-120745000I0J-225000D01*
G01*
X93275000Y-121195000D01*
G75*
G02*
X93050000Y-121420000I-225000J0D01*
G01*
G37*
G36*
G01*
X94730000Y-121450000D02*
X94230000Y-121450000D01*
G75*
G02*
X94005000Y-121225000I0J225000D01*
G01*
X94005000Y-120775000D01*
G75*
G02*
X94230000Y-120550000I225000J0D01*
G01*
X94730000Y-120550000D01*
G75*
G02*
X94955000Y-120775000I0J-225000D01*
G01*
X94955000Y-121225000D01*
G75*
G02*
X94730000Y-121450000I-225000J0D01*
G01*
G37*
G36*
G01*
X94730000Y-119900000D02*
X94230000Y-119900000D01*
G75*
G02*
X94005000Y-119675000I0J225000D01*
G01*
X94005000Y-119225000D01*
G75*
G02*
X94230000Y-119000000I225000J0D01*
G01*
X94730000Y-119000000D01*
G75*
G02*
X94955000Y-119225000I0J-225000D01*
G01*
X94955000Y-119675000D01*
G75*
G02*
X94730000Y-119900000I-225000J0D01*
G01*
G37*
G36*
G01*
X169848840Y-99916240D02*
X169848840Y-100466240D01*
G75*
G02*
X169648840Y-100666240I-200000J0D01*
G01*
X169248840Y-100666240D01*
G75*
G02*
X169048840Y-100466240I0J200000D01*
G01*
X169048840Y-99916240D01*
G75*
G02*
X169248840Y-99716240I200000J0D01*
G01*
X169648840Y-99716240D01*
G75*
G02*
X169848840Y-99916240I0J-200000D01*
G01*
G37*
G36*
G01*
X168198840Y-99916240D02*
X168198840Y-100466240D01*
G75*
G02*
X167998840Y-100666240I-200000J0D01*
G01*
X167598840Y-100666240D01*
G75*
G02*
X167398840Y-100466240I0J200000D01*
G01*
X167398840Y-99916240D01*
G75*
G02*
X167598840Y-99716240I200000J0D01*
G01*
X167998840Y-99716240D01*
G75*
G02*
X168198840Y-99916240I0J-200000D01*
G01*
G37*
G36*
G01*
X167411440Y-105514400D02*
X167411440Y-106064400D01*
G75*
G02*
X167211440Y-106264400I-200000J0D01*
G01*
X166811440Y-106264400D01*
G75*
G02*
X166611440Y-106064400I0J200000D01*
G01*
X166611440Y-105514400D01*
G75*
G02*
X166811440Y-105314400I200000J0D01*
G01*
X167211440Y-105314400D01*
G75*
G02*
X167411440Y-105514400I0J-200000D01*
G01*
G37*
G36*
G01*
X169061440Y-105514400D02*
X169061440Y-106064400D01*
G75*
G02*
X168861440Y-106264400I-200000J0D01*
G01*
X168461440Y-106264400D01*
G75*
G02*
X168261440Y-106064400I0J200000D01*
G01*
X168261440Y-105514400D01*
G75*
G02*
X168461440Y-105314400I200000J0D01*
G01*
X168861440Y-105314400D01*
G75*
G02*
X169061440Y-105514400I0J-200000D01*
G01*
G37*
D35*
X128517920Y-64163920D03*
X128517920Y-63213920D03*
X128517920Y-62263920D03*
X126317920Y-62263920D03*
X126317920Y-64163920D03*
G36*
G01*
X201345940Y-76140660D02*
X201345940Y-75590660D01*
G75*
G02*
X201545940Y-75390660I200000J0D01*
G01*
X201945940Y-75390660D01*
G75*
G02*
X202145940Y-75590660I0J-200000D01*
G01*
X202145940Y-76140660D01*
G75*
G02*
X201945940Y-76340660I-200000J0D01*
G01*
X201545940Y-76340660D01*
G75*
G02*
X201345940Y-76140660I0J200000D01*
G01*
G37*
G36*
G01*
X202995940Y-76140660D02*
X202995940Y-75590660D01*
G75*
G02*
X203195940Y-75390660I200000J0D01*
G01*
X203595940Y-75390660D01*
G75*
G02*
X203795940Y-75590660I0J-200000D01*
G01*
X203795940Y-76140660D01*
G75*
G02*
X203595940Y-76340660I-200000J0D01*
G01*
X203195940Y-76340660D01*
G75*
G02*
X202995940Y-76140660I0J200000D01*
G01*
G37*
G36*
G01*
X154720000Y-65770000D02*
X155220000Y-65770000D01*
G75*
G02*
X155445000Y-65995000I0J-225000D01*
G01*
X155445000Y-66445000D01*
G75*
G02*
X155220000Y-66670000I-225000J0D01*
G01*
X154720000Y-66670000D01*
G75*
G02*
X154495000Y-66445000I0J225000D01*
G01*
X154495000Y-65995000D01*
G75*
G02*
X154720000Y-65770000I225000J0D01*
G01*
G37*
G36*
G01*
X154720000Y-67320000D02*
X155220000Y-67320000D01*
G75*
G02*
X155445000Y-67545000I0J-225000D01*
G01*
X155445000Y-67995000D01*
G75*
G02*
X155220000Y-68220000I-225000J0D01*
G01*
X154720000Y-68220000D01*
G75*
G02*
X154495000Y-67995000I0J225000D01*
G01*
X154495000Y-67545000D01*
G75*
G02*
X154720000Y-67320000I225000J0D01*
G01*
G37*
D36*
X147635000Y-67305000D03*
X147635000Y-57605000D03*
G36*
G01*
X223690000Y-92835000D02*
X223690000Y-91885000D01*
G75*
G02*
X223940000Y-91635000I250000J0D01*
G01*
X224440000Y-91635000D01*
G75*
G02*
X224690000Y-91885000I0J-250000D01*
G01*
X224690000Y-92835000D01*
G75*
G02*
X224440000Y-93085000I-250000J0D01*
G01*
X223940000Y-93085000D01*
G75*
G02*
X223690000Y-92835000I0J250000D01*
G01*
G37*
G36*
G01*
X221790000Y-92835000D02*
X221790000Y-91885000D01*
G75*
G02*
X222040000Y-91635000I250000J0D01*
G01*
X222540000Y-91635000D01*
G75*
G02*
X222790000Y-91885000I0J-250000D01*
G01*
X222790000Y-92835000D01*
G75*
G02*
X222540000Y-93085000I-250000J0D01*
G01*
X222040000Y-93085000D01*
G75*
G02*
X221790000Y-92835000I0J250000D01*
G01*
G37*
G36*
G01*
X224060000Y-82005000D02*
X224060000Y-82955000D01*
G75*
G02*
X223810000Y-83205000I-250000J0D01*
G01*
X223310000Y-83205000D01*
G75*
G02*
X223060000Y-82955000I0J250000D01*
G01*
X223060000Y-82005000D01*
G75*
G02*
X223310000Y-81755000I250000J0D01*
G01*
X223810000Y-81755000D01*
G75*
G02*
X224060000Y-82005000I0J-250000D01*
G01*
G37*
G36*
G01*
X222160000Y-82005000D02*
X222160000Y-82955000D01*
G75*
G02*
X221910000Y-83205000I-250000J0D01*
G01*
X221410000Y-83205000D01*
G75*
G02*
X221160000Y-82955000I0J250000D01*
G01*
X221160000Y-82005000D01*
G75*
G02*
X221410000Y-81755000I250000J0D01*
G01*
X221910000Y-81755000D01*
G75*
G02*
X222160000Y-82005000I0J-250000D01*
G01*
G37*
G36*
G01*
X194597500Y-99555000D02*
X194597500Y-98605000D01*
G75*
G02*
X194847500Y-98355000I250000J0D01*
G01*
X195347500Y-98355000D01*
G75*
G02*
X195597500Y-98605000I0J-250000D01*
G01*
X195597500Y-99555000D01*
G75*
G02*
X195347500Y-99805000I-250000J0D01*
G01*
X194847500Y-99805000D01*
G75*
G02*
X194597500Y-99555000I0J250000D01*
G01*
G37*
G36*
G01*
X196497500Y-99555000D02*
X196497500Y-98605000D01*
G75*
G02*
X196747500Y-98355000I250000J0D01*
G01*
X197247500Y-98355000D01*
G75*
G02*
X197497500Y-98605000I0J-250000D01*
G01*
X197497500Y-99555000D01*
G75*
G02*
X197247500Y-99805000I-250000J0D01*
G01*
X196747500Y-99805000D01*
G75*
G02*
X196497500Y-99555000I0J250000D01*
G01*
G37*
G36*
G01*
X203090000Y-111635000D02*
X203090000Y-110685000D01*
G75*
G02*
X203340000Y-110435000I250000J0D01*
G01*
X203840000Y-110435000D01*
G75*
G02*
X204090000Y-110685000I0J-250000D01*
G01*
X204090000Y-111635000D01*
G75*
G02*
X203840000Y-111885000I-250000J0D01*
G01*
X203340000Y-111885000D01*
G75*
G02*
X203090000Y-111635000I0J250000D01*
G01*
G37*
G36*
G01*
X201190000Y-111635000D02*
X201190000Y-110685000D01*
G75*
G02*
X201440000Y-110435000I250000J0D01*
G01*
X201940000Y-110435000D01*
G75*
G02*
X202190000Y-110685000I0J-250000D01*
G01*
X202190000Y-111635000D01*
G75*
G02*
X201940000Y-111885000I-250000J0D01*
G01*
X201440000Y-111885000D01*
G75*
G02*
X201190000Y-111635000I0J250000D01*
G01*
G37*
G36*
G01*
X110830000Y-77225000D02*
X110830000Y-76275000D01*
G75*
G02*
X111080000Y-76025000I250000J0D01*
G01*
X111580000Y-76025000D01*
G75*
G02*
X111830000Y-76275000I0J-250000D01*
G01*
X111830000Y-77225000D01*
G75*
G02*
X111580000Y-77475000I-250000J0D01*
G01*
X111080000Y-77475000D01*
G75*
G02*
X110830000Y-77225000I0J250000D01*
G01*
G37*
G36*
G01*
X112730000Y-77225000D02*
X112730000Y-76275000D01*
G75*
G02*
X112980000Y-76025000I250000J0D01*
G01*
X113480000Y-76025000D01*
G75*
G02*
X113730000Y-76275000I0J-250000D01*
G01*
X113730000Y-77225000D01*
G75*
G02*
X113480000Y-77475000I-250000J0D01*
G01*
X112980000Y-77475000D01*
G75*
G02*
X112730000Y-77225000I0J250000D01*
G01*
G37*
G36*
G01*
X109445000Y-68870000D02*
X108495000Y-68870000D01*
G75*
G02*
X108245000Y-68620000I0J250000D01*
G01*
X108245000Y-68120000D01*
G75*
G02*
X108495000Y-67870000I250000J0D01*
G01*
X109445000Y-67870000D01*
G75*
G02*
X109695000Y-68120000I0J-250000D01*
G01*
X109695000Y-68620000D01*
G75*
G02*
X109445000Y-68870000I-250000J0D01*
G01*
G37*
G36*
G01*
X109445000Y-70770000D02*
X108495000Y-70770000D01*
G75*
G02*
X108245000Y-70520000I0J250000D01*
G01*
X108245000Y-70020000D01*
G75*
G02*
X108495000Y-69770000I250000J0D01*
G01*
X109445000Y-69770000D01*
G75*
G02*
X109695000Y-70020000I0J-250000D01*
G01*
X109695000Y-70520000D01*
G75*
G02*
X109445000Y-70770000I-250000J0D01*
G01*
G37*
G36*
G01*
X232005000Y-92260000D02*
X232955000Y-92260000D01*
G75*
G02*
X233205000Y-92510000I0J-250000D01*
G01*
X233205000Y-93010000D01*
G75*
G02*
X232955000Y-93260000I-250000J0D01*
G01*
X232005000Y-93260000D01*
G75*
G02*
X231755000Y-93010000I0J250000D01*
G01*
X231755000Y-92510000D01*
G75*
G02*
X232005000Y-92260000I250000J0D01*
G01*
G37*
G36*
G01*
X232005000Y-94160000D02*
X232955000Y-94160000D01*
G75*
G02*
X233205000Y-94410000I0J-250000D01*
G01*
X233205000Y-94910000D01*
G75*
G02*
X232955000Y-95160000I-250000J0D01*
G01*
X232005000Y-95160000D01*
G75*
G02*
X231755000Y-94910000I0J250000D01*
G01*
X231755000Y-94410000D01*
G75*
G02*
X232005000Y-94160000I250000J0D01*
G01*
G37*
G36*
G01*
X147270000Y-69530000D02*
X149270000Y-69530000D01*
G75*
G02*
X149520000Y-69780000I0J-250000D01*
G01*
X149520000Y-73680000D01*
G75*
G02*
X149270000Y-73930000I-250000J0D01*
G01*
X147270000Y-73930000D01*
G75*
G02*
X147020000Y-73680000I0J250000D01*
G01*
X147020000Y-69780000D01*
G75*
G02*
X147270000Y-69530000I250000J0D01*
G01*
G37*
G36*
G01*
X147270000Y-77930000D02*
X149270000Y-77930000D01*
G75*
G02*
X149520000Y-78180000I0J-250000D01*
G01*
X149520000Y-82080000D01*
G75*
G02*
X149270000Y-82330000I-250000J0D01*
G01*
X147270000Y-82330000D01*
G75*
G02*
X147020000Y-82080000I0J250000D01*
G01*
X147020000Y-78180000D01*
G75*
G02*
X147270000Y-77930000I250000J0D01*
G01*
G37*
G36*
G01*
X160140000Y-79650000D02*
X162140000Y-79650000D01*
G75*
G02*
X162390000Y-79900000I0J-250000D01*
G01*
X162390000Y-83800000D01*
G75*
G02*
X162140000Y-84050000I-250000J0D01*
G01*
X160140000Y-84050000D01*
G75*
G02*
X159890000Y-83800000I0J250000D01*
G01*
X159890000Y-79900000D01*
G75*
G02*
X160140000Y-79650000I250000J0D01*
G01*
G37*
G36*
G01*
X160140000Y-71250000D02*
X162140000Y-71250000D01*
G75*
G02*
X162390000Y-71500000I0J-250000D01*
G01*
X162390000Y-75400000D01*
G75*
G02*
X162140000Y-75650000I-250000J0D01*
G01*
X160140000Y-75650000D01*
G75*
G02*
X159890000Y-75400000I0J250000D01*
G01*
X159890000Y-71500000D01*
G75*
G02*
X160140000Y-71250000I250000J0D01*
G01*
G37*
D37*
X162940000Y-65870000D03*
X162940000Y-61470000D03*
D38*
X155420000Y-62650000D03*
X159820000Y-62650000D03*
M02*
