G04 #@! TF.GenerationSoftware,KiCad,Pcbnew,5.1.4-e60b266~84~ubuntu18.04.1*
G04 #@! TF.CreationDate,2019-12-19T11:10:53+01:00*
G04 #@! TF.ProjectId,bottom-board,626f7474-6f6d-42d6-926f-6172642e6b69,rev?*
G04 #@! TF.SameCoordinates,Original*
G04 #@! TF.FileFunction,Soldermask,Bot*
G04 #@! TF.FilePolarity,Negative*
%FSLAX46Y46*%
G04 Gerber Fmt 4.6, Leading zero omitted, Abs format (unit mm)*
G04 Created by KiCad (PCBNEW 5.1.4-e60b266~84~ubuntu18.04.1) date 2019-12-19 11:10:53*
%MOMM*%
%LPD*%
G04 APERTURE LIST*
%ADD10C,2.500000*%
%ADD11R,2.500000X2.500000*%
%ADD12R,1.800000X1.800000*%
%ADD13C,1.800000*%
%ADD14C,3.600000*%
%ADD15R,3.600000X3.600000*%
%ADD16C,0.100000*%
%ADD17C,3.100000*%
%ADD18O,1.800000X1.800000*%
%ADD19R,3.100000X3.100000*%
%ADD20C,2.020000*%
%ADD21C,2.450000*%
%ADD22R,1.827200X1.827200*%
%ADD23O,1.827200X1.827200*%
%ADD24R,2.060000X2.060000*%
%ADD25C,2.060000*%
%ADD26C,3.300000*%
%ADD27C,5.700000*%
%ADD28C,1.600000*%
%ADD29C,1.700000*%
%ADD30C,1.200000*%
G04 APERTURE END LIST*
D10*
X141200000Y-83100000D03*
D11*
X146200000Y-83100000D03*
D12*
X135636000Y-52832000D03*
D13*
X138136000Y-52832000D03*
X138136000Y-50832000D03*
X135636000Y-50832000D03*
D14*
X130866000Y-48122000D03*
X142906000Y-48122000D03*
D13*
X75184000Y-43728000D03*
X75184000Y-50728000D03*
D15*
X157480000Y-51562000D03*
D16*
G36*
X158580963Y-44015732D02*
G01*
X158656195Y-44026891D01*
X158729971Y-44045371D01*
X158801580Y-44070993D01*
X158870332Y-44103511D01*
X158935567Y-44142611D01*
X158996655Y-44187917D01*
X159053008Y-44238992D01*
X159104083Y-44295345D01*
X159149389Y-44356433D01*
X159188489Y-44421668D01*
X159221007Y-44490420D01*
X159246629Y-44562029D01*
X159265109Y-44635805D01*
X159276268Y-44711037D01*
X159280000Y-44787000D01*
X159280000Y-46337000D01*
X159276268Y-46412963D01*
X159265109Y-46488195D01*
X159246629Y-46561971D01*
X159221007Y-46633580D01*
X159188489Y-46702332D01*
X159149389Y-46767567D01*
X159104083Y-46828655D01*
X159053008Y-46885008D01*
X158996655Y-46936083D01*
X158935567Y-46981389D01*
X158870332Y-47020489D01*
X158801580Y-47053007D01*
X158729971Y-47078629D01*
X158656195Y-47097109D01*
X158580963Y-47108268D01*
X158505000Y-47112000D01*
X156455000Y-47112000D01*
X156379037Y-47108268D01*
X156303805Y-47097109D01*
X156230029Y-47078629D01*
X156158420Y-47053007D01*
X156089668Y-47020489D01*
X156024433Y-46981389D01*
X155963345Y-46936083D01*
X155906992Y-46885008D01*
X155855917Y-46828655D01*
X155810611Y-46767567D01*
X155771511Y-46702332D01*
X155738993Y-46633580D01*
X155713371Y-46561971D01*
X155694891Y-46488195D01*
X155683732Y-46412963D01*
X155680000Y-46337000D01*
X155680000Y-44787000D01*
X155683732Y-44711037D01*
X155694891Y-44635805D01*
X155713371Y-44562029D01*
X155738993Y-44490420D01*
X155771511Y-44421668D01*
X155810611Y-44356433D01*
X155855917Y-44295345D01*
X155906992Y-44238992D01*
X155963345Y-44187917D01*
X156024433Y-44142611D01*
X156089668Y-44103511D01*
X156158420Y-44070993D01*
X156230029Y-44045371D01*
X156303805Y-44026891D01*
X156379037Y-44015732D01*
X156455000Y-44012000D01*
X158505000Y-44012000D01*
X158580963Y-44015732D01*
X158580963Y-44015732D01*
G37*
D17*
X157480000Y-45562000D03*
D16*
G36*
X153768215Y-46766334D02*
G01*
X153855581Y-46779293D01*
X153941256Y-46800754D01*
X154024415Y-46830508D01*
X154104257Y-46868271D01*
X154180013Y-46913677D01*
X154250954Y-46966291D01*
X154316396Y-47025604D01*
X154375709Y-47091046D01*
X154428323Y-47161987D01*
X154473729Y-47237743D01*
X154511492Y-47317585D01*
X154541246Y-47400744D01*
X154562707Y-47486419D01*
X154575666Y-47573785D01*
X154580000Y-47662000D01*
X154580000Y-49462000D01*
X154575666Y-49550215D01*
X154562707Y-49637581D01*
X154541246Y-49723256D01*
X154511492Y-49806415D01*
X154473729Y-49886257D01*
X154428323Y-49962013D01*
X154375709Y-50032954D01*
X154316396Y-50098396D01*
X154250954Y-50157709D01*
X154180013Y-50210323D01*
X154104257Y-50255729D01*
X154024415Y-50293492D01*
X153941256Y-50323246D01*
X153855581Y-50344707D01*
X153768215Y-50357666D01*
X153680000Y-50362000D01*
X151880000Y-50362000D01*
X151791785Y-50357666D01*
X151704419Y-50344707D01*
X151618744Y-50323246D01*
X151535585Y-50293492D01*
X151455743Y-50255729D01*
X151379987Y-50210323D01*
X151309046Y-50157709D01*
X151243604Y-50098396D01*
X151184291Y-50032954D01*
X151131677Y-49962013D01*
X151086271Y-49886257D01*
X151048508Y-49806415D01*
X151018754Y-49723256D01*
X150997293Y-49637581D01*
X150984334Y-49550215D01*
X150980000Y-49462000D01*
X150980000Y-47662000D01*
X150984334Y-47573785D01*
X150997293Y-47486419D01*
X151018754Y-47400744D01*
X151048508Y-47317585D01*
X151086271Y-47237743D01*
X151131677Y-47161987D01*
X151184291Y-47091046D01*
X151243604Y-47025604D01*
X151309046Y-46966291D01*
X151379987Y-46913677D01*
X151455743Y-46868271D01*
X151535585Y-46830508D01*
X151618744Y-46800754D01*
X151704419Y-46779293D01*
X151791785Y-46766334D01*
X151880000Y-46762000D01*
X153680000Y-46762000D01*
X153768215Y-46766334D01*
X153768215Y-46766334D01*
G37*
D14*
X152780000Y-48562000D03*
D13*
X196088000Y-43728000D03*
X196088000Y-50728000D03*
X184912000Y-50728000D03*
X184912000Y-43728000D03*
D12*
X81400000Y-132100000D03*
D18*
X78860000Y-132100000D03*
X76320000Y-132100000D03*
D17*
X239790000Y-52270000D03*
X239790000Y-58620000D03*
X239790000Y-45920000D03*
X223560000Y-52270000D03*
X223560000Y-58620000D03*
D19*
X223560000Y-45920000D03*
X203310000Y-46010000D03*
D17*
X203310000Y-58710000D03*
X203310000Y-52360000D03*
X219540000Y-46010000D03*
X219540000Y-58710000D03*
X219540000Y-52360000D03*
X118920000Y-52180000D03*
X118920000Y-58530000D03*
X118920000Y-45830000D03*
X102690000Y-52180000D03*
X102690000Y-58530000D03*
D19*
X102690000Y-45830000D03*
X82500000Y-45980000D03*
D17*
X82500000Y-58680000D03*
X82500000Y-52330000D03*
X98730000Y-45980000D03*
X98730000Y-58680000D03*
X98730000Y-52330000D03*
D20*
X125222000Y-51562000D03*
X125222000Y-53562000D03*
X125222000Y-55562000D03*
X125222000Y-57562000D03*
D21*
X127942000Y-50832000D03*
X127942000Y-57832000D03*
X122502000Y-50832000D03*
X122502000Y-57832000D03*
D22*
X175069500Y-121602500D03*
D23*
X175069500Y-119062500D03*
X177609500Y-121602500D03*
X177609500Y-119062500D03*
X180149500Y-121602500D03*
X180149500Y-119062500D03*
X182689500Y-121602500D03*
X182689500Y-119062500D03*
X185229500Y-121602500D03*
X185229500Y-119062500D03*
X187769500Y-121602500D03*
X187769500Y-119062500D03*
X190309500Y-121602500D03*
X190309500Y-119062500D03*
X192849500Y-121602500D03*
X192849500Y-119062500D03*
X195389500Y-121602500D03*
X195389500Y-119062500D03*
X197929500Y-121602500D03*
X197929500Y-119062500D03*
D24*
X176022000Y-51816000D03*
D25*
X174752000Y-54356000D03*
X173482000Y-51816000D03*
X172212000Y-54356000D03*
X170942000Y-51816000D03*
X169672000Y-54356000D03*
X168402000Y-51816000D03*
X167132000Y-54356000D03*
D26*
X177292000Y-45466000D03*
X165862000Y-45466000D03*
D11*
X146200000Y-69100000D03*
D10*
X141200000Y-69100000D03*
D27*
X68580000Y-72694800D03*
X133197600Y-72644000D03*
D28*
X107162600Y-112522000D03*
X107035600Y-109372400D03*
D17*
X104241600Y-72288400D03*
X70256400Y-106324400D03*
D29*
X66460000Y-117730000D03*
D30*
X135260000Y-117730000D03*
M02*
