M48
; DRILL file {KiCad 5.1.10-88a1d61d58~90~ubuntu20.04.1} date Fri Oct  8 16:59:18 2021
; FORMAT={-:-/ absolute / metric / decimal}
; #@! TF.CreationDate,2021-10-08T16:59:18+02:00
; #@! TF.GenerationSoftware,Kicad,Pcbnew,5.1.10-88a1d61d58~90~ubuntu20.04.1
; #@! TF.FileFunction,Plated,1,4,PTH
FMAT,2
METRIC
T1C0.400
T2C0.600
T3C0.920
T4C0.960
T5C1.000
T6C1.016
T7C1.350
T8C1.500
T9C2.330
T10C3.200
T11C3.500
%
G90
G05
T1
X62.28Y-61.36
X62.37Y-127.8
X62.38Y-117.81
X62.39Y-70.03
X62.39Y-84.17
X62.39Y-98.13
X62.39Y-112.71
X63.92Y-53.92
X66.47Y-133.54
X68.819Y-95.484
X68.895Y-107.942
X69.025Y-69.718
X70.22Y-43.82
X72.63Y-126.44
X72.645Y-134.23
X72.85Y-130.92
X73.23Y-128.34
X74.41Y-128.56
X74.811Y-66.797
X75.825Y-116.185
X75.852Y-114.579
X76.65Y-119.724
X77.34Y-130.95
X77.375Y-118.724
X78.183Y-134.23
X81.15Y-125.98
X81.565Y-121.852
X82.29Y-122.57
X82.3Y-126.06
X82.8Y-128.72
X83.25Y-117.0
X83.868Y-108.473
X84.0Y-122.5
X84.08Y-114.56
X84.18Y-43.64
X84.21Y-130.65
X85.038Y-122.459
X85.23Y-130.34
X85.61Y-66.34
X86.013Y-122.679
X86.74Y-130.87
X87.17Y-116.83
X87.4Y-119.21
X87.684Y-129.926
X88.758Y-129.878
X89.28Y-130.81
X89.6Y-112.21
X90.755Y-130.665
X91.77Y-130.74
X92.626Y-66.34
X93.2Y-73.69
X94.21Y-126.17
X94.27Y-128.97
X94.34Y-130.88
X95.21Y-126.17
X95.59Y-129.69
X96.32Y-126.17
X96.35Y-130.69
X97.08Y-122.28
X98.33Y-130.82
X98.57Y-122.27
X98.88Y-43.48
X99.48Y-130.56
X101.06Y-130.77
X101.392Y-108.532
X101.47Y-82.0
X102.08Y-130.69
X102.6Y-122.035
X102.77Y-125.84
X103.009Y-130.32
X103.26Y-66.24
X103.8Y-125.72
X104.065Y-120.865
X104.065Y-122.04
X104.79Y-111.46
X104.9Y-50.975
X105.56Y-132.44
X105.8Y-111.485
X105.87Y-130.89
X105.962Y-109.262
X106.25Y-69.4
X109.11Y-121.71
X110.18Y-80.42
X110.229Y-90.281
X110.315Y-99.662
X110.39Y-68.025
X111.114Y-121.883
X111.15Y-43.27
X112.5Y-70.1
X114.439Y-66.244
X114.85Y-130.81
X115.325Y-95.433
X115.44Y-71.79
X115.48Y-65.17
X115.79Y-63.0
X115.86Y-64.23
X116.89Y-70.39
X116.93Y-78.64
X116.96Y-77.59
X117.45Y-122.3
X118.46Y-43.42
X119.0Y-45.5
X120.175Y-64.675
X120.485Y-99.451
X120.49Y-112.04
X120.742Y-118.952
X121.274Y-130.275
X121.725Y-65.705
X121.785Y-64.305
X121.87Y-61.72
X122.58Y-130.34
X123.046Y-67.819
X123.175Y-57.425
X123.175Y-66.405
X125.405Y-62.275
X125.825Y-122.605
X126.009Y-130.352
X126.74Y-121.76
X127.187Y-130.1
X127.547Y-112.147
X128.58Y-121.577
X128.635Y-130.84
X129.579Y-121.611
X129.81Y-130.54
X130.62Y-58.08
X130.766Y-122.64
X130.934Y-130.639
X131.084Y-99.35
X131.9Y-114.475
X132.51Y-103.03
X132.72Y-122.85
X132.73Y-43.3
X132.75Y-106.023
X132.912Y-130.808
X133.075Y-62.05
X134.603Y-65.133
X138.58Y-133.1
X139.404Y-131.186
X141.76Y-108.823
X145.76Y-43.25
X146.607Y-113.721
X148.72Y-124.31
X151.76Y-107.77
X153.899Y-113.721
X154.02Y-124.72
X154.14Y-122.37
X154.93Y-68.94
X156.51Y-124.61
X156.736Y-120.266
X157.214Y-107.85
X159.834Y-110.396
X160.591Y-128.01
X161.49Y-113.738
X161.762Y-99.808
X162.59Y-43.26
X163.01Y-107.68
X163.137Y-126.561
X164.27Y-102.51
X164.8Y-96.25
X167.61Y-106.93
X168.0Y-58.5
X171.17Y-134.08
X171.49Y-43.28
X173.7Y-133.525
X174.048Y-120.363
X174.81Y-106.7
X175.91Y-107.15
X177.45Y-97.525
X177.525Y-67.675
X177.587Y-103.578
X178.28Y-133.95
X178.371Y-109.551
X179.448Y-52.568
X179.57Y-43.23
X179.725Y-103.525
X181.15Y-102.825
X181.953Y-64.732
X182.196Y-133.075
X183.15Y-132.625
X184.917Y-55.885
X189.73Y-109.93
X190.2Y-55.148
X190.784Y-47.775
X190.825Y-97.475
X192.4Y-42.83
X193.51Y-49.83
X193.51Y-133.84
X193.893Y-45.593
X194.0Y-100.6
X195.75Y-84.925
X195.83Y-99.83
X196.275Y-108.5
X196.698Y-76.802
X196.764Y-72.245
X197.45Y-90.3
X197.843Y-88.775
X198.89Y-86.0
X200.625Y-85.625
X200.95Y-108.5
X201.112Y-54.933
X201.48Y-100.01
X201.757Y-63.142
X202.7Y-108.375
X202.87Y-42.94
X205.6Y-93.5
X206.62Y-133.85
X207.75Y-109.875
X208.15Y-105.2
X208.28Y-99.55
X208.455Y-88.445
X209.381Y-88.125
X211.45Y-42.95
X211.889Y-120.889
X212.125Y-96.875
X214.0Y-110.25
X214.35Y-70.65
X217.62Y-95.55
X217.85Y-71.4
X217.9Y-104.5
X217.9Y-86.425
X217.95Y-84.725
X218.29Y-102.86
X219.31Y-133.72
X219.68Y-107.58
X220.21Y-100.969
X220.375Y-92.375
X220.418Y-94.032
X221.35Y-91.75
X221.391Y-83.835
X222.3Y-84.314
X223.15Y-71.275
X224.05Y-70.4
X224.409Y-103.229
X224.89Y-42.92
X225.407Y-103.332
X225.45Y-90.71
X226.605Y-92.565
X227.343Y-101.344
X228.1Y-89.8
X228.14Y-125.6
X228.235Y-100.893
X228.298Y-92.559
X229.41Y-120.285
X229.6Y-89.2
X230.5Y-104.05
X230.6Y-97.125
X230.825Y-101.1
X231.121Y-103.267
X231.37Y-91.77
X232.575Y-88.9
X233.03Y-99.15
X234.845Y-76.28
X235.25Y-103.4
X235.61Y-71.27
X236.49Y-69.97
X236.709Y-103.164
X237.3Y-99.35
X238.26Y-133.76
X238.84Y-43.0
X243.799Y-107.404
X244.2Y-75.575
X244.66Y-85.1
X244.77Y-88.0
X245.375Y-77.0
X245.519Y-94.483
X245.55Y-133.73
X246.54Y-46.62
X246.625Y-85.075
X247.75Y-83.05
X250.91Y-53.61
X251.2Y-102.7
X251.24Y-88.95
X251.25Y-65.03
X251.26Y-75.96
T2
X96.62Y-65.49
X98.058Y-65.443
X99.55Y-65.45
X100.95Y-65.35
X113.95Y-79.3
X121.915Y-78.56
X122.04Y-84.81
X122.38Y-69.93
X127.66Y-70.98
X127.687Y-67.647
X127.95Y-74.57
X130.07Y-87.45
X130.875Y-120.525
X133.87Y-103.015
X135.49Y-103.015
X136.475Y-132.475
X137.075Y-103.015
X137.2Y-124.15
X140.445Y-116.905
X140.56Y-84.89
X140.65Y-79.7
X141.46Y-120.73
X141.476Y-117.937
X141.77Y-67.62
X143.3Y-73.88
X145.63Y-100.01
X146.1Y-127.05
X146.42Y-82.08
X147.35Y-123.13
X150.71Y-75.69
X152.618Y-87.09
X155.212Y-104.381
X156.356Y-103.574
X156.473Y-97.0
X156.73Y-99.16
X156.828Y-95.157
X157.676Y-104.231
X158.43Y-71.02
X159.05Y-104.5
X160.18Y-87.11
X161.29Y-75.79
X166.01Y-63.31
X166.27Y-70.83
X168.85Y-87.01
X170.54Y-75.64
X173.32Y-56.65
X179.28Y-94.42
X182.127Y-66.757
X182.42Y-87.21
X182.523Y-85.814
X183.05Y-57.05
X187.77Y-63.27
X188.14Y-81.65
X188.2Y-59.65
X188.39Y-75.4
X190.975Y-85.7
X190.975Y-96.0
X191.2Y-59.09
X191.2Y-65.35
X192.225Y-90.675
X199.72Y-69.35
X200.91Y-67.66
X203.3Y-57.84
X211.425Y-85.525
X225.05Y-98.35
X225.6Y-105.875
X228.46Y-110.18
X237.0Y-102.0
T3
X125.285Y-53.655
X125.285Y-55.655
X125.285Y-57.655
X125.285Y-59.655
X136.587Y-51.3
X136.587Y-53.3
X139.087Y-51.3
X139.087Y-53.3
T4
X167.645Y-54.95
X168.915Y-52.41
X170.185Y-54.95
X171.455Y-52.41
X172.725Y-54.95
X173.995Y-52.41
X175.265Y-54.95
X176.535Y-52.41
T5
X98.21Y-101.23
X98.31Y-105.53
X168.63Y-124.49
X171.17Y-124.49
X173.71Y-124.49
T6
X185.46Y-122.89
X185.46Y-125.43
X188.0Y-122.89
X188.0Y-125.43
X190.54Y-122.89
X190.54Y-125.43
X193.08Y-122.89
X193.08Y-125.43
X195.62Y-122.89
X195.62Y-125.43
X198.16Y-122.89
X198.16Y-125.43
X200.7Y-122.89
X200.7Y-125.43
X203.24Y-122.89
X203.24Y-125.43
X205.78Y-122.89
X205.78Y-125.43
X208.32Y-122.89
X208.32Y-125.43
T7
X122.565Y-52.925
X122.565Y-59.925
X128.005Y-52.925
X128.005Y-59.925
T8
X67.085Y-48.43
X67.085Y-54.78
X67.085Y-61.13
X83.315Y-48.43
X83.315Y-54.78
X83.315Y-61.13
X88.085Y-48.43
X88.085Y-54.78
X88.085Y-61.13
X104.315Y-48.43
X104.315Y-54.78
X104.315Y-61.13
X207.485Y-48.43
X207.485Y-54.78
X207.485Y-61.13
X223.715Y-48.43
X223.715Y-54.78
X223.715Y-61.13
X228.485Y-48.43
X228.485Y-54.78
X228.485Y-61.13
X244.715Y-48.43
X244.715Y-54.78
X244.715Y-61.13
T9
X131.817Y-48.59
X143.857Y-48.59
T10
X71.008Y-83.338
X134.608Y-83.338
X249.208Y-120.728
T11
X61.508Y-49.628
X62.61Y-120.73
X147.91Y-45.13
X250.31Y-49.63
T5
G00X151.63Y-48.13
M15
G01X151.63Y-50.13
M16
G05
G00X157.33Y-46.13
M15
G01X155.33Y-46.13
M16
G05
G00X157.33Y-52.13
M15
G01X155.33Y-52.13
M16
G05
T0
M30
