G04 #@! TF.GenerationSoftware,KiCad,Pcbnew,5.1.8-db9833491~87~ubuntu20.04.1*
G04 #@! TF.CreationDate,2020-12-23T16:07:33+01:00*
G04 #@! TF.ProjectId,bottom-board,626f7474-6f6d-42d6-926f-6172642e6b69,rev?*
G04 #@! TF.SameCoordinates,Original*
G04 #@! TF.FileFunction,Soldermask,Bot*
G04 #@! TF.FilePolarity,Negative*
%FSLAX46Y46*%
G04 Gerber Fmt 4.6, Leading zero omitted, Abs format (unit mm)*
G04 Created by KiCad (PCBNEW 5.1.8-db9833491~87~ubuntu20.04.1) date 2020-12-23 16:07:33*
%MOMM*%
%LPD*%
G01*
G04 APERTURE LIST*
%ADD10O,1.800000X1.800000*%
%ADD11O,1.827200X1.827200*%
%ADD12C,1.600000*%
%ADD13C,3.600000*%
%ADD14C,1.800000*%
%ADD15C,5.700000*%
%ADD16C,1.950000*%
%ADD17C,1.720000*%
%ADD18C,3.100000*%
%ADD19C,2.060000*%
%ADD20C,3.300000*%
%ADD21C,1.750000*%
%ADD22C,1.250000*%
G04 APERTURE END LIST*
G36*
G01*
X172860000Y-123590000D02*
X174560000Y-123590000D01*
G75*
G02*
X174610000Y-123640000I0J-50000D01*
G01*
X174610000Y-125340000D01*
G75*
G02*
X174560000Y-125390000I-50000J0D01*
G01*
X172860000Y-125390000D01*
G75*
G02*
X172810000Y-125340000I0J50000D01*
G01*
X172810000Y-123640000D01*
G75*
G02*
X172860000Y-123590000I50000J0D01*
G01*
G37*
D10*
X171170000Y-124490000D03*
X168630000Y-124490000D03*
D11*
X208320000Y-122890000D03*
X208320000Y-125430000D03*
X205780000Y-122890000D03*
X205780000Y-125430000D03*
X203240000Y-122890000D03*
X203240000Y-125430000D03*
X200700000Y-122890000D03*
X200700000Y-125430000D03*
X198160000Y-122890000D03*
X198160000Y-125430000D03*
X195620000Y-122890000D03*
X195620000Y-125430000D03*
X193080000Y-122890000D03*
X193080000Y-125430000D03*
X190540000Y-122890000D03*
X190540000Y-125430000D03*
X188000000Y-122890000D03*
X188000000Y-125430000D03*
X185460000Y-122890000D03*
G36*
G01*
X186323600Y-126343600D02*
X184596400Y-126343600D01*
G75*
G02*
X184546400Y-126293600I0J50000D01*
G01*
X184546400Y-124566400D01*
G75*
G02*
X184596400Y-124516400I50000J0D01*
G01*
X186323600Y-124516400D01*
G75*
G02*
X186373600Y-124566400I0J-50000D01*
G01*
X186373600Y-126293600D01*
G75*
G02*
X186323600Y-126343600I-50000J0D01*
G01*
G37*
D12*
X109145000Y-121860000D03*
D13*
X143856971Y-48589976D03*
X131816971Y-48589976D03*
D14*
X136586971Y-51299976D03*
X139086971Y-51299976D03*
X139086971Y-53299976D03*
G36*
G01*
X137436971Y-54199976D02*
X135736971Y-54199976D01*
G75*
G02*
X135686971Y-54149976I0J50000D01*
G01*
X135686971Y-52449976D01*
G75*
G02*
X135736971Y-52399976I50000J0D01*
G01*
X137436971Y-52399976D01*
G75*
G02*
X137486971Y-52449976I0J-50000D01*
G01*
X137486971Y-54149976D01*
G75*
G02*
X137436971Y-54199976I-50000J0D01*
G01*
G37*
X199110000Y-44430000D03*
X199110000Y-51430000D03*
X187610000Y-51430000D03*
X187610000Y-44430000D03*
D12*
X109073000Y-118846000D03*
D15*
X249207680Y-120727880D03*
D16*
X122565000Y-59925000D03*
X122565000Y-52925000D03*
X128005000Y-59925000D03*
D17*
X125285000Y-59655000D03*
D16*
X128005000Y-52925000D03*
D17*
X125285000Y-57655000D03*
X125285000Y-55655000D03*
X125285000Y-53655000D03*
G36*
G01*
X154580453Y-50330000D02*
X158080453Y-50330000D01*
G75*
G02*
X158130453Y-50380000I0J-50000D01*
G01*
X158130453Y-53880000D01*
G75*
G02*
X158080453Y-53930000I-50000J0D01*
G01*
X154580453Y-53930000D01*
G75*
G02*
X154530453Y-53880000I0J50000D01*
G01*
X154530453Y-50380000D01*
G75*
G02*
X154580453Y-50330000I50000J0D01*
G01*
G37*
G36*
G01*
X155305453Y-44580000D02*
X157355453Y-44580000D01*
G75*
G02*
X158130453Y-45355000I0J-775000D01*
G01*
X158130453Y-46905000D01*
G75*
G02*
X157355453Y-47680000I-775000J0D01*
G01*
X155305453Y-47680000D01*
G75*
G02*
X154530453Y-46905000I0J775000D01*
G01*
X154530453Y-45355000D01*
G75*
G02*
X155305453Y-44580000I775000J0D01*
G01*
G37*
G36*
G01*
X150730453Y-47330000D02*
X152530453Y-47330000D01*
G75*
G02*
X153430453Y-48230000I0J-900000D01*
G01*
X153430453Y-50030000D01*
G75*
G02*
X152530453Y-50930000I-900000J0D01*
G01*
X150730453Y-50930000D01*
G75*
G02*
X149830453Y-50030000I0J900000D01*
G01*
X149830453Y-48230000D01*
G75*
G02*
X150730453Y-47330000I900000J0D01*
G01*
G37*
D18*
X244715000Y-54780000D03*
X244715000Y-61130000D03*
X244715000Y-48430000D03*
X228485000Y-54780000D03*
X228485000Y-61130000D03*
G36*
G01*
X229985000Y-49980000D02*
X226985000Y-49980000D01*
G75*
G02*
X226935000Y-49930000I0J50000D01*
G01*
X226935000Y-46930000D01*
G75*
G02*
X226985000Y-46880000I50000J0D01*
G01*
X229985000Y-46880000D01*
G75*
G02*
X230035000Y-46930000I0J-50000D01*
G01*
X230035000Y-49930000D01*
G75*
G02*
X229985000Y-49980000I-50000J0D01*
G01*
G37*
X223715000Y-54780000D03*
X223715000Y-61130000D03*
X223715000Y-48430000D03*
X207485000Y-54780000D03*
X207485000Y-61130000D03*
G36*
G01*
X208985000Y-49980000D02*
X205985000Y-49980000D01*
G75*
G02*
X205935000Y-49930000I0J50000D01*
G01*
X205935000Y-46930000D01*
G75*
G02*
X205985000Y-46880000I50000J0D01*
G01*
X208985000Y-46880000D01*
G75*
G02*
X209035000Y-46930000I0J-50000D01*
G01*
X209035000Y-49930000D01*
G75*
G02*
X208985000Y-49980000I-50000J0D01*
G01*
G37*
X104315000Y-54780000D03*
X104315000Y-61130000D03*
X104315000Y-48430000D03*
X88085000Y-54780000D03*
X88085000Y-61130000D03*
G36*
G01*
X89585000Y-49980000D02*
X86585000Y-49980000D01*
G75*
G02*
X86535000Y-49930000I0J50000D01*
G01*
X86535000Y-46930000D01*
G75*
G02*
X86585000Y-46880000I50000J0D01*
G01*
X89585000Y-46880000D01*
G75*
G02*
X89635000Y-46930000I0J-50000D01*
G01*
X89635000Y-49930000D01*
G75*
G02*
X89585000Y-49980000I-50000J0D01*
G01*
G37*
X83315000Y-54780000D03*
X83315000Y-61130000D03*
X83315000Y-48430000D03*
X67085000Y-54780000D03*
X67085000Y-61130000D03*
G36*
G01*
X68585000Y-49980000D02*
X65585000Y-49980000D01*
G75*
G02*
X65535000Y-49930000I0J50000D01*
G01*
X65535000Y-46930000D01*
G75*
G02*
X65585000Y-46880000I50000J0D01*
G01*
X68585000Y-46880000D01*
G75*
G02*
X68635000Y-46930000I0J-50000D01*
G01*
X68635000Y-49930000D01*
G75*
G02*
X68585000Y-49980000I-50000J0D01*
G01*
G37*
G36*
G01*
X177565000Y-51430000D02*
X177565000Y-53390000D01*
G75*
G02*
X177515000Y-53440000I-50000J0D01*
G01*
X175555000Y-53440000D01*
G75*
G02*
X175505000Y-53390000I0J50000D01*
G01*
X175505000Y-51430000D01*
G75*
G02*
X175555000Y-51380000I50000J0D01*
G01*
X177515000Y-51380000D01*
G75*
G02*
X177565000Y-51430000I0J-50000D01*
G01*
G37*
D19*
X175265000Y-54950000D03*
X173995000Y-52410000D03*
X172725000Y-54950000D03*
X171455000Y-52410000D03*
X170185000Y-54950000D03*
X168915000Y-52410000D03*
X167645000Y-54950000D03*
D20*
X177805000Y-46060000D03*
X166375000Y-46060000D03*
D14*
X112710000Y-44430000D03*
X112710000Y-51430000D03*
D12*
X124280000Y-130370000D03*
X120300000Y-130350000D03*
D15*
X134607680Y-83337880D03*
X71007680Y-83337880D03*
D21*
X68410000Y-128260000D03*
D22*
X137210000Y-128260000D03*
M02*
