G04 #@! TF.GenerationSoftware,KiCad,Pcbnew,5.1.8-db9833491~87~ubuntu20.04.1*
G04 #@! TF.CreationDate,2021-03-05T18:38:31+01:00*
G04 #@! TF.ProjectId,bottom-board,626f7474-6f6d-42d6-926f-6172642e6b69,rev?*
G04 #@! TF.SameCoordinates,Original*
G04 #@! TF.FileFunction,Profile,NP*
%FSLAX46Y46*%
G04 Gerber Fmt 4.6, Leading zero omitted, Abs format (unit mm)*
G04 Created by KiCad (PCBNEW 5.1.8-db9833491~87~ubuntu20.04.1) date 2021-03-05 18:38:31*
%MOMM*%
%LPD*%
G01*
G04 APERTURE LIST*
G04 #@! TA.AperFunction,Profile*
%ADD10C,0.200000*%
G04 #@! TD*
G04 APERTURE END LIST*
D10*
X59410000Y-49030000D02*
X59410000Y-127830000D01*
X246810000Y-43430000D02*
X246810000Y-44030000D01*
X66510000Y-134930000D02*
G75*
G02*
X65010000Y-133430000I0J1500000D01*
G01*
X61510000Y-129330000D02*
G75*
G02*
X65010000Y-132830000I0J-3500000D01*
G01*
X60910000Y-129330000D02*
G75*
G02*
X59410000Y-127830000I0J1500000D01*
G01*
X245310000Y-134930000D02*
X238244000Y-134930000D01*
X60910000Y-129330000D02*
X61510000Y-129330000D01*
X59410000Y-49030000D02*
G75*
G02*
X60910000Y-47530000I1500000J0D01*
G01*
X65010000Y-44030000D02*
G75*
G02*
X61510000Y-47530000I-3500000J0D01*
G01*
X65010000Y-43430000D02*
G75*
G02*
X66510000Y-41930000I1500000J0D01*
G01*
X252410000Y-49030000D02*
X252410000Y-127830000D01*
X238244000Y-134930000D02*
G75*
G02*
X236283118Y-133330000I-1290J2000000D01*
G01*
X252410000Y-127830000D02*
G75*
G02*
X250910000Y-129330000I-1500000J0D01*
G01*
X246810000Y-132830000D02*
G75*
G02*
X250310000Y-129330000I3500000J0D01*
G01*
X246810000Y-133430000D02*
G75*
G02*
X245310000Y-134930000I-1500000J0D01*
G01*
X250910000Y-129330000D02*
X250310000Y-129330000D01*
X220607113Y-133326432D02*
G75*
G02*
X236283118Y-133330000I7837638J-1603568D01*
G01*
X220607113Y-133326432D02*
G75*
G02*
X218647264Y-134927696I-1959849J398736D01*
G01*
X218647264Y-134927696D02*
X66510000Y-134930000D01*
X66510000Y-41930000D02*
X245310000Y-41930000D01*
X245310000Y-41930000D02*
G75*
G02*
X246810000Y-43430000I0J-1500000D01*
G01*
X250310000Y-47530000D02*
G75*
G02*
X246810000Y-44030000I0J3500000D01*
G01*
X250910000Y-47530000D02*
G75*
G02*
X252410000Y-49030000I0J-1500000D01*
G01*
X250310000Y-47530000D02*
X250910000Y-47530000D01*
X65010000Y-44030000D02*
X65010000Y-43430000D01*
X246810000Y-132830000D02*
X246810000Y-133430000D01*
X60910000Y-47530000D02*
X61510000Y-47530000D01*
X65010000Y-133430000D02*
X65010000Y-132830000D01*
M02*
