G04 #@! TF.GenerationSoftware,KiCad,Pcbnew,6.0.4-6f826c9f35~116~ubuntu20.04.1*
G04 #@! TF.CreationDate,2022-04-27T14:13:24+02:00*
G04 #@! TF.ProjectId,bottom-board,626f7474-6f6d-42d6-926f-6172642e6b69,rev?*
G04 #@! TF.SameCoordinates,Original*
G04 #@! TF.FileFunction,Soldermask,Bot*
G04 #@! TF.FilePolarity,Negative*
%FSLAX46Y46*%
G04 Gerber Fmt 4.6, Leading zero omitted, Abs format (unit mm)*
G04 Created by KiCad (PCBNEW 6.0.4-6f826c9f35~116~ubuntu20.04.1) date 2022-04-27 14:13:24*
%MOMM*%
%LPD*%
G01*
G04 APERTURE LIST*
G04 Aperture macros list*
%AMRoundRect*
0 Rectangle with rounded corners*
0 $1 Rounding radius*
0 $2 $3 $4 $5 $6 $7 $8 $9 X,Y pos of 4 corners*
0 Add a 4 corners polygon primitive as box body*
4,1,4,$2,$3,$4,$5,$6,$7,$8,$9,$2,$3,0*
0 Add four circle primitives for the rounded corners*
1,1,$1+$1,$2,$3*
1,1,$1+$1,$4,$5*
1,1,$1+$1,$6,$7*
1,1,$1+$1,$8,$9*
0 Add four rect primitives between the rounded corners*
20,1,$1+$1,$2,$3,$4,$5,0*
20,1,$1+$1,$4,$5,$6,$7,0*
20,1,$1+$1,$6,$7,$8,$9,0*
20,1,$1+$1,$8,$9,$2,$3,0*%
G04 Aperture macros list end*
%ADD10C,1.800000*%
%ADD11C,5.700000*%
%ADD12RoundRect,0.050000X-0.850000X-0.850000X0.850000X-0.850000X0.850000X0.850000X-0.850000X0.850000X0*%
%ADD13O,1.800000X1.800000*%
%ADD14C,3.100000*%
%ADD15RoundRect,0.050000X1.500000X-1.500000X1.500000X1.500000X-1.500000X1.500000X-1.500000X-1.500000X0*%
%ADD16C,1.720000*%
%ADD17C,1.950000*%
%ADD18RoundRect,0.050000X0.850000X-0.850000X0.850000X0.850000X-0.850000X0.850000X-0.850000X-0.850000X0*%
%ADD19C,3.600000*%
%ADD20RoundRect,0.050000X-1.750000X1.750000X-1.750000X-1.750000X1.750000X-1.750000X1.750000X1.750000X0*%
%ADD21RoundRect,0.800000X-1.000000X0.750000X-1.000000X-0.750000X1.000000X-0.750000X1.000000X0.750000X0*%
%ADD22RoundRect,0.925000X-0.875000X0.875000X-0.875000X-0.875000X0.875000X-0.875000X0.875000X0.875000X0*%
%ADD23C,3.300000*%
%ADD24RoundRect,0.050000X0.980000X0.980000X-0.980000X0.980000X-0.980000X-0.980000X0.980000X-0.980000X0*%
%ADD25C,2.060000*%
%ADD26C,1.750000*%
%ADD27C,1.250000*%
%ADD28C,2.100000*%
%ADD29C,1.600000*%
G04 APERTURE END LIST*
D10*
X199110000Y-44030000D03*
X199110000Y-51030000D03*
D11*
X249207680Y-120727880D03*
D12*
X177860000Y-128410000D03*
D13*
X177860000Y-130950000D03*
X177860000Y-133490000D03*
D11*
X71007680Y-83337880D03*
X134607680Y-83337880D03*
D14*
X67085000Y-54780000D03*
X83315000Y-54780000D03*
D15*
X67085000Y-48430000D03*
D14*
X83315000Y-48430000D03*
X67085000Y-61130000D03*
X83315000Y-61130000D03*
D16*
X125285000Y-53655000D03*
X125285000Y-55655000D03*
X125285000Y-57655000D03*
X125285000Y-59655000D03*
D17*
X128005000Y-59925000D03*
X122565000Y-52925000D03*
X122565000Y-59925000D03*
X128005000Y-52925000D03*
D14*
X88085000Y-54780000D03*
X104315000Y-54780000D03*
D15*
X88085000Y-48430000D03*
D14*
X104315000Y-48430000D03*
X88085000Y-61130000D03*
X104315000Y-61130000D03*
D10*
X112710000Y-51030000D03*
X112710000Y-44030000D03*
D18*
X136586971Y-53299976D03*
D10*
X139086971Y-53299976D03*
X139086971Y-51299976D03*
X136586971Y-51299976D03*
D19*
X131816971Y-48589976D03*
X143856971Y-48589976D03*
D20*
X156330453Y-52130000D03*
D21*
X156330453Y-46130000D03*
D22*
X151630453Y-49130000D03*
D23*
X177805000Y-46060000D03*
X166375000Y-46060000D03*
D24*
X176535000Y-52410000D03*
D25*
X175265000Y-54950000D03*
X173995000Y-52410000D03*
X172725000Y-54950000D03*
X171455000Y-52410000D03*
X170185000Y-54950000D03*
X168915000Y-52410000D03*
X167645000Y-54950000D03*
D14*
X228485000Y-54780000D03*
X244715000Y-54780000D03*
D15*
X228485000Y-48430000D03*
D14*
X244715000Y-48430000D03*
X228485000Y-61130000D03*
X244715000Y-61130000D03*
X207485000Y-54780000D03*
X223715000Y-54780000D03*
D15*
X207485000Y-48430000D03*
D14*
X223715000Y-48430000D03*
X207485000Y-61130000D03*
X223715000Y-61130000D03*
D26*
X68410000Y-128260000D03*
D27*
X137210000Y-128260000D03*
D28*
X98210000Y-101230000D03*
X98310000Y-105530000D03*
D10*
X187610000Y-44030000D03*
X187610000Y-51030000D03*
D29*
X124280000Y-130370000D03*
X120300000Y-130350000D03*
M02*
