M48
; DRILL file {KiCad 6.0.4-6f826c9f35~116~ubuntu20.04.1} date Wed 04 May 2022 11:28:05 AM CEST
; FORMAT={-:-/ absolute / inch / decimal}
; #@! TF.CreationDate,2022-05-04T11:28:05+02:00
; #@! TF.GenerationSoftware,Kicad,Pcbnew,6.0.4-6f826c9f35~116~ubuntu20.04.1
; #@! TF.FileFunction,Plated,1,4,PTH
FMAT,2
INCH
; #@! TA.AperFunction,Plated,PTH,ViaDrill
T1C0.0157
; #@! TA.AperFunction,Plated,PTH,ViaDrill
T2C0.0236
; #@! TA.AperFunction,Plated,PTH,ComponentDrill
T3C0.0362
; #@! TA.AperFunction,Plated,PTH,ComponentDrill
T4C0.0378
; #@! TA.AperFunction,Plated,PTH,ComponentDrill
T5C0.0394
; #@! TA.AperFunction,Plated,PTH,ComponentDrill
T6C0.0531
; #@! TA.AperFunction,Plated,PTH,ComponentDrill
T7C0.0591
; #@! TA.AperFunction,Plated,PTH,ComponentDrill
T8C0.0917
; #@! TA.AperFunction,Plated,PTH,ComponentDrill
T9C0.1260
; #@! TA.AperFunction,Plated,PTH,ComponentDrill
T10C0.1378
%
G90
G05
T1
X2.452Y-2.4157
X2.4555Y-5.0315
X2.4559Y-4.6382
X2.4563Y-2.7571
X2.4563Y-3.3138
X2.4563Y-3.8634
X2.4563Y-4.4374
X2.5165Y-2.1228
X2.6169Y-5.2575
X2.7094Y-3.7592
X2.7124Y-4.2497
X2.7175Y-2.7448
X2.7646Y-1.7252
X2.7744Y-4.813
X2.8449Y-4.5291
X2.8594Y-4.978
X2.8601Y-5.2846
X2.8681Y-5.1543
X2.8831Y-5.0528
X2.9295Y-5.0614
X2.9453Y-2.6298
X2.9642Y-4.7996
X2.9863Y-4.511
X3.0177Y-4.7135
X3.0449Y-5.1555
X3.0463Y-4.6742
X3.0781Y-5.2846
X3.1949Y-4.9598
X3.2112Y-4.7973
X3.2398Y-4.8256
X3.2402Y-4.963
X3.2598Y-5.0677
X3.2776Y-4.6063
X3.3019Y-4.2706
X3.3071Y-4.8228
X3.3102Y-4.5102
X3.3142Y-1.7181
X3.3154Y-5.1437
X3.3479Y-4.8212
X3.3555Y-5.1315
X3.3705Y-2.6118
X3.3864Y-4.8299
X3.415Y-5.1524
X3.4319Y-4.5996
X3.4409Y-4.6933
X3.4521Y-5.1152
X3.4563Y-4.9819
X3.4944Y-5.1133
X3.515Y-5.15
X3.5276Y-4.4177
X3.573Y-5.1443
X3.613Y-5.1472
X3.6467Y-2.6118
X3.6693Y-2.9012
X3.7142Y-5.1528
X3.7346Y-4.9803
X3.7732Y-4.8197
X3.8118Y-5.1063
X3.822Y-4.8142
X3.8545Y-5.0198
X3.8713Y-5.1504
X3.8807Y-4.8138
X3.8859Y-4.996
X3.8929Y-1.7118
X3.9165Y-5.1402
X3.9787Y-5.1484
X3.9918Y-4.2729
X3.9949Y-3.2283
X3.9968Y-4.9641
X4.0189Y-5.1453
X4.0394Y-4.8045
X4.0555Y-5.1307
X4.0654Y-2.6079
X4.097Y-4.7585
X4.097Y-4.8047
X4.0971Y-4.987
X4.1256Y-4.3882
X4.1299Y-2.0069
X4.1559Y-5.2142
X4.1654Y-4.3892
X4.1681Y-5.1531
X4.1717Y-4.3017
X4.1831Y-2.7323
X4.2957Y-4.7917
X4.3378Y-3.1661
X4.3397Y-3.5544
X4.3431Y-3.9237
X4.3461Y-2.6781
X4.3746Y-4.7985
X4.376Y-1.7035
X4.4291Y-2.7598
X4.5055Y-2.608
X4.5217Y-5.15
X4.5404Y-3.7572
X4.5449Y-2.8264
X4.5465Y-2.5657
X4.5587Y-2.4803
X4.5614Y-2.5287
X4.602Y-2.7713
X4.6035Y-3.0961
X4.6047Y-3.0547
X4.624Y-4.815
X4.6638Y-1.7094
X4.685Y-1.7913
X4.7313Y-2.5463
X4.7435Y-3.9154
X4.7437Y-4.411
X4.7536Y-4.6831
X4.7746Y-5.1289
X4.7923Y-2.5868
X4.7947Y-2.5317
X4.798Y-2.4299
X4.813Y-5.1374
X4.8443Y-2.6701
X4.8494Y-2.2608
X4.8494Y-2.6144
X4.8917Y-5.0093
X4.9372Y-2.4518
X4.9537Y-4.827
X4.9788Y-5.1477
X4.9898Y-4.7937
X5.0115Y-5.122
X5.0215Y-4.4152
X5.0622Y-4.7865
X5.0644Y-5.1512
X5.1015Y-4.7878
X5.1106Y-5.1394
X5.1425Y-2.2866
X5.1483Y-4.8283
X5.1549Y-5.1433
X5.1608Y-3.9114
X5.1929Y-4.5069
X5.2169Y-4.0563
X5.2252Y-4.8366
X5.2256Y-1.7047
X5.2264Y-4.1741
X5.2328Y-5.1499
X5.2392Y-2.4429
X5.2993Y-2.5643
X5.4559Y-5.2402
X5.4728Y-4.5102
X5.5433Y-4.6492
X5.7386Y-1.7028
X5.8551Y-4.8941
X6.0638Y-4.9102
X6.0685Y-4.8177
X6.0996Y-2.7142
X6.0996Y-4.5087
X6.1618Y-4.9059
X6.3039Y-4.6719
X6.3225Y-5.0398
X6.3686Y-3.9294
X6.4012Y-1.7031
X6.4177Y-4.2394
X6.4673Y-4.0358
X6.4882Y-3.7894
X6.5988Y-4.2098
X6.6038Y-5.0668
X6.6142Y-2.3031
X6.7189Y-4.674
X6.7516Y-1.7039
X6.8437Y-4.2008
X6.8941Y-4.2185
X6.965Y-4.9681
X6.9862Y-3.8396
X6.9892Y-2.6644
X6.9916Y-4.0779
X7.0649Y-2.0696
X7.065Y-4.6719
X7.0697Y-1.702
X7.0758Y-4.0758
X7.1319Y-4.0482
X7.1413Y-3.2697
X7.1551Y-3.2063
X7.1635Y-2.5485
X7.1736Y-5.2937
X7.2802Y-2.2002
X7.2846Y-2.9382
X7.3717Y-4.8327
X7.4008Y-4.8657
X7.4882Y-2.1712
X7.5112Y-1.8809
X7.5128Y-3.8376
X7.5287Y-5.3031
X7.5748Y-1.6862
X7.5992Y-4.6776
X7.6114Y-2.9807
X7.6185Y-1.9618
X7.6336Y-1.795
X7.6378Y-3.9606
X7.7067Y-3.3435
X7.7098Y-3.9303
X7.7274Y-4.2717
X7.7476Y-2.9724
X7.7491Y-3.1518
X7.7736Y-3.5551
X7.7891Y-3.4951
X7.8303Y-3.3858
X7.8986Y-3.3711
X7.911Y-5.3008
X7.9114Y-4.2717
X7.9178Y-2.1627
X7.9232Y-2.9409
X7.9323Y-3.9374
X7.9432Y-2.4859
X7.9602Y-2.7717
X7.9803Y-4.2667
X7.987Y-1.6906
X8.0409Y-4.6748
X8.0945Y-3.6811
X8.1949Y-4.1417
X8.2Y-3.9193
X8.2069Y-3.4821
X8.2434Y-3.4695
X8.2638Y-4.3409
X8.3248Y-1.6909
X8.3421Y-4.7594
X8.3433Y-5.3
X8.3514Y-3.814
X8.439Y-2.7815
X8.4712Y-4.3406
X8.5677Y-3.7618
X8.5768Y-2.811
X8.5787Y-4.1142
X8.5787Y-3.4026
X8.5807Y-3.3356
X8.5941Y-4.0496
X8.6343Y-5.2646
X8.6488Y-4.2354
X8.6697Y-3.9752
X8.6762Y-3.6368
X8.6779Y-3.702
X8.7146Y-3.6122
X8.7162Y-3.3006
X8.752Y-3.3194
X8.7854Y-2.8061
X8.8209Y-2.7717
X8.835Y-4.0641
X8.8539Y-1.6898
X8.8743Y-4.0682
X8.876Y-3.5713
X8.9215Y-3.6443
X8.9505Y-3.9899
X8.9803Y-3.5354
X8.9819Y-4.9449
X8.9856Y-3.9722
X8.9881Y-3.6441
X9.0319Y-4.7356
X9.0394Y-3.5118
X9.0748Y-4.0965
X9.0787Y-3.8238
X9.0876Y-3.9803
X9.0993Y-4.0656
X9.1091Y-3.613
X9.1565Y-3.5
X9.1744Y-3.9035
X9.2459Y-3.0032
X9.2618Y-4.0709
X9.276Y-2.8059
X9.3106Y-2.7547
X9.3193Y-4.0616
X9.3425Y-3.9114
X9.3803Y-5.2661
X9.4031Y-1.6929
X9.5984Y-4.2285
X9.6142Y-2.9754
X9.6323Y-3.3504
X9.6366Y-3.4646
X9.6604Y-3.0315
X9.6661Y-3.7198
X9.6673Y-5.265
X9.7063Y-1.8354
X9.7096Y-3.3494
X9.7539Y-3.2697
X9.8783Y-2.1106
X9.8898Y-4.0433
X9.8913Y-3.502
X9.8917Y-2.5602
X9.8921Y-2.9906
T2
X3.8039Y-2.5783
X3.8605Y-2.5765
X3.9193Y-2.5768
X3.9744Y-2.5728
X4.4862Y-3.122
X4.7998Y-3.0929
X4.8047Y-3.339
X4.8181Y-2.7531
X5.026Y-2.7945
X5.027Y-2.6633
X5.0374Y-2.9358
X5.1209Y-3.4429
X5.1526Y-4.7451
X5.2705Y-4.0557
X5.3343Y-4.0557
X5.373Y-5.2156
X5.3967Y-4.0557
X5.4016Y-4.8878
X5.4772Y-4.8921
X5.5374Y-3.1378
X5.5693Y-4.7531
X5.5815Y-2.6622
X5.6417Y-2.9087
X5.7335Y-3.9374
X5.752Y-5.002
X5.7646Y-3.2315
X5.8012Y-4.8476
X5.9335Y-2.9799
X6.0086Y-3.4287
X6.0634Y-4.702
X6.1008Y-4.7394
X6.1107Y-4.1095
X6.1557Y-4.0777
X6.1604Y-3.8189
X6.1618Y-2.7961
X6.1705Y-3.9039
X6.1743Y-3.7463
X6.2077Y-4.1036
X6.2618Y-4.1142
X6.3063Y-3.4295
X6.5358Y-2.4925
X6.5461Y-2.7886
X6.8236Y-2.2303
X7.0583Y-3.7173
X7.1704Y-2.6282
X7.1819Y-3.4335
X7.2067Y-2.2461
X7.3925Y-2.4909
X7.4094Y-2.3484
X7.5187Y-3.374
X7.5187Y-3.7795
X7.5276Y-2.3264
X7.5276Y-2.5728
X7.5679Y-3.5699
X7.863Y-2.7303
X7.9098Y-2.6638
X8.0039Y-2.2772
X8.3238Y-3.3671
X8.8602Y-3.872
X8.8819Y-4.1683
X8.9945Y-4.3378
X9.3307Y-4.0157
T3
X4.9325Y-2.1124
X4.9325Y-2.1911
X4.9325Y-2.2699
X4.9325Y-2.3486
X5.3774Y-2.0197
X5.3774Y-2.0984
X5.4759Y-2.0197
X5.4759Y-2.0984
T4
X6.6002Y-2.1634
X6.6502Y-2.0634
X6.7002Y-2.1634
X6.7502Y-2.0634
X6.8002Y-2.1634
X6.8502Y-2.0634
X6.9002Y-2.1634
X6.9502Y-2.0634
T5
X3.8665Y-3.9854
X3.8705Y-4.1547
X7.0024Y-5.0555
X7.0024Y-5.1555
X7.0024Y-5.2555
T6
X4.8254Y-2.0837
X4.8254Y-2.3593
X5.0396Y-2.0837
X5.0396Y-2.3593
T7
X2.6411Y-1.9067
X2.6411Y-2.1567
X2.6411Y-2.4067
X3.2801Y-1.9067
X3.2801Y-2.1567
X3.2801Y-2.4067
X3.4679Y-1.9067
X3.4679Y-2.1567
X3.4679Y-2.4067
X4.1069Y-1.9067
X4.1069Y-2.1567
X4.1069Y-2.4067
X8.1687Y-1.9067
X8.1687Y-2.1567
X8.1687Y-2.4067
X8.8077Y-1.9067
X8.8077Y-2.1567
X8.8077Y-2.4067
X8.9955Y-1.9067
X8.9955Y-2.1567
X8.9955Y-2.4067
X9.6344Y-1.9067
X9.6344Y-2.1567
X9.6344Y-2.4067
T8
X5.1896Y-1.913
X5.6637Y-1.913
T9
X2.7956Y-3.281
X5.2995Y-3.281
X9.8113Y-4.7531
T10
X2.4216Y-1.9539
X2.465Y-4.7531
X5.8232Y-1.7768
X9.8547Y-1.9539
T5
G00X5.9697Y-1.8949
M15
G01X5.9697Y-1.9736
M16
G05
G00X6.1941Y-1.8161
M15
G01X6.1154Y-1.8161
M16
G05
G00X6.1941Y-2.0524
M15
G01X6.1154Y-2.0524
M16
G05
T0
M30
