G04 #@! TF.GenerationSoftware,KiCad,Pcbnew,6.0.4-6f826c9f35~116~ubuntu20.04.1*
G04 #@! TF.CreationDate,2022-05-03T23:03:30+02:00*
G04 #@! TF.ProjectId,bottom-board,626f7474-6f6d-42d6-926f-6172642e6b69,rev?*
G04 #@! TF.SameCoordinates,Original*
G04 #@! TF.FileFunction,Profile,NP*
%FSLAX46Y46*%
G04 Gerber Fmt 4.6, Leading zero omitted, Abs format (unit mm)*
G04 Created by KiCad (PCBNEW 6.0.4-6f826c9f35~116~ubuntu20.04.1) date 2022-05-03 23:03:30*
%MOMM*%
%LPD*%
G01*
G04 APERTURE LIST*
G04 #@! TA.AperFunction,Profile*
%ADD10C,0.200000*%
G04 #@! TD*
G04 APERTURE END LIST*
D10*
X60910000Y-47030000D02*
X61510000Y-47030000D01*
X64510000Y-133430000D02*
G75*
G03*
X66510000Y-135430000I2000000J0D01*
G01*
X66510000Y-41430000D02*
G75*
G03*
X64510000Y-43430000I0J-2000000D01*
G01*
X247310000Y-43430000D02*
G75*
G03*
X245310000Y-41430000I-2000000J0D01*
G01*
X252910000Y-49030000D02*
X252910000Y-127830000D01*
X236248407Y-133829992D02*
G75*
G03*
X238209249Y-135430000I1959593J399992D01*
G01*
X58910000Y-49030000D02*
X58910000Y-127830000D01*
X236248367Y-133830000D02*
G75*
G03*
X220572362Y-133826432I-7838367J-1600000D01*
G01*
X247310000Y-44030000D02*
G75*
G03*
X250310000Y-47030000I3000000J0D01*
G01*
X218612041Y-135430040D02*
G75*
G03*
X220571890Y-133828736I-41J2000040D01*
G01*
X245310000Y-135430000D02*
X238207959Y-135430000D01*
X250310000Y-47030000D02*
X250910000Y-47030000D01*
X64510000Y-44030000D02*
X64510000Y-43430000D01*
X247310000Y-43430000D02*
X247310000Y-44030000D01*
X66510000Y-41430000D02*
X245310000Y-41430000D01*
X250310000Y-129830000D02*
G75*
G03*
X247310000Y-132830000I0J-3000000D01*
G01*
X60910000Y-47030000D02*
G75*
G03*
X58910000Y-49030000I0J-2000000D01*
G01*
X64510000Y-133430000D02*
X64510000Y-132830000D01*
X252910000Y-49030000D02*
G75*
G03*
X250910000Y-47030000I-2000000J0D01*
G01*
X64510000Y-132830000D02*
G75*
G03*
X61510000Y-129830000I-3000000J0D01*
G01*
X218612041Y-135430000D02*
X66510000Y-135430000D01*
X245310000Y-135430000D02*
G75*
G03*
X247310000Y-133430000I0J2000000D01*
G01*
X60910000Y-129830000D02*
X61510000Y-129830000D01*
X250910000Y-129830000D02*
G75*
G03*
X252910000Y-127830000I0J2000000D01*
G01*
X58910000Y-127830000D02*
G75*
G03*
X60910000Y-129830000I2000000J0D01*
G01*
X250910000Y-129830000D02*
X250310000Y-129830000D01*
X247310000Y-132830000D02*
X247310000Y-133430000D01*
X61510000Y-47030000D02*
G75*
G03*
X64510000Y-44030000I0J3000000D01*
G01*
M02*
