G04 #@! TF.GenerationSoftware,KiCad,Pcbnew,6.0.10-86aedd382b~118~ubuntu22.04.1*
G04 #@! TF.CreationDate,2023-02-22T09:35:45+01:00*
G04 #@! TF.ProjectId,bottom-board,626f7474-6f6d-42d6-926f-6172642e6b69,rev?*
G04 #@! TF.SameCoordinates,Original*
G04 #@! TF.FileFunction,Legend,Bot*
G04 #@! TF.FilePolarity,Positive*
%FSLAX46Y46*%
G04 Gerber Fmt 4.6, Leading zero omitted, Abs format (unit mm)*
G04 Created by KiCad (PCBNEW 6.0.10-86aedd382b~118~ubuntu22.04.1) date 2023-02-22 09:35:45*
%MOMM*%
%LPD*%
G01*
G04 APERTURE LIST*
%ADD10C,0.150000*%
%ADD11C,0.200000*%
%ADD12C,0.300000*%
%ADD13C,0.100000*%
%ADD14C,0.120000*%
G04 APERTURE END LIST*
D10*
X94657800Y-97267600D02*
X94710000Y-107730000D01*
X94710000Y-107730000D02*
X101672200Y-107730000D01*
X101678200Y-97282000D02*
X94617000Y-97282000D01*
X101727800Y-97307600D02*
X101710000Y-107730000D01*
D11*
X100585076Y-99037980D02*
X100918409Y-98561790D01*
X101156504Y-99037980D02*
X101156504Y-98037980D01*
X100775552Y-98037980D01*
X100680314Y-98085600D01*
X100632695Y-98133219D01*
X100585076Y-98228457D01*
X100585076Y-98371314D01*
X100632695Y-98466552D01*
X100680314Y-98514171D01*
X100775552Y-98561790D01*
X101156504Y-98561790D01*
X99775552Y-98990361D02*
X99870790Y-99037980D01*
X100061266Y-99037980D01*
X100156504Y-98990361D01*
X100204123Y-98895123D01*
X100204123Y-98514171D01*
X100156504Y-98418933D01*
X100061266Y-98371314D01*
X99870790Y-98371314D01*
X99775552Y-98418933D01*
X99727933Y-98514171D01*
X99727933Y-98609409D01*
X100204123Y-98704647D01*
X98870790Y-98990361D02*
X98966028Y-99037980D01*
X99156504Y-99037980D01*
X99251742Y-98990361D01*
X99299361Y-98942742D01*
X99346980Y-98847504D01*
X99346980Y-98561790D01*
X99299361Y-98466552D01*
X99251742Y-98418933D01*
X99156504Y-98371314D01*
X98966028Y-98371314D01*
X98870790Y-98418933D01*
X98299361Y-99037980D02*
X98394600Y-98990361D01*
X98442219Y-98942742D01*
X98489838Y-98847504D01*
X98489838Y-98561790D01*
X98442219Y-98466552D01*
X98394600Y-98418933D01*
X98299361Y-98371314D01*
X98156504Y-98371314D01*
X98061266Y-98418933D01*
X98013647Y-98466552D01*
X97966028Y-98561790D01*
X97966028Y-98847504D01*
X98013647Y-98942742D01*
X98061266Y-98990361D01*
X98156504Y-99037980D01*
X98299361Y-99037980D01*
X97632695Y-98371314D02*
X97394600Y-99037980D01*
X97156504Y-98371314D01*
X96394600Y-98990361D02*
X96489838Y-99037980D01*
X96680314Y-99037980D01*
X96775552Y-98990361D01*
X96823171Y-98895123D01*
X96823171Y-98514171D01*
X96775552Y-98418933D01*
X96680314Y-98371314D01*
X96489838Y-98371314D01*
X96394600Y-98418933D01*
X96346980Y-98514171D01*
X96346980Y-98609409D01*
X96823171Y-98704647D01*
X95918409Y-99037980D02*
X95918409Y-98371314D01*
X95918409Y-98561790D02*
X95870790Y-98466552D01*
X95823171Y-98418933D01*
X95727933Y-98371314D01*
X95632695Y-98371314D01*
X95394600Y-98371314D02*
X95156504Y-99037980D01*
X94918409Y-98371314D02*
X95156504Y-99037980D01*
X95251742Y-99276076D01*
X95299361Y-99323695D01*
X95394600Y-99371314D01*
D12*
X182083571Y-127883571D02*
X181226428Y-127883571D01*
X181655000Y-129383571D02*
X181655000Y-127883571D01*
X180869285Y-127883571D02*
X179869285Y-129383571D01*
X179869285Y-127883571D02*
X180869285Y-129383571D01*
X181369285Y-131798571D02*
X181869285Y-131084285D01*
X182226428Y-131798571D02*
X182226428Y-130298571D01*
X181655000Y-130298571D01*
X181512142Y-130370000D01*
X181440714Y-130441428D01*
X181369285Y-130584285D01*
X181369285Y-130798571D01*
X181440714Y-130941428D01*
X181512142Y-131012857D01*
X181655000Y-131084285D01*
X182226428Y-131084285D01*
X180869285Y-130298571D02*
X179869285Y-131798571D01*
X179869285Y-130298571D02*
X180869285Y-131798571D01*
X183083571Y-132785000D02*
X183226428Y-132713571D01*
X183440714Y-132713571D01*
X183655000Y-132785000D01*
X183797857Y-132927857D01*
X183869285Y-133070714D01*
X183940714Y-133356428D01*
X183940714Y-133570714D01*
X183869285Y-133856428D01*
X183797857Y-133999285D01*
X183655000Y-134142142D01*
X183440714Y-134213571D01*
X183297857Y-134213571D01*
X183083571Y-134142142D01*
X183012142Y-134070714D01*
X183012142Y-133570714D01*
X183297857Y-133570714D01*
X182369285Y-134213571D02*
X182369285Y-132713571D01*
X181512142Y-134213571D01*
X181512142Y-132713571D01*
X180797857Y-134213571D02*
X180797857Y-132713571D01*
X180440714Y-132713571D01*
X180226428Y-132785000D01*
X180083571Y-132927857D01*
X180012142Y-133070714D01*
X179940714Y-133356428D01*
X179940714Y-133570714D01*
X180012142Y-133856428D01*
X180083571Y-133999285D01*
X180226428Y-134142142D01*
X180440714Y-134213571D01*
X180797857Y-134213571D01*
X244207857Y-110743571D02*
X244207857Y-109243571D01*
X243707857Y-110315000D01*
X243207857Y-109243571D01*
X243207857Y-110743571D01*
X242207857Y-109243571D02*
X241922142Y-109243571D01*
X241779285Y-109315000D01*
X241636428Y-109457857D01*
X241565000Y-109743571D01*
X241565000Y-110243571D01*
X241636428Y-110529285D01*
X241779285Y-110672142D01*
X241922142Y-110743571D01*
X242207857Y-110743571D01*
X242350714Y-110672142D01*
X242493571Y-110529285D01*
X242565000Y-110243571D01*
X242565000Y-109743571D01*
X242493571Y-109457857D01*
X242350714Y-109315000D01*
X242207857Y-109243571D01*
X240922142Y-110743571D02*
X240922142Y-109243571D01*
X240565000Y-109243571D01*
X240350714Y-109315000D01*
X240207857Y-109457857D01*
X240136428Y-109600714D01*
X240065000Y-109886428D01*
X240065000Y-110100714D01*
X240136428Y-110386428D01*
X240207857Y-110529285D01*
X240350714Y-110672142D01*
X240565000Y-110743571D01*
X240922142Y-110743571D01*
X238350714Y-110315000D02*
X237636428Y-110315000D01*
X238493571Y-110743571D02*
X237993571Y-109243571D01*
X237493571Y-110743571D01*
X236350714Y-109743571D02*
X236350714Y-110743571D01*
X236993571Y-109743571D02*
X236993571Y-110529285D01*
X236922142Y-110672142D01*
X236779285Y-110743571D01*
X236565000Y-110743571D01*
X236422142Y-110672142D01*
X236350714Y-110600714D01*
X234993571Y-110743571D02*
X234993571Y-109243571D01*
X234993571Y-110672142D02*
X235136428Y-110743571D01*
X235422142Y-110743571D01*
X235565000Y-110672142D01*
X235636428Y-110600714D01*
X235707857Y-110457857D01*
X235707857Y-110029285D01*
X235636428Y-109886428D01*
X235565000Y-109815000D01*
X235422142Y-109743571D01*
X235136428Y-109743571D01*
X234993571Y-109815000D01*
X234279285Y-110743571D02*
X234279285Y-109743571D01*
X234279285Y-109243571D02*
X234350714Y-109315000D01*
X234279285Y-109386428D01*
X234207857Y-109315000D01*
X234279285Y-109243571D01*
X234279285Y-109386428D01*
X233350714Y-110743571D02*
X233493571Y-110672142D01*
X233565000Y-110600714D01*
X233636428Y-110457857D01*
X233636428Y-110029285D01*
X233565000Y-109886428D01*
X233493571Y-109815000D01*
X233350714Y-109743571D01*
X233136428Y-109743571D01*
X232993571Y-109815000D01*
X232922142Y-109886428D01*
X232850714Y-110029285D01*
X232850714Y-110457857D01*
X232922142Y-110600714D01*
X232993571Y-110672142D01*
X233136428Y-110743571D01*
X233350714Y-110743571D01*
X231065000Y-109243571D02*
X231065000Y-110457857D01*
X230993571Y-110600714D01*
X230922142Y-110672142D01*
X230779285Y-110743571D01*
X230493571Y-110743571D01*
X230350714Y-110672142D01*
X230279285Y-110600714D01*
X230207857Y-110457857D01*
X230207857Y-109243571D01*
X228707857Y-109315000D02*
X228850714Y-109243571D01*
X229065000Y-109243571D01*
X229279285Y-109315000D01*
X229422142Y-109457857D01*
X229493571Y-109600714D01*
X229565000Y-109886428D01*
X229565000Y-110100714D01*
X229493571Y-110386428D01*
X229422142Y-110529285D01*
X229279285Y-110672142D01*
X229065000Y-110743571D01*
X228922142Y-110743571D01*
X228707857Y-110672142D01*
X228636428Y-110600714D01*
X228636428Y-110100714D01*
X228922142Y-110100714D01*
X244207857Y-113158571D02*
X244207857Y-111658571D01*
X243565000Y-113158571D02*
X243565000Y-112372857D01*
X243636428Y-112230000D01*
X243779285Y-112158571D01*
X243993571Y-112158571D01*
X244136428Y-112230000D01*
X244207857Y-112301428D01*
X243065000Y-112158571D02*
X242493571Y-112158571D01*
X242850714Y-111658571D02*
X242850714Y-112944285D01*
X242779285Y-113087142D01*
X242636428Y-113158571D01*
X242493571Y-113158571D01*
X242207857Y-112158571D02*
X241636428Y-112158571D01*
X241993571Y-111658571D02*
X241993571Y-112944285D01*
X241922142Y-113087142D01*
X241779285Y-113158571D01*
X241636428Y-113158571D01*
X241136428Y-112158571D02*
X241136428Y-113658571D01*
X241136428Y-112230000D02*
X240993571Y-112158571D01*
X240707857Y-112158571D01*
X240565000Y-112230000D01*
X240493571Y-112301428D01*
X240422142Y-112444285D01*
X240422142Y-112872857D01*
X240493571Y-113015714D01*
X240565000Y-113087142D01*
X240707857Y-113158571D01*
X240993571Y-113158571D01*
X241136428Y-113087142D01*
X239779285Y-113015714D02*
X239707857Y-113087142D01*
X239779285Y-113158571D01*
X239850714Y-113087142D01*
X239779285Y-113015714D01*
X239779285Y-113158571D01*
X239779285Y-112230000D02*
X239707857Y-112301428D01*
X239779285Y-112372857D01*
X239850714Y-112301428D01*
X239779285Y-112230000D01*
X239779285Y-112372857D01*
X237993571Y-111587142D02*
X239279285Y-113515714D01*
X236422142Y-111587142D02*
X237707857Y-113515714D01*
X235922142Y-113158571D02*
X235922142Y-112158571D01*
X235922142Y-112301428D02*
X235850714Y-112230000D01*
X235707857Y-112158571D01*
X235493571Y-112158571D01*
X235350714Y-112230000D01*
X235279285Y-112372857D01*
X235279285Y-113158571D01*
X235279285Y-112372857D02*
X235207857Y-112230000D01*
X235065000Y-112158571D01*
X234850714Y-112158571D01*
X234707857Y-112230000D01*
X234636428Y-112372857D01*
X234636428Y-113158571D01*
X233707857Y-113158571D02*
X233850714Y-113087142D01*
X233922142Y-113015714D01*
X233993571Y-112872857D01*
X233993571Y-112444285D01*
X233922142Y-112301428D01*
X233850714Y-112230000D01*
X233707857Y-112158571D01*
X233493571Y-112158571D01*
X233350714Y-112230000D01*
X233279285Y-112301428D01*
X233207857Y-112444285D01*
X233207857Y-112872857D01*
X233279285Y-113015714D01*
X233350714Y-113087142D01*
X233493571Y-113158571D01*
X233707857Y-113158571D01*
X231922142Y-113158571D02*
X231922142Y-111658571D01*
X231922142Y-113087142D02*
X232065000Y-113158571D01*
X232350714Y-113158571D01*
X232493571Y-113087142D01*
X232565000Y-113015714D01*
X232636428Y-112872857D01*
X232636428Y-112444285D01*
X232565000Y-112301428D01*
X232493571Y-112230000D01*
X232350714Y-112158571D01*
X232065000Y-112158571D01*
X231922142Y-112230000D01*
X231207857Y-113015714D02*
X231136428Y-113087142D01*
X231207857Y-113158571D01*
X231279285Y-113087142D01*
X231207857Y-113015714D01*
X231207857Y-113158571D01*
X229850714Y-113158571D02*
X229850714Y-112372857D01*
X229922142Y-112230000D01*
X230065000Y-112158571D01*
X230350714Y-112158571D01*
X230493571Y-112230000D01*
X229850714Y-113087142D02*
X229993571Y-113158571D01*
X230350714Y-113158571D01*
X230493571Y-113087142D01*
X230565000Y-112944285D01*
X230565000Y-112801428D01*
X230493571Y-112658571D01*
X230350714Y-112587142D01*
X229993571Y-112587142D01*
X229850714Y-112515714D01*
X228493571Y-112158571D02*
X228493571Y-113158571D01*
X229136428Y-112158571D02*
X229136428Y-112944285D01*
X229065000Y-113087142D01*
X228922142Y-113158571D01*
X228707857Y-113158571D01*
X228565000Y-113087142D01*
X228493571Y-113015714D01*
X227136428Y-113158571D02*
X227136428Y-111658571D01*
X227136428Y-113087142D02*
X227279285Y-113158571D01*
X227565000Y-113158571D01*
X227707857Y-113087142D01*
X227779285Y-113015714D01*
X227850714Y-112872857D01*
X227850714Y-112444285D01*
X227779285Y-112301428D01*
X227707857Y-112230000D01*
X227565000Y-112158571D01*
X227279285Y-112158571D01*
X227136428Y-112230000D01*
X226422142Y-113158571D02*
X226422142Y-112158571D01*
X226422142Y-111658571D02*
X226493571Y-111730000D01*
X226422142Y-111801428D01*
X226350714Y-111730000D01*
X226422142Y-111658571D01*
X226422142Y-111801428D01*
X225493571Y-113158571D02*
X225636428Y-113087142D01*
X225707857Y-113015714D01*
X225779285Y-112872857D01*
X225779285Y-112444285D01*
X225707857Y-112301428D01*
X225636428Y-112230000D01*
X225493571Y-112158571D01*
X225279285Y-112158571D01*
X225136428Y-112230000D01*
X225065000Y-112301428D01*
X224993571Y-112444285D01*
X224993571Y-112872857D01*
X225065000Y-113015714D01*
X225136428Y-113087142D01*
X225279285Y-113158571D01*
X225493571Y-113158571D01*
X243779285Y-118488571D02*
X244136428Y-118488571D01*
X244136428Y-116345714D01*
X243779285Y-116345714D01*
X243207857Y-117988571D02*
X243207857Y-116488571D01*
X242707857Y-117560000D01*
X242207857Y-116488571D01*
X242207857Y-117988571D01*
X241493571Y-117988571D02*
X241493571Y-116488571D01*
X241136428Y-116488571D01*
X240922142Y-116560000D01*
X240779285Y-116702857D01*
X240707857Y-116845714D01*
X240636428Y-117131428D01*
X240636428Y-117345714D01*
X240707857Y-117631428D01*
X240779285Y-117774285D01*
X240922142Y-117917142D01*
X241136428Y-117988571D01*
X241493571Y-117988571D01*
X240136428Y-116488571D02*
X239779285Y-117988571D01*
X239493571Y-116917142D01*
X239207857Y-117988571D01*
X238850714Y-116488571D01*
X238279285Y-117417142D02*
X237136428Y-117417142D01*
X236422142Y-117988571D02*
X236422142Y-116488571D01*
X235850714Y-116488571D01*
X235707857Y-116560000D01*
X235636428Y-116631428D01*
X235565000Y-116774285D01*
X235565000Y-116988571D01*
X235636428Y-117131428D01*
X235707857Y-117202857D01*
X235850714Y-117274285D01*
X236422142Y-117274285D01*
X234065000Y-117845714D02*
X234136428Y-117917142D01*
X234350714Y-117988571D01*
X234493571Y-117988571D01*
X234707857Y-117917142D01*
X234850714Y-117774285D01*
X234922142Y-117631428D01*
X234993571Y-117345714D01*
X234993571Y-117131428D01*
X234922142Y-116845714D01*
X234850714Y-116702857D01*
X234707857Y-116560000D01*
X234493571Y-116488571D01*
X234350714Y-116488571D01*
X234136428Y-116560000D01*
X234065000Y-116631428D01*
X232922142Y-117202857D02*
X232707857Y-117274285D01*
X232636428Y-117345714D01*
X232565000Y-117488571D01*
X232565000Y-117702857D01*
X232636428Y-117845714D01*
X232707857Y-117917142D01*
X232850714Y-117988571D01*
X233422142Y-117988571D01*
X233422142Y-116488571D01*
X232922142Y-116488571D01*
X232779285Y-116560000D01*
X232707857Y-116631428D01*
X232636428Y-116774285D01*
X232636428Y-116917142D01*
X232707857Y-117060000D01*
X232779285Y-117131428D01*
X232922142Y-117202857D01*
X233422142Y-117202857D01*
X231922142Y-117417142D02*
X230779285Y-117417142D01*
X229779285Y-116488571D02*
X229636428Y-116488571D01*
X229493571Y-116560000D01*
X229422142Y-116631428D01*
X229350714Y-116774285D01*
X229279285Y-117060000D01*
X229279285Y-117417142D01*
X229350714Y-117702857D01*
X229422142Y-117845714D01*
X229493571Y-117917142D01*
X229636428Y-117988571D01*
X229779285Y-117988571D01*
X229922142Y-117917142D01*
X229993571Y-117845714D01*
X230065000Y-117702857D01*
X230136428Y-117417142D01*
X230136428Y-117060000D01*
X230065000Y-116774285D01*
X229993571Y-116631428D01*
X229922142Y-116560000D01*
X229779285Y-116488571D01*
X228350714Y-116488571D02*
X228207857Y-116488571D01*
X228065000Y-116560000D01*
X227993571Y-116631428D01*
X227922142Y-116774285D01*
X227850714Y-117060000D01*
X227850714Y-117417142D01*
X227922142Y-117702857D01*
X227993571Y-117845714D01*
X228065000Y-117917142D01*
X228207857Y-117988571D01*
X228350714Y-117988571D01*
X228493571Y-117917142D01*
X228565000Y-117845714D01*
X228636428Y-117702857D01*
X228707857Y-117417142D01*
X228707857Y-117060000D01*
X228636428Y-116774285D01*
X228565000Y-116631428D01*
X228493571Y-116560000D01*
X228350714Y-116488571D01*
X226422142Y-117988571D02*
X227279285Y-117988571D01*
X226850714Y-117988571D02*
X226850714Y-116488571D01*
X226993571Y-116702857D01*
X227136428Y-116845714D01*
X227279285Y-116917142D01*
X225922142Y-118488571D02*
X225565000Y-118488571D01*
X225565000Y-116345714D01*
X225922142Y-116345714D01*
X244207857Y-120403571D02*
X244207857Y-118903571D01*
X243707857Y-119975000D01*
X243207857Y-118903571D01*
X243207857Y-120403571D01*
X242207857Y-118903571D02*
X241922142Y-118903571D01*
X241779285Y-118975000D01*
X241636428Y-119117857D01*
X241565000Y-119403571D01*
X241565000Y-119903571D01*
X241636428Y-120189285D01*
X241779285Y-120332142D01*
X241922142Y-120403571D01*
X242207857Y-120403571D01*
X242350714Y-120332142D01*
X242493571Y-120189285D01*
X242565000Y-119903571D01*
X242565000Y-119403571D01*
X242493571Y-119117857D01*
X242350714Y-118975000D01*
X242207857Y-118903571D01*
X240922142Y-120403571D02*
X240922142Y-118903571D01*
X240565000Y-118903571D01*
X240350714Y-118975000D01*
X240207857Y-119117857D01*
X240136428Y-119260714D01*
X240065000Y-119546428D01*
X240065000Y-119760714D01*
X240136428Y-120046428D01*
X240207857Y-120189285D01*
X240350714Y-120332142D01*
X240565000Y-120403571D01*
X240922142Y-120403571D01*
X238279285Y-120403571D02*
X238279285Y-118903571D01*
X237922142Y-118903571D01*
X237707857Y-118975000D01*
X237565000Y-119117857D01*
X237493571Y-119260714D01*
X237422142Y-119546428D01*
X237422142Y-119760714D01*
X237493571Y-120046428D01*
X237565000Y-120189285D01*
X237707857Y-120332142D01*
X237922142Y-120403571D01*
X238279285Y-120403571D01*
X236922142Y-119403571D02*
X236636428Y-120403571D01*
X236350714Y-119689285D01*
X236065000Y-120403571D01*
X235779285Y-119403571D01*
X234565000Y-120403571D02*
X234565000Y-119617857D01*
X234636428Y-119475000D01*
X234779285Y-119403571D01*
X235065000Y-119403571D01*
X235207857Y-119475000D01*
X234565000Y-120332142D02*
X234707857Y-120403571D01*
X235065000Y-120403571D01*
X235207857Y-120332142D01*
X235279285Y-120189285D01*
X235279285Y-120046428D01*
X235207857Y-119903571D01*
X235065000Y-119832142D01*
X234707857Y-119832142D01*
X234565000Y-119760714D01*
X233850714Y-120403571D02*
X233850714Y-119403571D01*
X233850714Y-119689285D02*
X233779285Y-119546428D01*
X233707857Y-119475000D01*
X233565000Y-119403571D01*
X233422142Y-119403571D01*
X233136428Y-119403571D02*
X232565000Y-119403571D01*
X232922142Y-120403571D02*
X232922142Y-119117857D01*
X232850714Y-118975000D01*
X232707857Y-118903571D01*
X232565000Y-118903571D01*
X230922142Y-119832142D02*
X229779285Y-119832142D01*
X227922142Y-120403571D02*
X227922142Y-118903571D01*
X227422142Y-119975000D01*
X226922142Y-118903571D01*
X226922142Y-120403571D01*
X225565000Y-120403571D02*
X225565000Y-119617857D01*
X225636428Y-119475000D01*
X225779285Y-119403571D01*
X226065000Y-119403571D01*
X226207857Y-119475000D01*
X225565000Y-120332142D02*
X225707857Y-120403571D01*
X226065000Y-120403571D01*
X226207857Y-120332142D01*
X226279285Y-120189285D01*
X226279285Y-120046428D01*
X226207857Y-119903571D01*
X226065000Y-119832142D01*
X225707857Y-119832142D01*
X225565000Y-119760714D01*
X224850714Y-120403571D02*
X224850714Y-119403571D01*
X224850714Y-118903571D02*
X224922142Y-118975000D01*
X224850714Y-119046428D01*
X224779285Y-118975000D01*
X224850714Y-118903571D01*
X224850714Y-119046428D01*
X224136428Y-119403571D02*
X224136428Y-120403571D01*
X224136428Y-119546428D02*
X224065000Y-119475000D01*
X223922142Y-119403571D01*
X223707857Y-119403571D01*
X223565000Y-119475000D01*
X223493571Y-119617857D01*
X223493571Y-120403571D01*
X221136428Y-119617857D02*
X220922142Y-119689285D01*
X220850714Y-119760714D01*
X220779285Y-119903571D01*
X220779285Y-120117857D01*
X220850714Y-120260714D01*
X220922142Y-120332142D01*
X221065000Y-120403571D01*
X221636428Y-120403571D01*
X221636428Y-118903571D01*
X221136428Y-118903571D01*
X220993571Y-118975000D01*
X220922142Y-119046428D01*
X220850714Y-119189285D01*
X220850714Y-119332142D01*
X220922142Y-119475000D01*
X220993571Y-119546428D01*
X221136428Y-119617857D01*
X221636428Y-119617857D01*
X219922142Y-120403571D02*
X220065000Y-120332142D01*
X220136428Y-120260714D01*
X220207857Y-120117857D01*
X220207857Y-119689285D01*
X220136428Y-119546428D01*
X220065000Y-119475000D01*
X219922142Y-119403571D01*
X219707857Y-119403571D01*
X219565000Y-119475000D01*
X219493571Y-119546428D01*
X219422142Y-119689285D01*
X219422142Y-120117857D01*
X219493571Y-120260714D01*
X219565000Y-120332142D01*
X219707857Y-120403571D01*
X219922142Y-120403571D01*
X218136428Y-120403571D02*
X218136428Y-119617857D01*
X218207857Y-119475000D01*
X218350714Y-119403571D01*
X218636428Y-119403571D01*
X218779285Y-119475000D01*
X218136428Y-120332142D02*
X218279285Y-120403571D01*
X218636428Y-120403571D01*
X218779285Y-120332142D01*
X218850714Y-120189285D01*
X218850714Y-120046428D01*
X218779285Y-119903571D01*
X218636428Y-119832142D01*
X218279285Y-119832142D01*
X218136428Y-119760714D01*
X217422142Y-120403571D02*
X217422142Y-119403571D01*
X217422142Y-119689285D02*
X217350714Y-119546428D01*
X217279285Y-119475000D01*
X217136428Y-119403571D01*
X216993571Y-119403571D01*
X215850714Y-120403571D02*
X215850714Y-118903571D01*
X215850714Y-120332142D02*
X215993571Y-120403571D01*
X216279285Y-120403571D01*
X216422142Y-120332142D01*
X216493571Y-120260714D01*
X216565000Y-120117857D01*
X216565000Y-119689285D01*
X216493571Y-119546428D01*
X216422142Y-119475000D01*
X216279285Y-119403571D01*
X215993571Y-119403571D01*
X215850714Y-119475000D01*
X243350714Y-122818571D02*
X243850714Y-122104285D01*
X244207857Y-122818571D02*
X244207857Y-121318571D01*
X243636428Y-121318571D01*
X243493571Y-121390000D01*
X243422142Y-121461428D01*
X243350714Y-121604285D01*
X243350714Y-121818571D01*
X243422142Y-121961428D01*
X243493571Y-122032857D01*
X243636428Y-122104285D01*
X244207857Y-122104285D01*
X242136428Y-122747142D02*
X242279285Y-122818571D01*
X242565000Y-122818571D01*
X242707857Y-122747142D01*
X242779285Y-122604285D01*
X242779285Y-122032857D01*
X242707857Y-121890000D01*
X242565000Y-121818571D01*
X242279285Y-121818571D01*
X242136428Y-121890000D01*
X242065000Y-122032857D01*
X242065000Y-122175714D01*
X242779285Y-122318571D01*
X241565000Y-121818571D02*
X241207857Y-122818571D01*
X240850714Y-121818571D01*
X240279285Y-122675714D02*
X240207857Y-122747142D01*
X240279285Y-122818571D01*
X240350714Y-122747142D01*
X240279285Y-122675714D01*
X240279285Y-122818571D01*
X239565000Y-122675714D02*
X239493571Y-122747142D01*
X239565000Y-122818571D01*
X239636428Y-122747142D01*
X239565000Y-122675714D01*
X239565000Y-122818571D01*
X239565000Y-121890000D02*
X239493571Y-121961428D01*
X239565000Y-122032857D01*
X239636428Y-121961428D01*
X239565000Y-121890000D01*
X239565000Y-122032857D01*
X237707857Y-122818571D02*
X237707857Y-121318571D01*
X237207857Y-122390000D01*
X236707857Y-121318571D01*
X236707857Y-122818571D01*
X235993571Y-122818571D02*
X235993571Y-121318571D01*
X235636428Y-121318571D01*
X235422142Y-121390000D01*
X235279285Y-121532857D01*
X235207857Y-121675714D01*
X235136428Y-121961428D01*
X235136428Y-122175714D01*
X235207857Y-122461428D01*
X235279285Y-122604285D01*
X235422142Y-122747142D01*
X235636428Y-122818571D01*
X235993571Y-122818571D01*
X234636428Y-121318571D02*
X234279285Y-122818571D01*
X233993571Y-121747142D01*
X233707857Y-122818571D01*
X233350714Y-121318571D01*
X232779285Y-122247142D02*
X231636428Y-122247142D01*
X230922142Y-122818571D02*
X230922142Y-121318571D01*
X230350714Y-121318571D01*
X230207857Y-121390000D01*
X230136428Y-121461428D01*
X230065000Y-121604285D01*
X230065000Y-121818571D01*
X230136428Y-121961428D01*
X230207857Y-122032857D01*
X230350714Y-122104285D01*
X230922142Y-122104285D01*
X228565000Y-122675714D02*
X228636428Y-122747142D01*
X228850714Y-122818571D01*
X228993571Y-122818571D01*
X229207857Y-122747142D01*
X229350714Y-122604285D01*
X229422142Y-122461428D01*
X229493571Y-122175714D01*
X229493571Y-121961428D01*
X229422142Y-121675714D01*
X229350714Y-121532857D01*
X229207857Y-121390000D01*
X228993571Y-121318571D01*
X228850714Y-121318571D01*
X228636428Y-121390000D01*
X228565000Y-121461428D01*
X227422142Y-122032857D02*
X227207857Y-122104285D01*
X227136428Y-122175714D01*
X227065000Y-122318571D01*
X227065000Y-122532857D01*
X227136428Y-122675714D01*
X227207857Y-122747142D01*
X227350714Y-122818571D01*
X227922142Y-122818571D01*
X227922142Y-121318571D01*
X227422142Y-121318571D01*
X227279285Y-121390000D01*
X227207857Y-121461428D01*
X227136428Y-121604285D01*
X227136428Y-121747142D01*
X227207857Y-121890000D01*
X227279285Y-121961428D01*
X227422142Y-122032857D01*
X227922142Y-122032857D01*
X226422142Y-122247142D02*
X225279285Y-122247142D01*
X224279285Y-121318571D02*
X224136428Y-121318571D01*
X223993571Y-121390000D01*
X223922142Y-121461428D01*
X223850714Y-121604285D01*
X223779285Y-121890000D01*
X223779285Y-122247142D01*
X223850714Y-122532857D01*
X223922142Y-122675714D01*
X223993571Y-122747142D01*
X224136428Y-122818571D01*
X224279285Y-122818571D01*
X224422142Y-122747142D01*
X224493571Y-122675714D01*
X224565000Y-122532857D01*
X224636428Y-122247142D01*
X224636428Y-121890000D01*
X224565000Y-121604285D01*
X224493571Y-121461428D01*
X224422142Y-121390000D01*
X224279285Y-121318571D01*
X222850714Y-121318571D02*
X222707857Y-121318571D01*
X222565000Y-121390000D01*
X222493571Y-121461428D01*
X222422142Y-121604285D01*
X222350714Y-121890000D01*
X222350714Y-122247142D01*
X222422142Y-122532857D01*
X222493571Y-122675714D01*
X222565000Y-122747142D01*
X222707857Y-122818571D01*
X222850714Y-122818571D01*
X222993571Y-122747142D01*
X223065000Y-122675714D01*
X223136428Y-122532857D01*
X223207857Y-122247142D01*
X223207857Y-121890000D01*
X223136428Y-121604285D01*
X223065000Y-121461428D01*
X222993571Y-121390000D01*
X222850714Y-121318571D01*
X220922142Y-122818571D02*
X221779285Y-122818571D01*
X221350714Y-122818571D02*
X221350714Y-121318571D01*
X221493571Y-121532857D01*
X221636428Y-121675714D01*
X221779285Y-121747142D01*
X220279285Y-122247142D02*
X219136428Y-122247142D01*
X218636428Y-121318571D02*
X218136428Y-122818571D01*
X217636428Y-121318571D01*
X217279285Y-121318571D02*
X216350714Y-121318571D01*
X216850714Y-121890000D01*
X216636428Y-121890000D01*
X216493571Y-121961428D01*
X216422142Y-122032857D01*
X216350714Y-122175714D01*
X216350714Y-122532857D01*
X216422142Y-122675714D01*
X216493571Y-122747142D01*
X216636428Y-122818571D01*
X217065000Y-122818571D01*
X217207857Y-122747142D01*
X217279285Y-122675714D01*
X215707857Y-122675714D02*
X215636428Y-122747142D01*
X215707857Y-122818571D01*
X215779285Y-122747142D01*
X215707857Y-122675714D01*
X215707857Y-122818571D01*
X214707857Y-121318571D02*
X214565000Y-121318571D01*
X214422142Y-121390000D01*
X214350714Y-121461428D01*
X214279285Y-121604285D01*
X214207857Y-121890000D01*
X214207857Y-122247142D01*
X214279285Y-122532857D01*
X214350714Y-122675714D01*
X214422142Y-122747142D01*
X214565000Y-122818571D01*
X214707857Y-122818571D01*
X214850714Y-122747142D01*
X214922142Y-122675714D01*
X214993571Y-122532857D01*
X215065000Y-122247142D01*
X215065000Y-121890000D01*
X214993571Y-121604285D01*
X214922142Y-121461428D01*
X214850714Y-121390000D01*
X214707857Y-121318571D01*
X244207857Y-125233571D02*
X244207857Y-123733571D01*
X243850714Y-123733571D01*
X243636428Y-123805000D01*
X243493571Y-123947857D01*
X243422142Y-124090714D01*
X243350714Y-124376428D01*
X243350714Y-124590714D01*
X243422142Y-124876428D01*
X243493571Y-125019285D01*
X243636428Y-125162142D01*
X243850714Y-125233571D01*
X244207857Y-125233571D01*
X242065000Y-125233571D02*
X242065000Y-124447857D01*
X242136428Y-124305000D01*
X242279285Y-124233571D01*
X242565000Y-124233571D01*
X242707857Y-124305000D01*
X242065000Y-125162142D02*
X242207857Y-125233571D01*
X242565000Y-125233571D01*
X242707857Y-125162142D01*
X242779285Y-125019285D01*
X242779285Y-124876428D01*
X242707857Y-124733571D01*
X242565000Y-124662142D01*
X242207857Y-124662142D01*
X242065000Y-124590714D01*
X241564999Y-124233571D02*
X240993571Y-124233571D01*
X241350714Y-123733571D02*
X241350714Y-125019285D01*
X241279285Y-125162142D01*
X241136428Y-125233571D01*
X240993571Y-125233571D01*
X239922142Y-125162142D02*
X240065000Y-125233571D01*
X240350714Y-125233571D01*
X240493571Y-125162142D01*
X240565000Y-125019285D01*
X240565000Y-124447857D01*
X240493571Y-124305000D01*
X240350714Y-124233571D01*
X240065000Y-124233571D01*
X239922142Y-124305000D01*
X239850714Y-124447857D01*
X239850714Y-124590714D01*
X240565000Y-124733571D01*
X239207857Y-125090714D02*
X239136428Y-125162142D01*
X239207857Y-125233571D01*
X239279285Y-125162142D01*
X239207857Y-125090714D01*
X239207857Y-125233571D01*
X239207857Y-124305000D02*
X239136428Y-124376428D01*
X239207857Y-124447857D01*
X239279285Y-124376428D01*
X239207857Y-124305000D01*
X239207857Y-124447857D01*
X237422142Y-123876428D02*
X237350714Y-123805000D01*
X237207857Y-123733571D01*
X236850714Y-123733571D01*
X236707857Y-123805000D01*
X236636428Y-123876428D01*
X236565000Y-124019285D01*
X236565000Y-124162142D01*
X236636428Y-124376428D01*
X237493571Y-125233571D01*
X236565000Y-125233571D01*
X235636428Y-123733571D02*
X235493571Y-123733571D01*
X235350714Y-123805000D01*
X235279285Y-123876428D01*
X235207857Y-124019285D01*
X235136428Y-124305000D01*
X235136428Y-124662142D01*
X235207857Y-124947857D01*
X235279285Y-125090714D01*
X235350714Y-125162142D01*
X235493571Y-125233571D01*
X235636428Y-125233571D01*
X235779285Y-125162142D01*
X235850714Y-125090714D01*
X235922142Y-124947857D01*
X235993571Y-124662142D01*
X235993571Y-124305000D01*
X235922142Y-124019285D01*
X235850714Y-123876428D01*
X235779285Y-123805000D01*
X235636428Y-123733571D01*
X234564999Y-123876428D02*
X234493571Y-123805000D01*
X234350714Y-123733571D01*
X233993571Y-123733571D01*
X233850714Y-123805000D01*
X233779285Y-123876428D01*
X233707857Y-124019285D01*
X233707857Y-124162142D01*
X233779285Y-124376428D01*
X234636428Y-125233571D01*
X233707857Y-125233571D01*
X233207857Y-123733571D02*
X232279285Y-123733571D01*
X232779285Y-124305000D01*
X232564999Y-124305000D01*
X232422142Y-124376428D01*
X232350714Y-124447857D01*
X232279285Y-124590714D01*
X232279285Y-124947857D01*
X232350714Y-125090714D01*
X232422142Y-125162142D01*
X232564999Y-125233571D01*
X232993571Y-125233571D01*
X233136428Y-125162142D01*
X233207857Y-125090714D01*
X231636428Y-125090714D02*
X231564999Y-125162142D01*
X231636428Y-125233571D01*
X231707857Y-125162142D01*
X231636428Y-125090714D01*
X231636428Y-125233571D01*
X230636428Y-123733571D02*
X230493571Y-123733571D01*
X230350714Y-123805000D01*
X230279285Y-123876428D01*
X230207857Y-124019285D01*
X230136428Y-124305000D01*
X230136428Y-124662142D01*
X230207857Y-124947857D01*
X230279285Y-125090714D01*
X230350714Y-125162142D01*
X230493571Y-125233571D01*
X230636428Y-125233571D01*
X230779285Y-125162142D01*
X230850714Y-125090714D01*
X230922142Y-124947857D01*
X230993571Y-124662142D01*
X230993571Y-124305000D01*
X230922142Y-124019285D01*
X230850714Y-123876428D01*
X230779285Y-123805000D01*
X230636428Y-123733571D01*
X229564999Y-123876428D02*
X229493571Y-123805000D01*
X229350714Y-123733571D01*
X228993571Y-123733571D01*
X228850714Y-123805000D01*
X228779285Y-123876428D01*
X228707857Y-124019285D01*
X228707857Y-124162142D01*
X228779285Y-124376428D01*
X229636428Y-125233571D01*
X228707857Y-125233571D01*
X228064999Y-125090714D02*
X227993571Y-125162142D01*
X228064999Y-125233571D01*
X228136428Y-125162142D01*
X228064999Y-125090714D01*
X228064999Y-125233571D01*
X227422142Y-123876428D02*
X227350714Y-123805000D01*
X227207857Y-123733571D01*
X226850714Y-123733571D01*
X226707857Y-123805000D01*
X226636428Y-123876428D01*
X226564999Y-124019285D01*
X226564999Y-124162142D01*
X226636428Y-124376428D01*
X227493571Y-125233571D01*
X226564999Y-125233571D01*
X225993571Y-123876428D02*
X225922142Y-123805000D01*
X225779285Y-123733571D01*
X225422142Y-123733571D01*
X225279285Y-123805000D01*
X225207857Y-123876428D01*
X225136428Y-124019285D01*
X225136428Y-124162142D01*
X225207857Y-124376428D01*
X226064999Y-125233571D01*
X225136428Y-125233571D01*
D10*
X126802380Y-128692380D02*
X126802380Y-127692380D01*
X126421428Y-127692380D01*
X126326190Y-127740000D01*
X126278571Y-127787619D01*
X126230952Y-127882857D01*
X126230952Y-128025714D01*
X126278571Y-128120952D01*
X126326190Y-128168571D01*
X126421428Y-128216190D01*
X126802380Y-128216190D01*
X125659523Y-128692380D02*
X125754761Y-128644761D01*
X125802380Y-128597142D01*
X125850000Y-128501904D01*
X125850000Y-128216190D01*
X125802380Y-128120952D01*
X125754761Y-128073333D01*
X125659523Y-128025714D01*
X125516666Y-128025714D01*
X125421428Y-128073333D01*
X125373809Y-128120952D01*
X125326190Y-128216190D01*
X125326190Y-128501904D01*
X125373809Y-128597142D01*
X125421428Y-128644761D01*
X125516666Y-128692380D01*
X125659523Y-128692380D01*
X124992857Y-128025714D02*
X124802380Y-128692380D01*
X124611904Y-128216190D01*
X124421428Y-128692380D01*
X124230952Y-128025714D01*
X123469047Y-128644761D02*
X123564285Y-128692380D01*
X123754761Y-128692380D01*
X123850000Y-128644761D01*
X123897619Y-128549523D01*
X123897619Y-128168571D01*
X123850000Y-128073333D01*
X123754761Y-128025714D01*
X123564285Y-128025714D01*
X123469047Y-128073333D01*
X123421428Y-128168571D01*
X123421428Y-128263809D01*
X123897619Y-128359047D01*
X122992857Y-128692380D02*
X122992857Y-128025714D01*
X122992857Y-128216190D02*
X122945238Y-128120952D01*
X122897619Y-128073333D01*
X122802380Y-128025714D01*
X122707142Y-128025714D01*
X121850000Y-128692380D02*
X122421428Y-128692380D01*
X122135714Y-128692380D02*
X122135714Y-127692380D01*
X122230952Y-127835238D01*
X122326190Y-127930476D01*
X122421428Y-127978095D01*
X121954285Y-133182380D02*
X122287619Y-132706190D01*
X122525714Y-133182380D02*
X122525714Y-132182380D01*
X122144761Y-132182380D01*
X122049523Y-132230000D01*
X122001904Y-132277619D01*
X121954285Y-132372857D01*
X121954285Y-132515714D01*
X122001904Y-132610952D01*
X122049523Y-132658571D01*
X122144761Y-132706190D01*
X122525714Y-132706190D01*
X121144761Y-133134761D02*
X121240000Y-133182380D01*
X121430476Y-133182380D01*
X121525714Y-133134761D01*
X121573333Y-133039523D01*
X121573333Y-132658571D01*
X121525714Y-132563333D01*
X121430476Y-132515714D01*
X121240000Y-132515714D01*
X121144761Y-132563333D01*
X121097142Y-132658571D01*
X121097142Y-132753809D01*
X121573333Y-132849047D01*
X120716190Y-133134761D02*
X120620952Y-133182380D01*
X120430476Y-133182380D01*
X120335238Y-133134761D01*
X120287619Y-133039523D01*
X120287619Y-132991904D01*
X120335238Y-132896666D01*
X120430476Y-132849047D01*
X120573333Y-132849047D01*
X120668571Y-132801428D01*
X120716190Y-132706190D01*
X120716190Y-132658571D01*
X120668571Y-132563333D01*
X120573333Y-132515714D01*
X120430476Y-132515714D01*
X120335238Y-132563333D01*
X119478095Y-133134761D02*
X119573333Y-133182380D01*
X119763809Y-133182380D01*
X119859047Y-133134761D01*
X119906666Y-133039523D01*
X119906666Y-132658571D01*
X119859047Y-132563333D01*
X119763809Y-132515714D01*
X119573333Y-132515714D01*
X119478095Y-132563333D01*
X119430476Y-132658571D01*
X119430476Y-132753809D01*
X119906666Y-132849047D01*
X119144761Y-132515714D02*
X118763809Y-132515714D01*
X119001904Y-132182380D02*
X119001904Y-133039523D01*
X118954285Y-133134761D01*
X118859047Y-133182380D01*
X118763809Y-133182380D01*
X117906666Y-133182380D02*
X118478095Y-133182380D01*
X118192380Y-133182380D02*
X118192380Y-132182380D01*
X118287619Y-132325238D01*
X118382857Y-132420476D01*
X118478095Y-132468095D01*
D13*
X155723748Y-89710428D02*
X155723748Y-89424714D01*
X155123748Y-89424714D01*
X155723748Y-89996142D02*
X155695177Y-89939000D01*
X155666605Y-89910428D01*
X155609462Y-89881857D01*
X155438034Y-89881857D01*
X155380891Y-89910428D01*
X155352320Y-89939000D01*
X155323748Y-89996142D01*
X155323748Y-90081857D01*
X155352320Y-90139000D01*
X155380891Y-90167571D01*
X155438034Y-90196142D01*
X155609462Y-90196142D01*
X155666605Y-90167571D01*
X155695177Y-90139000D01*
X155723748Y-90081857D01*
X155723748Y-89996142D01*
X155323748Y-90710428D02*
X155809462Y-90710428D01*
X155866605Y-90681857D01*
X155895177Y-90653285D01*
X155923748Y-90596142D01*
X155923748Y-90510428D01*
X155895177Y-90453285D01*
X155695177Y-90710428D02*
X155723748Y-90653285D01*
X155723748Y-90539000D01*
X155695177Y-90481857D01*
X155666605Y-90453285D01*
X155609462Y-90424714D01*
X155438034Y-90424714D01*
X155380891Y-90453285D01*
X155352320Y-90481857D01*
X155323748Y-90539000D01*
X155323748Y-90653285D01*
X155352320Y-90710428D01*
X155723748Y-91081857D02*
X155695177Y-91024714D01*
X155666605Y-90996142D01*
X155609462Y-90967571D01*
X155438034Y-90967571D01*
X155380891Y-90996142D01*
X155352320Y-91024714D01*
X155323748Y-91081857D01*
X155323748Y-91167571D01*
X155352320Y-91224714D01*
X155380891Y-91253285D01*
X155438034Y-91281857D01*
X155609462Y-91281857D01*
X155666605Y-91253285D01*
X155695177Y-91224714D01*
X155723748Y-91167571D01*
X155723748Y-91081857D01*
D14*
X125230000Y-130370000D02*
G75*
G03*
X125230000Y-130370000I-950000J0D01*
G01*
X121250000Y-130350000D02*
G75*
G03*
X121250000Y-130350000I-950000J0D01*
G01*
G36*
X145428836Y-102391530D02*
G01*
X145275870Y-102261503D01*
X145165552Y-102106910D01*
X145161194Y-102098731D01*
X145132334Y-102042300D01*
X145108069Y-101987625D01*
X145088002Y-101929926D01*
X145071735Y-101864427D01*
X145058871Y-101786350D01*
X145049012Y-101690917D01*
X145041760Y-101573351D01*
X145036719Y-101428874D01*
X145033489Y-101252708D01*
X145031675Y-101040075D01*
X145030878Y-100786198D01*
X145030708Y-100499000D01*
X145843500Y-100499000D01*
X145843503Y-100568505D01*
X145843630Y-100829946D01*
X145844088Y-101046463D01*
X145845074Y-101222800D01*
X145846783Y-101363701D01*
X145849411Y-101473909D01*
X145853155Y-101558170D01*
X145858211Y-101621227D01*
X145864774Y-101667824D01*
X145873041Y-101702706D01*
X145883209Y-101730616D01*
X145895473Y-101756300D01*
X145936406Y-101819725D01*
X146000501Y-101877421D01*
X146098673Y-101934100D01*
X146249900Y-102010300D01*
X148008850Y-102017784D01*
X149767800Y-102025269D01*
X149767800Y-98975000D01*
X148034250Y-98975141D01*
X147810031Y-98975303D01*
X147469884Y-98976171D01*
X147165415Y-98977763D01*
X146898786Y-98980048D01*
X146672155Y-98982996D01*
X146487683Y-98986576D01*
X146347528Y-98990758D01*
X146253852Y-98995512D01*
X146208813Y-99000807D01*
X146096979Y-99044983D01*
X145977086Y-99130969D01*
X145894300Y-99242035D01*
X145892546Y-99245556D01*
X145880839Y-99271514D01*
X145871157Y-99300841D01*
X145863308Y-99338280D01*
X145857100Y-99388575D01*
X145852342Y-99456468D01*
X145848842Y-99546701D01*
X145846408Y-99664020D01*
X145844848Y-99813166D01*
X145843972Y-99998882D01*
X145843586Y-100225912D01*
X145843500Y-100499000D01*
X145030708Y-100499000D01*
X145030700Y-100486300D01*
X145030728Y-100273783D01*
X145030952Y-100027502D01*
X145031573Y-99823516D01*
X145032793Y-99656939D01*
X145034810Y-99522883D01*
X145037825Y-99416463D01*
X145042038Y-99332791D01*
X145047648Y-99266982D01*
X145054857Y-99214148D01*
X145063863Y-99169404D01*
X145074867Y-99127863D01*
X145088069Y-99084638D01*
X145141381Y-98945355D01*
X145240070Y-98778982D01*
X145370898Y-98641647D01*
X145537832Y-98530238D01*
X145744843Y-98441642D01*
X145995900Y-98372746D01*
X146002852Y-98371276D01*
X146043286Y-98364408D01*
X146095496Y-98358307D01*
X146162736Y-98352903D01*
X146248257Y-98348127D01*
X146355311Y-98343910D01*
X146487149Y-98340181D01*
X146647024Y-98336873D01*
X146838188Y-98333915D01*
X147063892Y-98331237D01*
X147327388Y-98328772D01*
X147631929Y-98326449D01*
X147980766Y-98324199D01*
X148377150Y-98321952D01*
X150580600Y-98310089D01*
X150580600Y-102660322D01*
X148351750Y-102651201D01*
X148112729Y-102650201D01*
X147750009Y-102648552D01*
X147432687Y-102646876D01*
X147157377Y-102645098D01*
X146920693Y-102643141D01*
X146719250Y-102640930D01*
X146549662Y-102638389D01*
X146408543Y-102635442D01*
X146292507Y-102632014D01*
X146198170Y-102628028D01*
X146122144Y-102623410D01*
X146061045Y-102618082D01*
X146011487Y-102611971D01*
X145970085Y-102604999D01*
X145933452Y-102597091D01*
X145866080Y-102580036D01*
X145843500Y-102572298D01*
X145625291Y-102497528D01*
X145428836Y-102391530D01*
G37*
D13*
X145428836Y-102391530D02*
X145275870Y-102261503D01*
X145165552Y-102106910D01*
X145161194Y-102098731D01*
X145132334Y-102042300D01*
X145108069Y-101987625D01*
X145088002Y-101929926D01*
X145071735Y-101864427D01*
X145058871Y-101786350D01*
X145049012Y-101690917D01*
X145041760Y-101573351D01*
X145036719Y-101428874D01*
X145033489Y-101252708D01*
X145031675Y-101040075D01*
X145030878Y-100786198D01*
X145030708Y-100499000D01*
X145843500Y-100499000D01*
X145843503Y-100568505D01*
X145843630Y-100829946D01*
X145844088Y-101046463D01*
X145845074Y-101222800D01*
X145846783Y-101363701D01*
X145849411Y-101473909D01*
X145853155Y-101558170D01*
X145858211Y-101621227D01*
X145864774Y-101667824D01*
X145873041Y-101702706D01*
X145883209Y-101730616D01*
X145895473Y-101756300D01*
X145936406Y-101819725D01*
X146000501Y-101877421D01*
X146098673Y-101934100D01*
X146249900Y-102010300D01*
X148008850Y-102017784D01*
X149767800Y-102025269D01*
X149767800Y-98975000D01*
X148034250Y-98975141D01*
X147810031Y-98975303D01*
X147469884Y-98976171D01*
X147165415Y-98977763D01*
X146898786Y-98980048D01*
X146672155Y-98982996D01*
X146487683Y-98986576D01*
X146347528Y-98990758D01*
X146253852Y-98995512D01*
X146208813Y-99000807D01*
X146096979Y-99044983D01*
X145977086Y-99130969D01*
X145894300Y-99242035D01*
X145892546Y-99245556D01*
X145880839Y-99271514D01*
X145871157Y-99300841D01*
X145863308Y-99338280D01*
X145857100Y-99388575D01*
X145852342Y-99456468D01*
X145848842Y-99546701D01*
X145846408Y-99664020D01*
X145844848Y-99813166D01*
X145843972Y-99998882D01*
X145843586Y-100225912D01*
X145843500Y-100499000D01*
X145030708Y-100499000D01*
X145030700Y-100486300D01*
X145030728Y-100273783D01*
X145030952Y-100027502D01*
X145031573Y-99823516D01*
X145032793Y-99656939D01*
X145034810Y-99522883D01*
X145037825Y-99416463D01*
X145042038Y-99332791D01*
X145047648Y-99266982D01*
X145054857Y-99214148D01*
X145063863Y-99169404D01*
X145074867Y-99127863D01*
X145088069Y-99084638D01*
X145141381Y-98945355D01*
X145240070Y-98778982D01*
X145370898Y-98641647D01*
X145537832Y-98530238D01*
X145744843Y-98441642D01*
X145995900Y-98372746D01*
X146002852Y-98371276D01*
X146043286Y-98364408D01*
X146095496Y-98358307D01*
X146162736Y-98352903D01*
X146248257Y-98348127D01*
X146355311Y-98343910D01*
X146487149Y-98340181D01*
X146647024Y-98336873D01*
X146838188Y-98333915D01*
X147063892Y-98331237D01*
X147327388Y-98328772D01*
X147631929Y-98326449D01*
X147980766Y-98324199D01*
X148377150Y-98321952D01*
X150580600Y-98310089D01*
X150580600Y-102660322D01*
X148351750Y-102651201D01*
X148112729Y-102650201D01*
X147750009Y-102648552D01*
X147432687Y-102646876D01*
X147157377Y-102645098D01*
X146920693Y-102643141D01*
X146719250Y-102640930D01*
X146549662Y-102638389D01*
X146408543Y-102635442D01*
X146292507Y-102632014D01*
X146198170Y-102628028D01*
X146122144Y-102623410D01*
X146061045Y-102618082D01*
X146011487Y-102611971D01*
X145970085Y-102604999D01*
X145933452Y-102597091D01*
X145866080Y-102580036D01*
X145843500Y-102572298D01*
X145625291Y-102497528D01*
X145428836Y-102391530D01*
G36*
X146671665Y-91837176D02*
G01*
X146395336Y-91244778D01*
X146162505Y-90630416D01*
X145975185Y-89996100D01*
X145882534Y-89600126D01*
X145800392Y-89154473D01*
X145744045Y-88710041D01*
X145711530Y-88250845D01*
X145706404Y-88014900D01*
X147033403Y-88014900D01*
X147060145Y-88455979D01*
X147132868Y-89037367D01*
X147248939Y-89600356D01*
X147410068Y-90151513D01*
X147617964Y-90697404D01*
X147874338Y-91244595D01*
X148048285Y-91568120D01*
X148292920Y-91969406D01*
X148559662Y-92346474D01*
X148857496Y-92711792D01*
X149195405Y-93077825D01*
X149282844Y-93166240D01*
X149746312Y-93592956D01*
X150235702Y-93976154D01*
X150749900Y-94315271D01*
X151287791Y-94609745D01*
X151848261Y-94859013D01*
X152430195Y-95062511D01*
X153032480Y-95219677D01*
X153654000Y-95329948D01*
X153738903Y-95339396D01*
X153877052Y-95350311D01*
X154044247Y-95360316D01*
X154230519Y-95369097D01*
X154425904Y-95376339D01*
X154620435Y-95381727D01*
X154804147Y-95384947D01*
X154967072Y-95385685D01*
X155099245Y-95383625D01*
X155190700Y-95378454D01*
X155247615Y-95372646D01*
X155559216Y-95337728D01*
X155833714Y-95300571D01*
X156082833Y-95259046D01*
X156318296Y-95211023D01*
X156551826Y-95154373D01*
X156795147Y-95086965D01*
X157362309Y-94897258D01*
X157928350Y-94655827D01*
X158471300Y-94369402D01*
X158989934Y-94038696D01*
X159483028Y-93664424D01*
X159949357Y-93247300D01*
X160302291Y-92886301D01*
X160646963Y-92485786D01*
X160954663Y-92070600D01*
X161232543Y-91631029D01*
X161487753Y-91157358D01*
X161606148Y-90909706D01*
X161835188Y-90353307D01*
X162016138Y-89788922D01*
X162150147Y-89211987D01*
X162238365Y-88617935D01*
X162281941Y-88002200D01*
X162286376Y-87701788D01*
X162258723Y-87090250D01*
X162182809Y-86488534D01*
X162060085Y-85899061D01*
X161892001Y-85324252D01*
X161680007Y-84766527D01*
X161425556Y-84228308D01*
X161130096Y-83712016D01*
X160795078Y-83220071D01*
X160421954Y-82754894D01*
X160012174Y-82318906D01*
X159567188Y-81914528D01*
X159088446Y-81544182D01*
X158577400Y-81210287D01*
X158035500Y-80915265D01*
X157525296Y-80684305D01*
X156961238Y-80477405D01*
X156387462Y-80317601D01*
X155797933Y-80202974D01*
X155723922Y-80192379D01*
X155481589Y-80166326D01*
X155207226Y-80147197D01*
X154914457Y-80135257D01*
X154616907Y-80130771D01*
X154328198Y-80134006D01*
X154061955Y-80145226D01*
X153831800Y-80164696D01*
X153312876Y-80239114D01*
X152796075Y-80348359D01*
X152297347Y-80492855D01*
X151804290Y-80676221D01*
X151304500Y-80902076D01*
X151011080Y-81053528D01*
X150482847Y-81368560D01*
X149986482Y-81721097D01*
X149523407Y-82108770D01*
X149095043Y-82529212D01*
X148702814Y-82980053D01*
X148348141Y-83458926D01*
X148032445Y-83963464D01*
X147757150Y-84491297D01*
X147523676Y-85040058D01*
X147333446Y-85607379D01*
X147187881Y-86190892D01*
X147088405Y-86788228D01*
X147036438Y-87397020D01*
X147033403Y-88014900D01*
X145706404Y-88014900D01*
X145700885Y-87760900D01*
X145701934Y-87554388D01*
X145708580Y-87276812D01*
X145722404Y-87023812D01*
X145744629Y-86779812D01*
X145776480Y-86529238D01*
X145819182Y-86256513D01*
X145863318Y-86014280D01*
X146014855Y-85370763D01*
X146211818Y-84745944D01*
X146452309Y-84141687D01*
X146734430Y-83559854D01*
X147056284Y-83002310D01*
X147415972Y-82470919D01*
X147811596Y-81967544D01*
X148241258Y-81494049D01*
X148703060Y-81052297D01*
X149195104Y-80644153D01*
X149715492Y-80271480D01*
X150262326Y-79936142D01*
X150833708Y-79640002D01*
X151427740Y-79384924D01*
X152042523Y-79172772D01*
X152676161Y-79005410D01*
X153326754Y-78884701D01*
X153449688Y-78867475D01*
X154119239Y-78802991D01*
X154783215Y-78787810D01*
X155439506Y-78820743D01*
X156085999Y-78900604D01*
X156720583Y-79026204D01*
X157341144Y-79196358D01*
X157945571Y-79409876D01*
X158531753Y-79665573D01*
X159097576Y-79962260D01*
X159640930Y-80298750D01*
X160159701Y-80673856D01*
X160651779Y-81086391D01*
X161115050Y-81535166D01*
X161547404Y-82018995D01*
X161946727Y-82536690D01*
X162310909Y-83087064D01*
X162637836Y-83668930D01*
X162925398Y-84281100D01*
X162957077Y-84357539D01*
X163040127Y-84574460D01*
X163126081Y-84819202D01*
X163210199Y-85076932D01*
X163287741Y-85332814D01*
X163353970Y-85572015D01*
X163404147Y-85779700D01*
X163494503Y-86255038D01*
X163579089Y-86918576D01*
X163616550Y-87583740D01*
X163606830Y-88245522D01*
X163549875Y-88898912D01*
X163445628Y-89538900D01*
X163337030Y-90009535D01*
X163146627Y-90645468D01*
X162911418Y-91261089D01*
X162633199Y-91854423D01*
X162313767Y-92423496D01*
X161954919Y-92966335D01*
X161558453Y-93480965D01*
X161126165Y-93965414D01*
X160659853Y-94417708D01*
X160161313Y-94835872D01*
X159632343Y-95217933D01*
X159074740Y-95561918D01*
X158490300Y-95865852D01*
X157880821Y-96127762D01*
X157248100Y-96345674D01*
X156766066Y-96475525D01*
X156236470Y-96585655D01*
X155700555Y-96666031D01*
X155178295Y-96713107D01*
X154837074Y-96725508D01*
X154232370Y-96714660D01*
X153621070Y-96664057D01*
X153017203Y-96575049D01*
X152434800Y-96448989D01*
X152006021Y-96328319D01*
X151384166Y-96110351D01*
X150783651Y-95848283D01*
X150206489Y-95544127D01*
X149654696Y-95199895D01*
X149130286Y-94817599D01*
X148635272Y-94399252D01*
X148171670Y-93946866D01*
X147741494Y-93462453D01*
X147346758Y-92948025D01*
X147033403Y-92472285D01*
X146989477Y-92405596D01*
X146671665Y-91837176D01*
G37*
X146671665Y-91837176D02*
X146395336Y-91244778D01*
X146162505Y-90630416D01*
X145975185Y-89996100D01*
X145882534Y-89600126D01*
X145800392Y-89154473D01*
X145744045Y-88710041D01*
X145711530Y-88250845D01*
X145706404Y-88014900D01*
X147033403Y-88014900D01*
X147060145Y-88455979D01*
X147132868Y-89037367D01*
X147248939Y-89600356D01*
X147410068Y-90151513D01*
X147617964Y-90697404D01*
X147874338Y-91244595D01*
X148048285Y-91568120D01*
X148292920Y-91969406D01*
X148559662Y-92346474D01*
X148857496Y-92711792D01*
X149195405Y-93077825D01*
X149282844Y-93166240D01*
X149746312Y-93592956D01*
X150235702Y-93976154D01*
X150749900Y-94315271D01*
X151287791Y-94609745D01*
X151848261Y-94859013D01*
X152430195Y-95062511D01*
X153032480Y-95219677D01*
X153654000Y-95329948D01*
X153738903Y-95339396D01*
X153877052Y-95350311D01*
X154044247Y-95360316D01*
X154230519Y-95369097D01*
X154425904Y-95376339D01*
X154620435Y-95381727D01*
X154804147Y-95384947D01*
X154967072Y-95385685D01*
X155099245Y-95383625D01*
X155190700Y-95378454D01*
X155247615Y-95372646D01*
X155559216Y-95337728D01*
X155833714Y-95300571D01*
X156082833Y-95259046D01*
X156318296Y-95211023D01*
X156551826Y-95154373D01*
X156795147Y-95086965D01*
X157362309Y-94897258D01*
X157928350Y-94655827D01*
X158471300Y-94369402D01*
X158989934Y-94038696D01*
X159483028Y-93664424D01*
X159949357Y-93247300D01*
X160302291Y-92886301D01*
X160646963Y-92485786D01*
X160954663Y-92070600D01*
X161232543Y-91631029D01*
X161487753Y-91157358D01*
X161606148Y-90909706D01*
X161835188Y-90353307D01*
X162016138Y-89788922D01*
X162150147Y-89211987D01*
X162238365Y-88617935D01*
X162281941Y-88002200D01*
X162286376Y-87701788D01*
X162258723Y-87090250D01*
X162182809Y-86488534D01*
X162060085Y-85899061D01*
X161892001Y-85324252D01*
X161680007Y-84766527D01*
X161425556Y-84228308D01*
X161130096Y-83712016D01*
X160795078Y-83220071D01*
X160421954Y-82754894D01*
X160012174Y-82318906D01*
X159567188Y-81914528D01*
X159088446Y-81544182D01*
X158577400Y-81210287D01*
X158035500Y-80915265D01*
X157525296Y-80684305D01*
X156961238Y-80477405D01*
X156387462Y-80317601D01*
X155797933Y-80202974D01*
X155723922Y-80192379D01*
X155481589Y-80166326D01*
X155207226Y-80147197D01*
X154914457Y-80135257D01*
X154616907Y-80130771D01*
X154328198Y-80134006D01*
X154061955Y-80145226D01*
X153831800Y-80164696D01*
X153312876Y-80239114D01*
X152796075Y-80348359D01*
X152297347Y-80492855D01*
X151804290Y-80676221D01*
X151304500Y-80902076D01*
X151011080Y-81053528D01*
X150482847Y-81368560D01*
X149986482Y-81721097D01*
X149523407Y-82108770D01*
X149095043Y-82529212D01*
X148702814Y-82980053D01*
X148348141Y-83458926D01*
X148032445Y-83963464D01*
X147757150Y-84491297D01*
X147523676Y-85040058D01*
X147333446Y-85607379D01*
X147187881Y-86190892D01*
X147088405Y-86788228D01*
X147036438Y-87397020D01*
X147033403Y-88014900D01*
X145706404Y-88014900D01*
X145700885Y-87760900D01*
X145701934Y-87554388D01*
X145708580Y-87276812D01*
X145722404Y-87023812D01*
X145744629Y-86779812D01*
X145776480Y-86529238D01*
X145819182Y-86256513D01*
X145863318Y-86014280D01*
X146014855Y-85370763D01*
X146211818Y-84745944D01*
X146452309Y-84141687D01*
X146734430Y-83559854D01*
X147056284Y-83002310D01*
X147415972Y-82470919D01*
X147811596Y-81967544D01*
X148241258Y-81494049D01*
X148703060Y-81052297D01*
X149195104Y-80644153D01*
X149715492Y-80271480D01*
X150262326Y-79936142D01*
X150833708Y-79640002D01*
X151427740Y-79384924D01*
X152042523Y-79172772D01*
X152676161Y-79005410D01*
X153326754Y-78884701D01*
X153449688Y-78867475D01*
X154119239Y-78802991D01*
X154783215Y-78787810D01*
X155439506Y-78820743D01*
X156085999Y-78900604D01*
X156720583Y-79026204D01*
X157341144Y-79196358D01*
X157945571Y-79409876D01*
X158531753Y-79665573D01*
X159097576Y-79962260D01*
X159640930Y-80298750D01*
X160159701Y-80673856D01*
X160651779Y-81086391D01*
X161115050Y-81535166D01*
X161547404Y-82018995D01*
X161946727Y-82536690D01*
X162310909Y-83087064D01*
X162637836Y-83668930D01*
X162925398Y-84281100D01*
X162957077Y-84357539D01*
X163040127Y-84574460D01*
X163126081Y-84819202D01*
X163210199Y-85076932D01*
X163287741Y-85332814D01*
X163353970Y-85572015D01*
X163404147Y-85779700D01*
X163494503Y-86255038D01*
X163579089Y-86918576D01*
X163616550Y-87583740D01*
X163606830Y-88245522D01*
X163549875Y-88898912D01*
X163445628Y-89538900D01*
X163337030Y-90009535D01*
X163146627Y-90645468D01*
X162911418Y-91261089D01*
X162633199Y-91854423D01*
X162313767Y-92423496D01*
X161954919Y-92966335D01*
X161558453Y-93480965D01*
X161126165Y-93965414D01*
X160659853Y-94417708D01*
X160161313Y-94835872D01*
X159632343Y-95217933D01*
X159074740Y-95561918D01*
X158490300Y-95865852D01*
X157880821Y-96127762D01*
X157248100Y-96345674D01*
X156766066Y-96475525D01*
X156236470Y-96585655D01*
X155700555Y-96666031D01*
X155178295Y-96713107D01*
X154837074Y-96725508D01*
X154232370Y-96714660D01*
X153621070Y-96664057D01*
X153017203Y-96575049D01*
X152434800Y-96448989D01*
X152006021Y-96328319D01*
X151384166Y-96110351D01*
X150783651Y-95848283D01*
X150206489Y-95544127D01*
X149654696Y-95199895D01*
X149130286Y-94817599D01*
X148635272Y-94399252D01*
X148171670Y-93946866D01*
X147741494Y-93462453D01*
X147346758Y-92948025D01*
X147033403Y-92472285D01*
X146989477Y-92405596D01*
X146671665Y-91837176D01*
G36*
X152144299Y-102597276D02*
G01*
X152119689Y-102589750D01*
X151887285Y-102496353D01*
X151694767Y-102374946D01*
X151543684Y-102226718D01*
X151435587Y-102052862D01*
X151425508Y-102030415D01*
X151415339Y-102003803D01*
X151406838Y-101972918D01*
X151399856Y-101933529D01*
X151394243Y-101881406D01*
X151389849Y-101812320D01*
X151386526Y-101722041D01*
X151384123Y-101606341D01*
X151382493Y-101460988D01*
X151381485Y-101281754D01*
X151380990Y-101081215D01*
X152183535Y-101081215D01*
X152183877Y-101281717D01*
X152185937Y-101445290D01*
X152190221Y-101576161D01*
X152197237Y-101678555D01*
X152207493Y-101756698D01*
X152221495Y-101814814D01*
X152239752Y-101857130D01*
X152262771Y-101887872D01*
X152291059Y-101911263D01*
X152325124Y-101931531D01*
X152365474Y-101952900D01*
X152472900Y-102010300D01*
X154085800Y-102015390D01*
X154366289Y-102016202D01*
X154672792Y-102016754D01*
X154935281Y-102016593D01*
X155157522Y-102015505D01*
X155343278Y-102013275D01*
X155496313Y-102009686D01*
X155620391Y-102004524D01*
X155719276Y-101997575D01*
X155796732Y-101988622D01*
X155856524Y-101977450D01*
X155902415Y-101963844D01*
X155938168Y-101947589D01*
X155967549Y-101928470D01*
X155994322Y-101906272D01*
X156000800Y-101900469D01*
X156027217Y-101874990D01*
X156049326Y-101847382D01*
X156067511Y-101813220D01*
X156082153Y-101768078D01*
X156093637Y-101707534D01*
X156102345Y-101627162D01*
X156108660Y-101522537D01*
X156112966Y-101389235D01*
X156115647Y-101222831D01*
X156117084Y-101018902D01*
X156117661Y-100773021D01*
X156117761Y-100480765D01*
X156117753Y-100195588D01*
X156117362Y-99944939D01*
X156115987Y-99736620D01*
X156113026Y-99566317D01*
X156107875Y-99429713D01*
X156099932Y-99322492D01*
X156088595Y-99240338D01*
X156073262Y-99178937D01*
X156053331Y-99133971D01*
X156028198Y-99101125D01*
X155997261Y-99076083D01*
X155959919Y-99054530D01*
X155915569Y-99032150D01*
X155802237Y-98975000D01*
X154165915Y-98975000D01*
X153893368Y-98975176D01*
X153556717Y-98976023D01*
X153267729Y-98977598D01*
X153024581Y-98979931D01*
X152825451Y-98983054D01*
X152668516Y-98986995D01*
X152551954Y-98991787D01*
X152473943Y-98997459D01*
X152432660Y-99004042D01*
X152423972Y-99006844D01*
X152338467Y-99049364D01*
X152264613Y-99107293D01*
X152193500Y-99181502D01*
X152186471Y-100462499D01*
X152185970Y-100552527D01*
X152184402Y-100839561D01*
X152183535Y-101081215D01*
X151380990Y-101081215D01*
X151380949Y-101064408D01*
X151380738Y-100804722D01*
X151380700Y-100498465D01*
X151380700Y-99062831D01*
X151464317Y-98892982D01*
X151508752Y-98812655D01*
X151629074Y-98660457D01*
X151784485Y-98537647D01*
X151978567Y-98441727D01*
X152214903Y-98370204D01*
X152230986Y-98366629D01*
X152273901Y-98358724D01*
X152324961Y-98351952D01*
X152388042Y-98346227D01*
X152467023Y-98341462D01*
X152565782Y-98337572D01*
X152688197Y-98334470D01*
X152838144Y-98332071D01*
X153019503Y-98330289D01*
X153236150Y-98329038D01*
X153491963Y-98328232D01*
X153790821Y-98327785D01*
X154136600Y-98327611D01*
X154429097Y-98327622D01*
X154733061Y-98327860D01*
X154993473Y-98328428D01*
X155214270Y-98329418D01*
X155399386Y-98330920D01*
X155552758Y-98333025D01*
X155678320Y-98335825D01*
X155780009Y-98339411D01*
X155861760Y-98343874D01*
X155927510Y-98349304D01*
X155981192Y-98355794D01*
X156026743Y-98363433D01*
X156068100Y-98372314D01*
X156200411Y-98407767D01*
X156395964Y-98483011D01*
X156557295Y-98580118D01*
X156693637Y-98703984D01*
X156736869Y-98751205D01*
X156776595Y-98796725D01*
X156810042Y-98841235D01*
X156837752Y-98889052D01*
X156860262Y-98944496D01*
X156878113Y-99011882D01*
X156891843Y-99095528D01*
X156901993Y-99199751D01*
X156909101Y-99328870D01*
X156913707Y-99487201D01*
X156916351Y-99679062D01*
X156917571Y-99908771D01*
X156917908Y-100180644D01*
X156917900Y-100499000D01*
X156917888Y-100707821D01*
X156917748Y-100976131D01*
X156917319Y-101200989D01*
X156916436Y-101386773D01*
X156914938Y-101537862D01*
X156912661Y-101658634D01*
X156909444Y-101753469D01*
X156905123Y-101826745D01*
X156899535Y-101882841D01*
X156892518Y-101926135D01*
X156883910Y-101961007D01*
X156873547Y-101991836D01*
X156861266Y-102023000D01*
X156859504Y-102027317D01*
X156757733Y-102210467D01*
X156615924Y-102362457D01*
X156434241Y-102483176D01*
X156212851Y-102572514D01*
X155951919Y-102630359D01*
X155929523Y-102632500D01*
X155852344Y-102636070D01*
X155731503Y-102639265D01*
X155571578Y-102642044D01*
X155377148Y-102644365D01*
X155152792Y-102646187D01*
X154903090Y-102647468D01*
X154632622Y-102648167D01*
X154345965Y-102648241D01*
X154047700Y-102647650D01*
X153720066Y-102646557D01*
X153420397Y-102645320D01*
X153164081Y-102643899D01*
X152947295Y-102642192D01*
X152766216Y-102640099D01*
X152617021Y-102637517D01*
X152495888Y-102634345D01*
X152398993Y-102630483D01*
X152322514Y-102625830D01*
X152262628Y-102620284D01*
X152215512Y-102613743D01*
X152183535Y-102607346D01*
X152177343Y-102606108D01*
X152144299Y-102597276D01*
G37*
X152144299Y-102597276D02*
X152119689Y-102589750D01*
X151887285Y-102496353D01*
X151694767Y-102374946D01*
X151543684Y-102226718D01*
X151435587Y-102052862D01*
X151425508Y-102030415D01*
X151415339Y-102003803D01*
X151406838Y-101972918D01*
X151399856Y-101933529D01*
X151394243Y-101881406D01*
X151389849Y-101812320D01*
X151386526Y-101722041D01*
X151384123Y-101606341D01*
X151382493Y-101460988D01*
X151381485Y-101281754D01*
X151380990Y-101081215D01*
X152183535Y-101081215D01*
X152183877Y-101281717D01*
X152185937Y-101445290D01*
X152190221Y-101576161D01*
X152197237Y-101678555D01*
X152207493Y-101756698D01*
X152221495Y-101814814D01*
X152239752Y-101857130D01*
X152262771Y-101887872D01*
X152291059Y-101911263D01*
X152325124Y-101931531D01*
X152365474Y-101952900D01*
X152472900Y-102010300D01*
X154085800Y-102015390D01*
X154366289Y-102016202D01*
X154672792Y-102016754D01*
X154935281Y-102016593D01*
X155157522Y-102015505D01*
X155343278Y-102013275D01*
X155496313Y-102009686D01*
X155620391Y-102004524D01*
X155719276Y-101997575D01*
X155796732Y-101988622D01*
X155856524Y-101977450D01*
X155902415Y-101963844D01*
X155938168Y-101947589D01*
X155967549Y-101928470D01*
X155994322Y-101906272D01*
X156000800Y-101900469D01*
X156027217Y-101874990D01*
X156049326Y-101847382D01*
X156067511Y-101813220D01*
X156082153Y-101768078D01*
X156093637Y-101707534D01*
X156102345Y-101627162D01*
X156108660Y-101522537D01*
X156112966Y-101389235D01*
X156115647Y-101222831D01*
X156117084Y-101018902D01*
X156117661Y-100773021D01*
X156117761Y-100480765D01*
X156117753Y-100195588D01*
X156117362Y-99944939D01*
X156115987Y-99736620D01*
X156113026Y-99566317D01*
X156107875Y-99429713D01*
X156099932Y-99322492D01*
X156088595Y-99240338D01*
X156073262Y-99178937D01*
X156053331Y-99133971D01*
X156028198Y-99101125D01*
X155997261Y-99076083D01*
X155959919Y-99054530D01*
X155915569Y-99032150D01*
X155802237Y-98975000D01*
X154165915Y-98975000D01*
X153893368Y-98975176D01*
X153556717Y-98976023D01*
X153267729Y-98977598D01*
X153024581Y-98979931D01*
X152825451Y-98983054D01*
X152668516Y-98986995D01*
X152551954Y-98991787D01*
X152473943Y-98997459D01*
X152432660Y-99004042D01*
X152423972Y-99006844D01*
X152338467Y-99049364D01*
X152264613Y-99107293D01*
X152193500Y-99181502D01*
X152186471Y-100462499D01*
X152185970Y-100552527D01*
X152184402Y-100839561D01*
X152183535Y-101081215D01*
X151380990Y-101081215D01*
X151380949Y-101064408D01*
X151380738Y-100804722D01*
X151380700Y-100498465D01*
X151380700Y-99062831D01*
X151464317Y-98892982D01*
X151508752Y-98812655D01*
X151629074Y-98660457D01*
X151784485Y-98537647D01*
X151978567Y-98441727D01*
X152214903Y-98370204D01*
X152230986Y-98366629D01*
X152273901Y-98358724D01*
X152324961Y-98351952D01*
X152388042Y-98346227D01*
X152467023Y-98341462D01*
X152565782Y-98337572D01*
X152688197Y-98334470D01*
X152838144Y-98332071D01*
X153019503Y-98330289D01*
X153236150Y-98329038D01*
X153491963Y-98328232D01*
X153790821Y-98327785D01*
X154136600Y-98327611D01*
X154429097Y-98327622D01*
X154733061Y-98327860D01*
X154993473Y-98328428D01*
X155214270Y-98329418D01*
X155399386Y-98330920D01*
X155552758Y-98333025D01*
X155678320Y-98335825D01*
X155780009Y-98339411D01*
X155861760Y-98343874D01*
X155927510Y-98349304D01*
X155981192Y-98355794D01*
X156026743Y-98363433D01*
X156068100Y-98372314D01*
X156200411Y-98407767D01*
X156395964Y-98483011D01*
X156557295Y-98580118D01*
X156693637Y-98703984D01*
X156736869Y-98751205D01*
X156776595Y-98796725D01*
X156810042Y-98841235D01*
X156837752Y-98889052D01*
X156860262Y-98944496D01*
X156878113Y-99011882D01*
X156891843Y-99095528D01*
X156901993Y-99199751D01*
X156909101Y-99328870D01*
X156913707Y-99487201D01*
X156916351Y-99679062D01*
X156917571Y-99908771D01*
X156917908Y-100180644D01*
X156917900Y-100499000D01*
X156917888Y-100707821D01*
X156917748Y-100976131D01*
X156917319Y-101200989D01*
X156916436Y-101386773D01*
X156914938Y-101537862D01*
X156912661Y-101658634D01*
X156909444Y-101753469D01*
X156905123Y-101826745D01*
X156899535Y-101882841D01*
X156892518Y-101926135D01*
X156883910Y-101961007D01*
X156873547Y-101991836D01*
X156861266Y-102023000D01*
X156859504Y-102027317D01*
X156757733Y-102210467D01*
X156615924Y-102362457D01*
X156434241Y-102483176D01*
X156212851Y-102572514D01*
X155951919Y-102630359D01*
X155929523Y-102632500D01*
X155852344Y-102636070D01*
X155731503Y-102639265D01*
X155571578Y-102642044D01*
X155377148Y-102644365D01*
X155152792Y-102646187D01*
X154903090Y-102647468D01*
X154632622Y-102648167D01*
X154345965Y-102648241D01*
X154047700Y-102647650D01*
X153720066Y-102646557D01*
X153420397Y-102645320D01*
X153164081Y-102643899D01*
X152947295Y-102642192D01*
X152766216Y-102640099D01*
X152617021Y-102637517D01*
X152495888Y-102634345D01*
X152398993Y-102630483D01*
X152322514Y-102625830D01*
X152262628Y-102620284D01*
X152215512Y-102613743D01*
X152183535Y-102607346D01*
X152177343Y-102606108D01*
X152144299Y-102597276D01*
G36*
X158838681Y-98929868D02*
G01*
X159112075Y-99308113D01*
X159388964Y-99691049D01*
X159638532Y-100036019D01*
X159862025Y-100344734D01*
X160060694Y-100618905D01*
X160235786Y-100860243D01*
X160388550Y-101070462D01*
X160520234Y-101251272D01*
X160632088Y-101404385D01*
X160725360Y-101531512D01*
X160801297Y-101634366D01*
X160861150Y-101714658D01*
X160906166Y-101774099D01*
X160937593Y-101814402D01*
X160956681Y-101837278D01*
X160964678Y-101844438D01*
X160975101Y-101832714D01*
X161013410Y-101783270D01*
X161077653Y-101697907D01*
X161165639Y-101579602D01*
X161275182Y-101431332D01*
X161404091Y-101256074D01*
X161550180Y-101056804D01*
X161711258Y-100836498D01*
X161885139Y-100598135D01*
X162069632Y-100344689D01*
X162262551Y-100079138D01*
X163543201Y-98314600D01*
X164296600Y-98314600D01*
X164296600Y-102658000D01*
X163535003Y-102658000D01*
X163528452Y-101154331D01*
X163521900Y-99650662D01*
X161337500Y-102655282D01*
X160666900Y-102658000D01*
X160493491Y-102423050D01*
X160449074Y-102362520D01*
X160376983Y-102263796D01*
X160281395Y-102132601D01*
X160165512Y-101973339D01*
X160032533Y-101790414D01*
X159885660Y-101588228D01*
X159728095Y-101371186D01*
X159563038Y-101143691D01*
X159393691Y-100910146D01*
X158467300Y-99632193D01*
X158460751Y-101145096D01*
X158454201Y-102658000D01*
X157692315Y-102658000D01*
X157698808Y-100492650D01*
X157705300Y-98327300D01*
X158049173Y-98320268D01*
X158393045Y-98313236D01*
X158838681Y-98929868D01*
G37*
X158838681Y-98929868D02*
X159112075Y-99308113D01*
X159388964Y-99691049D01*
X159638532Y-100036019D01*
X159862025Y-100344734D01*
X160060694Y-100618905D01*
X160235786Y-100860243D01*
X160388550Y-101070462D01*
X160520234Y-101251272D01*
X160632088Y-101404385D01*
X160725360Y-101531512D01*
X160801297Y-101634366D01*
X160861150Y-101714658D01*
X160906166Y-101774099D01*
X160937593Y-101814402D01*
X160956681Y-101837278D01*
X160964678Y-101844438D01*
X160975101Y-101832714D01*
X161013410Y-101783270D01*
X161077653Y-101697907D01*
X161165639Y-101579602D01*
X161275182Y-101431332D01*
X161404091Y-101256074D01*
X161550180Y-101056804D01*
X161711258Y-100836498D01*
X161885139Y-100598135D01*
X162069632Y-100344689D01*
X162262551Y-100079138D01*
X163543201Y-98314600D01*
X164296600Y-98314600D01*
X164296600Y-102658000D01*
X163535003Y-102658000D01*
X163528452Y-101154331D01*
X163521900Y-99650662D01*
X161337500Y-102655282D01*
X160666900Y-102658000D01*
X160493491Y-102423050D01*
X160449074Y-102362520D01*
X160376983Y-102263796D01*
X160281395Y-102132601D01*
X160165512Y-101973339D01*
X160032533Y-101790414D01*
X159885660Y-101588228D01*
X159728095Y-101371186D01*
X159563038Y-101143691D01*
X159393691Y-100910146D01*
X158467300Y-99632193D01*
X158460751Y-101145096D01*
X158454201Y-102658000D01*
X157692315Y-102658000D01*
X157698808Y-100492650D01*
X157705300Y-98327300D01*
X158049173Y-98320268D01*
X158393045Y-98313236D01*
X158838681Y-98929868D01*
G36*
X155423889Y-88642962D02*
G01*
X155499563Y-88644640D01*
X155638964Y-88650488D01*
X155741508Y-88661764D01*
X155816865Y-88681647D01*
X155874708Y-88713320D01*
X155924706Y-88759964D01*
X155976531Y-88824760D01*
X155978927Y-88827997D01*
X155990159Y-88845075D01*
X155999608Y-88865876D01*
X156007457Y-88894680D01*
X156013890Y-88935767D01*
X156019090Y-88993416D01*
X156023241Y-89071906D01*
X156026526Y-89175519D01*
X156029130Y-89308532D01*
X156031235Y-89475226D01*
X156033025Y-89679881D01*
X156034684Y-89926776D01*
X156036396Y-90220191D01*
X156036857Y-90307639D01*
X156037815Y-90561094D01*
X156038166Y-90799470D01*
X156037938Y-91017663D01*
X156037157Y-91210571D01*
X156035849Y-91373092D01*
X156034042Y-91500122D01*
X156031761Y-91586560D01*
X156029035Y-91627302D01*
X156021675Y-91656307D01*
X155971443Y-91754222D01*
X155892923Y-91842859D01*
X155801560Y-91903472D01*
X155788987Y-91908169D01*
X155705075Y-91924294D01*
X155572816Y-91934214D01*
X155393900Y-91937787D01*
X155325858Y-91937764D01*
X155205702Y-91936127D01*
X155120468Y-91931128D01*
X155059201Y-91921335D01*
X155010945Y-91905314D01*
X154964745Y-91881632D01*
X154936562Y-91865636D01*
X154900217Y-91843834D01*
X154869639Y-91820495D01*
X154844331Y-91791513D01*
X154823795Y-91752783D01*
X154807533Y-91700199D01*
X154795047Y-91629658D01*
X154785841Y-91537052D01*
X154779417Y-91418279D01*
X154775276Y-91269231D01*
X154772921Y-91085804D01*
X154771856Y-90863894D01*
X154771581Y-90599394D01*
X154771600Y-90288199D01*
X154771579Y-90070876D01*
X154771702Y-89792071D01*
X154772455Y-89557151D01*
X154774336Y-89362006D01*
X154777843Y-89202526D01*
X154783474Y-89074598D01*
X154791727Y-88974113D01*
X154803100Y-88896958D01*
X154818091Y-88839023D01*
X154837198Y-88796197D01*
X154860919Y-88764369D01*
X154889752Y-88739428D01*
X154924194Y-88717263D01*
X154964745Y-88693762D01*
X155007234Y-88670984D01*
X155049992Y-88655311D01*
X155102874Y-88645796D01*
X155176043Y-88641316D01*
X155279661Y-88640746D01*
X155423889Y-88642962D01*
G37*
X155423889Y-88642962D02*
X155499563Y-88644640D01*
X155638964Y-88650488D01*
X155741508Y-88661764D01*
X155816865Y-88681647D01*
X155874708Y-88713320D01*
X155924706Y-88759964D01*
X155976531Y-88824760D01*
X155978927Y-88827997D01*
X155990159Y-88845075D01*
X155999608Y-88865876D01*
X156007457Y-88894680D01*
X156013890Y-88935767D01*
X156019090Y-88993416D01*
X156023241Y-89071906D01*
X156026526Y-89175519D01*
X156029130Y-89308532D01*
X156031235Y-89475226D01*
X156033025Y-89679881D01*
X156034684Y-89926776D01*
X156036396Y-90220191D01*
X156036857Y-90307639D01*
X156037815Y-90561094D01*
X156038166Y-90799470D01*
X156037938Y-91017663D01*
X156037157Y-91210571D01*
X156035849Y-91373092D01*
X156034042Y-91500122D01*
X156031761Y-91586560D01*
X156029035Y-91627302D01*
X156021675Y-91656307D01*
X155971443Y-91754222D01*
X155892923Y-91842859D01*
X155801560Y-91903472D01*
X155788987Y-91908169D01*
X155705075Y-91924294D01*
X155572816Y-91934214D01*
X155393900Y-91937787D01*
X155325858Y-91937764D01*
X155205702Y-91936127D01*
X155120468Y-91931128D01*
X155059201Y-91921335D01*
X155010945Y-91905314D01*
X154964745Y-91881632D01*
X154936562Y-91865636D01*
X154900217Y-91843834D01*
X154869639Y-91820495D01*
X154844331Y-91791513D01*
X154823795Y-91752783D01*
X154807533Y-91700199D01*
X154795047Y-91629658D01*
X154785841Y-91537052D01*
X154779417Y-91418279D01*
X154775276Y-91269231D01*
X154772921Y-91085804D01*
X154771856Y-90863894D01*
X154771581Y-90599394D01*
X154771600Y-90288199D01*
X154771579Y-90070876D01*
X154771702Y-89792071D01*
X154772455Y-89557151D01*
X154774336Y-89362006D01*
X154777843Y-89202526D01*
X154783474Y-89074598D01*
X154791727Y-88974113D01*
X154803100Y-88896958D01*
X154818091Y-88839023D01*
X154837198Y-88796197D01*
X154860919Y-88764369D01*
X154889752Y-88739428D01*
X154924194Y-88717263D01*
X154964745Y-88693762D01*
X155007234Y-88670984D01*
X155049992Y-88655311D01*
X155102874Y-88645796D01*
X155176043Y-88641316D01*
X155279661Y-88640746D01*
X155423889Y-88642962D01*
G36*
X151896428Y-86339617D02*
G01*
X151763609Y-86190510D01*
X151734648Y-86148474D01*
X151702265Y-86099556D01*
X151674926Y-86052365D01*
X151652175Y-86002525D01*
X151633558Y-85945657D01*
X151618619Y-85877384D01*
X151606904Y-85793331D01*
X151597955Y-85689119D01*
X151591320Y-85560371D01*
X151586541Y-85402711D01*
X151583164Y-85211760D01*
X151580733Y-84983143D01*
X151578794Y-84712482D01*
X151577325Y-84467761D01*
X152155495Y-84467761D01*
X152155503Y-84469819D01*
X152177164Y-84569244D01*
X152231641Y-84664734D01*
X152305780Y-84733066D01*
X152388033Y-84766684D01*
X152499162Y-84771257D01*
X152602215Y-84733887D01*
X152686576Y-84659009D01*
X152741626Y-84551057D01*
X152748496Y-84522137D01*
X152746284Y-84410967D01*
X152704604Y-84308074D01*
X152629494Y-84230712D01*
X152597496Y-84214245D01*
X152501491Y-84191509D01*
X152397001Y-84191792D01*
X152310268Y-84216279D01*
X152281220Y-84236485D01*
X152220663Y-84305148D01*
X152174146Y-84389729D01*
X152155495Y-84467761D01*
X151577325Y-84467761D01*
X151576891Y-84395400D01*
X151576294Y-84288499D01*
X151575012Y-83933688D01*
X151575114Y-83628613D01*
X151576608Y-83372454D01*
X151579506Y-83164392D01*
X151583818Y-83003609D01*
X151589553Y-82889285D01*
X151596723Y-82820600D01*
X151619143Y-82715053D01*
X151695647Y-82507214D01*
X151810772Y-82331802D01*
X151966194Y-82186595D01*
X152163591Y-82069369D01*
X152238107Y-82034795D01*
X152311852Y-82003610D01*
X152384975Y-81977639D01*
X152462619Y-81956334D01*
X152549925Y-81939148D01*
X152652035Y-81925530D01*
X152774092Y-81914933D01*
X152921238Y-81906808D01*
X153098614Y-81900608D01*
X153311364Y-81895783D01*
X153564629Y-81891785D01*
X153863550Y-81888066D01*
X155025600Y-81874549D01*
X155025600Y-82601574D01*
X155025221Y-82801207D01*
X155023779Y-82980668D01*
X155021079Y-83117655D01*
X155016928Y-83216561D01*
X155011134Y-83281781D01*
X155003505Y-83317710D01*
X154993850Y-83328741D01*
X154930053Y-83336027D01*
X154808221Y-83380804D01*
X154689301Y-83458072D01*
X154586790Y-83558186D01*
X154514188Y-83671500D01*
X154513771Y-83672419D01*
X154500069Y-83707302D01*
X154489369Y-83748507D01*
X154481307Y-83802387D01*
X154475521Y-83875296D01*
X154471652Y-83973589D01*
X154469335Y-84103617D01*
X154468211Y-84271736D01*
X154467916Y-84484300D01*
X154467916Y-84490721D01*
X154468229Y-84701992D01*
X154469381Y-84868991D01*
X154471735Y-84998073D01*
X154475652Y-85095591D01*
X154481494Y-85167899D01*
X154489623Y-85221351D01*
X154500401Y-85262300D01*
X154514188Y-85297100D01*
X154566348Y-85383217D01*
X154656705Y-85483040D01*
X154761671Y-85564413D01*
X154865053Y-85612768D01*
X154870934Y-85614258D01*
X154941690Y-85624162D01*
X155050610Y-85631548D01*
X155186579Y-85636417D01*
X155338486Y-85638769D01*
X155495218Y-85638603D01*
X155645663Y-85635920D01*
X155778708Y-85630720D01*
X155883241Y-85623002D01*
X155948148Y-85612768D01*
X156033075Y-85575550D01*
X156138926Y-85498848D01*
X156232969Y-85401175D01*
X156299013Y-85297100D01*
X156299430Y-85296180D01*
X156313132Y-85261297D01*
X156323832Y-85220092D01*
X156331894Y-85166212D01*
X156337680Y-85093303D01*
X156341549Y-84995010D01*
X156343866Y-84864982D01*
X156344990Y-84696863D01*
X156345285Y-84484300D01*
X156345285Y-84477878D01*
X156344972Y-84266607D01*
X156343820Y-84099608D01*
X156341466Y-83970526D01*
X156337549Y-83873008D01*
X156331707Y-83800700D01*
X156323578Y-83747248D01*
X156312800Y-83706299D01*
X156299013Y-83671500D01*
X156263293Y-83607672D01*
X156172456Y-83500479D01*
X156059187Y-83411829D01*
X155936986Y-83351368D01*
X155819350Y-83328741D01*
X155810757Y-83320324D01*
X155802877Y-83287678D01*
X155796863Y-83226252D01*
X155792521Y-83131643D01*
X155789659Y-82999450D01*
X155788083Y-82825270D01*
X155787600Y-82604700D01*
X155787600Y-81880800D01*
X155971750Y-81881376D01*
X156002528Y-81881571D01*
X156225872Y-81888523D01*
X156445498Y-81904286D01*
X156649668Y-81927559D01*
X156826643Y-81957042D01*
X156964685Y-81991434D01*
X157018934Y-82009725D01*
X157241509Y-82111366D01*
X157426148Y-82242923D01*
X157570623Y-82402515D01*
X157672703Y-82588263D01*
X157675164Y-82594357D01*
X157686984Y-82624782D01*
X157697020Y-82655500D01*
X157705442Y-82690720D01*
X157712419Y-82734652D01*
X157718119Y-82791505D01*
X157722711Y-82865486D01*
X157726365Y-82960805D01*
X157729249Y-83081671D01*
X157731531Y-83232292D01*
X157733382Y-83416878D01*
X157734968Y-83639636D01*
X157736461Y-83904776D01*
X157738028Y-84216507D01*
X157738140Y-84239258D01*
X157739588Y-84564060D01*
X157740360Y-84842560D01*
X157740231Y-85078979D01*
X157738975Y-85277542D01*
X157736366Y-85442469D01*
X157732180Y-85577983D01*
X157726192Y-85688308D01*
X157718176Y-85777664D01*
X157707906Y-85850274D01*
X157695158Y-85910361D01*
X157679706Y-85962147D01*
X157661325Y-86009854D01*
X157639789Y-86057705D01*
X157552311Y-86200724D01*
X157411028Y-86349027D01*
X157232833Y-86474651D01*
X157024025Y-86573272D01*
X156790900Y-86640564D01*
X156756515Y-86646537D01*
X156702915Y-86652895D01*
X156632822Y-86658387D01*
X156542804Y-86663077D01*
X156429432Y-86667029D01*
X156289273Y-86670305D01*
X156118899Y-86672969D01*
X155914878Y-86675084D01*
X155673779Y-86676714D01*
X155392173Y-86677923D01*
X155066629Y-86678773D01*
X154693715Y-86679329D01*
X154413802Y-86679458D01*
X154033637Y-86678988D01*
X153695710Y-86677738D01*
X153401244Y-86675725D01*
X153151462Y-86672961D01*
X152947585Y-86669463D01*
X152790837Y-86665245D01*
X152682440Y-86660320D01*
X152623615Y-86654705D01*
X152537154Y-86637630D01*
X152286460Y-86564937D01*
X152155495Y-86503973D01*
X152071798Y-86465013D01*
X151896428Y-86339617D01*
G37*
X151896428Y-86339617D02*
X151763609Y-86190510D01*
X151734648Y-86148474D01*
X151702265Y-86099556D01*
X151674926Y-86052365D01*
X151652175Y-86002525D01*
X151633558Y-85945657D01*
X151618619Y-85877384D01*
X151606904Y-85793331D01*
X151597955Y-85689119D01*
X151591320Y-85560371D01*
X151586541Y-85402711D01*
X151583164Y-85211760D01*
X151580733Y-84983143D01*
X151578794Y-84712482D01*
X151577325Y-84467761D01*
X152155495Y-84467761D01*
X152155503Y-84469819D01*
X152177164Y-84569244D01*
X152231641Y-84664734D01*
X152305780Y-84733066D01*
X152388033Y-84766684D01*
X152499162Y-84771257D01*
X152602215Y-84733887D01*
X152686576Y-84659009D01*
X152741626Y-84551057D01*
X152748496Y-84522137D01*
X152746284Y-84410967D01*
X152704604Y-84308074D01*
X152629494Y-84230712D01*
X152597496Y-84214245D01*
X152501491Y-84191509D01*
X152397001Y-84191792D01*
X152310268Y-84216279D01*
X152281220Y-84236485D01*
X152220663Y-84305148D01*
X152174146Y-84389729D01*
X152155495Y-84467761D01*
X151577325Y-84467761D01*
X151576891Y-84395400D01*
X151576294Y-84288499D01*
X151575012Y-83933688D01*
X151575114Y-83628613D01*
X151576608Y-83372454D01*
X151579506Y-83164392D01*
X151583818Y-83003609D01*
X151589553Y-82889285D01*
X151596723Y-82820600D01*
X151619143Y-82715053D01*
X151695647Y-82507214D01*
X151810772Y-82331802D01*
X151966194Y-82186595D01*
X152163591Y-82069369D01*
X152238107Y-82034795D01*
X152311852Y-82003610D01*
X152384975Y-81977639D01*
X152462619Y-81956334D01*
X152549925Y-81939148D01*
X152652035Y-81925530D01*
X152774092Y-81914933D01*
X152921238Y-81906808D01*
X153098614Y-81900608D01*
X153311364Y-81895783D01*
X153564629Y-81891785D01*
X153863550Y-81888066D01*
X155025600Y-81874549D01*
X155025600Y-82601574D01*
X155025221Y-82801207D01*
X155023779Y-82980668D01*
X155021079Y-83117655D01*
X155016928Y-83216561D01*
X155011134Y-83281781D01*
X155003505Y-83317710D01*
X154993850Y-83328741D01*
X154930053Y-83336027D01*
X154808221Y-83380804D01*
X154689301Y-83458072D01*
X154586790Y-83558186D01*
X154514188Y-83671500D01*
X154513771Y-83672419D01*
X154500069Y-83707302D01*
X154489369Y-83748507D01*
X154481307Y-83802387D01*
X154475521Y-83875296D01*
X154471652Y-83973589D01*
X154469335Y-84103617D01*
X154468211Y-84271736D01*
X154467916Y-84484300D01*
X154467916Y-84490721D01*
X154468229Y-84701992D01*
X154469381Y-84868991D01*
X154471735Y-84998073D01*
X154475652Y-85095591D01*
X154481494Y-85167899D01*
X154489623Y-85221351D01*
X154500401Y-85262300D01*
X154514188Y-85297100D01*
X154566348Y-85383217D01*
X154656705Y-85483040D01*
X154761671Y-85564413D01*
X154865053Y-85612768D01*
X154870934Y-85614258D01*
X154941690Y-85624162D01*
X155050610Y-85631548D01*
X155186579Y-85636417D01*
X155338486Y-85638769D01*
X155495218Y-85638603D01*
X155645663Y-85635920D01*
X155778708Y-85630720D01*
X155883241Y-85623002D01*
X155948148Y-85612768D01*
X156033075Y-85575550D01*
X156138926Y-85498848D01*
X156232969Y-85401175D01*
X156299013Y-85297100D01*
X156299430Y-85296180D01*
X156313132Y-85261297D01*
X156323832Y-85220092D01*
X156331894Y-85166212D01*
X156337680Y-85093303D01*
X156341549Y-84995010D01*
X156343866Y-84864982D01*
X156344990Y-84696863D01*
X156345285Y-84484300D01*
X156345285Y-84477878D01*
X156344972Y-84266607D01*
X156343820Y-84099608D01*
X156341466Y-83970526D01*
X156337549Y-83873008D01*
X156331707Y-83800700D01*
X156323578Y-83747248D01*
X156312800Y-83706299D01*
X156299013Y-83671500D01*
X156263293Y-83607672D01*
X156172456Y-83500479D01*
X156059187Y-83411829D01*
X155936986Y-83351368D01*
X155819350Y-83328741D01*
X155810757Y-83320324D01*
X155802877Y-83287678D01*
X155796863Y-83226252D01*
X155792521Y-83131643D01*
X155789659Y-82999450D01*
X155788083Y-82825270D01*
X155787600Y-82604700D01*
X155787600Y-81880800D01*
X155971750Y-81881376D01*
X156002528Y-81881571D01*
X156225872Y-81888523D01*
X156445498Y-81904286D01*
X156649668Y-81927559D01*
X156826643Y-81957042D01*
X156964685Y-81991434D01*
X157018934Y-82009725D01*
X157241509Y-82111366D01*
X157426148Y-82242923D01*
X157570623Y-82402515D01*
X157672703Y-82588263D01*
X157675164Y-82594357D01*
X157686984Y-82624782D01*
X157697020Y-82655500D01*
X157705442Y-82690720D01*
X157712419Y-82734652D01*
X157718119Y-82791505D01*
X157722711Y-82865486D01*
X157726365Y-82960805D01*
X157729249Y-83081671D01*
X157731531Y-83232292D01*
X157733382Y-83416878D01*
X157734968Y-83639636D01*
X157736461Y-83904776D01*
X157738028Y-84216507D01*
X157738140Y-84239258D01*
X157739588Y-84564060D01*
X157740360Y-84842560D01*
X157740231Y-85078979D01*
X157738975Y-85277542D01*
X157736366Y-85442469D01*
X157732180Y-85577983D01*
X157726192Y-85688308D01*
X157718176Y-85777664D01*
X157707906Y-85850274D01*
X157695158Y-85910361D01*
X157679706Y-85962147D01*
X157661325Y-86009854D01*
X157639789Y-86057705D01*
X157552311Y-86200724D01*
X157411028Y-86349027D01*
X157232833Y-86474651D01*
X157024025Y-86573272D01*
X156790900Y-86640564D01*
X156756515Y-86646537D01*
X156702915Y-86652895D01*
X156632822Y-86658387D01*
X156542804Y-86663077D01*
X156429432Y-86667029D01*
X156289273Y-86670305D01*
X156118899Y-86672969D01*
X155914878Y-86675084D01*
X155673779Y-86676714D01*
X155392173Y-86677923D01*
X155066629Y-86678773D01*
X154693715Y-86679329D01*
X154413802Y-86679458D01*
X154033637Y-86678988D01*
X153695710Y-86677738D01*
X153401244Y-86675725D01*
X153151462Y-86672961D01*
X152947585Y-86669463D01*
X152790837Y-86665245D01*
X152682440Y-86660320D01*
X152623615Y-86654705D01*
X152537154Y-86637630D01*
X152286460Y-86564937D01*
X152155495Y-86503973D01*
X152071798Y-86465013D01*
X151896428Y-86339617D01*
G36*
X151639080Y-93175972D02*
G01*
X151387936Y-93060215D01*
X151177332Y-92916051D01*
X151005196Y-92741649D01*
X150869456Y-92535175D01*
X150768038Y-92294800D01*
X150765729Y-92287632D01*
X150757081Y-92256656D01*
X150749597Y-92220068D01*
X150743169Y-92174103D01*
X150737691Y-92114996D01*
X150733057Y-92038980D01*
X150729159Y-91942290D01*
X150725891Y-91821160D01*
X150723147Y-91671825D01*
X150720820Y-91490518D01*
X150718803Y-91273475D01*
X150716990Y-91016929D01*
X150715273Y-90717114D01*
X150713547Y-90370265D01*
X150712051Y-90035236D01*
X150710964Y-89704715D01*
X150710829Y-89545380D01*
X151879353Y-89545380D01*
X151879704Y-89898862D01*
X151881068Y-90302770D01*
X151888700Y-92057240D01*
X151956875Y-92160243D01*
X152056013Y-92264719D01*
X152198273Y-92343728D01*
X152382005Y-92396021D01*
X152421865Y-92400245D01*
X152512701Y-92404857D01*
X152645558Y-92408883D01*
X152815796Y-92412331D01*
X153018773Y-92415211D01*
X153249848Y-92417533D01*
X153504381Y-92419307D01*
X153777731Y-92420542D01*
X154065256Y-92421247D01*
X154362316Y-92421432D01*
X154664269Y-92421106D01*
X154966475Y-92420280D01*
X155264292Y-92418962D01*
X155553080Y-92417162D01*
X155828197Y-92414891D01*
X156085003Y-92412156D01*
X156318856Y-92408968D01*
X156525116Y-92405337D01*
X156699141Y-92401271D01*
X156836291Y-92396781D01*
X156931924Y-92391876D01*
X156981400Y-92386565D01*
X157026981Y-92375584D01*
X157188165Y-92316863D01*
X157307564Y-92234150D01*
X157389331Y-92123762D01*
X157437622Y-91982013D01*
X157439941Y-91968145D01*
X157445978Y-91899944D01*
X157450925Y-91789532D01*
X157454797Y-91635685D01*
X157457608Y-91437176D01*
X157459372Y-91192780D01*
X157460104Y-90901270D01*
X157459817Y-90561422D01*
X157458525Y-90172009D01*
X157451300Y-88497500D01*
X157387462Y-88383200D01*
X157365148Y-88346702D01*
X157291126Y-88263750D01*
X157184262Y-88192700D01*
X157044900Y-88116500D01*
X154722747Y-88109627D01*
X154394165Y-88108638D01*
X154020093Y-88107567D01*
X153691173Y-88106881D01*
X153404246Y-88106770D01*
X153156153Y-88107426D01*
X152943736Y-88109040D01*
X152763835Y-88111803D01*
X152613291Y-88115907D01*
X152488946Y-88121542D01*
X152387640Y-88128899D01*
X152306215Y-88138170D01*
X152241511Y-88149546D01*
X152190369Y-88163217D01*
X152149631Y-88179376D01*
X152116137Y-88198213D01*
X152086729Y-88219919D01*
X152058248Y-88244686D01*
X152027534Y-88272704D01*
X151999809Y-88300067D01*
X151937514Y-88380085D01*
X151900301Y-88455839D01*
X151898689Y-88462998D01*
X151892894Y-88521586D01*
X151888133Y-88628411D01*
X151884402Y-88783839D01*
X151881698Y-88988233D01*
X151880016Y-89241958D01*
X151879353Y-89545380D01*
X150710829Y-89545380D01*
X150710720Y-89417781D01*
X150711550Y-89170624D01*
X150713682Y-88959434D01*
X150717347Y-88780401D01*
X150722775Y-88629714D01*
X150730194Y-88503564D01*
X150739836Y-88398141D01*
X150751928Y-88309636D01*
X150766702Y-88234237D01*
X150784387Y-88168135D01*
X150805212Y-88107520D01*
X150829407Y-88048582D01*
X150857202Y-87987511D01*
X150866755Y-87967684D01*
X150988329Y-87778644D01*
X151153494Y-87611377D01*
X151359189Y-87468055D01*
X151602353Y-87350851D01*
X151879927Y-87261935D01*
X152117300Y-87202100D01*
X154644600Y-87202100D01*
X154916810Y-87202121D01*
X155303854Y-87202263D01*
X155645274Y-87202584D01*
X155944232Y-87203134D01*
X156203887Y-87203964D01*
X156427400Y-87205126D01*
X156617932Y-87206671D01*
X156778643Y-87208650D01*
X156912693Y-87211114D01*
X157023243Y-87214114D01*
X157113452Y-87217703D01*
X157186483Y-87221930D01*
X157245495Y-87226847D01*
X157293648Y-87232505D01*
X157334103Y-87238956D01*
X157370020Y-87246250D01*
X157502334Y-87279114D01*
X157784003Y-87376608D01*
X158023706Y-87502481D01*
X158221729Y-87656983D01*
X158378354Y-87840362D01*
X158493867Y-88052865D01*
X158568550Y-88294743D01*
X158573076Y-88318556D01*
X158579981Y-88368070D01*
X158585895Y-88431836D01*
X158590888Y-88513509D01*
X158595031Y-88616743D01*
X158598394Y-88745194D01*
X158601047Y-88902515D01*
X158603060Y-89092362D01*
X158604503Y-89318389D01*
X158605447Y-89584251D01*
X158605962Y-89893603D01*
X158606118Y-90250100D01*
X158606118Y-90282413D01*
X158606033Y-90642538D01*
X158605616Y-90956044D01*
X158604607Y-91226787D01*
X158602748Y-91458626D01*
X158599781Y-91655418D01*
X158595445Y-91821022D01*
X158589483Y-91959295D01*
X158581635Y-92074094D01*
X158571644Y-92169278D01*
X158559248Y-92248705D01*
X158544191Y-92316232D01*
X158526213Y-92375716D01*
X158505055Y-92431017D01*
X158480459Y-92485991D01*
X158452165Y-92544497D01*
X158360056Y-92695517D01*
X158206358Y-92864865D01*
X158013595Y-93011190D01*
X157786485Y-93131599D01*
X157529748Y-93223198D01*
X157248100Y-93283091D01*
X157230341Y-93284713D01*
X157159132Y-93287725D01*
X157042700Y-93290513D01*
X156884733Y-93293049D01*
X156688921Y-93295311D01*
X156458953Y-93297271D01*
X156198515Y-93298906D01*
X155911298Y-93300189D01*
X155600989Y-93301097D01*
X155271278Y-93301604D01*
X154925852Y-93301684D01*
X154568400Y-93301313D01*
X152041100Y-93297094D01*
X151879353Y-93252018D01*
X151837900Y-93240466D01*
X151639080Y-93175972D01*
G37*
X151639080Y-93175972D02*
X151387936Y-93060215D01*
X151177332Y-92916051D01*
X151005196Y-92741649D01*
X150869456Y-92535175D01*
X150768038Y-92294800D01*
X150765729Y-92287632D01*
X150757081Y-92256656D01*
X150749597Y-92220068D01*
X150743169Y-92174103D01*
X150737691Y-92114996D01*
X150733057Y-92038980D01*
X150729159Y-91942290D01*
X150725891Y-91821160D01*
X150723147Y-91671825D01*
X150720820Y-91490518D01*
X150718803Y-91273475D01*
X150716990Y-91016929D01*
X150715273Y-90717114D01*
X150713547Y-90370265D01*
X150712051Y-90035236D01*
X150710964Y-89704715D01*
X150710829Y-89545380D01*
X151879353Y-89545380D01*
X151879704Y-89898862D01*
X151881068Y-90302770D01*
X151888700Y-92057240D01*
X151956875Y-92160243D01*
X152056013Y-92264719D01*
X152198273Y-92343728D01*
X152382005Y-92396021D01*
X152421865Y-92400245D01*
X152512701Y-92404857D01*
X152645558Y-92408883D01*
X152815796Y-92412331D01*
X153018773Y-92415211D01*
X153249848Y-92417533D01*
X153504381Y-92419307D01*
X153777731Y-92420542D01*
X154065256Y-92421247D01*
X154362316Y-92421432D01*
X154664269Y-92421106D01*
X154966475Y-92420280D01*
X155264292Y-92418962D01*
X155553080Y-92417162D01*
X155828197Y-92414891D01*
X156085003Y-92412156D01*
X156318856Y-92408968D01*
X156525116Y-92405337D01*
X156699141Y-92401271D01*
X156836291Y-92396781D01*
X156931924Y-92391876D01*
X156981400Y-92386565D01*
X157026981Y-92375584D01*
X157188165Y-92316863D01*
X157307564Y-92234150D01*
X157389331Y-92123762D01*
X157437622Y-91982013D01*
X157439941Y-91968145D01*
X157445978Y-91899944D01*
X157450925Y-91789532D01*
X157454797Y-91635685D01*
X157457608Y-91437176D01*
X157459372Y-91192780D01*
X157460104Y-90901270D01*
X157459817Y-90561422D01*
X157458525Y-90172009D01*
X157451300Y-88497500D01*
X157387462Y-88383200D01*
X157365148Y-88346702D01*
X157291126Y-88263750D01*
X157184262Y-88192700D01*
X157044900Y-88116500D01*
X154722747Y-88109627D01*
X154394165Y-88108638D01*
X154020093Y-88107567D01*
X153691173Y-88106881D01*
X153404246Y-88106770D01*
X153156153Y-88107426D01*
X152943736Y-88109040D01*
X152763835Y-88111803D01*
X152613291Y-88115907D01*
X152488946Y-88121542D01*
X152387640Y-88128899D01*
X152306215Y-88138170D01*
X152241511Y-88149546D01*
X152190369Y-88163217D01*
X152149631Y-88179376D01*
X152116137Y-88198213D01*
X152086729Y-88219919D01*
X152058248Y-88244686D01*
X152027534Y-88272704D01*
X151999809Y-88300067D01*
X151937514Y-88380085D01*
X151900301Y-88455839D01*
X151898689Y-88462998D01*
X151892894Y-88521586D01*
X151888133Y-88628411D01*
X151884402Y-88783839D01*
X151881698Y-88988233D01*
X151880016Y-89241958D01*
X151879353Y-89545380D01*
X150710829Y-89545380D01*
X150710720Y-89417781D01*
X150711550Y-89170624D01*
X150713682Y-88959434D01*
X150717347Y-88780401D01*
X150722775Y-88629714D01*
X150730194Y-88503564D01*
X150739836Y-88398141D01*
X150751928Y-88309636D01*
X150766702Y-88234237D01*
X150784387Y-88168135D01*
X150805212Y-88107520D01*
X150829407Y-88048582D01*
X150857202Y-87987511D01*
X150866755Y-87967684D01*
X150988329Y-87778644D01*
X151153494Y-87611377D01*
X151359189Y-87468055D01*
X151602353Y-87350851D01*
X151879927Y-87261935D01*
X152117300Y-87202100D01*
X154644600Y-87202100D01*
X154916810Y-87202121D01*
X155303854Y-87202263D01*
X155645274Y-87202584D01*
X155944232Y-87203134D01*
X156203887Y-87203964D01*
X156427400Y-87205126D01*
X156617932Y-87206671D01*
X156778643Y-87208650D01*
X156912693Y-87211114D01*
X157023243Y-87214114D01*
X157113452Y-87217703D01*
X157186483Y-87221930D01*
X157245495Y-87226847D01*
X157293648Y-87232505D01*
X157334103Y-87238956D01*
X157370020Y-87246250D01*
X157502334Y-87279114D01*
X157784003Y-87376608D01*
X158023706Y-87502481D01*
X158221729Y-87656983D01*
X158378354Y-87840362D01*
X158493867Y-88052865D01*
X158568550Y-88294743D01*
X158573076Y-88318556D01*
X158579981Y-88368070D01*
X158585895Y-88431836D01*
X158590888Y-88513509D01*
X158595031Y-88616743D01*
X158598394Y-88745194D01*
X158601047Y-88902515D01*
X158603060Y-89092362D01*
X158604503Y-89318389D01*
X158605447Y-89584251D01*
X158605962Y-89893603D01*
X158606118Y-90250100D01*
X158606118Y-90282413D01*
X158606033Y-90642538D01*
X158605616Y-90956044D01*
X158604607Y-91226787D01*
X158602748Y-91458626D01*
X158599781Y-91655418D01*
X158595445Y-91821022D01*
X158589483Y-91959295D01*
X158581635Y-92074094D01*
X158571644Y-92169278D01*
X158559248Y-92248705D01*
X158544191Y-92316232D01*
X158526213Y-92375716D01*
X158505055Y-92431017D01*
X158480459Y-92485991D01*
X158452165Y-92544497D01*
X158360056Y-92695517D01*
X158206358Y-92864865D01*
X158013595Y-93011190D01*
X157786485Y-93131599D01*
X157529748Y-93223198D01*
X157248100Y-93283091D01*
X157230341Y-93284713D01*
X157159132Y-93287725D01*
X157042700Y-93290513D01*
X156884733Y-93293049D01*
X156688921Y-93295311D01*
X156458953Y-93297271D01*
X156198515Y-93298906D01*
X155911298Y-93300189D01*
X155600989Y-93301097D01*
X155271278Y-93301604D01*
X154925852Y-93301684D01*
X154568400Y-93301313D01*
X152041100Y-93297094D01*
X151879353Y-93252018D01*
X151837900Y-93240466D01*
X151639080Y-93175972D01*
M02*
