%FSTAX23Y23*%
%MOIN*%
%SFA1B1*%

%IPPOS*%
%AMD72*
4,1,8,-0.017700,-0.045300,0.017700,-0.045300,0.035500,-0.027600,0.035500,0.027600,0.017700,0.045300,-0.017700,0.045300,-0.035500,0.027600,-0.035500,-0.027600,-0.017700,-0.045300,0.0*
%
%AMD75*
4,1,8,-0.010900,-0.033500,0.010900,-0.033500,0.021700,-0.022700,0.021700,0.022700,0.010900,0.033500,-0.010900,0.033500,-0.021700,0.022700,-0.021700,-0.022700,-0.010900,-0.033500,0.0*
%
%ADD70C,0.067060*%
%ADD71R,0.067060X0.067060*%
G04~CAMADD=72~4~0.0~0.0~709.9~906.8~0.0~177.5~0~0.0~0.0~0.0~0.0~0~0.0~0.0~0.0~0.0~0~0.0~0.0~0.0~180.0~710.0~906.0*
%ADD72D72*%
%ADD73O,0.114300X0.149730*%
%ADD74C,0.094610*%
G04~CAMADD=75~4~0.0~0.0~434.3~670.6~0.0~108.6~0~0.0~0.0~0.0~0.0~0~0.0~0.0~0.0~0.0~0~0.0~0.0~0.0~180.0~434.0~670.0*
%ADD75D75*%
%LNmod_duo_dwarf-1*%
%LPD*%
G54D70*
X0609Y-00155D03*
X04795Y-00085D03*
Y00015D03*
X04695Y-00085D03*
Y00015D03*
X04595Y-00085D03*
Y00015D03*
X04495Y-00085D03*
Y00015D03*
X04395Y-00085D03*
Y00015D03*
X04295Y-00085D03*
Y00015D03*
X04195Y-00085D03*
Y00015D03*
X04095Y-00085D03*
Y00015D03*
X03995Y-00085D03*
Y00015D03*
X03895Y-00085D03*
X0157Y-00155D03*
X0237D03*
G54D71*
X0599Y-00155D03*
X03895Y00015D03*
X0147Y-00155D03*
X0227D03*
G54D72*
X05771Y01829D03*
X05672D03*
X05574D03*
X05771Y01258D03*
X05574D03*
X04393D03*
X0459D03*
X04393Y01829D03*
X04491D03*
X0459D03*
X03212Y01258D03*
X03409D03*
X03212Y01829D03*
X0331D03*
X03409D03*
G54D73*
X05897Y01534D03*
X05448D03*
X04267D03*
X04716D03*
X03086D03*
X03535D03*
G54D74*
X00373Y00276D03*
X02302D03*
G54D75*
X00078Y02112D03*
X00128D03*
X02598Y00139D03*
X02547D03*
X01863D03*
X00813D03*
X00863D03*
X00913D03*
X00963D03*
X01013D03*
X01063D03*
X01113D03*
X01163D03*
X01213D03*
X01263D03*
X01313D03*
X01363D03*
X01413D03*
X01463D03*
X01513D03*
X01563D03*
X01613D03*
X01663D03*
X01713D03*
X01763D03*
X01813D03*
X00128D03*
X00078D03*
X02547Y02112D03*
X02598D03*
M02*