%FSTAX23Y23*%
%MOIN*%
%SFA1B1*%

%IPPOS*%
%ADD94C,0.000500*%
%LNmod_duo_dwarf-1*%
%LPD*%
G54D94*
X08334Y0323D02*
D01*
X08333Y03235*
X08333Y03239*
X08332Y03243*
X08331Y03247*
X0833Y03251*
X08328Y03254*
X08327Y03258*
X08325Y03262*
X08322Y03265*
X0832Y03268*
X08317Y03271*
X08314Y03274*
X08311Y03277*
X08308Y03279*
X08304Y03282*
X083Y03284*
X08297Y03285*
X08293Y03287*
X08289Y03288*
X08285Y03289*
X08281Y03289*
X08277Y03289*
X08275Y0329*
X08113Y03427D02*
D01*
X08113Y03418*
X08114Y03408*
X08116Y03399*
X08118Y03389*
X08121Y0338*
X08125Y03371*
X08129Y03363*
X08134Y03354*
X08139Y03346*
X08145Y03339*
X08152Y03332*
X08159Y03325*
X08166Y03319*
X08174Y03313*
X08182Y03308*
X08191Y03303*
X08199Y033*
X08208Y03296*
X08218Y03294*
X08227Y03292*
X08237Y0329*
X08246Y0329*
X08251Y0329*
X03487Y0373D02*
D01*
X03482Y0373*
X03476Y0373*
X03471Y03729*
X03465Y03727*
X0346Y03726*
X03455Y03724*
X0345Y03721*
X03445Y03718*
X03441Y03715*
X03436Y03712*
X03432Y03708*
X03429Y03704*
X03425Y037*
X03422Y03696*
X03419Y03691*
X03416Y03686*
X03414Y03681*
X03412Y03676*
X03411Y03671*
X0341Y03667*
X08275Y00766D02*
D01*
X08279Y00766*
X08283Y00766*
X08287Y00767*
X08291Y00768*
X08295Y00769*
X08299Y00771*
X08302Y00773*
X08306Y00775*
X08309Y00777*
X08312Y0078*
X08316Y00782*
X08318Y00785*
X08321Y00789*
X08323Y00792*
X08326Y00795*
X08328Y00799*
X08329Y00803*
X08331Y00807*
X08332Y00811*
X08333Y00815*
X08333Y00819*
X08334Y00823*
X08334Y00825*
X00999D02*
D01*
X00999Y00821*
X01Y00817*
X01Y00813*
X01001Y00809*
X01003Y00805*
X01004Y00801*
X01006Y00797*
X01008Y00794*
X0101Y0079*
X01013Y00787*
X01016Y00784*
X01018Y00781*
X01022Y00778*
X01025Y00776*
X01028Y00774*
X01032Y00772*
X01036Y0077*
X0104Y00769*
X01044Y00768*
X01048Y00767*
X01052Y00766*
X01056Y00766*
X01058Y00766*
X00794Y0329D02*
D01*
X0079Y03289*
X00786Y03289*
X00782Y03288*
X00778Y03287*
X00774Y03286*
X0077Y03284*
X00766Y03283*
X00763Y03281*
X0076Y03278*
X00756Y03276*
X00753Y03273*
X0075Y0327*
X00748Y03267*
X00745Y03263*
X00743Y0326*
X00741Y03256*
X00739Y03253*
X00738Y03249*
X00737Y03245*
X00736Y03241*
X00735Y03237*
X00735Y03233*
X00735Y0323*
X00999Y01722D02*
D01*
X00999Y01732*
X00998Y01742*
X00996Y01751*
X00994Y0176*
X00991Y0177*
X00987Y01778*
X00983Y01787*
X00978Y01795*
X00973Y01803*
X00967Y01811*
X0096Y01818*
X00953Y01825*
X00946Y01831*
X00938Y01837*
X0093Y01842*
X00922Y01846*
X00913Y0185*
X00904Y01853*
X00894Y01856*
X00885Y01858*
X00876Y01859*
X00866Y0186*
X00861Y0186*
X00735Y019D02*
D01*
X00735Y01897*
X00736Y01894*
X00736Y01891*
X00737Y01889*
X00738Y01886*
X00739Y01884*
X0074Y01881*
X00741Y01879*
X00743Y01876*
X00744Y01874*
X00746Y01872*
X00748Y0187*
X0075Y01869*
X00753Y01867*
X00755Y01865*
X00757Y01864*
X0076Y01863*
X00762Y01862*
X00765Y01861*
X00768Y01861*
X0077Y0186*
X00773Y0186*
X00775Y0186*
X00818Y0329D02*
D01*
X00827Y0329*
X00837Y03291*
X00846Y03293*
X00856Y03295*
X00865Y03298*
X00874Y03301*
X00883Y03306*
X00891Y0331*
X00899Y03316*
X00906Y03322*
X00914Y03328*
X0092Y03335*
X00926Y03342*
X00932Y0335*
X00937Y03358*
X00942Y03367*
X00946Y03376*
X00949Y03385*
X00952Y03394*
X00954Y03403*
X00955Y03413*
X00956Y03422*
X00956Y03427*
X01015Y0373D02*
D01*
X01011Y0373*
X01006Y0373*
X01002Y03729*
X00998Y03728*
X00994Y03727*
X00991Y03725*
X00987Y03724*
X00983Y03721*
X0098Y03719*
X00977Y03717*
X00974Y03714*
X00971Y03711*
X00968Y03708*
X00966Y03704*
X00964Y03701*
X00962Y03697*
X0096Y03694*
X00959Y0369*
X00957Y03686*
X00957Y03682*
X00956Y03678*
X00956Y03673*
X00956Y03671*
X04082Y03604D02*
D01*
X04082Y03595*
X04083Y03585*
X04085Y03576*
X04087Y03566*
X0409Y03557*
X04094Y03548*
X04098Y0354*
X04103Y03531*
X04108Y03523*
X04114Y03516*
X0412Y03509*
X04127Y03502*
X04135Y03496*
X04142Y0349*
X04151Y03485*
X04159Y03481*
X04168Y03477*
X04177Y03473*
X04186Y03471*
X04195Y03469*
X04205Y03467*
X04215Y03467*
X04224*
X04234Y03467*
X04243Y03469*
X04253Y03471*
X04262Y03473*
X04271Y03477*
X0428Y03481*
X04288Y03485*
X04296Y0349*
X04304Y03496*
X04312Y03502*
X04319Y03509*
X04325Y03516*
X04331Y03523*
X04336Y03531*
X04341Y0354*
X04345Y03548*
X04349Y03557*
X04352Y03566*
X04354Y03576*
X04356Y03585*
X04357Y03595*
X04357Y03604*
X04082Y03691D02*
D01*
X04082Y03694*
X04081Y03697*
X04081Y03699*
X0408Y03702*
X04079Y03705*
X04078Y03707*
X04077Y0371*
X04076Y03712*
X04074Y03714*
X04072Y03716*
X04071Y03718*
X04069Y0372*
X04066Y03722*
X04064Y03724*
X04062Y03725*
X0406Y03726*
X04057Y03728*
X04054Y03729*
X04052Y03729*
X04049Y0373*
X04046Y0373*
X04044Y0373*
X04042Y0373*
X04397D02*
D01*
X04394Y0373*
X04391Y0373*
X04388Y0373*
X04386Y03729*
X04383Y03728*
X04381Y03727*
X04378Y03726*
X04376Y03724*
X04373Y03723*
X04371Y03721*
X04369Y03719*
X04367Y03717*
X04366Y03715*
X04364Y03713*
X04362Y03711*
X04361Y03708*
X0436Y03706*
X04359Y03703*
X04358Y03701*
X04358Y03698*
X04357Y03695*
X04357Y03692*
X04357Y03691*
X02793Y03667D02*
D01*
X02798Y03646*
X02804Y03625*
X02813Y03605*
X02822Y03585*
X02833Y03566*
X02845Y03547*
X02858Y0353*
X02873Y03513*
X02889Y03498*
X02905Y03484*
X02923Y03471*
X02942Y03459*
X02961Y03448*
X02981Y03439*
X03002Y03432*
X03023Y03425*
X03044Y03421*
X03066Y03417*
X03088Y03416*
X0311Y03416*
X03132Y03417*
X03153Y0342*
X03175Y03424*
X03196Y0343*
X03217Y03437*
X03237Y03446*
X03257Y03456*
X03275Y03468*
X03293Y03481*
X0331Y03495*
X03326Y0351*
X03341Y03526*
X03355Y03543*
X03367Y03561*
X03378Y0358*
X03388Y036*
X03396Y0362*
X03403Y03641*
X03409Y03662*
X0341Y03667*
X08113Y03671D02*
D01*
X08113Y03676*
X08113Y0368*
X08112Y03684*
X08111Y03688*
X0811Y03692*
X08108Y03695*
X08106Y03699*
X08104Y03703*
X08102Y03706*
X08099Y03709*
X08097Y03712*
X08094Y03715*
X0809Y03718*
X08087Y0372*
X08084Y03723*
X0808Y03724*
X08076Y03726*
X08072Y03728*
X08068Y03729*
X08064Y0373*
X0806Y0373*
X08056Y0373*
X08054Y0373*
X02793Y03667D02*
D01*
X02791Y03673*
X0279Y03678*
X02788Y03683*
X02785Y03688*
X02783Y03693*
X0278Y03697*
X02776Y03702*
X02773Y03706*
X02769Y0371*
X02765Y03713*
X0276Y03717*
X02755Y0372*
X02751Y03722*
X02746Y03724*
X0274Y03726*
X02735Y03728*
X0273Y03729*
X02724Y0373*
X02719Y0373*
X02716Y0373*
X04397D02*
X08054D01*
X08251Y0329D02*
X08275D01*
X00999Y00825D02*
Y01722D01*
X08334Y00825D02*
Y0323D01*
X00956Y03427D02*
Y03671D01*
X01058Y00766D02*
X08275D01*
X00735Y019D02*
Y0323D01*
X00794Y0329D02*
X00818D01*
X03487Y0373D02*
X04042D01*
X00775Y0186D02*
X00861D01*
X01015Y0373D02*
X02716D01*
X08113Y03427D02*
Y03671D01*
X04357Y03604D02*
Y03691D01*
X04082Y03604D02*
Y03691D01*
M02*