%FSTAX23Y23*%
%MOIN*%
%SFA1B1*%

%IPPOS*%
%AMD93*
4,1,8,-0.015700,-0.041300,0.015700,-0.041300,0.031500,-0.025600,0.031500,0.025600,0.015700,0.041300,-0.015700,0.041300,-0.031500,0.025600,-0.031500,-0.025600,-0.015700,-0.041300,0.0*
%
%ADD14C,0.006000*%
%ADD80C,0.020000*%
%ADD86C,0.010000*%
%ADD87C,0.025000*%
%ADD88C,0.008000*%
%ADD89C,0.012000*%
%ADD92O,0.106299X0.141732*%
G04~CAMADD=93~4~0.0~0.0~629.9~826.8~0.0~157.5~0~0.0~0.0~0.0~0.0~0~0.0~0.0~0.0~0.0~0~0.0~0.0~0.0~180.0~630.0~826.0*
%ADD93D93*%
%ADD94C,0.019685*%
%LNmod_duo_dwarf-1*%
%LPD*%
G36*
X01773Y03689D02*
X01774Y03689D01*
X01774Y03688*
X01775Y03688*
X01775Y03688*
X01776Y03688*
X01777Y03687*
X01778Y03687*
X01779Y03687*
X0178Y03687*
X01777Y03677*
X01776Y03677*
X01772Y03677*
X01772Y03677*
X01771Y03677*
X01771Y03677*
X0177Y03676*
X0177Y03676*
X01773Y0369*
X01773Y03689*
G37*
G36*
X01711Y03677D02*
X01711Y03677D01*
X0171Y03676*
X0171Y03675*
X0171Y03675*
X0171Y03674*
X0171Y03673*
X0171Y03672*
X0171Y0367*
X017*
X01699Y03671*
X01699Y03673*
X01699Y03674*
X01699Y03675*
X01699Y03675*
X01699Y03676*
X01698Y03677*
X01698Y03677*
X01698Y03677*
X01711*
X01711Y03677*
G37*
G36*
X08027Y03623D02*
X08027Y03623D01*
X08027Y03623*
X08026Y03624*
X08025Y03624*
X08025Y03624*
X08024Y03624*
X08023Y03624*
X08022Y03624*
X0802Y03625*
Y03635*
X08021Y03635*
X08023Y03635*
X08024Y03635*
X08025Y03635*
X08025Y03635*
X08026Y03635*
X08027Y03636*
X08027Y03636*
X08027Y03636*
Y03623*
G37*
G36*
X07272Y03608D02*
X07271Y03609D01*
X07271Y03609*
X0727Y03609*
X0727Y0361*
X07269Y0361*
X07268Y0361*
X07268Y0361*
X07267Y0361*
X07265Y0361*
X07266Y0362*
X07267Y0362*
X0727Y03621*
X0727Y03621*
X07271Y03621*
X07272Y03621*
X07272Y03621*
X07273Y03622*
X07273Y03622*
X07272Y03608*
G37*
G36*
X07367Y03583D02*
X07366Y03584D01*
X07366Y03584*
X07365Y03584*
X07365Y03585*
X07364Y03585*
X07363Y03585*
X07363Y03585*
X07362Y03585*
X0736Y03585*
X07361Y03595*
X07362Y03595*
X07365Y03596*
X07365Y03596*
X07366Y03596*
X07367Y03596*
X07367Y03596*
X07368Y03597*
X07368Y03597*
X07367Y03583*
G37*
G36*
X01737Y0359D02*
X01736Y03589D01*
X01735Y03587*
X01734Y03587*
X01734Y03586*
X01734Y03585*
X01734Y03585*
X01733Y03584*
X01734Y03584*
X01734Y03583*
X01721Y03589*
X01721Y03589*
X01722Y03589*
X01722Y03589*
X01723Y0359*
X01725Y03592*
X01726Y03593*
X01737Y0359*
G37*
G36*
X02542Y03581D02*
X02542Y03581D01*
X02543Y0358*
X02544Y0358*
X02544Y0358*
X02545Y0358*
X02546Y0358*
X02547Y0358*
X02549Y0358*
Y0357*
X02548Y03569*
X02546Y03569*
X02545Y03569*
X02544Y03569*
X02544Y03569*
X02543Y03569*
X02542Y03568*
X02542Y03568*
X02542Y03568*
Y03581*
X02542Y03581*
G37*
G36*
X08037Y03563D02*
X08037Y03563D01*
X08037Y03563*
X08036Y03564*
X08035Y03564*
X08035Y03564*
X08034Y03564*
X08033Y03564*
X08032Y03564*
X0803Y03565*
Y03575*
X08031Y03575*
X08033Y03575*
X08034Y03575*
X08035Y03575*
X08035Y03575*
X08036Y03575*
X08037Y03576*
X08037Y03576*
X08037Y03576*
Y03563*
G37*
G36*
X07332Y03558D02*
X07331Y03559D01*
X07331Y03559*
X0733Y03559*
X0733Y0356*
X07329Y0356*
X07328Y0356*
X07328Y0356*
X07327Y0356*
X07325Y0356*
X07326Y0357*
X07327Y0357*
X0733Y03571*
X0733Y03571*
X07331Y03571*
X07332Y03571*
X07332Y03571*
X07333Y03572*
X07333Y03572*
X07332Y03558*
G37*
G36*
X08096Y03562D02*
X08096Y03562D01*
X08095Y03561*
X08095Y0356*
X08095Y0356*
X08095Y03559*
X08095Y03558*
X08095Y03557*
X08095Y03555*
X08085*
X08084Y03556*
X08084Y03558*
X08084Y03559*
X08084Y0356*
X08084Y0356*
X08084Y03561*
X08083Y03562*
X08083Y03562*
X08083Y03562*
X08096*
X08096Y03562*
G37*
G36*
X02589Y03538D02*
X02589Y03537D01*
X02589Y03537*
X0259Y03536*
X0259Y03535*
X0259Y03535*
X02591Y03534*
X02591Y03533*
X02593Y03532*
X02585Y03526*
X02584Y03526*
X02582Y03528*
X02581Y03529*
X02581Y03529*
X0258Y03529*
X0258Y03529*
X02579Y0353*
X02579Y0353*
X02589Y03538*
X02589Y03538*
G37*
G36*
X02501Y03512D02*
X02502Y03511D01*
X02502Y03511*
X02503Y03511*
X02504Y03511*
X02504Y03511*
X02506Y03511*
X02507Y0351*
X02508Y0351*
X02509Y035*
X02508Y035*
X02506Y035*
X02506Y035*
X02505Y035*
X02504Y035*
X02504Y03499*
X02503Y03499*
X02503Y03499*
X02502Y03498*
X02501Y03512*
X02501Y03512*
G37*
G36*
X07729Y03488D02*
X0773Y03487D01*
X07731Y03487*
X07731Y03486*
X07732Y03486*
X07733Y03486*
X07734Y03486*
X07735Y03485*
X07736Y03485*
X07737Y03485*
X07727Y03476*
X07727Y03477*
X07727Y03478*
X07727Y03479*
X07727Y0348*
X07727Y0348*
X07726Y03481*
X07726Y03482*
X07725Y03483*
X07725Y03483*
X07724Y03484*
X07729Y03488*
X07729Y03488*
G37*
G36*
X06474Y03478D02*
X06475Y03477D01*
X06476Y03477*
X06476Y03476*
X06477Y03476*
X06478Y03476*
X06479Y03476*
X0648Y03475*
X06481Y03475*
X06482Y03475*
X06472Y03466*
X06472Y03467*
X06472Y03468*
X06472Y03469*
X06472Y0347*
X06472Y0347*
X06471Y03471*
X06471Y03472*
X0647Y03473*
X0647Y03473*
X06469Y03474*
X06474Y03478*
X06474Y03478*
G37*
G36*
X07669Y03468D02*
X0767Y03467D01*
X07671Y03467*
X07671Y03466*
X07672Y03466*
X07673Y03466*
X07674Y03466*
X07675Y03465*
X07676Y03465*
X07677Y03465*
X07667Y03456*
X07667Y03457*
X07667Y03458*
X07667Y03459*
X07667Y0346*
X07667Y0346*
X07666Y03461*
X07666Y03462*
X07665Y03463*
X07665Y03463*
X07664Y03464*
X07669Y03468*
X07669Y03468*
G37*
G36*
X06414Y03453D02*
X06415Y03452D01*
X06416Y03452*
X06416Y03451*
X06417Y03451*
X06418Y03451*
X06419Y03451*
X0642Y0345*
X06421Y0345*
X06422Y0345*
X06412Y03441*
X06412Y03442*
X06412Y03443*
X06412Y03444*
X06412Y03445*
X06412Y03445*
X06411Y03446*
X06411Y03447*
X0641Y03448*
X0641Y03448*
X06409Y03449*
X06414Y03453*
X06414Y03453*
G37*
G36*
X03938Y03453D02*
X03939Y03453D01*
X03939Y03452*
X0394Y03452*
X03941Y03452*
X03941Y03452*
X03942Y03451*
X03943Y03451*
X03945Y03451*
Y03441*
X03944Y03441*
X03942Y03441*
X03941Y03441*
X03941Y03441*
X0394Y03441*
X03939Y0344*
X03939Y0344*
X03938Y0344*
X03938Y03439*
Y03453*
X03938Y03453*
G37*
G36*
X05222Y03416D02*
X05221Y03416D01*
X0522Y03415*
X05219Y03415*
X05218Y03415*
X05217Y03415*
X05216Y03415*
X05216Y03414*
X05215Y03414*
X05214Y03413*
X05214Y03413*
X05209Y03417*
X0521Y03417*
X0521Y03418*
X05211Y03419*
X05211Y0342*
X05212Y0342*
X05212Y03421*
X05212Y03422*
X05212Y03423*
X05212Y03424*
X05212Y03425*
X05222Y03416*
G37*
G36*
X01015Y0372D02*
X02716D01*
X02716Y0372*
X02729Y03719*
X02742Y03715*
X02753Y03708*
X02764Y037*
X02772Y0369*
X02779Y03678*
X02781Y0367*
X02782Y03665*
X02783Y0366*
X0279Y03636*
X028Y03606*
X02814Y03577*
X0283Y03549*
X0285Y03524*
X02871Y035*
X02895Y03479*
X0292Y0346*
X02948Y03443*
X02977Y03429*
X03007Y03419*
X03019Y03416*
X03018Y03411*
X02929*
X02646Y03693*
X02641Y03696*
X02635Y03698*
X0178*
X01779Y03699*
X01772Y03703*
X01765Y03705*
X01757Y03703*
X0175Y03699*
X01746Y03692*
X01744Y03685*
X01746Y03677*
X0175Y0367*
X01755Y03667*
X01754Y03662*
X01729*
X0172Y03671*
Y03672*
X01723Y03677*
X01725Y03685*
X01723Y03692*
X01719Y03699*
X01712Y03703*
X01705Y03705*
X01697Y03703*
X0169Y03699*
X01686Y03692*
X01684Y03685*
X01686Y03677*
X01689Y03672*
Y03665*
X0169Y03659*
X01694Y03654*
X01712Y03636*
X01717Y03632*
X01723Y03631*
X01739*
X02614*
X02877Y03368*
X02876Y03363*
X02875Y03363*
X02617Y03621*
X02612Y03625*
X02606Y03626*
X018*
X01751*
X01745Y03625*
X0174Y03621*
X01716Y03598*
X0171Y03594*
X01706Y03587*
X01704Y0358*
X01706Y03572*
X0171Y03565*
X01717Y03561*
X01725Y03559*
X01732Y03561*
X01739Y03565*
X01743Y03572*
X01745Y0358*
X01744Y03583*
X01757Y03595*
X018*
X02521*
X02523Y0359*
X0252Y03589*
X02516Y03582*
X02514Y03575*
X02516Y03567*
X0252Y0356*
X02527Y03556*
X02535Y03554*
X02542Y03556*
X02547Y03559*
X02564*
X02566Y03554*
X02565Y03554*
X02561Y03547*
X02559Y0354*
X02561Y03532*
X02565Y03525*
X02565Y03525*
X02563Y03521*
X02562Y03521*
X02506*
X02506Y03521*
X02506Y03521*
Y03521*
X02502Y03523*
X02495Y03525*
X02487Y03523*
X0248Y03519*
X02476Y03512*
X02474Y03505*
X02476Y03497*
X0248Y0349*
X02487Y03486*
X02495Y03484*
X02502Y03486*
X02509Y0349*
X02556*
X02786Y0326*
X02791Y03256*
X02797Y03255*
X02832*
X02833Y0325*
X02833Y0325*
X02798Y03215*
X02795Y03211*
X02794Y03205*
Y03181*
X02767Y03154*
X02737*
X02737Y03154*
X02737Y03154*
X02737Y03154*
X02737Y03155*
X0273Y03159*
X02722Y03161*
X02714Y03159*
X02708Y03155*
X02704Y03148*
X02702Y0314*
X02701Y0314*
X02697Y03141*
X02689Y03139*
X02683Y03135*
X02679Y03128*
X02677Y0312*
X02679Y03113*
X02683Y03106*
X02689Y03102*
X02697Y031*
X02701Y03101*
X02702Y031*
X02704Y03093*
X02708Y03086*
X02714Y03082*
X02722Y0308*
X0273Y03082*
X02737Y03086*
X02737Y03087*
X02737Y03087*
X02737Y03087*
X02737Y03087*
X02792*
X02797Y03088*
X02802Y03091*
X02862Y03151*
X02864Y03155*
X02865Y0316*
Y0318*
X02873Y03187*
X03131*
X03133Y03182*
X03132Y03175*
X03134Y03168*
X03138Y03161*
X03144Y03157*
X03151Y03155*
Y0315*
X03144Y03149*
X03138Y03145*
X03134Y03138*
X03132Y0313*
X03134Y03123*
X03138Y03116*
X03144Y03112*
X03152Y0311*
X0316Y03112*
X03167Y03116*
X03167Y03117*
X03167Y03117*
X03167Y03117*
X03167Y03117*
X03667*
X03705Y03079*
X03708Y03075*
X03706Y03071*
X03704Y03068*
X03702Y0306*
X03701Y0306*
X03697Y03061*
X03689Y03059*
X03683Y03055*
X03679Y03048*
X03677Y0304*
X03679Y03033*
X03683Y03026*
X03689Y03022*
X03697Y0302*
X03701Y03021*
X03702Y0302*
X03704Y03013*
X03708Y03006*
X03714Y03002*
X03722Y03*
X0373Y03002*
X03737Y03006*
X03737Y03007*
X03737Y03007*
X03737Y03007*
X03737Y03007*
X05012*
X0508Y02939*
Y02672*
X05073*
X05052Y02651*
Y0259*
X05073Y02569*
X05114*
X05135Y0259*
Y02651*
X05114Y02672*
X05107*
Y02944*
X05106Y02949*
X05103Y02954*
X05027Y0303*
X05022Y03033*
X05017Y03034*
X04676*
X04674Y03038*
X04717Y03081*
X04719Y03085*
X0472Y0309*
Y03205*
X04908Y03392*
X05202*
X05207Y03393*
X05212Y03396*
X05221Y03405*
X05221Y03405*
X05221Y03405*
X05221Y03405*
X05222Y03405*
X0523Y03407*
X05237Y03411*
X05241Y03418*
X05242Y03425*
X05241Y03433*
X05237Y0344*
X05233Y03442*
X05234Y03447*
X06397*
X06402Y03442*
X06402Y03442*
X06402Y03441*
X06402Y03441*
X06402Y0344*
X06404Y03433*
X06408Y03426*
X06414Y03422*
X06422Y0342*
X0643Y03422*
X06437Y03426*
X06441Y03433*
X06442Y0344*
X06441Y03448*
X06437Y03455*
X0643Y03459*
X06423Y0346*
X06422Y03462*
X06424Y03467*
X06424Y03467*
X06457*
X06462Y03465*
X06464Y03458*
X06468Y03451*
X06474Y03447*
X06482Y03445*
X0649Y03447*
X06497Y03451*
X06501Y03458*
X06502Y03465*
X06501Y03473*
X06497Y0348*
X06493Y03482*
X06494Y03487*
X07547*
X07649Y03385*
Y03234*
X07644Y03232*
X07634Y03242*
X07592*
X07572Y03222*
Y0316*
X07592Y0314*
X07634*
X07644Y0315*
X07649Y03148*
Y02821*
X07604Y02776*
X07601Y02771*
X076Y02766*
Y02672*
X07592*
X07572Y02651*
Y0259*
X07592Y0257*
X0759Y02565*
X07493*
X07481Y02576*
Y02603*
X07481Y02604*
X07482Y02606*
X07484Y02614*
X07482Y02622*
X07478Y02628*
X07471Y02633*
X07464Y02634*
X07464Y02634*
X07416Y02681*
Y02985*
X07442Y0301*
X07442Y0301*
X0745Y03012*
X07457Y03016*
X07461Y03023*
X07462Y0303*
X07461Y03038*
X07457Y03045*
X0745Y03049*
X07442Y03051*
X07434Y03049*
X07428Y03045*
X07424Y03038*
X07422Y0303*
X07422Y0303*
X07392Y03001*
X07389Y02996*
X07388Y0299*
Y02675*
X07389Y0267*
X07392Y02665*
X07444Y02614*
X07444Y02614*
X07445Y02606*
X07449Y026*
X07453Y02597*
Y0257*
X07454Y02565*
X07457Y0256*
X07477Y0254*
X07482Y02537*
X07487Y02536*
X08153*
X08153Y02536*
X08159Y02532*
X08167Y0253*
X08168Y02525*
Y01705*
X08061Y01599*
X07308*
X07303Y01599*
X07297Y01599*
X07295Y016*
X07293Y016*
X07291Y01601*
X07291Y01601*
X07291Y01601*
X07283Y01606*
X07275Y01607*
X0719*
X07181Y01606*
X07173Y01601*
X0709Y01518*
X0634*
X06331Y01516*
X06324Y01511*
X06319Y01504*
X06317Y01495*
X06319Y01486*
X06324Y01479*
X06331Y01474*
X0634Y01472*
X071*
X07109Y01474*
X07116Y01479*
X07199Y01562*
X07275*
X07283Y01563*
X07291Y01568*
X07291Y01568*
X07291Y01568*
X07293Y01569*
X07295Y01569*
X07297Y0157*
X07307Y0157*
X08067*
X08073Y01571*
X08077Y01574*
X08192Y01689*
X08195Y01694*
X08196Y017*
Y02535*
X08195Y02541*
X08192Y02546*
X08187Y0255*
X08187Y0255*
X08186Y02558*
X08182Y02565*
X08175Y02569*
X08167Y02571*
X08159Y02569*
X08153Y02565*
X08153Y02565*
X07833*
X07832Y0257*
X07851Y0259*
Y02615*
X0781*
X07768*
Y0259*
X07788Y0257*
X07787Y02565*
X07636*
X07635Y0257*
X07655Y0259*
Y02651*
X07634Y02672*
X07626*
Y02761*
X07672Y02806*
X07674Y0281*
X07675Y02815*
Y03149*
X0768Y0315*
X07691Y0314*
X07707*
Y03191*
Y03242*
X07691*
X0768Y03232*
X07675Y03234*
Y0339*
X07674Y03396*
X07672Y034*
X07569Y03503*
X07571Y03507*
X07607*
X07657Y03457*
X07657Y03457*
X07657Y03456*
X07657Y03456*
X07657Y03455*
X07659Y03448*
X07663Y03441*
X07669Y03437*
X07677Y03435*
X07685Y03437*
X07692Y03441*
X07696Y03448*
X07697Y03455*
X07696Y03463*
X07692Y0347*
X07685Y03474*
X07677Y03476*
X07676Y03476*
X07676Y03476*
X07676Y03476*
X07676Y03476*
X07629Y03523*
X07631Y03527*
X07667*
X07717Y03477*
X07717Y03477*
X07717Y03476*
X07717Y03476*
X07717Y03475*
X07719Y03468*
X07723Y03461*
X07729Y03457*
X07737Y03455*
X07745Y03457*
X07752Y03461*
X07756Y03468*
X07757Y03475*
X07756Y03483*
X07752Y0349*
X07745Y03494*
X07737Y03496*
X07736Y03496*
X07736Y03496*
X07736Y03496*
X07736Y03496*
X07682Y0355*
X07677Y03553*
X07672Y03554*
X07362*
X07359Y03559*
X0736Y03565*
X07359Y0357*
X07359Y0357*
X07363Y03573*
X07367Y03571*
X07375Y03569*
X07382Y03571*
X07389Y03575*
X07393Y03582*
X07395Y0359*
X07393Y03597*
X07389Y03604*
X07382Y03608*
X07375Y0361*
X07367Y03608*
X07363Y03606*
X07362Y03606*
X07303*
X07299Y03611*
X073Y03615*
X07299Y0362*
X07302Y03625*
X07888*
X07924Y03589*
Y0356*
X07925Y03554*
X07929Y03549*
X07959Y03519*
X07964Y03515*
X0797Y03514*
X08075*
X0808Y03515*
X08085Y03519*
X08098Y03531*
X08103Y03529*
Y03427*
X08102*
X08104Y03404*
X0811Y03381*
X08118Y0336*
X08131Y0334*
X08146Y03322*
X08164Y03307*
X08183Y03295*
X08205Y03286*
X08228Y0328*
X08251Y03279*
Y03279*
X0827*
X0827*
X08275*
X08279Y03278*
X08287Y03277*
X08299Y03273*
X08309Y03265*
X08317Y03255*
X08321Y03243*
X08323Y03231*
X08323Y0323*
Y00825*
X08323Y00825*
X08321Y00812*
X08317Y00801*
X08309Y00791*
X08299Y00783*
X08287Y00778*
X08275Y00776*
X08275Y00776*
X07274*
X07272Y0078*
X07272Y00781*
X07276Y00788*
X07277Y00795*
X07276Y00803*
X07272Y0081*
X07265Y00814*
X07257Y00816*
X07255Y00815*
X07255Y00815*
X07254Y00815*
X07225Y00845*
X0722Y00848*
X07215Y00849*
X06908*
X06904Y00854*
X06905Y00859*
X06904Y00865*
X06907Y0087*
X07329*
X07384Y00815*
Y00814*
X07384Y00814*
X07384Y00813*
X07382Y00805*
X07384Y00798*
X07388Y00791*
X07394Y00787*
X07402Y00785*
X0741Y00787*
X07417Y00791*
X07421Y00798*
X07422Y00805*
X07421Y00813*
X07417Y0082*
X0741Y00824*
X0741Y00824*
X07409Y00826*
X07407Y0083*
X0735Y00887*
X07352Y00891*
X07458*
X07522Y00827*
X07522Y00827*
X07522Y00826*
X07522Y00826*
X07522Y00825*
X07524Y00818*
X07528Y00811*
X07534Y00807*
X07542Y00805*
X0755Y00807*
X07557Y00811*
X07561Y00818*
X07562Y00825*
X07561Y00833*
X07557Y0084*
X0755Y00844*
X07542Y00846*
X07541Y00846*
X07541Y00846*
X07541Y00846*
X07541Y00846*
X07473Y00914*
X07468Y00917*
X07463Y00918*
X05751*
X05748Y00923*
X0575Y0093*
X05748Y00937*
X05744Y00944*
X05737Y00948*
X0573Y0095*
X05722Y00948*
X05715Y00944*
X05715Y00943*
X05715Y00943*
X05714Y00943*
X05714Y00943*
X03594*
X03584Y00952*
X03586Y00957*
X04772*
X04777Y00958*
X04782Y00961*
X04798Y00977*
X06046*
X06046Y00977*
X0605Y0097*
X06057Y00966*
X06065Y00964*
X06072Y00966*
X06079Y0097*
X06083Y00977*
X06085Y00985*
X06083Y00992*
X06083Y00993*
X06085Y00997*
X06093*
X06093Y00997*
X06094Y00997*
X06094Y00997*
X06096Y00996*
X06097Y00996*
X06105Y00994*
X06112Y00996*
X06119Y01*
X06123Y01007*
X06125Y01015*
X06123Y01022*
X06119Y01029*
X06112Y01033*
X06105Y01035*
X06097Y01033*
X0609Y01029*
X06087Y01024*
X04777*
X04772Y01023*
X04772Y01023*
X04767Y01025*
X04766Y01028*
X04762Y01035*
X04755Y01039*
X04747Y01041*
X04746Y01041*
X04746Y01041*
X04746Y01041*
X04746Y01041*
X04732Y01055*
X04727Y01058*
X04722Y01059*
X04486*
X04483Y01064*
X04486Y01068*
X04487Y01075*
X04486Y01083*
X04482Y0109*
X04475Y01094*
X04467Y01096*
X04459Y01094*
X04453Y0109*
X04449Y01083*
X04447Y01075*
X04449Y01068*
X04453Y01061*
X04454Y01061*
X04454Y01061*
X04454Y0106*
X04454Y0106*
Y01055*
X04455Y0105*
X04458Y01046*
X04465Y01039*
X04463Y01034*
X04436*
X04433Y01039*
X04436Y01043*
X04437Y0105*
X04436Y01058*
X04432Y01065*
X04425Y01069*
X04417Y01071*
X04409Y01069*
X04403Y01065*
X04399Y01058*
X04397Y0105*
X04399Y01043*
X04403Y01036*
X04404Y01036*
X04404Y01036*
X04404Y01035*
X04404Y01035*
Y0103*
X04405Y01025*
X04408Y01021*
X04415Y01014*
X04413Y01009*
X03598*
X0355Y01056*
Y01613*
X03554Y01615*
X03555Y01615*
X03571Y01599*
Y0145*
X03572Y01444*
X03575Y0144*
X0361Y01405*
X03614Y01402*
X0362Y01401*
X03723*
X03878Y01246*
X03882Y01243*
X03887Y01242*
X05062*
X05163Y01141*
X05167Y01138*
X05172Y01137*
X05224*
X05225Y01132*
X0522Y01129*
X0522Y01128*
X0522Y01128*
X05219Y01128*
X05219Y01128*
X04308*
X04308Y01128*
X04308Y01128*
X04307Y01128*
X04307Y0113*
X043Y01134*
X04292Y01136*
X04284Y01134*
X04278Y0113*
X04274Y01123*
X04272Y01115*
X04274Y01108*
X04278Y01101*
X04284Y01097*
X04292Y01095*
X043Y01097*
X04304Y011*
X04305Y011*
X04306Y011*
X04306Y01101*
X04306Y01101*
X04307Y01101*
X04307Y01101*
X04307Y01101*
X05219*
X05219Y01101*
X0522Y01101*
X0522Y01101*
X0522Y011*
X05227Y01096*
X05235Y01094*
X05242Y01096*
X05249Y011*
X05253Y01107*
X05255Y01115*
X05253Y01122*
X05249Y01129*
X05244Y01132*
X05245Y01137*
X0609*
X06096Y01138*
X061Y01141*
X06145Y01186*
X06167*
X06167Y01186*
X06167Y01186*
X06168Y01186*
X06168Y01185*
X06175Y01181*
X06182Y01179*
X0619Y01181*
X06197Y01185*
X06201Y01192*
X06203Y012*
X06202Y01204*
X06205Y01209*
X06207Y0121*
X06208Y0121*
X06213Y01206*
X0622Y01205*
X06228Y01206*
X06235Y01211*
X06239Y01217*
X06241Y01225*
X06239Y01233*
X06235Y01239*
X06228Y01244*
X0622Y01245*
X06213Y01244*
X06206Y01239*
X06206Y01239*
X06206Y01238*
X06205Y01238*
X06205Y01238*
X06135*
X0613Y01237*
X06126Y01234*
X06075Y01184*
X05733*
X05729Y01188*
X0573Y0119*
X05729Y01192*
X05733Y01197*
X05852*
X05852Y01197*
X05852Y01197*
X05852Y01197*
X05853Y01196*
X05859Y01192*
X05867Y0119*
X05875Y01192*
X05881Y01196*
X05886Y01203*
X05887Y01211*
X05887Y01212*
X0589Y01216*
X05897*
X05899Y01217*
X05906Y01215*
X05914Y01217*
X05921Y01221*
X05925Y01228*
X05927Y01235*
X05926Y01238*
X05927Y01239*
X05931Y01241*
X05938Y01237*
X05946Y01235*
X05954Y01237*
X0596Y01241*
X05964Y01248*
X05966Y01255*
X05965Y01262*
X05967Y01267*
X06004*
X06005Y01267*
X06005Y01267*
X06005Y01267*
X06005Y01266*
X06012Y01262*
X0602Y0126*
X06027Y01262*
X06034Y01266*
X06038Y01273*
X0604Y0128*
X06038Y01288*
X06034Y01295*
X06027Y01299*
X0602Y01301*
X06012Y01299*
X06005Y01295*
X06005Y01294*
X06005Y01294*
X06005Y01294*
X06004Y01294*
X05858*
X0583Y01321*
Y01785*
X05829Y01791*
X05827Y01795*
X05698Y01924*
X05693Y01927*
X05688Y01928*
X05585*
X05585Y01928*
X05584Y01928*
X05584Y01928*
X05584Y01929*
X05577Y01933*
X0557Y01935*
X05562Y01933*
X0556Y01932*
X05555Y01935*
Y02003*
X05678Y02126*
X05683Y02134*
X05685Y02143*
Y02535*
X05683Y02544*
X05678Y02552*
X05673Y02557*
X05666Y02562*
X05657Y02563*
X05648Y02562*
X05641Y02557*
X05636Y02549*
X05634Y0254*
X05636Y02532*
X05639Y02527*
Y02152*
X05516Y02029*
X05511Y02021*
X05509Y02013*
Y01815*
X05378Y01683*
X05282*
X05279Y01684*
X05275Y01684*
X05272Y01685*
X05268Y01687*
X05265Y01688*
X05261Y0169*
X05258Y01692*
X05256Y01694*
X05183Y01767*
X05176Y01772*
X05167Y01773*
X04782*
X0461Y01945*
Y0229*
X04608Y02299*
X04603Y02307*
X04148Y02762*
X04141Y02767*
X04132Y02768*
X03642*
X03633Y02767*
X03626Y02762*
X0353Y02665*
X03528Y02664*
X03526Y02663*
X03524Y02662*
X03522Y02662*
X03521Y02662*
X03519Y02663*
X03517Y02664*
X03515Y02665*
X03213Y02967*
X03206Y02972*
X03197Y02973*
X03157*
X03148Y02972*
X03141Y02967*
X03138Y02963*
X03017*
X02958Y03022*
X02951Y03027*
X02942Y03028*
X02827*
X02818Y03027*
X02811Y03022*
X02758Y02968*
X02652*
X02628Y02992*
X02621Y02997*
X02618Y02997*
X02617Y03*
X0261Y03004*
X02602Y03006*
X02594Y03004*
X02588Y03*
X02584Y02993*
X02582Y02985*
X02583Y02979*
X02496Y02892*
X02476Y02872*
X02343Y02738*
X02317*
X02308Y02737*
X02301Y02732*
X02271Y02702*
X02266Y02694*
X02264Y02685*
Y02655*
X02266Y02647*
X02271Y02639*
X02279Y02631*
Y02555*
X02236Y02512*
X02231Y02504*
X02229Y02495*
Y0223*
X02231Y02222*
X02236Y02214*
X02274Y02176*
Y02075*
X02276Y02067*
X02281Y02059*
X02436Y01904*
X02443Y01899*
X02452Y01898*
X02459Y01899*
X02467Y01897*
X02476Y01899*
X02483Y01904*
X02502Y01923*
X02588*
X02791Y01719*
X02799Y01714*
X02807Y01712*
X03135*
X03136Y01707*
X03141Y01699*
X03194Y01646*
Y0147*
X03196Y01462*
X03201Y01454*
X03239Y01416*
Y013*
Y01165*
X03241Y01157*
X03246Y01149*
X03356Y01039*
X03363Y01034*
X03372Y01033*
X03403*
X03439Y00996*
Y0097*
X03441Y00962*
X03446Y00954*
X03453Y00949*
X03462Y00948*
X03471Y00949*
X03478Y00954*
X03483Y00962*
X03485Y0097*
Y01005*
X03485Y01007*
X03489Y01009*
X03579Y0092*
X03583Y00917*
X03588Y00916*
X05039*
X05042Y00912*
X05042Y0091*
X05043Y00905*
X05039Y00904*
X05033Y009*
X05029Y00893*
X05027Y00885*
X05029Y00878*
X05032Y00872*
X05028Y0087*
X05024Y00863*
X05022Y00855*
X05021Y00855*
X05017Y00856*
X05009Y00854*
X05003Y0085*
X04999Y00843*
X04997Y00835*
X04999Y00828*
X05003Y00821*
X05005Y0082*
X05003Y00815*
X04882*
X04879Y00819*
X0488Y00822*
X04878Y00832*
X04877Y00833*
X0488Y00837*
X04912*
X04912Y00837*
X04912Y00837*
X04912Y00837*
X04913Y00836*
X04919Y00832*
X04927Y0083*
X04935Y00832*
X04942Y00836*
X04946Y00843*
X04947Y0085*
X04946Y00858*
X04942Y00865*
X04935Y00869*
X04927Y00871*
X04919Y00869*
X04913Y00865*
X04912Y00864*
X04912Y00864*
X04912Y00864*
X04912Y00864*
X01873*
X0179Y00946*
Y0109*
X01789Y01096*
X01787Y011*
X01705Y01181*
Y01295*
X01704Y01301*
X01702Y01305*
X01575Y01431*
Y01939*
X0158Y01942*
X01586Y01941*
X01594Y01943*
X016Y01947*
X01601Y01948*
X01601Y01948*
X01601Y01948*
X01601Y01948*
X01604*
X01608Y01945*
X01613Y01944*
X02144*
X02149Y01945*
X02154Y01948*
X02217Y02011*
X02219Y02015*
X0222Y0202*
Y02085*
X02222Y0209*
X0223Y02092*
X02237Y02096*
X02241Y02103*
X02242Y0211*
X02241Y02118*
X02237Y02125*
X0223Y02129*
X02222Y02131*
X02214Y02129*
X02208Y02125*
X02204Y02118*
X02202Y0211*
X02202Y0211*
X02202Y02109*
X02202Y02109*
X02202Y02109*
X02198Y02105*
X02195Y02101*
X02194Y02095*
Y02026*
X02139Y01971*
X01618*
X01614Y01974*
X01609Y01975*
X01601*
X01601Y01975*
X01601Y01975*
X01601Y01975*
X016Y01976*
X01594Y0198*
X01586Y01982*
X0158Y0198*
X01575Y01984*
Y02145*
X01599Y02168*
X01631*
X01631Y02168*
X01631Y02168*
X01631Y02168*
X01631Y02167*
X01638Y02163*
X01646Y02161*
X01654Y02163*
X0166Y02167*
X01664Y02174*
X01666Y02181*
X01664Y02189*
X0166Y02196*
X01654Y022*
X01646Y02202*
X01638Y022*
X01631Y02196*
X01631Y02195*
X01631Y02195*
X01631Y02195*
X01631Y02195*
X01593*
X01588Y02194*
X01584Y02191*
X01553Y0216*
X0155Y02156*
X01549Y0215*
Y01425*
X0155Y0142*
X01553Y01416*
X01679Y0129*
Y01175*
X0168Y0117*
X01683Y01166*
X01764Y01085*
Y0094*
X01765Y00935*
X01768Y00931*
X01858Y00841*
X01862Y00838*
X01867Y00837*
X04826*
X04828Y00833*
X04808Y00813*
X04803Y00804*
X04801Y00795*
X04803Y00785*
X04805Y00781*
X04802Y00776*
X01058*
X01058Y00776*
X01045Y00778*
X01034Y00783*
X01024Y00791*
X01016Y00801*
X01011Y00812*
X0101Y0082*
X0101Y00825*
Y0083*
Y0179*
X0101*
X01008Y01813*
X01003Y01835*
X00994Y01857*
X00981Y01877*
X00966Y01895*
X00949Y0191*
X00929Y01922*
X00907Y01931*
X00884Y01936*
X00861Y01938*
Y01938*
X00775*
Y01938*
X00767Y01939*
X0076Y01942*
X00754Y01946*
X0075Y01952*
X00747Y01959*
X00746Y01967*
X00746*
Y0323*
X00746Y03231*
X00747Y03243*
X00752Y03255*
X0076Y03265*
X0077Y03273*
X00782Y03277*
X00789Y03278*
X00794Y03279*
X00799*
X00813*
X00818Y03279*
Y03279*
X00823Y03279*
X00841Y0328*
X00864Y03286*
X00885Y03295*
X00905Y03307*
X00923Y03322*
X00938Y0334*
X0095Y0336*
X00959Y03381*
X00965Y03404*
X00966Y03427*
X00966*
Y03671*
X00966Y03672*
X00968Y03684*
X00973Y03696*
X0098Y03706*
X0099Y03713*
X01002Y03718*
X01014Y0372*
X01015Y0372*
G37*
G36*
X03975Y0342D02*
X03975Y0342D01*
X03975Y03419*
X03976Y03418*
X03976Y03418*
X03976Y03417*
X03977Y03416*
X03978Y03416*
X03979Y03414*
X03972Y03407*
X03971Y03408*
X0397Y03409*
X03969Y03409*
X03968Y0341*
X03968Y0341*
X03967Y03411*
X03966Y03411*
X03966Y03411*
X03965Y03411*
X03975Y03421*
X03975Y0342*
G37*
G36*
X03924Y03408D02*
X03925Y03407D01*
X03926Y03406*
X03927Y03406*
X03927Y03406*
X03928Y03405*
X03928Y03405*
X03929Y03405*
X0393Y03405*
X0392Y03395*
X0392Y03396*
X0392Y03396*
X03919Y03397*
X03919Y03398*
X03919Y03398*
X03918Y03399*
X03918Y034*
X03917Y034*
X03916Y03402*
X03923Y03409*
X03924Y03408*
G37*
G36*
X03255Y03389D02*
X03255Y03389D01*
X03254Y03389*
X03254Y0339*
X03253Y0339*
X03252Y0339*
X03252Y0339*
X03251Y0339*
X0325Y0339*
X03248Y0339*
Y034*
X03249Y034*
X03251Y03401*
X03252Y03401*
X03252Y03401*
X03253Y03401*
X03254Y03401*
X03254Y03402*
X03255Y03402*
X03255Y03402*
Y03389*
G37*
G36*
X0328Y03363D02*
X0328Y03363D01*
X03279Y03364*
X03279Y03364*
X03278Y03364*
X03277Y03364*
X03277Y03365*
X03276Y03365*
X03275Y03365*
X03273Y03365*
Y03375*
X03274Y03375*
X03276Y03375*
X03277Y03375*
X03277Y03375*
X03278Y03376*
X03279Y03376*
X03279Y03376*
X0328Y03376*
X0328Y03377*
Y03363*
G37*
G36*
X03255Y03337D02*
X03255Y03338D01*
X03254Y03338*
X03254Y03338*
X03253Y03339*
X03252Y03339*
X03252Y03339*
X03251Y03339*
X0325Y03339*
X03248Y03339*
Y03349*
X03249Y03349*
X03251Y03349*
X03252Y0335*
X03252Y0335*
X03253Y0335*
X03254Y0335*
X03254Y0335*
X03255Y03351*
X03255Y03351*
Y03337*
G37*
G36*
X0328Y03314D02*
X0328Y03314D01*
X03279Y03314*
X03279Y03315*
X03278Y03315*
X03277Y03315*
X03277Y03315*
X03276Y03315*
X03275Y03315*
X03273Y03315*
Y03325*
X03274Y03325*
X03276Y03326*
X03277Y03326*
X03277Y03326*
X03278Y03326*
X03279Y03326*
X03279Y03327*
X0328Y03327*
X0328Y03327*
Y03314*
G37*
G36*
X03255Y03289D02*
X03255Y03289D01*
X03254Y03289*
X03254Y0329*
X03253Y0329*
X03252Y0329*
X03252Y0329*
X03251Y0329*
X0325Y0329*
X03248Y0329*
Y033*
X03249Y033*
X03251Y03301*
X03252Y03301*
X03252Y03301*
X03253Y03301*
X03254Y03301*
X03254Y03302*
X03255Y03302*
X03255Y03302*
Y03289*
G37*
G36*
X0328Y03264D02*
X0328Y03264D01*
X03279Y03264*
X03279Y03265*
X03278Y03265*
X03277Y03265*
X03277Y03265*
X03276Y03265*
X03275Y03265*
X03273Y03265*
Y03275*
X03274Y03275*
X03276Y03276*
X03277Y03276*
X03277Y03276*
X03278Y03276*
X03279Y03276*
X03279Y03277*
X0328Y03277*
X0328Y03277*
Y03264*
G37*
G36*
X03863Y03273D02*
X03864Y03273D01*
X03864Y03272*
X03865Y03272*
X03866Y03272*
X03866Y03272*
X03867Y03271*
X03868Y03271*
X0387Y03271*
Y03261*
X03869Y03261*
X03867Y03261*
X03866Y03261*
X03866Y03261*
X03865Y03261*
X03864Y0326*
X03864Y0326*
X03863Y0326*
X03863Y03259*
Y03273*
X03863Y03273*
G37*
G36*
X03893Y03248D02*
X03894Y03248D01*
X03894Y03247*
X03895Y03247*
X03896Y03247*
X03896Y03247*
X03897Y03246*
X03898Y03246*
X039Y03246*
Y03236*
X03899Y03236*
X03897Y03236*
X03896Y03236*
X03896Y03236*
X03895Y03236*
X03894Y03235*
X03894Y03235*
X03893Y03235*
X03893Y03234*
Y03248*
X03893Y03248*
G37*
G36*
X03863Y03223D02*
X03864Y03223D01*
X03864Y03222*
X03865Y03222*
X03866Y03222*
X03866Y03222*
X03867Y03221*
X03868Y03221*
X0387Y03221*
Y03211*
X03869Y03211*
X03867Y03211*
X03866Y03211*
X03866Y03211*
X03865Y03211*
X03864Y0321*
X03864Y0321*
X03863Y0321*
X03863Y03209*
Y03223*
X03863Y03223*
G37*
G36*
X0316Y03182D02*
X03161Y03181D01*
X03162Y0318*
X03162Y0318*
X03163Y03179*
X03164Y03179*
X03165Y03179*
X03166Y03179*
X03167Y03178*
X03167Y03178*
Y03172*
X03167Y03172*
X03166Y03172*
X03165Y03172*
X03164Y03172*
X03163Y03171*
X03162Y03171*
X03162Y03171*
X03161Y0317*
X0316Y03169*
X03159Y03169*
Y03182*
X0316Y03182*
G37*
G36*
X03195Y03157D02*
X03196Y03156D01*
X03197Y03155*
X03197Y03155*
X03198Y03154*
X03199Y03154*
X032Y03154*
X03201Y03154*
X03202Y03153*
X03202Y03153*
Y03147*
X03202Y03147*
X03201Y03147*
X032Y03147*
X03199Y03147*
X03198Y03146*
X03197Y03146*
X03197Y03146*
X03196Y03145*
X03195Y03144*
X03194Y03144*
Y03157*
X03195Y03157*
G37*
G36*
X0273Y03147D02*
X02731Y03146D01*
X02732Y03145*
X02732Y03145*
X02733Y03144*
X02734Y03144*
X02735Y03144*
X02736Y03144*
X02737Y03143*
X02737Y03143*
Y03137*
X02737Y03137*
X02736Y03137*
X02735Y03137*
X02734Y03137*
X02733Y03136*
X02732Y03136*
X02732Y03136*
X02731Y03135*
X0273Y03134*
X02729Y03134*
Y03147*
X0273Y03147*
G37*
G36*
X0316Y03137D02*
X03161Y03136D01*
X03162Y03135*
X03162Y03135*
X03163Y03134*
X03164Y03134*
X03165Y03134*
X03166Y03134*
X03167Y03133*
X03167Y03133*
Y03127*
X03167Y03127*
X03166Y03127*
X03165Y03127*
X03164Y03127*
X03163Y03126*
X03162Y03126*
X03162Y03126*
X03161Y03125*
X0316Y03124*
X03159Y03124*
Y03137*
X0316Y03137*
G37*
G36*
X046Y03114D02*
X04599Y03114D01*
X04599Y03115*
X04598Y03116*
X04597Y03116*
X04596Y03116*
X04595Y03117*
X04595Y03117*
X04594Y03117*
X04593Y03117*
X04592Y03117*
Y03123*
X04593Y03123*
X04594Y03124*
X04595Y03124*
X04595Y03124*
X04596Y03124*
X04597Y03125*
X04598Y03125*
X04599Y03126*
X04599Y03127*
X046Y03127*
Y03114*
G37*
G36*
X02705Y03127D02*
X02706Y03126D01*
X02707Y03125*
X02707Y03125*
X02708Y03124*
X02709Y03124*
X0271Y03124*
X02711Y03124*
X02712Y03123*
X02712Y03123*
Y03117*
X02712Y03117*
X02711Y03117*
X0271Y03117*
X02709Y03117*
X02708Y03116*
X02707Y03116*
X02707Y03116*
X02706Y03115*
X02705Y03114*
X02704Y03114*
Y03127*
X02705Y03127*
G37*
G36*
X0273Y03107D02*
X02731Y03106D01*
X02732Y03105*
X02732Y03105*
X02733Y03104*
X02734Y03104*
X02735Y03104*
X02736Y03104*
X02737Y03103*
X02737Y03103*
Y03097*
X02737Y03097*
X02736Y03097*
X02735Y03097*
X02734Y03097*
X02733Y03096*
X02732Y03096*
X02732Y03096*
X02731Y03095*
X0273Y03094*
X02729Y03094*
Y03107*
X0273Y03107*
G37*
G36*
X0373Y03067D02*
X03731Y03066D01*
X03732Y03065*
X03732Y03065*
X03733Y03064*
X03734Y03064*
X03735Y03064*
X03736Y03064*
X03737Y03063*
X03737Y03063*
Y03057*
X03737Y03057*
X03736Y03057*
X03735Y03057*
X03734Y03057*
X03733Y03056*
X03732Y03056*
X03732Y03056*
X03731Y03055*
X0373Y03054*
X03729Y03054*
Y03067*
X0373Y03067*
G37*
G36*
X03705Y03047D02*
X03706Y03046D01*
X03707Y03045*
X03707Y03045*
X03708Y03044*
X03709Y03044*
X0371Y03044*
X03711Y03044*
X03712Y03043*
X03712Y03043*
Y03037*
X03712Y03037*
X03711Y03037*
X0371Y03037*
X03709Y03037*
X03708Y03036*
X03707Y03036*
X03707Y03036*
X03706Y03035*
X03705Y03034*
X03704Y03034*
Y03047*
X03705Y03047*
G37*
G36*
X07442Y03021D02*
X07441Y03021D01*
X07441Y0302*
X0744Y0302*
X07439Y0302*
X07438Y0302*
X07437Y03019*
X07437Y03019*
X07436Y03018*
X07435Y03018*
X07435Y03017*
X07429Y03023*
X0743Y03023*
X0743Y03024*
X07431Y03025*
X07431Y03026*
X07432Y03026*
X07432Y03027*
X07432Y03028*
X07432Y03029*
X07432Y0303*
X07432Y0303*
X07442Y03021*
G37*
G36*
X0373Y03027D02*
X03731Y03026D01*
X03732Y03025*
X03732Y03025*
X03733Y03024*
X03734Y03024*
X03735Y03024*
X03736Y03024*
X03737Y03023*
X03737Y03023*
Y03017*
X03737Y03017*
X03736Y03017*
X03735Y03017*
X03734Y03017*
X03733Y03016*
X03732Y03016*
X03732Y03016*
X03731Y03015*
X0373Y03014*
X03729Y03014*
Y03027*
X0373Y03027*
G37*
G36*
X07616Y02666D02*
X07616Y02665D01*
X07616Y02664*
X07617Y02664*
X07617Y02663*
X07617Y02662*
X07618Y02662*
X07618Y02662*
X07619Y02661*
X07619Y02661*
X07607*
X07608Y02661*
X07608Y02662*
X07609Y02662*
X07609Y02662*
X07609Y02663*
X0761Y02664*
X0761Y02664*
X0761Y02665*
X0761Y02666*
X0761Y02667*
X07616*
X07616Y02666*
G37*
G36*
X05096D02*
X05097Y02665D01*
X05097Y02664*
X05097Y02664*
X05097Y02663*
X05098Y02662*
X05098Y02662*
X05098Y02662*
X05099Y02661*
X05099Y02661*
X05087*
X05088Y02661*
X05089Y02662*
X05089Y02662*
X05089Y02662*
X0509Y02663*
X0509Y02664*
X0509Y02664*
X0509Y02665*
X0509Y02666*
X0509Y02667*
X05096*
X05096Y02666*
G37*
G36*
X03558Y02643D02*
X03554Y0264D01*
X03552Y02636*
X0355Y02633*
X03549Y02629*
X03549Y02625*
X03549Y02622*
X0355Y02618*
X03552Y02615*
X03554Y02611*
X03558Y02608*
X0354Y0259*
X03528Y02601*
X03525Y02605*
X03523Y02606*
X03522Y02606*
X03521Y02607*
X03521Y02607*
X03503Y02624*
X03503Y02625*
X0349Y0264*
X03487Y02643*
X03505Y02661*
X03508Y02658*
X03512Y02655*
X03515Y02653*
X03519Y02652*
X03522Y02652*
X03526Y02652*
X03529Y02653*
X03533Y02655*
X03536Y02658*
X0354Y02661*
X03558Y02643*
G37*
G36*
X07457Y02627D02*
X07457Y02626D01*
X07458Y02625*
X07459Y02625*
X0746Y02625*
X0746Y02624*
X07461Y02624*
X07462Y02624*
X07463Y02624*
X07464Y02624*
X07454Y02614*
X07454Y02615*
X07454Y02616*
X07454Y02616*
X07453Y02617*
X07453Y02618*
X07453Y02619*
X07452Y02619*
X07452Y0262*
X07451Y02621*
X0745Y02622*
X07456Y02627*
X07457Y02627*
G37*
G36*
X03423Y02618D02*
X03423Y02617D01*
X03422Y02616*
X03422Y02615*
X03421Y02614*
X03421Y02614*
X03421Y02613*
X0342Y02612*
X0342Y02611*
X0342Y0261*
X03414*
X03414Y02611*
X03414Y02612*
X03414Y02613*
X03414Y02614*
X03413Y02614*
X03413Y02615*
X03412Y02616*
X03412Y02617*
X03411Y02618*
X0341Y02618*
X03424*
X03423Y02618*
G37*
G36*
X0816Y02544D02*
X0816Y02544D01*
X08159Y02545*
X08158Y02545*
X08158Y02545*
X08157Y02546*
X08156Y02546*
X08155Y02546*
X08154Y02546*
X08153Y02546*
X08152Y02546*
Y02554*
X08153Y02554*
X08154Y02555*
X08155Y02555*
X08156Y02555*
X08157Y02555*
X08158Y02555*
X08158Y02556*
X08159Y02556*
X0816Y02557*
X0816Y02557*
Y02544*
G37*
G36*
X08177Y0255D02*
X08177Y02549D01*
X08177Y02548*
X08178Y02547*
X08178Y02546*
X08178Y02546*
X08179Y02545*
X08179Y02544*
X0818Y02543*
X08181Y02543*
X08175Y02537*
X08174Y02538*
X08173Y02538*
X08173Y02539*
X08172Y02539*
X08171Y0254*
X0817Y0254*
X0817Y0254*
X08169Y0254*
X08168Y02541*
X08167Y02541*
X08177Y0255*
X08177Y0255*
G37*
G36*
X02342Y02532D02*
X02342Y02532D01*
X02342Y02531*
X02342Y02531*
X02341Y0253*
X02341Y0253*
X02341Y02529*
X02341Y02528*
X02341Y02527*
X02341Y02526*
X02335*
X02335Y02527*
X02335Y02528*
X02335Y02529*
X02335Y02529*
X02334Y0253*
X02334Y0253*
X02334Y02531*
X02334Y02531*
X02333Y02531*
X02333Y02532*
X02343Y02532*
X02342Y02532*
G37*
G36*
X03475Y02524D02*
X03474Y02524D01*
X03474Y02525*
X03473Y02526*
X03472Y02526*
X03471Y02526*
X0347Y02527*
X0347Y02527*
X03469Y02527*
X03468Y02527*
X03467Y02527*
Y02533*
X03468Y02533*
X03469Y02534*
X0347Y02534*
X0347Y02534*
X03471Y02534*
X03472Y02535*
X03473Y02535*
X03474Y02536*
X03474Y02537*
X03475Y02537*
Y02524*
G37*
G36*
X03756Y02442D02*
X03755Y02441D01*
X03754Y0244*
X03754Y02439*
X03753Y02439*
X03753Y02438*
X03753Y02437*
X03753Y02436*
X03753Y02435*
X03753Y02434*
X03747*
X03746Y02435*
X03746Y02436*
X03746Y02437*
X03746Y02438*
X03746Y02439*
X03745Y02439*
X03745Y0244*
X03744Y02441*
X03743Y02442*
X03743Y02442*
X03756*
X03756Y02442*
G37*
G36*
X03776Y02417D02*
X03775Y02416D01*
X03774Y02415*
X03774Y02414*
X03773Y02414*
X03773Y02413*
X03773Y02412*
X03773Y02411*
X03773Y0241*
X03773Y02409*
X03767*
X03766Y0241*
X03766Y02411*
X03766Y02412*
X03766Y02413*
X03766Y02414*
X03765Y02414*
X03765Y02415*
X03764Y02416*
X03763Y02417*
X03763Y02417*
X03776*
X03776Y02417*
G37*
G36*
X03027Y02419D02*
X03027Y02418D01*
X03027Y02417*
X03028Y02416*
X03028Y02415*
X03028Y02415*
X03029Y02414*
X03029Y02413*
X0303Y02412*
X0303Y02412*
X03026Y02408*
X03025Y02408*
X03025Y02409*
X03024Y02409*
X03023Y0241*
X03022Y0241*
X03021Y0241*
X0302Y0241*
X03019Y0241*
X03018Y02411*
X03017Y02411*
X03027Y0242*
X03027Y02419*
G37*
G36*
X03067Y02409D02*
X03067Y02408D01*
X03067Y02407*
X03068Y02406*
X03068Y02405*
X03068Y02405*
X03069Y02404*
X03069Y02403*
X0307Y02402*
X0307Y02402*
X03066Y02398*
X03065Y02398*
X03065Y02399*
X03064Y02399*
X03063Y024*
X03062Y024*
X03061Y024*
X0306Y024*
X03059Y024*
X03058Y02401*
X03057Y02401*
X03067Y0241*
X03067Y02409*
G37*
G36*
X03002Y02384D02*
X03002Y02383D01*
X03002Y02382*
X03003Y02381*
X03003Y0238*
X03003Y0238*
X03004Y02379*
X03004Y02378*
X03005Y02377*
X03005Y02377*
X03001Y02373*
X03Y02373*
X03Y02374*
X02999Y02374*
X02998Y02375*
X02997Y02375*
X02996Y02375*
X02995Y02375*
X02994Y02375*
X02993Y02376*
X02992Y02376*
X03002Y02385*
X03002Y02384*
G37*
G36*
X03037Y02379D02*
X03037Y02378D01*
X03037Y02377*
X03038Y02376*
X03038Y02375*
X03038Y02375*
X03039Y02374*
X03039Y02373*
X0304Y02372*
X0304Y02372*
X03036Y02368*
X03035Y02368*
X03035Y02369*
X03034Y02369*
X03033Y0237*
X03032Y0237*
X03031Y0237*
X0303Y0237*
X03029Y0237*
X03028Y02371*
X03027Y02371*
X03037Y0238*
X03037Y02379*
G37*
G36*
X02477Y02324D02*
X02477Y02323D01*
X02477Y02322*
X02478Y02321*
X02478Y0232*
X02478Y0232*
X02479Y02319*
X02479Y02318*
X0248Y02317*
X0248Y02317*
X02476Y02313*
X02475Y02313*
X02475Y02314*
X02474Y02314*
X02473Y02315*
X02472Y02315*
X02471Y02315*
X0247Y02315*
X02469Y02315*
X02468Y02316*
X02467Y02316*
X02477Y02325*
X02477Y02324*
G37*
G36*
X02902Y02254D02*
X02902Y02253D01*
X02902Y02252*
X02903Y02251*
X02903Y0225*
X02903Y0225*
X02904Y02249*
X02904Y02248*
X02905Y02247*
X02905Y02247*
X02901Y02243*
X029Y02243*
X029Y02244*
X02899Y02244*
X02898Y02245*
X02897Y02245*
X02896Y02245*
X02895Y02245*
X02894Y02245*
X02893Y02246*
X02892Y02246*
X02902Y02255*
X02902Y02254*
G37*
G36*
X02897Y02224D02*
X02897Y02223D01*
X02897Y02222*
X02898Y02221*
X02898Y0222*
X02898Y0222*
X02899Y02219*
X02899Y02218*
X029Y02217*
X029Y02217*
X02896Y02213*
X02895Y02213*
X02895Y02214*
X02894Y02214*
X02893Y02215*
X02892Y02215*
X02891Y02215*
X0289Y02215*
X02889Y02215*
X02888Y02216*
X02887Y02216*
X02897Y02225*
X02897Y02224*
G37*
G36*
X02867D02*
X02867Y02223D01*
X02867Y02222*
X02868Y02221*
X02868Y0222*
X02868Y0222*
X02869Y02219*
X02869Y02218*
X0287Y02217*
X0287Y02217*
X02866Y02213*
X02865Y02213*
X02865Y02214*
X02864Y02214*
X02863Y02215*
X02862Y02215*
X02861Y02215*
X0286Y02215*
X02859Y02215*
X02858Y02216*
X02857Y02216*
X02867Y02225*
X02867Y02224*
G37*
G36*
X03438Y02198D02*
X03437Y02199D01*
X03437Y022*
X03437Y022*
X03436Y02201*
X03436Y02201*
X03435Y02202*
X03434Y02202*
X03433Y02202*
X03433Y02202*
X03432Y02202*
X03436Y02208*
X03436Y02208*
X03439Y02209*
X0344Y02209*
X03442Y02209*
X03443Y0221*
X03444Y0221*
X03438Y02198*
G37*
G36*
X02867Y02194D02*
X02867Y02193D01*
X02867Y02192*
X02868Y02191*
X02868Y0219*
X02868Y0219*
X02869Y02189*
X02869Y02188*
X0287Y02187*
X0287Y02187*
X02866Y02183*
X02865Y02183*
X02865Y02184*
X02864Y02184*
X02863Y02185*
X02862Y02185*
X02861Y02185*
X0286Y02185*
X02859Y02185*
X02858Y02186*
X02857Y02186*
X02867Y02195*
X02867Y02194*
G37*
G36*
X02837D02*
X02837Y02193D01*
X02837Y02192*
X02838Y02191*
X02838Y0219*
X02838Y0219*
X02839Y02189*
X02839Y02188*
X0284Y02187*
X0284Y02187*
X02836Y02183*
X02835Y02183*
X02835Y02184*
X02834Y02184*
X02833Y02185*
X02832Y02185*
X02831Y02185*
X0283Y02185*
X02829Y02185*
X02828Y02186*
X02827Y02186*
X02837Y02195*
X02837Y02194*
G37*
G36*
X01639Y02174D02*
X01638Y02175D01*
X01637Y02176*
X01636Y02176*
X01636Y02177*
X01635Y02177*
X01634Y02178*
X01633Y02178*
X01632Y02178*
X01631Y02178*
X01631Y02178*
Y02184*
X01631Y02184*
X01632Y02184*
X01633Y02185*
X01634Y02185*
X01635Y02185*
X01636Y02186*
X01636Y02186*
X01637Y02187*
X01638Y02187*
X01639Y02188*
Y02174*
G37*
G36*
X03465Y02174D02*
X03464Y02174D01*
X03464Y02175*
X03463Y02176*
X03462Y02176*
X03461Y02176*
X0346Y02177*
X0346Y02177*
X03459Y02177*
X03458Y02177*
X03457Y02177*
Y02183*
X03458Y02183*
X03459Y02184*
X0346Y02184*
X0346Y02184*
X03461Y02184*
X03462Y02185*
X03463Y02185*
X03464Y02186*
X03464Y02187*
X03465Y02187*
Y02174*
G37*
G36*
X02837Y02164D02*
X02837Y02163D01*
X02837Y02162*
X02838Y02161*
X02838Y0216*
X02838Y0216*
X02839Y02159*
X02839Y02158*
X0284Y02157*
X0284Y02157*
X02836Y02153*
X02835Y02153*
X02835Y02154*
X02834Y02154*
X02833Y02155*
X02832Y02155*
X02831Y02155*
X0283Y02155*
X02829Y02155*
X02828Y02156*
X02827Y02156*
X02837Y02165*
X02837Y02164*
G37*
G36*
X02807Y02159D02*
X02807Y02158D01*
X02807Y02157*
X02808Y02156*
X02808Y02155*
X02808Y02155*
X02809Y02154*
X02809Y02153*
X0281Y02152*
X0281Y02152*
X02806Y02148*
X02805Y02148*
X02805Y02149*
X02804Y02149*
X02803Y0215*
X02802Y0215*
X02801Y0215*
X028Y0215*
X02799Y0215*
X02798Y02151*
X02797Y02151*
X02807Y0216*
X02807Y02159*
G37*
G36*
Y02129D02*
X02807Y02128D01*
X02807Y02127*
X02808Y02126*
X02808Y02125*
X02808Y02125*
X02809Y02124*
X02809Y02123*
X0281Y02122*
X0281Y02122*
X02806Y02118*
X02805Y02118*
X02805Y02119*
X02804Y02119*
X02803Y0212*
X02802Y0212*
X02801Y0212*
X028Y0212*
X02799Y0212*
X02798Y02121*
X02797Y02121*
X02807Y0213*
X02807Y02129*
G37*
G36*
X03508Y02117D02*
X03509Y02117D01*
X03509Y02117*
X0351Y02117*
X0351Y02117*
X0351Y02117*
Y02104*
X0351Y02104*
X0351Y02104*
X03509Y02104*
X03509Y02104*
X03508Y02104*
Y02102*
X03508Y02102*
X03506Y02103*
X03505Y02103*
X03503Y02103*
X03497Y02104*
X0349Y02104*
X03481Y02104*
Y02116*
X03486Y02116*
X03503Y02117*
X03505Y02118*
X03506Y02118*
X03508Y02119*
X03508Y02119*
Y02117*
G37*
G36*
X02222Y02101D02*
X02221Y02101D01*
X0222Y021*
X02219Y021*
X02218Y021*
X02217Y021*
X02216Y021*
X02216Y02099*
X02215Y02099*
X02214Y02098*
X02214Y02098*
X02209Y02102*
X0221Y02102*
X0221Y02103*
X02211Y02104*
X02211Y02105*
X02212Y02105*
X02212Y02106*
X02212Y02107*
X02212Y02108*
X02212Y02109*
X02212Y0211*
X02222Y02101*
G37*
G36*
X03107Y02094D02*
X03107Y02093D01*
X03107Y02092*
X03108Y02091*
X03108Y0209*
X03108Y0209*
X03109Y02089*
X03109Y02088*
X0311Y02087*
X0311Y02087*
X03106Y02083*
X03105Y02083*
X03105Y02084*
X03104Y02084*
X03103Y02085*
X03102Y02085*
X03101Y02085*
X031Y02085*
X03099Y02085*
X03098Y02086*
X03097Y02086*
X03107Y02095*
X03107Y02094*
G37*
G36*
X02708Y02089D02*
X02709Y02088D01*
X02709Y02088*
X02711Y02087*
X02712Y02086*
X02714Y02086*
X02716Y02085*
X02703Y02079*
X02703Y0208*
X02704Y02081*
X02704Y02082*
X02704Y02082*
X02704Y02083*
X02703Y02084*
X02703Y02085*
X02703Y02086*
X02702Y02086*
X02701Y02087*
X02707Y02089*
X02708Y02089*
G37*
G36*
X03326Y02076D02*
X03325Y02075D01*
X03323Y02072*
X03323Y02072*
X03322Y02071*
X03322Y02071*
X03322Y02071*
X03322Y0207*
X03312Y0208*
X03312Y0208*
X03313Y0208*
X03313Y02081*
X03314Y02081*
X03314Y02081*
X03315Y02082*
X03317Y02083*
X03318Y02084*
X03326Y02076*
G37*
G36*
X03345Y02042D02*
X03346Y02041D01*
X03347Y0204*
X03347Y0204*
X03348Y02039*
X03349Y02039*
X0335Y02039*
X03351Y02039*
X03352Y02038*
X03352Y02038*
Y02032*
X03352Y02032*
X03351Y02032*
X0335Y02032*
X03349Y02032*
X03348Y02031*
X03347Y02031*
X03347Y02031*
X03346Y0203*
X03345Y02029*
X03344Y02029*
Y02042*
X03345Y02042*
G37*
G36*
X03728Y01976D02*
X03727Y0197D01*
X03729Y01963*
X03733Y01956*
X03739Y01952*
X03747Y0195*
X03755Y01952*
X0376Y01955*
X03763Y01951*
X03769Y01947*
X03777Y01945*
X03781Y01946*
X03786Y01942*
Y01855*
X03769Y01838*
X037*
X03694Y01837*
X0369Y01834*
X0364Y01784*
X03637Y0178*
X03636Y01775*
Y01655*
X03631Y0165*
X03631Y0165*
X0363Y0165*
X0363Y0165*
X0363Y0165*
X03622Y01648*
X03615Y01644*
X03612Y01638*
X03606Y01637*
X03603Y0164*
Y01738*
X03602Y01743*
X03599Y01748*
X03336Y02011*
X03338Y02015*
X03345Y02017*
X03352Y02021*
X03352Y02022*
X03352Y02022*
X03352Y02022*
X03352Y02022*
X03477*
X03479Y02018*
X03478Y02016*
X03477Y02016*
X03477Y02016*
X03469Y02014*
X03463Y0201*
X03459Y02003*
X03457Y01995*
X03459Y01988*
X03463Y01981*
X03469Y01977*
X03477Y01975*
X03477Y01975*
X03483Y01971*
X03484Y01968*
X03488Y01961*
X03494Y01957*
X03502Y01955*
X0351Y01957*
X03517Y01961*
X03517Y01962*
X03517Y01962*
X03517Y01962*
X03517Y01962*
X03632*
X03672Y01922*
X03672Y01922*
X03672Y01921*
X03672Y01921*
X03672Y0192*
X03674Y01913*
X03678Y01906*
X03684Y01902*
X03692Y019*
X037Y01902*
X03707Y01906*
X03711Y01904*
X03713Y01901*
X03719Y01897*
X03727Y01895*
X03735Y01897*
X03742Y01901*
X03746Y01908*
X03747Y01915*
X03746Y01923*
X03742Y0193*
X03735Y01934*
X03727Y01936*
X03726Y01936*
X03726Y01936*
X03726Y01936*
X03726Y01936*
X03657Y02005*
X03652Y02008*
X03647Y02009*
X03541*
X03539Y02013*
X03548Y02022*
X03682*
X03728Y01976*
G37*
G36*
X0351Y02022D02*
X03511Y02021D01*
X03512Y0202*
X03512Y0202*
X03513Y02019*
X03514Y02019*
X03515Y02019*
X03516Y02019*
X03517Y02018*
X03517Y02018*
Y02012*
X03517Y02012*
X03516Y02012*
X03515Y02012*
X03514Y02012*
X03513Y02011*
X03512Y02011*
X03512Y02011*
X03511Y0201*
X0351Y02009*
X03509Y02009*
Y02022*
X0351Y02022*
G37*
G36*
X03485Y02002D02*
X03486Y02001D01*
X03487Y02*
X03487Y02*
X03488Y01999*
X03489Y01999*
X0349Y01999*
X03491Y01999*
X03492Y01998*
X03492Y01998*
Y01992*
X03492Y01992*
X03491Y01992*
X0349Y01992*
X03489Y01992*
X03488Y01991*
X03487Y01991*
X03487Y01991*
X03486Y0199*
X03485Y01989*
X03484Y01989*
Y02002*
X03485Y02002*
G37*
G36*
X03743Y01984D02*
X03744Y01983D01*
X03744Y01983*
X03746Y01982*
X03747Y01981*
X03749Y01981*
X03751Y0198*
X03738Y01974*
X03738Y01975*
X03739Y01976*
X03739Y01977*
X03739Y01977*
X03739Y01978*
X03738Y01979*
X03738Y0198*
X03738Y01981*
X03737Y01981*
X03736Y01982*
X03742Y01984*
X03743Y01984*
G37*
G36*
X0351Y01982D02*
X03511Y01981D01*
X03512Y0198*
X03512Y0198*
X03513Y01979*
X03514Y01979*
X03515Y01979*
X03516Y01979*
X03517Y01978*
X03517Y01978*
Y01972*
X03517Y01972*
X03516Y01972*
X03515Y01972*
X03514Y01972*
X03513Y01971*
X03512Y01971*
X03512Y01971*
X03511Y0197*
X0351Y01969*
X03509Y01969*
Y01982*
X0351Y01982*
G37*
G36*
X01594Y01967D02*
X01594Y01967D01*
X01595Y01966*
X01596Y01966*
X01597Y01965*
X01598Y01965*
X01598Y01965*
X01599Y01964*
X016Y01964*
X01601Y01964*
Y01958*
X016Y01958*
X01599Y01958*
X01598Y01958*
X01598Y01958*
X01597Y01957*
X01596Y01957*
X01595Y01956*
X01594Y01956*
X01594Y01955*
X01593Y01954*
Y01968*
X01594Y01967*
G37*
G36*
X04283Y01948D02*
X04283Y01947D01*
X04282Y01946*
X04282Y01945*
X04281Y01944*
X04281Y01944*
X04281Y01943*
X0428Y01942*
X0428Y01941*
X0428Y0194*
X04274*
X04274Y01941*
X04274Y01942*
X04274Y01943*
X04274Y01944*
X04273Y01944*
X04273Y01945*
X04272Y01946*
X04272Y01947*
X04271Y01948*
X0427Y01948*
X04284*
X04283Y01948*
G37*
G36*
X04238Y01943D02*
X04238Y01942D01*
X04237Y01941*
X04237Y0194*
X04236Y01939*
X04236Y01939*
X04236Y01938*
X04235Y01937*
X04235Y01936*
X04235Y01935*
X04229*
X04229Y01936*
X04229Y01937*
X04229Y01938*
X04229Y01939*
X04228Y01939*
X04228Y0194*
X04227Y01941*
X04227Y01942*
X04226Y01943*
X04225Y01943*
X04239*
X04238Y01943*
G37*
G36*
X03684Y01933D02*
X03685Y01932D01*
X03686Y01932*
X03686Y01931*
X03687Y01931*
X03688Y01931*
X03689Y01931*
X0369Y0193*
X03691Y0193*
X03692Y0193*
X03682Y01921*
X03682Y01922*
X03682Y01923*
X03682Y01924*
X03682Y01925*
X03682Y01925*
X03681Y01926*
X03681Y01927*
X0368Y01928*
X0368Y01928*
X03679Y01929*
X03684Y01933*
X03684Y01933*
G37*
G36*
X03719Y01928D02*
X0372Y01927D01*
X03721Y01927*
X03721Y01926*
X03722Y01926*
X03723Y01926*
X03724Y01926*
X03725Y01925*
X03726Y01925*
X03727Y01925*
X03717Y01916*
X03717Y01917*
X03717Y01918*
X03717Y01919*
X03717Y0192*
X03717Y0192*
X03716Y01921*
X03716Y01922*
X03715Y01923*
X03715Y01923*
X03714Y01924*
X03719Y01928*
X03719Y01928*
G37*
G36*
X05577Y01921D02*
X05578Y0192D01*
X05579Y01919*
X0558Y01919*
X05581Y01918*
X05581Y01918*
X05582Y01918*
X05583Y01918*
X05584Y01918*
X05585Y01918*
Y01912*
X05584Y01911*
X05583Y01911*
X05582Y01911*
X05581Y01911*
X05581Y01911*
X0558Y0191*
X05579Y0191*
X05578Y01909*
X05577Y01908*
X05577Y01908*
Y01921*
X05577Y01921*
G37*
G36*
X04564Y02281D02*
Y01935D01*
X04566Y01927*
X04571Y01919*
X04756Y01734*
X04763Y01729*
X04772Y01728*
X05158*
X05223Y01662*
X05225Y0166*
X05227Y01656*
X05229Y01653*
X05231Y0165*
X05232Y01646*
X05233Y01642*
X05234Y01638*
X05234Y01635*
Y01545*
Y0152*
Y01495*
Y0147*
Y01445*
X05236Y01437*
X05241Y01429*
X05248Y01424*
X05257Y01423*
X05266Y01424*
X05273Y01429*
X05278Y01437*
X0528Y01445*
Y0147*
Y01495*
Y0152*
Y01545*
Y01627*
X05281Y01629*
X05281Y01632*
X05282Y01633*
X05283Y01634*
X05284Y01635*
X05286Y01636*
X05288Y01637*
X05291Y01638*
X05387*
X05396Y01639*
X05403Y01644*
X05548Y01789*
X05553Y01797*
X05555Y01805*
Y01894*
X0556Y01897*
X05562Y01896*
X0557Y01894*
X05577Y01896*
X05584Y019*
X05584Y01901*
X05584Y01901*
X05585Y01901*
X05585Y01901*
X05683*
X05804Y0178*
Y01765*
X05799Y01762*
X05797Y01763*
X0579Y01765*
X05782Y01763*
X05775Y01759*
X05771Y01752*
X05769Y01745*
X05765Y01742*
X05763Y01743*
X05755Y01745*
X05747Y01743*
X05741Y01739*
X05736Y01732*
X05735Y01725*
X05736Y01717*
X05741Y0171*
X05741Y0171*
X05742Y0171*
X05742Y01709*
X05742Y01709*
Y01298*
X05741Y01298*
X05735Y01294*
X0573Y01287*
X05729Y0128*
X0573Y01274*
X05727Y01269*
X05248*
X05147Y0137*
X05142Y01373*
X05137Y01374*
X04837*
X04832Y01373*
X04828Y0137*
X04817Y01359*
X04343*
X0429Y01411*
Y0194*
X04291Y0194*
X04291Y01941*
X04291Y01941*
X04292Y01941*
X04296Y01948*
X04297Y01955*
X04296Y01963*
X04292Y0197*
X04285Y01974*
X04277Y01976*
X04272Y01975*
X04269Y01975*
X04267Y01978*
X04266Y01983*
X04262Y0199*
X04255Y01994*
X04247Y01996*
X04239Y01994*
X04233Y0199*
X04229Y01983*
X04227Y01975*
X04228Y0197*
X04224Y01969*
X04218Y01965*
X04214Y01958*
X04212Y0195*
X04214Y01943*
X04218Y01936*
X04219Y01936*
X04219Y01936*
X04219Y01935*
X04219Y01935*
Y01375*
X0422Y0137*
X04223Y01366*
X04295Y01294*
X04293Y01289*
X03903*
X03748Y01444*
X03743Y01447*
X03738Y01448*
X0364*
X03623Y01465*
Y01568*
X03628Y01571*
X03635Y01569*
X03642Y01571*
X03649Y01575*
X03653Y01582*
X03655Y0159*
X03653Y01597*
X03652Y01599*
X03679Y01625*
X03682Y01629*
X03683Y01635*
Y01759*
X03715Y01791*
X0379*
X03795Y01792*
X03799Y01795*
X03829Y01825*
X03832Y01829*
X03833Y01835*
Y01995*
X03832Y02*
X03829Y02004*
X03783Y0205*
Y02409*
X03783Y02409*
X03783Y0241*
X03783Y0241*
X03784Y0241*
X03788Y02417*
X0379Y02425*
X03788Y02432*
X03784Y02439*
X03777Y02443*
X0377Y02445*
X03769Y02445*
X0377Y0245*
X03768Y02457*
X03764Y02464*
X03757Y02468*
X0375Y0247*
X03742Y02468*
X03735Y02464*
X03731Y02457*
X03729Y0245*
X03731Y02442*
X03735Y02435*
X03736Y02435*
X03736Y02435*
X03736Y02434*
X03736Y02434*
Y02042*
X03732Y0204*
X03712Y0206*
X03707Y02063*
X03702Y02064*
X03527*
X03522Y02063*
X03518Y0206*
X03507Y02049*
X03352*
X03352Y02049*
X03352Y02049*
X03352Y02049*
X03352Y0205*
X03345Y02054*
X03337Y02056*
X03331Y02055*
X03328Y02059*
X03331Y02063*
X03332Y02067*
X03359Y02094*
X0349*
X03496Y02094*
X03501Y02093*
X03503Y02093*
X03503Y02093*
X03508Y02089*
X03517Y02088*
X03526Y02089*
X03533Y02094*
X03538Y02102*
X0354Y0211*
Y02226*
X03623Y02309*
X03628Y02317*
X0363Y02325*
Y0254*
X03628Y02549*
X03623Y02557*
X03562Y02618*
X03561Y0262*
X0356Y02622*
X03559Y02624*
X03559Y02625*
X03559Y02627*
X0356Y02629*
X03561Y02631*
X03562Y02633*
X03652Y02723*
X04123*
X04564Y02281*
G37*
G36*
X05796Y01737D02*
X05795Y01736D01*
X05794Y01735*
X05794Y01734*
X05793Y01734*
X05793Y01733*
X05793Y01732*
X05793Y01731*
X05793Y0173*
X05793Y01729*
X05787*
X05786Y0173*
X05786Y01731*
X05786Y01732*
X05786Y01733*
X05786Y01734*
X05785Y01734*
X05785Y01735*
X05784Y01736*
X05783Y01737*
X05783Y01737*
X05796*
X05796Y01737*
G37*
G36*
X05761Y01717D02*
X05761Y01716D01*
X0576Y01715*
X05759Y01714*
X05759Y01714*
X05759Y01713*
X05758Y01712*
X05758Y01711*
X05758Y0171*
X05758Y01709*
X05752*
X05752Y0171*
X05752Y01711*
X05752Y01712*
X05751Y01713*
X05751Y01714*
X05751Y01714*
X0575Y01715*
X0575Y01716*
X05749Y01717*
X05748Y01717*
X05762*
X05761Y01717*
G37*
G36*
X03642Y01638D02*
X03642Y01638D01*
X03641Y01637*
X03641Y01636*
X0364Y01635*
X0364Y01634*
X0364Y01634*
X0364Y01633*
X03639Y01632*
X03639Y01631*
X03639Y0163*
X0363Y01639*
X03631Y01639*
X03632Y01639*
X03633Y0164*
X03634Y0164*
X03634Y0164*
X03635Y0164*
X03636Y01641*
X03637Y01641*
X03638Y01642*
X03638Y01642*
X03642Y01638*
G37*
G36*
X05248Y01687D02*
X05252Y01684D01*
X05256Y01682*
X0526Y01679*
X05264Y01677*
X05269Y01676*
X05273Y01675*
X05278Y01674*
X05282Y01673*
X05287Y01673*
X05295Y01648*
X0529Y01648*
X05286Y01647*
X05282Y01646*
X05279Y01644*
X05276Y01642*
X05274Y01639*
X05272Y01636*
X05271Y01632*
X0527Y01628*
X0527Y01623*
X05245Y0163*
X05245Y01635*
X05244Y0164*
X05243Y01645*
X05242Y01649*
X0524Y01653*
X05238Y01658*
X05236Y01662*
X05233Y01666*
X0523Y01669*
X05227Y01673*
X05245Y01691*
X05248Y01687*
G37*
G36*
X07284Y01592D02*
X07286Y01592D01*
X07288Y01591*
X0729Y0159*
X07293Y0159*
X07296Y01589*
X07303Y01589*
X07311Y01589*
Y01581*
X07307Y0158*
X07296Y0158*
X07293Y01579*
X0729Y01579*
X07288Y01578*
X07286Y01577*
X07284Y01577*
X07283Y01576*
Y01579*
X07283Y01579*
X07282Y01578*
X07282Y01578*
Y01591*
X07282Y01591*
X07283Y0159*
X07283Y0159*
Y01593*
X07284Y01592*
G37*
G36*
X0347Y0157D02*
X0347Y01569D01*
X03471Y01568*
X03471Y01567*
X03471Y01566*
X03472Y01566*
X03472Y01565*
X03473Y01564*
X03473Y01563*
X03474Y01562*
X0346*
X03461Y01563*
X03462Y01564*
X03462Y01565*
X03463Y01566*
X03463Y01566*
X03464Y01567*
X03464Y01568*
X03464Y01569*
X03464Y0157*
X03464Y01571*
X0347*
X0347Y0157*
G37*
G36*
X0341D02*
X0341Y01569D01*
X03411Y01568*
X03411Y01567*
X03411Y01566*
X03412Y01566*
X03412Y01565*
X03413Y01564*
X03413Y01563*
X03414Y01562*
X034*
X03401Y01563*
X03402Y01564*
X03402Y01565*
X03403Y01566*
X03403Y01566*
X03404Y01567*
X03404Y01568*
X03404Y01569*
X03404Y0157*
X03404Y01571*
X0341*
X0341Y0157*
G37*
G36*
X0335D02*
X0335Y01569D01*
X03351Y01568*
X03351Y01567*
X03351Y01566*
X03352Y01566*
X03352Y01565*
X03353Y01564*
X03353Y01563*
X03354Y01562*
X0334*
X03341Y01563*
X03342Y01564*
X03342Y01565*
X03343Y01566*
X03343Y01566*
X03344Y01567*
X03344Y01568*
X03344Y01569*
X03344Y0157*
X03344Y01571*
X0335*
X0335Y0157*
G37*
G36*
X0329D02*
X0329Y01569D01*
X03291Y01568*
X03291Y01567*
X03291Y01566*
X03292Y01566*
X03292Y01565*
X03293Y01564*
X03293Y01563*
X03294Y01562*
X0328*
X03281Y01563*
X03282Y01564*
X03282Y01565*
X03283Y01566*
X03283Y01566*
X03284Y01567*
X03284Y01568*
X03284Y01569*
X03284Y0157*
X03284Y01571*
X0329*
X0329Y0157*
G37*
G36*
X0344Y0155D02*
X0344Y01549D01*
X03441Y01548*
X03441Y01547*
X03441Y01546*
X03442Y01546*
X03442Y01545*
X03443Y01544*
X03443Y01543*
X03444Y01542*
X0343*
X03431Y01543*
X03432Y01544*
X03432Y01545*
X03433Y01546*
X03433Y01546*
X03434Y01547*
X03434Y01548*
X03434Y01549*
X03434Y0155*
X03434Y01551*
X0344*
X0344Y0155*
G37*
G36*
X0338D02*
X0338Y01549D01*
X03381Y01548*
X03381Y01547*
X03381Y01546*
X03382Y01546*
X03382Y01545*
X03383Y01544*
X03383Y01543*
X03384Y01542*
X0337*
X03371Y01543*
X03372Y01544*
X03372Y01545*
X03373Y01546*
X03373Y01546*
X03374Y01547*
X03374Y01548*
X03374Y01549*
X03374Y0155*
X03374Y01551*
X0338*
X0338Y0155*
G37*
G36*
X0332D02*
X0332Y01549D01*
X03321Y01548*
X03321Y01547*
X03321Y01546*
X03322Y01546*
X03322Y01545*
X03323Y01544*
X03323Y01543*
X03324Y01542*
X0331*
X03311Y01543*
X03312Y01544*
X03312Y01545*
X03313Y01546*
X03313Y01546*
X03314Y01547*
X03314Y01548*
X03314Y01549*
X03314Y0155*
X03314Y01551*
X0332*
X0332Y0155*
G37*
G36*
X0326D02*
X0326Y01549D01*
X03261Y01548*
X03261Y01547*
X03261Y01546*
X03262Y01546*
X03262Y01545*
X03263Y01544*
X03263Y01543*
X03264Y01542*
X0325*
X03251Y01543*
X03252Y01544*
X03252Y01545*
X03253Y01546*
X03253Y01546*
X03254Y01547*
X03254Y01548*
X03254Y01549*
X03254Y0155*
X03254Y01551*
X0326*
X0326Y0155*
G37*
G36*
X0488Y01302D02*
X04881Y01301D01*
X04882Y013*
X04882Y013*
X04883Y01299*
X04884Y01299*
X04885Y01299*
X04886Y01299*
X04887Y01298*
X04887Y01298*
Y01292*
X04887Y01292*
X04886Y01292*
X04885Y01292*
X04884Y01292*
X04883Y01291*
X04882Y01291*
X04882Y01291*
X04881Y0129*
X0488Y01289*
X04879Y01289*
Y01302*
X0488Y01302*
G37*
G36*
X05793Y01294D02*
X05793Y01293D01*
X05793Y01293*
X05793Y01292*
X05793Y01291*
X05793Y0129*
X05794Y01289*
X05794Y01288*
X05795Y01287*
X05795Y01287*
X05796Y01286*
X05782Y01287*
X05783Y01288*
X05784Y01289*
X05784Y01289*
X05785Y0129*
X05785Y01291*
X05786Y01292*
X05786Y01292*
X05786Y01293*
X05786Y01294*
X05787Y01295*
X05793Y01294*
G37*
G36*
X06013Y01274D02*
X06012Y01274D01*
X06011Y01275*
X0601Y01276*
X0601Y01276*
X06009Y01276*
X06008Y01277*
X06007Y01277*
X06006Y01277*
X06005Y01277*
X06004Y01277*
Y01283*
X06005Y01283*
X06006Y01284*
X06007Y01284*
X06008Y01284*
X06009Y01284*
X0601Y01285*
X0601Y01285*
X06011Y01286*
X06012Y01287*
X06013Y01287*
Y01274*
G37*
G36*
X05939Y01249D02*
X05938Y01249D01*
X05937Y0125*
X05936Y01251*
X05936Y01251*
X05935Y01251*
X05934Y01252*
X05933Y01252*
X05932Y01252*
X05931Y01252*
X05931Y01252*
Y01258*
X05931Y01258*
X05932Y01259*
X05933Y01259*
X05934Y01259*
X05935Y01259*
X05936Y0126*
X05936Y0126*
X05937Y01261*
X05938Y01262*
X05939Y01262*
Y01249*
G37*
G36*
X06213Y01218D02*
X06213Y01219D01*
X06212Y0122*
X06211Y0122*
X0621Y01221*
X0621Y01221*
X06209Y01221*
X06208Y01222*
X06207Y01222*
X06206Y01222*
X06205Y01222*
Y01228*
X06206Y01228*
X06207Y01228*
X06208Y01228*
X06209Y01229*
X0621Y01229*
X0621Y01229*
X06211Y0123*
X06212Y0123*
X06213Y01231*
X06213Y01232*
Y01218*
G37*
G36*
X0586Y01204D02*
X05859Y01205D01*
X05858Y01205*
X05858Y01206*
X05857Y01206*
X05856Y01207*
X05855Y01207*
X05854Y01207*
X05854Y01208*
X05853Y01208*
X05852Y01208*
Y01214*
X05853Y01214*
X05854Y01214*
X05854Y01214*
X05855Y01214*
X05856Y01215*
X05857Y01215*
X05858Y01216*
X05858Y01216*
X05859Y01217*
X0586Y01218*
Y01204*
G37*
G36*
X06175Y01193D02*
X06174Y01194D01*
X06174Y01194*
X06173Y01195*
X06172Y01195*
X06171Y01196*
X0617Y01196*
X0617Y01196*
X06169Y01197*
X06168Y01197*
X06167Y01197*
Y01203*
X06168Y01203*
X06169Y01203*
X0617Y01203*
X0617Y01203*
X06171Y01204*
X06172Y01204*
X06173Y01205*
X06174Y01205*
X06174Y01206*
X06175Y01207*
Y01193*
G37*
G36*
X05702Y01183D02*
X05701Y01184D01*
X057Y01185*
X057Y01185*
X05699Y01186*
X05698Y01186*
X05697Y01187*
X05697Y01187*
X05696Y01187*
X05695Y01187*
X05694Y01187*
X05695Y01193*
X05695Y01193*
X05696Y01194*
X05697Y01194*
X05698Y01194*
X05699Y01194*
X057Y01195*
X05701Y01195*
X05701Y01196*
X05702Y01196*
X05703Y01197*
X05702Y01183*
G37*
G36*
X04301Y01121D02*
X04301Y0112D01*
X04302Y0112*
X04303Y01119*
X04304Y01119*
X04304Y01118*
X04305Y01118*
X04306Y01118*
X04307Y01118*
X04308Y01118*
X04307Y01112*
X04306Y01111*
X04305Y01111*
X04305Y01111*
X04304Y01111*
X04303Y01111*
X04302Y0111*
X04301Y0111*
X043Y01109*
X04299Y01109*
X04299Y01108*
X043Y01122*
X04301Y01121*
G37*
G36*
X05227Y01108D02*
X05227Y01108D01*
X05226Y01109*
X05225Y0111*
X05224Y0111*
X05224Y01111*
X05223Y01111*
X05222Y01111*
X05221Y01111*
X0522Y01111*
X05219Y01112*
Y01118*
X0522Y01118*
X05221Y01118*
X05222Y01118*
X05223Y01118*
X05224Y01118*
X05224Y01119*
X05225Y01119*
X05226Y0112*
X05227Y01121*
X05227Y01121*
Y01108*
G37*
G36*
X04473Y01068D02*
X04473Y01067D01*
X04472Y01066*
X04472Y01065*
X04471Y01064*
X04471Y01064*
X04471Y01063*
X0447Y01062*
X0447Y01061*
X0447Y0106*
X04464*
X04464Y01061*
X04464Y01062*
X04464Y01063*
X04464Y01064*
X04463Y01064*
X04463Y01065*
X04462Y01066*
X04462Y01067*
X04461Y01068*
X0446Y01068*
X04474*
X04473Y01068*
G37*
G36*
X04423Y01043D02*
X04423Y01042D01*
X04422Y01041*
X04422Y0104*
X04421Y01039*
X04421Y01039*
X04421Y01038*
X0442Y01037*
X0442Y01036*
X0442Y01035*
X04414*
X04414Y01036*
X04414Y01037*
X04414Y01038*
X04414Y01039*
X04413Y01039*
X04413Y0104*
X04412Y01041*
X04412Y01042*
X04411Y01043*
X0441Y01043*
X04424*
X04423Y01043*
G37*
G36*
X04739Y01033D02*
X0474Y01032D01*
X04741Y01032*
X04741Y01031*
X04742Y01031*
X04743Y01031*
X04744Y01031*
X04745Y0103*
X04746Y0103*
X04747Y0103*
X04737Y01021*
X04737Y01022*
X04737Y01023*
X04737Y01024*
X04737Y01025*
X04737Y01025*
X04736Y01026*
X04736Y01027*
X04735Y01028*
X04735Y01028*
X04734Y01029*
X04739Y01033*
X04739Y01033*
G37*
G36*
X046Y01014D02*
X04599Y01014D01*
X04599Y01015*
X04598Y01016*
X04597Y01016*
X04596Y01016*
X04595Y01017*
X04595Y01017*
X04594Y01017*
X04593Y01017*
X04592Y01017*
Y01023*
X04593Y01023*
X04594Y01024*
X04595Y01024*
X04595Y01024*
X04596Y01024*
X04597Y01025*
X04598Y01025*
X04599Y01026*
X04599Y01027*
X046Y01027*
Y01014*
G37*
G36*
X06101Y01005D02*
X061Y01006D01*
X06097Y01007*
X06096Y01007*
X06094Y01007*
X06093Y01007*
X06092Y01007*
X06089Y01013*
X0609Y01013*
X06091Y01014*
X06091Y01014*
X06092Y01014*
X06093Y01015*
X06093Y01015*
X06094Y01016*
X06094Y01016*
X06095Y01017*
X06095Y01018*
X06101Y01005*
G37*
G36*
X06055Y00983D02*
X06055Y00984D01*
X06054Y00985*
X06054Y00985*
X06054Y00986*
X06053Y00986*
X06052Y00987*
X06052Y00987*
X06051Y00987*
X0605Y00987*
X06049Y00987*
X06051Y00993*
X06062Y00994*
X06055Y00983*
G37*
G36*
X05722Y00923D02*
X05722Y00923D01*
X05721Y00924*
X0572Y00925*
X05719Y00925*
X05719Y00926*
X05718Y00926*
X05717Y00926*
X05716Y00926*
X05715Y00926*
X05714Y00927*
Y00933*
X05715Y00933*
X05716Y00933*
X05717Y00933*
X05718Y00933*
X05719Y00933*
X05719Y00934*
X0572Y00934*
X05721Y00935*
X05722Y00936*
X05722Y00936*
Y00923*
G37*
G36*
X05056Y0089D02*
X05057Y00889D01*
X05057Y00888*
X05058Y00888*
X05059Y00887*
X0506Y00887*
X0506Y00886*
X05061Y00886*
X05062Y00886*
X05063Y00886*
X05061Y0088*
X0506Y0088*
X0506Y0088*
X05059Y0088*
X05058Y00879*
X05057Y00879*
X05056Y00879*
X05054Y00878*
X05053Y00878*
X05052Y00877*
X05056Y0089*
X05056Y0089*
G37*
G36*
X06878Y00852D02*
X06877Y00852D01*
X06877Y00853*
X06876Y00854*
X06875Y00854*
X06874Y00855*
X06873Y00855*
X06872Y00855*
X06872Y00855*
X06871Y00856*
X0687Y00856*
Y00862*
X06871Y00862*
X06872Y00862*
X06872Y00862*
X06873Y00862*
X06874Y00863*
X06875Y00863*
X06876Y00864*
X06877Y00864*
X06877Y00865*
X06878Y00866*
Y00852*
G37*
G36*
X0492Y00844D02*
X04919Y00844D01*
X04919Y00845*
X04918Y00846*
X04917Y00846*
X04916Y00846*
X04915Y00847*
X04915Y00847*
X04914Y00847*
X04913Y00847*
X04912Y00847*
Y00853*
X04913Y00853*
X04914Y00854*
X04915Y00854*
X04915Y00854*
X04916Y00854*
X04917Y00855*
X04918Y00855*
X04919Y00856*
X04919Y00857*
X0492Y00857*
Y00844*
G37*
G36*
X05025Y00842D02*
X05026Y00841D01*
X05027Y0084*
X05027Y0084*
X05028Y00839*
X05029Y00839*
X0503Y00839*
X05031Y00839*
X05032Y00838*
X05032Y00838*
Y00832*
X05032Y00832*
X05031Y00832*
X0503Y00832*
X05029Y00832*
X05028Y00831*
X05027Y00831*
X05027Y00831*
X05026Y0083*
X05025Y00829*
X05024Y00829*
Y00842*
X05025Y00842*
G37*
G36*
X07534Y00838D02*
X07535Y00837D01*
X07536Y00837*
X07536Y00836*
X07537Y00836*
X07538Y00836*
X07539Y00836*
X0754Y00835*
X07541Y00835*
X07542Y00835*
X07532Y00826*
X07532Y00827*
X07532Y00828*
X07532Y00829*
X07532Y0083*
X07532Y0083*
X07531Y00831*
X07531Y00832*
X0753Y00833*
X0753Y00833*
X07529Y00834*
X07534Y00838*
X07534Y00838*
G37*
G36*
X07248Y00807D02*
X07249Y00807D01*
X07249Y00806*
X0725Y00806*
X07251Y00805*
X07252Y00805*
X07253Y00805*
X07254Y00805*
X07255Y00805*
X07256Y00805*
X07247Y00794*
X07247Y00795*
X07247Y00797*
X07247Y00798*
X07246Y00799*
X07246Y008*
X07245Y00801*
X07245Y00801*
X07244Y00802*
X07244Y00803*
X07247Y00808*
X07248Y00807*
G37*
%LNmod_duo_dwarf-2*%
%LPC*%
G36*
X06472Y03242D02*
X06457D01*
Y03196*
X06493*
Y03222*
X06472Y03242*
G37*
G36*
X07732D02*
X07717D01*
Y03196*
X07753*
Y03222*
X07732Y03242*
G37*
G36*
X05213D02*
X05197D01*
Y03196*
X05233*
Y03222*
X05213Y03242*
G37*
G36*
X05187D02*
X05171D01*
X0515Y03222*
Y03196*
X05187*
Y03242*
G37*
G36*
X06447D02*
X06431D01*
X0641Y03222*
Y03196*
X06447*
Y03242*
G37*
G36*
X07831D02*
X07789D01*
X07768Y03222*
Y0316*
X07789Y0314*
X07831*
X07851Y0316*
Y03222*
X07831Y03242*
G37*
G36*
X07753Y03186D02*
X07717D01*
Y0314*
X07732*
X07753Y0316*
Y03186*
G37*
G36*
X06571Y03242D02*
X06529D01*
X06509Y03222*
Y0316*
X06529Y0314*
X06571*
X06592Y0316*
Y03222*
X06571Y03242*
G37*
G36*
X06493Y03186D02*
X06457D01*
Y0314*
X06472*
X06493Y0316*
Y03186*
G37*
G36*
X06447D02*
X0641D01*
Y0316*
X06431Y0314*
X06447*
Y03186*
G37*
G36*
X06374Y03242D02*
X06333D01*
X06312Y03222*
Y0316*
X06333Y0314*
X06374*
X06395Y0316*
Y03222*
X06374Y03242*
G37*
G36*
X05311D02*
X0527D01*
X05249Y03222*
Y0316*
X0527Y0314*
X05311*
X05332Y0316*
Y03222*
X05311Y03242*
G37*
G36*
X05233Y03186D02*
X05197D01*
Y0314*
X05213*
X05233Y0316*
Y03186*
G37*
G36*
X05187D02*
X0515D01*
Y0316*
X05171Y0314*
X05187*
Y03186*
G37*
G36*
X05114Y03242D02*
X05073D01*
X05052Y03222*
Y0316*
X05073Y0314*
X05114*
X05135Y0316*
Y03222*
X05114Y03242*
G37*
G36*
X0109Y03217D02*
X01069Y03215D01*
X01048Y0321*
X01029Y03202*
X01011Y03191*
X00995Y03177*
X00981Y03161*
X0097Y03144*
X00962Y03124*
X00957Y03104*
X00956Y03083*
X00957Y03062*
X00962Y03041*
X0097Y03022*
X00981Y03004*
X00995Y02988*
X01011Y02975*
X01029Y02964*
X01048Y02956*
X01069Y02951*
X0109Y02949*
X0111Y02951*
X01131Y02956*
X0115Y02964*
X01168Y02975*
X01184Y02988*
X01198Y03004*
X01209Y03022*
X01217Y03041*
X01222Y03062*
X01223Y03083*
X01222Y03104*
X01217Y03124*
X01209Y03144*
X01198Y03161*
X01184Y03177*
X01168Y03191*
X0115Y03202*
X01131Y0321*
X0111Y03215*
X0109Y03217*
G37*
G36*
X07936Y02977D02*
X07924Y02976D01*
X07912Y02972*
X07901Y02966*
X07891Y02958*
X07883Y02949*
X07877Y02938*
X07874Y02926*
X07873Y02914*
Y02878*
X07874Y02866*
X07877Y02854*
X07883Y02843*
X07891Y02833*
X07901Y02825*
X07912Y02819*
X07924Y02816*
X07936Y02815*
X07948Y02816*
X0796Y02819*
X07971Y02825*
X07981Y02833*
X07989Y02843*
X07995Y02854*
X07998Y02866*
X07999Y02878*
Y02914*
X07998Y02926*
X07995Y02938*
X07989Y02949*
X07981Y02958*
X07971Y02966*
X0796Y02972*
X07948Y02976*
X07936Y02977*
G37*
G36*
X07487D02*
X07475Y02976D01*
X07463Y02972*
X07452Y02966*
X07442Y02958*
X07434Y02949*
X07429Y02938*
X07425Y02926*
X07424Y02914*
Y02878*
X07425Y02866*
X07429Y02854*
X07434Y02843*
X07442Y02833*
X07452Y02825*
X07463Y02819*
X07475Y02816*
X07487Y02815*
X075Y02816*
X07511Y02819*
X07522Y02825*
X07532Y02833*
X0754Y02843*
X07546Y02854*
X07549Y02866*
X07551Y02878*
Y02914*
X07549Y02926*
X07546Y02938*
X0754Y02949*
X07532Y02958*
X07522Y02966*
X07511Y02972*
X075Y02976*
X07487Y02977*
G37*
G36*
X06676D02*
X06664Y02976D01*
X06652Y02972*
X06641Y02966*
X06631Y02958*
X06623Y02949*
X06617Y02938*
X06614Y02926*
X06613Y02914*
Y02878*
X06614Y02866*
X06617Y02854*
X06623Y02843*
X06631Y02833*
X06641Y02825*
X06652Y02819*
X06664Y02816*
X06676Y02815*
X06688Y02816*
X067Y02819*
X06711Y02825*
X06721Y02833*
X06729Y02843*
X06735Y02854*
X06738Y02866*
X0674Y02878*
Y02914*
X06738Y02926*
X06735Y02938*
X06729Y02949*
X06721Y02958*
X06711Y02966*
X067Y02972*
X06688Y02976*
X06676Y02977*
G37*
G36*
X06227D02*
X06215Y02976D01*
X06203Y02972*
X06192Y02966*
X06182Y02958*
X06175Y02949*
X06169Y02938*
X06165Y02926*
X06164Y02914*
Y02878*
X06165Y02866*
X06169Y02854*
X06175Y02843*
X06182Y02833*
X06192Y02825*
X06203Y02819*
X06215Y02816*
X06227Y02815*
X0624Y02816*
X06252Y02819*
X06263Y02825*
X06272Y02833*
X0628Y02843*
X06286Y02854*
X0629Y02866*
X06291Y02878*
Y02914*
X0629Y02926*
X06286Y02938*
X0628Y02949*
X06272Y02958*
X06263Y02966*
X06252Y02972*
X0624Y02976*
X06227Y02977*
G37*
G36*
X05416D02*
X05404Y02976D01*
X05392Y02972*
X05381Y02966*
X05371Y02958*
X05364Y02949*
X05358Y02938*
X05354Y02926*
X05353Y02914*
Y02878*
X05354Y02866*
X05358Y02854*
X05364Y02843*
X05371Y02833*
X05381Y02825*
X05392Y02819*
X05404Y02816*
X05416Y02815*
X05429Y02816*
X05441Y02819*
X05452Y02825*
X05461Y02833*
X05469Y02843*
X05475Y02854*
X05479Y02866*
X0548Y02878*
Y02914*
X05479Y02926*
X05475Y02938*
X05469Y02949*
X05461Y02958*
X05452Y02966*
X05441Y02972*
X05429Y02976*
X05416Y02977*
G37*
G36*
X04967D02*
X04955Y02976D01*
X04943Y02972*
X04932Y02966*
X04923Y02958*
X04915Y02949*
X04909Y02938*
X04905Y02926*
X04904Y02914*
Y02878*
X04905Y02866*
X04909Y02854*
X04915Y02843*
X04923Y02833*
X04932Y02825*
X04943Y02819*
X04955Y02816*
X04967Y02815*
X0498Y02816*
X04992Y02819*
X05003Y02825*
X05012Y02833*
X0502Y02843*
X05026Y02854*
X0503Y02866*
X05031Y02878*
Y02914*
X0503Y02926*
X05026Y02938*
X0502Y02949*
X05012Y02958*
X05003Y02966*
X04992Y02972*
X0498Y02976*
X04967Y02977*
G37*
G36*
X01296Y02922D02*
X01282Y0292D01*
X01269Y02915*
X01257Y02906*
X01249Y02894*
X01243Y02881*
X01241Y02867*
X01243Y02853*
X01249Y02839*
X01257Y02828*
X01269Y02819*
X01282Y02814*
X01296Y02812*
X01311Y02814*
X01324Y02819*
X01335Y02828*
X01344Y02839*
X0135Y02853*
X01352Y02867*
X0135Y02881*
X01344Y02894*
X01335Y02906*
X01324Y02915*
X01311Y0292*
X01296Y02922*
G37*
G36*
X01445Y0294D02*
X01437Y02938D01*
X0143Y02934*
X01426Y02927*
X01424Y0292*
X01424Y02919*
X01424Y02919*
X01424Y02918*
X01424Y02918*
X0142Y02914*
X01417Y0291*
X01416Y02905*
Y02735*
X01394Y02713*
X01375*
X01375Y02713*
X01374Y02713*
X01374Y02713*
X01374Y02714*
X01367Y02718*
X0136Y0272*
X01352Y02718*
X01345Y02714*
X01341Y02707*
X01339Y027*
X01341Y02692*
X01345Y02685*
X01352Y02681*
X0136Y02679*
X01367Y02681*
X01374Y02685*
X01374Y02686*
X01374Y02686*
X01375Y02686*
X01375Y02686*
X014*
X01405Y02687*
X01409Y0269*
X01439Y0272*
X01442Y02724*
X01443Y0273*
Y02895*
X01445Y02899*
X01452Y02901*
X01459Y02905*
X01463Y02912*
X01465Y0292*
X01463Y02927*
X01459Y02934*
X01452Y02938*
X01445Y0294*
G37*
G36*
X01692Y02676D02*
X01684Y02674D01*
X01678Y0267*
X01677Y02669*
X01677Y02669*
X01677Y02669*
X01677Y02669*
X01654*
X01649Y02668*
X01645Y02665*
X01618Y02638*
X01615Y02633*
X01614Y02628*
Y02551*
X01572Y02509*
X01282*
X01282Y02509*
X01282Y02509*
X01282Y02509*
X01282Y0251*
X01275Y02514*
X01267Y02516*
X01259Y02514*
X01253Y0251*
X01249Y02503*
X01247Y02495*
X01249Y02488*
X01253Y02481*
X01259Y02477*
X01267Y02475*
X01275Y02477*
X01282Y02481*
X01282Y02482*
X01282Y02482*
X01282Y02482*
X01282Y02482*
X01577*
X01582Y02483*
X01587Y02486*
X01637Y02536*
X01639Y0254*
X0164Y02545*
Y02623*
X0166Y02642*
X01677*
X01677Y02642*
X01677Y02642*
X01677Y02642*
X01678Y02641*
X01684Y02637*
X01692Y02635*
X017Y02637*
X01707Y02641*
X01711Y02648*
X01712Y02655*
X01711Y02663*
X01707Y0267*
X017Y02674*
X01692Y02676*
G37*
G36*
X05311Y02672D02*
X05295D01*
Y02625*
X05332*
Y02651*
X05311Y02672*
G37*
G36*
X06571D02*
X06555D01*
Y02625*
X06592*
Y02651*
X06571Y02672*
G37*
G36*
X07831D02*
X07815D01*
Y02625*
X07851*
Y02651*
X07831Y02672*
G37*
G36*
X07805D02*
X07789D01*
X07768Y02651*
Y02625*
X07805*
Y02672*
G37*
G36*
X06545D02*
X06529D01*
X06509Y02651*
Y02625*
X06545*
Y02672*
G37*
G36*
X05285D02*
X0527D01*
X05249Y02651*
Y02625*
X05285*
Y02672*
G37*
G36*
X06592Y02615D02*
X06555D01*
Y02569*
X06571*
X06592Y0259*
Y02615*
G37*
G36*
X06545D02*
X06509D01*
Y0259*
X06529Y02569*
X06545*
Y02615*
G37*
G36*
X06353Y02965D02*
X06346Y02963D01*
X06339Y02959*
X06335Y02952*
X06333Y02944*
X06335Y02937*
X06339Y0293*
X0634Y0293*
X0634Y02929*
X0634Y02929*
X0634Y02929*
Y02672*
X06333*
X06312Y02651*
Y0259*
X06333Y02569*
X06374*
X06395Y0259*
Y02651*
X06374Y02672*
X06367*
Y02929*
X06367Y02929*
X06367Y02929*
X06367Y0293*
X06368Y0293*
X06372Y02937*
X06374Y02944*
X06372Y02952*
X06368Y02959*
X06361Y02963*
X06353Y02965*
G37*
G36*
X05332Y02615D02*
X05295D01*
Y02569*
X05311*
X05332Y0259*
Y02615*
G37*
G36*
X05285D02*
X05249D01*
Y0259*
X0527Y02569*
X05285*
Y02615*
G37*
G36*
X04995Y02365D02*
X04987Y02363D01*
X04982Y0236*
X0479*
X04784Y02359*
X04779Y02355*
X04729Y02305*
X04725Y023*
X04724Y02295*
Y02247*
X04721Y02242*
X04719Y02235*
X04721Y02227*
X04725Y0222*
X04732Y02216*
X0474Y02214*
X04747Y02216*
X04754Y0222*
X04758Y02227*
X0476Y02235*
X04758Y02242*
X04755Y02247*
Y02288*
X04796Y02329*
X04982*
X04987Y02326*
X04995Y02324*
X05002Y02326*
X05009Y0233*
X05013Y02337*
X05015Y02345*
X05013Y02352*
X05009Y02359*
X05002Y02363*
X04995Y02365*
G37*
G36*
X0631Y02355D02*
X06302Y02353D01*
X06297Y0235*
X06245*
X06239Y02349*
X06234Y02345*
X06192Y02303*
X06188Y02298*
X06187Y02292*
Y02208*
X06184Y02203*
X06182Y02195*
X06184Y02188*
X06188Y02181*
X06195Y02177*
X06202Y02175*
X0621Y02177*
X06217Y02181*
X06221Y02188*
X06223Y02195*
X06221Y02203*
X06218Y02208*
Y02286*
X06251Y02319*
X06297*
X06302Y02316*
X0631Y02314*
X06317Y02316*
X06324Y0232*
X06328Y02327*
X0633Y02335*
X06328Y02342*
X06324Y02349*
X06317Y02353*
X0631Y02355*
G37*
G36*
X0745Y0234D02*
X07442Y02338D01*
X07437Y02335*
X07295*
X07289Y02334*
X07284Y0233*
X07258Y02304*
X07252Y02303*
X07245Y02299*
X07241Y02292*
X07239Y02285*
X07241Y02277*
X07245Y0227*
X07252Y02266*
X0726Y02264*
X07267Y02266*
X07274Y0227*
X07278Y02277*
X07279Y02283*
X07301Y02304*
X07437*
X07442Y02301*
X0745Y02299*
X07457Y02301*
X07464Y02305*
X07468Y02312*
X0747Y0232*
X07468Y02327*
X07464Y02334*
X07457Y02338*
X0745Y0234*
G37*
G36*
X07949Y02402D02*
X07935Y024D01*
X07922Y02395*
X0791Y02386*
X07902Y02375*
X07896Y02361*
X07894Y02347*
X07896Y02333*
X07902Y02319*
X0791Y02308*
X07922Y02299*
X07935Y02294*
X07949Y02292*
X07964Y02294*
X07977Y02299*
X07988Y02308*
X07997Y02319*
X08003Y02333*
X08005Y02347*
X08003Y02361*
X07997Y02375*
X07988Y02386*
X07977Y02395*
X07964Y024*
X07949Y02402*
G37*
G36*
X0669D02*
X06675Y024D01*
X06662Y02395*
X06651Y02386*
X06642Y02375*
X06636Y02361*
X06634Y02347*
X06636Y02333*
X06642Y02319*
X06651Y02308*
X06662Y02299*
X06675Y02294*
X0669Y02292*
X06704Y02294*
X06717Y02299*
X06729Y02308*
X06737Y02319*
X06743Y02333*
X06745Y02347*
X06743Y02361*
X06737Y02375*
X06729Y02386*
X06717Y02395*
X06704Y024*
X0669Y02402*
G37*
G36*
X0543D02*
X05415Y024D01*
X05402Y02395*
X05391Y02386*
X05382Y02375*
X05376Y02361*
X05375Y02347*
X05376Y02333*
X05382Y02319*
X05391Y02308*
X05402Y02299*
X05415Y02294*
X0543Y02292*
X05444Y02294*
X05457Y02299*
X05469Y02308*
X05477Y02319*
X05483Y02333*
X05485Y02347*
X05483Y02361*
X05477Y02375*
X05469Y02386*
X05457Y02395*
X05444Y024*
X0543Y02402*
G37*
G36*
X00883Y02311D02*
X00868Y02309D01*
X00855Y02303*
X00844Y02294*
X00835Y02283*
X00829Y0227*
X00827Y02255*
X00829Y02241*
X00835Y02228*
X00844Y02216*
X00855Y02208*
X00868Y02202*
X00883Y022*
X00897Y02202*
X0091Y02208*
X00922Y02216*
X0093Y02228*
X00936Y02241*
X00938Y02255*
X00936Y0227*
X0093Y02283*
X00922Y02294*
X0091Y02303*
X00897Y02309*
X00883Y02311*
G37*
G36*
X07082Y02242D02*
X07061Y0224D01*
X0704Y02236*
X07021Y02228*
X07003Y02217*
X06987Y02203*
X06973Y02187*
X06963Y02169*
X06954Y0215*
X0695Y02129*
X06948Y02108*
X0695Y02087*
X06954Y02067*
X06963Y02048*
X06973Y0203*
X06987Y02014*
X07003Y02*
X07021Y01989*
X0704Y01981*
X07061Y01976*
X07082Y01975*
X07103Y01976*
X07123Y01981*
X07142Y01989*
X0716Y02*
X07176Y02014*
X0719Y0203*
X07201Y02048*
X07209Y02067*
X07214Y02087*
X07215Y02108*
X07214Y02129*
X07209Y0215*
X07201Y02169*
X0719Y02187*
X07176Y02203*
X0716Y02217*
X07142Y02228*
X07123Y02236*
X07103Y0224*
X07082Y02242*
G37*
G36*
X05822D02*
X05801Y0224D01*
X0578Y02236*
X05761Y02228*
X05743Y02217*
X05727Y02203*
X05714Y02187*
X05703Y02169*
X05695Y0215*
X0569Y02129*
X05688Y02108*
X0569Y02087*
X05695Y02067*
X05703Y02048*
X05714Y0203*
X05727Y02014*
X05743Y02*
X05761Y01989*
X0578Y01981*
X05801Y01976*
X05822Y01975*
X05843Y01976*
X05863Y01981*
X05882Y01989*
X059Y02*
X05916Y02014*
X0593Y0203*
X05941Y02048*
X05949Y02067*
X05954Y02087*
X05955Y02108*
X05954Y02129*
X05949Y0215*
X05941Y02169*
X0593Y02187*
X05916Y02203*
X059Y02217*
X05882Y02228*
X05863Y02236*
X05843Y0224*
X05822Y02242*
G37*
G36*
X0109Y02173D02*
X01069Y02172D01*
X01048Y02167*
X01029Y02159*
X01011Y02148*
X00995Y02134*
X00981Y02118*
X0097Y021*
X00962Y02081*
X00957Y0206*
X00956Y0204*
X00957Y02019*
X00962Y01998*
X0097Y01979*
X00981Y01961*
X00995Y01945*
X01011Y01931*
X01029Y0192*
X01048Y01912*
X01069Y01907*
X0109Y01906*
X0111Y01907*
X01131Y01912*
X0115Y0192*
X01168Y01931*
X01184Y01945*
X01198Y01961*
X01209Y01979*
X01217Y01998*
X01222Y02019*
X01223Y0204*
X01222Y0206*
X01217Y02081*
X01209Y021*
X01198Y02118*
X01184Y02134*
X01168Y02148*
X0115Y02159*
X01131Y02167*
X0111Y02172*
X0109Y02173*
G37*
G36*
X07474Y01925D02*
X07459Y01923D01*
X07446Y01918*
X07435Y01909*
X07426Y01897*
X0742Y01884*
X07419Y0187*
X0742Y01856*
X07426Y01842*
X07435Y01831*
X07446Y01822*
X07459Y01817*
X07474Y01815*
X07488Y01817*
X07501Y01822*
X07513Y01831*
X07522Y01842*
X07527Y01856*
X07529Y0187*
X07527Y01884*
X07522Y01897*
X07513Y01909*
X07501Y01918*
X07488Y01923*
X07474Y01925*
G37*
G36*
X06214D02*
X062Y01923D01*
X06186Y01918*
X06175Y01909*
X06166Y01897*
X06161Y01884*
X06159Y0187*
X06161Y01856*
X06166Y01842*
X06175Y01831*
X06186Y01822*
X062Y01817*
X06214Y01815*
X06228Y01817*
X06241Y01822*
X06253Y01831*
X06262Y01842*
X06267Y01856*
X06269Y0187*
X06267Y01884*
X06262Y01897*
X06253Y01909*
X06241Y01918*
X06228Y01923*
X06214Y01925*
G37*
G36*
X04954D02*
X0494Y01923D01*
X04926Y01918*
X04915Y01909*
X04906Y01897*
X04901Y01884*
X04899Y0187*
X04901Y01856*
X04906Y01842*
X04915Y01831*
X04926Y01822*
X0494Y01817*
X04954Y01815*
X04968Y01817*
X04982Y01822*
X04993Y01831*
X05002Y01842*
X05007Y01856*
X05009Y0187*
X05007Y01884*
X05002Y01897*
X04993Y01909*
X04982Y01918*
X04968Y01923*
X04954Y01925*
G37*
G36*
X0243Y0177D02*
X02422Y01768D01*
X02415Y01764*
X02411Y01757*
X02409Y0175*
X0241Y01748*
X02406Y01745*
X02405Y01745*
X02397Y01743*
X02391Y01739*
X02386Y01732*
X02385Y01725*
X02386Y01717*
X02391Y0171*
X02391Y0171*
X02391Y0171*
X02392Y01709*
X02392Y01709*
Y01245*
X02369Y01223*
X0212*
X02114Y01222*
X0211Y01219*
X02106Y01215*
X02106Y01215*
X02105Y01215*
X02105Y01215*
X02105Y01215*
X02097Y01213*
X0209Y01209*
X02086Y01202*
X02084Y01195*
X02086Y01187*
X0209Y0118*
X02097Y01176*
X02105Y01174*
X02112Y01176*
X02119Y0118*
X02123Y01187*
X02125Y01195*
X02129Y01196*
X02375*
X0238Y01197*
X02384Y012*
X02414Y01231*
X02417Y01235*
X02418Y0124*
Y01458*
X02423Y0146*
X02429Y01456*
X02436Y01455*
X02444Y01456*
X02451Y01461*
X02455Y01467*
X02456Y01475*
X02455Y01483*
X02451Y01489*
X02444Y01494*
X02443Y01494*
Y01559*
X02443Y0156*
Y01575*
X02443Y01576*
Y01734*
X02443Y01734*
X02443Y01735*
X02443Y01735*
X02444Y01735*
X02448Y01742*
X0245Y0175*
X02448Y01757*
X02444Y01764*
X02437Y01768*
X0243Y0177*
G37*
G36*
X0251Y0169D02*
X02502Y01688D01*
X02495Y01684*
X02491Y01677*
X02489Y0167*
X02491Y01662*
X02495Y01655*
X02502Y01651*
X0251Y01649*
X02517Y01651*
X02522Y01654*
X02531Y01644*
X02531Y01639*
X0253Y01639*
X02526Y01632*
X02524Y01625*
X02526Y01617*
X0253Y0161*
X02537Y01606*
X02545Y01604*
X02552Y01606*
X02559Y0161*
X02563Y01617*
X02565Y01625*
X02563Y01632*
X02559Y01639*
X02558Y01639*
X02558Y01639*
X02558Y0164*
X02558Y0164*
Y0165*
X02557Y01655*
X02554Y01659*
X02534Y01679*
X0253Y01682*
X02525Y01683*
X02525Y01683*
X02525Y01683*
X02524Y01684*
X02517Y01688*
X0251Y0169*
G37*
G36*
X07993Y01434D02*
X07983Y01432D01*
X07975Y01427*
X07969Y01419*
X07967Y01409*
Y01378*
X07959Y0137*
X06975*
X06965Y01368*
X06956Y01363*
X06951Y01354*
X06949Y01345*
X06951Y01335*
X06956Y01326*
X06965Y01321*
X06975Y01319*
X0797*
X07979Y01321*
X07988Y01326*
X08011Y0135*
X08016Y01358*
X08018Y01368*
Y01371*
X0802Y0138*
X08018Y01388*
Y01409*
X08016Y01419*
X08011Y01427*
X08002Y01432*
X07993Y01434*
G37*
G36*
X01215Y0129D02*
X01207Y01288D01*
X012Y01284*
X01196Y01277*
X01194Y0127*
X01196Y01262*
X012Y01255*
X01207Y01251*
X01215Y01249*
X01222Y01251*
X01227Y01254*
X01318*
X01352Y0122*
Y01178*
X01349Y01173*
X01347Y01165*
X01349Y01158*
X01353Y01151*
X01359Y01147*
X01367Y01145*
X01375Y01147*
X01382Y01151*
X01386Y01158*
X01387Y01165*
X01386Y01173*
X01383Y01178*
Y01227*
X01381Y01233*
X01378Y01238*
X01335Y0128*
X0133Y01284*
X01325Y01285*
X01227*
X01222Y01288*
X01215Y0129*
G37*
G36*
X07575D02*
X07567Y01288D01*
X0756Y01284*
X07556Y01277*
X07554Y0127*
X07556Y01262*
X07559Y01257*
Y01176*
X07555Y01174*
X07551Y01167*
X07549Y0116*
X07551Y01152*
X07555Y01145*
X07562Y01141*
X0757Y01139*
X07577Y01141*
X07584Y01145*
X07588Y01152*
X0759Y0116*
X07589Y01163*
X07589Y01164*
X0759Y01167*
Y01257*
X07593Y01262*
X07595Y0127*
X07593Y01277*
X07589Y01284*
X07582Y01288*
X07575Y0129*
G37*
G36*
X0435Y01235D02*
X04342Y01233D01*
X04335Y01229*
X04331Y01222*
X04329Y01215*
X04331Y01207*
X04335Y012*
X04342Y01196*
X0435Y01194*
X04357Y01196*
X04362Y01199*
X04518*
X04544Y01173*
Y01167*
X04541Y01162*
X04539Y01155*
X04541Y01147*
X04545Y0114*
X04552Y01136*
X0456Y01134*
X04567Y01136*
X04574Y0114*
X04578Y01147*
X0458Y01155*
X04578Y01162*
X04575Y01167*
Y0118*
X04574Y01185*
X0457Y0119*
X04535Y01225*
X0453Y01229*
X04525Y0123*
X04362*
X04357Y01233*
X0435Y01235*
G37*
G36*
X07406Y01072D02*
X07398Y0107D01*
X07391Y01066*
X07387Y01059*
X07386Y01051*
X07387Y01044*
X07391Y01037*
X07398Y01033*
X07406Y01031*
X07414Y01033*
X0742Y01037*
X07424Y01044*
X07426Y01051*
X07424Y01059*
X0742Y01066*
X07414Y0107*
X07406Y01072*
G37*
G36*
X01687Y01036D02*
X01679Y01034D01*
X01673Y0103*
X01672Y01029*
X01672Y01029*
X01672Y01029*
X01672Y01029*
X01494Y01027*
X01493Y01027*
X01493Y01028*
X01493Y01028*
X01493Y01028*
X01486Y01033*
X01478Y01034*
X01471Y01033*
X01464Y01028*
X0146Y01022*
X01459Y01019*
X01454Y01018*
X01448Y01023*
X01444Y01026*
X01439Y01027*
X01354*
X01354Y01027*
X01353Y01027*
X01353Y01028*
X01353Y01028*
X01346Y01033*
X01338Y01034*
X01331Y01033*
X01324Y01028*
X01321Y01023*
X01315Y01021*
X01313Y01023*
X01309Y01026*
X01304Y01027*
X01214*
X01214Y01027*
X01213Y01027*
X01213Y01028*
X01213Y01028*
X01206Y01033*
X01198Y01034*
X01191Y01033*
X01184Y01028*
X0118Y01022*
X01178Y01014*
X0118Y01006*
X01184Y01*
X01191Y00995*
X01198Y00994*
X01206Y00995*
X01213Y01*
X01213Y01*
X01213Y01*
X01214Y01001*
X01214Y01001*
X01298*
X01332Y00967*
X01336Y00964*
X01341Y00963*
X01711*
X01712Y00963*
X01712Y00963*
X01713Y00961*
X01719Y00957*
X01727Y00955*
X01735Y00957*
X01742Y00961*
X01746Y00968*
X01747Y00975*
X01746Y00983*
X01742Y0099*
X01735Y00994*
X01727Y00996*
X01726Y01003*
X01722Y0101*
X01715Y01014*
X01707Y01016*
X01706Y01023*
X01702Y0103*
X01695Y01034*
X01687Y01036*
G37*
%LNmod_duo_dwarf-3*%
%LPD*%
G36*
X01444Y0291D02*
X01443Y0291D01*
X01442Y0291*
X01441Y02909*
X0144Y02909*
X0144Y02909*
X01439Y02909*
X01438Y02908*
X01437Y02908*
X01436Y02907*
X01436Y02907*
X01432Y02911*
X01432Y02911*
X01433Y02912*
X01433Y02913*
X01434Y02914*
X01434Y02915*
X01434Y02915*
X01434Y02916*
X01435Y02917*
X01435Y02918*
X01435Y02919*
X01444Y0291*
G37*
G36*
X01367Y02706D02*
X01368Y02705D01*
X01369Y02704*
X0137Y02704*
X0137Y02703*
X01371Y02703*
X01372Y02703*
X01373Y02703*
X01374Y02703*
X01375Y02703*
Y02697*
X01374Y02696*
X01373Y02696*
X01372Y02696*
X01371Y02696*
X0137Y02696*
X0137Y02695*
X01369Y02695*
X01368Y02694*
X01367Y02693*
X01367Y02693*
Y02706*
X01367Y02706*
G37*
G36*
X01685Y02649D02*
X01684Y02649D01*
X01684Y0265*
X01683Y02651*
X01682Y02651*
X01681Y02651*
X0168Y02652*
X0168Y02652*
X01679Y02652*
X01678Y02652*
X01677Y02652*
Y02658*
X01678Y02658*
X01679Y02659*
X0168Y02659*
X0168Y02659*
X01681Y02659*
X01682Y0266*
X01683Y0266*
X01684Y02661*
X01684Y02662*
X01685Y02662*
Y02649*
G37*
G36*
X01275Y02502D02*
X01276Y02501D01*
X01277Y025*
X01277Y025*
X01278Y02499*
X01279Y02499*
X0128Y02499*
X01281Y02499*
X01282Y02498*
X01282Y02498*
Y02492*
X01282Y02492*
X01281Y02492*
X0128Y02492*
X01279Y02492*
X01278Y02491*
X01277Y02491*
X01277Y02491*
X01276Y0249*
X01275Y02489*
X01274Y02489*
Y02502*
X01275Y02502*
G37*
G36*
X06359Y02937D02*
X06359Y02936D01*
X06358Y02935*
X06358Y02934*
X06357Y02933*
X06357Y02933*
X06357Y02932*
X06356Y02931*
X06356Y0293*
X06356Y02929*
X0635*
X0635Y0293*
X0635Y02931*
X0635Y02932*
X0635Y02933*
X06349Y02933*
X06349Y02934*
X06348Y02935*
X06348Y02936*
X06347Y02937*
X06346Y02937*
X0636*
X06359Y02937*
G37*
G36*
X06356Y02666D02*
X06356Y02665D01*
X06357Y02664*
X06357Y02664*
X06357Y02663*
X06357Y02662*
X06358Y02662*
X06358Y02662*
X06359Y02661*
X06359Y02661*
X06347*
X06348Y02661*
X06348Y02662*
X06349Y02662*
X06349Y02662*
X0635Y02663*
X0635Y02664*
X0635Y02664*
X0635Y02665*
X0635Y02666*
X0635Y02667*
X06356*
X06356Y02666*
G37*
G36*
X04987Y02338D02*
X04987Y02338D01*
X04987Y02338*
X04986Y02339*
X04985Y02339*
X04985Y02339*
X04984Y02339*
X04983Y02339*
X04982Y02339*
X0498Y0234*
Y0235*
X04981Y0235*
X04983Y0235*
X04984Y0235*
X04985Y0235*
X04985Y0235*
X04986Y0235*
X04987Y02351*
X04987Y02351*
X04987Y02351*
Y02338*
G37*
G36*
X04745Y02248D02*
X04745Y02246D01*
X04745Y02245*
X04745Y02244*
X04745Y02244*
X04745Y02243*
X04746Y02242*
X04746Y02242*
X04746Y02242*
X04733*
X04733Y02242*
X04733Y02242*
X04734Y02243*
X04734Y02244*
X04734Y02244*
X04734Y02245*
X04734Y02246*
X04734Y02247*
X04735Y02249*
X04745*
X04745Y02248*
G37*
G36*
X06302Y02328D02*
X06302Y02328D01*
X06302Y02328*
X06301Y02329*
X063Y02329*
X063Y02329*
X06299Y02329*
X06298Y02329*
X06297Y02329*
X06295Y0233*
Y0234*
X06296Y0234*
X06298Y0234*
X06299Y0234*
X063Y0234*
X063Y0234*
X06301Y0234*
X06302Y02341*
X06302Y02341*
X06302Y02341*
Y02328*
G37*
G36*
X06207Y02209D02*
X06208Y02207D01*
X06208Y02206*
X06208Y02205*
X06208Y02205*
X06208Y02204*
X06209Y02203*
X06209Y02203*
X06209Y02202*
X06195*
X06196Y02203*
X06196Y02203*
X06196Y02204*
X06197Y02205*
X06197Y02205*
X06197Y02206*
X06197Y02207*
X06197Y02208*
X06197Y0221*
X06207*
X06207Y02209*
G37*
G36*
X07442Y02313D02*
X07442Y02313D01*
X07442Y02313*
X07441Y02314*
X0744Y02314*
X0744Y02314*
X07439Y02314*
X07438Y02314*
X07437Y02314*
X07435Y02315*
Y02325*
X07436Y02325*
X07438Y02325*
X07439Y02325*
X0744Y02325*
X0744Y02325*
X07441Y02325*
X07442Y02326*
X07442Y02326*
X07442Y02326*
Y02313*
G37*
G36*
X07273Y02291D02*
X07272Y0229D01*
X07271Y02289*
X07271Y02288*
X0727Y02288*
X0727Y02287*
X0727Y02286*
X07269Y02286*
X07269Y02285*
X07269Y02285*
X0726Y02294*
X0726Y02294*
X07261Y02294*
X07261Y02295*
X07262Y02295*
X07263Y02295*
X07263Y02296*
X07264Y02296*
X07265Y02297*
X07266Y02298*
X07273Y02291*
G37*
G36*
X02436Y01742D02*
X02435Y01741D01*
X02434Y0174*
X02434Y01739*
X02433Y01739*
X02433Y01738*
X02433Y01737*
X02433Y01736*
X02433Y01735*
X02433Y01734*
X02427*
X02426Y01735*
X02426Y01736*
X02426Y01737*
X02426Y01738*
X02426Y01739*
X02425Y01739*
X02425Y0174*
X02424Y01741*
X02423Y01742*
X02423Y01742*
X02436*
X02436Y01742*
G37*
G36*
X02411Y01717D02*
X0241Y01716D01*
X0241Y01715*
X02409Y01714*
X02409Y01714*
X02409Y01713*
X02408Y01712*
X02408Y01711*
X02408Y0171*
X02408Y01709*
X02402*
X02402Y0171*
X02402Y01711*
X02402Y01712*
X02401Y01713*
X02401Y01714*
X024Y01714*
X024Y01715*
X02399Y01716*
X02399Y01717*
X02398Y01717*
X02412*
X02411Y01717*
G37*
G36*
X02434Y01485D02*
X02429Y01482D01*
X02429Y01482*
X02429Y01482*
X02429Y01482*
X02427Y01483*
X02432Y01488*
X02434Y01485*
G37*
G36*
X02117Y01203D02*
X02117Y01203D01*
X02116Y01202*
X02116Y01201*
X02115Y012*
X02115Y01199*
X02115Y01199*
X02115Y01198*
X02114Y01197*
X02114Y01196*
X02114Y01195*
X02105Y01204*
X02106Y01204*
X02107Y01204*
X02108Y01205*
X02109Y01205*
X02109Y01205*
X0211Y01205*
X02111Y01206*
X02112Y01206*
X02113Y01207*
X02113Y01207*
X02117Y01203*
G37*
G36*
X02518Y01675D02*
X02518Y01674D01*
X02519Y01674*
X0252Y01674*
X0252Y01673*
X02521Y01673*
X02522Y01673*
X02523Y01673*
X02524Y01673*
X02525Y01673*
Y01667*
X02524Y01666*
X02523Y01666*
X02522Y01666*
X02521Y01666*
X0252Y01666*
X0252Y01665*
X02519Y01665*
X02518Y01665*
X02518Y01664*
X02517Y01663*
Y01676*
X02518Y01675*
G37*
G36*
X02548Y01639D02*
X02548Y01638D01*
X02548Y01637*
X02548Y01636*
X02548Y01636*
X02549Y01635*
X02549Y01634*
X0255Y01633*
X02551Y01632*
X02551Y01632*
X02538*
X02538Y01632*
X02539Y01633*
X0254Y01634*
X0254Y01635*
X02541Y01636*
X02541Y01636*
X02541Y01637*
X02541Y01638*
X02541Y01639*
X02542Y0164*
X02548*
X02548Y01639*
G37*
G36*
X01222Y01276D02*
X01222Y01276D01*
X01223Y01275*
X01224Y01275*
X01224Y01275*
X01225Y01275*
X01226Y01275*
X01227Y01275*
X01229Y01275*
Y01265*
X01228Y01264*
X01226Y01264*
X01225Y01264*
X01224Y01264*
X01224Y01264*
X01223Y01264*
X01222Y01263*
X01222Y01263*
X01222Y01263*
Y01276*
X01222Y01276*
G37*
G36*
X01372Y01179D02*
X01372Y01177D01*
X01373Y01176*
X01373Y01175*
X01373Y01175*
X01373Y01174*
X01373Y01173*
X01374Y01173*
X01374Y01172*
X0136*
X01361Y01173*
X01361Y01173*
X01361Y01174*
X01362Y01175*
X01362Y01175*
X01362Y01176*
X01362Y01177*
X01362Y01178*
X01362Y0118*
X01372*
X01372Y01179*
G37*
G36*
X07581Y01262D02*
X07581Y01262D01*
X0758Y01261*
X0758Y0126*
X0758Y0126*
X0758Y01259*
X0758Y01258*
X0758Y01257*
X0758Y01255*
X0757*
X07569Y01256*
X07569Y01258*
X07569Y01259*
X07569Y0126*
X07569Y0126*
X07569Y01261*
X07568Y01262*
X07568Y01262*
X07568Y01262*
X07581*
X07581Y01262*
G37*
G36*
X0758Y01174D02*
X07579Y01163D01*
X07567Y01169*
X07568Y01169*
X07568Y01169*
X07568Y0117*
X07569Y0117*
X07569Y01171*
X07569Y01172*
X07569Y01172*
X07569Y01173*
X07569Y01174*
X0757Y01175*
X0758Y01174*
G37*
G36*
X04357Y01221D02*
X04357Y01221D01*
X04358Y0122*
X04359Y0122*
X04359Y0122*
X0436Y0122*
X04361Y0122*
X04362Y0122*
X04364Y0122*
Y0121*
X04363Y01209*
X04361Y01209*
X0436Y01209*
X04359Y01209*
X04359Y01209*
X04358Y01209*
X04357Y01208*
X04357Y01208*
X04357Y01208*
Y01221*
X04357Y01221*
G37*
G36*
X04565Y01168D02*
X04565Y01166D01*
X04565Y01165*
X04565Y01164*
X04565Y01164*
X04565Y01163*
X04566Y01162*
X04566Y01162*
X04566Y01162*
X04553*
X04553Y01162*
X04553Y01162*
X04554Y01163*
X04554Y01164*
X04554Y01164*
X04554Y01165*
X04554Y01166*
X04554Y01167*
X04555Y01169*
X04565*
X04565Y01168*
G37*
G36*
X0168Y01009D02*
X01679Y01009D01*
X01679Y0101*
X01678Y0101*
X01677Y01011*
X01676Y01011*
X01675Y01012*
X01675Y01012*
X01674Y01012*
X01673Y01012*
X01672Y01012*
X01672Y01018*
X01673Y01018*
X01674Y01019*
X01675Y01019*
X01675Y01019*
X01676Y01019*
X01677Y0102*
X01678Y0102*
X01679Y01021*
X01679Y01022*
X0168Y01022*
X0168Y01009*
G37*
G36*
X01486Y0102D02*
X01487Y01019D01*
X01488Y01019*
X01489Y01018*
X01489Y01018*
X0149Y01018*
X01491Y01017*
X01492Y01017*
X01493Y01017*
X01494Y01017*
X01494Y01011*
X01493Y01011*
X01492Y01011*
X01491Y01011*
X0149Y0101*
X01489Y0101*
X01489Y0101*
X01488Y01009*
X01487Y01008*
X01486Y01008*
X01485Y01007*
X01485Y01021*
X01486Y0102*
G37*
G36*
X01346Y0102D02*
X01347Y01019D01*
X01348Y01019*
X01349Y01018*
X01349Y01018*
X0135Y01018*
X01351Y01017*
X01352Y01017*
X01353Y01017*
X01354Y01017*
Y01011*
X01353Y01011*
X01352Y01011*
X01351Y01011*
X0135Y0101*
X01349Y0101*
X01349Y0101*
X01348Y01009*
X01347Y01008*
X01346Y01008*
X01345Y01007*
Y01021*
X01346Y0102*
G37*
G36*
X01206D02*
X01207Y01019D01*
X01208Y01019*
X01209Y01018*
X01209Y01018*
X0121Y01018*
X01211Y01017*
X01212Y01017*
X01213Y01017*
X01214Y01017*
Y01011*
X01213Y01011*
X01212Y01011*
X01211Y01011*
X0121Y0101*
X01209Y0101*
X01209Y0101*
X01208Y01009*
X01207Y01008*
X01206Y01008*
X01205Y01007*
Y01021*
X01206Y0102*
G37*
G36*
X017Y00988D02*
X017Y00989D01*
X01699Y0099*
X01698Y0099*
X01697Y00991*
X01696Y00991*
X01696Y00991*
X01695Y00992*
X01694Y00992*
X01693Y00992*
X01692Y00992*
X01692Y00998*
X01693Y00998*
X01694Y00998*
X01694Y00998*
X01695Y00999*
X01696Y00999*
X01697Y01*
X01698Y01*
X01698Y01001*
X01699Y01001*
X017Y01002*
X017Y00988*
G37*
G36*
X01719Y00969D02*
X01719Y0097D01*
X01718Y00971*
X01717Y00972*
X01717Y00972*
X01716Y00973*
X01715Y00973*
X01714Y00973*
X01713Y00973*
X01713Y00974*
X01712Y00974*
X01712Y0098*
X01713Y0098*
X01714Y0098*
X01715Y0098*
X01716Y0098*
X01717Y0098*
X01718Y00981*
X01718Y00981*
X01719Y00982*
X0172Y00982*
X01721Y00983*
X01719Y00969*
G37*
G54D14*
X07215Y00835D02*
X07255Y00795D01*
X05017Y00835D02*
X07215D01*
X05047Y00885D02*
X0505Y00883D01*
X07335D02*
X07397Y0082D01*
X0505Y00883D02*
X07335D01*
X05045Y00858D02*
X05052D01*
X05042Y00855D02*
X05045Y00858D01*
X05052D02*
X05053Y00859D01*
X06885*
X05072Y00905D02*
X07463D01*
X07542Y00825*
X05062Y0091D02*
X05066D01*
X05072Y00905*
X03588Y0093D02*
X0573D01*
X03487Y0103D02*
X03588Y0093D01*
X04292Y01115D02*
X04293Y01115D01*
X05235*
X05817Y01315D02*
X05852Y0128D01*
X0602*
X05122Y0134D02*
X05233Y0123D01*
X05903Y01235D02*
X05906D01*
X05897Y0123D02*
X05903Y01235D01*
X05233Y0123D02*
X05897D01*
X05217Y01211D02*
X05867D01*
X05107Y0132D02*
X05217Y01211D01*
X04792Y0099D02*
X06059D01*
X06065Y00985*
X04777Y0101D02*
X061D01*
X06105Y01015*
X05749Y0128D02*
Y01283D01*
X05755Y01289*
Y0129*
X05755Y0129*
X05788Y0128D02*
X0579Y01281D01*
X05755Y0129D02*
Y01725D01*
X0579Y01281D02*
Y01745D01*
X0609Y0115D02*
X0614Y012D01*
X06182*
X0608Y0117D02*
X06135Y01225D01*
X0622*
X05197Y0119D02*
X0571D01*
X05688Y01915D02*
X05817Y01785D01*
X0557Y01915D02*
X05688D01*
X07255Y00795D02*
X07257D01*
X0212Y0121D02*
X02375D01*
X02105Y01195D02*
X0212Y0121D01*
X02405Y0124D02*
Y01725D01*
X02375Y0121D02*
X02405Y0124D01*
X0143Y02905D02*
X01445Y0292D01*
X0143Y0273D02*
Y02905D01*
X014Y027D02*
X0143Y0273D01*
X0136Y027D02*
X014D01*
X05242Y01255D02*
X05946D01*
X05182Y0117D02*
X0608D01*
X05172Y0115D02*
X0609D01*
X02436Y01475D02*
Y01479D01*
X0243Y01485D02*
X02436Y01479D01*
X0243Y01485D02*
Y01559D01*
X0243Y0156*
Y01575*
X0243Y01575D02*
X0243Y01575D01*
X0243Y01575D02*
Y0175D01*
X02545Y01625D02*
Y0165D01*
X02525Y0167D02*
X02545Y0165D01*
X0251Y0167D02*
X02525D01*
X03635Y0159D02*
Y016D01*
X0367Y01635*
Y01765*
X0371Y01805*
X0379*
X0382Y01835*
Y01995*
X0377Y02045D02*
X0382Y01995D01*
X0377Y02045D02*
Y02425D01*
X0363Y0163D02*
X0365Y0165D01*
Y01775*
X037Y01825*
X03775*
X038Y0185*
Y01985*
X0375Y02035D02*
X038Y01985D01*
X0375Y02035D02*
Y0245D01*
X03738Y01435D02*
X03897Y01275D01*
X03152Y02175D02*
X0359Y01738D01*
X03635Y01435D02*
X03738D01*
X0361Y0146D02*
X03635Y01435D01*
X0361Y0146D02*
Y01615D01*
X0359Y01635D02*
X0361Y01615D01*
X0359Y01635D02*
Y01738D01*
X03132Y02165D02*
X03565Y01733D01*
X03728Y01415D02*
X03887Y01255D01*
X0362Y01415D02*
X03728D01*
X03585Y0145D02*
X0362Y01415D01*
X03585Y0145D02*
Y01605D01*
X03565Y01625D02*
X03585Y01605D01*
X03565Y01625D02*
Y01733D01*
X07397Y00814D02*
Y0082D01*
Y00814D02*
X07402Y00809D01*
Y00805D02*
Y00809D01*
X04762Y00995D02*
X04777Y0101D01*
X04772Y0097D02*
X04792Y0099D01*
X03582Y0097D02*
X04772D01*
X03592Y00995D02*
X04762D01*
X07613Y0262D02*
Y02766D01*
Y02616D02*
Y0262D01*
X06353D02*
Y02944D01*
Y02616D02*
Y0262D01*
X05093D02*
Y02944D01*
Y02616D02*
Y0262D01*
X03442Y02205D02*
X03447Y022D01*
X03232Y02205D02*
X03442D01*
X03202Y02235D02*
X03232Y02205D01*
X03202Y02235D02*
Y0235D01*
X03217Y0218D02*
X03472D01*
X03177Y0222D02*
Y0234D01*
Y0222D02*
X03217Y0218D01*
X03067Y02485D02*
X03202Y0235D01*
X02377Y02485D02*
X03067D01*
X02341Y02522D02*
X02377Y02485D01*
X02341Y02522D02*
Y02523D01*
X02338Y02526D02*
X02341Y02523D01*
X02338Y02526D02*
Y0254D01*
X02337Y0254D02*
X02338Y0254D01*
X03052Y02465D02*
X03177Y0234D01*
X02367Y02465D02*
X03052D01*
X02327Y02506D02*
X02367Y02465D01*
X02327Y02506D02*
Y02507D01*
X02322Y02512D02*
X02327Y02507D01*
X02322Y02512D02*
Y02515D01*
X04277Y01405D02*
Y01955D01*
X04247Y01972D02*
Y01975D01*
Y01972D02*
X04252Y01967D01*
X04277Y01405D02*
X04337Y01345D01*
X01627Y02545D02*
Y02628D01*
X01654Y02655*
X01692*
X04477Y01045D02*
X04722D01*
X04747Y0102*
X04467Y01055D02*
X04477Y01045D01*
X04467Y01055D02*
Y01075D01*
X04427Y0102D02*
X04607D01*
X04417Y0103D02*
X04427Y0102D01*
X04417Y0103D02*
Y0105D01*
X02207Y02095D02*
X02222Y0211D01*
X02207Y0202D02*
Y02095D01*
X02144Y01957D02*
X02207Y0202D01*
X01613Y01957D02*
X02144D01*
X01609Y01961D02*
X01613Y01957D01*
X01586Y01961D02*
X01609D01*
X0271Y02078D02*
X02712Y02075D01*
X0271Y02078D02*
Y02083D01*
X02467Y02325D02*
X0271Y02083D01*
X01458Y00995D02*
X01707D01*
X01341Y00977D02*
X01727D01*
X03152Y02175D02*
Y02315D01*
X01478Y01014D02*
X01687Y01015D01*
X01777Y0094D02*
Y0109D01*
X01692Y01175D02*
X01777Y0109D01*
X01692Y01175D02*
Y01295D01*
X01562Y01425D02*
X01692Y01295D01*
X01562Y01425D02*
Y0215D01*
X01593Y02181D02*
X01646D01*
X01562Y0215D02*
X01593Y02181D01*
X05817Y01315D02*
Y01785D01*
X05137Y0136D02*
X05242Y01255D01*
X04837Y0136D02*
X05137D01*
X04822Y01345D02*
X04837Y0136D01*
X04337Y01345D02*
X04822D01*
X04847Y0134D02*
X05122D01*
X04827Y0132D02*
X04847Y0134D01*
X04322Y0132D02*
X04827D01*
X04252Y0139D02*
X04322Y0132D01*
X04232Y01375D02*
Y0195D01*
X04252Y0139D02*
Y01967D01*
X04232Y01375D02*
X04307Y013D01*
X04852Y0132D02*
X05107D01*
X04832Y013D02*
X04852Y0132D01*
X04307Y013D02*
X04832D01*
X05017Y0302D02*
X05093Y02944D01*
X03722Y0302D02*
X05017D01*
X04902Y03405D02*
X05202D01*
X05222Y03425*
X04707Y0321D02*
X04902Y03405D01*
X04707Y0309D02*
Y0321D01*
X04657Y0304D02*
X04707Y0309D01*
X03697Y0304D02*
X04657D01*
X04677Y0322D02*
X04887Y0343D01*
X04677Y03105D02*
Y0322D01*
X04887Y0343D02*
X05155D01*
X0516Y03425*
X05164*
X04632Y0306D02*
X04677Y03105D01*
X03722Y0306D02*
X04632D01*
X04177Y0312D02*
X04607D01*
X04127Y03105D02*
X04167Y03145D01*
X04563*
X03737Y03105D02*
X04127D01*
X04142Y03085D02*
X04177Y0312D01*
X03717Y03085D02*
X04142D01*
X03672Y0313D02*
X03717Y03085D01*
X03152Y0313D02*
X03672D01*
X04878Y0346D02*
X06402D01*
X04563Y03145D02*
X04878Y0346D01*
X06402D02*
X06422Y0344D01*
X06467Y0348D02*
X06482Y03465D01*
X04863Y0348D02*
X06467D01*
X04548Y03165D02*
X04863Y0348D01*
X07552Y035D02*
X07662Y0339D01*
X04848Y035D02*
X07552D01*
X04533Y03185D02*
X04848Y035D01*
X07612Y0352D02*
X07677Y03455D01*
X04833Y0352D02*
X07612D01*
X04518Y03205D02*
X04833Y0352D01*
X03692Y0315D02*
X03737Y03105D01*
X03187Y0315D02*
X03692D01*
X07672Y0354D02*
X07737Y03475D01*
X04818Y0354D02*
X07672D01*
X04503Y03225D02*
X04818Y0354D01*
X04162Y03165D02*
X04548D01*
X04122Y03125D02*
X04162Y03165D01*
X03752Y03125D02*
X04122D01*
X03702Y03175D02*
X03752Y03125D01*
X03152Y03175D02*
X03702D01*
X07613Y02766D02*
X07662Y02815D01*
Y0339*
X04152Y03185D02*
X04533D01*
X04112Y03145D02*
X04152Y03185D01*
X03772Y03145D02*
X04112D01*
X03717Y032D02*
X03772Y03145D01*
X02867Y032D02*
X03717D01*
X02852Y03185D02*
X02867Y032D01*
X02852Y0316D02*
Y03185D01*
X02792Y031D02*
X02852Y0316D01*
X02722Y031D02*
X02792D01*
X04142Y03205D02*
X04518D01*
X04102Y03165D02*
X04142Y03205D01*
X03782Y03165D02*
X04102D01*
X03727Y0322D02*
X03782Y03165D01*
X02852Y0322D02*
X03727D01*
X02827Y03195D02*
X02852Y0322D01*
X02827Y03165D02*
Y03195D01*
X02782Y0312D02*
X02827Y03165D01*
X02697Y0312D02*
X02782D01*
X04132Y03225D02*
X04503D01*
X04092Y03185D02*
X04132Y03225D01*
X03792Y03185D02*
X04092D01*
X03737Y0324D02*
X03792Y03185D01*
X02842Y0324D02*
X03737D01*
X02807Y03205D02*
X02842Y0324D01*
X02807Y03175D02*
Y03205D01*
X02772Y0314D02*
X02807Y03175D01*
X02722Y0314D02*
X02772D01*
X03447Y0253D02*
X03482D01*
X03417Y0256D02*
X03447Y0253D01*
X03417Y0256D02*
Y02625D01*
X05092Y01295D02*
X05197Y0119D01*
X04872Y01295D02*
X05092D01*
X03887Y01255D02*
X05067D01*
X05172Y0115*
X01867Y0085D02*
X04927D01*
X01777Y0094D02*
X01867Y0085D01*
X01304Y01014D02*
X01341Y00977D01*
X05077Y01275D02*
X05182Y0117D01*
X03897Y01275D02*
X05077D01*
X03132Y02165D02*
Y02305D01*
X03057Y0241D02*
X03152Y02315D01*
X03017Y0242D02*
X03132Y02305D01*
X03092Y02145D02*
Y02285D01*
X02992Y02385D02*
X03092Y02285D01*
X03027Y0238D02*
X03112Y02295D01*
X03537Y0105D02*
X03592Y00995D01*
X03512Y0104D02*
X03582Y0097D01*
X03512Y0104D02*
Y01725D01*
X03537Y0105D02*
Y0173D01*
X03112Y02155D02*
X03537Y0173D01*
X03112Y02155D02*
Y02295D01*
X03487Y0103D02*
Y01705D01*
X03097Y02095D02*
X03487Y01705D01*
X03092Y02145D02*
X03512Y01725D01*
X02887Y02225D02*
X03437Y01675D01*
X02857Y02225D02*
X03407Y01675D01*
X02857Y02195D02*
X03377Y01675D01*
X03407Y01555D02*
Y01675D01*
X02892Y02255D02*
X03467Y0168D01*
Y01555D02*
Y0168D01*
X03512Y02035D02*
X03527Y0205D01*
X03542Y02035D02*
X03687D01*
X03527Y0205D02*
X03702D01*
X03477Y01995D02*
X03647D01*
X03502Y01975D02*
X03637D01*
X03502Y02015D02*
X03522D01*
X03337Y02035D02*
X03512D01*
X03702Y0205D02*
X03777Y01975D01*
Y01965D02*
Y01975D01*
X03647Y01995D02*
X03727Y01915D01*
X03747Y0197D02*
Y01975D01*
X03687Y02035D02*
X03747Y01975D01*
X03522Y02015D02*
X03542Y02035D01*
X01267Y02495D02*
X01577D01*
X01627Y02545*
X03637Y01975D02*
X03692Y0192D01*
X03377Y01535D02*
Y01675D01*
X03437Y01535D02*
Y01675D01*
X03347Y01555D02*
Y01675D01*
X02827Y02195D02*
X03347Y01675D01*
X03317Y01535D02*
Y01675D01*
X02827Y02165D02*
X03317Y01675D01*
X03287Y01555D02*
Y0167D01*
X02797Y0216D02*
X03287Y0167D01*
X03257Y01535D02*
Y0167D01*
X02797Y0213D02*
X03257Y0167D01*
X01439Y01014D02*
X01458Y00995D01*
X01198Y01014D02*
X01304D01*
X01338D02*
X01439D01*
G54D80*
X06285Y0081D02*
X0649D01*
X0484Y00808D02*
X04859Y0079D01*
X0484Y00808D02*
X04854Y00822D01*
X04826Y00795D02*
X0484Y00808D01*
X07993Y01368D02*
Y01409D01*
X06265Y0079D02*
X06285Y0081D01*
X04859Y0079D02*
X06265D01*
X0705Y01345D02*
X0797D01*
X07025D02*
X0705D01*
X07D02*
X07025D01*
X06975D02*
X07D01*
X0797D02*
X07993Y01368D01*
G54D86*
X0479Y02345D02*
X04995D01*
X0474Y02295D02*
X0479Y02345D01*
X0474Y02235D02*
Y02295D01*
X06202Y02292D02*
X06245Y02335D01*
X0631*
X06202Y02195D02*
Y02292D01*
X07295Y0232D02*
X0745D01*
X0726Y02285D02*
X07295Y0232D01*
X0757Y0116D02*
Y01162D01*
X07575Y01167*
Y0127*
X0456Y01155D02*
Y0118D01*
X04525Y01215D02*
X0456Y0118D01*
X0435Y01215D02*
X04525D01*
X01367Y01165D02*
Y01227D01*
X01325Y0127D02*
X01367Y01227D01*
X01215Y0127D02*
X01325D01*
X07932Y03692D02*
X07995Y0363D01*
X08035*
X04724Y03692D02*
X07932D01*
X0799Y0357D02*
X08045D01*
X0797Y0359D02*
X0799Y0357D01*
X0797Y0359D02*
Y0361D01*
X07914Y03665D02*
X0797Y0361D01*
X04732Y03665D02*
X07914D01*
X04743Y0364D02*
X07895D01*
X0809Y03545D02*
Y0357D01*
X08075Y0353D02*
X0809Y03545D01*
X0797Y0353D02*
X08075D01*
X0794Y0356D02*
X0797Y0353D01*
X0794Y0356D02*
Y03595D01*
X07895Y0364D02*
X0794Y03595D01*
X04778Y0359D02*
X07374D01*
X07375Y0359*
X02577Y03541D02*
X02822Y03295D01*
X02593Y03575D02*
X02847Y0332D01*
X02535Y03575D02*
X02593D01*
X02606Y03611D02*
X02872Y03344D01*
X02495Y03505D02*
X02562D01*
X02495Y03505D02*
X02495Y03505D01*
X01739Y03646D02*
X02621D01*
X01723D02*
X01739D01*
X01705Y03665D02*
Y03685D01*
Y03665D02*
X01723Y03646D01*
X01765Y03682D02*
X02635D01*
X018Y03611D02*
X02606D01*
X01725Y0358D02*
Y03585D01*
X01751Y03611*
X018*
X04468Y0328D02*
X04778Y0359D01*
X04105Y0328D02*
X04468D01*
X04793Y03565D02*
X07337D01*
X04483Y03255D02*
X04793Y03565D01*
X04763Y03615D02*
X07277D01*
X04453Y03305D02*
X04763Y03615D01*
X04433Y0333D02*
X04743Y0364D01*
X04422Y03355D02*
X04732Y03665D01*
X04412Y0338D02*
X04724Y03692D01*
X03856Y03216D02*
X04076D01*
X03886Y03241D02*
X04066D01*
X04076Y03216D02*
X04115Y03255D01*
X04066Y03241D02*
X04105Y0328D01*
X03856Y03266D02*
X04056D01*
X04095Y03305*
X02562Y03505D02*
X02797Y0327D01*
X03287*
X02822Y03295D02*
X03262D01*
X02847Y0332D02*
X03287D01*
X02872Y03344D02*
X03262D01*
X02621Y03646D02*
X02897Y0337D01*
X03287*
X02635Y03682D02*
X02922Y03395D01*
X03262*
X04095Y03305D02*
X04453D01*
X04115Y03255D02*
X04483D01*
X04055Y0333D02*
X04433D01*
X03965Y03421D02*
X04055Y0333D01*
X04077Y03355D02*
X04422D01*
X03931Y03446D02*
X03986D01*
X04077Y03355*
X04092Y0338D02*
X04412D01*
X04001Y03471D02*
X04092Y0338D01*
X03916Y03471D02*
X04001D01*
X03901Y03424D02*
X0393Y03395D01*
X03901Y03456D02*
X03916Y03471D01*
X03901Y03424D02*
Y03456D01*
G54D87*
X0719Y01585D02*
X07275D01*
X0634Y01495D02*
X071D01*
X0719Y01585*
X05532Y01805D02*
Y02013D01*
X05387Y0166D02*
X05532Y01805D01*
Y02013D02*
X05662Y02143D01*
X03512Y02615D02*
X03642Y02745D01*
X03157Y0295D02*
X03197D01*
X03522Y02625*
X03607Y0254*
X02512Y02875D02*
X02612Y02975D01*
X03412Y01055D02*
X03462Y01005D01*
Y0097D02*
Y01005D01*
X02297Y02075D02*
X02452Y0192D01*
X03007Y0294D02*
X03147D01*
X03517Y02235D02*
X03607Y02325D01*
X03517Y0211D02*
Y02235D01*
X03607Y02325D02*
Y0254D01*
X02302Y02545D02*
Y0264D01*
X02252Y02495D02*
X02302Y02545D01*
X02252Y0223D02*
Y02495D01*
X05662Y02143D02*
Y02535D01*
X03372Y01055D02*
X03412D01*
X03262Y01165D02*
X03372Y01055D01*
X03262Y01165D02*
Y013D01*
X03157Y01716D02*
X03217Y01655D01*
Y0147D02*
Y01655D01*
Y0147D02*
X03262Y01425D01*
X03157Y01716D02*
Y01735D01*
X03262Y013D02*
Y01425D01*
X02467Y0192D02*
X02492Y01945D01*
X02597*
X02807Y01735*
X03157*
X02297Y02075D02*
Y02185D01*
X02252Y0223D02*
X02297Y02185D01*
X05657Y0254D02*
X05662Y02535D01*
X05257Y0166D02*
X05387D01*
X02492Y02855D02*
X02512Y02875D01*
X02287Y02655D02*
X02302Y0264D01*
X02287Y02655D02*
Y02685D01*
X02317Y02715*
X02352*
X02492Y02855*
X02622Y02965D02*
X02642Y02945D01*
X02612Y02975D02*
X02622Y02965D01*
X02642Y02945D02*
X02767D01*
X02827Y03005*
X02942*
X03007Y0294*
X03147D02*
X03157Y0295D01*
X03642Y02745D02*
X04132D01*
X04587Y0229*
Y01935D02*
Y0229D01*
Y01935D02*
X04772Y0175D01*
X05167*
X05257Y0166*
Y01545D02*
Y0166D01*
Y0152D02*
Y01545D01*
Y01495D02*
Y0152D01*
Y0147D02*
Y01495D01*
Y01445D02*
Y0147D01*
G54D88*
X08182Y017D02*
Y02535D01*
X07275Y01585D02*
X08067D01*
X08182Y017*
X07402Y0299D02*
X07442Y0303D01*
X07402Y02675D02*
Y0299D01*
Y02675D02*
X07464Y02614D01*
X07467Y0257D02*
Y02603D01*
X07466Y02605D02*
X07467Y02603D01*
X07466Y02605D02*
Y02612D01*
X07464Y02614D02*
X07466Y02612D01*
X07467Y0257D02*
X07487Y0255D01*
X08167*
X08182Y02535*
G54D89*
X03312Y0207D02*
X03352Y0211D01*
X03517*
G54D92*
X07487Y02896D03*
X07936D03*
X06227D03*
X06676D03*
X04967D03*
X05416D03*
G54D93*
X07613Y0262D03*
X0781D03*
X07613Y03191D03*
X07712D03*
X0781D03*
X06353Y0262D03*
X0655D03*
X06353Y03191D03*
X06452D03*
X0655D03*
X05093Y0262D03*
X0529D03*
X05093Y03191D03*
X05192D03*
X0529D03*
G54D94*
X0356Y01215D03*
X03605Y01085D03*
X03615Y0138D03*
X0808Y03457D03*
X08238Y03142D03*
Y02512D03*
X0808Y02197D03*
X08238Y01882D03*
Y01252D03*
X0808Y00938D03*
X07765Y03457D03*
Y02827D03*
Y02197D03*
X07923Y01882D03*
X07765Y00938D03*
X0745Y03457D03*
X07608Y02512D03*
X0745Y02197D03*
X07608Y01882D03*
X07135Y03457D03*
X07293Y03142D03*
X07135Y02827D03*
Y00938D03*
X0682Y03457D03*
X06978Y03142D03*
X0682Y02197D03*
Y01567D03*
X06663Y03142D03*
X06505Y02197D03*
Y01567D03*
X06348Y02512D03*
Y01882D03*
X0619Y01567D03*
X06348Y01252D03*
X0619Y00938D03*
X06033Y02512D03*
X05875Y01567D03*
Y00938D03*
X0556Y02827D03*
Y02197D03*
Y01567D03*
X05246Y02827D03*
Y02197D03*
X05088Y02512D03*
X04931Y02197D03*
Y01567D03*
X04616Y02827D03*
X04773Y02512D03*
X04616Y01567D03*
X04458Y02512D03*
X04301Y02197D03*
Y01567D03*
X03986Y02827D03*
X04143Y02512D03*
X03986Y01567D03*
X03671Y02827D03*
X03828Y02512D03*
Y01252D03*
X03041Y01567D03*
X02883Y03142D03*
X02726Y01567D03*
Y00938D03*
X02411Y03457D03*
X02568Y03142D03*
Y01882D03*
X02096Y03457D03*
X02253Y03142D03*
X02096Y02827D03*
Y02197D03*
X02253Y01882D03*
Y01252D03*
X01781Y03457D03*
X01938Y03142D03*
X01781Y02827D03*
X01938Y01882D03*
X01781Y01567D03*
X01938Y01252D03*
X01466Y03457D03*
X01623Y03142D03*
X01466Y02197D03*
Y01567D03*
X01151Y03457D03*
X01309Y03142D03*
X01151Y02827D03*
Y02197D03*
X01309Y01882D03*
X01151Y01567D03*
Y00938D03*
X00836Y02827D03*
X06455Y0081D03*
X0649D03*
X04854Y00822D03*
X04826Y00795D03*
X06885Y00859D03*
X0573Y0093D03*
X0569Y0129D03*
X05235Y01115D03*
X04292Y01115D03*
X07995Y0138D03*
X07993Y01409D03*
X0705Y01345D03*
X07025D03*
X07D03*
X06975D03*
X072Y01585D03*
X07225D03*
X0725D03*
X07275D03*
X0634Y01495D03*
X06364Y01496D03*
X06389Y01495D03*
X0602Y0128D03*
X05867Y01211D03*
X06065Y00985D03*
X06105Y01015D03*
X05749Y0128D03*
X05788D03*
X05755Y01725D03*
X0579Y01745D03*
X0622Y01225D03*
X06182Y012D03*
X0571Y0119D03*
X05906Y01235D03*
X05946Y01255D03*
X04692Y019D03*
X0557Y01915D03*
X02105Y01195D03*
X02405Y01725D03*
X06035Y0248D03*
X0595Y0252D03*
X07225Y0251D03*
X04995Y02345D03*
X0474Y02235D03*
X06202Y02195D03*
X0631Y02335D03*
X0745Y0232D03*
X0726Y02285D03*
X0757Y0116D03*
X07575Y0127D03*
X0456Y01155D03*
X0435Y01215D03*
X01215Y0127D03*
X01367Y01165D03*
X01445Y0292D03*
X0136Y027D03*
X08035Y0363D03*
X08045Y0357D03*
X0809D03*
X0728Y03615D03*
X07375Y0359D03*
X0734Y03565D03*
X0258Y0354D03*
X02535Y03575D03*
X02495Y03505D03*
X01705Y03685D03*
X01765D03*
X01725Y0358D03*
X02436Y01475D03*
X02545Y01625D03*
X0251Y0167D03*
X0243Y0175D03*
X03635Y0159D03*
X0363Y0163D03*
X0375Y0245D03*
X0377Y02425D03*
X05017Y00835D03*
X05042Y00855D03*
X05047Y00885D03*
X05062Y0091D03*
X07257Y00795D03*
X03892Y0168D03*
X0313Y009D03*
X03365D03*
X02905D03*
X03662Y02125D03*
X03447Y022D03*
X03472Y0218D03*
X02337Y0254D03*
X02322Y02515D03*
X04527Y0217D03*
X04667Y0223D03*
X05797Y02335D03*
X05877Y0236D03*
X06353Y02944D03*
X07057Y0234D03*
X07137Y0236D03*
X01652Y02415D03*
X01662Y02505D03*
X02187Y0258D03*
X02207Y02745D03*
X07442Y0303D03*
X07464Y02614D03*
X05657Y0254D03*
X04277Y01955D03*
X04247Y01975D03*
X08167Y0255D03*
X01692Y02655D03*
X04782Y02135D03*
X04867Y01985D03*
X04897Y02105D03*
X06047Y02145D03*
X06122Y02165D03*
Y0199D03*
X07302Y02135D03*
X07417Y02105D03*
X02032Y0162D03*
X02347Y0203D03*
X01472Y02815D03*
X01587Y03005D03*
X01527Y0234D03*
X04467Y01075D03*
X04417Y0105D03*
X03697Y0198D03*
X02222Y0211D03*
X02467Y02325D03*
X02712Y02075D03*
X01988Y01765D03*
X01932D03*
X01837Y0167D03*
Y0159D03*
X01872Y01556D03*
X02005Y01563D03*
X02149D03*
X02307Y0162D03*
X02512D03*
X03437Y0103D03*
X03452Y01015D03*
X03462Y00995D03*
Y0097D03*
X02442Y0193D03*
X02467Y0192D03*
X03557Y016D03*
X03157Y01735D03*
X03627Y01665D03*
X03312Y0207D03*
X02287Y02685D03*
Y02655D03*
X02302Y0264D03*
X02512Y02875D03*
X02492Y02855D03*
X02622Y02965D03*
X02602Y02985D03*
X03207Y0294D03*
X03177Y0295D03*
X03147Y0294D03*
X03532Y02635D03*
X03512Y02615D03*
X05257Y01445D03*
Y0147D03*
Y01495D03*
Y0152D03*
Y01545D03*
X01687Y01015D03*
X01707Y00995D03*
X01586Y01961D03*
X04232Y0195D03*
X03722Y0302D03*
X03697Y0304D03*
X03722Y0306D03*
X04607Y0312D03*
X05164Y03425D03*
X05222D03*
X06422Y0344D03*
X06482Y03465D03*
X03152Y0313D03*
X03187Y0315D03*
X03152Y03175D03*
X07677Y03455D03*
X07737Y03475D03*
X03886Y03241D03*
X03856Y03216D03*
X02722Y031D03*
X02697Y0312D03*
X02722Y0314D03*
X03482Y0253D03*
X03417Y02625D03*
X04872Y01295D03*
X04927Y0085D03*
X01727Y00975D03*
X02992Y02385D03*
X03027Y0238D03*
X04607Y0102D03*
X04747D03*
X02887Y02225D03*
X02857Y02195D03*
X02892Y02255D03*
X03477Y01995D03*
X03502Y01975D03*
Y02015D03*
X03337Y02035D03*
X03017Y0242D03*
X03057Y0241D03*
X03097Y02095D03*
X07542Y00825D03*
X07402Y00805D03*
X03262Y013D03*
X03517Y0211D03*
X03777Y01965D03*
X03727Y01915D03*
X03692Y0192D03*
X03747Y0197D03*
X01267Y02495D03*
X03377Y01535D03*
X03467Y01555D03*
X03437Y01535D03*
X03407Y01555D03*
X03347D03*
X03317Y01535D03*
X03287Y01555D03*
X03257Y01535D03*
X02827Y02195D03*
X02857Y02225D03*
X02827Y02165D03*
X02797Y0216D03*
Y0213D03*
X03287Y0327D03*
X03262Y03295D03*
X03287Y0332D03*
X03262Y03344D03*
X03287Y0337D03*
X03262Y03395D03*
X07341Y01031D03*
Y01061D03*
X07481Y01026D03*
Y01056D03*
X07406Y01051D03*
X01621Y01976D03*
X01646Y02181D03*
X01198Y01014D03*
X01338D03*
X01478D03*
X03856Y03266D03*
X03965Y03421D03*
X03931Y03446D03*
X0393Y03395D03*
M02*