%FSTAX23Y23*%
%MOIN*%
%SFA1B1*%

%IPPOS*%
%AMD74*
4,1,8,-0.017700,-0.045300,0.017700,-0.045300,0.035500,-0.027600,0.035500,0.027600,0.017700,0.045300,-0.017700,0.045300,-0.035500,0.027600,-0.035500,-0.027600,-0.017700,-0.045300,0.0*
%
%ADD73O,0.114299X0.149732*%
G04~CAMADD=74~4~0.0~0.0~709.9~906.8~0.0~177.5~0~0.0~0.0~0.0~0.0~0~0.0~0.0~0.0~0.0~0~0.0~0.0~0.0~180.0~710.0~906.0*
%ADD74D74*%
%ADD75R,0.067055X0.067055*%
%ADD76C,0.067055*%
%LNmod_duo_dwarf-1*%
%LPD*%
G54D73*
X07487Y02896D03*
X07936D03*
X06227D03*
X06676D03*
X04967D03*
X05416D03*
G54D74*
X07613Y0262D03*
X0781D03*
X07613Y03191D03*
X07712D03*
X0781D03*
X06353Y0262D03*
X0655D03*
X06353Y03191D03*
X06452D03*
X0655D03*
X05093Y0262D03*
X0529D03*
X05093Y03191D03*
X05192D03*
X0529D03*
G54D75*
X05697Y01066D03*
X02282Y00896D03*
X07936Y00896D03*
X04216D03*
G54D76*
X05697Y00966D03*
X05797Y01066D03*
Y00966D03*
X05897Y01066D03*
Y00966D03*
X05997Y01066D03*
Y00966D03*
X06097Y01066D03*
Y00966D03*
X06197Y01066D03*
Y00966D03*
X06297Y01066D03*
Y00966D03*
X06397Y01066D03*
Y00966D03*
X06497Y01066D03*
Y00966D03*
X06597Y01066D03*
Y00966D03*
X02382Y00896D03*
X08036Y00896D03*
X04316D03*
M02*