%FSTAX23Y23*%
%MOIN*%
%SFA1B1*%

%IPPOS*%
%AMD36*
4,1,4,0.105900,-0.047200,-0.047200,0.105900,-0.105900,0.047200,0.047200,-0.105900,0.105900,-0.047200,0.0*
%
%AMD56*
4,1,4,0.016000,-0.030000,0.030000,-0.016000,-0.016000,0.030000,-0.030000,0.016000,0.016000,-0.030000,0.0*
%
%AMD57*
4,1,4,0.030000,0.016000,0.016000,0.030000,-0.030000,-0.016000,-0.016000,-0.030000,0.030000,0.016000,0.0*
%
%AMD65*
4,1,4,0.033400,0.000000,0.000000,0.033400,-0.033400,0.000000,0.000000,-0.033400,0.033400,0.000000,0.0*
%
%AMD66*
4,1,4,0.000000,0.033400,-0.033400,0.000000,0.000000,-0.033400,0.033400,0.000000,0.000000,0.033400,0.0*
%
%AMD72*
4,1,8,-0.017700,-0.045300,0.017700,-0.045300,0.035500,-0.027600,0.035500,0.027600,0.017700,0.045300,-0.017700,0.045300,-0.035500,0.027600,-0.035500,-0.027600,-0.017700,-0.045300,0.0*
%
%AMD75*
4,1,8,-0.010900,-0.033500,0.010900,-0.033500,0.021700,-0.022700,0.021700,0.022700,0.010900,0.033500,-0.010900,0.033500,-0.021700,0.022700,-0.021700,-0.022700,-0.010900,-0.033500,0.0*
%
%ADD21R,0.103000X0.062000*%
G04~CAMADD=36~9~0.0~0.0~2165.0~830.0~0.0~0.0~0~0.0~0.0~0.0~0.0~0~0.0~0.0~0.0~0.0~0~0.0~0.0~0.0~315.0~2118.0~2117.0*
%ADD36D36*%
%ADD45R,0.128080X0.078870*%
%ADD46R,0.059180X0.067060*%
%ADD47R,0.047370X0.047370*%
%ADD48R,0.035560X0.025720*%
%ADD49R,0.059180X0.035560*%
%ADD50R,0.067060X0.031620*%
%ADD51R,0.043430X0.047370*%
%ADD52R,0.063120X0.070990*%
%ADD53C,0.047370*%
%ADD54R,0.271780X0.271780*%
%ADD55R,0.070990X0.126110*%
G04~CAMADD=56~9~0.0~0.0~198.1~650.9~0.0~0.0~0~0.0~0.0~0.0~0.0~0~0.0~0.0~0.0~0.0~0~0.0~0.0~0.0~225.0~600.0~599.0*
%ADD56D56*%
G04~CAMADD=57~9~0.0~0.0~198.1~650.9~0.0~0.0~0~0.0~0.0~0.0~0.0~0~0.0~0.0~0.0~0.0~0~0.0~0.0~0.0~315.0~600.0~599.0*
%ADD57D57*%
%ADD58R,0.031620X0.047370*%
%ADD59R,0.165480X0.165480*%
%ADD60R,0.021780X0.051310*%
%ADD61R,0.051310X0.021780*%
%ADD62R,0.047370X0.047370*%
%ADD63R,0.047370X0.043430*%
%ADD64R,0.031620X0.067060*%
G04~CAMADD=65~10~0.0~473.7~0.0~0.0~0.0~0.0~0~0.0~0.0~0.0~0.0~0~0.0~0.0~0.0~0.0~0~0.0~0.0~0.0~315.0~473.7~0.0*
%ADD65D65*%
G04~CAMADD=66~10~0.0~473.7~0.0~0.0~0.0~0.0~0~0.0~0.0~0.0~0.0~0~0.0~0.0~0.0~0.0~0~0.0~0.0~0.0~405.0~473.7~0.0*
%ADD66D66*%
%ADD67R,0.035560X0.059180*%
%ADD68R,0.070990X0.063120*%
%ADD69R,0.067060X0.059180*%
%ADD70C,0.067060*%
%ADD71R,0.067060X0.067060*%
G04~CAMADD=72~4~0.0~0.0~709.9~906.8~0.0~177.5~0~0.0~0.0~0.0~0.0~0~0.0~0.0~0.0~0.0~0~0.0~0.0~0.0~180.0~710.0~906.0*
%ADD72D72*%
%ADD73O,0.114300X0.149730*%
%ADD74C,0.094610*%
G04~CAMADD=75~4~0.0~0.0~434.3~670.6~0.0~108.6~0~0.0~0.0~0.0~0.0~0~0.0~0.0~0.0~0.0~0~0.0~0.0~0.0~180.0~434.0~670.0*
%ADD75D75*%
%LNmod_duo_dwarf-1*%
%LPD*%
G54D21*
X03542Y-00155D03*
X03727D03*
G54D36*
X04541Y02503D03*
X04808Y02236D03*
G54D45*
X04113Y0026D03*
X03916D03*
G54D46*
X01118Y-0005D03*
X01051D03*
X00911D03*
X00978D03*
G54D47*
X01791Y02615D03*
X01728D03*
X03983Y00445D03*
X04046D03*
X05041Y0134D03*
X04978D03*
X05756Y01955D03*
X05693D03*
X05568D03*
X05631D03*
X04571D03*
X04508D03*
X04383D03*
X04446D03*
X03396D03*
X03333D03*
X03208D03*
X03271D03*
G54D48*
X0505Y0147D03*
X04959D03*
X05125Y0177D03*
X05034D03*
G54D49*
X05735Y02545D03*
Y02588D03*
Y02631D03*
X05851Y02545D03*
Y02588D03*
Y02631D03*
X05056D03*
Y02588D03*
Y02545D03*
X04939Y02631D03*
Y02588D03*
Y02545D03*
X01095Y02631D03*
Y02588D03*
Y02545D03*
X00979Y02631D03*
Y02588D03*
Y02545D03*
X003Y02631D03*
Y02588D03*
Y02545D03*
X00184Y02631D03*
Y02588D03*
Y02545D03*
X05731Y01013D03*
Y0097D03*
Y00926D03*
X05614Y01013D03*
Y0097D03*
Y00926D03*
X04549Y01013D03*
Y0097D03*
Y00926D03*
X04433Y01013D03*
Y0097D03*
Y00926D03*
X03368Y01013D03*
Y0097D03*
Y00926D03*
X03251Y01013D03*
Y0097D03*
Y00926D03*
X02853Y00043D03*
Y0D03*
Y-00043D03*
X02736Y00043D03*
Y0D03*
Y-00043D03*
X05648Y00043D03*
Y0D03*
Y-00043D03*
X05531Y00043D03*
Y0D03*
Y-00043D03*
X00058Y00043D03*
Y0D03*
Y-00043D03*
X-00058Y00043D03*
Y0D03*
Y-00043D03*
G54D50*
X-00107Y01352D03*
Y01427D03*
X-00182Y0139D03*
X-00184Y01602D03*
X-0011Y0164D03*
Y01565D03*
X-00182Y01185D03*
X-00107Y01222D03*
Y01147D03*
G54D51*
X06038Y0264D03*
X05971D03*
X04975Y01405D03*
X05041D03*
X05193Y0134D03*
X05126D03*
X05193Y01405D03*
X05126D03*
X05113Y0184D03*
X05046D03*
X05971Y0252D03*
X06038D03*
X05971Y0258D03*
X06038D03*
X05181Y0252D03*
X05248D03*
X05181Y0258D03*
X05248D03*
X05181Y0264D03*
X05248D03*
X01235Y0252D03*
X01301D03*
X01235Y0258D03*
X01301D03*
X01235Y0264D03*
X01301D03*
X00436Y0252D03*
X00503D03*
X00436Y0258D03*
X00503D03*
X00436Y0264D03*
X00503D03*
X-00163Y01285D03*
X-00096D03*
X-00163Y0149D03*
X-00096D03*
X-00163Y01085D03*
X-00096D03*
X-00511Y01006D03*
X-00444D03*
X05758Y02015D03*
X05691D03*
X05566D03*
X05633D03*
X04573D03*
X04506D03*
X04381D03*
X04448D03*
X03398D03*
X03331D03*
X03206D03*
X03273D03*
X05969Y0091D03*
X05902D03*
X05969Y0097D03*
X05902D03*
X05969Y0103D03*
X05902D03*
X04788Y0091D03*
X04721D03*
X04788Y0097D03*
X04721D03*
X04788Y0103D03*
X04721D03*
X03966Y0063D03*
X04033D03*
X03606Y0091D03*
X0354D03*
X03606Y0097D03*
X0354D03*
X03606Y0103D03*
X0354D03*
X00271Y-0004D03*
X00205D03*
X00271Y0002D03*
X00205D03*
X00271Y0008D03*
X00205D03*
X00293Y-00255D03*
X00226D03*
X00153D03*
X00086D03*
X00013D03*
X-00053D03*
X03081Y-0004D03*
X03015D03*
X03081Y0002D03*
X03015D03*
X03081Y0008D03*
X03015D03*
X03083Y-00255D03*
X03016D03*
X02943D03*
X02876D03*
X02803D03*
X02736D03*
X05901Y0008D03*
X05835D03*
X05901Y0002D03*
X05835D03*
X05901Y-0004D03*
X05835D03*
X05868Y-00255D03*
X05801D03*
X05728D03*
X05661D03*
X05593D03*
X05526D03*
G54D52*
X-00418Y01106D03*
Y01389D03*
X-00536D03*
Y01106D03*
G54D53*
X0343Y00035D03*
G54D54*
X03635Y00374D03*
G54D55*
X03545Y00065D03*
X03725D03*
G54D56*
X04204Y0214D03*
X0419Y02126D03*
X04176Y02112D03*
X04162Y02098D03*
X04148Y02084D03*
X04134Y0207D03*
X0412Y02056D03*
X04107Y02042D03*
X04093Y02028D03*
X04079Y02014D03*
X04065Y02D03*
X04051Y01986D03*
X04037Y01972D03*
X04023Y01959D03*
X04009Y01945D03*
X03995Y01931D03*
X03981Y01917D03*
X03967Y01903D03*
X03953Y01889D03*
X03939Y01875D03*
X03565Y02249D03*
X03579Y02263D03*
X03593Y02277D03*
X03607Y02291D03*
X03621Y02305D03*
X03635Y02319D03*
X03649Y02333D03*
X03662Y02347D03*
X03676Y02361D03*
X0369Y02375D03*
X03704Y02389D03*
X03718Y02403D03*
X03732Y02417D03*
X03746Y0243D03*
X0376Y02444D03*
X03774Y02458D03*
X03788Y02472D03*
X03802Y02486D03*
X03816Y025D03*
X0383Y02514D03*
G54D57*
X0383Y01875D03*
X03816Y01889D03*
X03802Y01903D03*
X03788Y01917D03*
X03774Y01931D03*
X0376Y01945D03*
X03746Y01959D03*
X03732Y01972D03*
X03718Y01986D03*
X03704Y02D03*
X0369Y02014D03*
X03676Y02028D03*
X03662Y02042D03*
X03649Y02056D03*
X03635Y0207D03*
X03621Y02084D03*
X03607Y02098D03*
X03593Y02112D03*
X03579Y02126D03*
X03565Y0214D03*
X03939Y02514D03*
X03953Y025D03*
X03967Y02486D03*
X03981Y02472D03*
X03995Y02458D03*
X04009Y02444D03*
X04023Y0243D03*
X04037Y02417D03*
X04051Y02403D03*
X04065Y02389D03*
X04079Y02375D03*
X04093Y02361D03*
X04107Y02347D03*
X0412Y02333D03*
X04134Y02319D03*
X04148Y02305D03*
X04162Y02291D03*
X04176Y02277D03*
X0419Y02263D03*
X04204Y02249D03*
G54D58*
X05052Y01533D03*
X0509D03*
X05127D03*
Y01636D03*
X05052D03*
G54D59*
X01795Y02395D03*
G54D60*
X01718Y02507D03*
X01743D03*
X01769D03*
X01795D03*
X0182D03*
X01846D03*
X01871D03*
Y02282D03*
X01846D03*
X0182D03*
X01795D03*
X01769D03*
X01743D03*
X01718D03*
G54D61*
X01907Y02471D03*
Y02446D03*
Y0242D03*
Y02395D03*
Y02369D03*
Y02343D03*
Y02318D03*
X01682D03*
Y02343D03*
Y02369D03*
Y02395D03*
Y0242D03*
Y02446D03*
Y02471D03*
G54D62*
X0343Y-00083D03*
Y-00146D03*
X0497Y0162D03*
Y01557D03*
X05205Y01635D03*
Y01572D03*
X04265Y02016D03*
Y01953D03*
X0125Y-00061D03*
Y00001D03*
X0119Y-00061D03*
Y00001D03*
G54D63*
X05125Y-00126D03*
Y-00193D03*
X04595Y-00246D03*
Y-0018D03*
X04695Y-00246D03*
Y-0018D03*
X04795Y-00246D03*
Y-0018D03*
X-0022Y01021D03*
Y01088D03*
X-0028Y01021D03*
Y01088D03*
X-0034Y01021D03*
Y01088D03*
X05815Y02018D03*
Y01951D03*
X0551Y02018D03*
Y01951D03*
X0534Y01348D03*
Y01281D03*
X04165Y01348D03*
Y01281D03*
X0463Y02018D03*
Y01951D03*
X04325Y02018D03*
Y01951D03*
X03455Y02018D03*
Y01951D03*
X0315Y02018D03*
Y01951D03*
X0298Y01348D03*
Y01281D03*
X0592Y00716D03*
Y00783D03*
X0521Y00528D03*
Y00595D03*
Y0077D03*
Y00703D03*
Y00893D03*
Y0096D03*
X04755Y00756D03*
Y00823D03*
X0403Y00703D03*
Y0077D03*
Y00893D03*
Y0096D03*
X03575Y00758D03*
Y00825D03*
X0285Y00893D03*
Y0096D03*
Y0077D03*
Y00703D03*
Y00528D03*
Y00595D03*
X00765Y-00073D03*
Y-00006D03*
X00705D03*
Y-00073D03*
X06205Y-00086D03*
Y-00153D03*
X02515Y-00081D03*
Y-00148D03*
X0168Y-00086D03*
Y-00153D03*
G54D64*
X0501Y-00117D03*
X05047Y-00192D03*
X04972D03*
X0533Y00667D03*
X05367Y00592D03*
X05292D03*
X0533Y00847D03*
X05367Y00772D03*
X05292D03*
X0533Y01032D03*
X05367Y00957D03*
X05292D03*
X0415Y00667D03*
X04187Y00592D03*
X04112D03*
X0415Y00847D03*
X04187Y00772D03*
X04112D03*
X0415Y01032D03*
X04187Y00957D03*
X04112D03*
X0297Y00667D03*
X03007Y00592D03*
X02932D03*
X0297Y00847D03*
X03007Y00772D03*
X02932D03*
X0297Y01032D03*
X03007Y00957D03*
X02932D03*
X00375Y00047D03*
X00412Y-00027D03*
X00337D03*
X0026Y-00112D03*
X00297Y-00187D03*
X00222D03*
X0012Y-00112D03*
X00157Y-00187D03*
X00082D03*
X-0002Y-00112D03*
X00017Y-00187D03*
X-00057D03*
X03047Y-00112D03*
X03084Y-00187D03*
X0301D03*
X02907Y-00112D03*
X02944Y-00187D03*
X0287D03*
X0277Y-00112D03*
X02807Y-00187D03*
X02732D03*
X05835Y-00112D03*
X05872Y-00187D03*
X05797D03*
X05697Y-00112D03*
X05734Y-00187D03*
X0566D03*
X0556Y-00112D03*
X05597Y-00187D03*
X05522D03*
G54D65*
X04877Y02392D03*
X04922Y02347D03*
X04652Y02617D03*
X04697Y02572D03*
X03707Y01802D03*
X03752Y01757D03*
X03582Y02392D03*
X03537Y02437D03*
G54D66*
X04087Y02547D03*
X04132Y02592D03*
X04157Y02477D03*
X04202Y02522D03*
X04222Y02412D03*
X04267Y02457D03*
X04172Y01847D03*
X04127Y01802D03*
X03427Y02222D03*
X03472Y02267D03*
X03817Y02647D03*
X03772Y02602D03*
G54D67*
X-00255Y01191D03*
X-00299D03*
X-00342D03*
X-00255Y01308D03*
X-00299D03*
X-00342D03*
G54D68*
X05814Y00732D03*
X05531D03*
Y0085D03*
X05814D03*
X04633Y00732D03*
X0435D03*
Y0085D03*
X04633D03*
X03452Y00732D03*
X03169D03*
Y0085D03*
X03452D03*
G54D69*
X00835Y-00073D03*
Y-00006D03*
G54D70*
X0609Y-00155D03*
X04795Y-00085D03*
Y00015D03*
X04695Y-00085D03*
Y00015D03*
X04595Y-00085D03*
Y00015D03*
X04495Y-00085D03*
Y00015D03*
X04395Y-00085D03*
Y00015D03*
X04295Y-00085D03*
Y00015D03*
X04195Y-00085D03*
Y00015D03*
X04095Y-00085D03*
Y00015D03*
X03995Y-00085D03*
Y00015D03*
X03895Y-00085D03*
X0157Y-00155D03*
X0237D03*
G54D71*
X0599Y-00155D03*
X03895Y00015D03*
X0147Y-00155D03*
X0227D03*
G54D72*
X05771Y01829D03*
X05672D03*
X05574D03*
X05771Y01258D03*
X05574D03*
X04393D03*
X0459D03*
X04393Y01829D03*
X04491D03*
X0459D03*
X03212Y01258D03*
X03409D03*
X03212Y01829D03*
X0331D03*
X03409D03*
G54D73*
X05897Y01534D03*
X05448D03*
X04267D03*
X04716D03*
X03086D03*
X03535D03*
G54D74*
X00373Y00276D03*
X02302D03*
G54D75*
X00078Y02112D03*
X00128D03*
X02598Y00139D03*
X02547D03*
X01863D03*
X00813D03*
X00863D03*
X00913D03*
X00963D03*
X01013D03*
X01063D03*
X01113D03*
X01163D03*
X01213D03*
X01263D03*
X01313D03*
X01363D03*
X01413D03*
X01463D03*
X01513D03*
X01563D03*
X01613D03*
X01663D03*
X01713D03*
X01763D03*
X01813D03*
X00128D03*
X00078D03*
X02547Y02112D03*
X02598D03*
M02*