%FSTAX23Y23*%
%MOIN*%
%SFA1B1*%

%IPPOS*%
%AMD31*
4,1,4,-0.039600,0.004800,0.004800,-0.039600,0.039600,-0.004800,-0.004800,0.039600,-0.039600,0.004800,0.0*
%
%AMD32*
4,1,4,-0.016300,0.024000,-0.024000,0.016300,0.016300,-0.024000,0.024000,-0.016300,-0.016300,0.024000,0.0*
%
%AMD33*
4,1,4,-0.024000,-0.016300,-0.016300,-0.024000,0.024000,0.016300,0.016300,0.024000,-0.024000,-0.016300,0.0*
%
%AMD36*
4,1,4,0.000000,-0.027700,0.027700,0.000000,0.000000,0.027700,-0.027700,0.000000,0.000000,-0.027700,0.0*
%
%AMD42*
4,1,4,-0.027700,0.000000,0.000000,-0.027700,0.027700,0.000000,0.000000,0.027700,-0.027700,0.000000,0.0*
%
%ADD18R,0.108000X0.105000*%
%ADD19R,0.108000X0.108000*%
%ADD20R,0.023622X0.023622*%
%ADD21R,0.103000X0.062000*%
%ADD22R,0.120078X0.070866*%
%ADD23R,0.027559X0.017716*%
%ADD24R,0.062992X0.023622*%
%ADD25R,0.020866X0.069685*%
%ADD26R,0.062992X0.055118*%
%ADD27R,0.062992X0.118110*%
%ADD28R,0.023622X0.039370*%
%ADD29R,0.041339X0.011811*%
%ADD30R,0.011811X0.041339*%
G04~CAMADD=31~9~0.0~0.0~629.9~492.1~0.0~0.0~0~0.0~0.0~0.0~0.0~0~0.0~0.0~0.0~0.0~0~0.0~0.0~0.0~135.0~792.0~791.0*
%ADD31D31*%
G04~CAMADD=32~9~0.0~0.0~110.2~570.9~0.0~0.0~0~0.0~0.0~0.0~0.0~0~0.0~0.0~0.0~0.0~0~0.0~0.0~0.0~45.0~480.0~479.0*
%ADD32D32*%
G04~CAMADD=33~9~0.0~0.0~110.2~570.9~0.0~0.0~0~0.0~0.0~0.0~0.0~0~0.0~0.0~0.0~0.0~0~0.0~0.0~0.0~135.0~480.0~479.0*
%ADD33D33*%
%ADD34R,0.011811X0.049212*%
%ADD35R,0.078740X0.118110*%
G04~CAMADD=36~10~0.0~393.7~0.0~0.0~0.0~0.0~0~0.0~0.0~0.0~0.0~0~0.0~0.0~0.0~0.0~0~0.0~0.0~0.0~225.0~393.7~0.0*
%ADD36D36*%
%ADD37R,0.055118X0.149606*%
%ADD38R,0.039370X0.112205*%
%ADD39R,0.059055X0.023622*%
%ADD40R,0.039370X0.035433*%
%ADD41R,0.039370X0.039370*%
G04~CAMADD=42~10~0.0~393.7~0.0~0.0~0.0~0.0~0~0.0~0.0~0.0~0.0~0~0.0~0.0~0.0~0.0~0~0.0~0.0~0.0~135.0~393.7~0.0*
%ADD42D42*%
%ADD43R,0.039370X0.039370*%
%ADD44R,0.035433X0.039370*%
%ADD45R,0.023622X0.059055*%
%LNmod_duo_dwarf-1*%
%LPD*%
G54D18*
X0535Y01361D03*
X05476Y01361D03*
G54D19*
X05349Y0149D03*
X05476Y0149D03*
G54D20*
X03694Y03446D03*
Y03494D03*
X03788Y03399D03*
Y03494D03*
Y03446D03*
X03741D03*
X03694Y03399D03*
X03741Y03494D03*
Y03399D03*
G54D21*
X05505Y00896D03*
X0532D03*
G54D22*
X05694Y01311D03*
X05891D03*
G54D23*
X01606Y01931D03*
X01696D03*
X01771Y02181D03*
X0168D03*
G54D24*
X07784Y03691D03*
Y03652D03*
Y03612D03*
X07639Y03691D03*
Y03652D03*
Y03612D03*
X05245Y02317D03*
Y02278D03*
Y02238D03*
X05099Y02317D03*
Y02278D03*
Y02238D03*
X01284Y01191D03*
Y0123D03*
Y0127D03*
X0143Y01191D03*
Y0123D03*
Y0127D03*
X06525Y02317D03*
Y02278D03*
Y02238D03*
X06379Y02317D03*
Y02278D03*
Y02238D03*
X04462Y01191D03*
Y0123D03*
Y0127D03*
X04607Y01191D03*
Y0123D03*
Y0127D03*
X07784Y02317D03*
Y02278D03*
Y02238D03*
X07639Y02317D03*
Y02278D03*
Y02238D03*
Y01191D03*
Y0123D03*
Y0127D03*
X07784Y01191D03*
Y0123D03*
Y0127D03*
X01017Y02691D03*
Y0273D03*
Y0277D03*
X01162Y02691D03*
Y0273D03*
Y0277D03*
X01284Y03612D03*
Y03652D03*
Y03691D03*
X0143Y03612D03*
Y03652D03*
Y03691D03*
X02257D03*
Y03652D03*
Y03612D03*
X02111Y03691D03*
Y03652D03*
Y03612D03*
X06812D03*
Y03652D03*
Y03691D03*
X06958Y03612D03*
Y03652D03*
Y03691D03*
G54D25*
X07712Y03652D03*
X05172Y02278D03*
X01357Y0123D03*
X06452Y02278D03*
X04534Y0123D03*
X07712Y02278D03*
Y0123D03*
X0109Y0273D03*
X01357Y03652D03*
X02184D03*
X06885D03*
G54D26*
X00948Y0262D03*
X01231D03*
Y02502D03*
X00948D03*
X07853Y02049D03*
X0757D03*
Y02167D03*
X07853D03*
X06593Y02049D03*
X0631D03*
Y02167D03*
X06593D03*
X05334Y02049D03*
X0505D03*
Y02167D03*
X05334D03*
G54D27*
X05502Y01117D03*
X05322D03*
G54D28*
X01698Y02097D03*
X01773D03*
Y01995D03*
X01736D03*
X01698D03*
G54D29*
X03629Y03523D03*
Y03497D03*
Y03472D03*
Y03446D03*
Y03421D03*
Y03395D03*
Y0337D03*
X03853D03*
Y03395D03*
Y03421D03*
Y03446D03*
Y03472D03*
Y03497D03*
Y03523D03*
G54D30*
X03664Y03334D03*
X0369D03*
X03715D03*
X03741D03*
X03766D03*
X03792D03*
X03818D03*
Y03559D03*
X03792D03*
X03766D03*
X03741D03*
X03715D03*
X0369D03*
X03664D03*
G54D31*
X01965Y01666D03*
X02068Y01563D03*
X02129Y01625D03*
X02026Y01728D03*
G54D32*
X0234Y02435D03*
X02354Y02449D03*
X02368Y02463D03*
X02382Y02477D03*
X02396Y02491D03*
X0241Y02505D03*
X02424Y02519D03*
X02437Y02533D03*
X02451Y02547D03*
X02465Y02561D03*
X02479Y02575D03*
X02493Y02589D03*
X02507Y02602D03*
X02521Y02616D03*
X02535Y0263D03*
X02549Y02644D03*
X02563Y02658D03*
X02577Y02672D03*
X02591Y02686D03*
X02605Y027D03*
X02618Y02714D03*
X02632Y02728D03*
X02646Y02742D03*
X0266Y02756D03*
X02674Y02769D03*
X02688Y02783D03*
X02702Y02797D03*
X02716Y02811D03*
X0273Y02825D03*
X02744Y02839D03*
X02758Y02853D03*
X02772Y02867D03*
X02785Y02881D03*
X02799Y02895D03*
X02813Y02909D03*
X02827Y02923D03*
X03424Y02325D03*
X0341Y02312D03*
X03397Y02298D03*
X03383Y02284D03*
X03369Y0227D03*
X03355Y02256D03*
X03341Y02242D03*
X03327Y02228D03*
X03313Y02214D03*
X03299Y022D03*
X03285Y02186D03*
X03271Y02172D03*
X03257Y02158D03*
X03243Y02145D03*
X0323Y02131D03*
X03216Y02117D03*
X03202Y02103D03*
X03188Y02089D03*
X03174Y02075D03*
X0316Y02061D03*
X03146Y02047D03*
X03132Y02033D03*
X03118Y02019D03*
X03104Y02005D03*
X0309Y01991D03*
X03076Y01977D03*
X03062Y01964D03*
X03049Y0195D03*
X03035Y01936D03*
X03021Y01922D03*
X03007Y01908D03*
X02993Y01894D03*
X02979Y0188D03*
X02965Y01866D03*
X02951Y01852D03*
X02937Y01838D03*
G54D33*
X02937Y02923D03*
X02951Y02909D03*
X02965Y02895D03*
X02979Y02881D03*
X02993Y02867D03*
X03007Y02853D03*
X03021Y02839D03*
X03035Y02825D03*
X03049Y02811D03*
X03062Y02797D03*
X03076Y02783D03*
X0309Y02769D03*
X03104Y02756D03*
X03118Y02742D03*
X03132Y02728D03*
X03146Y02714D03*
X0316Y027D03*
X03174Y02686D03*
X03188Y02672D03*
X03202Y02658D03*
X03216Y02644D03*
X0323Y0263D03*
X03243Y02616D03*
X03257Y02602D03*
X03271Y02589D03*
X03285Y02575D03*
X03299Y02561D03*
X03313Y02547D03*
X03327Y02533D03*
X03341Y02519D03*
X03355Y02505D03*
X03369Y02491D03*
X03383Y02477D03*
X03397Y02463D03*
X0341Y02449D03*
X03424Y02435D03*
X02827Y01838D03*
X02813Y01852D03*
X02799Y01866D03*
X02785Y0188D03*
X02772Y01894D03*
X02758Y01908D03*
X02744Y01922D03*
X0273Y01936D03*
X02716Y0195D03*
X02702Y01964D03*
X02688Y01977D03*
X02674Y01991D03*
X0266Y02005D03*
X02646Y02019D03*
X02632Y02033D03*
X02618Y02047D03*
X02605Y02061D03*
X02591Y02075D03*
X02577Y02089D03*
X02563Y02103D03*
X02549Y02117D03*
X02535Y02131D03*
X02521Y02145D03*
X02507Y02158D03*
X02493Y02172D03*
X02479Y02186D03*
X02465Y022D03*
X02451Y02214D03*
X02437Y02228D03*
X02424Y02242D03*
X0241Y02256D03*
X02396Y0227D03*
X02382Y02284D03*
X02368Y02298D03*
X02354Y02312D03*
X0234Y02325D03*
G54D34*
X0334Y00981D03*
X0332D03*
X033D03*
X0328D03*
X03261D03*
X03241D03*
X03221D03*
X03202D03*
X03182D03*
X03162D03*
X03143D03*
X03123D03*
X03103D03*
X03084D03*
X03064D03*
X03044D03*
X03025D03*
X03005D03*
X02985D03*
X02965D03*
X02946D03*
X02926D03*
X02906D03*
X02887D03*
X02867D03*
X02847D03*
G54D35*
X02787Y00889D03*
X034D03*
G54D36*
X02414Y02943D03*
X0237Y02898D03*
X02459Y02898D03*
X02415Y02853D03*
X02259Y02718D03*
X02215Y02673D03*
X02574Y03013D03*
X0253Y02968D03*
G54D37*
X03969Y009D03*
X03714D03*
G54D38*
X03881Y01151D03*
X03802D03*
G54D39*
X01505Y02705D03*
X0158Y02743D03*
Y02668D03*
X01578Y02454D03*
Y02529D03*
X01503Y02491D03*
X01508Y02921D03*
X01583Y02959D03*
Y02884D03*
G54D40*
X07011Y02363D03*
Y02296D03*
X02487Y00964D03*
Y00897D03*
X08151Y00898D03*
Y00965D03*
X06902Y00925D03*
Y00858D03*
X06372Y00804D03*
Y00871D03*
X06472Y00804D03*
Y00871D03*
X06572Y00804D03*
Y00871D03*
X07861Y03394D03*
Y03327D03*
X07556Y03394D03*
Y03327D03*
X06606Y03394D03*
Y03327D03*
X06301Y03394D03*
Y03327D03*
X05344Y03394D03*
Y03327D03*
X05039Y03394D03*
Y03327D03*
X08217Y02554D03*
Y0262D03*
X07011Y02454D03*
Y02521D03*
X05751Y02363D03*
Y02296D03*
Y02454D03*
Y02521D03*
X04481Y02324D03*
Y02391D03*
Y02201D03*
Y02134D03*
Y01959D03*
Y02026D03*
G54D41*
X03624Y01985D03*
X03561D03*
X02856Y013D03*
X02919D03*
X03099D03*
X03036D03*
X03737Y03666D03*
X03674D03*
X05929Y01496D03*
X05992D03*
X01687Y01801D03*
X01624D03*
X03561Y0211D03*
X03624D03*
X03212Y01715D03*
X03275D03*
X03561Y02045D03*
X03624D03*
X07802Y0333D03*
X07739D03*
X07614D03*
X07677D03*
X06547D03*
X06484D03*
X06359D03*
X06422D03*
X05285D03*
X05222D03*
X05097D03*
X0516D03*
G54D42*
X02315Y01873D03*
X02359Y01828D03*
X01952Y01556D03*
X01907Y016D03*
X02187Y0169D03*
X02232Y01646D03*
X03564Y02658D03*
X0352Y02703D03*
X02435Y01873D03*
X02479Y01828D03*
X03239Y02998D03*
X03195Y03043D03*
X02315Y01998D03*
X02359Y01953D03*
G54D43*
X03157Y01363D03*
Y013D03*
X02797Y01362D03*
Y01299D03*
X02737Y01362D03*
Y01299D03*
X02677Y01362D03*
Y01299D03*
X02617Y01362D03*
Y01299D03*
X02557Y01362D03*
Y01299D03*
X02977Y01237D03*
Y013D03*
X05207Y00968D03*
Y00905D03*
X01616Y02081D03*
Y02018D03*
X01851Y02096D03*
Y02033D03*
X03292Y01363D03*
Y013D03*
X03232Y01363D03*
Y013D03*
G54D44*
X04249Y01035D03*
X04316D03*
X07026Y01895D03*
X06959D03*
X07267Y00906D03*
X07334D03*
X07402D03*
X07469D03*
X07926Y01231D03*
X07993D03*
X07926Y01171D03*
X07993D03*
X07926Y01291D03*
X07993D03*
X07542Y00906D03*
X07609D03*
X02476Y03685D03*
X0241D03*
X02476Y03565D03*
X0241D03*
X02476Y03625D03*
X0241D03*
X01646Y03685D03*
X0158D03*
X01646Y03565D03*
X0158D03*
X01646Y03625D03*
X0158D03*
X07984Y0363D03*
X07917D03*
X01621Y01866D03*
X01688D03*
X01839Y01801D03*
X01772D03*
X01839Y01866D03*
X01772D03*
X01759Y02251D03*
X01692D03*
X07917Y0369D03*
X07984D03*
X07917Y0357D03*
X07984D03*
X07127Y03685D03*
X07194D03*
X07127Y03565D03*
X07194D03*
X07127Y03625D03*
X07194D03*
X01522Y02386D03*
X01589D03*
X01522Y02591D03*
X01589D03*
X01529Y02815D03*
X01596D03*
X00767Y02078D03*
X00834D03*
X00767Y02138D03*
X00834D03*
X00767Y02018D03*
X00834D03*
X01381Y0214D03*
X01314D03*
X07804Y0339D03*
X07737D03*
X07612D03*
X07679D03*
X07464Y0254D03*
X07531D03*
X06204D03*
X06271D03*
X06549Y0339D03*
X06482D03*
X06357D03*
X06424D03*
X05287D03*
X0522D03*
X05095D03*
X05162D03*
X04944Y0254D03*
X05011D03*
X08281Y02801D03*
X08214D03*
X08281Y02681D03*
X08214D03*
X08281Y02741D03*
X08214D03*
X07021Y02801D03*
X06954D03*
X07021Y02681D03*
X06954D03*
X07021Y02741D03*
X06954D03*
X07019Y0262D03*
X06952D03*
X057Y01895D03*
X05767D03*
X05761Y02801D03*
X05694D03*
X05761Y02681D03*
X05694D03*
X05761Y02741D03*
X05694D03*
X05761Y0262D03*
X05694D03*
X01623Y01291D03*
X01556D03*
X01623Y01171D03*
X01556D03*
X01623Y01231D03*
X01556D03*
X01549Y00906D03*
X01482D03*
X01409D03*
X01342D03*
X01269D03*
X01202D03*
X04818Y0129D03*
X04751D03*
X04818Y0117D03*
X04751D03*
X04818Y0123D03*
X04751D03*
X04822Y00906D03*
X04756D03*
X04682D03*
X04616D03*
X04542D03*
X04476D03*
G54D45*
X07263Y00974D03*
X07338D03*
X07301Y01049D03*
X07401Y00974D03*
X07476D03*
X07438Y01049D03*
X07538Y00974D03*
X07613D03*
X07576Y01049D03*
X06787Y00934D03*
X06825Y00859D03*
X0675D03*
X07131Y01904D03*
X07168Y01829D03*
X07093D03*
X07131Y0244D03*
X07168Y02366D03*
X07093D03*
X07131Y02594D03*
X07168Y02519D03*
X07093D03*
X05871Y01904D03*
X05908Y01829D03*
X05834D03*
X05871Y0244D03*
X05908Y02366D03*
X05834D03*
X05871Y02594D03*
X05908Y02519D03*
X05834D03*
X04601Y02099D03*
X04638Y02024D03*
X04563D03*
X04601Y02279D03*
X04638Y02204D03*
X04563D03*
X04601Y02464D03*
X04638Y02389D03*
X04563D03*
X03625Y01237D03*
X03587Y01312D03*
X03662D03*
X01516Y01049D03*
X01553Y00974D03*
X01478D03*
X01376Y01049D03*
X01413Y00974D03*
X01338D03*
X01236Y01049D03*
X01273Y00974D03*
X01198D03*
X04786Y01049D03*
X04824Y00974D03*
X04749D03*
X04646Y01049D03*
X04684Y00974D03*
X04609D03*
X04509Y01049D03*
X04546Y00974D03*
X04472D03*
M02*