G04*
G04 #@! TF.GenerationSoftware,Altium Limited,Altium Designer,20.0.13 (296)*
G04*
G04 Layer_Color=32896*
%FSLAX44Y44*%
%MOMM*%
G71*
G01*
G75*
%ADD13C,0.1000*%
%ADD16C,0.1500*%
%ADD91C,0.0254*%
D13*
X1072400Y-100392D02*
G03*
X1073400Y-99392I0J1000D01*
G01*
X1066400D02*
G03*
X1067400Y-100392I1000J0D01*
G01*
X1213000D02*
G03*
X1214000Y-99392I0J1000D01*
G01*
X1207000D02*
G03*
X1208000Y-100392I1000J0D01*
G01*
X1353600D02*
G03*
X1354600Y-99392I0J1000D01*
G01*
X1347600D02*
G03*
X1348600Y-100392I1000J0D01*
G01*
X1056900Y-37892D02*
X1058400D01*
X1056900Y-70892D02*
X1058400D01*
X1066400Y-99392D02*
Y-98392D01*
X1073400Y-99392D02*
X1073400Y-98392D01*
X1067400Y-100392D02*
X1072400Y-100392D01*
X1088400Y-10392D02*
Y-9392D01*
X1106400Y-10392D02*
Y-9392D01*
X1101400Y-98392D02*
X1101400Y-98892D01*
X1116400D02*
Y-98392D01*
X1101400Y-98892D02*
X1116400D01*
X1134317D02*
X1134733D01*
Y-98392D01*
X1119733Y-98892D02*
X1120150D01*
X1119733D02*
Y-98392D01*
X1120150Y-98892D02*
X1120567D01*
X1120150Y-98392D02*
X1120150Y-98892D01*
X1133900D02*
X1134317D01*
Y-98392D01*
X1133067Y-98892D02*
X1133900D01*
Y-98392D01*
X1120567Y-98892D02*
X1121400D01*
X1120567D02*
Y-98392D01*
X1131817Y-98892D02*
X1133067D01*
Y-98392D01*
X1121400Y-98892D02*
X1122650D01*
X1121400Y-98392D02*
X1121400Y-98892D01*
X1122650D02*
X1124733D01*
X1122650D02*
Y-98392D01*
X1129733Y-98892D02*
X1131817D01*
X1131817Y-98392D02*
X1131817Y-98892D01*
X1129733D02*
Y-98392D01*
X1127233Y-98892D02*
X1129733D01*
X1127233D02*
Y-98392D01*
X1124733Y-98892D02*
X1127233D01*
X1124733D02*
Y-98392D01*
X1153067Y-98892D02*
X1153483D01*
X1153483Y-98392D02*
X1153483Y-98892D01*
X1151817D02*
X1153067D01*
Y-98392D01*
X1150150Y-98892D02*
X1151817D01*
X1151817Y-98392D02*
X1151817Y-98892D01*
X1148067D02*
X1150150D01*
Y-98392D01*
X1140566Y-98892D02*
X1148067D01*
Y-98392D01*
X1140566Y-98892D02*
Y-98392D01*
X1138067Y-98892D02*
X1140566D01*
X1138067D02*
Y-98392D01*
X1188000Y-10392D02*
X1188000Y-15992D01*
X1188000Y-31392D02*
X1188000Y-21892D01*
X1214000Y-99392D02*
Y-98392D01*
X1207000Y-99392D02*
Y-98392D01*
X1208000Y-100392D02*
X1213000D01*
X1233000Y-15992D02*
Y-10392D01*
Y-31392D02*
Y-21892D01*
X1348600Y-100392D02*
X1353600D01*
X1347600Y-99392D02*
Y-98392D01*
X1354600Y-99392D02*
Y-98392D01*
X1362600Y-37892D02*
X1364100Y-37892D01*
X1362600Y-70892D02*
X1364100D01*
Y-86892D02*
X1370000Y-92792D01*
X1058400Y-70892D02*
Y-37892D01*
X1188000Y-21892D02*
Y-15992D01*
X1233000Y-21892D02*
Y-15992D01*
X1364100Y-21892D02*
X1370000Y-15992D01*
X1362600Y-70892D02*
Y-37892D01*
X1045400Y-98392D02*
Y-10392D01*
X1051000Y-92792D02*
Y-15992D01*
X1056900Y-21892D02*
X1056900Y-86892D01*
X1375600Y-98392D02*
Y-10392D01*
X1364100Y-86892D02*
X1364100Y-21892D01*
X1370000Y-92792D02*
Y-15992D01*
X1045400Y-98392D02*
X1066400Y-98392D01*
X1051000Y-92792D02*
X1056900Y-86892D01*
X1088400Y-9392D02*
X1106400D01*
X1188000Y-10392D02*
X1233000Y-10392D01*
X1188000Y-31392D02*
X1233000D01*
X1354600Y-98392D02*
X1375600D01*
X1051000Y-15992D02*
X1056900Y-21892D01*
X1233000Y-15992D02*
X1370000D01*
X1233000Y-10392D02*
X1375600D01*
X1233000Y-21892D02*
X1364100D01*
X1214000Y-98392D02*
X1347600D01*
X1045400Y-10392D02*
X1188000Y-10392D01*
X1051000Y-15992D02*
X1188000D01*
X1056900Y-21892D02*
X1188000D01*
X1056900Y-86892D02*
X1364100D01*
X1073400Y-98392D02*
X1207000D01*
X1051000Y-92792D02*
X1370000D01*
D16*
X1375410Y-6350D02*
Y1148D01*
X1371661D01*
X1370412Y-102D01*
Y-2601D01*
X1371661Y-3851D01*
X1375410D01*
X1367912Y-6350D02*
X1365413D01*
X1366663D01*
Y1148D01*
X1367912Y-102D01*
D91*
X374396Y475488D02*
X392430D01*
X370586Y475234D02*
X396240D01*
X367792Y474980D02*
X399034D01*
X365506Y474726D02*
X401574D01*
X363220Y474472D02*
X403860D01*
X361442Y474218D02*
X405638D01*
X359410Y473964D02*
X407416D01*
X357886Y473710D02*
X409194D01*
X356362Y473456D02*
X410718D01*
X354838Y473202D02*
X412242D01*
X353568Y472948D02*
X413512D01*
X352044Y472694D02*
X414782D01*
X351028Y472440D02*
X416052D01*
X349758Y472186D02*
X417322D01*
X348488Y471932D02*
X418338D01*
X347472Y471678D02*
X419608D01*
X346456Y471424D02*
X420624D01*
X345186Y471170D02*
X421640D01*
X344170Y470916D02*
X422656D01*
X343154Y470662D02*
X423672D01*
X342138Y470408D02*
X424688D01*
X341376Y470154D02*
X425704D01*
X340360Y469900D02*
X426466D01*
X339598Y469646D02*
X427482D01*
X338582Y469392D02*
X428244D01*
X337820Y469138D02*
X429260D01*
X336804Y468884D02*
X430022D01*
X336042Y468630D02*
X431038D01*
X335280Y468376D02*
X431800D01*
X334518Y468122D02*
X432562D01*
X333756Y467868D02*
X433324D01*
X332994Y467614D02*
X434086D01*
X331978Y467360D02*
X434848D01*
X331470Y467106D02*
X435610D01*
X330708Y466852D02*
X436372D01*
X329946Y466598D02*
X437134D01*
X329184Y466344D02*
X437642D01*
X328422Y466090D02*
X438404D01*
X327914Y465836D02*
X439166D01*
X327152Y465582D02*
X439928D01*
X326390Y465328D02*
X440436D01*
X325882Y465074D02*
X441198D01*
X325120Y464820D02*
X441960D01*
X324612Y464566D02*
X442468D01*
X323850Y464312D02*
X443230D01*
X323342Y464058D02*
X443738D01*
X322580Y463804D02*
X444246D01*
X322072Y463550D02*
X445008D01*
X321310Y463296D02*
X445516D01*
X320802Y463042D02*
X446278D01*
X320294Y462788D02*
X446786D01*
X319532Y462534D02*
X447294D01*
X319024Y462280D02*
X448056D01*
X318516Y462026D02*
X448564D01*
X317754Y461772D02*
X449072D01*
X317246Y461518D02*
X449834D01*
X316738Y461264D02*
X450342D01*
X316230Y461010D02*
X450850D01*
X315722Y460756D02*
X451358D01*
X315214Y460502D02*
X451866D01*
X314452Y460248D02*
X452374D01*
X313944Y459994D02*
X452882D01*
X313436Y459740D02*
X453390D01*
X312928Y459486D02*
X453898D01*
X312420Y459232D02*
X454406D01*
X311912Y458978D02*
X454914D01*
X311404Y458724D02*
X455422D01*
X310896Y458470D02*
X455930D01*
X310388Y458216D02*
X456438D01*
X309880Y457962D02*
X456946D01*
X309372Y457708D02*
X457454D01*
X309118Y457454D02*
X457962D01*
X308610Y457200D02*
X458470D01*
X308102Y456946D02*
X458978D01*
X307594Y456692D02*
X459486D01*
X307086Y456438D02*
X459994D01*
X306578Y456184D02*
X460502D01*
X306070Y455930D02*
X460756D01*
X305816Y455676D02*
X461264D01*
X305308Y455422D02*
X461772D01*
X304800Y455168D02*
X462280D01*
X304292Y454914D02*
X462534D01*
X303784Y454660D02*
X463042D01*
X303530Y454406D02*
X463550D01*
X303022Y454152D02*
X464058D01*
X302514Y453898D02*
X464312D01*
X302260Y453644D02*
X464820D01*
X301752Y453390D02*
X465328D01*
X301244Y453136D02*
X465582D01*
X300736Y452882D02*
X466090D01*
X300482Y452628D02*
X466598D01*
X299974Y452374D02*
X467106D01*
X299720Y452120D02*
X467360D01*
X299212Y451866D02*
X467868D01*
X298704Y451612D02*
X468122D01*
X391414Y451358D02*
X468630D01*
X298450D02*
X375666D01*
X394970Y451104D02*
X469138D01*
X297942D02*
X372110D01*
X397510Y450850D02*
X469392D01*
X297688D02*
X369316D01*
X399796Y450596D02*
X469900D01*
X297180D02*
X367030D01*
X401828Y450342D02*
X470154D01*
X296672D02*
X365252D01*
X403606Y450088D02*
X470662D01*
X296418D02*
X363220D01*
X405130Y449834D02*
X470916D01*
X295910D02*
X361696D01*
X406908Y449580D02*
X471424D01*
X295656D02*
X360172D01*
X408178Y449326D02*
X471678D01*
X295148D02*
X358648D01*
X409448Y449072D02*
X472186D01*
X294894D02*
X357378D01*
X410972Y448818D02*
X472440D01*
X294386D02*
X356108D01*
X411988Y448564D02*
X472948D01*
X294132D02*
X354838D01*
X413258Y448310D02*
X473202D01*
X293624D02*
X353822D01*
X414274Y448056D02*
X473710D01*
X293370D02*
X352552D01*
X415290Y447802D02*
X473964D01*
X292862D02*
X351536D01*
X416306Y447548D02*
X474472D01*
X292608D02*
X350520D01*
X417576Y447294D02*
X474726D01*
X292100D02*
X349504D01*
X418338Y447040D02*
X475234D01*
X291846D02*
X348488D01*
X419354Y446786D02*
X475488D01*
X291592D02*
X347726D01*
X420370Y446532D02*
X475996D01*
X291084D02*
X346710D01*
X421132Y446278D02*
X476250D01*
X290830D02*
X345694D01*
X422148Y446024D02*
X476504D01*
X290322D02*
X344932D01*
X422910Y445770D02*
X477012D01*
X290068D02*
X344170D01*
X423672Y445516D02*
X477266D01*
X289814D02*
X343154D01*
X424434Y445262D02*
X477520D01*
X289306D02*
X342392D01*
X425196Y445008D02*
X478028D01*
X289052D02*
X341630D01*
X426212Y444754D02*
X478282D01*
X288544D02*
X340868D01*
X426974Y444500D02*
X478790D01*
X288290D02*
X340106D01*
X427736Y444246D02*
X479044D01*
X288036D02*
X339344D01*
X428244Y443992D02*
X479298D01*
X287528D02*
X338582D01*
X429006Y443738D02*
X479806D01*
X287274D02*
X337820D01*
X429768Y443484D02*
X480060D01*
X287020D02*
X337312D01*
X430530Y443230D02*
X480314D01*
X286512D02*
X336550D01*
X431038Y442976D02*
X480822D01*
X286258D02*
X335788D01*
X431800Y442722D02*
X481076D01*
X286004D02*
X335280D01*
X432562Y442468D02*
X481330D01*
X285750D02*
X334518D01*
X433070Y442214D02*
X481838D01*
X285242D02*
X333756D01*
X433832Y441960D02*
X482092D01*
X284988D02*
X333248D01*
X434340Y441706D02*
X482346D01*
X284734D02*
X332486D01*
X435102Y441452D02*
X482600D01*
X284226D02*
X331978D01*
X435610Y441198D02*
X483108D01*
X283972D02*
X331216D01*
X436372Y440944D02*
X483362D01*
X283718D02*
X330708D01*
X436880Y440690D02*
X483616D01*
X283464D02*
X330200D01*
X437388Y440436D02*
X483870D01*
X282956D02*
X329438D01*
X438150Y440182D02*
X484378D01*
X282702D02*
X328930D01*
X438658Y439928D02*
X484632D01*
X282448D02*
X328422D01*
X439166Y439674D02*
X484886D01*
X282194D02*
X327914D01*
X439674Y439420D02*
X485140D01*
X281686D02*
X327152D01*
X440436Y439166D02*
X485648D01*
X281432D02*
X326644D01*
X440944Y438912D02*
X485902D01*
X281178D02*
X326136D01*
X441452Y438658D02*
X486156D01*
X280924D02*
X325628D01*
X441960Y438404D02*
X486410D01*
X280670D02*
X325120D01*
X442468Y438150D02*
X486664D01*
X280162D02*
X324612D01*
X442976Y437896D02*
X486918D01*
X279908D02*
X324104D01*
X443484Y437642D02*
X487426D01*
X279654D02*
X323596D01*
X443992Y437388D02*
X487680D01*
X279400D02*
X323088D01*
X444500Y437134D02*
X487934D01*
X279146D02*
X322580D01*
X445008Y436880D02*
X488188D01*
X278638D02*
X322072D01*
X445516Y436626D02*
X488442D01*
X278384D02*
X321564D01*
X446024Y436372D02*
X488950D01*
X278130D02*
X321056D01*
X446532Y436118D02*
X489204D01*
X277876D02*
X320548D01*
X447040Y435864D02*
X489458D01*
X277622D02*
X320040D01*
X447548Y435610D02*
X489712D01*
X277368D02*
X319532D01*
X448056Y435356D02*
X489966D01*
X277114D02*
X319024D01*
X448310Y435102D02*
X490220D01*
X276860D02*
X318516D01*
X448818Y434848D02*
X490474D01*
X276352D02*
X318008D01*
X449326Y434594D02*
X490728D01*
X276098D02*
X317754D01*
X449834Y434340D02*
X491236D01*
X275844D02*
X317246D01*
X450342Y434086D02*
X491490D01*
X275590D02*
X316738D01*
X450596Y433832D02*
X491744D01*
X275336D02*
X316230D01*
X451104Y433578D02*
X491998D01*
X275082D02*
X315722D01*
X451612Y433324D02*
X492252D01*
X274828D02*
X315468D01*
X452120Y433070D02*
X492506D01*
X274574D02*
X314960D01*
X452374Y432816D02*
X492760D01*
X274320D02*
X314452D01*
X452882Y432562D02*
X493014D01*
X274066D02*
X314198D01*
X453390Y432308D02*
X493268D01*
X273812D02*
X313690D01*
X453644Y432054D02*
X493522D01*
X273304D02*
X313182D01*
X454152Y431800D02*
X493776D01*
X273050D02*
X312928D01*
X454660Y431546D02*
X494030D01*
X272796D02*
X312420D01*
X454914Y431292D02*
X494284D01*
X272542D02*
X311912D01*
X455422Y431038D02*
X494538D01*
X272288D02*
X311658D01*
X455930Y430784D02*
X495046D01*
X272034D02*
X311150D01*
X456184Y430530D02*
X495300D01*
X271780D02*
X310896D01*
X456692Y430276D02*
X495554D01*
X271526D02*
X310388D01*
X456946Y430022D02*
X495808D01*
X271272D02*
X309880D01*
X457454Y429768D02*
X496062D01*
X271018D02*
X309626D01*
X457708Y429514D02*
X496316D01*
X270764D02*
X309118D01*
X458216Y429260D02*
X496570D01*
X270510D02*
X308864D01*
X458470Y429006D02*
X496824D01*
X270256D02*
X308356D01*
X458978Y428752D02*
X497078D01*
X270002D02*
X308102D01*
X459232Y428498D02*
X497332D01*
X269748D02*
X307594D01*
X459740Y428244D02*
X497586D01*
X269494D02*
X307340D01*
X459994Y427990D02*
X497840D01*
X269240D02*
X306832D01*
X460502Y427736D02*
X498094D01*
X268986D02*
X306578D01*
X460756Y427482D02*
X498348D01*
X268732D02*
X306070D01*
X461264Y427228D02*
X498602D01*
X268478D02*
X305816D01*
X461518Y426974D02*
X498856D01*
X268224D02*
X305562D01*
X462026Y426720D02*
X499110D01*
X267970D02*
X305054D01*
X462280Y426466D02*
X499110D01*
X267716D02*
X304800D01*
X462534Y426212D02*
X499364D01*
X267462D02*
X304292D01*
X463042Y425958D02*
X499618D01*
X267208D02*
X304038D01*
X463296Y425704D02*
X499872D01*
X266954D02*
X303784D01*
X463804Y425450D02*
X500126D01*
X266700D02*
X303276D01*
X464058Y425196D02*
X500380D01*
X266446D02*
X303022D01*
X464312Y424942D02*
X500634D01*
X266446D02*
X302514D01*
X464820Y424688D02*
X500888D01*
X266192D02*
X302260D01*
X465074Y424434D02*
X501142D01*
X265938D02*
X302006D01*
X465328Y424180D02*
X501396D01*
X265684D02*
X301498D01*
X465836Y423926D02*
X501650D01*
X265430D02*
X301244D01*
X466090Y423672D02*
X501904D01*
X265176D02*
X300990D01*
X466344Y423418D02*
X502158D01*
X264922D02*
X300736D01*
X466852Y423164D02*
X502412D01*
X264668D02*
X300228D01*
X467106Y422910D02*
X502666D01*
X264414D02*
X299974D01*
X467360Y422656D02*
X502666D01*
X264160D02*
X299720D01*
X467614Y422402D02*
X502920D01*
X263906D02*
X299212D01*
X468122Y422148D02*
X503174D01*
X263906D02*
X298958D01*
X468376Y421894D02*
X503428D01*
X263652D02*
X298704D01*
X468630Y421640D02*
X503682D01*
X263398D02*
X298450D01*
X468884Y421386D02*
X503936D01*
X263144D02*
X297942D01*
X469392Y421132D02*
X504190D01*
X262890D02*
X297688D01*
X469646Y420878D02*
X504444D01*
X262636D02*
X297434D01*
X469900Y420624D02*
X504698D01*
X262382D02*
X297180D01*
X470154Y420370D02*
X504698D01*
X262128D02*
X296672D01*
X470408Y420116D02*
X504952D01*
X403606D02*
X415036D01*
X352044D02*
X390398D01*
X261874D02*
X296418D01*
X470916Y419862D02*
X505206D01*
X403606D02*
X418338D01*
X348742D02*
X390398D01*
X261874D02*
X296164D01*
X471170Y419608D02*
X505460D01*
X403606D02*
X420116D01*
X346964D02*
X390398D01*
X261620D02*
X295910D01*
X471424Y419354D02*
X505714D01*
X403606D02*
X421640D01*
X345440D02*
X390398D01*
X261366D02*
X295656D01*
X471678Y419100D02*
X505968D01*
X403606D02*
X422910D01*
X344424D02*
X390398D01*
X261112D02*
X295402D01*
X471932Y418846D02*
X506222D01*
X403606D02*
X423672D01*
X343408D02*
X390398D01*
X260858D02*
X294894D01*
X472440Y418592D02*
X506222D01*
X403606D02*
X424688D01*
X342392D02*
X390398D01*
X260604D02*
X294640D01*
X472694Y418338D02*
X506476D01*
X403606D02*
X425450D01*
X341630D02*
X390398D01*
X260604D02*
X294386D01*
X472948Y418084D02*
X506730D01*
X403606D02*
X426212D01*
X340868D02*
X390398D01*
X260350D02*
X294132D01*
X473202Y417830D02*
X506984D01*
X403606D02*
X426974D01*
X340360D02*
X390398D01*
X260096D02*
X293878D01*
X473456Y417576D02*
X507238D01*
X403606D02*
X427482D01*
X339598D02*
X390398D01*
X259842D02*
X293624D01*
X473710Y417322D02*
X507492D01*
X403606D02*
X427990D01*
X339090D02*
X390398D01*
X259588D02*
X293116D01*
X473964Y417068D02*
X507492D01*
X403606D02*
X428498D01*
X338582D02*
X390398D01*
X259334D02*
X292862D01*
X474472Y416814D02*
X507746D01*
X403606D02*
X429260D01*
X338074D02*
X390398D01*
X259334D02*
X292608D01*
X474726Y416560D02*
X508000D01*
X403606D02*
X429514D01*
X337566D02*
X390398D01*
X259080D02*
X292354D01*
X474980Y416306D02*
X508254D01*
X403606D02*
X430022D01*
X337058D02*
X390398D01*
X258826D02*
X292100D01*
X475234Y416052D02*
X508508D01*
X403606D02*
X430530D01*
X336550D02*
X390398D01*
X258572D02*
X291846D01*
X475488Y415798D02*
X508508D01*
X403606D02*
X430784D01*
X336296D02*
X390398D01*
X258318D02*
X291592D01*
X475742Y415544D02*
X508762D01*
X403606D02*
X431292D01*
X335788D02*
X390398D01*
X258318D02*
X291338D01*
X475996Y415290D02*
X509016D01*
X403606D02*
X431546D01*
X335534D02*
X390398D01*
X258064D02*
X291084D01*
X476250Y415036D02*
X509270D01*
X403606D02*
X432054D01*
X335280D02*
X390398D01*
X257810D02*
X290830D01*
X476504Y414782D02*
X509524D01*
X403606D02*
X432308D01*
X334772D02*
X390398D01*
X257556D02*
X290322D01*
X476758Y414528D02*
X509524D01*
X403606D02*
X432562D01*
X334518D02*
X390398D01*
X257302D02*
X290068D01*
X477012Y414274D02*
X509778D01*
X403606D02*
X432816D01*
X334264D02*
X390398D01*
X257302D02*
X289814D01*
X477266Y414020D02*
X510032D01*
X403606D02*
X433324D01*
X334010D02*
X390398D01*
X257048D02*
X289560D01*
X477774Y413766D02*
X510286D01*
X403606D02*
X433578D01*
X333756D02*
X390398D01*
X256794D02*
X289306D01*
X478028Y413512D02*
X510540D01*
X403606D02*
X433832D01*
X333502D02*
X390398D01*
X256540D02*
X289052D01*
X478282Y413258D02*
X510540D01*
X403606D02*
X434086D01*
X333248D02*
X390398D01*
X256286D02*
X288798D01*
X478536Y413004D02*
X510794D01*
X403606D02*
X434340D01*
X332994D02*
X390398D01*
X256286D02*
X288544D01*
X478790Y412750D02*
X511048D01*
X403606D02*
X434594D01*
X332740D02*
X390398D01*
X256032D02*
X288290D01*
X479044Y412496D02*
X511302D01*
X403606D02*
X434594D01*
X332486D02*
X390398D01*
X255778D02*
X288036D01*
X479298Y412242D02*
X511302D01*
X403606D02*
X434848D01*
X332232D02*
X390398D01*
X255524D02*
X287782D01*
X479552Y411988D02*
X511556D01*
X403606D02*
X435102D01*
X331978D02*
X390398D01*
X255524D02*
X287528D01*
X479806Y411734D02*
X511810D01*
X403606D02*
X435356D01*
X331724D02*
X390398D01*
X255270D02*
X287274D01*
X480060Y411480D02*
X512064D01*
X403606D02*
X435610D01*
X331724D02*
X390398D01*
X255016D02*
X287020D01*
X480314Y411226D02*
X512064D01*
X403606D02*
X435610D01*
X331470D02*
X390398D01*
X254762D02*
X286766D01*
X480568Y410972D02*
X512318D01*
X403606D02*
X435864D01*
X331216D02*
X390398D01*
X254762D02*
X286512D01*
X480822Y410718D02*
X512572D01*
X403606D02*
X436118D01*
X331216D02*
X390398D01*
X254508D02*
X286258D01*
X481076Y410464D02*
X512826D01*
X403606D02*
X436118D01*
X330962D02*
X390398D01*
X254254D02*
X286004D01*
X481330Y410210D02*
X512826D01*
X403606D02*
X436372D01*
X330708D02*
X390398D01*
X254000D02*
X285750D01*
X481584Y409956D02*
X513080D01*
X403606D02*
X436372D01*
X330708D02*
X390398D01*
X254000D02*
X285496D01*
X481838Y409702D02*
X513334D01*
X403606D02*
X436626D01*
X330454D02*
X390398D01*
X253746D02*
X285242D01*
X482092Y409448D02*
X513588D01*
X403606D02*
X436626D01*
X330454D02*
X390398D01*
X253492D02*
X284988D01*
X482092Y409194D02*
X513588D01*
X403606D02*
X436880D01*
X330200D02*
X390398D01*
X253238D02*
X284734D01*
X482346Y408940D02*
X513842D01*
X403606D02*
X436880D01*
X330200D02*
X390398D01*
X253238D02*
X284480D01*
X482600Y408686D02*
X514096D01*
X403606D02*
X437134D01*
X329946D02*
X390398D01*
X252984D02*
X284226D01*
X482854Y408432D02*
X514096D01*
X403606D02*
X437134D01*
X329946D02*
X390398D01*
X252730D02*
X283972D01*
X483108Y408178D02*
X514350D01*
X403606D02*
X437388D01*
X329946D02*
X390398D01*
X252730D02*
X283972D01*
X483362Y407924D02*
X514604D01*
X403606D02*
X437388D01*
X329692D02*
X390398D01*
X252476D02*
X283718D01*
X483616Y407670D02*
X514858D01*
X403606D02*
X437642D01*
X329692D02*
X390398D01*
X252222D02*
X283464D01*
X483870Y407416D02*
X514858D01*
X403606D02*
X437642D01*
X329438D02*
X390398D01*
X251968D02*
X283210D01*
X484124Y407162D02*
X515112D01*
X403606D02*
X437642D01*
X329438D02*
X390398D01*
X251968D02*
X282956D01*
X484378Y406908D02*
X515366D01*
X403606D02*
X437896D01*
X329438D02*
X390398D01*
X251714D02*
X282702D01*
X484632Y406654D02*
X515366D01*
X403606D02*
X437896D01*
X329184D02*
X390398D01*
X251460D02*
X282448D01*
X484886Y406400D02*
X515620D01*
X403606D02*
X437896D01*
X329184D02*
X390398D01*
X251460D02*
X282194D01*
X485140Y406146D02*
X515874D01*
X403606D02*
X438150D01*
X329184D02*
X390398D01*
X251206D02*
X281940D01*
X485140Y405892D02*
X515874D01*
X403606D02*
X438150D01*
X328930D02*
X390398D01*
X250952D02*
X281686D01*
X485394Y405638D02*
X516128D01*
X403606D02*
X438150D01*
X328930D02*
X390398D01*
X250952D02*
X281432D01*
X485648Y405384D02*
X516382D01*
X403606D02*
X438150D01*
X328930D02*
X390398D01*
X250698D02*
X281432D01*
X485902Y405130D02*
X516382D01*
X403606D02*
X438404D01*
X328930D02*
X390398D01*
X250444D02*
X281178D01*
X486156Y404876D02*
X516636D01*
X403606D02*
X438404D01*
X328676D02*
X390398D01*
X250444D02*
X280924D01*
X486410Y404622D02*
X516890D01*
X403606D02*
X438404D01*
X328676D02*
X390398D01*
X250190D02*
X280670D01*
X486664Y404368D02*
X516890D01*
X403606D02*
X438404D01*
X328676D02*
X390398D01*
X249936D02*
X280416D01*
X486918Y404114D02*
X517144D01*
X403606D02*
X438404D01*
X328676D02*
X390398D01*
X249936D02*
X280162D01*
X486918Y403860D02*
X517398D01*
X403606D02*
X438658D01*
X328676D02*
X390398D01*
X249682D02*
X279908D01*
X487172Y403606D02*
X517398D01*
X403606D02*
X438658D01*
X328676D02*
X390398D01*
X249428D02*
X279654D01*
X487426Y403352D02*
X517652D01*
X403606D02*
X438658D01*
X328422D02*
X390398D01*
X249428D02*
X279654D01*
X487680Y403098D02*
X517906D01*
X403606D02*
X438658D01*
X328422D02*
X390398D01*
X249174D02*
X279400D01*
X487934Y402844D02*
X517906D01*
X403606D02*
X438658D01*
X328422D02*
X390398D01*
X248920D02*
X279146D01*
X488188Y402590D02*
X518160D01*
X403606D02*
X438658D01*
X328422D02*
X390398D01*
X248920D02*
X278892D01*
X488188Y402336D02*
X518414D01*
X403606D02*
X438658D01*
X328422D02*
X390398D01*
X248666D02*
X278638D01*
X488442Y402082D02*
X518414D01*
X403606D02*
X438912D01*
X328422D02*
X390398D01*
X248412D02*
X278384D01*
X488696Y401828D02*
X518668D01*
X403606D02*
X438912D01*
X328422D02*
X390398D01*
X248412D02*
X278384D01*
X488950Y401574D02*
X518922D01*
X403606D02*
X438912D01*
X328422D02*
X390398D01*
X248158D02*
X278130D01*
X489204Y401320D02*
X518922D01*
X403606D02*
X438912D01*
X328168D02*
X390398D01*
X247904D02*
X277876D01*
X489458Y401066D02*
X519176D01*
X403606D02*
X438912D01*
X328168D02*
X390398D01*
X247904D02*
X277622D01*
X489458Y400812D02*
X519430D01*
X403606D02*
X438912D01*
X328168D02*
X390398D01*
X247650D02*
X277368D01*
X489712Y400558D02*
X519430D01*
X403606D02*
X438912D01*
X328168D02*
X390398D01*
X247650D02*
X277368D01*
X489966Y400304D02*
X519684D01*
X403606D02*
X438912D01*
X328168D02*
X390398D01*
X247396D02*
X277114D01*
X490220Y400050D02*
X519684D01*
X403606D02*
X438912D01*
X328168D02*
X390398D01*
X247142D02*
X276860D01*
X490474Y399796D02*
X519938D01*
X403606D02*
X438912D01*
X328168D02*
X390398D01*
X247142D02*
X276606D01*
X490474Y399542D02*
X520192D01*
X403606D02*
X438912D01*
X328168D02*
X390398D01*
X246888D02*
X276352D01*
X490728Y399288D02*
X520192D01*
X403606D02*
X438912D01*
X328168D02*
X390398D01*
X246634D02*
X276352D01*
X490982Y399034D02*
X520446D01*
X403606D02*
X438912D01*
X328168D02*
X390398D01*
X246634D02*
X276098D01*
X491236Y398780D02*
X520700D01*
X403606D02*
X438912D01*
X328168D02*
X390398D01*
X246380D02*
X275844D01*
X491490Y398526D02*
X520700D01*
X403606D02*
X438912D01*
X328168D02*
X390398D01*
X246380D02*
X275590D01*
X491490Y398272D02*
X520954D01*
X403606D02*
X438912D01*
X328168D02*
X390398D01*
X246126D02*
X275336D01*
X491744Y398018D02*
X520954D01*
X403606D02*
X438912D01*
X328168D02*
X390398D01*
X245872D02*
X275336D01*
X491998Y397764D02*
X521208D01*
X403606D02*
X438912D01*
X328168D02*
X390398D01*
X245872D02*
X275082D01*
X492252Y397510D02*
X521462D01*
X403606D02*
X438912D01*
X328168D02*
X390398D01*
X245618D02*
X274828D01*
X492252Y397256D02*
X521462D01*
X403606D02*
X438912D01*
X328168D02*
X390398D01*
X245618D02*
X274574D01*
X492506Y397002D02*
X521716D01*
X403606D02*
X438912D01*
X328168D02*
X390398D01*
X245364D02*
X274574D01*
X492760Y396748D02*
X521716D01*
X403606D02*
X438912D01*
X328168D02*
X390398D01*
X245110D02*
X274320D01*
X493014Y396494D02*
X521970D01*
X403606D02*
X438912D01*
X328168D02*
X390398D01*
X245110D02*
X274066D01*
X493014Y396240D02*
X521970D01*
X403606D02*
X438912D01*
X328168D02*
X390398D01*
X244856D02*
X273812D01*
X493268Y395986D02*
X522224D01*
X403606D02*
X438912D01*
X328168D02*
X390398D01*
X244856D02*
X273812D01*
X493522Y395732D02*
X522478D01*
X403606D02*
X438912D01*
X328168D02*
X390398D01*
X244602D02*
X273558D01*
X493776Y395478D02*
X522478D01*
X403606D02*
X438912D01*
X328168D02*
X390398D01*
X244348D02*
X273304D01*
X493776Y395224D02*
X522732D01*
X403606D02*
X438912D01*
X328168D02*
X390398D01*
X244348D02*
X273050D01*
X494030Y394970D02*
X522732D01*
X403606D02*
X438912D01*
X328168D02*
X390398D01*
X244094D02*
X273050D01*
X494284Y394716D02*
X522986D01*
X403606D02*
X438912D01*
X328168D02*
X390398D01*
X244094D02*
X272796D01*
X494284Y394462D02*
X523240D01*
X403606D02*
X438912D01*
X328168D02*
X390398D01*
X243840D02*
X272542D01*
X494538Y394208D02*
X523240D01*
X404114D02*
X438912D01*
X328168D02*
X389636D01*
X243840D02*
X272542D01*
X494792Y393954D02*
X523494D01*
X405892D02*
X438912D01*
X328168D02*
X387858D01*
X243586D02*
X272288D01*
X495046Y393700D02*
X523494D01*
X406654D02*
X438912D01*
X328168D02*
X387096D01*
X243586D02*
X272034D01*
X495046Y393446D02*
X523748D01*
X407416D02*
X438912D01*
X328168D02*
X386334D01*
X243332D02*
X271780D01*
X495300Y393192D02*
X523748D01*
X407924D02*
X438912D01*
X328168D02*
X385826D01*
X243078D02*
X271780D01*
X495554Y392938D02*
X524002D01*
X408432D02*
X438912D01*
X328168D02*
X385318D01*
X243078D02*
X271526D01*
X495554Y392684D02*
X524002D01*
X408940D02*
X438912D01*
X328168D02*
X385064D01*
X242824D02*
X271272D01*
X495808Y392430D02*
X524256D01*
X409194D02*
X438912D01*
X328168D02*
X384556D01*
X242824D02*
X271272D01*
X496062Y392176D02*
X524510D01*
X409702D02*
X438912D01*
X328168D02*
X384302D01*
X242570D02*
X271018D01*
X496062Y391922D02*
X524510D01*
X409956D02*
X438912D01*
X328168D02*
X383794D01*
X242570D02*
X270764D01*
X496316Y391668D02*
X524764D01*
X410210D02*
X438912D01*
X328168D02*
X383540D01*
X242316D02*
X270764D01*
X496570Y391414D02*
X524764D01*
X410464D02*
X438912D01*
X328168D02*
X383286D01*
X242316D02*
X270510D01*
X496570Y391160D02*
X525018D01*
X410718D02*
X438912D01*
X328168D02*
X383032D01*
X242062D02*
X270256D01*
X496824Y390906D02*
X525018D01*
X410972D02*
X438912D01*
X328168D02*
X382778D01*
X241808D02*
X270256D01*
X497078Y390652D02*
X525272D01*
X411226D02*
X438912D01*
X328168D02*
X382524D01*
X241808D02*
X270002D01*
X497078Y390398D02*
X525272D01*
X411480D02*
X438912D01*
X328168D02*
X382270D01*
X241554D02*
X269748D01*
X497332Y390144D02*
X525526D01*
X411734D02*
X438912D01*
X328168D02*
X382270D01*
X241554D02*
X269748D01*
X497586Y389890D02*
X525526D01*
X411734D02*
X438912D01*
X328168D02*
X382016D01*
X241300D02*
X269494D01*
X497586Y389636D02*
X525780D01*
X411988D02*
X438912D01*
X328168D02*
X381762D01*
X241300D02*
X269240D01*
X497840Y389382D02*
X525780D01*
X412242D02*
X438912D01*
X328168D02*
X381762D01*
X241046D02*
X269240D01*
X498094Y389128D02*
X526034D01*
X412242D02*
X438912D01*
X328168D02*
X381508D01*
X241046D02*
X268986D01*
X498094Y388874D02*
X526034D01*
X412496D02*
X438912D01*
X328168D02*
X381254D01*
X240792D02*
X268732D01*
X498348Y388620D02*
X526288D01*
X412496D02*
X438912D01*
X328168D02*
X381254D01*
X240792D02*
X268732D01*
X498602Y388366D02*
X526542D01*
X412750D02*
X438912D01*
X328168D02*
X381000D01*
X240538D02*
X268478D01*
X498602Y388112D02*
X526542D01*
X412750D02*
X438912D01*
X328168D02*
X381000D01*
X240538D02*
X268224D01*
X498856Y387858D02*
X526542D01*
X413004D02*
X438912D01*
X328168D02*
X381000D01*
X240284D02*
X268224D01*
X499110Y387604D02*
X526796D01*
X413004D02*
X438912D01*
X328168D02*
X380746D01*
X240284D02*
X267970D01*
X499110Y387350D02*
X526796D01*
X413004D02*
X438912D01*
X328168D02*
X380746D01*
X240030D02*
X267970D01*
X499364Y387096D02*
X527050D01*
X413258D02*
X438912D01*
X328168D02*
X380492D01*
X240030D02*
X267716D01*
X499364Y386842D02*
X527050D01*
X413258D02*
X438912D01*
X328168D02*
X380492D01*
X239776D02*
X267462D01*
X499618Y386588D02*
X527304D01*
X413258D02*
X438912D01*
X328168D02*
X380492D01*
X239776D02*
X267462D01*
X499872Y386334D02*
X527304D01*
X413512D02*
X438912D01*
X328168D02*
X380492D01*
X239522D02*
X267208D01*
X499872Y386080D02*
X527558D01*
X413512D02*
X438912D01*
X328168D02*
X380238D01*
X239522D02*
X266954D01*
X500126Y385826D02*
X527558D01*
X413512D02*
X438912D01*
X328168D02*
X380238D01*
X239268D02*
X266954D01*
X500126Y385572D02*
X527812D01*
X413512D02*
X438912D01*
X328168D02*
X380238D01*
X239268D02*
X266700D01*
X500380Y385318D02*
X527812D01*
X413512D02*
X438912D01*
X328168D02*
X380238D01*
X239014D02*
X266700D01*
X500634Y385064D02*
X528066D01*
X413512D02*
X438912D01*
X328168D02*
X380238D01*
X239014D02*
X266446D01*
X500634Y384810D02*
X528066D01*
X413512D02*
X438912D01*
X328168D02*
X380238D01*
X238760D02*
X266192D01*
X500888Y384556D02*
X528320D01*
X413766D02*
X438912D01*
X328168D02*
X380238D01*
X238760D02*
X266192D01*
X500888Y384302D02*
X528320D01*
X413766D02*
X438912D01*
X328168D02*
X380238D01*
X238506D02*
X265938D01*
X501142Y384048D02*
X528574D01*
X413766D02*
X438912D01*
X328168D02*
X380238D01*
X238506D02*
X265938D01*
X501396Y383794D02*
X528574D01*
X413766D02*
X438912D01*
X328168D02*
X380238D01*
X238252D02*
X265684D01*
X501396Y383540D02*
X528828D01*
X413766D02*
X438912D01*
X328168D02*
X380238D01*
X238252D02*
X265684D01*
X501650Y383286D02*
X528828D01*
X413766D02*
X438912D01*
X328168D02*
X380238D01*
X237998D02*
X265430D01*
X501650Y383032D02*
X529082D01*
X413766D02*
X438912D01*
X328168D02*
X380238D01*
X237998D02*
X265176D01*
X501904Y382778D02*
X529082D01*
X413766D02*
X438912D01*
X328168D02*
X380238D01*
X237998D02*
X265176D01*
X501904Y382524D02*
X529336D01*
X413766D02*
X438912D01*
X328168D02*
X380238D01*
X237744D02*
X264922D01*
X502158Y382270D02*
X529336D01*
X413766D02*
X438912D01*
X328168D02*
X380238D01*
X237744D02*
X264922D01*
X502412Y382016D02*
X529590D01*
X413766D02*
X438912D01*
X328168D02*
X380238D01*
X237490D02*
X264668D01*
X502412Y381762D02*
X529590D01*
X413766D02*
X438912D01*
X328168D02*
X380238D01*
X237490D02*
X264668D01*
X502666Y381508D02*
X529844D01*
X413766D02*
X438912D01*
X328168D02*
X380238D01*
X237236D02*
X264414D01*
X502666Y381254D02*
X529844D01*
X413766D02*
X438912D01*
X328168D02*
X380238D01*
X237236D02*
X264160D01*
X502920Y381000D02*
X529844D01*
X413766D02*
X438912D01*
X328168D02*
X380238D01*
X236982D02*
X264160D01*
X502920Y380746D02*
X530098D01*
X413766D02*
X438912D01*
X328168D02*
X380238D01*
X236982D02*
X263906D01*
X503174Y380492D02*
X530098D01*
X413766D02*
X438912D01*
X328168D02*
X380238D01*
X236728D02*
X263906D01*
X503428Y380238D02*
X530352D01*
X413766D02*
X438912D01*
X328168D02*
X380238D01*
X236728D02*
X263652D01*
X503428Y379984D02*
X530352D01*
X413766D02*
X438912D01*
X328168D02*
X380238D01*
X236728D02*
X263652D01*
X503682Y379730D02*
X530606D01*
X413766D02*
X438912D01*
X328168D02*
X380238D01*
X236474D02*
X263398D01*
X503682Y379476D02*
X530606D01*
X413766D02*
X438912D01*
X328168D02*
X380238D01*
X236474D02*
X263398D01*
X503936Y379222D02*
X530606D01*
X413766D02*
X438912D01*
X328168D02*
X380238D01*
X236220D02*
X263144D01*
X503936Y378968D02*
X530860D01*
X413766D02*
X438912D01*
X345186D02*
X380238D01*
X328168D02*
X343154D01*
X236220D02*
X263144D01*
X504190Y378714D02*
X530860D01*
X413766D02*
X438912D01*
X345948D02*
X380238D01*
X328168D02*
X342392D01*
X235966D02*
X262890D01*
X504190Y378460D02*
X531114D01*
X413766D02*
X438912D01*
X346456D02*
X380238D01*
X328168D02*
X341884D01*
X235966D02*
X262636D01*
X504444Y378206D02*
X531114D01*
X413766D02*
X438912D01*
X346964D02*
X380238D01*
X328168D02*
X341376D01*
X235712D02*
X262636D01*
X504444Y377952D02*
X531368D01*
X413766D02*
X438912D01*
X347218D02*
X380238D01*
X328168D02*
X341122D01*
X235712D02*
X262382D01*
X504698Y377698D02*
X531368D01*
X413766D02*
X438912D01*
X347726D02*
X380238D01*
X328168D02*
X340614D01*
X235712D02*
X262382D01*
X504698Y377444D02*
X531368D01*
X413766D02*
X438912D01*
X347980D02*
X380238D01*
X328168D02*
X340360D01*
X235458D02*
X262128D01*
X504952Y377190D02*
X531622D01*
X413766D02*
X438912D01*
X348234D02*
X380238D01*
X328168D02*
X340360D01*
X235458D02*
X262128D01*
X504952Y376936D02*
X531622D01*
X413766D02*
X438912D01*
X348234D02*
X380238D01*
X328168D02*
X340106D01*
X235204D02*
X261874D01*
X505206Y376682D02*
X531876D01*
X413766D02*
X438912D01*
X348488D02*
X380238D01*
X328168D02*
X339852D01*
X235204D02*
X261874D01*
X505206Y376428D02*
X531876D01*
X413766D02*
X438912D01*
X348742D02*
X380238D01*
X328168D02*
X339598D01*
X235204D02*
X261620D01*
X505460Y376174D02*
X532130D01*
X413766D02*
X438912D01*
X348742D02*
X380238D01*
X328168D02*
X339598D01*
X234950D02*
X261620D01*
X505460Y375920D02*
X532130D01*
X413766D02*
X438912D01*
X348996D02*
X380238D01*
X328168D02*
X339344D01*
X234950D02*
X261366D01*
X505714Y375666D02*
X532130D01*
X413766D02*
X438912D01*
X348996D02*
X380238D01*
X328168D02*
X339344D01*
X234696D02*
X261366D01*
X505714Y375412D02*
X532384D01*
X413766D02*
X438912D01*
X349250D02*
X380238D01*
X328168D02*
X339344D01*
X234696D02*
X261112D01*
X505968Y375158D02*
X532384D01*
X413766D02*
X438912D01*
X349250D02*
X380238D01*
X328168D02*
X339090D01*
X234696D02*
X261112D01*
X505968Y374904D02*
X532638D01*
X413766D02*
X438912D01*
X349250D02*
X380238D01*
X328168D02*
X339090D01*
X234442D02*
X260858D01*
X506222Y374650D02*
X532638D01*
X413766D02*
X438912D01*
X349250D02*
X380238D01*
X328168D02*
X339090D01*
X234442D02*
X260858D01*
X506222Y374396D02*
X532638D01*
X413766D02*
X438912D01*
X349250D02*
X380238D01*
X328168D02*
X339090D01*
X234188D02*
X260604D01*
X506476Y374142D02*
X532892D01*
X413766D02*
X438912D01*
X349504D02*
X380238D01*
X328168D02*
X339090D01*
X234188D02*
X260604D01*
X506476Y373888D02*
X532892D01*
X413766D02*
X438912D01*
X349504D02*
X380238D01*
X328168D02*
X339090D01*
X234188D02*
X260350D01*
X506730Y373634D02*
X533146D01*
X413766D02*
X438912D01*
X349504D02*
X380238D01*
X328168D02*
X339090D01*
X233934D02*
X260350D01*
X506730Y373380D02*
X533146D01*
X413766D02*
X438912D01*
X349250D02*
X380238D01*
X328168D02*
X339090D01*
X233934D02*
X260350D01*
X506984Y373126D02*
X533146D01*
X413766D02*
X438912D01*
X349250D02*
X380238D01*
X328168D02*
X339090D01*
X233680D02*
X260096D01*
X506984Y372872D02*
X533400D01*
X413766D02*
X438912D01*
X349250D02*
X380238D01*
X328168D02*
X339090D01*
X233680D02*
X260096D01*
X507238Y372618D02*
X533400D01*
X413766D02*
X438912D01*
X349250D02*
X380238D01*
X328168D02*
X339090D01*
X233680D02*
X259842D01*
X507238Y372364D02*
X533400D01*
X413766D02*
X438912D01*
X349250D02*
X380238D01*
X328168D02*
X339090D01*
X233426D02*
X259842D01*
X507492Y372110D02*
X533654D01*
X413766D02*
X438912D01*
X348996D02*
X380238D01*
X328168D02*
X339344D01*
X233426D02*
X259588D01*
X507492Y371856D02*
X533654D01*
X413766D02*
X438912D01*
X348996D02*
X380238D01*
X328168D02*
X339344D01*
X233172D02*
X259588D01*
X507492Y371602D02*
X533908D01*
X413766D02*
X438912D01*
X348742D02*
X380238D01*
X328168D02*
X339598D01*
X233172D02*
X259334D01*
X507746Y371348D02*
X533908D01*
X413766D02*
X438912D01*
X348742D02*
X380238D01*
X328168D02*
X339598D01*
X233172D02*
X259334D01*
X507746Y371094D02*
X533908D01*
X413766D02*
X438912D01*
X348488D02*
X380238D01*
X328168D02*
X339852D01*
X232918D02*
X259080D01*
X508000Y370840D02*
X534162D01*
X413766D02*
X438912D01*
X348488D02*
X380238D01*
X328168D02*
X340106D01*
X232918D02*
X259080D01*
X508000Y370586D02*
X534162D01*
X413766D02*
X438912D01*
X348234D02*
X380238D01*
X328168D02*
X340106D01*
X232918D02*
X258826D01*
X508254Y370332D02*
X534162D01*
X413766D02*
X438912D01*
X347980D02*
X380238D01*
X328168D02*
X340360D01*
X232664D02*
X258826D01*
X508254Y370078D02*
X534416D01*
X413766D02*
X438912D01*
X347726D02*
X380238D01*
X328168D02*
X340614D01*
X232664D02*
X258826D01*
X508508Y369824D02*
X534416D01*
X413766D02*
X438912D01*
X347472D02*
X380238D01*
X328168D02*
X340868D01*
X232664D02*
X258572D01*
X508508Y369570D02*
X534670D01*
X413766D02*
X438912D01*
X346964D02*
X380238D01*
X328168D02*
X341376D01*
X232410D02*
X258572D01*
X508508Y369316D02*
X534670D01*
X413766D02*
X438912D01*
X346710D02*
X380238D01*
X328168D02*
X341630D01*
X232410D02*
X258318D01*
X508762Y369062D02*
X534670D01*
X413766D02*
X438912D01*
X346202D02*
X380238D01*
X328168D02*
X342138D01*
X232156D02*
X258318D01*
X508762Y368808D02*
X534924D01*
X413766D02*
X438912D01*
X345440D02*
X380238D01*
X328168D02*
X342900D01*
X232156D02*
X258064D01*
X509016Y368554D02*
X534924D01*
X413766D02*
X438912D01*
X328168D02*
X380238D01*
X232156D02*
X258064D01*
X509016Y368300D02*
X534924D01*
X413766D02*
X438912D01*
X328168D02*
X380238D01*
X231902D02*
X258064D01*
X509270Y368046D02*
X535178D01*
X413766D02*
X438912D01*
X328168D02*
X380238D01*
X231902D02*
X257810D01*
X509270Y367792D02*
X535178D01*
X413766D02*
X438912D01*
X328168D02*
X380238D01*
X231902D02*
X257810D01*
X509270Y367538D02*
X535178D01*
X413766D02*
X438912D01*
X328168D02*
X380238D01*
X231648D02*
X257556D01*
X509524Y367284D02*
X535432D01*
X413766D02*
X438912D01*
X328168D02*
X380238D01*
X231648D02*
X257556D01*
X509524Y367030D02*
X535432D01*
X413766D02*
X438912D01*
X328168D02*
X380238D01*
X231648D02*
X257302D01*
X509778Y366776D02*
X535432D01*
X413766D02*
X438912D01*
X328168D02*
X380238D01*
X231394D02*
X257302D01*
X509778Y366522D02*
X535686D01*
X413766D02*
X438912D01*
X328168D02*
X380238D01*
X231394D02*
X257302D01*
X509778Y366268D02*
X535686D01*
X413766D02*
X438912D01*
X328168D02*
X380238D01*
X231394D02*
X257048D01*
X510032Y366014D02*
X535686D01*
X413766D02*
X438912D01*
X328168D02*
X380238D01*
X231140D02*
X257048D01*
X510032Y365760D02*
X535940D01*
X413766D02*
X438912D01*
X328168D02*
X380238D01*
X231140D02*
X256794D01*
X510286Y365506D02*
X535940D01*
X413766D02*
X438912D01*
X328168D02*
X380238D01*
X231140D02*
X256794D01*
X510286Y365252D02*
X535940D01*
X413766D02*
X438912D01*
X328168D02*
X380238D01*
X230886D02*
X256794D01*
X510286Y364998D02*
X536194D01*
X413766D02*
X438912D01*
X328168D02*
X380238D01*
X230886D02*
X256540D01*
X510540Y364744D02*
X536194D01*
X413766D02*
X438912D01*
X328168D02*
X380238D01*
X230886D02*
X256540D01*
X510540Y364490D02*
X536194D01*
X413766D02*
X438912D01*
X328168D02*
X380238D01*
X230632D02*
X256286D01*
X510794Y364236D02*
X536448D01*
X413766D02*
X438912D01*
X328168D02*
X380238D01*
X230632D02*
X256286D01*
X510794Y363982D02*
X536448D01*
X413766D02*
X438912D01*
X328168D02*
X380238D01*
X230632D02*
X256286D01*
X510794Y363728D02*
X536448D01*
X413766D02*
X438912D01*
X328168D02*
X380238D01*
X230378D02*
X256032D01*
X511048Y363474D02*
X536702D01*
X413766D02*
X438912D01*
X328168D02*
X380238D01*
X230378D02*
X256032D01*
X511048Y363220D02*
X536702D01*
X413766D02*
X438912D01*
X328168D02*
X380238D01*
X230378D02*
X256032D01*
X511302Y362966D02*
X536702D01*
X413766D02*
X438912D01*
X328168D02*
X380238D01*
X230124D02*
X255778D01*
X511302Y362712D02*
X536956D01*
X413512D02*
X438912D01*
X328168D02*
X380238D01*
X230124D02*
X255778D01*
X511302Y362458D02*
X536956D01*
X413512D02*
X438912D01*
X328168D02*
X380238D01*
X230124D02*
X255524D01*
X511556Y362204D02*
X536956D01*
X413512D02*
X438912D01*
X328168D02*
X380238D01*
X230124D02*
X255524D01*
X511556Y361950D02*
X536956D01*
X413512D02*
X438912D01*
X328168D02*
X380238D01*
X229870D02*
X255524D01*
X511556Y361696D02*
X537210D01*
X413512D02*
X438912D01*
X328168D02*
X380238D01*
X229870D02*
X255270D01*
X511810Y361442D02*
X537210D01*
X413512D02*
X438912D01*
X328168D02*
X380238D01*
X229870D02*
X255270D01*
X511810Y361188D02*
X537210D01*
X413512D02*
X438912D01*
X328168D02*
X380492D01*
X229616D02*
X255270D01*
X511810Y360934D02*
X537464D01*
X413258D02*
X438912D01*
X328168D02*
X380492D01*
X229616D02*
X255016D01*
X512064Y360680D02*
X537464D01*
X413258D02*
X438912D01*
X328168D02*
X380492D01*
X229616D02*
X255016D01*
X512064Y360426D02*
X537464D01*
X413258D02*
X438912D01*
X328168D02*
X380492D01*
X229362D02*
X255016D01*
X512064Y360172D02*
X537718D01*
X413004D02*
X438912D01*
X328168D02*
X380746D01*
X229362D02*
X254762D01*
X512318Y359918D02*
X537718D01*
X413004D02*
X438912D01*
X328168D02*
X380746D01*
X229362D02*
X254762D01*
X512318Y359664D02*
X537718D01*
X413004D02*
X438912D01*
X328168D02*
X380746D01*
X229362D02*
X254762D01*
X512572Y359410D02*
X537718D01*
X412750D02*
X438912D01*
X328168D02*
X381000D01*
X229108D02*
X254508D01*
X512572Y359156D02*
X537972D01*
X412750D02*
X438912D01*
X328168D02*
X381000D01*
X229108D02*
X254508D01*
X512572Y358902D02*
X537972D01*
X412496D02*
X438912D01*
X328168D02*
X381254D01*
X229108D02*
X254254D01*
X512826Y358648D02*
X537972D01*
X412496D02*
X438912D01*
X328168D02*
X381254D01*
X228854D02*
X254254D01*
X512826Y358394D02*
X538226D01*
X412242D02*
X438912D01*
X328168D02*
X381508D01*
X228854D02*
X254254D01*
X512826Y358140D02*
X538226D01*
X412242D02*
X438912D01*
X328168D02*
X381762D01*
X228854D02*
X254000D01*
X513080Y357886D02*
X538226D01*
X411988D02*
X438912D01*
X328168D02*
X381762D01*
X228854D02*
X254000D01*
X513080Y357632D02*
X538226D01*
X411734D02*
X438912D01*
X328168D02*
X382016D01*
X228600D02*
X254000D01*
X513080Y357378D02*
X538480D01*
X411734D02*
X438912D01*
X328168D02*
X382270D01*
X228600D02*
X254000D01*
X513334Y357124D02*
X538480D01*
X411480D02*
X438912D01*
X328168D02*
X382270D01*
X228600D02*
X253746D01*
X513334Y356870D02*
X538480D01*
X411226D02*
X438912D01*
X328168D02*
X382524D01*
X228600D02*
X253746D01*
X513334Y356616D02*
X538480D01*
X410972D02*
X438912D01*
X328168D02*
X382778D01*
X228346D02*
X253746D01*
X513334Y356362D02*
X538734D01*
X410718D02*
X438912D01*
X328168D02*
X383032D01*
X228346D02*
X253492D01*
X513588Y356108D02*
X538734D01*
X410464D02*
X438912D01*
X328168D02*
X383286D01*
X228346D02*
X253492D01*
X513588Y355854D02*
X538734D01*
X410210D02*
X438912D01*
X328168D02*
X383540D01*
X228092D02*
X253492D01*
X513588Y355600D02*
X538734D01*
X409956D02*
X438912D01*
X328168D02*
X383794D01*
X228092D02*
X253238D01*
X513842Y355346D02*
X538988D01*
X409702D02*
X438912D01*
X328168D02*
X384302D01*
X228092D02*
X253238D01*
X513842Y355092D02*
X538988D01*
X409194D02*
X438912D01*
X328168D02*
X384556D01*
X228092D02*
X253238D01*
X513842Y354838D02*
X538988D01*
X408940D02*
X438912D01*
X328168D02*
X384810D01*
X227838D02*
X252984D01*
X514096Y354584D02*
X538988D01*
X408432D02*
X438912D01*
X328168D02*
X385318D01*
X227838D02*
X252984D01*
X514096Y354330D02*
X539242D01*
X407924D02*
X438912D01*
X328168D02*
X385826D01*
X227838D02*
X252984D01*
X514096Y354076D02*
X539242D01*
X407416D02*
X438912D01*
X328168D02*
X386334D01*
X227838D02*
X252730D01*
X514350Y353822D02*
X539242D01*
X406654D02*
X438912D01*
X328168D02*
X387096D01*
X227584D02*
X252730D01*
X514350Y353568D02*
X539242D01*
X405892D02*
X438912D01*
X328168D02*
X387858D01*
X227584D02*
X252730D01*
X514350Y353314D02*
X539496D01*
X404622D02*
X438912D01*
X328168D02*
X389382D01*
X227584D02*
X252730D01*
X514350Y353060D02*
X539496D01*
X328168D02*
X438912D01*
X227584D02*
X252476D01*
X514604Y352806D02*
X539496D01*
X328422D02*
X438912D01*
X227584D02*
X252476D01*
X514604Y352552D02*
X539496D01*
X328422D02*
X438912D01*
X227330D02*
X252476D01*
X514604Y352298D02*
X539750D01*
X328422D02*
X438912D01*
X227330D02*
X252222D01*
X514858Y352044D02*
X539750D01*
X328422D02*
X438658D01*
X227330D02*
X252222D01*
X514858Y351790D02*
X539750D01*
X328422D02*
X438658D01*
X227330D02*
X252222D01*
X514858Y351536D02*
X539750D01*
X328422D02*
X438658D01*
X227076D02*
X252222D01*
X514858Y351282D02*
X540004D01*
X328422D02*
X438658D01*
X227076D02*
X251968D01*
X515112Y351028D02*
X540004D01*
X328422D02*
X438658D01*
X227076D02*
X251968D01*
X515112Y350774D02*
X540004D01*
X328422D02*
X438658D01*
X227076D02*
X251968D01*
X515112Y350520D02*
X540004D01*
X328676D02*
X438658D01*
X226822D02*
X251968D01*
X515112Y350266D02*
X540258D01*
X328676D02*
X438404D01*
X226822D02*
X251714D01*
X515366Y350012D02*
X540258D01*
X328676D02*
X438404D01*
X226822D02*
X251714D01*
X515366Y349758D02*
X540258D01*
X328676D02*
X438404D01*
X226822D02*
X251714D01*
X515366Y349504D02*
X540258D01*
X328676D02*
X438404D01*
X226822D02*
X251460D01*
X515620Y349250D02*
X540258D01*
X328930D02*
X438404D01*
X226568D02*
X251460D01*
X515620Y348996D02*
X540512D01*
X328930D02*
X438150D01*
X226568D02*
X251460D01*
X515620Y348742D02*
X540512D01*
X328930D02*
X438150D01*
X226568D02*
X251460D01*
X515620Y348488D02*
X540512D01*
X328930D02*
X438150D01*
X226568D02*
X251206D01*
X515874Y348234D02*
X540512D01*
X329184D02*
X438150D01*
X226314D02*
X251206D01*
X515874Y347980D02*
X540512D01*
X329184D02*
X437896D01*
X226314D02*
X251206D01*
X515874Y347726D02*
X540766D01*
X329184D02*
X437896D01*
X226314D02*
X251206D01*
X515874Y347472D02*
X540766D01*
X329438D02*
X437896D01*
X226314D02*
X250952D01*
X515874Y347218D02*
X540766D01*
X329438D02*
X437642D01*
X226314D02*
X250952D01*
X516128Y346964D02*
X540766D01*
X329438D02*
X437642D01*
X226060D02*
X250952D01*
X516128Y346710D02*
X540766D01*
X329692D02*
X437642D01*
X226060D02*
X250952D01*
X516128Y346456D02*
X541020D01*
X329692D02*
X437388D01*
X226060D02*
X250698D01*
X516128Y346202D02*
X541020D01*
X329692D02*
X437388D01*
X226060D02*
X250698D01*
X516382Y345948D02*
X541020D01*
X329946D02*
X437134D01*
X226060D02*
X250698D01*
X516382Y345694D02*
X541020D01*
X329946D02*
X437134D01*
X225806D02*
X250698D01*
X516382Y345440D02*
X541020D01*
X330200D02*
X436880D01*
X225806D02*
X250698D01*
X516382Y345186D02*
X541274D01*
X330200D02*
X436880D01*
X225806D02*
X250444D01*
X516636Y344932D02*
X541274D01*
X330454D02*
X436626D01*
X225806D02*
X250444D01*
X516636Y344678D02*
X541274D01*
X330454D02*
X436626D01*
X225806D02*
X250444D01*
X516636Y344424D02*
X541274D01*
X330708D02*
X436372D01*
X225806D02*
X250444D01*
X516636Y344170D02*
X541274D01*
X330708D02*
X436372D01*
X225552D02*
X250190D01*
X516636Y343916D02*
X541528D01*
X330962D02*
X436118D01*
X225552D02*
X250190D01*
X516890Y343662D02*
X541528D01*
X331216D02*
X436118D01*
X225552D02*
X250190D01*
X516890Y343408D02*
X541528D01*
X331216D02*
X435864D01*
X225552D02*
X250190D01*
X516890Y343154D02*
X541528D01*
X331470D02*
X435610D01*
X225552D02*
X250190D01*
X516890Y342900D02*
X541528D01*
X331724D02*
X435610D01*
X225298D02*
X249936D01*
X517144Y342646D02*
X541528D01*
X331978D02*
X435356D01*
X225298D02*
X249936D01*
X517144Y342392D02*
X541782D01*
X331978D02*
X435102D01*
X225298D02*
X249936D01*
X517144Y342138D02*
X541782D01*
X332232D02*
X434848D01*
X225298D02*
X249936D01*
X517144Y341884D02*
X541782D01*
X332486D02*
X434594D01*
X225298D02*
X249936D01*
X517144Y341630D02*
X541782D01*
X332740D02*
X434340D01*
X225298D02*
X249682D01*
X517144Y341376D02*
X541782D01*
X332994D02*
X434340D01*
X225044D02*
X249682D01*
X517398Y341122D02*
X541782D01*
X333248D02*
X434086D01*
X225044D02*
X249682D01*
X517398Y340868D02*
X542036D01*
X333502D02*
X433832D01*
X225044D02*
X249682D01*
X517398Y340614D02*
X542036D01*
X333756D02*
X433578D01*
X225044D02*
X249682D01*
X517398Y340360D02*
X542036D01*
X334010D02*
X433070D01*
X225044D02*
X249428D01*
X517398Y340106D02*
X542036D01*
X334264D02*
X432816D01*
X225044D02*
X249428D01*
X517652Y339852D02*
X542036D01*
X334518D02*
X432562D01*
X224790D02*
X249428D01*
X517652Y339598D02*
X542036D01*
X334772D02*
X432308D01*
X224790D02*
X249428D01*
X517652Y339344D02*
X542290D01*
X335280D02*
X432054D01*
X224790D02*
X249428D01*
X517652Y339090D02*
X542290D01*
X335534D02*
X431546D01*
X224790D02*
X249428D01*
X517652Y338836D02*
X542290D01*
X336042D02*
X431292D01*
X224790D02*
X249174D01*
X517906Y338582D02*
X542290D01*
X336296D02*
X430784D01*
X224790D02*
X249174D01*
X517906Y338328D02*
X542290D01*
X336804D02*
X430530D01*
X224790D02*
X249174D01*
X517906Y338074D02*
X542290D01*
X337058D02*
X430022D01*
X224790D02*
X249174D01*
X517906Y337820D02*
X542290D01*
X337566D02*
X429514D01*
X224536D02*
X249174D01*
X517906Y337566D02*
X542290D01*
X338074D02*
X429006D01*
X224536D02*
X249174D01*
X517906Y337312D02*
X542544D01*
X338582D02*
X428498D01*
X224536D02*
X248920D01*
X518160Y337058D02*
X542544D01*
X339090D02*
X427990D01*
X224536D02*
X248920D01*
X518160Y336804D02*
X542544D01*
X339598D02*
X427482D01*
X224536D02*
X248920D01*
X518160Y336550D02*
X542544D01*
X340360D02*
X426720D01*
X224536D02*
X248920D01*
X518160Y336296D02*
X542544D01*
X341122D02*
X426212D01*
X224536D02*
X248920D01*
X518160Y336042D02*
X542544D01*
X341630D02*
X425450D01*
X224282D02*
X248920D01*
X518160Y335788D02*
X542544D01*
X342646D02*
X424688D01*
X224282D02*
X248666D01*
X518160Y335534D02*
X542798D01*
X343408D02*
X423672D01*
X224282D02*
X248666D01*
X518414Y335280D02*
X542798D01*
X344424D02*
X422656D01*
X224282D02*
X248666D01*
X518414Y335026D02*
X542798D01*
X345694D02*
X421386D01*
X224282D02*
X248666D01*
X518414Y334772D02*
X542798D01*
X347218D02*
X420116D01*
X224282D02*
X248666D01*
X518414Y334518D02*
X542798D01*
X348996D02*
X418084D01*
X224282D02*
X248666D01*
X518414Y334264D02*
X542798D01*
X352552D02*
X414528D01*
X224282D02*
X248666D01*
X518414Y334010D02*
X542798D01*
X224028D02*
X248412D01*
X518414Y333756D02*
X542798D01*
X224028D02*
X248412D01*
X518668Y333502D02*
X542798D01*
X224028D02*
X248412D01*
X518668Y333248D02*
X543052D01*
X224028D02*
X248412D01*
X518668Y332994D02*
X543052D01*
X224028D02*
X248412D01*
X518668Y332740D02*
X543052D01*
X224028D02*
X248412D01*
X518668Y332486D02*
X543052D01*
X224028D02*
X248412D01*
X518668Y332232D02*
X543052D01*
X224028D02*
X248158D01*
X518668Y331978D02*
X543052D01*
X224028D02*
X248158D01*
X518668Y331724D02*
X543052D01*
X223774D02*
X248158D01*
X518922Y331470D02*
X543052D01*
X223774D02*
X248158D01*
X518922Y331216D02*
X543052D01*
X223774D02*
X248158D01*
X518922Y330962D02*
X543306D01*
X223774D02*
X248158D01*
X518922Y330708D02*
X543306D01*
X223774D02*
X248158D01*
X518922Y330454D02*
X543306D01*
X223774D02*
X248158D01*
X518922Y330200D02*
X543306D01*
X223774D02*
X248158D01*
X518922Y329946D02*
X543306D01*
X223774D02*
X247904D01*
X518922Y329692D02*
X543306D01*
X223774D02*
X247904D01*
X519176Y329438D02*
X543306D01*
X223774D02*
X247904D01*
X519176Y329184D02*
X543306D01*
X223774D02*
X247904D01*
X519176Y328930D02*
X543306D01*
X223520D02*
X247904D01*
X519176Y328676D02*
X543306D01*
X223520D02*
X247904D01*
X519176Y328422D02*
X543306D01*
X223520D02*
X247904D01*
X519176Y328168D02*
X543560D01*
X223520D02*
X247904D01*
X519176Y327914D02*
X543560D01*
X223520D02*
X247904D01*
X519176Y327660D02*
X543560D01*
X223520D02*
X247904D01*
X519176Y327406D02*
X543560D01*
X223520D02*
X247650D01*
X519176Y327152D02*
X543560D01*
X223520D02*
X247650D01*
X519176Y326898D02*
X543560D01*
X223520D02*
X247650D01*
X519430Y326644D02*
X543560D01*
X223520D02*
X247650D01*
X519430Y326390D02*
X543560D01*
X223520D02*
X247650D01*
X519430Y326136D02*
X543560D01*
X223520D02*
X247650D01*
X519430Y325882D02*
X543560D01*
X223520D02*
X247650D01*
X519430Y325628D02*
X543560D01*
X223520D02*
X247650D01*
X519430Y325374D02*
X543560D01*
X341376D02*
X425704D01*
X223266D02*
X247650D01*
X519430Y325120D02*
X543560D01*
X338836D02*
X428244D01*
X223266D02*
X247650D01*
X519430Y324866D02*
X543560D01*
X337058D02*
X430276D01*
X223266D02*
X247650D01*
X519430Y324612D02*
X543560D01*
X335534D02*
X431546D01*
X223266D02*
X247650D01*
X519430Y324358D02*
X543814D01*
X334264D02*
X432816D01*
X223266D02*
X247650D01*
X519430Y324104D02*
X543814D01*
X332994D02*
X434086D01*
X223266D02*
X247396D01*
X519430Y323850D02*
X543814D01*
X332232D02*
X435102D01*
X223266D02*
X247396D01*
X519430Y323596D02*
X543814D01*
X331216D02*
X435864D01*
X223266D02*
X247396D01*
X519430Y323342D02*
X543814D01*
X330454D02*
X436626D01*
X223266D02*
X247396D01*
X519684Y323088D02*
X543814D01*
X329692D02*
X437388D01*
X223266D02*
X247396D01*
X519684Y322834D02*
X543814D01*
X328930D02*
X438150D01*
X223266D02*
X247396D01*
X519684Y322580D02*
X543814D01*
X328168D02*
X438912D01*
X223266D02*
X247396D01*
X519684Y322326D02*
X543814D01*
X327660D02*
X439420D01*
X223266D02*
X247396D01*
X519684Y322072D02*
X543814D01*
X327152D02*
X440182D01*
X223266D02*
X247396D01*
X519684Y321818D02*
X543814D01*
X326390D02*
X440690D01*
X223266D02*
X247396D01*
X519684Y321564D02*
X543814D01*
X325882D02*
X441198D01*
X223266D02*
X247396D01*
X519684Y321310D02*
X543814D01*
X325374D02*
X441706D01*
X223266D02*
X247396D01*
X519684Y321056D02*
X543814D01*
X324866D02*
X442214D01*
X223266D02*
X247396D01*
X519684Y320802D02*
X543814D01*
X324612D02*
X442722D01*
X223266D02*
X247396D01*
X519684Y320548D02*
X543814D01*
X324104D02*
X442976D01*
X223266D02*
X247396D01*
X519684Y320294D02*
X543814D01*
X323596D02*
X443484D01*
X223266D02*
X247396D01*
X519684Y320040D02*
X543814D01*
X323342D02*
X443992D01*
X223012D02*
X247396D01*
X519684Y319786D02*
X543814D01*
X322834D02*
X444246D01*
X223012D02*
X247396D01*
X519684Y319532D02*
X543814D01*
X322580D02*
X444754D01*
X223012D02*
X247396D01*
X519684Y319278D02*
X543814D01*
X322072D02*
X445008D01*
X223012D02*
X247396D01*
X519684Y319024D02*
X543814D01*
X321818D02*
X445516D01*
X223012D02*
X247396D01*
X519684Y318770D02*
X543814D01*
X321564D02*
X445770D01*
X223012D02*
X247142D01*
X519684Y318516D02*
X543814D01*
X321056D02*
X446024D01*
X223012D02*
X247142D01*
X519684Y318262D02*
X543814D01*
X320802D02*
X446278D01*
X223012D02*
X247142D01*
X519684Y318008D02*
X543814D01*
X320548D02*
X446532D01*
X223012D02*
X247142D01*
X519684Y317754D02*
X543814D01*
X320294D02*
X447040D01*
X223012D02*
X247142D01*
X519684Y317500D02*
X543814D01*
X320040D02*
X447294D01*
X223012D02*
X247142D01*
X519684Y317246D02*
X543814D01*
X319786D02*
X447548D01*
X223012D02*
X247142D01*
X519684Y316992D02*
X543814D01*
X319532D02*
X447802D01*
X223012D02*
X247142D01*
X519684Y316738D02*
X543814D01*
X319278D02*
X448056D01*
X223012D02*
X247142D01*
X519684Y316484D02*
X543814D01*
X319024D02*
X448310D01*
X223012D02*
X247142D01*
X519684Y316230D02*
X543814D01*
X318770D02*
X448564D01*
X223012D02*
X247142D01*
X519684Y315976D02*
X543814D01*
X318516D02*
X448818D01*
X223012D02*
X247142D01*
X519684Y315722D02*
X543814D01*
X318262D02*
X448818D01*
X223012D02*
X247142D01*
X519684Y315468D02*
X544068D01*
X318008D02*
X449072D01*
X223012D02*
X247142D01*
X519684Y315214D02*
X544068D01*
X317754D02*
X449326D01*
X223012D02*
X247142D01*
X519684Y314960D02*
X544068D01*
X317500D02*
X449580D01*
X223012D02*
X247142D01*
X519684Y314706D02*
X543814D01*
X317500D02*
X449834D01*
X223012D02*
X247142D01*
X519684Y314452D02*
X543814D01*
X317246D02*
X449834D01*
X223012D02*
X247142D01*
X519684Y314198D02*
X543814D01*
X316992D02*
X450088D01*
X223012D02*
X247142D01*
X519684Y313944D02*
X543814D01*
X316992D02*
X450342D01*
X223012D02*
X247142D01*
X519684Y313690D02*
X543814D01*
X316738D02*
X450342D01*
X223012D02*
X247142D01*
X519684Y313436D02*
X543814D01*
X316484D02*
X450596D01*
X223012D02*
X247142D01*
X519684Y313182D02*
X543814D01*
X316484D02*
X450850D01*
X223012D02*
X247142D01*
X519684Y312928D02*
X543814D01*
X316230D02*
X450850D01*
X223012D02*
X247142D01*
X519684Y312674D02*
X543814D01*
X315976D02*
X451104D01*
X223012D02*
X247142D01*
X519684Y312420D02*
X543814D01*
X315976D02*
X451104D01*
X223012D02*
X247142D01*
X519684Y312166D02*
X543814D01*
X315722D02*
X451358D01*
X223012D02*
X247142D01*
X519684Y311912D02*
X543814D01*
X315722D02*
X451612D01*
X223012D02*
X247142D01*
X519684Y311658D02*
X543814D01*
X315468D02*
X451612D01*
X223012D02*
X247396D01*
X519684Y311404D02*
X543814D01*
X315468D02*
X451866D01*
X223012D02*
X247396D01*
X519684Y311150D02*
X543814D01*
X315214D02*
X451866D01*
X223012D02*
X247396D01*
X519684Y310896D02*
X543814D01*
X315214D02*
X452120D01*
X223012D02*
X247396D01*
X519684Y310642D02*
X543814D01*
X314960D02*
X452120D01*
X223012D02*
X247396D01*
X519684Y310388D02*
X543814D01*
X314960D02*
X452120D01*
X223266D02*
X247396D01*
X519684Y310134D02*
X543814D01*
X314706D02*
X452374D01*
X223266D02*
X247396D01*
X519684Y309880D02*
X543814D01*
X314706D02*
X452374D01*
X223266D02*
X247396D01*
X519684Y309626D02*
X543814D01*
X314706D02*
X452628D01*
X223266D02*
X247396D01*
X519684Y309372D02*
X543814D01*
X314452D02*
X452628D01*
X223266D02*
X247396D01*
X519684Y309118D02*
X543814D01*
X421386D02*
X452628D01*
X314452D02*
X345694D01*
X223266D02*
X247396D01*
X519684Y308864D02*
X543814D01*
X423926D02*
X452882D01*
X314452D02*
X343408D01*
X223266D02*
X247396D01*
X519684Y308610D02*
X543814D01*
X425196D02*
X452882D01*
X314198D02*
X341884D01*
X223266D02*
X247396D01*
X519684Y308356D02*
X543814D01*
X426212D02*
X452882D01*
X314198D02*
X340868D01*
X223266D02*
X247396D01*
X519684Y308102D02*
X543814D01*
X426974D02*
X453136D01*
X314198D02*
X340106D01*
X223266D02*
X247396D01*
X519684Y307848D02*
X543814D01*
X427736D02*
X453136D01*
X313944D02*
X339344D01*
X223266D02*
X247396D01*
X519684Y307594D02*
X543814D01*
X428244D02*
X453136D01*
X313944D02*
X338836D01*
X223266D02*
X247396D01*
X519430Y307340D02*
X543814D01*
X428752D02*
X453136D01*
X313944D02*
X338328D01*
X223266D02*
X247396D01*
X519430Y307086D02*
X543814D01*
X429260D02*
X453390D01*
X313944D02*
X337820D01*
X223266D02*
X247396D01*
X519430Y306832D02*
X543814D01*
X429514D02*
X453390D01*
X313690D02*
X337566D01*
X223266D02*
X247396D01*
X519430Y306578D02*
X543814D01*
X430022D02*
X453390D01*
X313690D02*
X337058D01*
X223266D02*
X247396D01*
X519430Y306324D02*
X543814D01*
X430276D02*
X453390D01*
X313690D02*
X336804D01*
X223266D02*
X247650D01*
X519430Y306070D02*
X543560D01*
X430530D02*
X453644D01*
X313690D02*
X336550D01*
X223266D02*
X247650D01*
X519430Y305816D02*
X543560D01*
X430784D02*
X453644D01*
X313436D02*
X336296D01*
X223266D02*
X247650D01*
X519430Y305562D02*
X543560D01*
X431038D02*
X453644D01*
X313436D02*
X336042D01*
X223266D02*
X247650D01*
X519430Y305308D02*
X543560D01*
X431292D02*
X453644D01*
X313436D02*
X335788D01*
X223266D02*
X247650D01*
X519430Y305054D02*
X543560D01*
X431546D02*
X453898D01*
X313436D02*
X335534D01*
X223266D02*
X247650D01*
X519430Y304800D02*
X543560D01*
X431800D02*
X453898D01*
X313436D02*
X335534D01*
X223520D02*
X247650D01*
X519430Y304546D02*
X543560D01*
X431800D02*
X453898D01*
X313182D02*
X335280D01*
X223520D02*
X247650D01*
X519430Y304292D02*
X543560D01*
X432054D02*
X453898D01*
X313182D02*
X335026D01*
X223520D02*
X247650D01*
X519430Y304038D02*
X543560D01*
X432308D02*
X453898D01*
X313182D02*
X335026D01*
X223520D02*
X247650D01*
X519176Y303784D02*
X543560D01*
X432308D02*
X453898D01*
X313182D02*
X334772D01*
X223520D02*
X247650D01*
X519176Y303530D02*
X543560D01*
X432562D02*
X453898D01*
X313182D02*
X334772D01*
X223520D02*
X247650D01*
X519176Y303276D02*
X543560D01*
X432562D02*
X454152D01*
X313182D02*
X334518D01*
X223520D02*
X247650D01*
X519176Y303022D02*
X543560D01*
X432562D02*
X454152D01*
X313182D02*
X334518D01*
X223520D02*
X247904D01*
X519176Y302768D02*
X543560D01*
X432816D02*
X454152D01*
X312928D02*
X334264D01*
X223520D02*
X247904D01*
X519176Y302514D02*
X543560D01*
X432816D02*
X454152D01*
X312928D02*
X334264D01*
X223520D02*
X247904D01*
X519176Y302260D02*
X543306D01*
X432816D02*
X454152D01*
X312928D02*
X334264D01*
X223520D02*
X247904D01*
X519176Y302006D02*
X543306D01*
X433070D02*
X454152D01*
X312928D02*
X334264D01*
X223520D02*
X247904D01*
X519176Y301752D02*
X543306D01*
X433070D02*
X454152D01*
X312928D02*
X334010D01*
X223520D02*
X247904D01*
X519176Y301498D02*
X543306D01*
X433070D02*
X454152D01*
X312928D02*
X334010D01*
X223774D02*
X247904D01*
X519176Y301244D02*
X543306D01*
X433070D02*
X454152D01*
X312928D02*
X334010D01*
X223774D02*
X247904D01*
X518922Y300990D02*
X543306D01*
X433324D02*
X454152D01*
X312928D02*
X334010D01*
X223774D02*
X247904D01*
X518922Y300736D02*
X543306D01*
X433324D02*
X454152D01*
X312928D02*
X334010D01*
X223774D02*
X247904D01*
X518922Y300482D02*
X543306D01*
X433324D02*
X454152D01*
X312928D02*
X334010D01*
X223774D02*
X248158D01*
X518922Y300228D02*
X543306D01*
X433324D02*
X454406D01*
X312928D02*
X333756D01*
X223774D02*
X248158D01*
X518922Y299974D02*
X543306D01*
X433324D02*
X454406D01*
X312928D02*
X333756D01*
X223774D02*
X248158D01*
X518922Y299720D02*
X543306D01*
X433324D02*
X454406D01*
X312928D02*
X333756D01*
X223774D02*
X248158D01*
X518922Y299466D02*
X543052D01*
X433324D02*
X454406D01*
X390652D02*
X403098D01*
X312928D02*
X333756D01*
X223774D02*
X248158D01*
X518922Y299212D02*
X543052D01*
X433324D02*
X454406D01*
X389636D02*
X403860D01*
X312928D02*
X333756D01*
X223774D02*
X248158D01*
X518922Y298958D02*
X543052D01*
X433324D02*
X454406D01*
X389128D02*
X404368D01*
X312928D02*
X333756D01*
X223774D02*
X248158D01*
X518668Y298704D02*
X543052D01*
X433324D02*
X454406D01*
X388620D02*
X404876D01*
X312928D02*
X333756D01*
X223774D02*
X248158D01*
X518668Y298450D02*
X543052D01*
X433324D02*
X454406D01*
X388366D02*
X405384D01*
X312928D02*
X333756D01*
X224028D02*
X248158D01*
X518668Y298196D02*
X543052D01*
X433324D02*
X454406D01*
X387858D02*
X405638D01*
X312928D02*
X333756D01*
X224028D02*
X248412D01*
X518668Y297942D02*
X543052D01*
X433324D02*
X454406D01*
X387604D02*
X405892D01*
X312928D02*
X333756D01*
X224028D02*
X248412D01*
X518668Y297688D02*
X543052D01*
X433324D02*
X454406D01*
X387350D02*
X406400D01*
X312928D02*
X333756D01*
X224028D02*
X248412D01*
X518668Y297434D02*
X543052D01*
X433324D02*
X454406D01*
X387096D02*
X406400D01*
X312928D02*
X333756D01*
X224028D02*
X248412D01*
X518668Y297180D02*
X543052D01*
X433324D02*
X454406D01*
X386842D02*
X406654D01*
X312928D02*
X333756D01*
X224028D02*
X248412D01*
X518668Y296926D02*
X542798D01*
X433324D02*
X454406D01*
X386588D02*
X406908D01*
X312928D02*
X333756D01*
X224028D02*
X248412D01*
X518414Y296672D02*
X542798D01*
X433324D02*
X454406D01*
X386588D02*
X407162D01*
X312928D02*
X333756D01*
X224028D02*
X248412D01*
X518414Y296418D02*
X542798D01*
X433324D02*
X454406D01*
X386334D02*
X407416D01*
X312928D02*
X333756D01*
X224282D02*
X248412D01*
X518414Y296164D02*
X542798D01*
X433324D02*
X454406D01*
X386080D02*
X407416D01*
X312928D02*
X333756D01*
X224282D02*
X248666D01*
X518414Y295910D02*
X542798D01*
X433324D02*
X454406D01*
X386080D02*
X407670D01*
X312928D02*
X333756D01*
X224282D02*
X248666D01*
X518414Y295656D02*
X542798D01*
X433324D02*
X454406D01*
X385826D02*
X407670D01*
X312928D02*
X333756D01*
X224282D02*
X248666D01*
X518414Y295402D02*
X542798D01*
X433324D02*
X454406D01*
X385826D02*
X407924D01*
X312928D02*
X333756D01*
X224282D02*
X248666D01*
X518414Y295148D02*
X542798D01*
X433324D02*
X454406D01*
X385826D02*
X407924D01*
X312928D02*
X333756D01*
X224282D02*
X248666D01*
X518160Y294894D02*
X542544D01*
X433324D02*
X454406D01*
X385572D02*
X407924D01*
X312928D02*
X333756D01*
X224282D02*
X248666D01*
X518160Y294640D02*
X542544D01*
X433324D02*
X454406D01*
X385572D02*
X408178D01*
X312928D02*
X333756D01*
X224282D02*
X248666D01*
X518160Y294386D02*
X542544D01*
X433324D02*
X454406D01*
X385572D02*
X408178D01*
X312928D02*
X333756D01*
X224282D02*
X248920D01*
X518160Y294132D02*
X542544D01*
X433324D02*
X454406D01*
X385318D02*
X408178D01*
X312928D02*
X333756D01*
X224536D02*
X248920D01*
X518160Y293878D02*
X542544D01*
X433324D02*
X454406D01*
X385318D02*
X408178D01*
X312928D02*
X333756D01*
X224536D02*
X248920D01*
X518160Y293624D02*
X542544D01*
X433324D02*
X454406D01*
X385318D02*
X408178D01*
X312928D02*
X333756D01*
X224536D02*
X248920D01*
X517906Y293370D02*
X542544D01*
X433324D02*
X454406D01*
X385318D02*
X408432D01*
X312928D02*
X333756D01*
X224536D02*
X248920D01*
X517906Y293116D02*
X542544D01*
X433324D02*
X454406D01*
X385318D02*
X408432D01*
X312928D02*
X333756D01*
X224536D02*
X248920D01*
X517906Y292862D02*
X542290D01*
X433324D02*
X454406D01*
X385318D02*
X408432D01*
X312928D02*
X333756D01*
X224536D02*
X249174D01*
X517906Y292608D02*
X542290D01*
X433324D02*
X454406D01*
X385318D02*
X408432D01*
X312928D02*
X333756D01*
X224536D02*
X249174D01*
X517906Y292354D02*
X542290D01*
X433324D02*
X454406D01*
X385318D02*
X408432D01*
X312928D02*
X333756D01*
X224790D02*
X249174D01*
X517906Y292100D02*
X542290D01*
X433324D02*
X454406D01*
X385318D02*
X408432D01*
X312928D02*
X333756D01*
X224790D02*
X249174D01*
X517652Y291846D02*
X542290D01*
X433324D02*
X454406D01*
X385318D02*
X408432D01*
X312928D02*
X333756D01*
X224790D02*
X249174D01*
X517652Y291592D02*
X542290D01*
X433324D02*
X454406D01*
X385318D02*
X408432D01*
X312928D02*
X333756D01*
X224790D02*
X249174D01*
X517652Y291338D02*
X542290D01*
X433324D02*
X454406D01*
X385318D02*
X408432D01*
X312928D02*
X333756D01*
X224790D02*
X249428D01*
X517652Y291084D02*
X542036D01*
X433324D02*
X454406D01*
X385318D02*
X408432D01*
X312928D02*
X333756D01*
X224790D02*
X249428D01*
X517652Y290830D02*
X542036D01*
X433324D02*
X454406D01*
X385318D02*
X408432D01*
X312928D02*
X333756D01*
X224790D02*
X249428D01*
X517652Y290576D02*
X542036D01*
X433324D02*
X454406D01*
X385318D02*
X408432D01*
X312928D02*
X333756D01*
X225044D02*
X249428D01*
X517398Y290322D02*
X542036D01*
X433324D02*
X454406D01*
X385318D02*
X408432D01*
X312928D02*
X333756D01*
X225044D02*
X249428D01*
X517398Y290068D02*
X542036D01*
X433324D02*
X454406D01*
X385318D02*
X408432D01*
X312928D02*
X333756D01*
X225044D02*
X249682D01*
X517398Y289814D02*
X542036D01*
X433324D02*
X454406D01*
X385318D02*
X408432D01*
X312928D02*
X333756D01*
X225044D02*
X249682D01*
X517398Y289560D02*
X541782D01*
X433324D02*
X454406D01*
X385318D02*
X408432D01*
X312928D02*
X333756D01*
X225044D02*
X249682D01*
X517398Y289306D02*
X541782D01*
X433324D02*
X454406D01*
X385318D02*
X408432D01*
X312928D02*
X333756D01*
X225044D02*
X249682D01*
X517144Y289052D02*
X541782D01*
X433324D02*
X454406D01*
X385318D02*
X408432D01*
X312928D02*
X333756D01*
X225298D02*
X249682D01*
X517144Y288798D02*
X541782D01*
X433324D02*
X454406D01*
X385318D02*
X408432D01*
X312928D02*
X333756D01*
X225298D02*
X249936D01*
X517144Y288544D02*
X541782D01*
X433324D02*
X454406D01*
X385318D02*
X408432D01*
X312928D02*
X333756D01*
X225298D02*
X249936D01*
X517144Y288290D02*
X541782D01*
X433324D02*
X454406D01*
X385318D02*
X408432D01*
X312928D02*
X333756D01*
X225298D02*
X249936D01*
X517144Y288036D02*
X541528D01*
X433324D02*
X454406D01*
X385318D02*
X408432D01*
X312928D02*
X333756D01*
X225298D02*
X249936D01*
X516890Y287782D02*
X541528D01*
X433324D02*
X454406D01*
X385318D02*
X408432D01*
X312928D02*
X333756D01*
X225298D02*
X249936D01*
X516890Y287528D02*
X541528D01*
X433324D02*
X454406D01*
X385318D02*
X408432D01*
X312928D02*
X333756D01*
X225552D02*
X250190D01*
X516890Y287274D02*
X541528D01*
X433324D02*
X454406D01*
X385318D02*
X408432D01*
X312928D02*
X333756D01*
X225552D02*
X250190D01*
X516890Y287020D02*
X541528D01*
X433324D02*
X454406D01*
X385318D02*
X408432D01*
X312928D02*
X333756D01*
X225552D02*
X250190D01*
X516890Y286766D02*
X541528D01*
X433324D02*
X454406D01*
X385318D02*
X408432D01*
X312928D02*
X333756D01*
X225552D02*
X250190D01*
X516636Y286512D02*
X541274D01*
X433324D02*
X454406D01*
X385318D02*
X408432D01*
X312928D02*
X333756D01*
X225552D02*
X250190D01*
X516636Y286258D02*
X541274D01*
X433324D02*
X454406D01*
X385318D02*
X408432D01*
X312928D02*
X333756D01*
X225552D02*
X250444D01*
X516636Y286004D02*
X541274D01*
X433324D02*
X454406D01*
X385318D02*
X408432D01*
X312928D02*
X333756D01*
X225806D02*
X250444D01*
X516636Y285750D02*
X541274D01*
X433324D02*
X454406D01*
X385318D02*
X408432D01*
X312928D02*
X333756D01*
X225806D02*
X250444D01*
X516382Y285496D02*
X541274D01*
X433324D02*
X454406D01*
X385318D02*
X408432D01*
X312928D02*
X333756D01*
X225806D02*
X250444D01*
X516382Y285242D02*
X541020D01*
X433324D02*
X454406D01*
X385318D02*
X408432D01*
X312928D02*
X333756D01*
X225806D02*
X250698D01*
X516382Y284988D02*
X541020D01*
X433324D02*
X454406D01*
X385318D02*
X408432D01*
X312928D02*
X333756D01*
X225806D02*
X250698D01*
X516382Y284734D02*
X541020D01*
X433324D02*
X454406D01*
X385318D02*
X408432D01*
X312928D02*
X333756D01*
X226060D02*
X250698D01*
X516382Y284480D02*
X541020D01*
X433324D02*
X454406D01*
X385318D02*
X408432D01*
X312928D02*
X333756D01*
X226060D02*
X250698D01*
X516128Y284226D02*
X541020D01*
X433324D02*
X454406D01*
X385318D02*
X408432D01*
X312928D02*
X333756D01*
X226060D02*
X250698D01*
X516128Y283972D02*
X541020D01*
X433324D02*
X454406D01*
X385318D02*
X408432D01*
X312928D02*
X333756D01*
X226060D02*
X250952D01*
X516128Y283718D02*
X540766D01*
X433324D02*
X454406D01*
X385318D02*
X408432D01*
X312928D02*
X333756D01*
X226060D02*
X250952D01*
X516128Y283464D02*
X540766D01*
X433324D02*
X454406D01*
X385318D02*
X408432D01*
X312928D02*
X333756D01*
X226314D02*
X250952D01*
X515874Y283210D02*
X540766D01*
X433324D02*
X454406D01*
X385318D02*
X408432D01*
X312928D02*
X333756D01*
X226314D02*
X250952D01*
X515874Y282956D02*
X540766D01*
X433324D02*
X454406D01*
X385318D02*
X408432D01*
X312928D02*
X333756D01*
X226314D02*
X251206D01*
X515874Y282702D02*
X540766D01*
X433324D02*
X454406D01*
X385318D02*
X408432D01*
X312928D02*
X333756D01*
X226314D02*
X251206D01*
X515874Y282448D02*
X540512D01*
X433324D02*
X454406D01*
X385318D02*
X408432D01*
X312928D02*
X333756D01*
X226314D02*
X251206D01*
X515620Y282194D02*
X540512D01*
X433324D02*
X454406D01*
X385318D02*
X408432D01*
X312928D02*
X333756D01*
X226568D02*
X251206D01*
X515620Y281940D02*
X540512D01*
X433324D02*
X454406D01*
X385318D02*
X408432D01*
X312928D02*
X333756D01*
X226568D02*
X251460D01*
X515620Y281686D02*
X540512D01*
X433324D02*
X454406D01*
X385318D02*
X408432D01*
X312928D02*
X333756D01*
X226568D02*
X251460D01*
X515620Y281432D02*
X540258D01*
X433324D02*
X454406D01*
X385318D02*
X408432D01*
X312928D02*
X333756D01*
X226568D02*
X251460D01*
X515366Y281178D02*
X540258D01*
X433324D02*
X454406D01*
X385318D02*
X408432D01*
X312928D02*
X333756D01*
X226568D02*
X251460D01*
X515366Y280924D02*
X540258D01*
X433324D02*
X454406D01*
X385318D02*
X408432D01*
X312928D02*
X333756D01*
X226822D02*
X251714D01*
X515366Y280670D02*
X540258D01*
X433324D02*
X454406D01*
X385318D02*
X408432D01*
X312928D02*
X333756D01*
X226822D02*
X251714D01*
X515366Y280416D02*
X540258D01*
X433324D02*
X454406D01*
X385318D02*
X408432D01*
X312928D02*
X333756D01*
X226822D02*
X251714D01*
X515112Y280162D02*
X540004D01*
X433324D02*
X454406D01*
X385318D02*
X408432D01*
X312928D02*
X333756D01*
X226822D02*
X251714D01*
X515112Y279908D02*
X540004D01*
X433324D02*
X454406D01*
X385318D02*
X408432D01*
X312928D02*
X333756D01*
X227076D02*
X251968D01*
X515112Y279654D02*
X540004D01*
X433324D02*
X454406D01*
X385318D02*
X408432D01*
X312928D02*
X333756D01*
X227076D02*
X251968D01*
X514858Y279400D02*
X540004D01*
X433324D02*
X454406D01*
X385318D02*
X408432D01*
X312928D02*
X333756D01*
X227076D02*
X251968D01*
X514858Y279146D02*
X539750D01*
X433324D02*
X454406D01*
X385318D02*
X408432D01*
X312928D02*
X333756D01*
X227076D02*
X252222D01*
X514858Y278892D02*
X539750D01*
X433324D02*
X454406D01*
X385318D02*
X408432D01*
X312928D02*
X333756D01*
X227076D02*
X252222D01*
X514858Y278638D02*
X539750D01*
X433324D02*
X454406D01*
X385318D02*
X408432D01*
X312928D02*
X333756D01*
X227330D02*
X252222D01*
X514604Y278384D02*
X539750D01*
X433324D02*
X454406D01*
X385318D02*
X408432D01*
X312928D02*
X333756D01*
X227330D02*
X252222D01*
X514604Y278130D02*
X539750D01*
X433324D02*
X454406D01*
X385318D02*
X408432D01*
X312928D02*
X333756D01*
X227330D02*
X252476D01*
X514604Y277876D02*
X539496D01*
X433324D02*
X454406D01*
X385318D02*
X408432D01*
X312928D02*
X333756D01*
X227330D02*
X252476D01*
X514604Y277622D02*
X539496D01*
X433324D02*
X454406D01*
X385318D02*
X408432D01*
X312928D02*
X333756D01*
X227584D02*
X252476D01*
X514350Y277368D02*
X539496D01*
X433324D02*
X454406D01*
X385318D02*
X408432D01*
X312928D02*
X333756D01*
X227584D02*
X252476D01*
X514350Y277114D02*
X539496D01*
X433324D02*
X454406D01*
X385318D02*
X408432D01*
X312928D02*
X333756D01*
X227584D02*
X252730D01*
X514350Y276860D02*
X539242D01*
X433324D02*
X454406D01*
X385318D02*
X408432D01*
X312928D02*
X333756D01*
X227584D02*
X252730D01*
X514096Y276606D02*
X539242D01*
X433324D02*
X454406D01*
X385318D02*
X408432D01*
X312928D02*
X333756D01*
X227838D02*
X252730D01*
X514096Y276352D02*
X539242D01*
X433324D02*
X454406D01*
X385318D02*
X408432D01*
X312928D02*
X333756D01*
X227838D02*
X252984D01*
X514096Y276098D02*
X539242D01*
X433324D02*
X454406D01*
X385318D02*
X408432D01*
X312928D02*
X333756D01*
X227838D02*
X252984D01*
X513842Y275844D02*
X538988D01*
X433324D02*
X454406D01*
X385318D02*
X408432D01*
X312928D02*
X333756D01*
X227838D02*
X252984D01*
X513842Y275590D02*
X538988D01*
X433324D02*
X454406D01*
X385318D02*
X408432D01*
X312928D02*
X333756D01*
X228092D02*
X253238D01*
X513842Y275336D02*
X538988D01*
X433324D02*
X454406D01*
X385318D02*
X408432D01*
X312928D02*
X333756D01*
X228092D02*
X253238D01*
X513842Y275082D02*
X538988D01*
X433324D02*
X454406D01*
X385318D02*
X408432D01*
X312928D02*
X333756D01*
X228092D02*
X253238D01*
X513588Y274828D02*
X538734D01*
X433324D02*
X454406D01*
X385318D02*
X408432D01*
X312928D02*
X333756D01*
X228092D02*
X253238D01*
X513588Y274574D02*
X538734D01*
X433324D02*
X454406D01*
X385318D02*
X408432D01*
X312928D02*
X333756D01*
X228346D02*
X253492D01*
X513588Y274320D02*
X538734D01*
X433324D02*
X454406D01*
X385318D02*
X408432D01*
X312928D02*
X333756D01*
X228346D02*
X253492D01*
X513334Y274066D02*
X538734D01*
X433324D02*
X454406D01*
X385318D02*
X408432D01*
X312928D02*
X333756D01*
X228346D02*
X253492D01*
X513334Y273812D02*
X538480D01*
X433324D02*
X454406D01*
X385318D02*
X408432D01*
X312928D02*
X333756D01*
X228346D02*
X253746D01*
X513334Y273558D02*
X538480D01*
X433324D02*
X454406D01*
X385318D02*
X408432D01*
X312928D02*
X333756D01*
X228600D02*
X253746D01*
X513080Y273304D02*
X538480D01*
X433324D02*
X454406D01*
X385318D02*
X408432D01*
X312928D02*
X333756D01*
X228600D02*
X253746D01*
X513080Y273050D02*
X538226D01*
X433324D02*
X454406D01*
X385318D02*
X408432D01*
X312928D02*
X333756D01*
X228600D02*
X254000D01*
X513080Y272796D02*
X538226D01*
X433324D02*
X454406D01*
X385318D02*
X408432D01*
X312928D02*
X333756D01*
X228854D02*
X254000D01*
X512826Y272542D02*
X538226D01*
X433324D02*
X454406D01*
X385318D02*
X408432D01*
X312928D02*
X333756D01*
X228854D02*
X254000D01*
X512826Y272288D02*
X538226D01*
X433324D02*
X454406D01*
X385318D02*
X408432D01*
X312928D02*
X333756D01*
X228854D02*
X254254D01*
X512826Y272034D02*
X537972D01*
X433324D02*
X454406D01*
X385318D02*
X408432D01*
X312928D02*
X333756D01*
X228854D02*
X254254D01*
X512572Y271780D02*
X537972D01*
X433324D02*
X454406D01*
X385318D02*
X408432D01*
X312928D02*
X333756D01*
X229108D02*
X254254D01*
X512572Y271526D02*
X537972D01*
X433324D02*
X454406D01*
X385318D02*
X408432D01*
X312928D02*
X333756D01*
X229108D02*
X254508D01*
X512572Y271272D02*
X537972D01*
X433324D02*
X454406D01*
X385318D02*
X408432D01*
X312928D02*
X333756D01*
X229108D02*
X254508D01*
X512318Y271018D02*
X537718D01*
X433324D02*
X454406D01*
X385318D02*
X408432D01*
X312928D02*
X333756D01*
X229108D02*
X254508D01*
X512318Y270764D02*
X537718D01*
X433324D02*
X454406D01*
X385318D02*
X408432D01*
X312928D02*
X333756D01*
X229362D02*
X254762D01*
X512318Y270510D02*
X537718D01*
X433324D02*
X454406D01*
X385318D02*
X408432D01*
X312928D02*
X333756D01*
X229362D02*
X254762D01*
X512064Y270256D02*
X537464D01*
X433324D02*
X454406D01*
X385318D02*
X408432D01*
X312928D02*
X333756D01*
X229362D02*
X254762D01*
X512064Y270002D02*
X537464D01*
X433324D02*
X454406D01*
X385318D02*
X408432D01*
X312928D02*
X333756D01*
X229616D02*
X255016D01*
X512064Y269748D02*
X537464D01*
X433324D02*
X454406D01*
X385318D02*
X408432D01*
X312928D02*
X333756D01*
X229616D02*
X255016D01*
X511810Y269494D02*
X537210D01*
X433324D02*
X454406D01*
X385318D02*
X408432D01*
X312928D02*
X333756D01*
X229616D02*
X255270D01*
X511810Y269240D02*
X537210D01*
X433324D02*
X454406D01*
X385318D02*
X408432D01*
X312928D02*
X333756D01*
X229870D02*
X255270D01*
X511556Y268986D02*
X537210D01*
X433324D02*
X454406D01*
X385318D02*
X408432D01*
X312928D02*
X333756D01*
X229870D02*
X255270D01*
X511556Y268732D02*
X537210D01*
X433324D02*
X454406D01*
X385318D02*
X408432D01*
X312928D02*
X333756D01*
X229870D02*
X255524D01*
X511556Y268478D02*
X536956D01*
X433324D02*
X454406D01*
X385318D02*
X408432D01*
X312928D02*
X333756D01*
X229870D02*
X255524D01*
X511302Y268224D02*
X536956D01*
X433324D02*
X454406D01*
X385318D02*
X408432D01*
X312928D02*
X333756D01*
X230124D02*
X255524D01*
X511302Y267970D02*
X536956D01*
X433324D02*
X454406D01*
X385318D02*
X408432D01*
X312928D02*
X333756D01*
X230124D02*
X255778D01*
X511302Y267716D02*
X536702D01*
X433324D02*
X454406D01*
X385318D02*
X408432D01*
X312928D02*
X333756D01*
X230124D02*
X255778D01*
X511048Y267462D02*
X536702D01*
X433324D02*
X454406D01*
X385318D02*
X408432D01*
X312928D02*
X333756D01*
X230378D02*
X255778D01*
X511048Y267208D02*
X536702D01*
X433324D02*
X454406D01*
X385318D02*
X408432D01*
X312928D02*
X333756D01*
X230378D02*
X256032D01*
X510794Y266954D02*
X536448D01*
X433324D02*
X454406D01*
X385318D02*
X408432D01*
X312928D02*
X333756D01*
X230378D02*
X256032D01*
X510794Y266700D02*
X536448D01*
X433324D02*
X454406D01*
X385318D02*
X408432D01*
X312928D02*
X333756D01*
X230632D02*
X256286D01*
X510794Y266446D02*
X536448D01*
X433324D02*
X454406D01*
X385318D02*
X408432D01*
X312928D02*
X333756D01*
X230632D02*
X256286D01*
X510540Y266192D02*
X536194D01*
X433324D02*
X454406D01*
X385318D02*
X408432D01*
X312928D02*
X333756D01*
X230632D02*
X256286D01*
X510540Y265938D02*
X536194D01*
X433324D02*
X454406D01*
X385318D02*
X408432D01*
X312928D02*
X333756D01*
X230886D02*
X256540D01*
X510540Y265684D02*
X536194D01*
X433324D02*
X454406D01*
X385318D02*
X408432D01*
X312928D02*
X333756D01*
X230886D02*
X256540D01*
X510286Y265430D02*
X535940D01*
X433324D02*
X454406D01*
X385318D02*
X408432D01*
X312928D02*
X333756D01*
X230886D02*
X256540D01*
X510286Y265176D02*
X535940D01*
X433324D02*
X454406D01*
X385318D02*
X408432D01*
X312928D02*
X333756D01*
X231140D02*
X256794D01*
X510032Y264922D02*
X535940D01*
X433324D02*
X454406D01*
X385318D02*
X408432D01*
X312928D02*
X333756D01*
X231140D02*
X256794D01*
X510032Y264668D02*
X535686D01*
X433324D02*
X454406D01*
X385318D02*
X408432D01*
X312928D02*
X333756D01*
X231140D02*
X257048D01*
X510032Y264414D02*
X535686D01*
X433324D02*
X454406D01*
X385318D02*
X408432D01*
X312928D02*
X333756D01*
X231394D02*
X257048D01*
X509778Y264160D02*
X535686D01*
X433324D02*
X454406D01*
X385318D02*
X408432D01*
X312928D02*
X333756D01*
X231394D02*
X257302D01*
X509778Y263906D02*
X535686D01*
X433324D02*
X454406D01*
X385318D02*
X408432D01*
X312928D02*
X333756D01*
X231394D02*
X257302D01*
X509524Y263652D02*
X535432D01*
X433324D02*
X454406D01*
X385318D02*
X408432D01*
X312928D02*
X333756D01*
X231648D02*
X257302D01*
X509524Y263398D02*
X535432D01*
X433324D02*
X454406D01*
X385318D02*
X408432D01*
X312928D02*
X333756D01*
X231648D02*
X257556D01*
X509524Y263144D02*
X535178D01*
X433324D02*
X454406D01*
X385318D02*
X408432D01*
X312928D02*
X333756D01*
X231648D02*
X257556D01*
X509270Y262890D02*
X535178D01*
X433324D02*
X454406D01*
X385318D02*
X408432D01*
X312928D02*
X333756D01*
X231902D02*
X257810D01*
X509270Y262636D02*
X535178D01*
X433324D02*
X454406D01*
X385318D02*
X408432D01*
X312928D02*
X333756D01*
X231902D02*
X257810D01*
X509016Y262382D02*
X534924D01*
X433324D02*
X454406D01*
X385318D02*
X408432D01*
X312928D02*
X333756D01*
X231902D02*
X257810D01*
X509016Y262128D02*
X534924D01*
X433324D02*
X454406D01*
X385318D02*
X408432D01*
X312928D02*
X333756D01*
X232156D02*
X258064D01*
X508762Y261874D02*
X534924D01*
X433324D02*
X454406D01*
X385318D02*
X408432D01*
X312928D02*
X333756D01*
X232156D02*
X258064D01*
X508762Y261620D02*
X534670D01*
X433324D02*
X454406D01*
X385318D02*
X408432D01*
X312928D02*
X333756D01*
X232156D02*
X258318D01*
X508762Y261366D02*
X534670D01*
X433324D02*
X454406D01*
X385318D02*
X408432D01*
X312928D02*
X333756D01*
X232410D02*
X258318D01*
X508508Y261112D02*
X534670D01*
X433324D02*
X454406D01*
X385318D02*
X408432D01*
X312928D02*
X333756D01*
X232410D02*
X258572D01*
X508508Y260858D02*
X534416D01*
X433324D02*
X454406D01*
X385318D02*
X408432D01*
X312928D02*
X333756D01*
X232410D02*
X258572D01*
X508254Y260604D02*
X534416D01*
X433324D02*
X454406D01*
X385318D02*
X408432D01*
X312928D02*
X333756D01*
X232664D02*
X258572D01*
X508254Y260350D02*
X534416D01*
X433324D02*
X454406D01*
X385318D02*
X408432D01*
X312928D02*
X333756D01*
X232664D02*
X258826D01*
X508000Y260096D02*
X534162D01*
X433324D02*
X454406D01*
X385318D02*
X408432D01*
X312928D02*
X333756D01*
X232664D02*
X258826D01*
X508000Y259842D02*
X534162D01*
X433324D02*
X454406D01*
X385318D02*
X408432D01*
X312928D02*
X333756D01*
X232918D02*
X259080D01*
X508000Y259588D02*
X533908D01*
X433324D02*
X454406D01*
X385318D02*
X408432D01*
X312928D02*
X333756D01*
X232918D02*
X259080D01*
X507746Y259334D02*
X533908D01*
X433324D02*
X454406D01*
X385318D02*
X408432D01*
X312928D02*
X333756D01*
X233172D02*
X259334D01*
X507746Y259080D02*
X533908D01*
X433324D02*
X454406D01*
X385318D02*
X408432D01*
X312928D02*
X333756D01*
X233172D02*
X259334D01*
X507492Y258826D02*
X533654D01*
X433324D02*
X454406D01*
X385318D02*
X408432D01*
X312928D02*
X333756D01*
X233172D02*
X259588D01*
X507492Y258572D02*
X533654D01*
X433324D02*
X454406D01*
X385318D02*
X408432D01*
X312928D02*
X333756D01*
X233426D02*
X259588D01*
X507238Y258318D02*
X533654D01*
X433324D02*
X454406D01*
X385318D02*
X408432D01*
X312928D02*
X333756D01*
X233426D02*
X259588D01*
X507238Y258064D02*
X533400D01*
X433324D02*
X454406D01*
X385318D02*
X408432D01*
X312928D02*
X333756D01*
X233680D02*
X259842D01*
X506984Y257810D02*
X533400D01*
X433324D02*
X454406D01*
X385318D02*
X408432D01*
X312928D02*
X333756D01*
X233680D02*
X259842D01*
X506984Y257556D02*
X533146D01*
X433324D02*
X454406D01*
X385318D02*
X408432D01*
X312928D02*
X333756D01*
X233680D02*
X260096D01*
X506730Y257302D02*
X533146D01*
X433324D02*
X454406D01*
X385318D02*
X408432D01*
X312928D02*
X333756D01*
X233934D02*
X260096D01*
X506730Y257048D02*
X533146D01*
X433324D02*
X454406D01*
X385318D02*
X408432D01*
X312928D02*
X333756D01*
X233934D02*
X260350D01*
X506476Y256794D02*
X532892D01*
X433324D02*
X454406D01*
X385318D02*
X408432D01*
X312928D02*
X333756D01*
X233934D02*
X260350D01*
X506476Y256540D02*
X532892D01*
X433324D02*
X454406D01*
X385318D02*
X408432D01*
X312928D02*
X333756D01*
X234188D02*
X260604D01*
X506222Y256286D02*
X532892D01*
X433324D02*
X454406D01*
X385318D02*
X408432D01*
X312928D02*
X333756D01*
X234188D02*
X260604D01*
X506222Y256032D02*
X532638D01*
X433324D02*
X454406D01*
X385318D02*
X408432D01*
X312928D02*
X333756D01*
X234442D02*
X260858D01*
X505968Y255778D02*
X532638D01*
X433324D02*
X454406D01*
X385318D02*
X408432D01*
X312928D02*
X333756D01*
X234442D02*
X260858D01*
X505968Y255524D02*
X532384D01*
X433324D02*
X454406D01*
X385318D02*
X408432D01*
X312928D02*
X333756D01*
X234442D02*
X261112D01*
X505714Y255270D02*
X532384D01*
X433324D02*
X454406D01*
X385318D02*
X408432D01*
X312928D02*
X333756D01*
X234696D02*
X261112D01*
X505714Y255016D02*
X532130D01*
X433324D02*
X454406D01*
X385318D02*
X408432D01*
X312928D02*
X333756D01*
X234696D02*
X261366D01*
X505460Y254762D02*
X532130D01*
X433324D02*
X454406D01*
X385318D02*
X408432D01*
X312928D02*
X333756D01*
X234950D02*
X261366D01*
X505460Y254508D02*
X532130D01*
X433324D02*
X454406D01*
X385318D02*
X408432D01*
X312928D02*
X333756D01*
X234950D02*
X261620D01*
X505206Y254254D02*
X531876D01*
X433324D02*
X454406D01*
X385318D02*
X408432D01*
X312928D02*
X333756D01*
X234950D02*
X261620D01*
X505206Y254000D02*
X531876D01*
X433324D02*
X454406D01*
X385318D02*
X408432D01*
X312928D02*
X333756D01*
X235204D02*
X261874D01*
X504952Y253746D02*
X531622D01*
X433324D02*
X454406D01*
X385318D02*
X408432D01*
X312928D02*
X333756D01*
X235204D02*
X261874D01*
X504952Y253492D02*
X531622D01*
X433324D02*
X454406D01*
X385318D02*
X408432D01*
X312928D02*
X333756D01*
X235458D02*
X262128D01*
X504952Y253238D02*
X531622D01*
X433324D02*
X454406D01*
X385318D02*
X408432D01*
X312928D02*
X333756D01*
X235458D02*
X262128D01*
X504698Y252984D02*
X531368D01*
X433324D02*
X454406D01*
X385318D02*
X408432D01*
X312928D02*
X333756D01*
X235712D02*
X262382D01*
X504444Y252730D02*
X531368D01*
X433324D02*
X454406D01*
X385318D02*
X408432D01*
X312928D02*
X333756D01*
X235712D02*
X262382D01*
X504444Y252476D02*
X531114D01*
X433324D02*
X454406D01*
X385318D02*
X408432D01*
X312928D02*
X333756D01*
X235712D02*
X262636D01*
X504190Y252222D02*
X531114D01*
X433324D02*
X454406D01*
X385318D02*
X408432D01*
X312928D02*
X333756D01*
X235966D02*
X262636D01*
X504190Y251968D02*
X530860D01*
X433324D02*
X454406D01*
X385318D02*
X408432D01*
X312928D02*
X333756D01*
X235966D02*
X262890D01*
X503936Y251714D02*
X530860D01*
X433324D02*
X454406D01*
X385318D02*
X408432D01*
X312928D02*
X333756D01*
X236220D02*
X262890D01*
X503936Y251460D02*
X530860D01*
X433324D02*
X454406D01*
X385318D02*
X408432D01*
X312928D02*
X333756D01*
X236220D02*
X263144D01*
X503682Y251206D02*
X530606D01*
X433324D02*
X454406D01*
X385318D02*
X408432D01*
X312928D02*
X333756D01*
X236474D02*
X263144D01*
X503682Y250952D02*
X530606D01*
X433324D02*
X454406D01*
X385318D02*
X408432D01*
X312928D02*
X333756D01*
X236474D02*
X263398D01*
X503428Y250698D02*
X530352D01*
X433324D02*
X454406D01*
X385318D02*
X408432D01*
X312928D02*
X333756D01*
X236474D02*
X263398D01*
X503428Y250444D02*
X530352D01*
X433324D02*
X454406D01*
X385318D02*
X408432D01*
X312928D02*
X333756D01*
X236728D02*
X263652D01*
X503174Y250190D02*
X530098D01*
X433324D02*
X454406D01*
X385318D02*
X408432D01*
X312928D02*
X333756D01*
X236728D02*
X263906D01*
X503174Y249936D02*
X530098D01*
X433324D02*
X454406D01*
X385318D02*
X408432D01*
X312928D02*
X333756D01*
X236982D02*
X263906D01*
X502920Y249682D02*
X530098D01*
X433324D02*
X454406D01*
X385318D02*
X408432D01*
X312928D02*
X333756D01*
X236982D02*
X264160D01*
X502666Y249428D02*
X529844D01*
X433324D02*
X454406D01*
X385318D02*
X408432D01*
X312928D02*
X333756D01*
X237236D02*
X264160D01*
X502666Y249174D02*
X529844D01*
X433324D02*
X454406D01*
X385318D02*
X408432D01*
X312928D02*
X333756D01*
X237236D02*
X264414D01*
X502412Y248920D02*
X529590D01*
X433324D02*
X454406D01*
X385318D02*
X408432D01*
X312928D02*
X333756D01*
X237490D02*
X264414D01*
X502412Y248666D02*
X529590D01*
X433324D02*
X454406D01*
X385318D02*
X408432D01*
X312928D02*
X333756D01*
X237490D02*
X264668D01*
X502158Y248412D02*
X529336D01*
X433324D02*
X454406D01*
X385318D02*
X408432D01*
X312928D02*
X333756D01*
X237490D02*
X264668D01*
X502158Y248158D02*
X529336D01*
X433324D02*
X454406D01*
X385318D02*
X408432D01*
X312928D02*
X333756D01*
X237744D02*
X264922D01*
X501904Y247904D02*
X529082D01*
X433324D02*
X454406D01*
X385318D02*
X408432D01*
X312928D02*
X333756D01*
X237744D02*
X265176D01*
X501904Y247650D02*
X529082D01*
X433324D02*
X454406D01*
X385318D02*
X408432D01*
X312928D02*
X333756D01*
X237998D02*
X265176D01*
X501650Y247396D02*
X528828D01*
X433324D02*
X454406D01*
X385318D02*
X408432D01*
X312928D02*
X333756D01*
X237998D02*
X265430D01*
X501396Y247142D02*
X528828D01*
X433324D02*
X454406D01*
X385318D02*
X408432D01*
X312928D02*
X333756D01*
X238252D02*
X265430D01*
X501396Y246888D02*
X528574D01*
X433324D02*
X454406D01*
X385318D02*
X408432D01*
X312928D02*
X333756D01*
X238252D02*
X265684D01*
X501142Y246634D02*
X528574D01*
X433324D02*
X454406D01*
X385318D02*
X408432D01*
X312928D02*
X333756D01*
X238506D02*
X265938D01*
X501142Y246380D02*
X528574D01*
X433324D02*
X454406D01*
X385318D02*
X408178D01*
X312928D02*
X333756D01*
X238506D02*
X265938D01*
X500888Y246126D02*
X528320D01*
X433324D02*
X454406D01*
X385318D02*
X408178D01*
X312928D02*
X333756D01*
X238760D02*
X266192D01*
X500634Y245872D02*
X528320D01*
X433324D02*
X454406D01*
X385572D02*
X408178D01*
X312928D02*
X333756D01*
X238760D02*
X266192D01*
X500634Y245618D02*
X528066D01*
X433324D02*
X454406D01*
X385572D02*
X408178D01*
X312928D02*
X333756D01*
X239014D02*
X266446D01*
X500380Y245364D02*
X528066D01*
X433324D02*
X454406D01*
X385572D02*
X408178D01*
X312928D02*
X333756D01*
X239014D02*
X266446D01*
X500380Y245110D02*
X527812D01*
X433324D02*
X454406D01*
X385572D02*
X407924D01*
X312928D02*
X333756D01*
X239268D02*
X266700D01*
X500126Y244856D02*
X527812D01*
X433324D02*
X454406D01*
X385826D02*
X407924D01*
X312928D02*
X333756D01*
X239268D02*
X266954D01*
X499872Y244602D02*
X527558D01*
X433324D02*
X454406D01*
X385826D02*
X407670D01*
X312928D02*
X333756D01*
X239522D02*
X266954D01*
X499872Y244348D02*
X527558D01*
X433324D02*
X454406D01*
X386080D02*
X407670D01*
X312928D02*
X333756D01*
X239522D02*
X267208D01*
X499618Y244094D02*
X527304D01*
X433324D02*
X454406D01*
X386080D02*
X407416D01*
X312928D02*
X333756D01*
X239776D02*
X267462D01*
X499618Y243840D02*
X527304D01*
X433324D02*
X454406D01*
X386334D02*
X407416D01*
X312928D02*
X333756D01*
X239776D02*
X267462D01*
X499364Y243586D02*
X527050D01*
X433324D02*
X454406D01*
X386334D02*
X407162D01*
X312928D02*
X333756D01*
X240030D02*
X267716D01*
X499110Y243332D02*
X527050D01*
X433324D02*
X454406D01*
X386588D02*
X407162D01*
X312928D02*
X333756D01*
X240030D02*
X267716D01*
X499110Y243078D02*
X526796D01*
X433324D02*
X454406D01*
X386842D02*
X406908D01*
X312928D02*
X333756D01*
X240284D02*
X267970D01*
X498856Y242824D02*
X526796D01*
X433324D02*
X454406D01*
X387096D02*
X406654D01*
X312928D02*
X333756D01*
X240284D02*
X268224D01*
X498602Y242570D02*
X526542D01*
X433324D02*
X454406D01*
X387350D02*
X406400D01*
X312928D02*
X333756D01*
X240538D02*
X268224D01*
X498602Y242316D02*
X526542D01*
X433324D02*
X454406D01*
X387604D02*
X406146D01*
X312928D02*
X333756D01*
X240538D02*
X268478D01*
X498348Y242062D02*
X526288D01*
X433324D02*
X454406D01*
X387858D02*
X405892D01*
X312928D02*
X333756D01*
X240792D02*
X268732D01*
X498348Y241808D02*
X526288D01*
X433324D02*
X454406D01*
X388112D02*
X405638D01*
X312928D02*
X333756D01*
X240792D02*
X268732D01*
X498094Y241554D02*
X526034D01*
X433324D02*
X454406D01*
X388366D02*
X405130D01*
X312928D02*
X333756D01*
X241046D02*
X268986D01*
X497840Y241300D02*
X526034D01*
X433324D02*
X454406D01*
X388874D02*
X404876D01*
X312928D02*
X333756D01*
X241046D02*
X268986D01*
X497840Y241046D02*
X525780D01*
X433324D02*
X454406D01*
X389382D02*
X404368D01*
X312928D02*
X333756D01*
X241300D02*
X269240D01*
X497586Y240792D02*
X525780D01*
X433324D02*
X454152D01*
X390144D02*
X403606D01*
X312928D02*
X334010D01*
X241300D02*
X269494D01*
X497332Y240538D02*
X525526D01*
X433324D02*
X454152D01*
X391160D02*
X402590D01*
X312928D02*
X334010D01*
X241554D02*
X269494D01*
X497332Y240284D02*
X525272D01*
X433070D02*
X454152D01*
X312928D02*
X334010D01*
X241554D02*
X269748D01*
X497078Y240030D02*
X525272D01*
X433070D02*
X454152D01*
X312928D02*
X334010D01*
X241808D02*
X270002D01*
X496824Y239776D02*
X525018D01*
X433070D02*
X454152D01*
X312928D02*
X334010D01*
X241808D02*
X270002D01*
X496824Y239522D02*
X525018D01*
X433070D02*
X454152D01*
X312928D02*
X334010D01*
X242062D02*
X270256D01*
X496570Y239268D02*
X524764D01*
X433070D02*
X454152D01*
X312928D02*
X334264D01*
X242062D02*
X270510D01*
X496316Y239014D02*
X524764D01*
X432816D02*
X454152D01*
X312928D02*
X334264D01*
X242316D02*
X270510D01*
X496316Y238760D02*
X524510D01*
X432816D02*
X454152D01*
X312928D02*
X334264D01*
X242316D02*
X270764D01*
X496062Y238506D02*
X524510D01*
X432816D02*
X454152D01*
X313182D02*
X334518D01*
X242570D02*
X271018D01*
X495808Y238252D02*
X524256D01*
X432562D02*
X454152D01*
X313182D02*
X334518D01*
X242824D02*
X271018D01*
X495808Y237998D02*
X524256D01*
X432562D02*
X454152D01*
X313182D02*
X334518D01*
X242824D02*
X271272D01*
X495554Y237744D02*
X524002D01*
X432562D02*
X453898D01*
X313182D02*
X334772D01*
X243078D02*
X271526D01*
X495300Y237490D02*
X523748D01*
X432308D02*
X453898D01*
X313182D02*
X334772D01*
X243078D02*
X271780D01*
X495046Y237236D02*
X523748D01*
X432054D02*
X453898D01*
X313182D02*
X335026D01*
X243332D02*
X271780D01*
X495046Y236982D02*
X523494D01*
X432054D02*
X453898D01*
X313182D02*
X335026D01*
X243332D02*
X272034D01*
X494792Y236728D02*
X523494D01*
X431800D02*
X453898D01*
X313182D02*
X335280D01*
X243586D02*
X272288D01*
X494538Y236474D02*
X523240D01*
X431800D02*
X453898D01*
X313436D02*
X335534D01*
X243586D02*
X272288D01*
X494538Y236220D02*
X523240D01*
X431546D02*
X453644D01*
X313436D02*
X335534D01*
X243840D02*
X272542D01*
X494284Y235966D02*
X522986D01*
X431292D02*
X453644D01*
X313436D02*
X335788D01*
X244094D02*
X272796D01*
X494030Y235712D02*
X522986D01*
X431038D02*
X453644D01*
X313436D02*
X336042D01*
X244094D02*
X273050D01*
X493776Y235458D02*
X522732D01*
X430784D02*
X453644D01*
X313436D02*
X336296D01*
X244348D02*
X273050D01*
X493776Y235204D02*
X522478D01*
X430530D02*
X453644D01*
X313690D02*
X336550D01*
X244348D02*
X273304D01*
X493522Y234950D02*
X522478D01*
X430276D02*
X453390D01*
X313690D02*
X336804D01*
X244602D02*
X273558D01*
X493268Y234696D02*
X522224D01*
X430022D02*
X453390D01*
X313690D02*
X337312D01*
X244602D02*
X273558D01*
X493268Y234442D02*
X522224D01*
X429514D02*
X453390D01*
X313690D02*
X337566D01*
X244856D02*
X273812D01*
X493014Y234188D02*
X521970D01*
X429260D02*
X453390D01*
X313944D02*
X338074D01*
X245110D02*
X274066D01*
X492760Y233934D02*
X521716D01*
X428752D02*
X453136D01*
X313944D02*
X338582D01*
X245110D02*
X274320D01*
X492506Y233680D02*
X521716D01*
X428244D02*
X453136D01*
X313944D02*
X339090D01*
X245364D02*
X274320D01*
X492506Y233426D02*
X521462D01*
X427482D02*
X453136D01*
X314198D02*
X339598D01*
X245364D02*
X274574D01*
X492252Y233172D02*
X521462D01*
X426974D02*
X452882D01*
X314198D02*
X340360D01*
X245618D02*
X274828D01*
X491998Y232918D02*
X521208D01*
X425958D02*
X452882D01*
X314198D02*
X341122D01*
X245872D02*
X275082D01*
X491744Y232664D02*
X521208D01*
X424942D02*
X452882D01*
X314198D02*
X342138D01*
X245872D02*
X275082D01*
X491744Y232410D02*
X520954D01*
X423418D02*
X452628D01*
X314452D02*
X343662D01*
X246126D02*
X275336D01*
X491490Y232156D02*
X520700D01*
X314452D02*
X452628D01*
X246126D02*
X275590D01*
X491236Y231902D02*
X520700D01*
X314706D02*
X452628D01*
X246380D02*
X275844D01*
X490982Y231648D02*
X520446D01*
X314706D02*
X452374D01*
X246634D02*
X276098D01*
X490728Y231394D02*
X520192D01*
X314706D02*
X452374D01*
X246634D02*
X276098D01*
X490728Y231140D02*
X520192D01*
X314960D02*
X452374D01*
X246888D02*
X276352D01*
X490474Y230886D02*
X519938D01*
X314960D02*
X452120D01*
X246888D02*
X276606D01*
X490220Y230632D02*
X519938D01*
X315214D02*
X452120D01*
X247142D02*
X276860D01*
X489966Y230378D02*
X519684D01*
X315214D02*
X451866D01*
X247396D02*
X276860D01*
X489712Y230124D02*
X519430D01*
X315214D02*
X451866D01*
X247396D02*
X277114D01*
X489712Y229870D02*
X519430D01*
X315468D02*
X451612D01*
X247650D02*
X277368D01*
X489458Y229616D02*
X519176D01*
X315468D02*
X451612D01*
X247904D02*
X277622D01*
X489204Y229362D02*
X518922D01*
X315722D02*
X451358D01*
X247904D02*
X277876D01*
X488950Y229108D02*
X518922D01*
X315722D02*
X451358D01*
X248158D02*
X277876D01*
X488696Y228854D02*
X518668D01*
X315976D02*
X451104D01*
X248158D02*
X278130D01*
X488696Y228600D02*
X518668D01*
X316230D02*
X451104D01*
X248412D02*
X278384D01*
X488442Y228346D02*
X518414D01*
X316230D02*
X450850D01*
X248666D02*
X278638D01*
X488188Y228092D02*
X518160D01*
X316484D02*
X450850D01*
X248666D02*
X278892D01*
X487934Y227838D02*
X518160D01*
X316484D02*
X450596D01*
X248920D02*
X279146D01*
X487680Y227584D02*
X517906D01*
X316738D02*
X450342D01*
X249174D02*
X279146D01*
X487426Y227330D02*
X517652D01*
X316992D02*
X450342D01*
X249174D02*
X279400D01*
X487426Y227076D02*
X517652D01*
X316992D02*
X450088D01*
X249428D02*
X279654D01*
X487172Y226822D02*
X517398D01*
X317246D02*
X449834D01*
X249682D02*
X279908D01*
X486918Y226568D02*
X517144D01*
X317500D02*
X449580D01*
X249682D02*
X280162D01*
X486664Y226314D02*
X517144D01*
X317754D02*
X449580D01*
X249936D02*
X280416D01*
X486410Y226060D02*
X516890D01*
X317754D02*
X449326D01*
X250190D02*
X280670D01*
X486156Y225806D02*
X516636D01*
X318008D02*
X449072D01*
X250190D02*
X280670D01*
X485902Y225552D02*
X516636D01*
X318262D02*
X448818D01*
X250444D02*
X280924D01*
X485648Y225298D02*
X516382D01*
X318516D02*
X448564D01*
X250698D02*
X281178D01*
X485648Y225044D02*
X516128D01*
X318770D02*
X448310D01*
X250698D02*
X281432D01*
X485394Y224790D02*
X516128D01*
X319024D02*
X448056D01*
X250952D02*
X281686D01*
X485140Y224536D02*
X515874D01*
X319278D02*
X447802D01*
X251206D02*
X281940D01*
X484886Y224282D02*
X515620D01*
X319532D02*
X447802D01*
X251206D02*
X282194D01*
X484632Y224028D02*
X515620D01*
X319786D02*
X447548D01*
X251460D02*
X282448D01*
X484378Y223774D02*
X515366D01*
X320040D02*
X447040D01*
X251714D02*
X282702D01*
X484124Y223520D02*
X515112D01*
X320294D02*
X446786D01*
X251968D02*
X282702D01*
X483870Y223266D02*
X514858D01*
X320548D02*
X446532D01*
X251968D02*
X282956D01*
X483616Y223012D02*
X514858D01*
X320802D02*
X446278D01*
X252222D02*
X283210D01*
X483362Y222758D02*
X514604D01*
X321310D02*
X446024D01*
X252476D02*
X283464D01*
X483362Y222504D02*
X514350D01*
X321564D02*
X445516D01*
X252476D02*
X283718D01*
X483108Y222250D02*
X514350D01*
X321818D02*
X445262D01*
X252730D02*
X283972D01*
X482854Y221996D02*
X514096D01*
X322072D02*
X445008D01*
X252984D02*
X284226D01*
X482600Y221742D02*
X513842D01*
X322580D02*
X444500D01*
X253238D02*
X284480D01*
X482346Y221488D02*
X513588D01*
X322834D02*
X444246D01*
X253238D02*
X284734D01*
X482092Y221234D02*
X513588D01*
X323342D02*
X443738D01*
X253492D02*
X284988D01*
X481838Y220980D02*
X513334D01*
X323850D02*
X443484D01*
X253746D02*
X285242D01*
X481584Y220726D02*
X513080D01*
X324104D02*
X442976D01*
X253746D02*
X285496D01*
X481330Y220472D02*
X513080D01*
X324612D02*
X442468D01*
X254000D02*
X285750D01*
X481076Y220218D02*
X512826D01*
X325120D02*
X441960D01*
X254254D02*
X286004D01*
X480822Y219964D02*
X512572D01*
X325628D02*
X441452D01*
X254508D02*
X286258D01*
X480568Y219710D02*
X512318D01*
X326136D02*
X440944D01*
X254508D02*
X286512D01*
X480314Y219456D02*
X512318D01*
X326644D02*
X440436D01*
X254762D02*
X286766D01*
X480060Y219202D02*
X512064D01*
X327152D02*
X439928D01*
X255016D02*
X287020D01*
X479806Y218948D02*
X511810D01*
X327914D02*
X439420D01*
X255270D02*
X287274D01*
X479552Y218694D02*
X511556D01*
X328422D02*
X438658D01*
X255270D02*
X287528D01*
X479298Y218440D02*
X511556D01*
X329184D02*
X437896D01*
X255524D02*
X287782D01*
X479044Y218186D02*
X511302D01*
X329692D02*
X437388D01*
X255778D02*
X288036D01*
X478790Y217932D02*
X511048D01*
X330708D02*
X436626D01*
X256032D02*
X288290D01*
X478536Y217678D02*
X510794D01*
X331470D02*
X435610D01*
X256032D02*
X288544D01*
X478282Y217424D02*
X510794D01*
X332232D02*
X434848D01*
X256286D02*
X288798D01*
X478028Y217170D02*
X510540D01*
X333248D02*
X433832D01*
X256540D02*
X289052D01*
X477774Y216916D02*
X510286D01*
X334518D02*
X432562D01*
X256794D02*
X289306D01*
X477520Y216662D02*
X510032D01*
X335788D02*
X431292D01*
X257048D02*
X289560D01*
X477266Y216408D02*
X509778D01*
X337312D02*
X429768D01*
X257048D02*
X289814D01*
X477012Y216154D02*
X509778D01*
X339344D02*
X427736D01*
X257302D02*
X290068D01*
X476758Y215900D02*
X509524D01*
X342392D02*
X424942D01*
X257556D02*
X290322D01*
X476504Y215646D02*
X509270D01*
X257810D02*
X290576D01*
X475996Y215392D02*
X509016D01*
X257810D02*
X290830D01*
X475742Y215138D02*
X508762D01*
X258064D02*
X291084D01*
X475488Y214884D02*
X508762D01*
X258318D02*
X291338D01*
X475234Y214630D02*
X508508D01*
X258572D02*
X291592D01*
X474980Y214376D02*
X508254D01*
X258826D02*
X292100D01*
X474726Y214122D02*
X508000D01*
X258826D02*
X292354D01*
X474472Y213868D02*
X507746D01*
X259080D02*
X292608D01*
X474218Y213614D02*
X507746D01*
X259334D02*
X292862D01*
X473964Y213360D02*
X507492D01*
X259588D02*
X293116D01*
X473710Y213106D02*
X507238D01*
X259842D02*
X293370D01*
X473202Y212852D02*
X506984D01*
X260096D02*
X293624D01*
X472948Y212598D02*
X506730D01*
X260096D02*
X293878D01*
X472694Y212344D02*
X506476D01*
X260350D02*
X294386D01*
X472440Y212090D02*
X506476D01*
X260604D02*
X294640D01*
X472186Y211836D02*
X506222D01*
X260858D02*
X294894D01*
X471932Y211582D02*
X505968D01*
X261112D02*
X295148D01*
X471424Y211328D02*
X505714D01*
X261366D02*
X295402D01*
X471170Y211074D02*
X505460D01*
X261366D02*
X295656D01*
X470916Y210820D02*
X505206D01*
X261620D02*
X296164D01*
X470662Y210566D02*
X505206D01*
X261874D02*
X296418D01*
X470408Y210312D02*
X504952D01*
X262128D02*
X296672D01*
X469900Y210058D02*
X504698D01*
X262382D02*
X296926D01*
X469646Y209804D02*
X504444D01*
X262636D02*
X297180D01*
X469392Y209550D02*
X504190D01*
X262890D02*
X297688D01*
X469138Y209296D02*
X503936D01*
X263144D02*
X297942D01*
X468884Y209042D02*
X503682D01*
X263144D02*
X298196D01*
X468376Y208788D02*
X503428D01*
X263398D02*
X298450D01*
X468122Y208534D02*
X503174D01*
X263652D02*
X298958D01*
X467868Y208280D02*
X503174D01*
X263906D02*
X299212D01*
X467614Y208026D02*
X502920D01*
X264160D02*
X299466D01*
X467106Y207772D02*
X502666D01*
X264414D02*
X299720D01*
X466852Y207518D02*
X502412D01*
X264668D02*
X300228D01*
X466598Y207264D02*
X502158D01*
X264922D02*
X300482D01*
X466090Y207010D02*
X501904D01*
X265176D02*
X300736D01*
X465836Y206756D02*
X501650D01*
X265430D02*
X301244D01*
X465582Y206502D02*
X501396D01*
X265430D02*
X301498D01*
X465074Y206248D02*
X501142D01*
X265684D02*
X301752D01*
X464820Y205994D02*
X500888D01*
X265938D02*
X302260D01*
X464566Y205740D02*
X500634D01*
X266192D02*
X302514D01*
X464058Y205486D02*
X500634D01*
X266446D02*
X302768D01*
X463804Y205232D02*
X500380D01*
X266700D02*
X303276D01*
X463550Y204978D02*
X500126D01*
X266954D02*
X303530D01*
X463042Y204724D02*
X499872D01*
X267208D02*
X304038D01*
X462788Y204470D02*
X499618D01*
X267462D02*
X304292D01*
X462280Y204216D02*
X499364D01*
X267716D02*
X304546D01*
X462026Y203962D02*
X499110D01*
X267970D02*
X305054D01*
X461772Y203708D02*
X498856D01*
X268224D02*
X305308D01*
X461264Y203454D02*
X498602D01*
X268478D02*
X305816D01*
X461010Y203200D02*
X498348D01*
X268732D02*
X306070D01*
X460502Y202946D02*
X498094D01*
X268986D02*
X306324D01*
X460248Y202692D02*
X497840D01*
X269240D02*
X306832D01*
X459740Y202438D02*
X497586D01*
X269494D02*
X307086D01*
X459486Y202184D02*
X497332D01*
X269748D02*
X307594D01*
X458978Y201930D02*
X497078D01*
X270002D02*
X307848D01*
X458724Y201676D02*
X496824D01*
X270256D02*
X308356D01*
X458216Y201422D02*
X496570D01*
X270510D02*
X308610D01*
X457962Y201168D02*
X496316D01*
X270764D02*
X309118D01*
X457454Y200914D02*
X496062D01*
X271018D02*
X309372D01*
X457200Y200660D02*
X495808D01*
X271272D02*
X309880D01*
X456692Y200406D02*
X495554D01*
X271526D02*
X310134D01*
X456438Y200152D02*
X495300D01*
X271780D02*
X310642D01*
X455930Y199898D02*
X495046D01*
X272034D02*
X311150D01*
X455422Y199644D02*
X494792D01*
X272288D02*
X311404D01*
X455168Y199390D02*
X494538D01*
X272542D02*
X311912D01*
X454660Y199136D02*
X494284D01*
X272796D02*
X312166D01*
X454406Y198882D02*
X494030D01*
X273050D02*
X312674D01*
X453898Y198628D02*
X493776D01*
X273304D02*
X313182D01*
X453390Y198374D02*
X493522D01*
X273558D02*
X313436D01*
X453136Y198120D02*
X493014D01*
X273812D02*
X313944D01*
X452628Y197866D02*
X492760D01*
X274066D02*
X314452D01*
X452120Y197612D02*
X492506D01*
X274320D02*
X314706D01*
X451866Y197358D02*
X492252D01*
X274574D02*
X315214D01*
X451358Y197104D02*
X491998D01*
X275082D02*
X315722D01*
X450850Y196850D02*
X491744D01*
X275336D02*
X316230D01*
X450342Y196596D02*
X491490D01*
X275590D02*
X316484D01*
X449834Y196342D02*
X491236D01*
X275844D02*
X316992D01*
X449580Y196088D02*
X490982D01*
X276098D02*
X317500D01*
X449072Y195834D02*
X490728D01*
X276352D02*
X318008D01*
X448564Y195580D02*
X490474D01*
X276606D02*
X318516D01*
X448056Y195326D02*
X489966D01*
X276860D02*
X318770D01*
X447548Y195072D02*
X489712D01*
X277114D02*
X319278D01*
X447040Y194818D02*
X489458D01*
X277622D02*
X319786D01*
X446786Y194564D02*
X489204D01*
X277876D02*
X320294D01*
X446278Y194310D02*
X488950D01*
X278130D02*
X320802D01*
X445770Y194056D02*
X488696D01*
X278384D02*
X321310D01*
X445262Y193802D02*
X488442D01*
X278638D02*
X321818D01*
X444754Y193548D02*
X487934D01*
X278892D02*
X322326D01*
X444246Y193294D02*
X487680D01*
X279146D02*
X322834D01*
X443738Y193040D02*
X487426D01*
X279654D02*
X323342D01*
X443230Y192786D02*
X487172D01*
X279908D02*
X323850D01*
X442722Y192532D02*
X486918D01*
X280162D02*
X324358D01*
X442214Y192278D02*
X486664D01*
X280416D02*
X324866D01*
X441452Y192024D02*
X486156D01*
X280670D02*
X325374D01*
X440944Y191770D02*
X485902D01*
X281178D02*
X325882D01*
X440436Y191516D02*
X485648D01*
X281432D02*
X326390D01*
X439928Y191262D02*
X485394D01*
X281686D02*
X327152D01*
X439420Y191008D02*
X484886D01*
X281940D02*
X327660D01*
X438912Y190754D02*
X484632D01*
X282194D02*
X328168D01*
X438150Y190500D02*
X484378D01*
X282702D02*
X328676D01*
X437642Y190246D02*
X484124D01*
X282956D02*
X329438D01*
X437134Y189992D02*
X483870D01*
X283210D02*
X329946D01*
X436372Y189738D02*
X483362D01*
X283464D02*
X330454D01*
X435864Y189484D02*
X483108D01*
X283972D02*
X331216D01*
X435356Y189230D02*
X482854D01*
X284226D02*
X331724D01*
X434594Y188976D02*
X482600D01*
X284480D02*
X332486D01*
X434086Y188722D02*
X482092D01*
X284734D02*
X332994D01*
X433324Y188468D02*
X481838D01*
X285242D02*
X333502D01*
X432816Y188214D02*
X481584D01*
X285496D02*
X334264D01*
X432054Y187960D02*
X481076D01*
X285750D02*
X335026D01*
X431292Y187706D02*
X480822D01*
X286258D02*
X335534D01*
X430784Y187452D02*
X480568D01*
X286512D02*
X336296D01*
X430022Y187198D02*
X480060D01*
X286766D02*
X337058D01*
X429260Y186944D02*
X479806D01*
X287274D02*
X337820D01*
X428498Y186690D02*
X479552D01*
X287528D02*
X338328D01*
X427736Y186436D02*
X479044D01*
X287782D02*
X339090D01*
X427228Y186182D02*
X478790D01*
X288290D02*
X339852D01*
X426466Y185928D02*
X478536D01*
X288544D02*
X340614D01*
X425450Y185674D02*
X478028D01*
X288798D02*
X341376D01*
X424688Y185420D02*
X477774D01*
X289306D02*
X342138D01*
X423926Y185166D02*
X477520D01*
X289560D02*
X342900D01*
X423164Y184912D02*
X477012D01*
X290068D02*
X343916D01*
X422402Y184658D02*
X476758D01*
X290322D02*
X344678D01*
X421386Y184404D02*
X476250D01*
X290576D02*
X345440D01*
X420624Y184150D02*
X475996D01*
X291084D02*
X346456D01*
X419608Y183896D02*
X475742D01*
X291338D02*
X347218D01*
X418592Y183642D02*
X475234D01*
X291846D02*
X348234D01*
X417830Y183388D02*
X474980D01*
X292100D02*
X349250D01*
X416814Y183134D02*
X474472D01*
X292354D02*
X350266D01*
X415798Y182880D02*
X474218D01*
X292862D02*
X351282D01*
X414782Y182626D02*
X473710D01*
X293116D02*
X352298D01*
X413512Y182372D02*
X473456D01*
X293624D02*
X353314D01*
X412496Y182118D02*
X472948D01*
X293878D02*
X354584D01*
X411226Y181864D02*
X472694D01*
X294386D02*
X355600D01*
X409956Y181610D02*
X472186D01*
X294640D02*
X357124D01*
X408686Y181356D02*
X471932D01*
X295148D02*
X358394D01*
X407416Y181102D02*
X471424D01*
X295402D02*
X359664D01*
X405638Y180848D02*
X471170D01*
X295910D02*
X361188D01*
X404114Y180594D02*
X470662D01*
X296164D02*
X362712D01*
X402336Y180340D02*
X470408D01*
X296672D02*
X364490D01*
X400558Y180086D02*
X469900D01*
X296926D02*
X366522D01*
X398272Y179832D02*
X469646D01*
X297434D02*
X368554D01*
X395732Y179578D02*
X469138D01*
X297942D02*
X371094D01*
X392684Y179324D02*
X468630D01*
X298196D02*
X374396D01*
X387350Y179070D02*
X468376D01*
X298704D02*
X379476D01*
X298958Y178816D02*
X467868D01*
X299466Y178562D02*
X467614D01*
X299974Y178308D02*
X467106D01*
X300228Y178054D02*
X466598D01*
X300736Y177800D02*
X466344D01*
X301244Y177546D02*
X465836D01*
X301498Y177292D02*
X465328D01*
X302006Y177038D02*
X465074D01*
X302514Y176784D02*
X464566D01*
X302768Y176530D02*
X464058D01*
X303276Y176276D02*
X463804D01*
X303784Y176022D02*
X463296D01*
X304292Y175768D02*
X462788D01*
X304546Y175514D02*
X462280D01*
X305054Y175260D02*
X461772D01*
X305562Y175006D02*
X461518D01*
X306070Y174752D02*
X461010D01*
X306578Y174498D02*
X460502D01*
X306832Y174244D02*
X459994D01*
X307340Y173990D02*
X459486D01*
X307848Y173736D02*
X459232D01*
X308356Y173482D02*
X458724D01*
X308864Y173228D02*
X458216D01*
X309372Y172974D02*
X457708D01*
X309880Y172720D02*
X457200D01*
X310388Y172466D02*
X456692D01*
X310896Y172212D02*
X456184D01*
X311404Y171958D02*
X455676D01*
X311912Y171704D02*
X455168D01*
X312420Y171450D02*
X454660D01*
X312928Y171196D02*
X454152D01*
X313436Y170942D02*
X453644D01*
X313944Y170688D02*
X453136D01*
X314452Y170434D02*
X452628D01*
X314960Y170180D02*
X452120D01*
X315468Y169926D02*
X451612D01*
X315976Y169672D02*
X450850D01*
X316484Y169418D02*
X450342D01*
X317246Y169164D02*
X449834D01*
X317754Y168910D02*
X449326D01*
X318262Y168656D02*
X448818D01*
X318770Y168402D02*
X448056D01*
X319532Y168148D02*
X447548D01*
X320040Y167894D02*
X447040D01*
X320548Y167640D02*
X446532D01*
X321056Y167386D02*
X445770D01*
X321818Y167132D02*
X445262D01*
X322326Y166878D02*
X444500D01*
X323088Y166624D02*
X443992D01*
X323596Y166370D02*
X443230D01*
X324358Y166116D02*
X442722D01*
X324866Y165862D02*
X441960D01*
X325628Y165608D02*
X441452D01*
X326136Y165354D02*
X440690D01*
X326898Y165100D02*
X440182D01*
X327660Y164846D02*
X439420D01*
X328168Y164592D02*
X438658D01*
X328930Y164338D02*
X437896D01*
X329692Y164084D02*
X437388D01*
X330454Y163830D02*
X436626D01*
X331216Y163576D02*
X435864D01*
X331978Y163322D02*
X435102D01*
X332740Y163068D02*
X434340D01*
X333502Y162814D02*
X433578D01*
X334264Y162560D02*
X432816D01*
X335026Y162306D02*
X432054D01*
X335788Y162052D02*
X431292D01*
X336550Y161798D02*
X430276D01*
X337566Y161544D02*
X429514D01*
X338328Y161290D02*
X428752D01*
X339090Y161036D02*
X427736D01*
X340106Y160782D02*
X426974D01*
X341122Y160528D02*
X425958D01*
X341884Y160274D02*
X424942D01*
X342900Y160020D02*
X424180D01*
X343916Y159766D02*
X423164D01*
X344932Y159512D02*
X421894D01*
X345948Y159258D02*
X420878D01*
X346964Y159004D02*
X419862D01*
X348234Y158750D02*
X418846D01*
X349250Y158496D02*
X417576D01*
X350520Y158242D02*
X416560D01*
X351790Y157988D02*
X415290D01*
X353060Y157734D02*
X413766D01*
X354330Y157480D02*
X412496D01*
X355854Y157226D02*
X410972D01*
X357378Y156972D02*
X409448D01*
X358902Y156718D02*
X408178D01*
X360680Y156464D02*
X406146D01*
X362458Y156210D02*
X404368D01*
X364490Y155956D02*
X402336D01*
X366776Y155702D02*
X400050D01*
X369824Y155448D02*
X397256D01*
X373126Y155194D02*
X393700D01*
X378714Y154940D02*
X388366D01*
X527304Y135128D02*
X537718D01*
X433324D02*
X443738D01*
X352552D02*
X401828D01*
X255778D02*
X321056D01*
X527050Y134874D02*
X537718D01*
X433324D02*
X443738D01*
X349250D02*
X405130D01*
X251714D02*
X321056D01*
X526796Y134620D02*
X537718D01*
X433324D02*
X443992D01*
X347472D02*
X406908D01*
X249682D02*
X321056D01*
X526796Y134366D02*
X537718D01*
X433324D02*
X444246D01*
X346202D02*
X408178D01*
X248158D02*
X321056D01*
X526542Y134112D02*
X537718D01*
X433324D02*
X444246D01*
X345186D02*
X409194D01*
X246888D02*
X321056D01*
X526288Y133858D02*
X537718D01*
X433324D02*
X444500D01*
X344170D02*
X409956D01*
X245872D02*
X321056D01*
X526288Y133604D02*
X537718D01*
X433324D02*
X444754D01*
X343408D02*
X410972D01*
X244856D02*
X321056D01*
X526034Y133350D02*
X537718D01*
X433324D02*
X445008D01*
X342646D02*
X411480D01*
X244094D02*
X321056D01*
X525780Y133096D02*
X537718D01*
X433324D02*
X445008D01*
X342138D02*
X412242D01*
X243586D02*
X321056D01*
X525526Y132842D02*
X537718D01*
X433324D02*
X445262D01*
X341630D02*
X412750D01*
X242824D02*
X321056D01*
X525526Y132588D02*
X537718D01*
X433324D02*
X445516D01*
X341122D02*
X413258D01*
X242316D02*
X321056D01*
X525272Y132334D02*
X537718D01*
X433324D02*
X445770D01*
X340614D02*
X413766D01*
X241554D02*
X321056D01*
X525018Y132080D02*
X537718D01*
X433324D02*
X445770D01*
X340106D02*
X414274D01*
X241300D02*
X321056D01*
X524764Y131826D02*
X537718D01*
X433324D02*
X446024D01*
X339598D02*
X414782D01*
X240792D02*
X321056D01*
X524764Y131572D02*
X537718D01*
X433324D02*
X446278D01*
X339344D02*
X415036D01*
X240284D02*
X321056D01*
X524510Y131318D02*
X537718D01*
X433324D02*
X446532D01*
X338836D02*
X415544D01*
X239776D02*
X321056D01*
X524256Y131064D02*
X537718D01*
X433324D02*
X446532D01*
X338582D02*
X415798D01*
X239522D02*
X321056D01*
X524256Y130810D02*
X537718D01*
X433324D02*
X446786D01*
X338328D02*
X416052D01*
X239014D02*
X321056D01*
X524002Y130556D02*
X537718D01*
X433324D02*
X447040D01*
X337820D02*
X416306D01*
X238760D02*
X321056D01*
X523748Y130302D02*
X537718D01*
X433324D02*
X447040D01*
X337566D02*
X416814D01*
X238506D02*
X321056D01*
X523494Y130048D02*
X537718D01*
X433324D02*
X447294D01*
X337312D02*
X417068D01*
X238252D02*
X321056D01*
X523494Y129794D02*
X537718D01*
X433324D02*
X447548D01*
X337058D02*
X417322D01*
X237998D02*
X321056D01*
X523240Y129540D02*
X537718D01*
X433324D02*
X447802D01*
X336804D02*
X417576D01*
X237744D02*
X321056D01*
X522986Y129286D02*
X537718D01*
X433324D02*
X447802D01*
X336550D02*
X417830D01*
X237490D02*
X321056D01*
X522732Y129032D02*
X537718D01*
X433324D02*
X448056D01*
X336296D02*
X418084D01*
X237236D02*
X321056D01*
X522732Y128778D02*
X537718D01*
X433324D02*
X448310D01*
X336042D02*
X418084D01*
X236982D02*
X321056D01*
X522478Y128524D02*
X537718D01*
X433324D02*
X448564D01*
X336042D02*
X418338D01*
X236728D02*
X321056D01*
X522224Y128270D02*
X537718D01*
X433324D02*
X448564D01*
X335788D02*
X418592D01*
X236474D02*
X321056D01*
X522224Y128016D02*
X537718D01*
X433324D02*
X448818D01*
X335534D02*
X418846D01*
X236220D02*
X321056D01*
X521970Y127762D02*
X537718D01*
X433324D02*
X449072D01*
X335280D02*
X418846D01*
X236220D02*
X321056D01*
X521716Y127508D02*
X537718D01*
X433324D02*
X449072D01*
X335280D02*
X419100D01*
X235966D02*
X321056D01*
X521462Y127254D02*
X537718D01*
X433324D02*
X449326D01*
X335026D02*
X419354D01*
X235712D02*
X321056D01*
X521462Y127000D02*
X537718D01*
X433324D02*
X449580D01*
X335026D02*
X419354D01*
X235712D02*
X321056D01*
X521208Y126746D02*
X537718D01*
X433324D02*
X449834D01*
X334772D02*
X419608D01*
X235458D02*
X321056D01*
X520954Y126492D02*
X537718D01*
X433324D02*
X449834D01*
X334772D02*
X419608D01*
X235204D02*
X321056D01*
X520700Y126238D02*
X537718D01*
X433324D02*
X450088D01*
X334518D02*
X419862D01*
X235204D02*
X321056D01*
X520700Y125984D02*
X537718D01*
X433324D02*
X450342D01*
X334518D02*
X419862D01*
X234950D02*
X321056D01*
X520446Y125730D02*
X537718D01*
X433324D02*
X450596D01*
X334264D02*
X420116D01*
X234950D02*
X321056D01*
X520192Y125476D02*
X537718D01*
X433324D02*
X450596D01*
X334264D02*
X420116D01*
X234696D02*
X321056D01*
X519938Y125222D02*
X537718D01*
X433324D02*
X450850D01*
X334010D02*
X420116D01*
X234696D02*
X321056D01*
X519938Y124968D02*
X537718D01*
X433324D02*
X451104D01*
X334010D02*
X420370D01*
X234442D02*
X321056D01*
X519684Y124714D02*
X537718D01*
X433324D02*
X451104D01*
X404622D02*
X420370D01*
X334010D02*
X349758D01*
X310642D02*
X321056D01*
X234442D02*
X252476D01*
X519430Y124460D02*
X537718D01*
X433324D02*
X451358D01*
X406146D02*
X420370D01*
X333756D02*
X348234D01*
X310642D02*
X321056D01*
X234442D02*
X250444D01*
X519430Y124206D02*
X537718D01*
X433324D02*
X451612D01*
X406908D02*
X420624D01*
X333756D02*
X347218D01*
X310642D02*
X321056D01*
X234188D02*
X249174D01*
X519176Y123952D02*
X537718D01*
X433324D02*
X451866D01*
X407670D02*
X420624D01*
X333756D02*
X346710D01*
X310642D02*
X321056D01*
X234188D02*
X248158D01*
X518922Y123698D02*
X537718D01*
X433324D02*
X451866D01*
X408178D02*
X420624D01*
X333502D02*
X346202D01*
X310642D02*
X321056D01*
X234188D02*
X247650D01*
X518668Y123444D02*
X537718D01*
X433324D02*
X452120D01*
X408432D02*
X420878D01*
X333502D02*
X345694D01*
X310642D02*
X321056D01*
X233934D02*
X247142D01*
X518668Y123190D02*
X537718D01*
X433324D02*
X452374D01*
X408940D02*
X420878D01*
X333502D02*
X345440D01*
X310642D02*
X321056D01*
X233934D02*
X246634D01*
X518414Y122936D02*
X537718D01*
X433324D02*
X452628D01*
X409194D02*
X420878D01*
X333502D02*
X345186D01*
X310642D02*
X321056D01*
X233934D02*
X246126D01*
X518160Y122682D02*
X537718D01*
X433324D02*
X452628D01*
X409448D02*
X420878D01*
X333248D02*
X344932D01*
X310642D02*
X321056D01*
X233680D02*
X245872D01*
X517906Y122428D02*
X537718D01*
X433324D02*
X452882D01*
X409702D02*
X420878D01*
X333248D02*
X344678D01*
X310642D02*
X321056D01*
X233680D02*
X245618D01*
X517906Y122174D02*
X537718D01*
X433324D02*
X453136D01*
X409956D02*
X421132D01*
X333248D02*
X344424D01*
X310642D02*
X321056D01*
X233680D02*
X245364D01*
X517652Y121920D02*
X537718D01*
X433324D02*
X453136D01*
X410210D02*
X421132D01*
X333248D02*
X344170D01*
X310642D02*
X321056D01*
X233680D02*
X245110D01*
X517398Y121666D02*
X537718D01*
X433324D02*
X453390D01*
X410210D02*
X421132D01*
X333248D02*
X344170D01*
X310642D02*
X321056D01*
X233680D02*
X244856D01*
X517398Y121412D02*
X537718D01*
X433324D02*
X453644D01*
X410464D02*
X421132D01*
X333248D02*
X343916D01*
X310642D02*
X321056D01*
X233426D02*
X244602D01*
X517144Y121158D02*
X537718D01*
X433324D02*
X453898D01*
X410464D02*
X421132D01*
X333248D02*
X343916D01*
X310642D02*
X321056D01*
X233426D02*
X244602D01*
X516890Y120904D02*
X537718D01*
X433324D02*
X453898D01*
X410718D02*
X421132D01*
X332994D02*
X343662D01*
X310642D02*
X321056D01*
X233426D02*
X244348D01*
X516636Y120650D02*
X537718D01*
X433324D02*
X454152D01*
X410718D02*
X421132D01*
X332994D02*
X343662D01*
X310642D02*
X321056D01*
X233426D02*
X244348D01*
X516636Y120396D02*
X537718D01*
X433324D02*
X454406D01*
X410718D02*
X421386D01*
X332994D02*
X343662D01*
X310642D02*
X321056D01*
X233426D02*
X244094D01*
X516382Y120142D02*
X537718D01*
X433324D02*
X454660D01*
X410718D02*
X421386D01*
X332994D02*
X343408D01*
X310642D02*
X321056D01*
X233172D02*
X244094D01*
X516128Y119888D02*
X537718D01*
X433324D02*
X454660D01*
X410972D02*
X421386D01*
X332994D02*
X343408D01*
X310642D02*
X321056D01*
X233172D02*
X243840D01*
X515874Y119634D02*
X537718D01*
X433324D02*
X454914D01*
X410972D02*
X421386D01*
X332994D02*
X343408D01*
X310642D02*
X321056D01*
X233172D02*
X243840D01*
X515874Y119380D02*
X537718D01*
X433324D02*
X455168D01*
X410972D02*
X421386D01*
X332994D02*
X343408D01*
X310642D02*
X321056D01*
X233172D02*
X243840D01*
X515620Y119126D02*
X537718D01*
X433324D02*
X455422D01*
X410972D02*
X421386D01*
X332994D02*
X343408D01*
X310642D02*
X321056D01*
X233172D02*
X243840D01*
X515366Y118872D02*
X537718D01*
X433324D02*
X455422D01*
X410972D02*
X421386D01*
X332994D02*
X343408D01*
X310642D02*
X321056D01*
X233172D02*
X243586D01*
X515366Y118618D02*
X537718D01*
X433324D02*
X455676D01*
X410972D02*
X421386D01*
X332994D02*
X343408D01*
X310642D02*
X321056D01*
X233172D02*
X243586D01*
X515112Y118364D02*
X537718D01*
X433324D02*
X455930D01*
X410972D02*
X421386D01*
X332994D02*
X343408D01*
X310642D02*
X321056D01*
X233172D02*
X243586D01*
X514858Y118110D02*
X537718D01*
X433324D02*
X455930D01*
X410972D02*
X421386D01*
X332994D02*
X343408D01*
X310642D02*
X321056D01*
X232918D02*
X243586D01*
X514604Y117856D02*
X537718D01*
X433324D02*
X456184D01*
X410972D02*
X421386D01*
X332994D02*
X343408D01*
X310642D02*
X321056D01*
X232918D02*
X243586D01*
X514604Y117602D02*
X537718D01*
X433324D02*
X456438D01*
X410972D02*
X421386D01*
X332994D02*
X343408D01*
X310642D02*
X321056D01*
X232918D02*
X243332D01*
X514350Y117348D02*
X537718D01*
X433324D02*
X456692D01*
X410972D02*
X421386D01*
X332994D02*
X343408D01*
X310642D02*
X321056D01*
X232918D02*
X243332D01*
X527304Y117094D02*
X537718D01*
X514096D02*
X527050D01*
X443992D02*
X456692D01*
X433324D02*
X443738D01*
X410972D02*
X421386D01*
X332994D02*
X343408D01*
X310642D02*
X321056D01*
X232918D02*
X243332D01*
X527304Y116840D02*
X537718D01*
X513842D02*
X526796D01*
X443992D02*
X456946D01*
X433324D02*
X443738D01*
X410972D02*
X421386D01*
X332994D02*
X343408D01*
X310642D02*
X321056D01*
X232918D02*
X243332D01*
X527304Y116586D02*
X537718D01*
X513842D02*
X526796D01*
X444246D02*
X457200D01*
X433324D02*
X443738D01*
X410972D02*
X421386D01*
X332994D02*
X343408D01*
X310642D02*
X321056D01*
X232918D02*
X243332D01*
X527304Y116332D02*
X537718D01*
X513588D02*
X526542D01*
X444500D02*
X457454D01*
X433324D02*
X443738D01*
X410972D02*
X421386D01*
X332994D02*
X343408D01*
X310642D02*
X321056D01*
X232918D02*
X243332D01*
X527304Y116078D02*
X537718D01*
X513334D02*
X526288D01*
X444500D02*
X457454D01*
X433324D02*
X443738D01*
X410972D02*
X421386D01*
X332994D02*
X343408D01*
X310642D02*
X321056D01*
X232918D02*
X243332D01*
X527304Y115824D02*
X537718D01*
X513334D02*
X526034D01*
X444754D02*
X457708D01*
X433324D02*
X443738D01*
X410972D02*
X421386D01*
X332994D02*
X343408D01*
X310642D02*
X321056D01*
X232918D02*
X243332D01*
X527304Y115570D02*
X537718D01*
X513080D02*
X526034D01*
X445008D02*
X457962D01*
X433324D02*
X443738D01*
X410972D02*
X421386D01*
X332994D02*
X343408D01*
X310642D02*
X321056D01*
X232918D02*
X243332D01*
X527304Y115316D02*
X537718D01*
X512826D02*
X525780D01*
X445262D02*
X457962D01*
X433324D02*
X443738D01*
X410972D02*
X421386D01*
X332994D02*
X343408D01*
X310642D02*
X321056D01*
X232918D02*
X243332D01*
X527304Y115062D02*
X537718D01*
X512572D02*
X525526D01*
X445262D02*
X458216D01*
X433324D02*
X443738D01*
X410972D02*
X421386D01*
X332994D02*
X343408D01*
X310642D02*
X321056D01*
X232918D02*
X243332D01*
X527304Y114808D02*
X537718D01*
X512572D02*
X525272D01*
X445516D02*
X458470D01*
X433324D02*
X443738D01*
X410972D02*
X421386D01*
X332994D02*
X343408D01*
X310642D02*
X321056D01*
X232918D02*
X243332D01*
X527304Y114554D02*
X537718D01*
X512318D02*
X525272D01*
X445770D02*
X458724D01*
X433324D02*
X443738D01*
X410972D02*
X421386D01*
X332994D02*
X343408D01*
X310642D02*
X321056D01*
X232918D02*
X243332D01*
X527304Y114300D02*
X537718D01*
X512064D02*
X525018D01*
X446024D02*
X458724D01*
X433324D02*
X443738D01*
X410972D02*
X421386D01*
X332994D02*
X343408D01*
X310642D02*
X321056D01*
X232918D02*
X243332D01*
X527304Y114046D02*
X537718D01*
X511810D02*
X524764D01*
X446024D02*
X458978D01*
X433324D02*
X443738D01*
X410972D02*
X421386D01*
X332994D02*
X343408D01*
X310642D02*
X321056D01*
X232918D02*
X243332D01*
X527304Y113792D02*
X537718D01*
X511810D02*
X524510D01*
X446278D02*
X459232D01*
X433324D02*
X443738D01*
X410972D02*
X421386D01*
X332994D02*
X343408D01*
X310642D02*
X321056D01*
X232918D02*
X243332D01*
X527304Y113538D02*
X537718D01*
X511556D02*
X524510D01*
X446532D02*
X459486D01*
X433324D02*
X443738D01*
X410972D02*
X421386D01*
X332994D02*
X343408D01*
X310642D02*
X321056D01*
X232918D02*
X243332D01*
X527304Y113284D02*
X537718D01*
X511302D02*
X524256D01*
X446532D02*
X459486D01*
X433324D02*
X443738D01*
X410972D02*
X421386D01*
X332994D02*
X343408D01*
X310642D02*
X321056D01*
X232918D02*
X243332D01*
X527304Y113030D02*
X537718D01*
X511048D02*
X524002D01*
X446786D02*
X459740D01*
X433324D02*
X443738D01*
X410972D02*
X421386D01*
X332994D02*
X343408D01*
X310642D02*
X321056D01*
X232918D02*
X243332D01*
X527304Y112776D02*
X537718D01*
X511048D02*
X524002D01*
X447040D02*
X459994D01*
X433324D02*
X443738D01*
X410972D02*
X421386D01*
X332994D02*
X343408D01*
X310642D02*
X321056D01*
X232918D02*
X243332D01*
X527304Y112522D02*
X537718D01*
X510794D02*
X523748D01*
X447294D02*
X459994D01*
X433324D02*
X443738D01*
X410972D02*
X421386D01*
X332994D02*
X343408D01*
X310642D02*
X321056D01*
X232918D02*
X243332D01*
X527304Y112268D02*
X537718D01*
X510540D02*
X523494D01*
X447294D02*
X460248D01*
X433324D02*
X443738D01*
X410972D02*
X421386D01*
X332994D02*
X343408D01*
X310642D02*
X321056D01*
X232918D02*
X243332D01*
X527304Y112014D02*
X537718D01*
X510540D02*
X523240D01*
X447548D02*
X460502D01*
X433324D02*
X443738D01*
X410972D02*
X421386D01*
X332994D02*
X343408D01*
X310642D02*
X321056D01*
X232918D02*
X243332D01*
X527304Y111760D02*
X537718D01*
X510286D02*
X523240D01*
X447802D02*
X460756D01*
X433324D02*
X443738D01*
X410972D02*
X421386D01*
X332994D02*
X343408D01*
X310642D02*
X321056D01*
X232918D02*
X243332D01*
X527304Y111506D02*
X537718D01*
X510032D02*
X522986D01*
X448056D02*
X460756D01*
X433324D02*
X443738D01*
X410972D02*
X421386D01*
X332994D02*
X343408D01*
X310642D02*
X321056D01*
X232918D02*
X243332D01*
X527304Y111252D02*
X537718D01*
X509778D02*
X522732D01*
X448056D02*
X461010D01*
X433324D02*
X443738D01*
X410972D02*
X421386D01*
X332994D02*
X343408D01*
X310642D02*
X321056D01*
X232918D02*
X243332D01*
X527304Y110998D02*
X537718D01*
X509778D02*
X522478D01*
X448310D02*
X461264D01*
X433324D02*
X443738D01*
X410972D02*
X421386D01*
X332994D02*
X343408D01*
X310642D02*
X321056D01*
X232918D02*
X243332D01*
X527304Y110744D02*
X537718D01*
X509524D02*
X522478D01*
X448564D02*
X461518D01*
X433324D02*
X443738D01*
X410972D02*
X421386D01*
X332994D02*
X343408D01*
X310642D02*
X321056D01*
X232918D02*
X243332D01*
X527304Y110490D02*
X537718D01*
X509270D02*
X522224D01*
X448818D02*
X461518D01*
X433324D02*
X443738D01*
X410972D02*
X421386D01*
X332994D02*
X343408D01*
X310642D02*
X321056D01*
X232918D02*
X243332D01*
X527304Y110236D02*
X537718D01*
X509016D02*
X521970D01*
X448818D02*
X461772D01*
X433324D02*
X443738D01*
X410972D02*
X421386D01*
X332994D02*
X343408D01*
X310642D02*
X321056D01*
X232918D02*
X243332D01*
X527304Y109982D02*
X537718D01*
X509016D02*
X521970D01*
X449072D02*
X462026D01*
X433324D02*
X443738D01*
X410972D02*
X421386D01*
X332994D02*
X343408D01*
X310642D02*
X321056D01*
X232918D02*
X243332D01*
X527304Y109728D02*
X537718D01*
X508762D02*
X521716D01*
X449326D02*
X462280D01*
X433324D02*
X443738D01*
X410972D02*
X421386D01*
X332994D02*
X343408D01*
X310642D02*
X321056D01*
X232918D02*
X243332D01*
X527304Y109474D02*
X537718D01*
X508508D02*
X521462D01*
X449326D02*
X462280D01*
X433324D02*
X443738D01*
X410972D02*
X421386D01*
X332994D02*
X343408D01*
X310642D02*
X321056D01*
X232918D02*
X243332D01*
X527304Y109220D02*
X537718D01*
X508508D02*
X521208D01*
X449580D02*
X462534D01*
X433324D02*
X443738D01*
X410972D02*
X421386D01*
X332994D02*
X343408D01*
X310642D02*
X321056D01*
X232918D02*
X243332D01*
X527304Y108966D02*
X537718D01*
X508254D02*
X521208D01*
X449834D02*
X462788D01*
X433324D02*
X443738D01*
X410972D02*
X421386D01*
X332994D02*
X343408D01*
X310642D02*
X321056D01*
X232918D02*
X243332D01*
X527304Y108712D02*
X537718D01*
X508000D02*
X520954D01*
X450088D02*
X462788D01*
X433324D02*
X443738D01*
X410972D02*
X421386D01*
X332994D02*
X343408D01*
X310642D02*
X321056D01*
X232918D02*
X243332D01*
X527304Y108458D02*
X537718D01*
X507746D02*
X520700D01*
X450088D02*
X463042D01*
X433324D02*
X443738D01*
X410972D02*
X421386D01*
X332994D02*
X343408D01*
X310642D02*
X321056D01*
X232918D02*
X243332D01*
X527304Y108204D02*
X537718D01*
X507746D02*
X520446D01*
X450342D02*
X463296D01*
X433324D02*
X443738D01*
X410972D02*
X421386D01*
X332994D02*
X343408D01*
X310642D02*
X321056D01*
X232918D02*
X243332D01*
X527304Y107950D02*
X537718D01*
X507492D02*
X520446D01*
X450596D02*
X463550D01*
X433324D02*
X443738D01*
X410972D02*
X421386D01*
X332994D02*
X343408D01*
X310642D02*
X321056D01*
X232918D02*
X243332D01*
X527304Y107696D02*
X537718D01*
X507238D02*
X520192D01*
X450850D02*
X463550D01*
X433324D02*
X443738D01*
X410972D02*
X421386D01*
X332994D02*
X343408D01*
X310642D02*
X321056D01*
X232918D02*
X243332D01*
X527304Y107442D02*
X537718D01*
X506984D02*
X519938D01*
X450850D02*
X463804D01*
X433324D02*
X443738D01*
X410972D02*
X421386D01*
X332994D02*
X343408D01*
X310642D02*
X321056D01*
X232918D02*
X243332D01*
X527304Y107188D02*
X537718D01*
X506984D02*
X519938D01*
X451104D02*
X464058D01*
X433324D02*
X443738D01*
X410972D02*
X421386D01*
X332994D02*
X343408D01*
X310642D02*
X321056D01*
X232918D02*
X243332D01*
X527304Y106934D02*
X537718D01*
X506730D02*
X519684D01*
X451358D02*
X464312D01*
X433324D02*
X443738D01*
X410972D02*
X421386D01*
X332994D02*
X343408D01*
X310642D02*
X321056D01*
X232918D02*
X243332D01*
X527304Y106680D02*
X537718D01*
X506476D02*
X519430D01*
X451358D02*
X464312D01*
X433324D02*
X443738D01*
X410972D02*
X421386D01*
X332994D02*
X343408D01*
X310642D02*
X321056D01*
X232918D02*
X243332D01*
X527304Y106426D02*
X537718D01*
X506476D02*
X519176D01*
X451612D02*
X464566D01*
X433324D02*
X443738D01*
X410972D02*
X421386D01*
X332994D02*
X343408D01*
X310642D02*
X321056D01*
X232918D02*
X243332D01*
X527304Y106172D02*
X537718D01*
X506222D02*
X519176D01*
X451866D02*
X464820D01*
X433324D02*
X443738D01*
X410972D02*
X421386D01*
X332994D02*
X343408D01*
X310642D02*
X321056D01*
X232918D02*
X243332D01*
X527304Y105918D02*
X537718D01*
X505968D02*
X518922D01*
X452120D02*
X464820D01*
X433324D02*
X443738D01*
X410972D02*
X421386D01*
X332994D02*
X343408D01*
X310642D02*
X321056D01*
X232918D02*
X243332D01*
X527304Y105664D02*
X537718D01*
X505714D02*
X518668D01*
X452120D02*
X465074D01*
X433324D02*
X443738D01*
X410972D02*
X421386D01*
X332994D02*
X343408D01*
X310642D02*
X321056D01*
X232918D02*
X243332D01*
X527304Y105410D02*
X537718D01*
X505714D02*
X518414D01*
X452374D02*
X465328D01*
X433324D02*
X443738D01*
X410972D02*
X421386D01*
X332994D02*
X343408D01*
X310642D02*
X321056D01*
X232918D02*
X243332D01*
X527304Y105156D02*
X537718D01*
X505460D02*
X518414D01*
X452628D02*
X465582D01*
X433324D02*
X443738D01*
X410972D02*
X421386D01*
X332994D02*
X343408D01*
X310642D02*
X321056D01*
X232918D02*
X243332D01*
X527304Y104902D02*
X537718D01*
X505206D02*
X518160D01*
X452882D02*
X465582D01*
X433324D02*
X443738D01*
X410972D02*
X421386D01*
X332994D02*
X343408D01*
X310642D02*
X321056D01*
X232918D02*
X243332D01*
X527304Y104648D02*
X537718D01*
X504952D02*
X517906D01*
X452882D02*
X465836D01*
X433324D02*
X443738D01*
X410972D02*
X421386D01*
X332994D02*
X343408D01*
X310642D02*
X321056D01*
X232918D02*
X243332D01*
X527304Y104394D02*
X537718D01*
X504952D02*
X517652D01*
X453136D02*
X466090D01*
X433324D02*
X443738D01*
X410972D02*
X421386D01*
X332994D02*
X343408D01*
X310642D02*
X321056D01*
X232918D02*
X243332D01*
X527304Y104140D02*
X537718D01*
X504698D02*
X517652D01*
X453390D02*
X466344D01*
X433324D02*
X443738D01*
X410972D02*
X421386D01*
X332994D02*
X343408D01*
X310642D02*
X321056D01*
X232918D02*
X243332D01*
X527304Y103886D02*
X537718D01*
X504444D02*
X517398D01*
X453390D02*
X466344D01*
X433324D02*
X443738D01*
X410972D02*
X421386D01*
X332994D02*
X343408D01*
X310642D02*
X321056D01*
X232918D02*
X243332D01*
X527304Y103632D02*
X537718D01*
X504190D02*
X517144D01*
X453644D02*
X466598D01*
X433324D02*
X443738D01*
X410972D02*
X421386D01*
X332994D02*
X343408D01*
X310642D02*
X321056D01*
X232918D02*
X243332D01*
X527304Y103378D02*
X537718D01*
X504190D02*
X517144D01*
X453898D02*
X466852D01*
X433324D02*
X443738D01*
X410972D02*
X421386D01*
X332994D02*
X343408D01*
X310642D02*
X321056D01*
X232918D02*
X243332D01*
X527304Y103124D02*
X537718D01*
X503936D02*
X516890D01*
X454152D02*
X466852D01*
X433324D02*
X443738D01*
X410972D02*
X421386D01*
X332994D02*
X343408D01*
X310642D02*
X321056D01*
X232918D02*
X243332D01*
X527304Y102870D02*
X537718D01*
X503682D02*
X516636D01*
X454152D02*
X467106D01*
X433324D02*
X443738D01*
X410972D02*
X421386D01*
X332994D02*
X343408D01*
X310642D02*
X321056D01*
X232918D02*
X243332D01*
X527304Y102616D02*
X537718D01*
X503682D02*
X516382D01*
X454406D02*
X467360D01*
X433324D02*
X443738D01*
X410972D02*
X421386D01*
X332994D02*
X343408D01*
X310642D02*
X321056D01*
X232918D02*
X243332D01*
X527304Y102362D02*
X537718D01*
X503428D02*
X516382D01*
X454660D02*
X467614D01*
X433324D02*
X443738D01*
X410972D02*
X421386D01*
X332994D02*
X343408D01*
X310642D02*
X321056D01*
X232918D02*
X243332D01*
X527304Y102108D02*
X537718D01*
X503174D02*
X516128D01*
X454914D02*
X467614D01*
X433324D02*
X443738D01*
X410972D02*
X421386D01*
X332994D02*
X343408D01*
X310642D02*
X321056D01*
X232918D02*
X243332D01*
X527304Y101854D02*
X537718D01*
X502920D02*
X515874D01*
X454914D02*
X467868D01*
X433324D02*
X443738D01*
X410972D02*
X421386D01*
X332994D02*
X343408D01*
X310642D02*
X321056D01*
X232918D02*
X243332D01*
X527304Y101600D02*
X537718D01*
X502920D02*
X515620D01*
X455168D02*
X468122D01*
X433324D02*
X443738D01*
X410972D02*
X421386D01*
X332994D02*
X343408D01*
X310642D02*
X321056D01*
X232918D02*
X243332D01*
X527304Y101346D02*
X537718D01*
X502666D02*
X515620D01*
X455422D02*
X468376D01*
X433324D02*
X443738D01*
X410972D02*
X421386D01*
X332994D02*
X343408D01*
X310642D02*
X321056D01*
X232918D02*
X243332D01*
X527304Y101092D02*
X537718D01*
X502412D02*
X515366D01*
X455676D02*
X468376D01*
X433324D02*
X443738D01*
X410972D02*
X421386D01*
X332994D02*
X343408D01*
X310642D02*
X321056D01*
X232918D02*
X243332D01*
X527304Y100838D02*
X537718D01*
X502158D02*
X515112D01*
X455676D02*
X468630D01*
X433324D02*
X443738D01*
X410972D02*
X421386D01*
X332994D02*
X343408D01*
X310642D02*
X321056D01*
X232918D02*
X243332D01*
X527304Y100584D02*
X537718D01*
X502158D02*
X515112D01*
X455930D02*
X468884D01*
X433324D02*
X443738D01*
X410972D02*
X421386D01*
X332994D02*
X343408D01*
X310642D02*
X321056D01*
X232918D02*
X243332D01*
X527304Y100330D02*
X537718D01*
X501904D02*
X514858D01*
X456184D02*
X469138D01*
X433324D02*
X443738D01*
X410972D02*
X421386D01*
X332994D02*
X343408D01*
X310642D02*
X321056D01*
X232918D02*
X243332D01*
X527304Y100076D02*
X537718D01*
X501650D02*
X514604D01*
X456184D02*
X469138D01*
X433324D02*
X443738D01*
X410972D02*
X421386D01*
X332994D02*
X343408D01*
X310642D02*
X321056D01*
X232918D02*
X243332D01*
X527304Y99822D02*
X537718D01*
X501650D02*
X514350D01*
X456438D02*
X469392D01*
X433324D02*
X443738D01*
X410972D02*
X421386D01*
X332994D02*
X343408D01*
X310642D02*
X321056D01*
X232918D02*
X243332D01*
X527304Y99568D02*
X537718D01*
X501396D02*
X514350D01*
X456692D02*
X469646D01*
X433324D02*
X443738D01*
X410972D02*
X421386D01*
X332994D02*
X343408D01*
X310642D02*
X321056D01*
X232918D02*
X243332D01*
X527304Y99314D02*
X537718D01*
X501142D02*
X514096D01*
X456946D02*
X469646D01*
X433324D02*
X443738D01*
X410972D02*
X421386D01*
X332994D02*
X343408D01*
X310642D02*
X321056D01*
X232918D02*
X243332D01*
X527304Y99060D02*
X537718D01*
X500888D02*
X513842D01*
X456946D02*
X469900D01*
X433324D02*
X443738D01*
X410972D02*
X421386D01*
X332994D02*
X343408D01*
X310642D02*
X321056D01*
X232918D02*
X243332D01*
X527304Y98806D02*
X537718D01*
X500888D02*
X513588D01*
X457200D02*
X470154D01*
X433324D02*
X443738D01*
X410972D02*
X421386D01*
X332994D02*
X343408D01*
X310642D02*
X321056D01*
X232918D02*
X243332D01*
X527304Y98552D02*
X537718D01*
X500634D02*
X513588D01*
X457454D02*
X470408D01*
X433324D02*
X443738D01*
X410972D02*
X421386D01*
X332994D02*
X343408D01*
X310642D02*
X321056D01*
X232918D02*
X243332D01*
X527304Y98298D02*
X537718D01*
X500380D02*
X513334D01*
X457708D02*
X470408D01*
X433324D02*
X443738D01*
X410972D02*
X421386D01*
X332994D02*
X343408D01*
X310642D02*
X321056D01*
X232918D02*
X243332D01*
X527304Y98044D02*
X537718D01*
X500126D02*
X513080D01*
X457708D02*
X470662D01*
X433324D02*
X443738D01*
X410972D02*
X421386D01*
X332994D02*
X343408D01*
X310642D02*
X321056D01*
X232918D02*
X243332D01*
X527304Y97790D02*
X537718D01*
X500126D02*
X513080D01*
X457962D02*
X470916D01*
X433324D02*
X443738D01*
X410972D02*
X421386D01*
X332994D02*
X343408D01*
X310642D02*
X321056D01*
X232918D02*
X243332D01*
X527304Y97536D02*
X537718D01*
X499872D02*
X512826D01*
X458216D02*
X471170D01*
X433324D02*
X443738D01*
X410972D02*
X421386D01*
X332994D02*
X343408D01*
X310642D02*
X321056D01*
X232918D02*
X243332D01*
X527304Y97282D02*
X537718D01*
X499618D02*
X512572D01*
X458216D02*
X471170D01*
X433324D02*
X443738D01*
X410972D02*
X421386D01*
X332994D02*
X343408D01*
X310642D02*
X321056D01*
X232918D02*
X243332D01*
X527304Y97028D02*
X537718D01*
X499618D02*
X512318D01*
X458470D02*
X471424D01*
X433324D02*
X443738D01*
X410972D02*
X421386D01*
X332994D02*
X343408D01*
X310642D02*
X321056D01*
X232918D02*
X243332D01*
X527304Y96774D02*
X537718D01*
X499364D02*
X512318D01*
X458724D02*
X471678D01*
X433324D02*
X443738D01*
X410972D02*
X421386D01*
X332994D02*
X343408D01*
X310642D02*
X321056D01*
X232918D02*
X243332D01*
X527304Y96520D02*
X537718D01*
X499110D02*
X512064D01*
X458978D02*
X471678D01*
X433324D02*
X443738D01*
X410972D02*
X421386D01*
X332994D02*
X343408D01*
X310642D02*
X321056D01*
X232918D02*
X243332D01*
X527304Y96266D02*
X537718D01*
X498856D02*
X511810D01*
X458978D02*
X471932D01*
X433324D02*
X443738D01*
X410972D02*
X421386D01*
X332994D02*
X343408D01*
X310642D02*
X321056D01*
X232918D02*
X243332D01*
X527304Y96012D02*
X537718D01*
X498856D02*
X511556D01*
X459232D02*
X472186D01*
X433324D02*
X443738D01*
X410972D02*
X421386D01*
X332994D02*
X343408D01*
X310642D02*
X321056D01*
X232918D02*
X243332D01*
X527304Y95758D02*
X537718D01*
X498602D02*
X511556D01*
X459486D02*
X472440D01*
X433324D02*
X443738D01*
X410972D02*
X421386D01*
X332994D02*
X343408D01*
X310642D02*
X321056D01*
X232918D02*
X243332D01*
X527304Y95504D02*
X537718D01*
X498348D02*
X511302D01*
X459740D02*
X472440D01*
X433324D02*
X443738D01*
X410972D02*
X421386D01*
X332994D02*
X343408D01*
X310642D02*
X321056D01*
X232918D02*
X243332D01*
X527304Y95250D02*
X537718D01*
X498094D02*
X511048D01*
X459740D02*
X472694D01*
X433324D02*
X443738D01*
X410972D02*
X421386D01*
X332994D02*
X343408D01*
X310642D02*
X321056D01*
X232918D02*
X243332D01*
X527304Y94996D02*
X537718D01*
X498094D02*
X510794D01*
X459994D02*
X472948D01*
X433324D02*
X443738D01*
X410972D02*
X421386D01*
X332994D02*
X343408D01*
X310642D02*
X321056D01*
X232918D02*
X243332D01*
X527304Y94742D02*
X537718D01*
X497840D02*
X510794D01*
X460248D02*
X473202D01*
X433324D02*
X443738D01*
X410972D02*
X421386D01*
X332994D02*
X343408D01*
X310642D02*
X321056D01*
X232918D02*
X243332D01*
X527304Y94488D02*
X537718D01*
X497586D02*
X510540D01*
X460248D02*
X473202D01*
X433324D02*
X443738D01*
X410972D02*
X421386D01*
X332994D02*
X343408D01*
X310642D02*
X321056D01*
X232918D02*
X243332D01*
X527304Y94234D02*
X537718D01*
X497332D02*
X510286D01*
X460502D02*
X473456D01*
X433324D02*
X443738D01*
X410972D02*
X421386D01*
X332994D02*
X343408D01*
X310642D02*
X321056D01*
X232918D02*
X243332D01*
X527304Y93980D02*
X537718D01*
X497332D02*
X510286D01*
X460756D02*
X473710D01*
X433324D02*
X443738D01*
X410972D02*
X421386D01*
X332994D02*
X343408D01*
X310642D02*
X321056D01*
X232918D02*
X243332D01*
X527304Y93726D02*
X537718D01*
X497078D02*
X510032D01*
X461010D02*
X473710D01*
X433324D02*
X443738D01*
X410972D02*
X421386D01*
X332994D02*
X343408D01*
X310642D02*
X321056D01*
X232918D02*
X243332D01*
X527304Y93472D02*
X537718D01*
X496824D02*
X509778D01*
X461010D02*
X473964D01*
X433324D02*
X443738D01*
X410972D02*
X421386D01*
X332994D02*
X343408D01*
X310642D02*
X321056D01*
X232918D02*
X243332D01*
X527304Y93218D02*
X537718D01*
X496824D02*
X509524D01*
X461264D02*
X474218D01*
X433324D02*
X443738D01*
X410972D02*
X421386D01*
X332994D02*
X343408D01*
X310642D02*
X321056D01*
X232918D02*
X243332D01*
X527304Y92964D02*
X537718D01*
X496570D02*
X509524D01*
X461518D02*
X474472D01*
X433324D02*
X443738D01*
X410972D02*
X421386D01*
X332994D02*
X343408D01*
X310642D02*
X321056D01*
X232918D02*
X243332D01*
X527304Y92710D02*
X537718D01*
X496316D02*
X509270D01*
X461772D02*
X474472D01*
X433324D02*
X443738D01*
X410972D02*
X421386D01*
X332994D02*
X343408D01*
X310642D02*
X321056D01*
X232918D02*
X243332D01*
X527304Y92456D02*
X537718D01*
X496062D02*
X509016D01*
X461772D02*
X474726D01*
X433324D02*
X443738D01*
X410972D02*
X421386D01*
X332994D02*
X343408D01*
X310642D02*
X321056D01*
X232918D02*
X243332D01*
X527304Y92202D02*
X537718D01*
X496062D02*
X508762D01*
X462026D02*
X474980D01*
X433324D02*
X443738D01*
X410972D02*
X421386D01*
X332994D02*
X343408D01*
X310642D02*
X321056D01*
X232918D02*
X243332D01*
X527304Y91948D02*
X537718D01*
X495808D02*
X508762D01*
X462280D02*
X475234D01*
X433324D02*
X443738D01*
X410972D02*
X421386D01*
X332994D02*
X343408D01*
X310642D02*
X321056D01*
X232918D02*
X243332D01*
X527304Y91694D02*
X537718D01*
X495554D02*
X508508D01*
X462534D02*
X475234D01*
X433324D02*
X443738D01*
X410972D02*
X421386D01*
X332994D02*
X343408D01*
X310642D02*
X321056D01*
X232918D02*
X243332D01*
X527304Y91440D02*
X537718D01*
X495300D02*
X508254D01*
X462534D02*
X475488D01*
X433324D02*
X443738D01*
X410972D02*
X421386D01*
X332994D02*
X343408D01*
X310642D02*
X321056D01*
X232918D02*
X243332D01*
X527304Y91186D02*
X537718D01*
X495300D02*
X508254D01*
X462788D02*
X475742D01*
X433324D02*
X443738D01*
X410972D02*
X421386D01*
X332994D02*
X343408D01*
X310642D02*
X321056D01*
X232918D02*
X243332D01*
X527304Y90932D02*
X537718D01*
X495046D02*
X508000D01*
X463042D02*
X475996D01*
X433324D02*
X443738D01*
X410972D02*
X421386D01*
X332994D02*
X343408D01*
X310642D02*
X321056D01*
X232918D02*
X243332D01*
X527304Y90678D02*
X537718D01*
X494792D02*
X507746D01*
X463042D02*
X475996D01*
X433324D02*
X443738D01*
X410972D02*
X421386D01*
X332994D02*
X343408D01*
X310642D02*
X321056D01*
X232918D02*
X243332D01*
X527304Y90424D02*
X537718D01*
X494792D02*
X507492D01*
X463296D02*
X476250D01*
X433324D02*
X443738D01*
X410972D02*
X421386D01*
X332994D02*
X343408D01*
X310642D02*
X321056D01*
X232918D02*
X243332D01*
X527304Y90170D02*
X537718D01*
X494538D02*
X507492D01*
X463550D02*
X476504D01*
X433324D02*
X443738D01*
X410972D02*
X421386D01*
X332994D02*
X343408D01*
X310642D02*
X321056D01*
X232918D02*
X243332D01*
X527304Y89916D02*
X537718D01*
X494284D02*
X507238D01*
X463804D02*
X476504D01*
X433324D02*
X443738D01*
X410972D02*
X421386D01*
X332994D02*
X343408D01*
X310642D02*
X321056D01*
X232918D02*
X243332D01*
X527304Y89662D02*
X537718D01*
X494030D02*
X506984D01*
X463804D02*
X476758D01*
X433324D02*
X443738D01*
X410972D02*
X421386D01*
X332994D02*
X343408D01*
X310642D02*
X321056D01*
X232918D02*
X243332D01*
X527304Y89408D02*
X537718D01*
X494030D02*
X506730D01*
X464058D02*
X477012D01*
X433324D02*
X443738D01*
X410972D02*
X421386D01*
X332994D02*
X343408D01*
X310642D02*
X321056D01*
X232918D02*
X243332D01*
X527304Y89154D02*
X537718D01*
X493776D02*
X506730D01*
X464312D02*
X477266D01*
X433324D02*
X443738D01*
X410972D02*
X421386D01*
X332994D02*
X343408D01*
X310642D02*
X321056D01*
X232918D02*
X243332D01*
X527304Y88900D02*
X537718D01*
X493522D02*
X506476D01*
X464566D02*
X477266D01*
X433324D02*
X443738D01*
X410972D02*
X421386D01*
X332994D02*
X343408D01*
X310642D02*
X321056D01*
X232918D02*
X243332D01*
X527304Y88646D02*
X537718D01*
X493268D02*
X506222D01*
X464566D02*
X477520D01*
X433324D02*
X443738D01*
X410972D02*
X421386D01*
X332994D02*
X343408D01*
X310642D02*
X321056D01*
X232918D02*
X243332D01*
X527304Y88392D02*
X537718D01*
X493268D02*
X506222D01*
X464820D02*
X477774D01*
X433324D02*
X443738D01*
X410972D02*
X421386D01*
X332994D02*
X343408D01*
X310642D02*
X321056D01*
X232918D02*
X243332D01*
X527304Y88138D02*
X537718D01*
X493014D02*
X505968D01*
X465074D02*
X478028D01*
X433324D02*
X443738D01*
X410972D02*
X421386D01*
X332994D02*
X343408D01*
X310642D02*
X321056D01*
X232918D02*
X243332D01*
X527304Y87884D02*
X537718D01*
X492760D02*
X505714D01*
X465074D02*
X478028D01*
X433324D02*
X443738D01*
X410972D02*
X421386D01*
X332994D02*
X343408D01*
X310642D02*
X321056D01*
X232918D02*
X243332D01*
X527304Y87630D02*
X537718D01*
X492760D02*
X505460D01*
X465328D02*
X478282D01*
X433324D02*
X443738D01*
X410972D02*
X421386D01*
X332994D02*
X343408D01*
X310642D02*
X321056D01*
X232918D02*
X243332D01*
X527304Y87376D02*
X537718D01*
X492506D02*
X505460D01*
X465582D02*
X478536D01*
X433324D02*
X443738D01*
X410972D02*
X421386D01*
X332994D02*
X343408D01*
X310642D02*
X321056D01*
X232918D02*
X243332D01*
X527304Y87122D02*
X537718D01*
X492252D02*
X505206D01*
X465836D02*
X478536D01*
X433324D02*
X443738D01*
X410972D02*
X421386D01*
X332994D02*
X343408D01*
X310642D02*
X321056D01*
X232918D02*
X243332D01*
X527304Y86868D02*
X537718D01*
X491998D02*
X504952D01*
X465836D02*
X478790D01*
X433324D02*
X443738D01*
X410972D02*
X421386D01*
X332994D02*
X343408D01*
X310642D02*
X321056D01*
X232918D02*
X243332D01*
X527304Y86614D02*
X537718D01*
X491998D02*
X504698D01*
X466090D02*
X479044D01*
X433324D02*
X443738D01*
X410972D02*
X421386D01*
X332994D02*
X343408D01*
X310642D02*
X321056D01*
X232918D02*
X243332D01*
X527304Y86360D02*
X537718D01*
X491744D02*
X504698D01*
X466344D02*
X479298D01*
X433324D02*
X443738D01*
X410972D02*
X421386D01*
X332994D02*
X343408D01*
X310642D02*
X321056D01*
X232918D02*
X243332D01*
X527304Y86106D02*
X537718D01*
X491490D02*
X504444D01*
X466598D02*
X479298D01*
X433324D02*
X443738D01*
X410972D02*
X421386D01*
X332994D02*
X343408D01*
X310642D02*
X321056D01*
X232918D02*
X243332D01*
X527304Y85852D02*
X537718D01*
X491236D02*
X504190D01*
X466598D02*
X479552D01*
X433324D02*
X443738D01*
X410972D02*
X421386D01*
X332994D02*
X343408D01*
X310642D02*
X321056D01*
X232918D02*
X243332D01*
X527304Y85598D02*
X537718D01*
X491236D02*
X503936D01*
X466852D02*
X479806D01*
X433324D02*
X443738D01*
X410972D02*
X421386D01*
X332994D02*
X343408D01*
X310642D02*
X321056D01*
X232918D02*
X243332D01*
X527304Y85344D02*
X537718D01*
X490982D02*
X503936D01*
X467106D02*
X480060D01*
X433324D02*
X443738D01*
X410972D02*
X421386D01*
X332994D02*
X343408D01*
X310642D02*
X321056D01*
X232918D02*
X243332D01*
X527304Y85090D02*
X537718D01*
X490728D02*
X503682D01*
X467106D02*
X480060D01*
X433324D02*
X443738D01*
X410972D02*
X421386D01*
X332994D02*
X343408D01*
X310642D02*
X321056D01*
X232918D02*
X243332D01*
X527304Y84836D02*
X537718D01*
X490474D02*
X503428D01*
X467360D02*
X480314D01*
X433324D02*
X443738D01*
X410972D02*
X421386D01*
X332994D02*
X343408D01*
X310642D02*
X321056D01*
X232918D02*
X243332D01*
X527304Y84582D02*
X537718D01*
X490474D02*
X503428D01*
X467614D02*
X480568D01*
X433324D02*
X443738D01*
X410972D02*
X421386D01*
X332994D02*
X343408D01*
X310642D02*
X321056D01*
X232918D02*
X243332D01*
X527304Y84328D02*
X537718D01*
X490220D02*
X503174D01*
X467868D02*
X480568D01*
X433324D02*
X443738D01*
X410972D02*
X421386D01*
X332994D02*
X343408D01*
X310642D02*
X321056D01*
X232918D02*
X243332D01*
X527304Y84074D02*
X537718D01*
X489966D02*
X502920D01*
X467868D02*
X480822D01*
X433324D02*
X443738D01*
X410972D02*
X421386D01*
X332994D02*
X343408D01*
X310642D02*
X321056D01*
X232918D02*
X243332D01*
X527304Y83820D02*
X537718D01*
X489966D02*
X502666D01*
X468122D02*
X481076D01*
X433324D02*
X443738D01*
X410972D02*
X421386D01*
X332994D02*
X343408D01*
X310642D02*
X321056D01*
X232918D02*
X243332D01*
X527304Y83566D02*
X537718D01*
X489712D02*
X502666D01*
X468376D02*
X481330D01*
X433324D02*
X443738D01*
X410972D02*
X421386D01*
X332994D02*
X343408D01*
X310642D02*
X321056D01*
X232918D02*
X243586D01*
X527304Y83312D02*
X537718D01*
X489458D02*
X502412D01*
X468630D02*
X481330D01*
X433324D02*
X443738D01*
X410972D02*
X421386D01*
X332994D02*
X343408D01*
X310642D02*
X321056D01*
X232918D02*
X243586D01*
X527304Y83058D02*
X537718D01*
X489204D02*
X502158D01*
X468630D02*
X481584D01*
X433324D02*
X443738D01*
X410972D02*
X421386D01*
X332994D02*
X343408D01*
X310642D02*
X321056D01*
X232918D02*
X243586D01*
X527304Y82804D02*
X537718D01*
X489204D02*
X501904D01*
X468884D02*
X481838D01*
X433324D02*
X443738D01*
X410972D02*
X421386D01*
X332994D02*
X343408D01*
X310642D02*
X321056D01*
X233172D02*
X243586D01*
X527304Y82550D02*
X537718D01*
X488950D02*
X501904D01*
X469138D02*
X482092D01*
X433324D02*
X443738D01*
X410972D02*
X421386D01*
X332994D02*
X343408D01*
X310642D02*
X321056D01*
X233172D02*
X243586D01*
X527304Y82296D02*
X537718D01*
X488696D02*
X501650D01*
X469138D02*
X482092D01*
X433324D02*
X443738D01*
X410972D02*
X421386D01*
X332994D02*
X343408D01*
X310642D02*
X321056D01*
X233172D02*
X243840D01*
X527304Y82042D02*
X537718D01*
X488442D02*
X501396D01*
X469392D02*
X482346D01*
X433324D02*
X443738D01*
X410972D02*
X421386D01*
X332994D02*
X343408D01*
X310642D02*
X321056D01*
X233172D02*
X243840D01*
X527304Y81788D02*
X537718D01*
X488442D02*
X501396D01*
X469646D02*
X482600D01*
X433324D02*
X443738D01*
X410972D02*
X421386D01*
X332994D02*
X343408D01*
X310642D02*
X321056D01*
X233172D02*
X243840D01*
X527304Y81534D02*
X537718D01*
X488188D02*
X501142D01*
X469900D02*
X482854D01*
X433324D02*
X443738D01*
X410718D02*
X421386D01*
X332994D02*
X343408D01*
X310642D02*
X321056D01*
X233172D02*
X243840D01*
X527304Y81280D02*
X537718D01*
X487934D02*
X500888D01*
X469900D02*
X482854D01*
X433324D02*
X443738D01*
X410718D02*
X421386D01*
X332994D02*
X343662D01*
X310642D02*
X321056D01*
X233172D02*
X244094D01*
X527304Y81026D02*
X537718D01*
X487934D02*
X500634D01*
X470154D02*
X483108D01*
X433324D02*
X443738D01*
X410718D02*
X421132D01*
X332994D02*
X343662D01*
X310642D02*
X321056D01*
X233172D02*
X244094D01*
X527304Y80772D02*
X537718D01*
X487680D02*
X500634D01*
X470408D02*
X483362D01*
X433324D02*
X443738D01*
X410464D02*
X421132D01*
X332994D02*
X343662D01*
X310642D02*
X321056D01*
X233426D02*
X244348D01*
X527304Y80518D02*
X537718D01*
X487426D02*
X500380D01*
X470662D02*
X483362D01*
X433324D02*
X443738D01*
X410464D02*
X421132D01*
X333248D02*
X343916D01*
X310642D02*
X321056D01*
X233426D02*
X244348D01*
X527304Y80264D02*
X537718D01*
X487172D02*
X500126D01*
X470662D02*
X483616D01*
X433324D02*
X443738D01*
X410464D02*
X421132D01*
X333248D02*
X343916D01*
X310642D02*
X321056D01*
X233426D02*
X244602D01*
X527304Y80010D02*
X537718D01*
X487172D02*
X499872D01*
X470916D02*
X483870D01*
X433324D02*
X443738D01*
X410210D02*
X421132D01*
X333248D02*
X344170D01*
X310642D02*
X321056D01*
X233426D02*
X244856D01*
X527304Y79756D02*
X537718D01*
X486918D02*
X499872D01*
X471170D02*
X484124D01*
X433324D02*
X443738D01*
X410210D02*
X421132D01*
X333248D02*
X344170D01*
X310642D02*
X321056D01*
X233426D02*
X244856D01*
X527304Y79502D02*
X537718D01*
X486664D02*
X499618D01*
X471424D02*
X484124D01*
X433324D02*
X443738D01*
X409956D02*
X421132D01*
X333248D02*
X344424D01*
X310642D02*
X321056D01*
X233680D02*
X245110D01*
X527304Y79248D02*
X537718D01*
X486410D02*
X499364D01*
X471424D02*
X484378D01*
X433324D02*
X443738D01*
X409702D02*
X420878D01*
X333248D02*
X344678D01*
X310642D02*
X321056D01*
X233680D02*
X245364D01*
X527304Y78994D02*
X537718D01*
X486410D02*
X499364D01*
X471678D02*
X484632D01*
X433324D02*
X443738D01*
X409448D02*
X420878D01*
X333502D02*
X344932D01*
X310642D02*
X321056D01*
X233680D02*
X245872D01*
X527304Y78740D02*
X537718D01*
X486156D02*
X499110D01*
X471932D02*
X484886D01*
X433324D02*
X443738D01*
X409194D02*
X420878D01*
X333502D02*
X345186D01*
X310642D02*
X321056D01*
X233680D02*
X246126D01*
X527304Y78486D02*
X537718D01*
X485902D02*
X498856D01*
X471932D02*
X484886D01*
X433324D02*
X443738D01*
X408940D02*
X420878D01*
X333502D02*
X345440D01*
X310642D02*
X321056D01*
X233934D02*
X246380D01*
X527304Y78232D02*
X537718D01*
X485902D02*
X498602D01*
X472186D02*
X485140D01*
X433324D02*
X443738D01*
X408432D02*
X420878D01*
X333502D02*
X345694D01*
X310642D02*
X321056D01*
X233934D02*
X246888D01*
X527304Y77978D02*
X537718D01*
X485648D02*
X498602D01*
X472440D02*
X485394D01*
X433324D02*
X443738D01*
X408178D02*
X420624D01*
X333502D02*
X346202D01*
X310642D02*
X321056D01*
X233934D02*
X247396D01*
X527304Y77724D02*
X537718D01*
X472694D02*
X498348D01*
X433324D02*
X443738D01*
X407670D02*
X420624D01*
X333756D02*
X346710D01*
X310642D02*
X321056D01*
X234188D02*
X248158D01*
X527304Y77470D02*
X537718D01*
X472694D02*
X498094D01*
X433324D02*
X443738D01*
X406908D02*
X420624D01*
X333756D02*
X347472D01*
X310642D02*
X321056D01*
X234188D02*
X249174D01*
X527304Y77216D02*
X537718D01*
X472948D02*
X497840D01*
X433324D02*
X443738D01*
X405892D02*
X420370D01*
X333756D02*
X348234D01*
X310642D02*
X321056D01*
X234188D02*
X250444D01*
X527304Y76962D02*
X537718D01*
X473202D02*
X497840D01*
X433324D02*
X443738D01*
X404368D02*
X420370D01*
X334010D02*
X350012D01*
X310642D02*
X321056D01*
X234442D02*
X252730D01*
X527304Y76708D02*
X537718D01*
X473456D02*
X497586D01*
X433324D02*
X443738D01*
X334010D02*
X420370D01*
X234442D02*
X321056D01*
X527304Y76454D02*
X537718D01*
X473456D02*
X497332D01*
X433324D02*
X443738D01*
X334010D02*
X420116D01*
X234442D02*
X321056D01*
X527304Y76200D02*
X537718D01*
X473710D02*
X497078D01*
X433324D02*
X443738D01*
X334264D02*
X420116D01*
X234696D02*
X321056D01*
X527304Y75946D02*
X537718D01*
X473964D02*
X497078D01*
X433324D02*
X443738D01*
X334264D02*
X420116D01*
X234696D02*
X321056D01*
X527304Y75692D02*
X537718D01*
X473964D02*
X496824D01*
X433324D02*
X443738D01*
X334518D02*
X419862D01*
X234950D02*
X321056D01*
X527304Y75438D02*
X537718D01*
X474218D02*
X496570D01*
X433324D02*
X443738D01*
X334518D02*
X419862D01*
X234950D02*
X321056D01*
X527304Y75184D02*
X537718D01*
X474472D02*
X496570D01*
X433324D02*
X443738D01*
X334772D02*
X419608D01*
X235204D02*
X321056D01*
X527304Y74930D02*
X537718D01*
X474726D02*
X496316D01*
X433324D02*
X443738D01*
X334772D02*
X419608D01*
X235204D02*
X321056D01*
X527304Y74676D02*
X537718D01*
X474726D02*
X496062D01*
X433324D02*
X443738D01*
X335026D02*
X419354D01*
X235458D02*
X321056D01*
X527304Y74422D02*
X537718D01*
X474980D02*
X495808D01*
X433324D02*
X443738D01*
X335026D02*
X419354D01*
X235712D02*
X321056D01*
X527304Y74168D02*
X537718D01*
X475234D02*
X495808D01*
X433324D02*
X443738D01*
X335280D02*
X419100D01*
X235712D02*
X321056D01*
X527304Y73914D02*
X537718D01*
X475488D02*
X495554D01*
X433324D02*
X443738D01*
X335534D02*
X418846D01*
X235966D02*
X321056D01*
X527304Y73660D02*
X537718D01*
X475488D02*
X495300D01*
X433324D02*
X443738D01*
X335534D02*
X418846D01*
X236220D02*
X321056D01*
X527304Y73406D02*
X537718D01*
X475742D02*
X495046D01*
X433324D02*
X443738D01*
X335788D02*
X418592D01*
X236474D02*
X321056D01*
X527304Y73152D02*
X537718D01*
X475996D02*
X495046D01*
X433324D02*
X443738D01*
X336042D02*
X418338D01*
X236474D02*
X321056D01*
X527304Y72898D02*
X537718D01*
X475996D02*
X494792D01*
X433324D02*
X443738D01*
X336042D02*
X418084D01*
X236728D02*
X321056D01*
X527304Y72644D02*
X537718D01*
X476250D02*
X494538D01*
X433324D02*
X443738D01*
X336296D02*
X417830D01*
X236982D02*
X321056D01*
X527304Y72390D02*
X537718D01*
X476504D02*
X494538D01*
X433324D02*
X443738D01*
X336550D02*
X417830D01*
X237236D02*
X321056D01*
X527304Y72136D02*
X537718D01*
X476758D02*
X494284D01*
X433324D02*
X443738D01*
X336804D02*
X417576D01*
X237490D02*
X321056D01*
X527304Y71882D02*
X537718D01*
X476758D02*
X494030D01*
X433324D02*
X443738D01*
X337058D02*
X417322D01*
X237744D02*
X321056D01*
X527304Y71628D02*
X537718D01*
X477012D02*
X493776D01*
X433324D02*
X443738D01*
X337312D02*
X417068D01*
X237998D02*
X321056D01*
X527304Y71374D02*
X537718D01*
X477266D02*
X493776D01*
X433324D02*
X443738D01*
X337566D02*
X416814D01*
X238506D02*
X321056D01*
X527304Y71120D02*
X537718D01*
X477520D02*
X493522D01*
X433324D02*
X443738D01*
X337820D02*
X416306D01*
X238760D02*
X321056D01*
X527304Y70866D02*
X537718D01*
X477520D02*
X493268D01*
X433324D02*
X443738D01*
X338328D02*
X416052D01*
X239014D02*
X321056D01*
X527304Y70612D02*
X537718D01*
X477774D02*
X493014D01*
X433324D02*
X443738D01*
X338582D02*
X415798D01*
X239522D02*
X321056D01*
X527304Y70358D02*
X537718D01*
X478028D02*
X493014D01*
X433324D02*
X443738D01*
X338836D02*
X415290D01*
X239776D02*
X321056D01*
X527304Y70104D02*
X537718D01*
X478282D02*
X492760D01*
X433324D02*
X443738D01*
X339344D02*
X415036D01*
X240284D02*
X321056D01*
X527304Y69850D02*
X537718D01*
X478282D02*
X492506D01*
X433324D02*
X443738D01*
X339598D02*
X414528D01*
X240792D02*
X321056D01*
X527304Y69596D02*
X537718D01*
X478536D02*
X492506D01*
X433324D02*
X443738D01*
X340106D02*
X414274D01*
X241046D02*
X321056D01*
X527304Y69342D02*
X537718D01*
X478790D02*
X492252D01*
X433324D02*
X443738D01*
X340614D02*
X413766D01*
X241554D02*
X321056D01*
X527304Y69088D02*
X537718D01*
X478790D02*
X491998D01*
X433324D02*
X443738D01*
X341122D02*
X413258D01*
X242316D02*
X321056D01*
X527304Y68834D02*
X537718D01*
X479044D02*
X491744D01*
X433324D02*
X443738D01*
X341630D02*
X412750D01*
X242824D02*
X321056D01*
X527304Y68580D02*
X537718D01*
X479298D02*
X491744D01*
X433324D02*
X443738D01*
X342138D02*
X412242D01*
X243586D02*
X321056D01*
X527304Y68326D02*
X537718D01*
X479552D02*
X491490D01*
X433324D02*
X443738D01*
X342900D02*
X411480D01*
X244348D02*
X321056D01*
X527304Y68072D02*
X537718D01*
X479552D02*
X491236D01*
X433324D02*
X443738D01*
X343408D02*
X410718D01*
X245110D02*
X321056D01*
X527304Y67818D02*
X537718D01*
X479806D02*
X490982D01*
X433324D02*
X443738D01*
X344424D02*
X409956D01*
X245872D02*
X321056D01*
X527304Y67564D02*
X537718D01*
X480060D02*
X490982D01*
X433324D02*
X443738D01*
X345186D02*
X409194D01*
X246888D02*
X321056D01*
X527304Y67310D02*
X537718D01*
X480314D02*
X490728D01*
X433324D02*
X443738D01*
X346202D02*
X408178D01*
X248158D02*
X321056D01*
X527304Y67056D02*
X537718D01*
X480314D02*
X490474D01*
X433324D02*
X443738D01*
X347472D02*
X406654D01*
X249682D02*
X321056D01*
X527304Y66802D02*
X537718D01*
X480568D02*
X490474D01*
X433324D02*
X443738D01*
X349250D02*
X404876D01*
X251968D02*
X321056D01*
X527304Y66548D02*
X537718D01*
X480822D02*
X490220D01*
X433324D02*
X443738D01*
X353060D02*
X401320D01*
X256540D02*
X321056D01*
M02*
