G04*
G04 #@! TF.GenerationSoftware,Altium Limited,Altium Designer,20.0.13 (296)*
G04*
G04 Layer_Physical_Order=2*
G04 Layer_Color=16711680*
%FSLAX44Y44*%
%MOMM*%
G71*
G01*
G75*
%ADD15C,0.1524*%
%ADD81C,0.2032*%
%ADD82C,0.2540*%
%ADD83C,0.3048*%
%ADD84C,0.6350*%
%ADD86C,1.5000*%
%ADD87R,1.5000X1.5000*%
G04:AMPARAMS|DCode=88|XSize=1.6mm|YSize=2.1mm|CornerRadius=0mm|HoleSize=0mm|Usage=FLASHONLY|Rotation=180.000|XOffset=0mm|YOffset=0mm|HoleType=Round|Shape=Octagon|*
%AMOCTAGOND88*
4,1,8,0.4000,-1.0500,-0.4000,-1.0500,-0.8000,-0.6500,-0.8000,0.6500,-0.4000,1.0500,0.4000,1.0500,0.8000,0.6500,0.8000,-0.6500,0.4000,-1.0500,0.0*
%
%ADD88OCTAGOND88*%

%ADD89O,2.7000X3.6000*%
%ADD90C,0.5000*%
G36*
X1694424Y623458D02*
X1694321Y623550D01*
X1694199Y623631D01*
X1694059Y623703D01*
X1693900Y623766D01*
X1693722Y623818D01*
X1693526Y623862D01*
X1693311Y623895D01*
X1693078Y623919D01*
X1692556Y623938D01*
Y626478D01*
X1692827Y626483D01*
X1693311Y626522D01*
X1693526Y626555D01*
X1693722Y626598D01*
X1693900Y626651D01*
X1694059Y626714D01*
X1694199Y626786D01*
X1694321Y626867D01*
X1694424Y626958D01*
Y623458D01*
D02*
G37*
G36*
X92981Y624282D02*
X93101Y624227D01*
X93241Y624179D01*
X93399Y624137D01*
X93577Y624102D01*
X93990Y624050D01*
X94225Y624034D01*
X94753Y624021D01*
X95302Y621481D01*
X95033Y621475D01*
X94554Y621429D01*
X94345Y621389D01*
X94155Y621336D01*
X93986Y621272D01*
X93838Y621197D01*
X93709Y621110D01*
X93600Y621011D01*
X93512Y620901D01*
X92880Y624343D01*
X92981Y624282D01*
D02*
G37*
G36*
X96953Y615257D02*
X97076Y615190D01*
X97218Y615130D01*
X97379Y615078D01*
X97558Y615034D01*
X97756Y614999D01*
X98206Y614951D01*
X98459Y614939D01*
X98731Y614935D01*
X99035Y612395D01*
X98765Y612389D01*
X98283Y612346D01*
X98071Y612308D01*
X97879Y612259D01*
X97705Y612199D01*
X97551Y612128D01*
X97416Y612047D01*
X97301Y611954D01*
X97205Y611851D01*
X96848Y615333D01*
X96953Y615257D01*
D02*
G37*
G36*
X1697484Y613347D02*
X1697518Y612860D01*
X1697547Y612648D01*
X1697586Y612456D01*
X1697632Y612285D01*
X1697687Y612135D01*
X1697751Y612005D01*
X1697823Y611896D01*
X1697904Y611807D01*
X1694516D01*
X1694596Y611896D01*
X1694668Y612005D01*
X1694732Y612135D01*
X1694787Y612285D01*
X1694834Y612456D01*
X1694872Y612648D01*
X1694902Y612860D01*
X1694935Y613347D01*
X1694940Y613622D01*
X1697480D01*
X1697484Y613347D01*
D02*
G37*
G36*
X540980Y632346D02*
X682000D01*
Y632332D01*
X683898Y632082D01*
X685666Y631350D01*
X687185Y630185D01*
X688350Y628666D01*
X689082Y626898D01*
X689332Y625000D01*
X689345D01*
Y603000D01*
X689345Y603000D01*
X689280D01*
X689745Y597099D01*
X691126Y591344D01*
X693391Y585876D01*
X696484Y580829D01*
X700328Y576328D01*
X704829Y572484D01*
X709876Y569391D01*
X715344Y567126D01*
X721099Y565745D01*
X727000Y565280D01*
X732901Y565745D01*
X738656Y567126D01*
X744124Y569391D01*
X749171Y572484D01*
X753672Y576328D01*
X757516Y580829D01*
X760609Y585876D01*
X762874Y591344D01*
X764255Y597099D01*
X764720Y603000D01*
X764654D01*
Y625000D01*
X764668D01*
X764918Y626898D01*
X765650Y628666D01*
X766815Y630185D01*
X768334Y631350D01*
X770102Y632082D01*
X772000Y632332D01*
Y632346D01*
X1699734D01*
X1699754Y632346D01*
X1701000Y632345D01*
X1702216Y632215D01*
X1704203Y631954D01*
X1707188Y630717D01*
X1709751Y628751D01*
X1711717Y626188D01*
X1712954Y623203D01*
X1713363Y620090D01*
X1713345Y620000D01*
Y558000D01*
X1713280D01*
X1713745Y552099D01*
X1715126Y546344D01*
X1717391Y540876D01*
X1720484Y535829D01*
X1724328Y531328D01*
X1728829Y527484D01*
X1733876Y524391D01*
X1739344Y522126D01*
X1745099Y520745D01*
X1751000Y520280D01*
Y520345D01*
X1757000D01*
X1757090Y520364D01*
X1760203Y519954D01*
X1763188Y518717D01*
X1765751Y516751D01*
X1767717Y514188D01*
X1768954Y511203D01*
X1769214Y509226D01*
X1769345Y508000D01*
X1769346Y508000D01*
X1769346Y506754D01*
Y-101734D01*
X1769346Y-101754D01*
X1769345Y-103000D01*
X1769215Y-104216D01*
X1768954Y-106203D01*
X1767717Y-109188D01*
X1765751Y-111751D01*
X1763188Y-113717D01*
X1760203Y-114954D01*
X1757090Y-115364D01*
X1757000Y-115345D01*
X1690665D01*
X1690179Y-114172D01*
X1698740Y-105611D01*
X1699470Y-104519D01*
X1699726Y-103230D01*
Y-96820D01*
X1699762Y-96687D01*
X1699875Y-96408D01*
X1700083Y-96016D01*
X1700389Y-95531D01*
X1700766Y-95011D01*
X1702652Y-92852D01*
X1703298Y-92203D01*
X1703520Y-92032D01*
X1705130Y-89935D01*
X1706141Y-87493D01*
X1706486Y-84872D01*
X1706162Y-82405D01*
X1706461Y-82117D01*
X1707313Y-81760D01*
X1709880Y-84327D01*
X1709880Y-84327D01*
X1711056Y-85113D01*
X1711230Y-85148D01*
X1711776Y-85965D01*
X1713443Y-87079D01*
X1715410Y-87470D01*
X1717376Y-87079D01*
X1718455Y-86358D01*
X1718638Y-86265D01*
X1718713Y-86206D01*
X1718718Y-86203D01*
X1718737Y-86197D01*
X1718770Y-86187D01*
X1718820Y-86177D01*
X1718828Y-86176D01*
X1728470D01*
X1728470Y-86176D01*
X1729857Y-85900D01*
X1731034Y-85114D01*
X1736114Y-80034D01*
X1736114Y-80034D01*
X1736900Y-78857D01*
X1737176Y-77470D01*
X1737176Y-77470D01*
Y331470D01*
X1737176Y331470D01*
X1736900Y332858D01*
X1736114Y334034D01*
X1734877Y335271D01*
X1734879Y335280D01*
X1734488Y337247D01*
X1733374Y338914D01*
X1731707Y340028D01*
X1729740Y340419D01*
X1727773Y340028D01*
X1726106Y338914D01*
X1726101Y338906D01*
X1644791D01*
X1644486Y340176D01*
X1649540Y345230D01*
Y351730D01*
X1639000D01*
X1628460D01*
Y345230D01*
X1633514Y340176D01*
X1633209Y338906D01*
X1594791D01*
X1594486Y340176D01*
X1599540Y345230D01*
Y360770D01*
X1594270Y366040D01*
X1592367D01*
Y388726D01*
X1603851Y400209D01*
X1604580Y401302D01*
X1604837Y402590D01*
Y487194D01*
X1606010Y487680D01*
X1608730Y484960D01*
X1612730D01*
Y498000D01*
Y511040D01*
X1608730D01*
X1606010Y508320D01*
X1604837Y508806D01*
Y548640D01*
X1604580Y549928D01*
X1603851Y551021D01*
X1577751Y577120D01*
X1578237Y578293D01*
X1587375D01*
X1600160Y565508D01*
X1600170Y565467D01*
X1600180Y565402D01*
X1600183Y565361D01*
X1600141Y565150D01*
X1600532Y563184D01*
X1601646Y561516D01*
X1603313Y560402D01*
X1605280Y560011D01*
X1607247Y560402D01*
X1608914Y561516D01*
X1610028Y563184D01*
X1610419Y565150D01*
X1610028Y567117D01*
X1608914Y568784D01*
X1607247Y569898D01*
X1605280Y570289D01*
X1605069Y570247D01*
X1605028Y570250D01*
X1604963Y570260D01*
X1604922Y570270D01*
X1592991Y582200D01*
X1593477Y583373D01*
X1602616D01*
X1615400Y570588D01*
X1615410Y570547D01*
X1615420Y570482D01*
X1615423Y570441D01*
X1615381Y570230D01*
X1615772Y568264D01*
X1616886Y566596D01*
X1618553Y565482D01*
X1620520Y565091D01*
X1622487Y565482D01*
X1624154Y566596D01*
X1625268Y568264D01*
X1625659Y570230D01*
X1625268Y572197D01*
X1624154Y573864D01*
X1622487Y574978D01*
X1620520Y575369D01*
X1620309Y575327D01*
X1620268Y575330D01*
X1620203Y575340D01*
X1620161Y575350D01*
X1606391Y589121D01*
X1605298Y589850D01*
X1604010Y590107D01*
X1524399D01*
X1523718Y591377D01*
X1524059Y593090D01*
X1523668Y595056D01*
X1522554Y596724D01*
X1520887Y597838D01*
X1518920Y598229D01*
X1516953Y597838D01*
X1515662Y596975D01*
X1514585D01*
X1513661Y598245D01*
X1513899Y599440D01*
X1513508Y601407D01*
X1512394Y603074D01*
X1510726Y604188D01*
X1508760Y604579D01*
X1508608Y604731D01*
X1508819Y605790D01*
X1508581Y606985D01*
X1509505Y608255D01*
X1677331D01*
X1683945Y601641D01*
Y598170D01*
X1684241Y596683D01*
X1685083Y595423D01*
X1688525Y591982D01*
X1689785Y591139D01*
X1691272Y590844D01*
X1692952D01*
X1694243Y589981D01*
X1696210Y589590D01*
X1698176Y589981D01*
X1699843Y591095D01*
X1700957Y592762D01*
X1701348Y594728D01*
X1700957Y596695D01*
X1699843Y598362D01*
X1698176Y599476D01*
X1696210Y599867D01*
X1694243Y599476D01*
X1692952Y598613D01*
X1692881D01*
X1691715Y599779D01*
Y603250D01*
X1691419Y604737D01*
X1690577Y605997D01*
X1683142Y613432D01*
X1683628Y614605D01*
X1690031D01*
X1691958Y612678D01*
X1691462Y611935D01*
X1691071Y609968D01*
X1691462Y608002D01*
X1692576Y606335D01*
X1694243Y605221D01*
X1696210Y604830D01*
X1698176Y605221D01*
X1699843Y606335D01*
X1700957Y608002D01*
X1701348Y609968D01*
X1700957Y611935D01*
X1700094Y613226D01*
Y613920D01*
X1699799Y615407D01*
X1698957Y616667D01*
X1696743Y618881D01*
X1697161Y620259D01*
X1698176Y620461D01*
X1699843Y621575D01*
X1700957Y623242D01*
X1701348Y625208D01*
X1700957Y627175D01*
X1699843Y628842D01*
X1698176Y629956D01*
X1696210Y630347D01*
X1694243Y629956D01*
X1692952Y629093D01*
X855078D01*
X853592Y628797D01*
X852332Y627955D01*
X774361Y549985D01*
X696157D01*
X674217Y571925D01*
X672956Y572767D01*
X671470Y573063D01*
X649880D01*
X648393Y572767D01*
X647133Y571925D01*
X643323Y568115D01*
X642481Y566855D01*
X642185Y565368D01*
Y557148D01*
X642481Y555662D01*
X643323Y554402D01*
X648339Y549385D01*
X648642Y547862D01*
X649756Y546195D01*
X651423Y545081D01*
X653390Y544690D01*
X655356Y545081D01*
X657023Y546195D01*
X658137Y547862D01*
X658528Y549828D01*
X658180Y551579D01*
X658694Y552119D01*
X659210Y552419D01*
X660463Y551581D01*
X661987Y551278D01*
X682611Y530653D01*
X683872Y529811D01*
X685358Y529515D01*
X690694D01*
X691180Y528342D01*
X683831Y520993D01*
X637898D01*
X636606Y521856D01*
X634640Y522247D01*
X632673Y521856D01*
X631006Y520742D01*
X629892Y519075D01*
X629501Y517108D01*
X629892Y515142D01*
X631006Y513475D01*
X632673Y512361D01*
X634640Y511970D01*
X636126Y512265D01*
X637117Y511476D01*
X637226Y511288D01*
X637121Y510758D01*
X637226Y510229D01*
X637117Y510041D01*
X636126Y509252D01*
X634640Y509547D01*
X632673Y509156D01*
X631006Y508042D01*
X629892Y506375D01*
X629501Y504408D01*
X629892Y502442D01*
X630718Y501207D01*
X630148Y499937D01*
X619884D01*
X606901Y512921D01*
X605808Y513650D01*
X604520Y513907D01*
X494967D01*
X494288Y515177D01*
X494968Y516194D01*
X495359Y518160D01*
X494968Y520126D01*
X493854Y521794D01*
X492187Y522908D01*
X490220Y523299D01*
X489276Y524263D01*
Y524757D01*
X490220Y525721D01*
X492187Y526112D01*
X493854Y527226D01*
X494968Y528894D01*
X495359Y530860D01*
X494968Y532826D01*
X493854Y534494D01*
X492187Y535608D01*
X490220Y535999D01*
X489891Y535933D01*
X488993Y536831D01*
X489009Y536910D01*
X488900Y537457D01*
X489798Y538355D01*
X490220Y538271D01*
X492187Y538662D01*
X493854Y539776D01*
X494968Y541443D01*
X495359Y543410D01*
X494968Y545377D01*
X493854Y547044D01*
X492187Y548158D01*
X490220Y548549D01*
X489798Y548465D01*
X488900Y549363D01*
X489009Y549910D01*
X488618Y551876D01*
X487504Y553544D01*
X485836Y554658D01*
X483870Y555049D01*
X481903Y554658D01*
X480612Y553795D01*
X463997D01*
X463840Y555065D01*
X467007Y555858D01*
X474649Y558592D01*
X481986Y562062D01*
X488947Y566235D01*
X495466Y571070D01*
X501480Y576520D01*
X506930Y582534D01*
X511765Y589053D01*
X515938Y596014D01*
X519408Y603351D01*
X522142Y610993D01*
X524013Y618463D01*
X524013D01*
X524345Y619655D01*
X524947Y621641D01*
X526551Y624641D01*
X528709Y627271D01*
X531339Y629428D01*
X534339Y631032D01*
X537594Y632020D01*
X540954Y632351D01*
X540980Y632346D01*
D02*
G37*
G36*
X1501895Y604040D02*
X1501791Y604131D01*
X1501669Y604213D01*
X1501529Y604285D01*
X1501370Y604347D01*
X1501192Y604400D01*
X1500996Y604443D01*
X1500782Y604477D01*
X1500549Y604501D01*
X1500027Y604520D01*
Y607060D01*
X1500297Y607065D01*
X1500782Y607103D01*
X1500996Y607137D01*
X1501192Y607180D01*
X1501370Y607233D01*
X1501529Y607295D01*
X1501669Y607367D01*
X1501791Y607449D01*
X1501895Y607540D01*
Y604040D01*
D02*
G37*
G36*
X90748Y606223D02*
X90871Y606145D01*
X91012Y606075D01*
X91172Y606015D01*
X91350Y605964D01*
X91547Y605923D01*
X91762Y605890D01*
X92247Y605853D01*
X92518Y605849D01*
X92587Y603309D01*
X92317Y603304D01*
X91833Y603264D01*
X91619Y603229D01*
X91423Y603185D01*
X91247Y603130D01*
X91088Y603065D01*
X90949Y602991D01*
X90828Y602907D01*
X90726Y602812D01*
X90644Y606311D01*
X90748Y606223D01*
D02*
G37*
G36*
X1506975Y597690D02*
X1506871Y597781D01*
X1506749Y597863D01*
X1506609Y597935D01*
X1506450Y597997D01*
X1506272Y598050D01*
X1506076Y598093D01*
X1505862Y598127D01*
X1505629Y598151D01*
X1505107Y598170D01*
Y600710D01*
X1505377Y600715D01*
X1505862Y600753D01*
X1506076Y600787D01*
X1506272Y600830D01*
X1506450Y600883D01*
X1506609Y600945D01*
X1506749Y601017D01*
X1506871Y601099D01*
X1506975Y601190D01*
Y597690D01*
D02*
G37*
G36*
X1694424Y592978D02*
X1694321Y593070D01*
X1694199Y593151D01*
X1694059Y593223D01*
X1693900Y593286D01*
X1693722Y593338D01*
X1693526Y593382D01*
X1693311Y593415D01*
X1693078Y593439D01*
X1692556Y593458D01*
Y595998D01*
X1692827Y596003D01*
X1693311Y596042D01*
X1693526Y596075D01*
X1693722Y596118D01*
X1693900Y596171D01*
X1694059Y596234D01*
X1694199Y596306D01*
X1694321Y596387D01*
X1694424Y596478D01*
Y592978D01*
D02*
G37*
G36*
X316199Y595467D02*
X316227Y595323D01*
X316275Y595173D01*
X316344Y595017D01*
X316432Y594854D01*
X316540Y594685D01*
X316668Y594509D01*
X316816Y594327D01*
X317171Y593945D01*
X315375Y592149D01*
X315181Y592336D01*
X314811Y592652D01*
X314635Y592780D01*
X314466Y592888D01*
X314303Y592976D01*
X314147Y593045D01*
X313997Y593093D01*
X313853Y593121D01*
X313715Y593130D01*
X316190Y595605D01*
X316199Y595467D01*
D02*
G37*
G36*
X1517135Y591340D02*
X1517031Y591431D01*
X1516909Y591513D01*
X1516769Y591585D01*
X1516610Y591647D01*
X1516432Y591700D01*
X1516236Y591743D01*
X1516022Y591777D01*
X1515789Y591801D01*
X1515267Y591820D01*
Y594360D01*
X1515537Y594365D01*
X1516022Y594403D01*
X1516236Y594437D01*
X1516432Y594480D01*
X1516610Y594533D01*
X1516769Y594595D01*
X1516909Y594667D01*
X1517031Y594749D01*
X1517135Y594840D01*
Y591340D01*
D02*
G37*
G36*
X299006Y588467D02*
X299129Y588390D01*
X299270Y588322D01*
X299430Y588263D01*
X299609Y588214D01*
X299806Y588173D01*
X300021Y588141D01*
X300507Y588105D01*
X300777Y588100D01*
X300884Y585560D01*
X300614Y585555D01*
X300130Y585515D01*
X299917Y585480D01*
X299722Y585434D01*
X299545Y585379D01*
X299388Y585313D01*
X299249Y585237D01*
X299129Y585151D01*
X299027Y585056D01*
X298901Y588553D01*
X299006Y588467D01*
D02*
G37*
G36*
X1618480Y573362D02*
X1618657Y573227D01*
X1618846Y573108D01*
X1619046Y573005D01*
X1619258Y572919D01*
X1619482Y572849D01*
X1619718Y572795D01*
X1619965Y572757D01*
X1620224Y572735D01*
X1620495Y572730D01*
X1618020Y570255D01*
X1618015Y570526D01*
X1617993Y570785D01*
X1617955Y571032D01*
X1617901Y571268D01*
X1617831Y571492D01*
X1617745Y571704D01*
X1617642Y571904D01*
X1617523Y572093D01*
X1617388Y572270D01*
X1617237Y572435D01*
X1618315Y573513D01*
X1618480Y573362D01*
D02*
G37*
G36*
X1299710Y570822D02*
X1299887Y570687D01*
X1300076Y570568D01*
X1300276Y570465D01*
X1300488Y570379D01*
X1300712Y570308D01*
X1300948Y570255D01*
X1301195Y570217D01*
X1301454Y570195D01*
X1301725Y570190D01*
X1299250Y567715D01*
X1299245Y567986D01*
X1299223Y568245D01*
X1299185Y568492D01*
X1299131Y568728D01*
X1299061Y568952D01*
X1298975Y569164D01*
X1298872Y569365D01*
X1298753Y569553D01*
X1298618Y569730D01*
X1298467Y569896D01*
X1299545Y570973D01*
X1299710Y570822D01*
D02*
G37*
G36*
X1603240Y568282D02*
X1603417Y568147D01*
X1603605Y568028D01*
X1603806Y567925D01*
X1604018Y567839D01*
X1604242Y567769D01*
X1604478Y567715D01*
X1604725Y567677D01*
X1604984Y567655D01*
X1605255Y567650D01*
X1602780Y565175D01*
X1602775Y565446D01*
X1602753Y565705D01*
X1602715Y565952D01*
X1602661Y566188D01*
X1602591Y566412D01*
X1602505Y566624D01*
X1602402Y566824D01*
X1602283Y567013D01*
X1602148Y567190D01*
X1601997Y567355D01*
X1603074Y568433D01*
X1603240Y568282D01*
D02*
G37*
G36*
X1284470Y564472D02*
X1284647Y564337D01*
X1284836Y564218D01*
X1285036Y564115D01*
X1285248Y564029D01*
X1285472Y563959D01*
X1285708Y563905D01*
X1285955Y563867D01*
X1286214Y563845D01*
X1286485Y563840D01*
X1284010Y561365D01*
X1284005Y561636D01*
X1283983Y561895D01*
X1283945Y562142D01*
X1283891Y562378D01*
X1283821Y562602D01*
X1283735Y562814D01*
X1283632Y563014D01*
X1283513Y563203D01*
X1283378Y563380D01*
X1283227Y563545D01*
X1284305Y564623D01*
X1284470Y564472D01*
D02*
G37*
G36*
X655578Y564487D02*
X655700Y564406D01*
X655841Y564334D01*
X656000Y564271D01*
X656177Y564218D01*
X656373Y564175D01*
X656588Y564142D01*
X656821Y564118D01*
X657343Y564098D01*
Y561558D01*
X657073Y561554D01*
X656588Y561515D01*
X656373Y561482D01*
X656177Y561438D01*
X656000Y561386D01*
X655841Y561323D01*
X655700Y561251D01*
X655578Y561170D01*
X655475Y561078D01*
Y564578D01*
X655578Y564487D01*
D02*
G37*
G36*
X981685Y555030D02*
X981414Y555025D01*
X981155Y555003D01*
X980908Y554965D01*
X980672Y554911D01*
X980448Y554841D01*
X980236Y554755D01*
X980035Y554652D01*
X979847Y554533D01*
X979670Y554398D01*
X979504Y554247D01*
X978427Y555325D01*
X978578Y555490D01*
X978713Y555667D01*
X978832Y555855D01*
X978935Y556056D01*
X979021Y556268D01*
X979091Y556492D01*
X979145Y556728D01*
X979183Y556975D01*
X979205Y557234D01*
X979210Y557505D01*
X981685Y555030D01*
D02*
G37*
G36*
X348406Y632020D02*
X351661Y631032D01*
X354661Y629428D01*
X357291Y627271D01*
X359449Y624641D01*
X361053Y621641D01*
X361655Y619655D01*
X361987Y618463D01*
X362293Y617242D01*
X363858Y610993D01*
X366592Y603351D01*
X370062Y596014D01*
X374235Y589053D01*
X379070Y582534D01*
X384520Y576520D01*
X390534Y571070D01*
X397053Y566235D01*
X404014Y562062D01*
X411351Y558592D01*
X418993Y555858D01*
X422160Y555065D01*
X422003Y553795D01*
X399119D01*
X327416Y625498D01*
X326155Y626340D01*
X324669Y626636D01*
X94184Y626636D01*
X93991Y626660D01*
X93982Y626663D01*
X93406Y627048D01*
X91440Y627439D01*
X89473Y627048D01*
X87806Y625934D01*
X86692Y624267D01*
X86301Y622300D01*
X86692Y620334D01*
X87806Y618666D01*
X89473Y617552D01*
X90317Y617385D01*
X90901Y615974D01*
X90502Y615377D01*
X90111Y613410D01*
X90502Y611443D01*
X91132Y610501D01*
X90362Y609368D01*
X88900Y609659D01*
X86933Y609268D01*
X85266Y608154D01*
X84152Y606487D01*
X83761Y604520D01*
X84152Y602553D01*
X85266Y600886D01*
X86933Y599772D01*
X88900Y599381D01*
X90866Y599772D01*
X92246Y600694D01*
X309911Y600694D01*
X310296Y599424D01*
X310056Y599264D01*
X308942Y597597D01*
X308551Y595630D01*
X308942Y593663D01*
X310056Y591996D01*
X309777Y590816D01*
X309688Y590715D01*
X300330D01*
X300306Y590717D01*
X300298Y590718D01*
X299146Y591488D01*
X297180Y591879D01*
X295214Y591488D01*
X293546Y590374D01*
X292432Y588707D01*
X292041Y586740D01*
X292432Y584773D01*
X293546Y583106D01*
X295214Y581992D01*
X297180Y581601D01*
X298642Y581892D01*
X299412Y580759D01*
X298782Y579817D01*
X298391Y577850D01*
X298782Y575883D01*
X299896Y574216D01*
X301563Y573102D01*
X303530Y572711D01*
X305352Y573074D01*
X363013Y515413D01*
X364273Y514571D01*
X365760Y514275D01*
X374551D01*
X374936Y513005D01*
X374809Y512921D01*
X365919Y504031D01*
X365190Y502938D01*
X364933Y501650D01*
Y495424D01*
X358016Y488507D01*
X350584D01*
X350548Y488529D01*
X350494Y488569D01*
X350463Y488595D01*
X350344Y488774D01*
X348676Y489888D01*
X346710Y490279D01*
X344743Y489888D01*
X343076Y488774D01*
X341962Y487107D01*
X341571Y485140D01*
X341419Y484988D01*
X340360Y485199D01*
X338394Y484808D01*
X336726Y483694D01*
X335612Y482026D01*
X335221Y480060D01*
X335612Y478093D01*
X336726Y476426D01*
X338394Y475312D01*
X340360Y474921D01*
X341419Y475132D01*
X341571Y474980D01*
X341962Y473013D01*
X343076Y471346D01*
X344743Y470232D01*
X346710Y469841D01*
X348676Y470232D01*
X350344Y471346D01*
X350463Y471525D01*
X350494Y471551D01*
X350548Y471591D01*
X350584Y471613D01*
X364490D01*
X365778Y471870D01*
X366871Y472599D01*
X382111Y487839D01*
X382840Y488932D01*
X383097Y490220D01*
Y495176D01*
X384935Y497013D01*
X450451D01*
X451132Y495743D01*
X450791Y494030D01*
X451182Y492063D01*
X452296Y490396D01*
X453964Y489282D01*
X455572Y488962D01*
Y487668D01*
X453964Y487348D01*
X452296Y486234D01*
X451182Y484566D01*
X450791Y482600D01*
X451182Y480634D01*
X452296Y478966D01*
X453964Y477852D01*
X455930Y477461D01*
X457896Y477852D01*
X459564Y478966D01*
X459683Y479145D01*
X459714Y479171D01*
X459768Y479211D01*
X459804Y479233D01*
X586615D01*
X596358Y469491D01*
X596973Y468603D01*
X596521Y467622D01*
X595962Y466786D01*
X595571Y464820D01*
X595419Y464668D01*
X594360Y464879D01*
X592393Y464488D01*
X590726Y463374D01*
X589612Y461707D01*
X589221Y459740D01*
X589612Y457774D01*
X590726Y456106D01*
X592393Y454992D01*
X594360Y454601D01*
X595419Y454812D01*
X595571Y454660D01*
X595962Y452693D01*
X597076Y451026D01*
X598744Y449912D01*
X600710Y449521D01*
X602677Y449912D01*
X604344Y451026D01*
X604463Y451205D01*
X604494Y451231D01*
X604548Y451271D01*
X604584Y451293D01*
X928245D01*
X945633Y433905D01*
Y366040D01*
X943730D01*
X938460Y360770D01*
Y345230D01*
X943730Y339960D01*
X954270D01*
X959540Y345230D01*
Y360770D01*
X954270Y366040D01*
X952367D01*
Y435300D01*
X952110Y436588D01*
X951381Y437681D01*
X932021Y457041D01*
X930928Y457770D01*
X929640Y458027D01*
X842907D01*
X842421Y459200D01*
X853281Y470059D01*
X854010Y471152D01*
X854267Y472440D01*
Y501525D01*
X901824Y549083D01*
X976630D01*
X977918Y549340D01*
X979011Y550069D01*
X981351Y552410D01*
X981393Y552420D01*
X981458Y552430D01*
X981499Y552433D01*
X981710Y552391D01*
X983677Y552782D01*
X985344Y553896D01*
X986458Y555564D01*
X986849Y557530D01*
X986458Y559496D01*
X985344Y561164D01*
X984416Y561783D01*
X984801Y563053D01*
X1280036D01*
X1281390Y561698D01*
X1281400Y561657D01*
X1281410Y561592D01*
X1281413Y561551D01*
X1281371Y561340D01*
X1281762Y559374D01*
X1282876Y557706D01*
X1284543Y556592D01*
X1286510Y556201D01*
X1288477Y556592D01*
X1290144Y557706D01*
X1291258Y559374D01*
X1291649Y561340D01*
X1291258Y563307D01*
X1290144Y564974D01*
X1288477Y566088D01*
X1286776Y566426D01*
X1286435Y566863D01*
X1287052Y568127D01*
X1287061Y568133D01*
X1295405D01*
X1296611Y567690D01*
X1297002Y565723D01*
X1298116Y564056D01*
X1299783Y562942D01*
X1301750Y562551D01*
X1303716Y562942D01*
X1305384Y564056D01*
X1306498Y565723D01*
X1306889Y567690D01*
X1306498Y569656D01*
X1305384Y571324D01*
X1304456Y571943D01*
X1304841Y573213D01*
X1572135D01*
X1598103Y547245D01*
Y508866D01*
X1596930Y508380D01*
X1594270Y511040D01*
X1583730D01*
X1578460Y505770D01*
Y490230D01*
X1583730Y484960D01*
X1594270D01*
X1596930Y487620D01*
X1598103Y487134D01*
Y403984D01*
X1586619Y392501D01*
X1585890Y391408D01*
X1585633Y390120D01*
Y366040D01*
X1583730D01*
X1578460Y360770D01*
Y345230D01*
X1583514Y340176D01*
X1583209Y338906D01*
X1558522D01*
X1555566Y341862D01*
Y348726D01*
X1555513Y348992D01*
X1555808Y349434D01*
X1556199Y351400D01*
X1555808Y353367D01*
X1554694Y355034D01*
X1553026Y356147D01*
X1551060Y356539D01*
X1551051Y356537D01*
X1539056Y368532D01*
Y445538D01*
X1545581Y452063D01*
X1545590Y452061D01*
X1547556Y452452D01*
X1549224Y453566D01*
X1550338Y455233D01*
X1550729Y457200D01*
X1550338Y459166D01*
X1549224Y460834D01*
X1547556Y461948D01*
X1545590Y462339D01*
X1543624Y461948D01*
X1541956Y460834D01*
X1540842Y459166D01*
X1540451Y457200D01*
X1540453Y457191D01*
X1532866Y449604D01*
X1532080Y448428D01*
X1531804Y447040D01*
X1531804Y447040D01*
Y367030D01*
X1531804Y367030D01*
X1532080Y365643D01*
X1532866Y364466D01*
X1545923Y351409D01*
X1545921Y351400D01*
X1546313Y349434D01*
X1547426Y347766D01*
X1548314Y347173D01*
Y340360D01*
X1548314Y340360D01*
X1548590Y338973D01*
X1549376Y337796D01*
X1554456Y332716D01*
X1554456Y332716D01*
X1555632Y331930D01*
X1557020Y331654D01*
X1557020Y331654D01*
X1726101D01*
X1726106Y331646D01*
X1727773Y330532D01*
X1729740Y330141D01*
X1729924Y328908D01*
Y-75968D01*
X1726968Y-78924D01*
X1719195D01*
X1719043Y-78698D01*
X1717376Y-77584D01*
X1715410Y-77193D01*
X1713443Y-77584D01*
X1713412Y-77605D01*
X1696744Y-60936D01*
X1695567Y-60150D01*
X1694180Y-59874D01*
X1694180Y-59874D01*
X1427555D01*
Y6350D01*
X1427259Y7837D01*
X1426417Y9097D01*
X1381967Y53547D01*
X1380707Y54389D01*
X1379220Y54685D01*
X1329703D01*
X1329024Y55955D01*
X1329358Y56453D01*
X1329749Y58420D01*
X1329358Y60387D01*
X1328244Y62054D01*
X1328065Y62173D01*
X1328039Y62204D01*
X1327999Y62258D01*
X1327977Y62294D01*
Y118046D01*
X1327999Y118082D01*
X1328039Y118136D01*
X1328065Y118167D01*
X1328244Y118286D01*
X1329358Y119953D01*
X1329749Y121920D01*
X1329358Y123886D01*
X1328244Y125554D01*
X1326577Y126668D01*
X1324610Y127059D01*
X1322643Y126668D01*
X1320976Y125554D01*
X1319862Y123886D01*
X1319471Y121920D01*
X1319862Y119953D01*
X1320976Y118286D01*
X1321155Y118167D01*
X1321181Y118136D01*
X1321221Y118082D01*
X1321243Y118046D01*
Y62294D01*
X1321221Y62258D01*
X1321181Y62204D01*
X1321155Y62173D01*
X1320976Y62054D01*
X1319862Y60387D01*
X1319471Y58420D01*
X1319862Y56453D01*
X1320196Y55955D01*
X1319517Y54685D01*
X1304303D01*
X1303624Y55955D01*
X1303958Y56453D01*
X1304349Y58420D01*
X1303958Y60387D01*
X1302844Y62054D01*
X1302665Y62173D01*
X1302639Y62204D01*
X1302599Y62258D01*
X1302577Y62294D01*
Y111696D01*
X1302599Y111732D01*
X1302639Y111786D01*
X1302665Y111817D01*
X1302844Y111936D01*
X1303958Y113603D01*
X1304349Y115570D01*
X1303958Y117536D01*
X1302844Y119204D01*
X1301176Y120318D01*
X1299210Y120709D01*
X1297243Y120318D01*
X1295576Y119204D01*
X1294462Y117536D01*
X1294071Y115570D01*
X1294462Y113603D01*
X1295576Y111936D01*
X1295755Y111817D01*
X1295781Y111786D01*
X1295821Y111732D01*
X1295843Y111696D01*
Y62294D01*
X1295821Y62258D01*
X1295781Y62204D01*
X1295755Y62173D01*
X1295576Y62054D01*
X1294462Y60387D01*
X1294071Y58420D01*
X1294462Y56453D01*
X1294796Y55955D01*
X1294117Y54685D01*
X1290659D01*
X1283958Y61385D01*
X1282698Y62227D01*
X1281212Y62523D01*
X1197968D01*
X1196676Y63386D01*
X1194710Y63777D01*
X1192743Y63386D01*
X1191076Y62272D01*
X1189962Y60605D01*
X1189571Y58638D01*
X1189962Y56672D01*
X1191076Y55005D01*
X1192743Y53891D01*
X1194710Y53500D01*
X1196676Y53891D01*
X1197968Y54754D01*
X1279603D01*
X1286303Y48053D01*
X1287563Y47211D01*
X1289050Y46915D01*
X1377611D01*
X1419785Y4741D01*
Y-64770D01*
Y-85642D01*
X1418922Y-86933D01*
X1418531Y-88900D01*
X1418922Y-90866D01*
X1420036Y-92534D01*
X1420964Y-93153D01*
X1420578Y-94423D01*
X1397897D01*
X1397411Y-93250D01*
X1400641Y-90021D01*
X1401370Y-88928D01*
X1401627Y-87640D01*
X1401627Y-87640D01*
Y-81125D01*
X1401649Y-81089D01*
X1401689Y-81036D01*
X1401715Y-81004D01*
X1401894Y-80885D01*
X1403008Y-79218D01*
X1403399Y-77252D01*
X1403008Y-75285D01*
X1401894Y-73618D01*
X1400226Y-72504D01*
X1398260Y-72113D01*
X1396293Y-72504D01*
X1394626Y-73618D01*
X1393512Y-75285D01*
X1393121Y-77252D01*
X1393512Y-79218D01*
X1394626Y-80885D01*
X1394805Y-81004D01*
X1394831Y-81036D01*
X1394871Y-81089D01*
X1394893Y-81125D01*
Y-86245D01*
X1391796Y-89343D01*
X1360721D01*
X1360336Y-88073D01*
X1361264Y-87454D01*
X1362378Y-85787D01*
X1362769Y-83820D01*
X1362378Y-81854D01*
X1361264Y-80186D01*
X1359597Y-79072D01*
X1357630Y-78681D01*
X1355663Y-79072D01*
X1353996Y-80186D01*
X1353877Y-80365D01*
X1353846Y-80391D01*
X1353792Y-80431D01*
X1353756Y-80453D01*
X1270125D01*
X1264477Y-74805D01*
Y-73259D01*
X1265747Y-72828D01*
X1266839Y-74252D01*
X1268937Y-75862D01*
X1271379Y-76873D01*
X1274000Y-77218D01*
X1276621Y-76873D01*
X1279063Y-75862D01*
X1281161Y-74252D01*
X1282770Y-72155D01*
X1283782Y-69713D01*
X1284127Y-67092D01*
X1283782Y-64471D01*
X1282770Y-62028D01*
X1281161Y-59931D01*
X1279063Y-58322D01*
X1276621Y-57310D01*
X1274000Y-56965D01*
X1271379Y-57310D01*
X1268937Y-58322D01*
X1266839Y-59931D01*
X1265747Y-61355D01*
X1264477Y-60924D01*
Y-54202D01*
X1264220Y-52913D01*
X1263491Y-51821D01*
X1259430Y-47760D01*
X1259360Y-47641D01*
X1259243Y-47363D01*
X1259113Y-46940D01*
X1258987Y-46380D01*
X1258885Y-45745D01*
X1258693Y-42885D01*
X1258690Y-41970D01*
X1258727Y-41692D01*
X1258382Y-39071D01*
X1257370Y-36628D01*
X1255761Y-34531D01*
X1253663Y-32922D01*
X1251221Y-31910D01*
X1248600Y-31565D01*
X1245979Y-31910D01*
X1243537Y-32922D01*
X1241439Y-34531D01*
X1239830Y-36628D01*
X1238818Y-39071D01*
X1238473Y-41692D01*
X1238818Y-44313D01*
X1239830Y-46755D01*
X1241439Y-48852D01*
X1243537Y-50462D01*
X1245979Y-51473D01*
X1248600Y-51818D01*
X1248878Y-51782D01*
X1249839Y-51785D01*
X1250846Y-51817D01*
X1252628Y-51972D01*
X1253288Y-52078D01*
X1253848Y-52204D01*
X1254271Y-52335D01*
X1254549Y-52452D01*
X1254669Y-52521D01*
X1257743Y-55596D01*
Y-60429D01*
X1256473Y-60860D01*
X1255761Y-59931D01*
X1253663Y-58322D01*
X1251221Y-57310D01*
X1248600Y-56965D01*
X1245979Y-57310D01*
X1243537Y-58322D01*
X1241439Y-59931D01*
X1239830Y-62028D01*
X1238818Y-64471D01*
X1238473Y-67092D01*
X1238818Y-69713D01*
X1239830Y-72155D01*
X1241439Y-74252D01*
X1243537Y-75862D01*
X1245979Y-76873D01*
X1248600Y-77218D01*
X1251221Y-76873D01*
X1253663Y-75862D01*
X1255761Y-74252D01*
X1256473Y-73323D01*
X1257743Y-73755D01*
Y-76200D01*
X1258000Y-77488D01*
X1258729Y-78581D01*
X1266349Y-86201D01*
X1267442Y-86930D01*
X1268730Y-87187D01*
X1353756D01*
X1353792Y-87209D01*
X1353846Y-87249D01*
X1353877Y-87275D01*
X1353996Y-87454D01*
X1354924Y-88073D01*
X1354539Y-89343D01*
X962785D01*
X943451Y-70009D01*
X942358Y-69280D01*
X941070Y-69023D01*
X870984D01*
X870458Y-67753D01*
X873885Y-64327D01*
X1066675D01*
X1083469Y-81121D01*
X1084562Y-81850D01*
X1085850Y-82107D01*
X1129030D01*
X1130318Y-81850D01*
X1131411Y-81121D01*
X1138481Y-74050D01*
X1139748Y-74133D01*
X1139839Y-74252D01*
X1141937Y-75862D01*
X1144379Y-76873D01*
X1147000Y-77218D01*
X1149621Y-76873D01*
X1152063Y-75862D01*
X1154161Y-74252D01*
X1155770Y-72155D01*
X1156782Y-69713D01*
X1157127Y-67092D01*
X1156782Y-64471D01*
X1155770Y-62028D01*
X1154161Y-59931D01*
X1152063Y-58322D01*
X1149621Y-57310D01*
X1147000Y-56965D01*
X1144379Y-57310D01*
X1141937Y-58322D01*
X1139839Y-59931D01*
X1138230Y-62028D01*
X1137218Y-64471D01*
X1136973Y-66338D01*
X1136063Y-66946D01*
X1132374Y-70634D01*
X1131298Y-69915D01*
X1131382Y-69713D01*
X1131727Y-67092D01*
X1131382Y-64471D01*
X1130370Y-62028D01*
X1128761Y-59931D01*
X1126663Y-58322D01*
X1124221Y-57310D01*
X1121600Y-56965D01*
X1121322Y-57002D01*
X1120361Y-56999D01*
X1119354Y-56966D01*
X1117572Y-56811D01*
X1116912Y-56705D01*
X1116352Y-56579D01*
X1115929Y-56448D01*
X1115651Y-56331D01*
X1115531Y-56262D01*
X1112769Y-53499D01*
X1111677Y-52770D01*
X1110388Y-52513D01*
X1107186D01*
X1106240Y-51732D01*
X1106240Y-51243D01*
Y-42962D01*
X1086160D01*
Y-51243D01*
X1086160Y-51732D01*
X1085214Y-52513D01*
X868680D01*
X867392Y-52770D01*
X867382Y-52776D01*
X865970Y-52192D01*
X865808Y-51374D01*
X864694Y-49706D01*
X863027Y-48592D01*
X861060Y-48201D01*
X860849Y-48243D01*
X860808Y-48240D01*
X860743Y-48230D01*
X860702Y-48220D01*
X857091Y-44609D01*
X855998Y-43880D01*
X854710Y-43623D01*
X832249D01*
X831568Y-42353D01*
X831909Y-40640D01*
X831518Y-38674D01*
X830655Y-37382D01*
Y-8890D01*
X830359Y-7403D01*
X829517Y-6143D01*
X821660Y1713D01*
X822187Y2983D01*
X940946D01*
X966629Y-22701D01*
X967722Y-23430D01*
X969010Y-23687D01*
X1144146D01*
X1149835Y-29376D01*
X1149242Y-30579D01*
X1147000Y-30284D01*
X1144047Y-30673D01*
X1141296Y-31812D01*
X1138934Y-33625D01*
X1137121Y-35988D01*
X1135981Y-38739D01*
X1135592Y-41692D01*
X1135981Y-44644D01*
X1137121Y-47395D01*
X1138934Y-49758D01*
X1141296Y-51571D01*
X1144047Y-52710D01*
X1147000Y-53099D01*
X1149952Y-52710D01*
X1152704Y-51571D01*
X1155066Y-49758D01*
X1156143Y-48355D01*
X1157413Y-48786D01*
Y-55472D01*
X1157670Y-56760D01*
X1158399Y-57852D01*
X1161570Y-61023D01*
X1161640Y-61143D01*
X1161757Y-61420D01*
X1161887Y-61843D01*
X1162013Y-62403D01*
X1162115Y-63038D01*
X1162307Y-65898D01*
X1162310Y-66814D01*
X1162273Y-67092D01*
X1162618Y-69713D01*
X1163630Y-72155D01*
X1165239Y-74252D01*
X1167337Y-75862D01*
X1169779Y-76873D01*
X1172400Y-77218D01*
X1175021Y-76873D01*
X1177463Y-75862D01*
X1179561Y-74252D01*
X1181170Y-72155D01*
X1182182Y-69713D01*
X1182527Y-67092D01*
X1182182Y-64471D01*
X1181170Y-62028D01*
X1179561Y-59931D01*
X1177463Y-58322D01*
X1175021Y-57310D01*
X1172400Y-56965D01*
X1172122Y-57002D01*
X1171161Y-56999D01*
X1170154Y-56966D01*
X1168372Y-56811D01*
X1167712Y-56705D01*
X1167152Y-56579D01*
X1166729Y-56448D01*
X1166451Y-56331D01*
X1166331Y-56262D01*
X1164147Y-54077D01*
Y-51215D01*
X1165417Y-50589D01*
X1166696Y-51571D01*
X1169447Y-52710D01*
X1172400Y-53099D01*
X1175352Y-52710D01*
X1178104Y-51571D01*
X1180273Y-49906D01*
X1181543Y-50239D01*
Y-54202D01*
X1181800Y-55490D01*
X1182529Y-56582D01*
X1186970Y-61023D01*
X1187040Y-61143D01*
X1187157Y-61420D01*
X1187287Y-61844D01*
X1187413Y-62403D01*
X1187515Y-63038D01*
X1187707Y-65898D01*
X1187710Y-66814D01*
X1187673Y-67092D01*
X1188018Y-69713D01*
X1189030Y-72155D01*
X1190639Y-74252D01*
X1192737Y-75862D01*
X1195179Y-76873D01*
X1197800Y-77218D01*
X1200421Y-76873D01*
X1202863Y-75862D01*
X1204961Y-74252D01*
X1206570Y-72155D01*
X1207582Y-69713D01*
X1207927Y-67092D01*
X1207582Y-64471D01*
X1206570Y-62028D01*
X1204961Y-59931D01*
X1202863Y-58322D01*
X1200421Y-57310D01*
X1197800Y-56965D01*
X1197522Y-57002D01*
X1196561Y-56999D01*
X1195554Y-56966D01*
X1193772Y-56811D01*
X1193112Y-56705D01*
X1192552Y-56579D01*
X1192129Y-56448D01*
X1191851Y-56331D01*
X1191731Y-56262D01*
X1188277Y-52807D01*
Y-49835D01*
X1189479Y-49426D01*
X1189734Y-49758D01*
X1192096Y-51571D01*
X1194847Y-52710D01*
X1197800Y-53099D01*
X1200752Y-52710D01*
X1203504Y-51571D01*
X1205866Y-49758D01*
X1207679Y-47395D01*
X1208819Y-44644D01*
X1209208Y-41692D01*
X1208819Y-38739D01*
X1207679Y-35988D01*
X1205866Y-33625D01*
X1203504Y-31812D01*
X1200752Y-30673D01*
X1197800Y-30284D01*
X1194847Y-30673D01*
X1192096Y-31812D01*
X1189734Y-33625D01*
X1189479Y-33957D01*
X1188277Y-33548D01*
Y-30480D01*
X1188020Y-29192D01*
X1187291Y-28099D01*
X1173891Y-14700D01*
X1174377Y-13527D01*
X1262255D01*
X1270633Y-21904D01*
Y-29743D01*
X1270598Y-29876D01*
X1270484Y-30155D01*
X1270277Y-30547D01*
X1269970Y-31032D01*
X1269594Y-31552D01*
X1267708Y-33711D01*
X1267062Y-34360D01*
X1266839Y-34531D01*
X1265230Y-36628D01*
X1264218Y-39071D01*
X1263873Y-41692D01*
X1264218Y-44313D01*
X1265230Y-46755D01*
X1266839Y-48852D01*
X1268937Y-50462D01*
X1271379Y-51473D01*
X1274000Y-51818D01*
X1276621Y-51473D01*
X1279063Y-50462D01*
X1281161Y-48852D01*
X1281873Y-47923D01*
X1283143Y-48355D01*
Y-54202D01*
X1283400Y-55490D01*
X1284129Y-56582D01*
X1288570Y-61023D01*
X1288640Y-61143D01*
X1288757Y-61420D01*
X1288887Y-61844D01*
X1289013Y-62403D01*
X1289115Y-63038D01*
X1289307Y-65898D01*
X1289310Y-66814D01*
X1289273Y-67092D01*
X1289618Y-69713D01*
X1290630Y-72155D01*
X1292239Y-74252D01*
X1294337Y-75862D01*
X1296779Y-76873D01*
X1299400Y-77218D01*
X1302021Y-76873D01*
X1304463Y-75862D01*
X1306561Y-74252D01*
X1308170Y-72155D01*
X1309182Y-69713D01*
X1309527Y-67092D01*
X1309182Y-64471D01*
X1308170Y-62028D01*
X1306561Y-59931D01*
X1304463Y-58322D01*
X1302021Y-57310D01*
X1299400Y-56965D01*
X1299122Y-57002D01*
X1298161Y-56999D01*
X1297154Y-56966D01*
X1295372Y-56811D01*
X1294712Y-56705D01*
X1294152Y-56579D01*
X1293729Y-56448D01*
X1293451Y-56331D01*
X1293331Y-56262D01*
X1289877Y-52807D01*
Y-47859D01*
X1291147Y-47428D01*
X1292239Y-48852D01*
X1294337Y-50462D01*
X1296779Y-51473D01*
X1299400Y-51818D01*
X1302021Y-51473D01*
X1304463Y-50462D01*
X1306561Y-48852D01*
X1308170Y-46755D01*
X1308543Y-45854D01*
X1309813Y-46106D01*
Y-55472D01*
X1310070Y-56760D01*
X1310799Y-57852D01*
X1313970Y-61023D01*
X1314040Y-61143D01*
X1314157Y-61420D01*
X1314287Y-61844D01*
X1314413Y-62403D01*
X1314515Y-63038D01*
X1314707Y-65898D01*
X1314710Y-66814D01*
X1314673Y-67092D01*
X1315018Y-69713D01*
X1316030Y-72155D01*
X1317639Y-74252D01*
X1319737Y-75862D01*
X1322179Y-76873D01*
X1324800Y-77218D01*
X1327421Y-76873D01*
X1329863Y-75862D01*
X1331961Y-74252D01*
X1333570Y-72155D01*
X1334582Y-69713D01*
X1334927Y-67092D01*
X1334582Y-64471D01*
X1333570Y-62028D01*
X1331961Y-59931D01*
X1329863Y-58322D01*
X1327421Y-57310D01*
X1324800Y-56965D01*
X1324522Y-57002D01*
X1323561Y-56999D01*
X1322554Y-56966D01*
X1320772Y-56811D01*
X1320112Y-56705D01*
X1319552Y-56579D01*
X1319129Y-56448D01*
X1318851Y-56331D01*
X1318732Y-56262D01*
X1316547Y-54077D01*
Y-49306D01*
X1317817Y-48988D01*
X1319737Y-50462D01*
X1322179Y-51473D01*
X1324800Y-51818D01*
X1327421Y-51473D01*
X1329863Y-50462D01*
X1331961Y-48852D01*
X1333570Y-46755D01*
X1334582Y-44313D01*
X1334927Y-41692D01*
X1334582Y-39071D01*
X1333570Y-36628D01*
X1331961Y-34531D01*
X1329863Y-32922D01*
X1327421Y-31910D01*
X1324800Y-31565D01*
X1322179Y-31910D01*
X1319737Y-32922D01*
X1317817Y-34395D01*
X1316547Y-34077D01*
Y-7620D01*
X1316290Y-6332D01*
X1315561Y-5239D01*
X1301591Y8731D01*
X1300498Y9460D01*
X1299210Y9717D01*
X1232299D01*
X1231618Y10987D01*
X1231959Y12700D01*
X1231568Y14667D01*
X1230454Y16334D01*
X1228786Y17448D01*
X1226820Y17839D01*
X1224854Y17448D01*
X1223186Y16334D01*
X1223067Y16155D01*
X1223036Y16129D01*
X1222982Y16089D01*
X1222946Y16067D01*
X1143124D01*
X1136207Y22984D01*
Y140970D01*
X1135950Y142258D01*
X1135221Y143351D01*
X1122521Y156051D01*
X1121428Y156780D01*
X1120140Y157037D01*
X1073214D01*
X1073178Y157059D01*
X1073124Y157099D01*
X1073093Y157125D01*
X1072974Y157304D01*
X1071307Y158418D01*
X1069340Y158809D01*
X1067547Y158452D01*
X1066784Y158733D01*
X1066277Y159004D01*
Y196264D01*
X1097590Y227578D01*
X1098853Y229468D01*
X1099297Y231698D01*
Y331470D01*
X1098853Y333700D01*
X1097590Y335590D01*
X1096320Y336860D01*
X1094430Y338123D01*
X1092200Y338567D01*
X1089970Y338123D01*
X1088080Y336860D01*
X1086817Y334970D01*
X1086373Y332740D01*
X1086817Y330510D01*
X1087643Y329273D01*
Y234112D01*
X1056330Y202798D01*
X1055067Y200908D01*
X1054623Y198678D01*
Y148464D01*
X1021206Y115047D01*
X997001D01*
X996186Y115137D01*
X995210Y115323D01*
X994274Y115582D01*
X993372Y115912D01*
X992500Y116316D01*
X991656Y116796D01*
X990835Y117354D01*
X990194Y117866D01*
X971860Y136200D01*
X969970Y137463D01*
X967740Y137907D01*
X869824D01*
X826247Y181484D01*
Y269240D01*
X825803Y271470D01*
X824540Y273360D01*
X708970Y388930D01*
X707080Y390193D01*
X704850Y390637D01*
X580390D01*
X578160Y390193D01*
X576270Y388930D01*
X551837Y364498D01*
X551275Y364104D01*
X550748Y363841D01*
X550302Y363707D01*
X549910Y363668D01*
X549518Y363707D01*
X549072Y363841D01*
X548545Y364104D01*
X547983Y364498D01*
X471480Y441000D01*
X469590Y442263D01*
X467360Y442707D01*
X457200D01*
X454970Y442263D01*
X453080Y441000D01*
X452246Y440167D01*
X421514D01*
X406710Y454970D01*
X404820Y456233D01*
X402590Y456677D01*
X373380D01*
X371150Y456233D01*
X369260Y454970D01*
X355726Y441437D01*
X328804D01*
X322890Y447350D01*
X321000Y448613D01*
X320298Y448753D01*
X319864Y449404D01*
X318197Y450518D01*
X316230Y450909D01*
X314263Y450518D01*
X312596Y449404D01*
X311482Y447737D01*
X311091Y445770D01*
X311420Y444120D01*
X289250Y421950D01*
X284170Y416870D01*
X250316Y383017D01*
X243840D01*
X241610Y382573D01*
X239720Y381310D01*
X232100Y373690D01*
X230837Y371800D01*
X230393Y369570D01*
Y361950D01*
X230837Y359720D01*
X232100Y357830D01*
X234203Y355726D01*
Y336424D01*
X223210Y325430D01*
X221947Y323540D01*
X221503Y321310D01*
Y254000D01*
X221947Y251770D01*
X223210Y249880D01*
X232933Y240156D01*
Y214630D01*
X233377Y212400D01*
X234640Y210510D01*
X274010Y171140D01*
X275900Y169877D01*
X278130Y169433D01*
X279945Y169794D01*
X281910Y169403D01*
X284140Y169847D01*
X286031Y171110D01*
X290704Y175783D01*
X312546D01*
X364209Y124120D01*
X366100Y122857D01*
X368330Y122413D01*
X451504D01*
X451787Y120990D01*
X453050Y119099D01*
X466613Y105536D01*
Y60960D01*
X467057Y58730D01*
X468320Y56840D01*
X478043Y47116D01*
Y17780D01*
Y-16510D01*
X478487Y-18740D01*
X479750Y-20630D01*
X507690Y-48570D01*
X509580Y-49833D01*
X511810Y-50277D01*
X519556D01*
X528843Y-59564D01*
Y-66040D01*
X529287Y-68270D01*
X530550Y-70160D01*
X532440Y-71423D01*
X534670Y-71867D01*
X536900Y-71423D01*
X538790Y-70160D01*
X540053Y-68270D01*
X540497Y-66040D01*
Y-57150D01*
X540419Y-56756D01*
X541589Y-56130D01*
X560229Y-74771D01*
X561322Y-75500D01*
X562610Y-75757D01*
X716040D01*
Y-83602D01*
X726080D01*
Y-86142D01*
X716040D01*
Y-93153D01*
X267913D01*
X267624Y-91883D01*
X269120Y-89933D01*
X270132Y-87491D01*
X270477Y-84870D01*
X270132Y-82249D01*
X269120Y-79807D01*
X267511Y-77709D01*
X267288Y-77539D01*
X266611Y-76857D01*
X265922Y-76123D01*
X264771Y-74752D01*
X264380Y-74211D01*
X264073Y-73725D01*
X263866Y-73334D01*
X263752Y-73055D01*
X263717Y-72921D01*
Y-67435D01*
X281781Y-49371D01*
X282510Y-48278D01*
X282767Y-46990D01*
Y121856D01*
X282789Y121892D01*
X282829Y121946D01*
X282855Y121977D01*
X283034Y122096D01*
X284148Y123764D01*
X284539Y125730D01*
X284148Y127697D01*
X283034Y129364D01*
X281367Y130478D01*
X279400Y130869D01*
X277433Y130478D01*
X275766Y129364D01*
X274652Y127697D01*
X274261Y125730D01*
X274652Y123764D01*
X275766Y122096D01*
X275945Y121977D01*
X275971Y121946D01*
X276011Y121892D01*
X276033Y121856D01*
Y-45595D01*
X257969Y-63659D01*
X257240Y-64752D01*
X256983Y-66040D01*
Y-72921D01*
X256948Y-73055D01*
X256834Y-73334D01*
X256627Y-73726D01*
X256320Y-74211D01*
X255944Y-74731D01*
X254058Y-76889D01*
X253412Y-77539D01*
X253189Y-77709D01*
X251580Y-79807D01*
X250568Y-82249D01*
X250223Y-84870D01*
X250568Y-87491D01*
X251580Y-89933D01*
X253076Y-91883D01*
X252787Y-93153D01*
X244990D01*
Y-86140D01*
X224910D01*
Y-93153D01*
X130934D01*
X110047Y-72266D01*
Y-35560D01*
X109790Y-34272D01*
X109061Y-33179D01*
X88457Y-12576D01*
Y16510D01*
X88200Y17798D01*
X87471Y18891D01*
X55437Y50925D01*
Y179918D01*
X56707Y180769D01*
X58060Y180500D01*
X60026Y180891D01*
X61693Y182005D01*
X61813Y182183D01*
X61844Y182210D01*
X61897Y182249D01*
X61933Y182272D01*
X62602D01*
X63679Y181552D01*
X64967Y181296D01*
X199902D01*
X201191Y181552D01*
X202283Y182282D01*
X218281Y198279D01*
X219010Y199372D01*
X219267Y200660D01*
Y217175D01*
X219710Y218381D01*
X221677Y218772D01*
X223344Y219886D01*
X224458Y221553D01*
X224849Y223520D01*
X224458Y225487D01*
X223344Y227154D01*
X221677Y228268D01*
X219710Y228659D01*
X217743Y228268D01*
X216076Y227154D01*
X214962Y225487D01*
X214571Y223520D01*
X214613Y223309D01*
X214610Y223268D01*
X214600Y223203D01*
X214590Y223162D01*
X213519Y222091D01*
X212790Y220998D01*
X212533Y219710D01*
Y202055D01*
X198508Y188029D01*
X66357D01*
X65280Y188749D01*
X63991Y189005D01*
X61933D01*
X61897Y189028D01*
X61844Y189067D01*
X61813Y189093D01*
X61693Y189272D01*
X60026Y190386D01*
X58060Y190777D01*
X56707Y190508D01*
X55437Y191359D01*
Y232285D01*
X61303Y238152D01*
X69426D01*
X69462Y238129D01*
X69516Y238090D01*
X69547Y238063D01*
X69666Y237885D01*
X71333Y236771D01*
X73300Y236380D01*
X75266Y236771D01*
X76933Y237885D01*
X78047Y239552D01*
X78438Y241518D01*
X78047Y243485D01*
X76933Y245152D01*
X75266Y246266D01*
X73300Y246657D01*
X71333Y246266D01*
X69666Y245152D01*
X69547Y244973D01*
X69516Y244947D01*
X69462Y244908D01*
X69426Y244885D01*
X59908D01*
X58620Y244629D01*
X57528Y243899D01*
X49689Y236061D01*
X48960Y234968D01*
X48703Y233680D01*
Y49530D01*
X48960Y48242D01*
X49689Y47149D01*
X81723Y15115D01*
Y-13970D01*
X81980Y-15258D01*
X82709Y-16351D01*
X103313Y-36955D01*
Y-73660D01*
X103570Y-74948D01*
X104299Y-76041D01*
X127159Y-98901D01*
X128252Y-99630D01*
X129540Y-99887D01*
X902906D01*
X902942Y-99909D01*
X902996Y-99949D01*
X903027Y-99975D01*
X903146Y-100154D01*
X904814Y-101268D01*
X906780Y-101659D01*
X908746Y-101268D01*
X910414Y-100154D01*
X911528Y-98486D01*
X911919Y-96520D01*
X911528Y-94553D01*
X910414Y-92886D01*
X908746Y-91772D01*
X906780Y-91381D01*
X904814Y-91772D01*
X903146Y-92886D01*
X903027Y-93065D01*
X902996Y-93091D01*
X902942Y-93131D01*
X902906Y-93153D01*
X759045D01*
X758755Y-91883D01*
X760250Y-89935D01*
X761261Y-87493D01*
X761606Y-84872D01*
X761261Y-82251D01*
X760250Y-79808D01*
X758640Y-77711D01*
X757748Y-77027D01*
X758180Y-75757D01*
X937979D01*
X938364Y-77027D01*
X937436Y-77646D01*
X936322Y-79314D01*
X935931Y-81280D01*
X936214Y-82699D01*
X935294Y-82882D01*
X933626Y-83996D01*
X932512Y-85663D01*
X932121Y-87630D01*
X932512Y-89597D01*
X933397Y-90921D01*
X932356Y-91616D01*
X931242Y-93284D01*
X930851Y-95250D01*
X930699Y-95402D01*
X929640Y-95191D01*
X927673Y-95582D01*
X926006Y-96696D01*
X924892Y-98364D01*
X924501Y-100330D01*
X924892Y-102296D01*
X926006Y-103964D01*
X927673Y-105078D01*
X929640Y-105469D01*
X931607Y-105078D01*
X933274Y-103964D01*
X934311Y-104682D01*
X943704Y-114075D01*
X943684Y-114353D01*
X943287Y-115345D01*
X-76000D01*
X-76090Y-115364D01*
X-79203Y-114954D01*
X-82188Y-113717D01*
X-84751Y-111751D01*
X-86717Y-109188D01*
X-87954Y-106203D01*
X-88364Y-103090D01*
X-88345Y-103000D01*
Y124960D01*
X-88280D01*
X-88745Y130861D01*
X-90126Y136616D01*
X-92391Y142084D01*
X-95484Y147131D01*
X-99328Y151632D01*
X-103829Y155476D01*
X-108876Y158569D01*
X-114344Y160834D01*
X-120099Y162215D01*
X-126000Y162680D01*
Y162614D01*
X-126000Y162614D01*
X-148000D01*
Y162628D01*
X-149898Y162878D01*
X-151666Y163610D01*
X-153185Y164775D01*
X-154350Y166294D01*
X-155082Y168062D01*
X-155332Y169960D01*
X-155345D01*
Y508000D01*
X-155364Y508090D01*
X-154954Y511203D01*
X-153717Y514188D01*
X-151751Y516751D01*
X-149188Y518717D01*
X-146203Y519954D01*
X-143090Y520364D01*
X-143000Y520345D01*
X-137000D01*
Y520280D01*
X-131099Y520745D01*
X-125344Y522126D01*
X-119876Y524391D01*
X-114829Y527484D01*
X-110328Y531328D01*
X-106484Y535829D01*
X-103391Y540876D01*
X-101126Y546344D01*
X-99745Y552099D01*
X-99280Y558000D01*
X-99346D01*
Y620000D01*
X-99363Y620090D01*
X-98954Y623203D01*
X-97717Y626188D01*
X-95751Y628751D01*
X-93188Y630717D01*
X-90203Y631954D01*
X-88226Y632214D01*
X-87000Y632345D01*
X-87000Y632345D01*
X-85754Y632346D01*
X345020D01*
X345046Y632351D01*
X348406Y632020D01*
D02*
G37*
G36*
X664938Y556166D02*
X664967Y556022D01*
X665015Y555872D01*
X665083Y555715D01*
X665172Y555552D01*
X665280Y555383D01*
X665408Y555208D01*
X665556Y555026D01*
X665911Y554643D01*
X664115Y552847D01*
X663921Y553035D01*
X663550Y553350D01*
X663375Y553478D01*
X663206Y553587D01*
X663043Y553675D01*
X662886Y553743D01*
X662736Y553791D01*
X662592Y553820D01*
X662455Y553829D01*
X664930Y556303D01*
X664938Y556166D01*
D02*
G37*
G36*
X651899Y553122D02*
X652269Y552806D01*
X652444Y552678D01*
X652614Y552570D01*
X652776Y552482D01*
X652933Y552414D01*
X653083Y552365D01*
X653227Y552337D01*
X653365Y552328D01*
X650890Y549853D01*
X650881Y549991D01*
X650853Y550135D01*
X650804Y550285D01*
X650736Y550442D01*
X650648Y550605D01*
X650540Y550774D01*
X650412Y550949D01*
X650264Y551131D01*
X649908Y551514D01*
X651704Y553310D01*
X651899Y553122D01*
D02*
G37*
G36*
X482085Y548160D02*
X481981Y548251D01*
X481859Y548333D01*
X481719Y548405D01*
X481560Y548467D01*
X481382Y548520D01*
X481186Y548563D01*
X480972Y548597D01*
X480739Y548621D01*
X480217Y548640D01*
Y551180D01*
X480487Y551185D01*
X480972Y551223D01*
X481186Y551257D01*
X481382Y551300D01*
X481560Y551353D01*
X481719Y551415D01*
X481859Y551487D01*
X481981Y551569D01*
X482085Y551660D01*
Y548160D01*
D02*
G37*
G36*
X488435Y541660D02*
X488331Y541751D01*
X488209Y541833D01*
X488069Y541905D01*
X487910Y541967D01*
X487732Y542020D01*
X487536Y542063D01*
X487322Y542097D01*
X487089Y542121D01*
X486567Y542140D01*
Y544680D01*
X486837Y544685D01*
X487322Y544723D01*
X487536Y544757D01*
X487732Y544800D01*
X487910Y544853D01*
X488069Y544915D01*
X488209Y544987D01*
X488331Y545069D01*
X488435Y545160D01*
Y541660D01*
D02*
G37*
G36*
X482085Y535160D02*
X481981Y535251D01*
X481859Y535333D01*
X481719Y535405D01*
X481560Y535467D01*
X481382Y535520D01*
X481186Y535563D01*
X480972Y535597D01*
X480739Y535621D01*
X480217Y535640D01*
Y538180D01*
X480487Y538185D01*
X480972Y538223D01*
X481186Y538257D01*
X481382Y538300D01*
X481560Y538353D01*
X481719Y538415D01*
X481859Y538487D01*
X481981Y538569D01*
X482085Y538660D01*
Y535160D01*
D02*
G37*
G36*
X488435Y529110D02*
X488331Y529201D01*
X488209Y529283D01*
X488069Y529355D01*
X487910Y529417D01*
X487732Y529470D01*
X487536Y529513D01*
X487322Y529547D01*
X487089Y529571D01*
X486567Y529590D01*
Y532130D01*
X486837Y532135D01*
X487322Y532173D01*
X487536Y532207D01*
X487732Y532250D01*
X487910Y532303D01*
X488069Y532365D01*
X488209Y532437D01*
X488331Y532519D01*
X488435Y532610D01*
Y529110D01*
D02*
G37*
G36*
X482085Y522760D02*
X481981Y522851D01*
X481859Y522933D01*
X481719Y523005D01*
X481560Y523067D01*
X481382Y523120D01*
X481186Y523163D01*
X480972Y523197D01*
X480739Y523221D01*
X480217Y523240D01*
Y525780D01*
X480487Y525785D01*
X480972Y525823D01*
X481186Y525857D01*
X481382Y525900D01*
X481560Y525953D01*
X481719Y526015D01*
X481859Y526087D01*
X481981Y526169D01*
X482085Y526260D01*
Y522760D01*
D02*
G37*
G36*
X488435Y516410D02*
X488331Y516501D01*
X488209Y516583D01*
X488069Y516655D01*
X487910Y516717D01*
X487732Y516770D01*
X487536Y516813D01*
X487322Y516847D01*
X487089Y516871D01*
X486567Y516890D01*
Y519430D01*
X486837Y519435D01*
X487322Y519473D01*
X487536Y519507D01*
X487732Y519550D01*
X487910Y519603D01*
X488069Y519665D01*
X488209Y519737D01*
X488331Y519819D01*
X488435Y519910D01*
Y516410D01*
D02*
G37*
G36*
X636528Y518767D02*
X636650Y518686D01*
X636791Y518614D01*
X636950Y518551D01*
X637127Y518498D01*
X637323Y518455D01*
X637538Y518422D01*
X637771Y518398D01*
X638293Y518378D01*
Y515838D01*
X638023Y515834D01*
X637538Y515795D01*
X637323Y515762D01*
X637127Y515718D01*
X636950Y515666D01*
X636791Y515603D01*
X636650Y515531D01*
X636528Y515450D01*
X636425Y515358D01*
Y518858D01*
X636528Y518767D01*
D02*
G37*
G36*
X644148Y512417D02*
X644270Y512336D01*
X644411Y512264D01*
X644570Y512201D01*
X644747Y512148D01*
X644943Y512105D01*
X645158Y512072D01*
X645391Y512048D01*
X645913Y512028D01*
Y509488D01*
X645643Y509484D01*
X645158Y509445D01*
X644943Y509412D01*
X644747Y509368D01*
X644570Y509316D01*
X644411Y509253D01*
X644270Y509181D01*
X644148Y509100D01*
X644045Y509008D01*
Y512508D01*
X644148Y512417D01*
D02*
G37*
G36*
X636528Y506067D02*
X636650Y505986D01*
X636791Y505914D01*
X636950Y505851D01*
X637127Y505798D01*
X637323Y505755D01*
X637538Y505722D01*
X637771Y505698D01*
X638293Y505678D01*
Y503138D01*
X638023Y503134D01*
X637538Y503095D01*
X637323Y503062D01*
X637127Y503018D01*
X636950Y502966D01*
X636791Y502903D01*
X636650Y502831D01*
X636528Y502750D01*
X636425Y502658D01*
Y506158D01*
X636528Y506067D01*
D02*
G37*
G36*
X457911Y495592D02*
X458109Y495424D01*
X458311Y495276D01*
X458516Y495148D01*
X458723Y495039D01*
X458935Y494950D01*
X459149Y494881D01*
X459366Y494832D01*
X459587Y494802D01*
X459811Y494792D01*
Y493268D01*
X459587Y493258D01*
X459366Y493228D01*
X459149Y493179D01*
X458935Y493110D01*
X458723Y493021D01*
X458516Y492912D01*
X458311Y492784D01*
X458109Y492636D01*
X457911Y492468D01*
X457715Y492280D01*
Y495780D01*
X457911Y495592D01*
D02*
G37*
G36*
X466801Y489242D02*
X466999Y489074D01*
X467201Y488926D01*
X467406Y488798D01*
X467613Y488689D01*
X467825Y488600D01*
X468039Y488531D01*
X468256Y488481D01*
X468477Y488452D01*
X468701Y488442D01*
Y486918D01*
X468477Y486908D01*
X468256Y486879D01*
X468039Y486829D01*
X467825Y486760D01*
X467613Y486671D01*
X467406Y486562D01*
X467201Y486434D01*
X466999Y486286D01*
X466801Y486118D01*
X466605Y485930D01*
Y489430D01*
X466801Y489242D01*
D02*
G37*
G36*
X348691Y486702D02*
X348889Y486534D01*
X349091Y486386D01*
X349296Y486258D01*
X349504Y486149D01*
X349715Y486060D01*
X349929Y485991D01*
X350146Y485942D01*
X350367Y485912D01*
X350591Y485902D01*
Y484378D01*
X350367Y484368D01*
X350146Y484338D01*
X349929Y484289D01*
X349715Y484220D01*
X349504Y484131D01*
X349296Y484022D01*
X349091Y483894D01*
X348889Y483746D01*
X348691Y483578D01*
X348495Y483390D01*
Y486890D01*
X348691Y486702D01*
D02*
G37*
G36*
X457911Y484162D02*
X458109Y483994D01*
X458311Y483846D01*
X458516Y483718D01*
X458723Y483609D01*
X458935Y483520D01*
X459149Y483451D01*
X459366Y483401D01*
X459587Y483372D01*
X459811Y483362D01*
Y481838D01*
X459587Y481828D01*
X459366Y481799D01*
X459149Y481749D01*
X458935Y481680D01*
X458723Y481591D01*
X458516Y481482D01*
X458311Y481354D01*
X458109Y481206D01*
X457911Y481038D01*
X457715Y480850D01*
Y484350D01*
X457911Y484162D01*
D02*
G37*
G36*
X823715Y478310D02*
X823519Y478498D01*
X823321Y478666D01*
X823119Y478814D01*
X822915Y478942D01*
X822707Y479051D01*
X822495Y479140D01*
X822281Y479209D01*
X822064Y479258D01*
X821843Y479288D01*
X821619Y479298D01*
Y480822D01*
X821843Y480832D01*
X822064Y480862D01*
X822281Y480911D01*
X822495Y480980D01*
X822707Y481069D01*
X822915Y481178D01*
X823119Y481306D01*
X823321Y481454D01*
X823519Y481622D01*
X823715Y481810D01*
Y478310D01*
D02*
G37*
G36*
X342341Y481622D02*
X342539Y481454D01*
X342741Y481306D01*
X342946Y481178D01*
X343153Y481069D01*
X343365Y480980D01*
X343579Y480911D01*
X343797Y480862D01*
X344017Y480832D01*
X344241Y480822D01*
Y479298D01*
X344017Y479288D01*
X343797Y479258D01*
X343579Y479209D01*
X343365Y479140D01*
X343153Y479051D01*
X342946Y478942D01*
X342741Y478814D01*
X342539Y478666D01*
X342341Y478498D01*
X342145Y478310D01*
Y481810D01*
X342341Y481622D01*
D02*
G37*
G36*
X348691Y476542D02*
X348889Y476374D01*
X349091Y476226D01*
X349296Y476098D01*
X349504Y475989D01*
X349715Y475900D01*
X349929Y475831D01*
X350146Y475782D01*
X350367Y475752D01*
X350591Y475742D01*
Y474218D01*
X350367Y474208D01*
X350146Y474179D01*
X349929Y474129D01*
X349715Y474060D01*
X349504Y473971D01*
X349296Y473862D01*
X349091Y473734D01*
X348889Y473586D01*
X348691Y473418D01*
X348495Y473230D01*
Y476730D01*
X348691Y476542D01*
D02*
G37*
G36*
X602691Y466382D02*
X602889Y466214D01*
X603091Y466066D01*
X603296Y465938D01*
X603503Y465829D01*
X603715Y465740D01*
X603929Y465671D01*
X604146Y465621D01*
X604367Y465592D01*
X604591Y465582D01*
Y464058D01*
X604367Y464048D01*
X604146Y464019D01*
X603929Y463969D01*
X603715Y463900D01*
X603503Y463811D01*
X603296Y463702D01*
X603091Y463574D01*
X602889Y463426D01*
X602691Y463258D01*
X602495Y463070D01*
Y466570D01*
X602691Y466382D01*
D02*
G37*
G36*
X596341Y461302D02*
X596539Y461134D01*
X596741Y460986D01*
X596945Y460858D01*
X597154Y460749D01*
X597365Y460660D01*
X597579Y460591D01*
X597797Y460541D01*
X598017Y460512D01*
X598241Y460502D01*
Y458978D01*
X598017Y458968D01*
X597797Y458938D01*
X597579Y458889D01*
X597365Y458820D01*
X597154Y458731D01*
X596945Y458622D01*
X596741Y458494D01*
X596539Y458346D01*
X596341Y458178D01*
X596145Y457990D01*
Y461490D01*
X596341Y461302D01*
D02*
G37*
G36*
X1545565Y454700D02*
X1545361Y454693D01*
X1545159Y454668D01*
X1544959Y454624D01*
X1544763Y454562D01*
X1544568Y454482D01*
X1544376Y454383D01*
X1544186Y454266D01*
X1543999Y454131D01*
X1543815Y453978D01*
X1543633Y453806D01*
X1542196Y455243D01*
X1542368Y455425D01*
X1542521Y455609D01*
X1542656Y455796D01*
X1542773Y455986D01*
X1542872Y456178D01*
X1542952Y456372D01*
X1543014Y456569D01*
X1543058Y456769D01*
X1543083Y456971D01*
X1543090Y457175D01*
X1545565Y454700D01*
D02*
G37*
G36*
X602691Y456222D02*
X602889Y456054D01*
X603091Y455906D01*
X603296Y455778D01*
X603503Y455669D01*
X603715Y455580D01*
X603929Y455511D01*
X604146Y455462D01*
X604367Y455432D01*
X604591Y455422D01*
Y453898D01*
X604367Y453888D01*
X604146Y453858D01*
X603929Y453809D01*
X603715Y453740D01*
X603503Y453651D01*
X603296Y453542D01*
X603091Y453414D01*
X602889Y453266D01*
X602691Y453098D01*
X602495Y452910D01*
Y456410D01*
X602691Y456222D01*
D02*
G37*
G36*
X1589770Y364698D02*
X1589792Y364434D01*
X1589831Y364201D01*
X1589884Y363999D01*
X1589953Y363828D01*
X1590036Y363688D01*
X1590135Y363579D01*
X1590250Y363501D01*
X1590379Y363455D01*
X1590524Y363439D01*
X1587476D01*
X1587621Y363455D01*
X1587750Y363501D01*
X1587865Y363579D01*
X1587964Y363688D01*
X1588047Y363828D01*
X1588116Y363999D01*
X1588169Y364201D01*
X1588208Y364434D01*
X1588230Y364698D01*
X1588238Y364994D01*
X1589762D01*
X1589770Y364698D01*
D02*
G37*
G36*
X949770D02*
X949792Y364434D01*
X949831Y364201D01*
X949884Y363999D01*
X949952Y363828D01*
X950036Y363688D01*
X950135Y363579D01*
X950250Y363501D01*
X950379Y363455D01*
X950524Y363439D01*
X947476D01*
X947621Y363455D01*
X947750Y363501D01*
X947865Y363579D01*
X947964Y363688D01*
X948047Y363828D01*
X948116Y363999D01*
X948169Y364201D01*
X948207Y364434D01*
X948230Y364698D01*
X948238Y364994D01*
X949762D01*
X949770Y364698D01*
D02*
G37*
G36*
X558890Y358820D02*
X558082Y357922D01*
X557453Y357024D01*
X557004Y356126D01*
X556735Y355228D01*
X556645Y354330D01*
X556735Y353432D01*
X557004Y352534D01*
X557453Y351636D01*
X558082Y350738D01*
X558890Y349840D01*
X547665Y352085D01*
X545420Y363310D01*
X546318Y362502D01*
X547216Y361873D01*
X548114Y361424D01*
X549012Y361155D01*
X549910Y361065D01*
X550808Y361155D01*
X551706Y361424D01*
X552604Y361873D01*
X553502Y362502D01*
X554400Y363310D01*
X558890Y358820D01*
D02*
G37*
G36*
X1549285Y354622D02*
X1549469Y354469D01*
X1549657Y354334D01*
X1549846Y354217D01*
X1550038Y354118D01*
X1550233Y354038D01*
X1550429Y353976D01*
X1550629Y353932D01*
X1550831Y353907D01*
X1551035Y353900D01*
X1548560Y351425D01*
X1548553Y351629D01*
X1548528Y351831D01*
X1548484Y352031D01*
X1548422Y352228D01*
X1548342Y352422D01*
X1548243Y352614D01*
X1548126Y352803D01*
X1547991Y352991D01*
X1547838Y353175D01*
X1547666Y353357D01*
X1549103Y354794D01*
X1549285Y354622D01*
D02*
G37*
G36*
X524802Y352349D02*
X524634Y352151D01*
X524486Y351949D01*
X524358Y351744D01*
X524249Y351536D01*
X524160Y351325D01*
X524091Y351111D01*
X524041Y350894D01*
X524012Y350673D01*
X524002Y350449D01*
X522478D01*
X522468Y350673D01*
X522439Y350894D01*
X522389Y351111D01*
X522320Y351325D01*
X522231Y351536D01*
X522122Y351744D01*
X521994Y351949D01*
X521846Y352151D01*
X521678Y352349D01*
X521490Y352545D01*
X524990D01*
X524802Y352349D01*
D02*
G37*
G36*
X1727955Y333530D02*
X1727805Y333670D01*
X1727645Y333794D01*
X1727473Y333904D01*
X1727289Y334000D01*
X1727095Y334081D01*
X1726890Y334147D01*
X1726673Y334198D01*
X1726445Y334235D01*
X1726206Y334257D01*
X1725956Y334264D01*
Y336296D01*
X1726206Y336303D01*
X1726445Y336325D01*
X1726673Y336362D01*
X1726890Y336413D01*
X1727095Y336479D01*
X1727289Y336560D01*
X1727473Y336656D01*
X1727645Y336766D01*
X1727805Y336890D01*
X1727955Y337030D01*
Y333530D01*
D02*
G37*
G36*
X1732247Y335051D02*
X1732272Y334849D01*
X1732316Y334649D01*
X1732378Y334453D01*
X1732458Y334258D01*
X1732557Y334066D01*
X1732674Y333876D01*
X1732809Y333689D01*
X1732962Y333505D01*
X1733134Y333323D01*
X1731697Y331886D01*
X1731515Y332057D01*
X1731331Y332211D01*
X1731144Y332346D01*
X1730954Y332463D01*
X1730762Y332562D01*
X1730567Y332642D01*
X1730371Y332704D01*
X1730171Y332748D01*
X1729969Y332773D01*
X1729765Y332780D01*
X1732240Y335255D01*
X1732247Y335051D01*
D02*
G37*
G36*
X250213Y330586D02*
X250136Y330500D01*
X250068Y330397D01*
X250009Y330276D01*
X249959Y330137D01*
X249919Y329982D01*
X249887Y329808D01*
X249865Y329618D01*
X249851Y329410D01*
X249846Y329184D01*
X248322D01*
X248318Y329389D01*
X248303Y329578D01*
X248278Y329750D01*
X248243Y329905D01*
X248199Y330044D01*
X248144Y330167D01*
X248080Y330273D01*
X248006Y330362D01*
X247921Y330435D01*
X247827Y330491D01*
X250299Y330654D01*
X250213Y330586D01*
D02*
G37*
G36*
X537965Y328450D02*
X537769Y328638D01*
X537571Y328806D01*
X537369Y328954D01*
X537164Y329082D01*
X536956Y329191D01*
X536745Y329280D01*
X536531Y329349D01*
X536314Y329398D01*
X536093Y329428D01*
X535869Y329438D01*
Y330962D01*
X536093Y330972D01*
X536314Y331002D01*
X536531Y331051D01*
X536745Y331120D01*
X536956Y331209D01*
X537164Y331318D01*
X537369Y331446D01*
X537571Y331594D01*
X537769Y331762D01*
X537965Y331950D01*
Y328450D01*
D02*
G37*
G36*
X424145Y301964D02*
X424167Y301705D01*
X424205Y301458D01*
X424258Y301222D01*
X424329Y300998D01*
X424415Y300786D01*
X424518Y300585D01*
X424637Y300397D01*
X424772Y300220D01*
X424923Y300054D01*
X423845Y298977D01*
X423680Y299128D01*
X423503Y299263D01*
X423315Y299382D01*
X423114Y299485D01*
X422902Y299571D01*
X422678Y299641D01*
X422442Y299695D01*
X422195Y299733D01*
X421936Y299755D01*
X421665Y299760D01*
X424140Y302235D01*
X424145Y301964D01*
D02*
G37*
G36*
X434305Y299424D02*
X434327Y299165D01*
X434365Y298918D01*
X434418Y298682D01*
X434489Y298458D01*
X434575Y298246D01*
X434678Y298046D01*
X434797Y297857D01*
X434932Y297680D01*
X435083Y297514D01*
X434006Y296437D01*
X433840Y296588D01*
X433663Y296723D01*
X433475Y296842D01*
X433274Y296945D01*
X433062Y297031D01*
X432838Y297101D01*
X432602Y297155D01*
X432355Y297193D01*
X432096Y297215D01*
X431825Y297220D01*
X434300Y299695D01*
X434305Y299424D01*
D02*
G37*
G36*
X417795Y293074D02*
X417817Y292815D01*
X417855Y292568D01*
X417909Y292332D01*
X417979Y292108D01*
X418065Y291896D01*
X418168Y291695D01*
X418287Y291507D01*
X418422Y291330D01*
X418573Y291164D01*
X417495Y290087D01*
X417330Y290238D01*
X417153Y290373D01*
X416964Y290492D01*
X416764Y290595D01*
X416552Y290681D01*
X416328Y290751D01*
X416092Y290805D01*
X415845Y290843D01*
X415586Y290865D01*
X415315Y290870D01*
X417790Y293345D01*
X417795Y293074D01*
D02*
G37*
G36*
X426685Y291804D02*
X426707Y291545D01*
X426745Y291298D01*
X426799Y291062D01*
X426869Y290838D01*
X426955Y290626D01*
X427058Y290425D01*
X427177Y290237D01*
X427312Y290060D01*
X427463Y289895D01*
X426385Y288817D01*
X426220Y288968D01*
X426043Y289103D01*
X425854Y289222D01*
X425654Y289325D01*
X425442Y289411D01*
X425218Y289482D01*
X424982Y289535D01*
X424735Y289573D01*
X424476Y289595D01*
X424205Y289600D01*
X426680Y292075D01*
X426685Y291804D01*
D02*
G37*
G36*
X284445Y277834D02*
X284467Y277575D01*
X284505Y277328D01*
X284559Y277092D01*
X284629Y276868D01*
X284715Y276656D01*
X284818Y276455D01*
X284937Y276267D01*
X285072Y276090D01*
X285223Y275924D01*
X284146Y274847D01*
X283980Y274998D01*
X283803Y275133D01*
X283615Y275252D01*
X283414Y275355D01*
X283202Y275441D01*
X282978Y275511D01*
X282742Y275565D01*
X282495Y275603D01*
X282236Y275625D01*
X281965Y275630D01*
X284440Y278105D01*
X284445Y277834D01*
D02*
G37*
G36*
X392395Y260054D02*
X392417Y259795D01*
X392455Y259548D01*
X392509Y259312D01*
X392579Y259088D01*
X392665Y258876D01*
X392768Y258675D01*
X392887Y258487D01*
X393022Y258310D01*
X393173Y258144D01*
X392095Y257067D01*
X391930Y257218D01*
X391753Y257353D01*
X391564Y257472D01*
X391364Y257575D01*
X391152Y257661D01*
X390928Y257731D01*
X390692Y257785D01*
X390445Y257823D01*
X390186Y257845D01*
X389915Y257850D01*
X392390Y260325D01*
X392395Y260054D01*
D02*
G37*
G36*
X391125Y252434D02*
X391147Y252175D01*
X391185Y251928D01*
X391239Y251692D01*
X391309Y251468D01*
X391395Y251256D01*
X391498Y251056D01*
X391617Y250867D01*
X391752Y250690D01*
X391903Y250525D01*
X390826Y249447D01*
X390660Y249598D01*
X390483Y249733D01*
X390294Y249852D01*
X390094Y249955D01*
X389882Y250041D01*
X389658Y250112D01*
X389422Y250165D01*
X389175Y250203D01*
X388916Y250225D01*
X388645Y250230D01*
X391120Y252705D01*
X391125Y252434D01*
D02*
G37*
G36*
X383505D02*
X383527Y252175D01*
X383565Y251928D01*
X383619Y251692D01*
X383689Y251468D01*
X383775Y251256D01*
X383878Y251056D01*
X383997Y250867D01*
X384132Y250690D01*
X384283Y250525D01*
X383205Y249447D01*
X383040Y249598D01*
X382863Y249733D01*
X382674Y249852D01*
X382474Y249955D01*
X382262Y250041D01*
X382038Y250112D01*
X381802Y250165D01*
X381555Y250203D01*
X381296Y250225D01*
X381025Y250230D01*
X383500Y252705D01*
X383505Y252434D01*
D02*
G37*
G36*
X528433Y245780D02*
X528369Y245990D01*
X528285Y246179D01*
X528181Y246345D01*
X528058Y246489D01*
X527916Y246611D01*
X527754Y246711D01*
X527573Y246788D01*
X527372Y246844D01*
X527152Y246877D01*
X526912Y246888D01*
X527904Y248412D01*
X528125Y248416D01*
X528786Y248468D01*
X529006Y248499D01*
X529661Y248635D01*
X529878Y248694D01*
X530095Y248760D01*
X528433Y245780D01*
D02*
G37*
G36*
X383505Y244814D02*
X383527Y244555D01*
X383565Y244308D01*
X383619Y244072D01*
X383689Y243848D01*
X383775Y243636D01*
X383878Y243435D01*
X383997Y243247D01*
X384132Y243070D01*
X384283Y242904D01*
X383205Y241827D01*
X383040Y241978D01*
X382863Y242113D01*
X382674Y242232D01*
X382474Y242335D01*
X382262Y242421D01*
X382038Y242491D01*
X381802Y242545D01*
X381555Y242583D01*
X381296Y242605D01*
X381025Y242610D01*
X383500Y245085D01*
X383505Y244814D01*
D02*
G37*
G36*
X375885D02*
X375907Y244555D01*
X375945Y244308D01*
X375998Y244072D01*
X376069Y243848D01*
X376155Y243636D01*
X376258Y243435D01*
X376377Y243247D01*
X376512Y243070D01*
X376663Y242904D01*
X375586Y241827D01*
X375420Y241978D01*
X375243Y242113D01*
X375055Y242232D01*
X374854Y242335D01*
X374642Y242421D01*
X374418Y242491D01*
X374182Y242545D01*
X373935Y242583D01*
X373676Y242605D01*
X373405Y242610D01*
X375880Y245085D01*
X375885Y244814D01*
D02*
G37*
G36*
X71514Y239768D02*
X71319Y239956D01*
X71121Y240124D01*
X70919Y240272D01*
X70714Y240401D01*
X70506Y240509D01*
X70295Y240598D01*
X70081Y240667D01*
X69863Y240717D01*
X69643Y240746D01*
X69419Y240756D01*
Y242280D01*
X69643Y242290D01*
X69863Y242320D01*
X70081Y242369D01*
X70295Y242439D01*
X70506Y242527D01*
X70714Y242636D01*
X70919Y242764D01*
X71121Y242913D01*
X71319Y243081D01*
X71514Y243268D01*
Y239768D01*
D02*
G37*
G36*
X535425Y239550D02*
X535229Y239738D01*
X535031Y239906D01*
X534829Y240054D01*
X534624Y240182D01*
X534417Y240291D01*
X534205Y240380D01*
X533991Y240449D01*
X533773Y240499D01*
X533553Y240528D01*
X533329Y240538D01*
Y242062D01*
X533553Y242072D01*
X533773Y242101D01*
X533991Y242151D01*
X534205Y242220D01*
X534417Y242309D01*
X534624Y242418D01*
X534829Y242546D01*
X535031Y242694D01*
X535229Y242862D01*
X535425Y243050D01*
Y239550D01*
D02*
G37*
G36*
X375885Y237194D02*
X375907Y236935D01*
X375945Y236688D01*
X375998Y236452D01*
X376069Y236228D01*
X376155Y236016D01*
X376258Y235816D01*
X376377Y235627D01*
X376512Y235450D01*
X376663Y235285D01*
X375586Y234207D01*
X375420Y234358D01*
X375243Y234493D01*
X375055Y234612D01*
X374854Y234715D01*
X374642Y234801D01*
X374418Y234872D01*
X374182Y234925D01*
X373935Y234963D01*
X373676Y234985D01*
X373405Y234990D01*
X375880Y237465D01*
X375885Y237194D01*
D02*
G37*
G36*
X368265Y235924D02*
X368287Y235665D01*
X368325Y235418D01*
X368378Y235182D01*
X368449Y234958D01*
X368535Y234746D01*
X368638Y234545D01*
X368757Y234357D01*
X368892Y234180D01*
X369043Y234014D01*
X367966Y232937D01*
X367800Y233088D01*
X367623Y233223D01*
X367435Y233342D01*
X367234Y233445D01*
X367022Y233531D01*
X366798Y233601D01*
X366562Y233655D01*
X366315Y233693D01*
X366056Y233715D01*
X365785Y233720D01*
X368260Y236195D01*
X368265Y235924D01*
D02*
G37*
G36*
Y228304D02*
X368287Y228045D01*
X368325Y227798D01*
X368378Y227562D01*
X368449Y227338D01*
X368535Y227126D01*
X368638Y226926D01*
X368757Y226737D01*
X368892Y226560D01*
X369043Y226395D01*
X367966Y225317D01*
X367800Y225468D01*
X367623Y225603D01*
X367435Y225722D01*
X367234Y225825D01*
X367022Y225911D01*
X366798Y225982D01*
X366562Y226035D01*
X366315Y226073D01*
X366056Y226095D01*
X365785Y226100D01*
X368260Y228575D01*
X368265Y228304D01*
D02*
G37*
G36*
X546396Y225113D02*
X546477Y225125D01*
X546609Y225155D01*
X546716Y225189D01*
X546798Y225227D01*
X546855Y225270D01*
Y221770D01*
X546798Y221813D01*
X546716Y221851D01*
X546609Y221885D01*
X546477Y221915D01*
X546396Y221927D01*
Y221273D01*
X546197Y221411D01*
X545889Y221534D01*
X545472Y221642D01*
X544947Y221736D01*
X543568Y221880D01*
X541754Y221967D01*
X539505Y221996D01*
Y225044D01*
X540684Y225051D01*
X544947Y225304D01*
X545472Y225398D01*
X545889Y225506D01*
X546197Y225629D01*
X546396Y225767D01*
Y225113D01*
D02*
G37*
G36*
X219685Y221020D02*
X219414Y221015D01*
X219155Y220993D01*
X218908Y220955D01*
X218672Y220902D01*
X218448Y220831D01*
X218236Y220745D01*
X218036Y220642D01*
X217847Y220523D01*
X217670Y220388D01*
X217505Y220237D01*
X216427Y221315D01*
X216578Y221480D01*
X216713Y221657D01*
X216832Y221845D01*
X216935Y222046D01*
X217021Y222258D01*
X217092Y222482D01*
X217145Y222718D01*
X217183Y222965D01*
X217205Y223224D01*
X217210Y223495D01*
X219685Y221020D01*
D02*
G37*
G36*
X814593Y266826D02*
Y179070D01*
X815037Y176840D01*
X816300Y174950D01*
X863290Y127960D01*
X865180Y126697D01*
X867410Y126253D01*
X965326D01*
X981954Y109626D01*
X982466Y108985D01*
X983024Y108164D01*
X983504Y107319D01*
X983908Y106448D01*
X984238Y105546D01*
X984497Y104609D01*
X984683Y103635D01*
X984773Y102819D01*
Y80010D01*
Y73660D01*
Y67310D01*
Y60960D01*
Y54610D01*
X985217Y52380D01*
X986480Y50490D01*
X988370Y49227D01*
X990600Y48783D01*
X992830Y49227D01*
X994720Y50490D01*
X995983Y52380D01*
X996427Y54610D01*
Y60960D01*
Y67310D01*
Y73660D01*
Y80010D01*
Y100667D01*
X996546Y101343D01*
X996733Y101903D01*
X996953Y102312D01*
X997203Y102617D01*
X997508Y102867D01*
X997917Y103087D01*
X998477Y103274D01*
X999153Y103393D01*
X1023620D01*
X1025850Y103837D01*
X1027740Y105100D01*
X1064570Y141930D01*
X1065833Y143820D01*
X1066277Y146050D01*
Y148336D01*
X1066784Y148607D01*
X1067547Y148888D01*
X1069340Y148531D01*
X1071307Y148922D01*
X1072974Y150036D01*
X1073093Y150215D01*
X1073124Y150241D01*
X1073178Y150281D01*
X1073214Y150303D01*
X1118745D01*
X1129473Y139576D01*
Y21590D01*
X1129730Y20302D01*
X1130459Y19209D01*
X1138682Y10987D01*
X1138156Y9717D01*
X988185D01*
X962501Y35401D01*
X961408Y36130D01*
X960120Y36387D01*
X883920D01*
X882632Y36130D01*
X881539Y35401D01*
X878716Y32577D01*
X758315D01*
X745047Y45844D01*
Y180276D01*
X745069Y180312D01*
X745109Y180366D01*
X745135Y180397D01*
X745314Y180516D01*
X746428Y182183D01*
X746819Y184150D01*
X746428Y186117D01*
X745314Y187784D01*
X743646Y188898D01*
X741680Y189289D01*
X740433Y189041D01*
X739540Y189178D01*
X739053Y189963D01*
X738808Y191196D01*
X737694Y192864D01*
X736027Y193978D01*
X734060Y194369D01*
X732094Y193978D01*
X730426Y192864D01*
X729312Y191196D01*
X728921Y189230D01*
X729204Y187811D01*
X728283Y187628D01*
X726616Y186514D01*
X725502Y184846D01*
X725111Y182880D01*
X725502Y180914D01*
X726616Y179246D01*
X726795Y179127D01*
X726821Y179096D01*
X726861Y179042D01*
X726883Y179006D01*
Y36830D01*
X727140Y35542D01*
X727869Y34449D01*
X746252Y16067D01*
X745726Y14797D01*
X646554D01*
X609157Y52194D01*
Y104140D01*
X608900Y105428D01*
X608171Y106521D01*
X578961Y135731D01*
X577868Y136460D01*
X576580Y136717D01*
X564005D01*
X502503Y198218D01*
X503142Y199375D01*
X504887Y199722D01*
X506554Y200836D01*
X506673Y201015D01*
X506704Y201041D01*
X506758Y201081D01*
X506794Y201103D01*
X538347D01*
X538941Y200088D01*
X538777Y199594D01*
X538483Y199448D01*
X538480Y199449D01*
X536513Y199058D01*
X534846Y197944D01*
X533732Y196276D01*
X533341Y194310D01*
X533732Y192344D01*
X534846Y190676D01*
X536513Y189562D01*
X538480Y189171D01*
X539539Y189382D01*
X539691Y189230D01*
X540083Y187264D01*
X541196Y185596D01*
X542864Y184482D01*
X544830Y184091D01*
X546796Y184482D01*
X548464Y185596D01*
X548583Y185775D01*
X548614Y185801D01*
X548668Y185841D01*
X548704Y185863D01*
X577725D01*
X587970Y175618D01*
X587980Y175577D01*
X587990Y175512D01*
X587993Y175471D01*
X587951Y175260D01*
X588343Y173293D01*
X589456Y171626D01*
X591124Y170513D01*
X593090Y170121D01*
X595056Y170513D01*
X596724Y171626D01*
X597874Y171063D01*
X598346Y170356D01*
X600014Y169242D01*
X601980Y168851D01*
X603946Y169242D01*
X605614Y170356D01*
X606728Y172024D01*
X607119Y173990D01*
X606728Y175956D01*
X605614Y177624D01*
X603946Y178738D01*
X601980Y179129D01*
X601769Y179087D01*
X601728Y179090D01*
X601663Y179100D01*
X601622Y179110D01*
X584041Y196691D01*
X582948Y197420D01*
X581660Y197677D01*
X554617D01*
X554131Y198850D01*
X556385Y201103D01*
X590425D01*
X602195Y189334D01*
X601921Y187960D01*
X602312Y185993D01*
X603426Y184326D01*
X605093Y183212D01*
X607060Y182821D01*
X609026Y183212D01*
X610351Y184097D01*
X611046Y183056D01*
X612714Y181942D01*
X614680Y181551D01*
X616646Y181942D01*
X618314Y183056D01*
X619428Y184723D01*
X619819Y186690D01*
X619428Y188657D01*
X618314Y190324D01*
X617603Y190798D01*
X617061Y191611D01*
X598011Y210661D01*
X596918Y211390D01*
X595630Y211647D01*
X551180D01*
X549892Y211390D01*
X548799Y210661D01*
X545975Y207837D01*
X506794D01*
X506758Y207859D01*
X506704Y207899D01*
X506673Y207925D01*
X506554Y208104D01*
X504887Y209218D01*
X502920Y209609D01*
X501447Y209316D01*
X500670Y210439D01*
X501288Y211364D01*
X501500Y212430D01*
X508446Y219376D01*
X541712D01*
X543371Y219297D01*
X544583Y219170D01*
X544918Y219110D01*
X544975Y219095D01*
X546410Y218137D01*
X548640Y217693D01*
X550870Y218137D01*
X552760Y219400D01*
X554023Y221290D01*
X554467Y223520D01*
Y252856D01*
X575620Y274010D01*
X576883Y275900D01*
X577327Y278130D01*
Y332740D01*
X576883Y334970D01*
X575620Y336860D01*
X560078Y352403D01*
X559684Y352965D01*
X559421Y353492D01*
X559287Y353938D01*
X559248Y354330D01*
X559287Y354723D01*
X559421Y355168D01*
X559684Y355695D01*
X560078Y356257D01*
X582804Y378983D01*
X702436D01*
X814593Y266826D01*
D02*
G37*
G36*
X444465Y219414D02*
X444487Y219155D01*
X444525Y218908D01*
X444579Y218672D01*
X444649Y218448D01*
X444735Y218236D01*
X444838Y218036D01*
X444957Y217847D01*
X445092Y217670D01*
X445243Y217505D01*
X444165Y216427D01*
X444000Y216578D01*
X443823Y216713D01*
X443634Y216832D01*
X443434Y216935D01*
X443222Y217021D01*
X442998Y217092D01*
X442762Y217145D01*
X442515Y217183D01*
X442256Y217205D01*
X441985Y217210D01*
X444460Y219685D01*
X444465Y219414D01*
D02*
G37*
G36*
X343107Y218049D02*
X343268Y217915D01*
X343441Y217785D01*
X343830Y217535D01*
X344046Y217415D01*
X344518Y217186D01*
X345045Y216972D01*
X341846Y215551D01*
X341923Y215777D01*
X341975Y215997D01*
X342000Y216211D01*
X341998Y216420D01*
X341971Y216623D01*
X341917Y216820D01*
X341837Y217011D01*
X341731Y217197D01*
X341599Y217377D01*
X341440Y217552D01*
X342961Y218186D01*
X343107Y218049D01*
D02*
G37*
G36*
X500080Y214715D02*
X499882Y214513D01*
X499299Y213853D01*
X499205Y213725D01*
X499132Y213610D01*
X499081Y213511D01*
X499050Y213426D01*
X499040Y213355D01*
X496565Y215830D01*
X496636Y215840D01*
X496721Y215871D01*
X496820Y215922D01*
X496935Y215995D01*
X497063Y216089D01*
X497364Y216338D01*
X497723Y216672D01*
X497925Y216870D01*
X500080Y214715D01*
D02*
G37*
G36*
X504901Y206032D02*
X505099Y205864D01*
X505301Y205716D01*
X505505Y205588D01*
X505714Y205479D01*
X505925Y205390D01*
X506139Y205321D01*
X506357Y205271D01*
X506577Y205242D01*
X506801Y205232D01*
Y203708D01*
X506577Y203698D01*
X506357Y203668D01*
X506139Y203619D01*
X505925Y203550D01*
X505714Y203461D01*
X505505Y203352D01*
X505301Y203224D01*
X505099Y203076D01*
X504901Y202908D01*
X504705Y202720D01*
Y206220D01*
X504901Y206032D01*
D02*
G37*
G36*
X546811Y200952D02*
X547009Y200784D01*
X547211Y200636D01*
X547416Y200508D01*
X547623Y200399D01*
X547835Y200310D01*
X548049Y200241D01*
X548266Y200191D01*
X548487Y200162D01*
X548711Y200152D01*
Y198628D01*
X548487Y198618D01*
X548266Y198589D01*
X548049Y198539D01*
X547835Y198470D01*
X547623Y198381D01*
X547416Y198272D01*
X547211Y198144D01*
X547009Y197996D01*
X546811Y197828D01*
X546615Y197640D01*
Y201140D01*
X546811Y200952D01*
D02*
G37*
G36*
X540461Y195872D02*
X540659Y195704D01*
X540861Y195556D01*
X541065Y195428D01*
X541273Y195319D01*
X541485Y195230D01*
X541699Y195161D01*
X541917Y195112D01*
X542137Y195082D01*
X542361Y195072D01*
Y193548D01*
X542137Y193538D01*
X541917Y193508D01*
X541699Y193459D01*
X541485Y193390D01*
X541273Y193301D01*
X541065Y193192D01*
X540861Y193064D01*
X540659Y192916D01*
X540461Y192748D01*
X540265Y192560D01*
Y196060D01*
X540461Y195872D01*
D02*
G37*
G36*
X605998Y191379D02*
X606157Y191245D01*
X606331Y191115D01*
X606720Y190865D01*
X606936Y190745D01*
X607407Y190516D01*
X607935Y190302D01*
X604736Y188881D01*
X604813Y189107D01*
X604865Y189327D01*
X604890Y189541D01*
X604888Y189750D01*
X604861Y189953D01*
X604807Y190150D01*
X604727Y190341D01*
X604621Y190527D01*
X604489Y190707D01*
X604330Y190882D01*
X605851Y191516D01*
X605998Y191379D01*
D02*
G37*
G36*
X546811Y190792D02*
X547009Y190624D01*
X547211Y190476D01*
X547416Y190348D01*
X547623Y190239D01*
X547835Y190150D01*
X548049Y190081D01*
X548266Y190032D01*
X548487Y190002D01*
X548711Y189992D01*
Y188468D01*
X548487Y188458D01*
X548266Y188428D01*
X548049Y188379D01*
X547835Y188310D01*
X547623Y188221D01*
X547416Y188112D01*
X547211Y187984D01*
X547009Y187836D01*
X546811Y187668D01*
X546615Y187480D01*
Y190980D01*
X546811Y190792D01*
D02*
G37*
G36*
X60040Y187201D02*
X60239Y187033D01*
X60440Y186884D01*
X60645Y186756D01*
X60853Y186647D01*
X61064Y186558D01*
X61279Y186489D01*
X61496Y186440D01*
X61717Y186410D01*
X61941Y186400D01*
Y184876D01*
X61717Y184867D01*
X61496Y184837D01*
X61279Y184788D01*
X61064Y184718D01*
X60853Y184629D01*
X60645Y184521D01*
X60440Y184392D01*
X60239Y184244D01*
X60040Y184076D01*
X59845Y183888D01*
Y187388D01*
X60040Y187201D01*
D02*
G37*
G36*
X743242Y182169D02*
X743074Y181971D01*
X742926Y181769D01*
X742798Y181565D01*
X742689Y181357D01*
X742600Y181145D01*
X742531Y180931D01*
X742482Y180714D01*
X742452Y180493D01*
X742442Y180269D01*
X740918D01*
X740908Y180493D01*
X740879Y180714D01*
X740829Y180931D01*
X740760Y181145D01*
X740671Y181357D01*
X740562Y181565D01*
X740434Y181769D01*
X740286Y181971D01*
X740118Y182169D01*
X739930Y182365D01*
X743430D01*
X743242Y182169D01*
D02*
G37*
G36*
X731812Y180899D02*
X731644Y180701D01*
X731496Y180499D01*
X731368Y180294D01*
X731259Y180086D01*
X731170Y179875D01*
X731101Y179661D01*
X731051Y179443D01*
X731022Y179223D01*
X731012Y178999D01*
X729488D01*
X729478Y179223D01*
X729448Y179443D01*
X729399Y179661D01*
X729330Y179875D01*
X729241Y180086D01*
X729132Y180294D01*
X729004Y180499D01*
X728856Y180701D01*
X728688Y180899D01*
X728500Y181095D01*
X732000D01*
X731812Y180899D01*
D02*
G37*
G36*
X591050Y178392D02*
X591227Y178257D01*
X591415Y178138D01*
X591616Y178035D01*
X591828Y177949D01*
X592052Y177879D01*
X592288Y177825D01*
X592535Y177787D01*
X592794Y177765D01*
X593065Y177760D01*
X590590Y175285D01*
X590585Y175556D01*
X590563Y175815D01*
X590526Y176062D01*
X590471Y176298D01*
X590401Y176522D01*
X590315Y176734D01*
X590212Y176935D01*
X590093Y177123D01*
X589958Y177300D01*
X589807Y177465D01*
X590885Y178543D01*
X591050Y178392D01*
D02*
G37*
G36*
X599940Y177122D02*
X600117Y176987D01*
X600305Y176868D01*
X600506Y176765D01*
X600718Y176679D01*
X600942Y176609D01*
X601178Y176555D01*
X601425Y176517D01*
X601684Y176495D01*
X601955Y176490D01*
X599480Y174015D01*
X599475Y174286D01*
X599453Y174545D01*
X599415Y174792D01*
X599361Y175028D01*
X599291Y175252D01*
X599205Y175464D01*
X599102Y175665D01*
X598983Y175853D01*
X598848Y176030D01*
X598697Y176196D01*
X599775Y177273D01*
X599940Y177122D01*
D02*
G37*
G36*
X1071321Y155232D02*
X1071519Y155064D01*
X1071721Y154916D01*
X1071926Y154788D01*
X1072133Y154679D01*
X1072345Y154590D01*
X1072559Y154521D01*
X1072776Y154472D01*
X1072997Y154442D01*
X1073221Y154432D01*
Y152908D01*
X1072997Y152898D01*
X1072776Y152868D01*
X1072559Y152819D01*
X1072345Y152750D01*
X1072133Y152661D01*
X1071926Y152552D01*
X1071721Y152424D01*
X1071519Y152276D01*
X1071321Y152108D01*
X1071125Y151920D01*
Y155420D01*
X1071321Y155232D01*
D02*
G37*
G36*
X280962Y123749D02*
X280794Y123551D01*
X280646Y123349D01*
X280518Y123145D01*
X280409Y122936D01*
X280320Y122725D01*
X280251Y122511D01*
X280201Y122294D01*
X280172Y122073D01*
X280162Y121849D01*
X278638D01*
X278628Y122073D01*
X278598Y122294D01*
X278549Y122511D01*
X278480Y122725D01*
X278391Y122936D01*
X278282Y123145D01*
X278154Y123349D01*
X278006Y123551D01*
X277838Y123749D01*
X277650Y123945D01*
X281150D01*
X280962Y123749D01*
D02*
G37*
G36*
X1326172Y119939D02*
X1326004Y119741D01*
X1325856Y119539D01*
X1325728Y119334D01*
X1325619Y119127D01*
X1325530Y118915D01*
X1325461Y118701D01*
X1325412Y118483D01*
X1325382Y118263D01*
X1325372Y118039D01*
X1323848D01*
X1323838Y118263D01*
X1323808Y118483D01*
X1323759Y118701D01*
X1323690Y118915D01*
X1323601Y119127D01*
X1323492Y119334D01*
X1323364Y119539D01*
X1323216Y119741D01*
X1323048Y119939D01*
X1322860Y120135D01*
X1326360D01*
X1326172Y119939D01*
D02*
G37*
G36*
X1300772Y113589D02*
X1300604Y113391D01*
X1300456Y113189D01*
X1300328Y112985D01*
X1300219Y112776D01*
X1300130Y112565D01*
X1300061Y112351D01*
X1300011Y112134D01*
X1299982Y111913D01*
X1299972Y111689D01*
X1298448D01*
X1298438Y111913D01*
X1298409Y112134D01*
X1298359Y112351D01*
X1298290Y112565D01*
X1298201Y112776D01*
X1298092Y112985D01*
X1297964Y113189D01*
X1297816Y113391D01*
X1297648Y113589D01*
X1297460Y113785D01*
X1300960D01*
X1300772Y113589D01*
D02*
G37*
G36*
X988342Y116032D02*
X989296Y115269D01*
X990286Y114595D01*
X991315Y114011D01*
X992380Y113518D01*
X993483Y113113D01*
X994622Y112799D01*
X995799Y112575D01*
X997014Y112440D01*
X998265Y112395D01*
X1000125Y106045D01*
X998919Y105982D01*
X997839Y105791D01*
X996887Y105473D01*
X996061Y105029D01*
X995362Y104458D01*
X994791Y103759D01*
X994346Y102934D01*
X994029Y101981D01*
X993839Y100901D01*
X993775Y99695D01*
X987425Y101555D01*
X987380Y102806D01*
X987245Y104021D01*
X987021Y105197D01*
X986707Y106337D01*
X986302Y107440D01*
X985808Y108505D01*
X985225Y109534D01*
X984551Y110525D01*
X983788Y111478D01*
X982935Y112395D01*
X987425Y116885D01*
X988342Y116032D01*
D02*
G37*
G36*
X536712Y86207D02*
X536741Y85986D01*
X536791Y85769D01*
X536860Y85555D01*
X536949Y85344D01*
X537058Y85135D01*
X537186Y84931D01*
X537334Y84729D01*
X537502Y84531D01*
X537690Y84335D01*
X534190D01*
X534378Y84531D01*
X534546Y84729D01*
X534694Y84931D01*
X534822Y85135D01*
X534931Y85344D01*
X535020Y85555D01*
X535089Y85769D01*
X535139Y85986D01*
X535168Y86207D01*
X535178Y86431D01*
X536702D01*
X536712Y86207D01*
D02*
G37*
G36*
X521472D02*
X521502Y85986D01*
X521551Y85769D01*
X521620Y85555D01*
X521709Y85344D01*
X521818Y85135D01*
X521946Y84931D01*
X522094Y84729D01*
X522262Y84531D01*
X522450Y84335D01*
X518950D01*
X519138Y84531D01*
X519306Y84729D01*
X519454Y84931D01*
X519582Y85135D01*
X519691Y85344D01*
X519780Y85555D01*
X519849Y85769D01*
X519898Y85986D01*
X519928Y86207D01*
X519938Y86431D01*
X521462D01*
X521472Y86207D01*
D02*
G37*
G36*
X506232D02*
X506261Y85986D01*
X506311Y85769D01*
X506380Y85555D01*
X506469Y85344D01*
X506578Y85135D01*
X506706Y84931D01*
X506854Y84729D01*
X507022Y84531D01*
X507210Y84335D01*
X503710D01*
X503898Y84531D01*
X504066Y84729D01*
X504214Y84931D01*
X504342Y85135D01*
X504451Y85344D01*
X504540Y85555D01*
X504609Y85769D01*
X504659Y85986D01*
X504688Y86207D01*
X504698Y86431D01*
X506222D01*
X506232Y86207D01*
D02*
G37*
G36*
X490992D02*
X491021Y85986D01*
X491071Y85769D01*
X491140Y85555D01*
X491229Y85344D01*
X491338Y85135D01*
X491466Y84931D01*
X491614Y84729D01*
X491782Y84531D01*
X491970Y84335D01*
X488470D01*
X488658Y84531D01*
X488826Y84729D01*
X488974Y84931D01*
X489102Y85135D01*
X489211Y85344D01*
X489300Y85555D01*
X489369Y85769D01*
X489418Y85986D01*
X489448Y86207D01*
X489458Y86431D01*
X490982D01*
X490992Y86207D01*
D02*
G37*
G36*
X529092Y81127D02*
X529122Y80906D01*
X529171Y80689D01*
X529240Y80475D01*
X529329Y80264D01*
X529438Y80056D01*
X529566Y79851D01*
X529714Y79649D01*
X529882Y79451D01*
X530070Y79255D01*
X526570D01*
X526758Y79451D01*
X526926Y79649D01*
X527074Y79851D01*
X527202Y80056D01*
X527311Y80264D01*
X527400Y80475D01*
X527469Y80689D01*
X527519Y80906D01*
X527548Y81127D01*
X527558Y81351D01*
X529082D01*
X529092Y81127D01*
D02*
G37*
G36*
X513852D02*
X513881Y80906D01*
X513931Y80689D01*
X514000Y80475D01*
X514089Y80264D01*
X514198Y80056D01*
X514326Y79851D01*
X514474Y79649D01*
X514642Y79451D01*
X514830Y79255D01*
X511330D01*
X511518Y79451D01*
X511686Y79649D01*
X511834Y79851D01*
X511962Y80056D01*
X512071Y80264D01*
X512160Y80475D01*
X512229Y80689D01*
X512279Y80906D01*
X512308Y81127D01*
X512318Y81351D01*
X513842D01*
X513852Y81127D01*
D02*
G37*
G36*
X498612D02*
X498642Y80906D01*
X498691Y80689D01*
X498760Y80475D01*
X498849Y80264D01*
X498958Y80056D01*
X499086Y79851D01*
X499234Y79649D01*
X499402Y79451D01*
X499590Y79255D01*
X496090D01*
X496278Y79451D01*
X496446Y79649D01*
X496594Y79851D01*
X496722Y80056D01*
X496831Y80264D01*
X496920Y80475D01*
X496989Y80689D01*
X497038Y80906D01*
X497068Y81127D01*
X497078Y81351D01*
X498602D01*
X498612Y81127D01*
D02*
G37*
G36*
X483372D02*
X483401Y80906D01*
X483451Y80689D01*
X483520Y80475D01*
X483609Y80264D01*
X483718Y80056D01*
X483846Y79851D01*
X483994Y79649D01*
X484162Y79451D01*
X484350Y79255D01*
X480850D01*
X481038Y79451D01*
X481206Y79649D01*
X481354Y79851D01*
X481482Y80056D01*
X481591Y80264D01*
X481680Y80475D01*
X481749Y80689D01*
X481799Y80906D01*
X481828Y81127D01*
X481838Y81351D01*
X483362D01*
X483372Y81127D01*
D02*
G37*
G36*
X1325382Y62077D02*
X1325412Y61856D01*
X1325461Y61639D01*
X1325530Y61425D01*
X1325619Y61213D01*
X1325728Y61006D01*
X1325856Y60801D01*
X1326004Y60599D01*
X1326172Y60401D01*
X1326360Y60205D01*
X1322860D01*
X1323048Y60401D01*
X1323216Y60599D01*
X1323364Y60801D01*
X1323492Y61006D01*
X1323601Y61213D01*
X1323690Y61425D01*
X1323759Y61639D01*
X1323808Y61856D01*
X1323838Y62077D01*
X1323848Y62301D01*
X1325372D01*
X1325382Y62077D01*
D02*
G37*
G36*
X1299982D02*
X1300011Y61856D01*
X1300061Y61639D01*
X1300130Y61425D01*
X1300219Y61213D01*
X1300328Y61006D01*
X1300456Y60801D01*
X1300604Y60599D01*
X1300772Y60401D01*
X1300960Y60205D01*
X1297460D01*
X1297648Y60401D01*
X1297816Y60599D01*
X1297964Y60801D01*
X1298092Y61006D01*
X1298201Y61213D01*
X1298290Y61425D01*
X1298359Y61639D01*
X1298409Y61856D01*
X1298438Y62077D01*
X1298448Y62301D01*
X1299972D01*
X1299982Y62077D01*
D02*
G37*
G36*
X1196598Y60297D02*
X1196720Y60216D01*
X1196861Y60144D01*
X1197020Y60081D01*
X1197197Y60028D01*
X1197393Y59985D01*
X1197608Y59952D01*
X1197841Y59928D01*
X1198363Y59908D01*
Y57368D01*
X1198093Y57364D01*
X1197608Y57325D01*
X1197393Y57292D01*
X1197197Y57248D01*
X1197020Y57196D01*
X1196861Y57133D01*
X1196720Y57061D01*
X1196598Y56980D01*
X1196495Y56888D01*
Y60388D01*
X1196598Y60297D01*
D02*
G37*
G36*
X894791Y18072D02*
X894989Y17904D01*
X895191Y17756D01*
X895396Y17628D01*
X895603Y17519D01*
X895815Y17430D01*
X896029Y17361D01*
X896246Y17312D01*
X896467Y17282D01*
X896691Y17272D01*
Y15748D01*
X896467Y15738D01*
X896246Y15709D01*
X896029Y15659D01*
X895815Y15590D01*
X895603Y15501D01*
X895396Y15392D01*
X895191Y15264D01*
X894989Y15116D01*
X894791Y14948D01*
X894595Y14760D01*
Y18260D01*
X894791Y18072D01*
D02*
G37*
G36*
X1225035Y10950D02*
X1224839Y11138D01*
X1224641Y11306D01*
X1224439Y11454D01*
X1224234Y11582D01*
X1224026Y11691D01*
X1223815Y11780D01*
X1223601Y11849D01*
X1223383Y11898D01*
X1223163Y11928D01*
X1222939Y11938D01*
Y13462D01*
X1223163Y13472D01*
X1223383Y13501D01*
X1223601Y13551D01*
X1223815Y13620D01*
X1224026Y13709D01*
X1224234Y13818D01*
X1224439Y13946D01*
X1224641Y14094D01*
X1224839Y14262D01*
X1225035Y14450D01*
Y10950D01*
D02*
G37*
G36*
X807069Y1659D02*
X807191Y1577D01*
X807331Y1505D01*
X807490Y1443D01*
X807668Y1390D01*
X807864Y1347D01*
X808078Y1313D01*
X808311Y1289D01*
X808833Y1270D01*
Y-1270D01*
X808563Y-1275D01*
X808078Y-1313D01*
X807864Y-1347D01*
X807668Y-1390D01*
X807490Y-1443D01*
X807331Y-1505D01*
X807191Y-1577D01*
X807069Y-1659D01*
X806965Y-1750D01*
Y1750D01*
X807069Y1659D01*
D02*
G37*
G36*
X1252975Y-5560D02*
X1252779Y-5372D01*
X1252581Y-5204D01*
X1252379Y-5056D01*
X1252175Y-4928D01*
X1251966Y-4819D01*
X1251755Y-4730D01*
X1251541Y-4661D01*
X1251323Y-4611D01*
X1251103Y-4582D01*
X1250879Y-4572D01*
Y-3048D01*
X1251103Y-3038D01*
X1251323Y-3009D01*
X1251541Y-2959D01*
X1251755Y-2890D01*
X1251966Y-2801D01*
X1252175Y-2692D01*
X1252379Y-2564D01*
X1252581Y-2416D01*
X1252779Y-2248D01*
X1252975Y-2060D01*
Y-5560D01*
D02*
G37*
G36*
X1274807Y-30194D02*
X1274941Y-30701D01*
X1275166Y-31251D01*
X1275480Y-31846D01*
X1275884Y-32485D01*
X1276378Y-33167D01*
X1277634Y-34664D01*
X1278397Y-35478D01*
X1279250Y-36335D01*
X1268750D01*
X1269603Y-35478D01*
X1271622Y-33167D01*
X1272116Y-32485D01*
X1272520Y-31846D01*
X1272834Y-31251D01*
X1273058Y-30701D01*
X1273193Y-30194D01*
X1273238Y-29730D01*
X1274762D01*
X1274807Y-30194D01*
D02*
G37*
G36*
X828045Y-37257D02*
X828083Y-37742D01*
X828117Y-37956D01*
X828160Y-38152D01*
X828213Y-38330D01*
X828275Y-38489D01*
X828347Y-38629D01*
X828429Y-38751D01*
X828520Y-38855D01*
X825020D01*
X825111Y-38751D01*
X825193Y-38629D01*
X825265Y-38489D01*
X825327Y-38330D01*
X825380Y-38152D01*
X825423Y-37956D01*
X825457Y-37742D01*
X825481Y-37509D01*
X825500Y-36987D01*
X828040D01*
X828045Y-37257D01*
D02*
G37*
G36*
X791502Y-41351D02*
X791334Y-41549D01*
X791186Y-41751D01*
X791058Y-41955D01*
X790949Y-42164D01*
X790860Y-42375D01*
X790791Y-42589D01*
X790742Y-42807D01*
X790712Y-43027D01*
X790702Y-43251D01*
X789178D01*
X789168Y-43027D01*
X789138Y-42807D01*
X789089Y-42589D01*
X789020Y-42375D01*
X788931Y-42164D01*
X788822Y-41955D01*
X788694Y-41751D01*
X788546Y-41549D01*
X788378Y-41351D01*
X788190Y-41155D01*
X791690D01*
X791502Y-41351D01*
D02*
G37*
G36*
X558782Y125160D02*
X560070Y124903D01*
X573915D01*
X597343Y101475D01*
Y48260D01*
X597600Y46972D01*
X598329Y45879D01*
X640239Y3969D01*
X641332Y3240D01*
X642620Y2983D01*
X799701D01*
X800382Y1713D01*
X800041Y0D01*
X800432Y-1966D01*
X801546Y-3634D01*
X803214Y-4748D01*
X805180Y-5139D01*
X807147Y-4748D01*
X808438Y-3885D01*
X816271D01*
X822885Y-10499D01*
Y-37382D01*
X822022Y-38674D01*
X821631Y-40640D01*
X821972Y-42353D01*
X821291Y-43623D01*
X794687D01*
X794008Y-42353D01*
X794688Y-41336D01*
X795079Y-39370D01*
X794688Y-37404D01*
X793574Y-35736D01*
X791907Y-34622D01*
X789940Y-34231D01*
X787973Y-34622D01*
X786306Y-35736D01*
X785192Y-37404D01*
X784801Y-39370D01*
X785192Y-41336D01*
X786306Y-43004D01*
X786485Y-43123D01*
X786511Y-43154D01*
X786551Y-43208D01*
X786573Y-43244D01*
Y-44450D01*
X786830Y-45738D01*
X787559Y-46831D01*
X789432Y-48703D01*
X788906Y-49973D01*
X781987D01*
X781308Y-48703D01*
X781988Y-47687D01*
X782379Y-45720D01*
X781988Y-43753D01*
X780874Y-42086D01*
X779206Y-40972D01*
X777240Y-40581D01*
X775274Y-40972D01*
X773606Y-42086D01*
X772492Y-43753D01*
X772101Y-45720D01*
X772492Y-47687D01*
X773606Y-49354D01*
X773785Y-49473D01*
X773811Y-49504D01*
X773851Y-49558D01*
X773873Y-49594D01*
Y-50800D01*
X774130Y-52088D01*
X774859Y-53181D01*
X776732Y-55053D01*
X776206Y-56323D01*
X569085D01*
X557087Y-44325D01*
Y124765D01*
X558357Y125443D01*
X558782Y125160D01*
D02*
G37*
G36*
X778802Y-47701D02*
X778634Y-47899D01*
X778486Y-48101D01*
X778358Y-48306D01*
X778249Y-48513D01*
X778160Y-48725D01*
X778091Y-48939D01*
X778042Y-49156D01*
X778012Y-49377D01*
X778002Y-49601D01*
X776478D01*
X776468Y-49377D01*
X776439Y-49156D01*
X776389Y-48939D01*
X776320Y-48725D01*
X776231Y-48513D01*
X776122Y-48306D01*
X775994Y-48101D01*
X775846Y-47899D01*
X775678Y-47701D01*
X775490Y-47505D01*
X778990D01*
X778802Y-47701D01*
D02*
G37*
G36*
X1256103Y-42976D02*
X1256309Y-46038D01*
X1256442Y-46870D01*
X1256608Y-47607D01*
X1256807Y-48250D01*
X1257038Y-48798D01*
X1257301Y-49251D01*
X1257597Y-49611D01*
X1256519Y-50688D01*
X1256160Y-50392D01*
X1255706Y-50129D01*
X1255158Y-49898D01*
X1254515Y-49700D01*
X1253778Y-49534D01*
X1252946Y-49401D01*
X1251000Y-49231D01*
X1249885Y-49195D01*
X1248675Y-49191D01*
X1256100Y-41767D01*
X1256103Y-42976D01*
D02*
G37*
G36*
X859020Y-50208D02*
X859197Y-50343D01*
X859386Y-50462D01*
X859586Y-50565D01*
X859798Y-50651D01*
X860022Y-50722D01*
X860258Y-50775D01*
X860505Y-50813D01*
X860764Y-50835D01*
X861035Y-50840D01*
X858560Y-53315D01*
X858555Y-53044D01*
X858533Y-52785D01*
X858495Y-52538D01*
X858441Y-52302D01*
X858371Y-52078D01*
X858285Y-51866D01*
X858182Y-51666D01*
X858063Y-51477D01*
X857928Y-51300D01*
X857777Y-51135D01*
X858855Y-50057D01*
X859020Y-50208D01*
D02*
G37*
G36*
X823715Y-55090D02*
X823519Y-54902D01*
X823321Y-54734D01*
X823119Y-54586D01*
X822915Y-54458D01*
X822707Y-54349D01*
X822495Y-54260D01*
X822281Y-54191D01*
X822064Y-54142D01*
X821843Y-54112D01*
X821619Y-54102D01*
Y-52578D01*
X821843Y-52568D01*
X822064Y-52538D01*
X822281Y-52489D01*
X822495Y-52420D01*
X822707Y-52331D01*
X822915Y-52222D01*
X823119Y-52094D01*
X823321Y-51946D01*
X823519Y-51778D01*
X823715Y-51590D01*
Y-55090D01*
D02*
G37*
G36*
X1164840Y-58391D02*
X1165294Y-58654D01*
X1165842Y-58885D01*
X1166485Y-59083D01*
X1167222Y-59249D01*
X1168054Y-59383D01*
X1170000Y-59552D01*
X1171115Y-59588D01*
X1172325Y-59592D01*
X1164900Y-67017D01*
X1164897Y-65807D01*
X1164691Y-62745D01*
X1164557Y-61913D01*
X1164392Y-61176D01*
X1164193Y-60534D01*
X1163962Y-59985D01*
X1163699Y-59532D01*
X1163403Y-59173D01*
X1164481Y-58095D01*
X1164840Y-58391D01*
D02*
G37*
G36*
X1317240Y-58391D02*
X1317694Y-58654D01*
X1318242Y-58885D01*
X1318885Y-59083D01*
X1319622Y-59249D01*
X1320454Y-59383D01*
X1322400Y-59552D01*
X1323515Y-59588D01*
X1324725Y-59592D01*
X1317300Y-67017D01*
X1317297Y-65807D01*
X1317091Y-62745D01*
X1316958Y-61913D01*
X1316792Y-61176D01*
X1316593Y-60534D01*
X1316362Y-59985D01*
X1316099Y-59532D01*
X1315803Y-59173D01*
X1316881Y-58095D01*
X1317240Y-58391D01*
D02*
G37*
G36*
X1291840D02*
X1292294Y-58654D01*
X1292842Y-58885D01*
X1293485Y-59083D01*
X1294222Y-59249D01*
X1295054Y-59383D01*
X1297000Y-59552D01*
X1298115Y-59588D01*
X1299325Y-59592D01*
X1291900Y-67017D01*
X1291897Y-65807D01*
X1291691Y-62745D01*
X1291557Y-61913D01*
X1291392Y-61176D01*
X1291193Y-60534D01*
X1290962Y-59985D01*
X1290699Y-59532D01*
X1290403Y-59173D01*
X1291481Y-58095D01*
X1291840Y-58391D01*
D02*
G37*
G36*
X1190240D02*
X1190694Y-58654D01*
X1191242Y-58885D01*
X1191885Y-59083D01*
X1192622Y-59249D01*
X1193454Y-59383D01*
X1195400Y-59552D01*
X1196515Y-59588D01*
X1197725Y-59592D01*
X1190300Y-67017D01*
X1190297Y-65807D01*
X1190091Y-62745D01*
X1189958Y-61913D01*
X1189792Y-61176D01*
X1189593Y-60534D01*
X1189362Y-59985D01*
X1189099Y-59532D01*
X1188803Y-59173D01*
X1189881Y-58095D01*
X1190240Y-58391D01*
D02*
G37*
G36*
X1114040D02*
X1114494Y-58654D01*
X1115042Y-58885D01*
X1115685Y-59083D01*
X1116422Y-59249D01*
X1117254Y-59383D01*
X1119200Y-59552D01*
X1120315Y-59588D01*
X1121525Y-59592D01*
X1114100Y-67017D01*
X1114097Y-65807D01*
X1113891Y-62745D01*
X1113757Y-61913D01*
X1113592Y-61176D01*
X1113393Y-60534D01*
X1113162Y-59985D01*
X1112899Y-59532D01*
X1112603Y-59173D01*
X1113681Y-58095D01*
X1114040Y-58391D01*
D02*
G37*
G36*
X1140498Y-70829D02*
X1140400Y-70689D01*
X1140279Y-70563D01*
X1140134Y-70451D01*
X1139965Y-70355D01*
X1139771Y-70274D01*
X1139554Y-70207D01*
X1139312Y-70155D01*
X1139047Y-70118D01*
X1138757Y-70096D01*
X1138444Y-70089D01*
Y-68565D01*
X1138662Y-68556D01*
X1138856Y-68531D01*
X1139025Y-68488D01*
X1139170Y-68429D01*
X1139291Y-68353D01*
X1139387Y-68259D01*
X1139458Y-68149D01*
X1139505Y-68022D01*
X1139528Y-67878D01*
X1139526Y-67717D01*
X1140498Y-70829D01*
D02*
G37*
G36*
X1699471Y-73918D02*
X1699115Y-74770D01*
X1698826Y-75070D01*
X1696360Y-74745D01*
X1693739Y-75090D01*
X1691296Y-76102D01*
X1689199Y-77711D01*
X1687590Y-79808D01*
X1686578Y-82251D01*
X1686233Y-84872D01*
X1686578Y-87493D01*
X1687590Y-89935D01*
X1689199Y-92032D01*
X1689422Y-92203D01*
X1690099Y-92884D01*
X1690787Y-93619D01*
X1691939Y-94990D01*
X1692330Y-95531D01*
X1692637Y-96016D01*
X1692844Y-96408D01*
X1692957Y-96687D01*
X1692993Y-96820D01*
Y-101836D01*
X1685166Y-109663D01*
X1541229D01*
X1540423Y-108682D01*
X1540569Y-107950D01*
X1540178Y-105983D01*
X1539064Y-104316D01*
X1537397Y-103202D01*
X1537338Y-103191D01*
X1537270Y-102852D01*
X1536541Y-101759D01*
X1532128Y-97347D01*
X1532654Y-96077D01*
X1559435D01*
X1565870Y-102512D01*
X1565880Y-102553D01*
X1565890Y-102618D01*
X1565893Y-102659D01*
X1565851Y-102870D01*
X1566242Y-104837D01*
X1567356Y-106504D01*
X1569023Y-107618D01*
X1570990Y-108009D01*
X1572957Y-107618D01*
X1574624Y-106504D01*
X1575738Y-104837D01*
X1576129Y-102870D01*
X1575738Y-100904D01*
X1574624Y-99236D01*
X1572957Y-98122D01*
X1570990Y-97731D01*
X1570779Y-97773D01*
X1570738Y-97770D01*
X1570673Y-97760D01*
X1570632Y-97750D01*
X1563211Y-90329D01*
X1562118Y-89600D01*
X1560830Y-89343D01*
X1435100D01*
X1433812Y-89600D01*
X1432719Y-90329D01*
X1428625Y-94423D01*
X1426761D01*
X1426376Y-93153D01*
X1427304Y-92534D01*
X1428418Y-90866D01*
X1428809Y-88900D01*
X1428418Y-86933D01*
X1427555Y-85642D01*
Y-67126D01*
X1692678D01*
X1699471Y-73918D01*
D02*
G37*
G36*
X261157Y-73372D02*
X261292Y-73879D01*
X261516Y-74430D01*
X261830Y-75024D01*
X262234Y-75663D01*
X262728Y-76346D01*
X263984Y-77842D01*
X264747Y-78656D01*
X265600Y-79514D01*
X255100D01*
X255953Y-78656D01*
X257972Y-76346D01*
X258466Y-75663D01*
X258870Y-75024D01*
X259184Y-74430D01*
X259408Y-73879D01*
X259543Y-73372D01*
X259588Y-72909D01*
X261112D01*
X261157Y-73372D01*
D02*
G37*
G36*
X1399822Y-79232D02*
X1399654Y-79431D01*
X1399506Y-79632D01*
X1399378Y-79837D01*
X1399269Y-80045D01*
X1399180Y-80256D01*
X1399111Y-80471D01*
X1399061Y-80688D01*
X1399032Y-80909D01*
X1399022Y-81133D01*
X1397498D01*
X1397488Y-80909D01*
X1397458Y-80688D01*
X1397409Y-80471D01*
X1397340Y-80256D01*
X1397251Y-80045D01*
X1397142Y-79837D01*
X1397014Y-79632D01*
X1396866Y-79431D01*
X1396698Y-79232D01*
X1396510Y-79037D01*
X1400010D01*
X1399822Y-79232D01*
D02*
G37*
G36*
X1717477Y-80894D02*
X1717626Y-81029D01*
X1717788Y-81147D01*
X1717963Y-81250D01*
X1718150Y-81337D01*
X1718350Y-81408D01*
X1718563Y-81463D01*
X1718789Y-81502D01*
X1719028Y-81526D01*
X1719279Y-81534D01*
X1719084Y-83566D01*
X1718834Y-83573D01*
X1718595Y-83593D01*
X1718365Y-83626D01*
X1718146Y-83672D01*
X1717936Y-83732D01*
X1717736Y-83805D01*
X1717546Y-83892D01*
X1717366Y-83991D01*
X1717196Y-84105D01*
X1717035Y-84231D01*
X1717341Y-80744D01*
X1717477Y-80894D01*
D02*
G37*
G36*
X1355845Y-85570D02*
X1355649Y-85382D01*
X1355451Y-85214D01*
X1355249Y-85066D01*
X1355045Y-84938D01*
X1354836Y-84829D01*
X1354625Y-84740D01*
X1354411Y-84671D01*
X1354194Y-84621D01*
X1353973Y-84592D01*
X1353749Y-84582D01*
Y-83058D01*
X1353973Y-83048D01*
X1354194Y-83019D01*
X1354411Y-82969D01*
X1354625Y-82900D01*
X1354836Y-82811D01*
X1355045Y-82702D01*
X1355249Y-82574D01*
X1355451Y-82426D01*
X1355649Y-82258D01*
X1355845Y-82070D01*
Y-85570D01*
D02*
G37*
G36*
X1424945Y-85517D02*
X1424983Y-86002D01*
X1425017Y-86216D01*
X1425060Y-86412D01*
X1425113Y-86590D01*
X1425175Y-86749D01*
X1425247Y-86889D01*
X1425329Y-87011D01*
X1425420Y-87115D01*
X1421920D01*
X1422011Y-87011D01*
X1422093Y-86889D01*
X1422165Y-86749D01*
X1422227Y-86590D01*
X1422280Y-86412D01*
X1422323Y-86216D01*
X1422357Y-86002D01*
X1422381Y-85769D01*
X1422400Y-85247D01*
X1424940D01*
X1424945Y-85517D01*
D02*
G37*
G36*
X1700757Y-91086D02*
X1698737Y-93396D01*
X1698244Y-94079D01*
X1697840Y-94717D01*
X1697526Y-95312D01*
X1697301Y-95863D01*
X1697167Y-96370D01*
X1697122Y-96833D01*
X1695598D01*
X1695553Y-96370D01*
X1695418Y-95863D01*
X1695194Y-95312D01*
X1694880Y-94717D01*
X1694476Y-94079D01*
X1693982Y-93396D01*
X1692725Y-91900D01*
X1691962Y-91086D01*
X1691110Y-90228D01*
X1701610D01*
X1700757Y-91086D01*
D02*
G37*
G36*
X904995Y-98270D02*
X904799Y-98082D01*
X904601Y-97914D01*
X904399Y-97766D01*
X904194Y-97638D01*
X903987Y-97529D01*
X903775Y-97440D01*
X903561Y-97371D01*
X903344Y-97322D01*
X903123Y-97292D01*
X902899Y-97282D01*
Y-95758D01*
X903123Y-95748D01*
X903344Y-95718D01*
X903561Y-95669D01*
X903775Y-95600D01*
X903987Y-95511D01*
X904194Y-95402D01*
X904399Y-95274D01*
X904601Y-95126D01*
X904799Y-94958D01*
X904995Y-94770D01*
Y-98270D01*
D02*
G37*
G36*
X931621Y-98768D02*
X931819Y-98936D01*
X932021Y-99084D01*
X932225Y-99212D01*
X932433Y-99321D01*
X932645Y-99410D01*
X932859Y-99479D01*
X933076Y-99529D01*
X933297Y-99558D01*
X933521Y-99568D01*
Y-101092D01*
X933297Y-101102D01*
X933076Y-101131D01*
X932859Y-101181D01*
X932645Y-101250D01*
X932433Y-101339D01*
X932225Y-101448D01*
X932021Y-101576D01*
X931819Y-101724D01*
X931621Y-101892D01*
X931425Y-102080D01*
Y-98580D01*
X931621Y-98768D01*
D02*
G37*
G36*
X1568950Y-99738D02*
X1569127Y-99873D01*
X1569315Y-99992D01*
X1569516Y-100095D01*
X1569728Y-100181D01*
X1569952Y-100252D01*
X1570188Y-100305D01*
X1570435Y-100343D01*
X1570694Y-100365D01*
X1570965Y-100370D01*
X1568490Y-102845D01*
X1568485Y-102574D01*
X1568463Y-102315D01*
X1568425Y-102068D01*
X1568371Y-101832D01*
X1568301Y-101608D01*
X1568215Y-101396D01*
X1568112Y-101195D01*
X1567993Y-101007D01*
X1567858Y-100830D01*
X1567707Y-100665D01*
X1568784Y-99587D01*
X1568950Y-99738D01*
D02*
G37*
G36*
X1496173Y-111090D02*
X1496109Y-110880D01*
X1496025Y-110691D01*
X1495921Y-110525D01*
X1495798Y-110381D01*
X1495656Y-110259D01*
X1495494Y-110159D01*
X1495313Y-110082D01*
X1495112Y-110026D01*
X1494892Y-109993D01*
X1494652Y-109982D01*
X1495644Y-108458D01*
X1495865Y-108455D01*
X1496526Y-108402D01*
X1496746Y-108371D01*
X1497401Y-108235D01*
X1497618Y-108176D01*
X1497835Y-108110D01*
X1496173Y-111090D01*
D02*
G37*
%LPC*%
G36*
X1619270Y511040D02*
X1615270D01*
Y499270D01*
X1624540D01*
Y505770D01*
X1619270Y511040D01*
D02*
G37*
G36*
X1644270D02*
X1633730D01*
X1628460Y505770D01*
Y490230D01*
X1633730Y484960D01*
X1644270D01*
X1649540Y490230D01*
Y505770D01*
X1644270Y511040D01*
D02*
G37*
G36*
X1624540Y496730D02*
X1615270D01*
Y484960D01*
X1619270D01*
X1624540Y490230D01*
Y496730D01*
D02*
G37*
G36*
X1671000Y443618D02*
X1667856Y443308D01*
X1664832Y442391D01*
X1662045Y440901D01*
X1659603Y438897D01*
X1657599Y436454D01*
X1656109Y433668D01*
X1655192Y430644D01*
X1654882Y427500D01*
Y418500D01*
X1655192Y415356D01*
X1656109Y412332D01*
X1657599Y409546D01*
X1659603Y407103D01*
X1662045Y405099D01*
X1664832Y403609D01*
X1667856Y402692D01*
X1671000Y402382D01*
X1674144Y402692D01*
X1677168Y403609D01*
X1679955Y405099D01*
X1682397Y407103D01*
X1684401Y409546D01*
X1685891Y412332D01*
X1686808Y415356D01*
X1687118Y418500D01*
Y427500D01*
X1686808Y430644D01*
X1685891Y433668D01*
X1684401Y436454D01*
X1682397Y438897D01*
X1679955Y440901D01*
X1677168Y442391D01*
X1674144Y443308D01*
X1671000Y443618D01*
D02*
G37*
G36*
X1644270Y366040D02*
X1640270D01*
Y354270D01*
X1649540D01*
Y360770D01*
X1644270Y366040D01*
D02*
G37*
G36*
X1637730D02*
X1633730D01*
X1628460Y360770D01*
Y354270D01*
X1637730D01*
Y366040D01*
D02*
G37*
G36*
X1299270Y511040D02*
X1295270D01*
Y499270D01*
X1304540D01*
Y505770D01*
X1299270Y511040D01*
D02*
G37*
G36*
X979270D02*
X975270D01*
Y499270D01*
X984540D01*
Y505770D01*
X979270Y511040D01*
D02*
G37*
G36*
X972730D02*
X968730D01*
X963460Y505770D01*
Y499270D01*
X972730D01*
Y511040D01*
D02*
G37*
G36*
X1292730D02*
X1288730D01*
X1283460Y505770D01*
Y499270D01*
X1292730D01*
Y511040D01*
D02*
G37*
G36*
X1324270D02*
X1313730D01*
X1308460Y505770D01*
Y490230D01*
X1313730Y484960D01*
X1324270D01*
X1329540Y490230D01*
Y505770D01*
X1324270Y511040D01*
D02*
G37*
G36*
X1304540Y496730D02*
X1295270D01*
Y484960D01*
X1299270D01*
X1304540Y490230D01*
Y496730D01*
D02*
G37*
G36*
X1292730D02*
X1283460D01*
Y490230D01*
X1288730Y484960D01*
X1292730D01*
Y496730D01*
D02*
G37*
G36*
X1274270Y511040D02*
X1263730D01*
X1258460Y505770D01*
Y490230D01*
X1263730Y484960D01*
X1274270D01*
X1279540Y490230D01*
Y505770D01*
X1274270Y511040D01*
D02*
G37*
G36*
X1004270D02*
X993730D01*
X988460Y505770D01*
Y490230D01*
X993730Y484960D01*
X1004270D01*
X1009540Y490230D01*
Y505770D01*
X1004270Y511040D01*
D02*
G37*
G36*
X984540Y496730D02*
X975270D01*
Y484960D01*
X979270D01*
X984540Y490230D01*
Y496730D01*
D02*
G37*
G36*
X972730D02*
X963460D01*
Y490230D01*
X968730Y484960D01*
X972730D01*
Y496730D01*
D02*
G37*
G36*
X954270Y511040D02*
X943730D01*
X938460Y505770D01*
Y490230D01*
X943730Y484960D01*
X954270D01*
X959540Y490230D01*
Y505770D01*
X954270Y511040D01*
D02*
G37*
G36*
X-68000Y504458D02*
X-73312Y504040D01*
X-78494Y502796D01*
X-83417Y500757D01*
X-87960Y497973D01*
X-92012Y494512D01*
X-95473Y490460D01*
X-98257Y485917D01*
X-100296Y480994D01*
X-101540Y475812D01*
X-101958Y470500D01*
X-101540Y465188D01*
X-100296Y460006D01*
X-98257Y455083D01*
X-95473Y450540D01*
X-92012Y446488D01*
X-87960Y443027D01*
X-83417Y440243D01*
X-78494Y438204D01*
X-73312Y436960D01*
X-68000Y436542D01*
X-62688Y436960D01*
X-57506Y438204D01*
X-52583Y440243D01*
X-48040Y443027D01*
X-43988Y446488D01*
X-40527Y450540D01*
X-37743Y455083D01*
X-35704Y460006D01*
X-34460Y465188D01*
X-34042Y470500D01*
X-34460Y475812D01*
X-35704Y480994D01*
X-37743Y485917D01*
X-40527Y490460D01*
X-43988Y494512D01*
X-48040Y497973D01*
X-52583Y500757D01*
X-57506Y502796D01*
X-62688Y504040D01*
X-68000Y504458D01*
D02*
G37*
G36*
X1557000Y443618D02*
X1553856Y443308D01*
X1550832Y442391D01*
X1548046Y440901D01*
X1545603Y438897D01*
X1543599Y436454D01*
X1542109Y433668D01*
X1541192Y430644D01*
X1540882Y427500D01*
Y418500D01*
X1541192Y415356D01*
X1542109Y412332D01*
X1543599Y409546D01*
X1545603Y407103D01*
X1548046Y405099D01*
X1550832Y403609D01*
X1553856Y402692D01*
X1557000Y402382D01*
X1560144Y402692D01*
X1563168Y403609D01*
X1565954Y405099D01*
X1568397Y407103D01*
X1570401Y409546D01*
X1571891Y412332D01*
X1572808Y415356D01*
X1573118Y418500D01*
Y427500D01*
X1572808Y430644D01*
X1571891Y433668D01*
X1570401Y436454D01*
X1568397Y438897D01*
X1565954Y440901D01*
X1563168Y442391D01*
X1560144Y443308D01*
X1557000Y443618D01*
D02*
G37*
G36*
X1351000D02*
X1347856Y443308D01*
X1344832Y442391D01*
X1342045Y440901D01*
X1339603Y438897D01*
X1337599Y436454D01*
X1336109Y433668D01*
X1335192Y430644D01*
X1334882Y427500D01*
Y418500D01*
X1335192Y415356D01*
X1336109Y412332D01*
X1337599Y409546D01*
X1339603Y407103D01*
X1342045Y405099D01*
X1344832Y403609D01*
X1347856Y402692D01*
X1351000Y402382D01*
X1354144Y402692D01*
X1357168Y403609D01*
X1359955Y405099D01*
X1362397Y407103D01*
X1364401Y409546D01*
X1365891Y412332D01*
X1366808Y415356D01*
X1367118Y418500D01*
Y427500D01*
X1366808Y430644D01*
X1365891Y433668D01*
X1364401Y436454D01*
X1362397Y438897D01*
X1359955Y440901D01*
X1357168Y442391D01*
X1354144Y443308D01*
X1351000Y443618D01*
D02*
G37*
G36*
X1237000D02*
X1233856Y443308D01*
X1230832Y442391D01*
X1228046Y440901D01*
X1225603Y438897D01*
X1223599Y436454D01*
X1222109Y433668D01*
X1221192Y430644D01*
X1220882Y427500D01*
Y418500D01*
X1221192Y415356D01*
X1222109Y412332D01*
X1223599Y409546D01*
X1225603Y407103D01*
X1228046Y405099D01*
X1230832Y403609D01*
X1233856Y402692D01*
X1237000Y402382D01*
X1240144Y402692D01*
X1243168Y403609D01*
X1245955Y405099D01*
X1248397Y407103D01*
X1250401Y409546D01*
X1251891Y412332D01*
X1252808Y415356D01*
X1253118Y418500D01*
Y427500D01*
X1252808Y430644D01*
X1251891Y433668D01*
X1250401Y436454D01*
X1248397Y438897D01*
X1245955Y440901D01*
X1243168Y442391D01*
X1240144Y443308D01*
X1237000Y443618D01*
D02*
G37*
G36*
X1031000D02*
X1027856Y443308D01*
X1024832Y442391D01*
X1022046Y440901D01*
X1019603Y438897D01*
X1017599Y436454D01*
X1016109Y433668D01*
X1015192Y430644D01*
X1014882Y427500D01*
Y418500D01*
X1015192Y415356D01*
X1016109Y412332D01*
X1017599Y409546D01*
X1019603Y407103D01*
X1022046Y405099D01*
X1024832Y403609D01*
X1027856Y402692D01*
X1031000Y402382D01*
X1034144Y402692D01*
X1037168Y403609D01*
X1039955Y405099D01*
X1042397Y407103D01*
X1044401Y409546D01*
X1045891Y412332D01*
X1046808Y415356D01*
X1047118Y418500D01*
Y427500D01*
X1046808Y430644D01*
X1045891Y433668D01*
X1044401Y436454D01*
X1042397Y438897D01*
X1039955Y440901D01*
X1037168Y442391D01*
X1034144Y443308D01*
X1031000Y443618D01*
D02*
G37*
G36*
X917000D02*
X913856Y443308D01*
X910832Y442391D01*
X908046Y440901D01*
X905603Y438897D01*
X903599Y436454D01*
X902109Y433668D01*
X901192Y430644D01*
X900882Y427500D01*
Y418500D01*
X901192Y415356D01*
X902109Y412332D01*
X903599Y409546D01*
X905603Y407103D01*
X908046Y405099D01*
X910832Y403609D01*
X913856Y402692D01*
X917000Y402382D01*
X920144Y402692D01*
X923168Y403609D01*
X925955Y405099D01*
X928397Y407103D01*
X930401Y409546D01*
X931891Y412332D01*
X932808Y415356D01*
X933118Y418500D01*
Y427500D01*
X932808Y430644D01*
X931891Y433668D01*
X930401Y436454D01*
X928397Y438897D01*
X925955Y440901D01*
X923168Y442391D01*
X920144Y443308D01*
X917000Y443618D01*
D02*
G37*
G36*
X-14346Y429481D02*
X-16562D01*
X-16812Y429431D01*
X-17067D01*
X-19240Y428999D01*
X-19476Y428901D01*
X-19726Y428851D01*
X-21774Y428003D01*
X-21986Y427862D01*
X-22221Y427764D01*
X-24064Y426533D01*
X-24244Y426352D01*
X-24456Y426211D01*
X-26023Y424644D01*
X-26165Y424431D01*
X-26346Y424251D01*
X-27577Y422409D01*
X-27674Y422173D01*
X-27816Y421961D01*
X-28664Y419913D01*
X-28714Y419663D01*
X-28811Y419428D01*
X-29244Y417254D01*
Y416999D01*
X-29293Y416749D01*
Y414533D01*
X-29244Y414283D01*
Y414028D01*
X-28811Y411854D01*
X-28714Y411619D01*
X-28664Y411368D01*
X-27816Y409321D01*
X-27674Y409109D01*
X-27577Y408873D01*
X-26346Y407031D01*
X-26165Y406850D01*
X-26023Y406638D01*
X-24456Y405071D01*
X-24244Y404930D01*
X-24064Y404749D01*
X-22221Y403518D01*
X-21986Y403420D01*
X-21774Y403279D01*
X-19726Y402431D01*
X-19476Y402381D01*
X-19240Y402283D01*
X-17067Y401851D01*
X-16812D01*
X-16562Y401801D01*
X-14346D01*
X-14096Y401851D01*
X-13841D01*
X-11667Y402283D01*
X-11431Y402381D01*
X-11181Y402431D01*
X-9134Y403279D01*
X-8922Y403420D01*
X-8686Y403518D01*
X-6844Y404749D01*
X-6663Y404930D01*
X-6451Y405071D01*
X-4884Y406638D01*
X-4742Y406850D01*
X-4562Y407031D01*
X-3331Y408873D01*
X-3233Y409109D01*
X-3092Y409321D01*
X-2244Y411368D01*
X-2194Y411619D01*
X-2096Y411854D01*
X-1664Y414028D01*
Y414283D01*
X-1614Y414533D01*
Y416749D01*
X-1664Y416999D01*
Y417254D01*
X-2096Y419428D01*
X-2194Y419663D01*
X-2244Y419913D01*
X-3092Y421961D01*
X-3233Y422173D01*
X-3331Y422409D01*
X-4562Y424251D01*
X-4742Y424431D01*
X-4884Y424644D01*
X-6451Y426211D01*
X-6663Y426352D01*
X-6844Y426533D01*
X-8686Y427764D01*
X-8922Y427862D01*
X-9134Y428003D01*
X-11181Y428851D01*
X-11431Y428901D01*
X-11667Y428999D01*
X-13841Y429431D01*
X-14096D01*
X-14346Y429481D01*
D02*
G37*
G36*
X85090Y367089D02*
X83124Y366698D01*
X81456Y365584D01*
X81337Y365405D01*
X81306Y365379D01*
X81252Y365339D01*
X81216Y365317D01*
X75445D01*
X74157Y365060D01*
X73065Y364331D01*
X66199Y357465D01*
X65470Y356373D01*
X65213Y355085D01*
Y335405D01*
X54486Y324677D01*
X-18986D01*
X-19022Y324699D01*
X-19076Y324739D01*
X-19107Y324765D01*
X-19226Y324944D01*
X-20893Y326058D01*
X-22860Y326449D01*
X-24827Y326058D01*
X-26494Y324944D01*
X-27608Y323276D01*
X-27999Y321310D01*
X-27608Y319343D01*
X-26494Y317676D01*
X-24827Y316562D01*
X-22860Y316171D01*
X-20893Y316562D01*
X-19226Y317676D01*
X-19107Y317855D01*
X-19076Y317881D01*
X-19022Y317921D01*
X-18986Y317943D01*
X55880D01*
X57168Y318200D01*
X58261Y318929D01*
X70961Y331629D01*
X71690Y332722D01*
X71947Y334010D01*
Y353690D01*
X76840Y358583D01*
X81216D01*
X81252Y358561D01*
X81306Y358521D01*
X81337Y358495D01*
X81456Y358316D01*
X83124Y357202D01*
X85090Y356811D01*
X87057Y357202D01*
X88724Y358316D01*
X89838Y359983D01*
X90229Y361950D01*
X89838Y363917D01*
X88724Y365584D01*
X87057Y366698D01*
X85090Y367089D01*
D02*
G37*
G36*
X1004270Y366040D02*
X1000270D01*
Y354270D01*
X1009540D01*
Y360770D01*
X1004270Y366040D01*
D02*
G37*
G36*
X1324270D02*
X1320270D01*
Y354270D01*
X1329540D01*
Y360770D01*
X1324270Y366040D01*
D02*
G37*
G36*
X1317730D02*
X1313730D01*
X1308460Y360770D01*
Y354270D01*
X1317730D01*
Y366040D01*
D02*
G37*
G36*
X997730D02*
X993730D01*
X988460Y360770D01*
Y354270D01*
X997730D01*
Y366040D01*
D02*
G37*
G36*
X1329540Y351730D02*
X1320270D01*
Y339960D01*
X1324270D01*
X1329540Y345230D01*
Y351730D01*
D02*
G37*
G36*
X1317730D02*
X1308460D01*
Y345230D01*
X1313730Y339960D01*
X1317730D01*
Y351730D01*
D02*
G37*
G36*
X1269000Y440479D02*
X1267033Y440088D01*
X1265366Y438974D01*
X1264252Y437307D01*
X1263861Y435340D01*
X1264252Y433373D01*
X1265366Y431706D01*
X1265545Y431587D01*
X1265571Y431556D01*
X1265611Y431502D01*
X1265633Y431466D01*
Y366040D01*
X1263730D01*
X1258460Y360770D01*
Y345230D01*
X1263730Y339960D01*
X1274270D01*
X1279540Y345230D01*
Y360770D01*
X1274270Y366040D01*
X1272367D01*
Y431466D01*
X1272389Y431502D01*
X1272429Y431556D01*
X1272455Y431587D01*
X1272634Y431706D01*
X1273748Y433373D01*
X1274139Y435340D01*
X1273748Y437307D01*
X1272634Y438974D01*
X1270966Y440088D01*
X1269000Y440479D01*
D02*
G37*
G36*
X1009540Y351730D02*
X1000270D01*
Y339960D01*
X1004270D01*
X1009540Y345230D01*
Y351730D01*
D02*
G37*
G36*
X997730D02*
X988460D01*
Y345230D01*
X993730Y339960D01*
X997730D01*
Y351730D01*
D02*
G37*
G36*
X1675513Y297437D02*
X1673297D01*
X1673047Y297387D01*
X1672791D01*
X1670618Y296955D01*
X1670382Y296857D01*
X1670132Y296808D01*
X1668085Y295959D01*
X1667873Y295818D01*
X1667637Y295720D01*
X1665794Y294489D01*
X1665614Y294309D01*
X1665402Y294167D01*
X1663835Y292600D01*
X1663693Y292388D01*
X1663513Y292208D01*
X1662282Y290365D01*
X1662184Y290129D01*
X1662042Y289917D01*
X1661194Y287870D01*
X1661145Y287620D01*
X1661047Y287384D01*
X1660615Y285210D01*
Y284956D01*
X1660565Y284705D01*
Y282489D01*
X1660615Y282239D01*
Y281984D01*
X1661047Y279811D01*
X1661145Y279575D01*
X1661194Y279325D01*
X1662042Y277277D01*
X1662184Y277065D01*
X1662282Y276830D01*
X1663513Y274987D01*
X1663693Y274807D01*
X1663835Y274595D01*
X1665402Y273028D01*
X1665614Y272886D01*
X1665794Y272706D01*
X1667637Y271474D01*
X1667873Y271377D01*
X1668085Y271235D01*
X1670132Y270387D01*
X1670382Y270337D01*
X1670618Y270240D01*
X1672791Y269807D01*
X1673047D01*
X1673297Y269758D01*
X1675513D01*
X1675763Y269807D01*
X1676018D01*
X1678191Y270240D01*
X1678427Y270337D01*
X1678677Y270387D01*
X1680725Y271235D01*
X1680937Y271377D01*
X1681172Y271474D01*
X1683015Y272706D01*
X1683195Y272886D01*
X1683407Y273028D01*
X1684974Y274595D01*
X1685116Y274807D01*
X1685296Y274987D01*
X1686528Y276830D01*
X1686625Y277065D01*
X1686767Y277277D01*
X1687615Y279325D01*
X1687665Y279575D01*
X1687762Y279811D01*
X1688195Y281984D01*
Y282239D01*
X1688244Y282489D01*
Y284705D01*
X1688195Y284956D01*
Y285211D01*
X1687762Y287384D01*
X1687665Y287620D01*
X1687615Y287870D01*
X1686767Y289917D01*
X1686625Y290129D01*
X1686528Y290365D01*
X1685296Y292208D01*
X1685116Y292388D01*
X1684974Y292600D01*
X1683407Y294167D01*
X1683195Y294309D01*
X1683015Y294489D01*
X1681172Y295720D01*
X1680937Y295818D01*
X1680725Y295959D01*
X1678677Y296808D01*
X1678427Y296857D01*
X1678191Y296955D01*
X1676018Y297387D01*
X1675763D01*
X1675513Y297437D01*
D02*
G37*
G36*
X1355513D02*
X1353297D01*
X1353047Y297387D01*
X1352791D01*
X1350618Y296955D01*
X1350382Y296857D01*
X1350132Y296808D01*
X1348085Y295959D01*
X1347873Y295818D01*
X1347637Y295720D01*
X1345794Y294489D01*
X1345614Y294309D01*
X1345402Y294167D01*
X1343835Y292600D01*
X1343693Y292388D01*
X1343513Y292208D01*
X1342282Y290365D01*
X1342184Y290129D01*
X1342043Y289917D01*
X1341194Y287870D01*
X1341145Y287620D01*
X1341047Y287384D01*
X1340615Y285210D01*
Y284956D01*
X1340565Y284705D01*
Y282489D01*
X1340615Y282239D01*
Y281984D01*
X1341047Y279811D01*
X1341145Y279575D01*
X1341194Y279325D01*
X1342043Y277277D01*
X1342184Y277065D01*
X1342282Y276830D01*
X1343513Y274987D01*
X1343693Y274807D01*
X1343835Y274595D01*
X1345402Y273028D01*
X1345614Y272886D01*
X1345794Y272706D01*
X1347637Y271474D01*
X1347873Y271377D01*
X1348085Y271235D01*
X1350132Y270387D01*
X1350382Y270337D01*
X1350618Y270240D01*
X1352791Y269807D01*
X1353047D01*
X1353297Y269758D01*
X1355513D01*
X1355763Y269807D01*
X1356018D01*
X1358191Y270240D01*
X1358427Y270337D01*
X1358677Y270387D01*
X1360725Y271235D01*
X1360937Y271377D01*
X1361172Y271474D01*
X1363015Y272706D01*
X1363195Y272886D01*
X1363407Y273028D01*
X1364974Y274595D01*
X1365116Y274807D01*
X1365296Y274987D01*
X1366528Y276830D01*
X1366625Y277065D01*
X1366767Y277277D01*
X1367615Y279325D01*
X1367665Y279575D01*
X1367762Y279811D01*
X1368195Y281984D01*
Y282239D01*
X1368244Y282489D01*
Y284705D01*
X1368195Y284956D01*
Y285211D01*
X1367762Y287384D01*
X1367665Y287620D01*
X1367615Y287870D01*
X1366767Y289917D01*
X1366625Y290129D01*
X1366528Y290365D01*
X1365296Y292208D01*
X1365116Y292388D01*
X1364974Y292600D01*
X1363407Y294167D01*
X1363195Y294309D01*
X1363015Y294489D01*
X1361172Y295720D01*
X1360937Y295818D01*
X1360725Y295959D01*
X1358677Y296808D01*
X1358427Y296857D01*
X1358191Y296955D01*
X1356018Y297387D01*
X1355763D01*
X1355513Y297437D01*
D02*
G37*
G36*
X1035513D02*
X1033297D01*
X1033046Y297387D01*
X1032791D01*
X1030618Y296955D01*
X1030382Y296857D01*
X1030132Y296808D01*
X1028085Y295959D01*
X1027873Y295818D01*
X1027637Y295720D01*
X1025794Y294489D01*
X1025614Y294309D01*
X1025402Y294167D01*
X1023835Y292600D01*
X1023693Y292388D01*
X1023513Y292208D01*
X1022282Y290365D01*
X1022184Y290129D01*
X1022042Y289917D01*
X1021194Y287870D01*
X1021145Y287620D01*
X1021047Y287384D01*
X1020615Y285210D01*
Y284956D01*
X1020565Y284705D01*
Y282489D01*
X1020615Y282239D01*
Y281984D01*
X1021047Y279811D01*
X1021145Y279575D01*
X1021194Y279325D01*
X1022042Y277277D01*
X1022184Y277065D01*
X1022282Y276830D01*
X1023513Y274987D01*
X1023693Y274807D01*
X1023835Y274595D01*
X1025402Y273028D01*
X1025614Y272886D01*
X1025794Y272706D01*
X1027637Y271474D01*
X1027873Y271377D01*
X1028085Y271235D01*
X1030132Y270387D01*
X1030382Y270337D01*
X1030618Y270240D01*
X1032792Y269807D01*
X1033046D01*
X1033297Y269758D01*
X1035513D01*
X1035763Y269807D01*
X1036018D01*
X1038191Y270240D01*
X1038427Y270337D01*
X1038677Y270387D01*
X1040725Y271235D01*
X1040937Y271377D01*
X1041172Y271474D01*
X1043015Y272706D01*
X1043195Y272886D01*
X1043407Y273028D01*
X1044974Y274595D01*
X1045116Y274807D01*
X1045296Y274987D01*
X1046528Y276830D01*
X1046625Y277065D01*
X1046767Y277277D01*
X1047615Y279325D01*
X1047665Y279575D01*
X1047762Y279811D01*
X1048195Y281984D01*
Y282239D01*
X1048244Y282489D01*
Y284705D01*
X1048195Y284956D01*
Y285211D01*
X1047762Y287384D01*
X1047665Y287620D01*
X1047615Y287870D01*
X1046767Y289917D01*
X1046625Y290129D01*
X1046528Y290365D01*
X1045296Y292208D01*
X1045116Y292388D01*
X1044974Y292600D01*
X1043407Y294167D01*
X1043195Y294309D01*
X1043015Y294489D01*
X1041172Y295720D01*
X1040937Y295818D01*
X1040725Y295959D01*
X1038677Y296808D01*
X1038427Y296857D01*
X1038191Y296955D01*
X1036018Y297387D01*
X1035763D01*
X1035513Y297437D01*
D02*
G37*
G36*
X-119438Y274199D02*
X-121654D01*
X-121904Y274149D01*
X-122160D01*
X-124333Y273717D01*
X-124569Y273619D01*
X-124819Y273569D01*
X-126866Y272721D01*
X-127078Y272580D01*
X-127314Y272482D01*
X-129157Y271251D01*
X-129337Y271070D01*
X-129549Y270929D01*
X-131116Y269362D01*
X-131258Y269150D01*
X-131438Y268969D01*
X-132669Y267127D01*
X-132767Y266891D01*
X-132908Y266679D01*
X-133757Y264632D01*
X-133806Y264381D01*
X-133904Y264146D01*
X-134336Y261972D01*
Y261717D01*
X-134386Y261467D01*
Y259251D01*
X-134336Y259001D01*
Y258746D01*
X-133904Y256572D01*
X-133806Y256337D01*
X-133757Y256087D01*
X-132908Y254039D01*
X-132767Y253827D01*
X-132669Y253591D01*
X-131438Y251749D01*
X-131258Y251568D01*
X-131116Y251356D01*
X-129549Y249789D01*
X-129337Y249648D01*
X-129157Y249467D01*
X-127314Y248236D01*
X-127078Y248139D01*
X-126866Y247997D01*
X-124819Y247149D01*
X-124569Y247099D01*
X-124333Y247001D01*
X-122160Y246569D01*
X-121904D01*
X-121654Y246519D01*
X-119438D01*
X-119188Y246569D01*
X-118933D01*
X-116760Y247001D01*
X-116524Y247099D01*
X-116274Y247149D01*
X-114226Y247997D01*
X-114014Y248139D01*
X-113779Y248236D01*
X-111936Y249467D01*
X-111756Y249648D01*
X-111544Y249789D01*
X-109977Y251356D01*
X-109835Y251568D01*
X-109655Y251749D01*
X-108423Y253591D01*
X-108326Y253827D01*
X-108184Y254039D01*
X-107336Y256087D01*
X-107286Y256337D01*
X-107189Y256572D01*
X-106756Y258746D01*
Y259001D01*
X-106706Y259251D01*
Y261467D01*
X-106756Y261717D01*
Y261972D01*
X-107189Y264146D01*
X-107286Y264381D01*
X-107336Y264632D01*
X-108184Y266679D01*
X-108326Y266891D01*
X-108423Y267127D01*
X-109655Y268969D01*
X-109835Y269150D01*
X-109977Y269362D01*
X-111544Y270929D01*
X-111756Y271070D01*
X-111936Y271251D01*
X-113779Y272482D01*
X-114014Y272580D01*
X-114226Y272721D01*
X-116274Y273569D01*
X-116524Y273619D01*
X-116760Y273717D01*
X-118933Y274149D01*
X-119188D01*
X-119438Y274199D01*
D02*
G37*
G36*
X1454000Y256958D02*
X1448688Y256540D01*
X1443506Y255296D01*
X1438583Y253257D01*
X1434040Y250473D01*
X1429988Y247012D01*
X1426527Y242960D01*
X1423743Y238417D01*
X1421704Y233494D01*
X1420460Y228312D01*
X1420042Y223000D01*
X1420460Y217688D01*
X1421704Y212506D01*
X1423743Y207583D01*
X1426527Y203040D01*
X1429988Y198988D01*
X1434040Y195527D01*
X1438583Y192743D01*
X1443506Y190704D01*
X1448688Y189460D01*
X1454000Y189042D01*
X1459312Y189460D01*
X1464494Y190704D01*
X1469417Y192743D01*
X1473960Y195527D01*
X1478012Y198988D01*
X1481473Y203040D01*
X1484257Y207583D01*
X1486296Y212506D01*
X1487540Y217688D01*
X1487958Y223000D01*
X1487540Y228312D01*
X1486296Y233494D01*
X1484257Y238417D01*
X1481473Y242960D01*
X1478012Y247012D01*
X1473960Y250473D01*
X1469417Y253257D01*
X1464494Y255296D01*
X1459312Y256540D01*
X1454000Y256958D01*
D02*
G37*
G36*
X1134000D02*
X1128688Y256540D01*
X1123506Y255296D01*
X1118583Y253257D01*
X1114040Y250473D01*
X1109988Y247012D01*
X1106527Y242960D01*
X1103743Y238417D01*
X1101704Y233494D01*
X1100460Y228312D01*
X1100042Y223000D01*
X1100460Y217688D01*
X1101704Y212506D01*
X1103743Y207583D01*
X1106527Y203040D01*
X1109988Y198988D01*
X1114040Y195527D01*
X1118583Y192743D01*
X1123506Y190704D01*
X1128688Y189460D01*
X1134000Y189042D01*
X1139312Y189460D01*
X1144494Y190704D01*
X1149417Y192743D01*
X1153960Y195527D01*
X1158012Y198988D01*
X1161473Y203040D01*
X1164257Y207583D01*
X1166296Y212506D01*
X1167540Y217688D01*
X1167958Y223000D01*
X1167540Y228312D01*
X1166296Y233494D01*
X1164257Y238417D01*
X1161473Y242960D01*
X1158012Y247012D01*
X1153960Y250473D01*
X1149417Y253257D01*
X1144494Y255296D01*
X1139312Y256540D01*
X1134000Y256958D01*
D02*
G37*
G36*
X-68000Y239458D02*
X-73312Y239040D01*
X-78494Y237796D01*
X-83417Y235757D01*
X-87960Y232973D01*
X-92012Y229512D01*
X-95473Y225460D01*
X-98257Y220917D01*
X-100296Y215994D01*
X-101540Y210812D01*
X-101958Y205500D01*
X-101540Y200188D01*
X-100296Y195006D01*
X-98257Y190083D01*
X-95473Y185540D01*
X-92012Y181488D01*
X-87960Y178027D01*
X-83417Y175243D01*
X-78494Y173204D01*
X-73312Y171960D01*
X-68000Y171542D01*
X-62688Y171960D01*
X-57506Y173204D01*
X-52583Y175243D01*
X-48040Y178027D01*
X-43988Y181488D01*
X-40527Y185540D01*
X-37743Y190083D01*
X-35704Y195006D01*
X-34460Y200188D01*
X-34042Y205500D01*
X-34460Y210812D01*
X-35704Y215994D01*
X-37743Y220917D01*
X-40527Y225460D01*
X-43988Y229512D01*
X-48040Y232973D01*
X-52583Y235757D01*
X-57506Y237796D01*
X-62688Y239040D01*
X-68000Y239458D01*
D02*
G37*
G36*
X1554703Y176242D02*
X1552487D01*
X1552237Y176193D01*
X1551982D01*
X1549809Y175760D01*
X1549573Y175663D01*
X1549323Y175613D01*
X1547275Y174765D01*
X1547063Y174623D01*
X1546828Y174526D01*
X1544985Y173294D01*
X1544805Y173114D01*
X1544593Y172972D01*
X1543026Y171405D01*
X1542884Y171193D01*
X1542704Y171013D01*
X1541472Y169170D01*
X1541375Y168935D01*
X1541233Y168723D01*
X1540385Y166675D01*
X1540335Y166425D01*
X1540238Y166189D01*
X1539805Y164016D01*
Y163761D01*
X1539756Y163511D01*
Y161295D01*
X1539805Y161045D01*
Y160789D01*
X1540238Y158616D01*
X1540335Y158380D01*
X1540385Y158130D01*
X1541233Y156083D01*
X1541375Y155871D01*
X1541472Y155635D01*
X1542704Y153792D01*
X1542884Y153612D01*
X1543026Y153400D01*
X1544593Y151833D01*
X1544805Y151691D01*
X1544985Y151511D01*
X1546828Y150280D01*
X1547063Y150182D01*
X1547275Y150040D01*
X1549323Y149192D01*
X1549573Y149143D01*
X1549809Y149045D01*
X1551982Y148613D01*
X1552237D01*
X1552487Y148563D01*
X1554703D01*
X1554953Y148613D01*
X1555208D01*
X1557382Y149045D01*
X1557618Y149143D01*
X1557868Y149192D01*
X1559915Y150040D01*
X1560127Y150182D01*
X1560363Y150280D01*
X1562206Y151511D01*
X1562386Y151691D01*
X1562598Y151833D01*
X1564165Y153400D01*
X1564307Y153612D01*
X1564487Y153792D01*
X1565718Y155635D01*
X1565816Y155871D01*
X1565957Y156083D01*
X1566806Y158130D01*
X1566855Y158380D01*
X1566953Y158616D01*
X1567385Y160789D01*
Y161045D01*
X1567435Y161295D01*
Y163511D01*
X1567385Y163761D01*
Y164016D01*
X1566953Y166189D01*
X1566855Y166425D01*
X1566806Y166675D01*
X1565957Y168723D01*
X1565816Y168935D01*
X1565718Y169170D01*
X1564487Y171013D01*
X1564307Y171193D01*
X1564165Y171405D01*
X1562598Y172972D01*
X1562386Y173114D01*
X1562206Y173294D01*
X1560363Y174526D01*
X1560127Y174623D01*
X1559915Y174765D01*
X1557868Y175613D01*
X1557618Y175663D01*
X1557382Y175760D01*
X1555209Y176193D01*
X1554953D01*
X1554703Y176242D01*
D02*
G37*
G36*
X1234703D02*
X1232487D01*
X1232237Y176193D01*
X1231982D01*
X1229809Y175760D01*
X1229573Y175663D01*
X1229323Y175613D01*
X1227275Y174765D01*
X1227063Y174623D01*
X1226828Y174526D01*
X1224985Y173294D01*
X1224805Y173114D01*
X1224593Y172972D01*
X1223026Y171405D01*
X1222884Y171193D01*
X1222703Y171013D01*
X1221472Y169170D01*
X1221375Y168935D01*
X1221233Y168723D01*
X1220385Y166675D01*
X1220335Y166425D01*
X1220238Y166189D01*
X1219805Y164016D01*
Y163761D01*
X1219755Y163511D01*
Y161295D01*
X1219805Y161045D01*
Y160789D01*
X1220238Y158616D01*
X1220335Y158380D01*
X1220385Y158130D01*
X1221233Y156083D01*
X1221375Y155871D01*
X1221472Y155635D01*
X1222703Y153792D01*
X1222884Y153612D01*
X1223026Y153400D01*
X1224593Y151833D01*
X1224805Y151691D01*
X1224985Y151511D01*
X1226828Y150280D01*
X1227063Y150182D01*
X1227275Y150040D01*
X1229323Y149192D01*
X1229573Y149143D01*
X1229809Y149045D01*
X1231982Y148613D01*
X1232237D01*
X1232487Y148563D01*
X1234703D01*
X1234954Y148613D01*
X1235209D01*
X1237382Y149045D01*
X1237618Y149143D01*
X1237868Y149192D01*
X1239915Y150040D01*
X1240127Y150182D01*
X1240363Y150280D01*
X1242206Y151511D01*
X1242386Y151691D01*
X1242598Y151833D01*
X1244165Y153400D01*
X1244307Y153612D01*
X1244487Y153792D01*
X1245718Y155635D01*
X1245816Y155871D01*
X1245957Y156083D01*
X1246806Y158130D01*
X1246855Y158380D01*
X1246953Y158616D01*
X1247385Y160789D01*
Y161045D01*
X1247435Y161295D01*
Y163511D01*
X1247385Y163761D01*
Y164016D01*
X1246953Y166189D01*
X1246855Y166425D01*
X1246806Y166675D01*
X1245957Y168723D01*
X1245816Y168935D01*
X1245718Y169170D01*
X1244487Y171013D01*
X1244307Y171193D01*
X1244165Y171405D01*
X1242598Y172972D01*
X1242386Y173114D01*
X1242206Y173294D01*
X1240363Y174526D01*
X1240127Y174623D01*
X1239915Y174765D01*
X1237868Y175613D01*
X1237618Y175663D01*
X1237382Y175760D01*
X1235209Y176193D01*
X1234954D01*
X1234703Y176242D01*
D02*
G37*
G36*
X914703D02*
X912487D01*
X912237Y176193D01*
X911982D01*
X909809Y175760D01*
X909573Y175663D01*
X909323Y175613D01*
X907275Y174765D01*
X907063Y174623D01*
X906828Y174526D01*
X904985Y173294D01*
X904805Y173114D01*
X904593Y172972D01*
X903026Y171405D01*
X902884Y171193D01*
X902704Y171013D01*
X901472Y169170D01*
X901375Y168935D01*
X901233Y168723D01*
X900385Y166675D01*
X900335Y166425D01*
X900238Y166189D01*
X899805Y164016D01*
Y163761D01*
X899756Y163511D01*
Y161295D01*
X899805Y161045D01*
Y160789D01*
X900238Y158616D01*
X900335Y158380D01*
X900385Y158130D01*
X901233Y156083D01*
X901375Y155871D01*
X901472Y155635D01*
X902704Y153792D01*
X902884Y153612D01*
X903026Y153400D01*
X904593Y151833D01*
X904805Y151691D01*
X904985Y151511D01*
X906828Y150280D01*
X907063Y150182D01*
X907275Y150040D01*
X909323Y149192D01*
X909573Y149143D01*
X909809Y149045D01*
X911982Y148613D01*
X912237D01*
X912487Y148563D01*
X914703D01*
X914954Y148613D01*
X915209D01*
X917382Y149045D01*
X917618Y149143D01*
X917868Y149192D01*
X919915Y150040D01*
X920127Y150182D01*
X920363Y150280D01*
X922206Y151511D01*
X922386Y151691D01*
X922598Y151833D01*
X924165Y153400D01*
X924307Y153612D01*
X924487Y153792D01*
X925718Y155635D01*
X925816Y155871D01*
X925957Y156083D01*
X926806Y158130D01*
X926855Y158380D01*
X926953Y158616D01*
X927385Y160789D01*
Y161045D01*
X927435Y161295D01*
Y163511D01*
X927385Y163761D01*
Y164016D01*
X926953Y166189D01*
X926855Y166425D01*
X926806Y166675D01*
X925957Y168723D01*
X925816Y168935D01*
X925718Y169170D01*
X924487Y171013D01*
X924307Y171193D01*
X924165Y171405D01*
X922598Y172972D01*
X922386Y173114D01*
X922206Y173294D01*
X920363Y174526D01*
X920127Y174623D01*
X919915Y174765D01*
X917868Y175613D01*
X917618Y175663D01*
X917382Y175760D01*
X915209Y176193D01*
X914954D01*
X914703Y176242D01*
D02*
G37*
G36*
X1224470Y-31732D02*
Y-40422D01*
X1233159D01*
X1232982Y-39071D01*
X1231970Y-36628D01*
X1230361Y-34531D01*
X1228263Y-32922D01*
X1225821Y-31910D01*
X1224470Y-31732D01*
D02*
G37*
G36*
X1221930D02*
X1220579Y-31910D01*
X1218137Y-32922D01*
X1216039Y-34531D01*
X1214430Y-36628D01*
X1213418Y-39071D01*
X1213241Y-40422D01*
X1221930D01*
Y-31732D01*
D02*
G37*
G36*
X1106240Y-31652D02*
X1097470D01*
Y-40422D01*
X1106240D01*
Y-31652D01*
D02*
G37*
G36*
X1094930D02*
X1086160D01*
Y-40422D01*
X1094930D01*
Y-31652D01*
D02*
G37*
G36*
X1536340Y-40363D02*
X1534373Y-40754D01*
X1532706Y-41868D01*
X1531592Y-43535D01*
X1531201Y-45502D01*
X1531592Y-47468D01*
X1532706Y-49135D01*
X1534373Y-50249D01*
X1536340Y-50640D01*
X1538306Y-50249D01*
X1539973Y-49135D01*
X1541087Y-47468D01*
X1541478Y-45502D01*
X1541087Y-43535D01*
X1539973Y-41868D01*
X1538306Y-40754D01*
X1536340Y-40363D01*
D02*
G37*
G36*
X1233159Y-42962D02*
X1224470D01*
Y-51651D01*
X1225821Y-51473D01*
X1228263Y-50462D01*
X1230361Y-48852D01*
X1231970Y-46755D01*
X1232982Y-44313D01*
X1233159Y-42962D01*
D02*
G37*
G36*
X1221930D02*
X1213241D01*
X1213418Y-44313D01*
X1214430Y-46755D01*
X1216039Y-48852D01*
X1218137Y-50462D01*
X1220579Y-51473D01*
X1221930Y-51651D01*
Y-42962D01*
D02*
G37*
G36*
X-3810Y5139D02*
X-5777Y4748D01*
X-7444Y3634D01*
X-8558Y1966D01*
X-8949Y0D01*
X-8558Y-1966D01*
X-8087Y-2671D01*
X-8077Y-2697D01*
X-8074Y-2709D01*
X-8072Y-2726D01*
X-8055Y-2942D01*
Y-42244D01*
X-8918Y-43535D01*
X-9309Y-45502D01*
X-8918Y-47468D01*
X-7804Y-49135D01*
X-7581Y-49284D01*
Y-50812D01*
X-8414Y-51368D01*
X-9312Y-52711D01*
X-10734Y-53085D01*
X-11198Y-52621D01*
X-12290Y-51891D01*
X-13578Y-51635D01*
X-36467D01*
X-36503Y-51612D01*
X-36556Y-51573D01*
X-36587Y-51547D01*
X-36707Y-51368D01*
X-38374Y-50254D01*
X-40340Y-49863D01*
X-42307Y-50254D01*
X-43974Y-51368D01*
X-45088Y-53035D01*
X-45479Y-55002D01*
X-45088Y-56968D01*
X-43974Y-58635D01*
X-42307Y-59749D01*
X-40340Y-60140D01*
X-38374Y-59749D01*
X-36707Y-58635D01*
X-36587Y-58457D01*
X-36556Y-58430D01*
X-36503Y-58391D01*
X-36467Y-58368D01*
X-14973D01*
X-6485Y-66857D01*
X-5392Y-67586D01*
X-4104Y-67843D01*
X89918D01*
X90008Y-67952D01*
X90087Y-68016D01*
X90346Y-68404D01*
X92014Y-69518D01*
X93980Y-69909D01*
X95947Y-69518D01*
X97614Y-68404D01*
X98728Y-66736D01*
X99119Y-64770D01*
X98728Y-62804D01*
X97614Y-61136D01*
X95947Y-60022D01*
X94029Y-59641D01*
X93648Y-57723D01*
X92534Y-56056D01*
X90866Y-54942D01*
X88949Y-54561D01*
X88568Y-52643D01*
X87454Y-50976D01*
X85787Y-49862D01*
X83820Y-49471D01*
X81854Y-49862D01*
X80186Y-50976D01*
X80058Y-51169D01*
X80010Y-51210D01*
X79957Y-51249D01*
X79922Y-51272D01*
X34629Y-51606D01*
X34592Y-51584D01*
X34539Y-51545D01*
X34523Y-51532D01*
X34413Y-51368D01*
X32746Y-50254D01*
X30780Y-49863D01*
X28813Y-50254D01*
X27146Y-51368D01*
X26032Y-53035D01*
X25911Y-53644D01*
X24533Y-54062D01*
X23092Y-52621D01*
X22000Y-51891D01*
X20712Y-51635D01*
X-907D01*
X-943Y-51612D01*
X-996Y-51573D01*
X-1027Y-51547D01*
X-1147Y-51368D01*
X-1370Y-51219D01*
Y-49692D01*
X-537Y-49135D01*
X577Y-47468D01*
X968Y-45502D01*
X577Y-43535D01*
X-286Y-42244D01*
Y-3707D01*
X-176Y-3634D01*
X938Y-1966D01*
X1329Y0D01*
X938Y1966D01*
X-176Y3634D01*
X-1843Y4748D01*
X-3810Y5139D01*
D02*
G37*
G36*
X1121600Y-30284D02*
X1118648Y-30673D01*
X1115896Y-31812D01*
X1113534Y-33625D01*
X1111721Y-35988D01*
X1110581Y-38739D01*
X1110192Y-41692D01*
X1110581Y-44644D01*
X1111721Y-47395D01*
X1113534Y-49758D01*
X1115896Y-51571D01*
X1118648Y-52710D01*
X1121600Y-53099D01*
X1124553Y-52710D01*
X1127304Y-51571D01*
X1129666Y-49758D01*
X1131479Y-47395D01*
X1132619Y-44644D01*
X1133008Y-41692D01*
X1132619Y-38739D01*
X1131479Y-35988D01*
X1129666Y-33625D01*
X1127304Y-31812D01*
X1124553Y-30673D01*
X1121600Y-30284D01*
D02*
G37*
G36*
X1224470Y-57132D02*
Y-65822D01*
X1233159D01*
X1232982Y-64471D01*
X1231970Y-62028D01*
X1230361Y-59931D01*
X1228263Y-58322D01*
X1225821Y-57310D01*
X1224470Y-57132D01*
D02*
G37*
G36*
X1221930D02*
X1220579Y-57310D01*
X1218137Y-58322D01*
X1216039Y-59931D01*
X1214430Y-62028D01*
X1213418Y-64471D01*
X1213241Y-65822D01*
X1221930D01*
Y-57132D01*
D02*
G37*
G36*
X1233159Y-68362D02*
X1224470D01*
Y-77051D01*
X1225821Y-76873D01*
X1228263Y-75862D01*
X1230361Y-74252D01*
X1231970Y-72155D01*
X1232982Y-69713D01*
X1233159Y-68362D01*
D02*
G37*
G36*
X1221930D02*
X1213241D01*
X1213418Y-69713D01*
X1214430Y-72155D01*
X1216039Y-74252D01*
X1218137Y-75862D01*
X1220579Y-76873D01*
X1221930Y-77051D01*
Y-68362D01*
D02*
G37*
G36*
X244990Y-74830D02*
X236220D01*
Y-83600D01*
X244990D01*
Y-74830D01*
D02*
G37*
G36*
X233680D02*
X224910D01*
Y-83600D01*
X233680D01*
Y-74830D01*
D02*
G37*
%LPD*%
G36*
X83305Y360200D02*
X83109Y360388D01*
X82911Y360556D01*
X82709Y360704D01*
X82505Y360832D01*
X82296Y360941D01*
X82085Y361030D01*
X81871Y361099D01*
X81653Y361148D01*
X81433Y361178D01*
X81209Y361188D01*
Y362712D01*
X81433Y362722D01*
X81653Y362752D01*
X81871Y362801D01*
X82085Y362870D01*
X82296Y362959D01*
X82505Y363068D01*
X82709Y363196D01*
X82911Y363344D01*
X83109Y363512D01*
X83305Y363700D01*
Y360200D01*
D02*
G37*
G36*
X-20879Y322872D02*
X-20681Y322704D01*
X-20479Y322556D01*
X-20275Y322428D01*
X-20066Y322319D01*
X-19855Y322230D01*
X-19641Y322161D01*
X-19424Y322112D01*
X-19203Y322082D01*
X-18979Y322072D01*
Y320548D01*
X-19203Y320538D01*
X-19424Y320508D01*
X-19641Y320459D01*
X-19855Y320390D01*
X-20066Y320301D01*
X-20275Y320192D01*
X-20479Y320064D01*
X-20681Y319916D01*
X-20879Y319748D01*
X-21075Y319560D01*
Y323060D01*
X-20879Y322872D01*
D02*
G37*
G36*
X1270562Y433359D02*
X1270394Y433161D01*
X1270246Y432959D01*
X1270118Y432755D01*
X1270009Y432547D01*
X1269920Y432335D01*
X1269851Y432121D01*
X1269801Y431903D01*
X1269772Y431683D01*
X1269762Y431459D01*
X1268238D01*
X1268228Y431683D01*
X1268198Y431903D01*
X1268149Y432121D01*
X1268080Y432335D01*
X1267991Y432547D01*
X1267882Y432755D01*
X1267754Y432959D01*
X1267606Y433161D01*
X1267438Y433359D01*
X1267250Y433555D01*
X1270750D01*
X1270562Y433359D01*
D02*
G37*
G36*
X1269770Y364698D02*
X1269792Y364434D01*
X1269831Y364201D01*
X1269884Y363999D01*
X1269952Y363828D01*
X1270036Y363688D01*
X1270135Y363579D01*
X1270250Y363501D01*
X1270379Y363455D01*
X1270524Y363439D01*
X1267476D01*
X1267621Y363455D01*
X1267750Y363501D01*
X1267865Y363579D01*
X1267964Y363688D01*
X1268047Y363828D01*
X1268116Y363999D01*
X1268169Y364201D01*
X1268207Y364434D01*
X1268230Y364698D01*
X1268238Y364994D01*
X1269762D01*
X1269770Y364698D01*
D02*
G37*
G36*
X-2336Y-2019D02*
X-2443Y-2111D01*
X-2539Y-2223D01*
X-2624Y-2355D01*
X-2697Y-2506D01*
X-2759Y-2677D01*
X-2810Y-2868D01*
X-2849Y-3079D01*
X-2878Y-3309D01*
X-2895Y-3559D01*
X-2900Y-3829D01*
X-5440Y-3395D01*
X-5444Y-3123D01*
X-5498Y-2418D01*
X-5530Y-2220D01*
X-5569Y-2042D01*
X-5616Y-1882D01*
X-5670Y-1741D01*
X-5731Y-1618D01*
X-5799Y-1514D01*
X-2336Y-2019D01*
D02*
G37*
G36*
X-2896Y-42118D02*
X-2857Y-42603D01*
X-2824Y-42818D01*
X-2780Y-43014D01*
X-2727Y-43191D01*
X-2665Y-43351D01*
X-2593Y-43491D01*
X-2512Y-43613D01*
X-2420Y-43716D01*
X-5920D01*
X-5829Y-43613D01*
X-5748Y-43491D01*
X-5676Y-43351D01*
X-5613Y-43191D01*
X-5560Y-43014D01*
X-5517Y-42818D01*
X-5483Y-42603D01*
X-5459Y-42370D01*
X-5440Y-41848D01*
X-2900D01*
X-2896Y-42118D01*
D02*
G37*
G36*
X82048Y-56373D02*
X81851Y-56187D01*
X81651Y-56020D01*
X81449Y-55874D01*
X81243Y-55747D01*
X81034Y-55640D01*
X80822Y-55552D01*
X80607Y-55485D01*
X80389Y-55437D01*
X80169Y-55409D01*
X79945Y-55401D01*
X79933Y-53877D01*
X80157Y-53865D01*
X80378Y-53834D01*
X80595Y-53783D01*
X80809Y-53712D01*
X81019Y-53622D01*
X81226Y-53511D01*
X81430Y-53382D01*
X81631Y-53232D01*
X81828Y-53062D01*
X82022Y-52873D01*
X82048Y-56373D01*
D02*
G37*
G36*
X32749Y-53425D02*
X32948Y-53591D01*
X33151Y-53738D01*
X33357Y-53865D01*
X33566Y-53972D01*
X33777Y-54059D01*
X33992Y-54127D01*
X34210Y-54175D01*
X34431Y-54203D01*
X34655Y-54211D01*
X34666Y-55735D01*
X34443Y-55746D01*
X34222Y-55778D01*
X34005Y-55829D01*
X33791Y-55900D01*
X33581Y-55990D01*
X33373Y-56100D01*
X33170Y-56230D01*
X32969Y-56380D01*
X32772Y-56549D01*
X32578Y-56738D01*
X32552Y-53239D01*
X32749Y-53425D01*
D02*
G37*
G36*
X-2800Y-53439D02*
X-2601Y-53607D01*
X-2400Y-53755D01*
X-2195Y-53884D01*
X-1987Y-53993D01*
X-1776Y-54082D01*
X-1561Y-54151D01*
X-1344Y-54200D01*
X-1123Y-54230D01*
X-899Y-54240D01*
Y-55764D01*
X-1123Y-55774D01*
X-1344Y-55803D01*
X-1561Y-55852D01*
X-1776Y-55922D01*
X-1987Y-56011D01*
X-2195Y-56119D01*
X-2400Y-56248D01*
X-2601Y-56396D01*
X-2800Y-56564D01*
X-2995Y-56752D01*
Y-53252D01*
X-2800Y-53439D01*
D02*
G37*
G36*
X-38360D02*
X-38161Y-53607D01*
X-37960Y-53755D01*
X-37755Y-53884D01*
X-37547Y-53993D01*
X-37336Y-54082D01*
X-37121Y-54151D01*
X-36904Y-54200D01*
X-36683Y-54230D01*
X-36459Y-54240D01*
Y-55764D01*
X-36683Y-55774D01*
X-36904Y-55803D01*
X-37121Y-55852D01*
X-37336Y-55922D01*
X-37547Y-56011D01*
X-37755Y-56119D01*
X-37960Y-56248D01*
X-38161Y-56396D01*
X-38360Y-56564D01*
X-38555Y-56752D01*
Y-53252D01*
X-38360Y-53439D01*
D02*
G37*
G36*
X87184Y-61508D02*
X86980Y-61326D01*
X86774Y-61163D01*
X86566Y-61019D01*
X86355Y-60895D01*
X86143Y-60789D01*
X85929Y-60703D01*
X85713Y-60636D01*
X85495Y-60588D01*
X85275Y-60559D01*
X85052Y-60550D01*
X84990Y-59026D01*
X85215Y-59015D01*
X85436Y-58985D01*
X85653Y-58934D01*
X85865Y-58863D01*
X86073Y-58772D01*
X86277Y-58660D01*
X86476Y-58528D01*
X86671Y-58376D01*
X86862Y-58204D01*
X87048Y-58011D01*
X87184Y-61508D01*
D02*
G37*
G36*
X92001Y-66298D02*
X91834Y-66097D01*
X91660Y-65916D01*
X91480Y-65757D01*
X91292Y-65620D01*
X91098Y-65503D01*
X90897Y-65408D01*
X90689Y-65333D01*
X90474Y-65280D01*
X90253Y-65249D01*
X90024Y-65238D01*
X90214Y-63714D01*
X90432Y-63705D01*
X90651Y-63678D01*
X90870Y-63634D01*
X91089Y-63571D01*
X91309Y-63491D01*
X91529Y-63393D01*
X91749Y-63277D01*
X91970Y-63143D01*
X92191Y-62992D01*
X92413Y-62822D01*
X92001Y-66298D01*
D02*
G37*
%LPC*%
G36*
X702310Y-17721D02*
X700343Y-18112D01*
X698676Y-19226D01*
X697562Y-20893D01*
X697171Y-22860D01*
X697562Y-24827D01*
X698676Y-26494D01*
X700343Y-27608D01*
X702310Y-27999D01*
X704277Y-27608D01*
X705944Y-26494D01*
X707058Y-24827D01*
X707449Y-22860D01*
X707058Y-20893D01*
X705944Y-19226D01*
X704277Y-18112D01*
X702310Y-17721D01*
D02*
G37*
G36*
X1681000Y-74832D02*
X1672230D01*
Y-83602D01*
X1681000D01*
Y-74832D01*
D02*
G37*
G36*
X1669690D02*
X1660920D01*
Y-83602D01*
X1669690D01*
Y-74832D01*
D02*
G37*
G36*
X1681000Y-86142D02*
X1672230D01*
Y-94912D01*
X1681000D01*
Y-86142D01*
D02*
G37*
G36*
X1669690D02*
X1660920D01*
Y-94912D01*
X1669690D01*
Y-86142D01*
D02*
G37*
%LPD*%
D15*
X946150Y-111760D02*
X1436370D01*
X934720Y-100330D02*
X946150Y-111760D01*
X929640Y-100330D02*
X934720D01*
X938485Y-96475D02*
X948984Y-106974D01*
X938156Y-96475D02*
X938485D01*
X936931Y-95250D02*
X938156Y-96475D01*
X935990Y-95250D02*
X936931D01*
X944880Y-93980D02*
X953770Y-102870D01*
X939755Y-88855D02*
X944880Y-93980D01*
X939426Y-88855D02*
X939755D01*
X938201Y-87630D02*
X939426Y-88855D01*
X937260Y-87630D02*
X938201D01*
X942295Y-83775D02*
X956310Y-97790D01*
X942295Y-83775D02*
Y-83446D01*
X941070Y-82221D02*
X942295Y-83446D01*
X941070Y-82221D02*
Y-81280D01*
X1497330Y-109220D02*
X1498600Y-110490D01*
X1438910Y-109220D02*
X1497330D01*
X1436370Y-111760D02*
X1438910Y-109220D01*
X1686560Y-113030D02*
X1696360Y-103230D01*
X1530350Y-113030D02*
X1686560D01*
X1521460Y-104140D02*
X1530350Y-113030D01*
X1436370Y-104140D02*
X1521460D01*
X1433536Y-106974D02*
X1436370Y-104140D01*
X948984Y-106974D02*
X1433536D01*
X1534160Y-105739D02*
Y-104140D01*
Y-105739D02*
X1535430Y-107009D01*
Y-107950D02*
Y-107009D01*
X1529080Y-99060D02*
X1534160Y-104140D01*
X1435100Y-99060D02*
X1529080D01*
X1431290Y-102870D02*
X1435100Y-99060D01*
X953770Y-102870D02*
X1431290D01*
X1435100Y-92710D02*
X1560830D01*
X1570990Y-102870D01*
X1430020Y-97790D02*
X1435100Y-92710D01*
X956310Y-97790D02*
X1430020D01*
X1147000Y-67092D02*
X1147000Y-67092D01*
X1144765Y-69327D02*
X1147000Y-67092D01*
X1129030Y-78740D02*
X1138444Y-69327D01*
X1144765D01*
X1085850Y-78740D02*
X1129030D01*
X1068070Y-60960D02*
X1085850Y-78740D01*
X872490Y-60960D02*
X1068070D01*
X868680Y-55880D02*
X1110388D01*
X1121600Y-67092D01*
X864870Y-59690D02*
X868680Y-55880D01*
X867410Y-66040D02*
X872490Y-60960D01*
X565150Y-66040D02*
X867410D01*
X567690Y-59690D02*
X864870D01*
X1589000Y353000D02*
Y390120D01*
Y352000D02*
Y353000D01*
X1269000D02*
Y435340D01*
Y352000D02*
Y353000D01*
X949000D02*
Y435300D01*
Y352000D02*
Y353000D01*
X1324610Y58420D02*
Y121920D01*
X1299210Y58420D02*
Y115570D01*
X529590Y247650D02*
X530860Y246380D01*
X476250Y247650D02*
X529590D01*
X468630Y255270D02*
X476250Y247650D01*
X468630Y255270D02*
Y284480D01*
X472440Y241300D02*
X537210D01*
X462280Y251460D02*
Y281940D01*
Y251460D02*
X472440Y241300D01*
X434340Y318770D02*
X468630Y284480D01*
X259080Y318770D02*
X434340D01*
X249896Y327954D02*
X259080Y318770D01*
X249896Y327954D02*
Y328372D01*
X249084Y329184D02*
X249896Y328372D01*
X249084Y329184D02*
Y332576D01*
X248920Y332740D02*
X249084Y332576D01*
X430530Y313690D02*
X462280Y281940D01*
X256540Y313690D02*
X430530D01*
X246335Y323895D02*
X256540Y313690D01*
X246335Y323895D02*
Y324224D01*
X245110Y325449D02*
X246335Y324224D01*
X245110Y325449D02*
Y326390D01*
X1069340Y153670D02*
X1120140D01*
X741680Y44450D02*
Y184150D01*
X734060Y188289D02*
Y189230D01*
Y188289D02*
X735330Y187019D01*
X741680Y44450D02*
X756920Y29210D01*
X68580Y334010D02*
Y355085D01*
X75445Y361950D01*
X85090D01*
X792480Y-46990D02*
X854710D01*
X861060Y-53340D01*
X789940Y-44450D02*
X792480Y-46990D01*
X789940Y-44450D02*
Y-39370D01*
X779780Y-53340D02*
X825500D01*
X777240Y-50800D02*
X779780Y-53340D01*
X777240Y-50800D02*
Y-45720D01*
X215900Y219710D02*
X219710Y223520D01*
X215900Y200660D02*
Y219710D01*
X199902Y184662D02*
X215900Y200660D01*
X64967Y184662D02*
X199902D01*
X63991Y185638D02*
X64967Y184662D01*
X58060Y185638D02*
X63991D01*
X343505Y215295D02*
X344170Y214630D01*
X343505Y215295D02*
Y216565D01*
X281940Y278130D02*
X343505Y216565D01*
X25498Y-59788D02*
X88900D01*
X-4104Y-64476D02*
X93980D01*
X455930Y240030D02*
X562610Y133350D01*
X576580D01*
X455930Y240030D02*
Y275590D01*
X30780Y-55002D02*
X83820Y-54610D01*
X260350Y-84870D02*
Y-66040D01*
X279400Y-46990D01*
Y125730D01*
X106680Y-73660D02*
Y-35560D01*
X85090Y-13970D02*
X106680Y-35560D01*
X85090Y-13970D02*
Y16510D01*
X52070Y49530D02*
X85090Y16510D01*
X52070Y49530D02*
Y233680D01*
X59908Y241518D02*
X73300D01*
X52070Y233680D02*
X59908Y241518D01*
X1141730Y12700D02*
X1226820D01*
X1132840Y21590D02*
X1141730Y12700D01*
X1132840Y21590D02*
Y140970D01*
X1120140Y153670D02*
X1132840Y140970D01*
X1248600Y-41692D02*
X1261110Y-54202D01*
Y-76200D02*
Y-54202D01*
Y-76200D02*
X1268730Y-83820D01*
X1357630D01*
X975360Y-10160D02*
X1263650D01*
X1274000Y-41692D02*
Y-20510D01*
X1263650Y-10160D02*
X1274000Y-20510D01*
X1286510Y-54202D02*
X1299400Y-67092D01*
X1286510Y-54202D02*
Y-15240D01*
X1270000Y1270D02*
X1286510Y-15240D01*
X982980Y1270D02*
X1270000D01*
X986790Y6350D02*
X1299210D01*
X1313180Y-7620D01*
Y-55472D02*
Y-7620D01*
Y-55472D02*
X1324800Y-67092D01*
X960120Y33020D02*
X986790Y6350D01*
X883920Y33020D02*
X960120D01*
X880110Y29210D02*
X883920Y33020D01*
X756920Y29210D02*
X880110D01*
X956310Y27940D02*
X982980Y1270D01*
X886460Y27940D02*
X956310D01*
X881380Y22860D02*
X886460Y27940D01*
X753110Y22860D02*
X881380D01*
X735330Y40640D02*
X753110Y22860D01*
X730250Y36830D02*
Y182880D01*
X735330Y40640D02*
Y187019D01*
X730250Y36830D02*
X749300Y17780D01*
X979170Y-3810D02*
X1254760D01*
X952500Y22860D02*
X979170Y-3810D01*
X887730Y22860D02*
X952500D01*
X882650Y17780D02*
X887730Y22860D01*
X749300Y17780D02*
X882650D01*
X929640Y454660D02*
X949000Y435300D01*
X600710Y454660D02*
X929640D01*
X900430Y552450D02*
X976630D01*
X981710Y557530D01*
X850900Y502920D02*
X900430Y552450D01*
X850900Y472440D02*
Y502920D01*
X838200Y459740D02*
X850900Y472440D01*
X594360Y459740D02*
X838200D01*
X843280Y505460D02*
X896620Y558800D01*
X843280Y476250D02*
Y505460D01*
X896620Y558800D02*
X964749D01*
X966019Y557530D01*
X966960D01*
X831850Y464820D02*
X843280Y476250D01*
X600710Y464820D02*
X831850D01*
X716280Y480060D02*
X825500D01*
X703580Y476250D02*
X713740Y486410D01*
X814372D01*
X604520Y476250D02*
X703580D01*
X707390Y471170D02*
X716280Y480060D01*
X599440Y471170D02*
X707390D01*
X588010Y482600D02*
X599440Y471170D01*
X455930Y482600D02*
X588010D01*
X894382Y566420D02*
X1281430D01*
X814372Y486410D02*
X894382Y566420D01*
X1281430D02*
X1286510Y561340D01*
X1297940Y571500D02*
X1301750Y567690D01*
X890572Y571500D02*
X1297940D01*
X810562Y491490D02*
X890572Y571500D01*
X1573530Y576580D02*
X1601470Y548640D01*
X886762Y576580D02*
X1573530D01*
X806752Y496570D02*
X886762Y576580D01*
X1588770Y581660D02*
X1605280Y565150D01*
X882952Y581660D02*
X1588770D01*
X802942Y501650D02*
X882952Y581660D01*
X593090Y487680D02*
X604520Y476250D01*
X464820Y487680D02*
X593090D01*
X1604010Y586740D02*
X1620520Y570230D01*
X879142Y586740D02*
X1604010D01*
X799132Y506730D02*
X879142Y586740D01*
X712470Y491490D02*
X810562D01*
X702310Y481330D02*
X712470Y491490D01*
X608330Y481330D02*
X702310D01*
X595630Y494030D02*
X608330Y481330D01*
X455930Y494030D02*
X595630D01*
X1589000Y390120D02*
X1601470Y402590D01*
Y548640D01*
X709930Y496570D02*
X806752D01*
X699770Y486410D02*
X709930Y496570D01*
X613410Y486410D02*
X699770D01*
X599440Y500380D02*
X613410Y486410D01*
X383540Y500380D02*
X599440D01*
X379730Y496570D02*
X383540Y500380D01*
X379730Y490220D02*
Y496570D01*
X364490Y474980D02*
X379730Y490220D01*
X346710Y474980D02*
X364490D01*
X707390Y501650D02*
X802942D01*
X697230Y491490D02*
X707390Y501650D01*
X615950Y491490D02*
X697230D01*
X601980Y505460D02*
X615950Y491490D01*
X379730Y505460D02*
X601980D01*
X373380Y499110D02*
X379730Y505460D01*
X373380Y491490D02*
Y499110D01*
X361950Y480060D02*
X373380Y491490D01*
X340360Y480060D02*
X361950D01*
X704850Y506730D02*
X799132D01*
X694690Y496570D02*
X704850Y506730D01*
X618490Y496570D02*
X694690D01*
X604520Y510540D02*
X618490Y496570D01*
X377190Y510540D02*
X604520D01*
X368300Y501650D02*
X377190Y510540D01*
X368300Y494030D02*
Y501650D01*
X359410Y485140D02*
X368300Y494030D01*
X346710Y485140D02*
X359410D01*
X530860Y330200D02*
X539750D01*
X523240Y337820D02*
X530860Y330200D01*
X523240Y337820D02*
Y354330D01*
X948690Y16510D02*
X975360Y-10160D01*
X892810Y16510D02*
X948690D01*
X642620Y6350D02*
X942340D01*
X969010Y-20320D01*
X600710Y48260D02*
X642620Y6350D01*
X129540Y-96520D02*
X906780D01*
X106680Y-73660D02*
X129540Y-96520D01*
X-13578Y-55002D02*
X-4104Y-64476D01*
X1184910Y-54202D02*
X1197800Y-67092D01*
X1184910Y-54202D02*
Y-30480D01*
X1169670Y-15240D02*
X1184910Y-30480D01*
X971550Y-15240D02*
X1169670D01*
X1160780Y-55472D02*
Y-35560D01*
X1145540Y-20320D02*
X1160780Y-35560D01*
Y-55472D02*
X1172400Y-67092D01*
X944880Y11430D02*
X971550Y-15240D01*
X969010Y-20320D02*
X1145540D01*
X645160Y11430D02*
X944880D01*
X605790Y50800D02*
X645160Y11430D01*
X600710Y48260D02*
Y102870D01*
X605790Y50800D02*
Y104140D01*
X576580Y133350D02*
X605790Y104140D01*
X560070Y128270D02*
X575310D01*
X450850Y237490D02*
Y273050D01*
X575310Y128270D02*
X600710Y102870D01*
X450850Y237490D02*
X560070Y128270D01*
X431800Y299720D02*
X455930Y275590D01*
X421640Y302260D02*
X450850Y273050D01*
X440690Y232410D02*
Y267970D01*
X415290Y293370D02*
X440690Y267970D01*
X424180Y292100D02*
X445770Y270510D01*
X553720Y-45720D02*
X567690Y-59690D01*
X547370Y-48260D02*
X565150Y-66040D01*
X547370Y-48260D02*
Y125730D01*
X553720Y-45720D02*
Y127000D01*
X445770Y234950D02*
X553720Y127000D01*
X445770Y234950D02*
Y270510D01*
X562610Y-72390D02*
X941070D01*
X541020Y-50800D02*
Y120650D01*
X941070Y-72390D02*
X961390Y-92710D01*
X541020Y-50800D02*
X562610Y-72390D01*
X441960Y219710D02*
X541020Y120650D01*
X440690Y232410D02*
X547370Y125730D01*
X388620Y252730D02*
X528320Y113030D01*
X381000Y252730D02*
X520700Y113030D01*
X381000Y245110D02*
X513080Y113030D01*
X520700Y82550D02*
Y113030D01*
X389890Y260350D02*
X535940Y114300D01*
Y82550D02*
Y114300D01*
X547370Y204470D02*
X551180Y208280D01*
X554990Y204470D02*
X591820D01*
X551180Y208280D02*
X595630D01*
X538480Y194310D02*
X581660D01*
X544830Y189230D02*
X579120D01*
X544830Y199390D02*
X549910D01*
X502920Y204470D02*
X547370D01*
X595630Y208280D02*
X614680Y189230D01*
X1393190Y-92710D02*
X1398260Y-87640D01*
Y-77252D01*
X961390Y-92710D02*
X1393190D01*
X1696360Y-103230D02*
Y-84872D01*
X614680Y186690D02*
Y189230D01*
X581660Y194310D02*
X601980Y173990D01*
X607060Y187960D02*
Y189230D01*
X591820Y204470D02*
X607060Y189230D01*
X549910Y199390D02*
X554990Y204470D01*
X-22860Y321310D02*
X55880D01*
X68580Y334010D01*
X579120Y189230D02*
X593090Y175260D01*
X513080Y77470D02*
Y113030D01*
X528320Y77470D02*
Y113030D01*
X505460Y82550D02*
Y113030D01*
X373380Y245110D02*
X505460Y113030D01*
X497840Y77470D02*
Y113030D01*
X373380Y237490D02*
X497840Y113030D01*
X490220Y82550D02*
Y111760D01*
X365760Y236220D02*
X490220Y111760D01*
X482600Y77470D02*
Y111760D01*
X365760Y228600D02*
X482600Y111760D01*
X20712Y-55002D02*
X25498Y-59788D01*
X-40340Y-55002D02*
X-13578D01*
X-4780D02*
X20712D01*
D81*
X1535430Y447040D02*
X1545590Y457200D01*
X1535430Y367030D02*
Y447040D01*
Y367030D02*
X1551060Y351400D01*
X1551940Y340360D02*
Y348726D01*
X1551628Y349038D02*
X1551940Y348726D01*
X1551628Y349038D02*
Y350832D01*
X1551060Y351400D02*
X1551628Y350832D01*
X1551940Y340360D02*
X1557020Y335280D01*
X1729740D01*
X1733550Y-77470D02*
Y331470D01*
X1729740Y335280D02*
X1733550Y331470D01*
X1423670Y-64770D02*
X1424940Y-63500D01*
X1694180D01*
X1712444Y-81764D01*
X1714842D01*
X1715410Y-82332D01*
X1715628Y-82550D02*
X1728470D01*
X1715410Y-82332D02*
X1715628Y-82550D01*
X1728470D02*
X1733550Y-77470D01*
D82*
X790242Y520700D02*
X868982Y599440D01*
X697921Y520700D02*
X790242D01*
X868982Y599440D02*
X1508760D01*
X817880Y0D02*
X826770Y-8890D01*
Y-40640D02*
Y-8890D01*
X1423670Y-64770D02*
Y6350D01*
Y-88900D02*
Y-64770D01*
X1379220Y50800D02*
X1423670Y6350D01*
X1289050Y50800D02*
X1379220D01*
X1281212Y58638D02*
X1289050Y50800D01*
X1194710Y58638D02*
X1281212D01*
X872792Y593090D02*
X1518920D01*
X794052Y514350D02*
X872792Y593090D01*
X865172Y605790D02*
X1503680D01*
X786432Y527050D02*
X865172Y605790D01*
X1687830Y598170D02*
X1691272Y594728D01*
X1696210D01*
X1687830Y598170D02*
Y603250D01*
X1678940Y612140D02*
X1687830Y603250D01*
X860092Y612140D02*
X1678940D01*
X781352Y533400D02*
X860092Y612140D01*
X1691640Y618490D02*
X1696210Y613920D01*
Y609968D02*
Y613920D01*
X857250Y618490D02*
X1691640D01*
X778510Y539750D02*
X857250Y618490D01*
X775970Y546100D02*
X855078Y625208D01*
X634640Y504408D02*
X690520D01*
X642260Y510758D02*
X687980D01*
X690520Y504408D02*
X700461Y514350D01*
X687980Y510758D02*
X697921Y520700D01*
X634640Y517108D02*
X685440D01*
X695381Y527050D01*
X-4170Y-360D02*
X-3810Y0D01*
X-4170Y-45502D02*
Y-360D01*
X805180Y0D02*
X817880D01*
X91440Y622751D02*
X324669Y622751D01*
X95250Y613665D02*
X320905Y613665D01*
X88900Y604579D02*
X317141Y604579D01*
X313509Y595811D02*
X378460Y530860D01*
X297180Y586830D02*
X309790D01*
X303530Y577850D02*
X306070D01*
X365760Y518160D01*
X490220D01*
X309790Y586830D02*
X372110Y524510D01*
X483870D01*
X378460Y530860D02*
X490220D01*
X317141Y604579D02*
X384810Y536910D01*
X483870D01*
X320905Y613665D02*
X391160Y543410D01*
X490220D01*
X324669Y622751D02*
X397510Y549910D01*
X483870D01*
X1695841Y594360D02*
X1696210Y594728D01*
X855078Y625208D02*
X1696210D01*
X695381Y527050D02*
X786432D01*
X700461Y514350D02*
X794052D01*
X685358Y533400D02*
X781352D01*
X662430Y556328D02*
X685358Y533400D01*
X690738Y539750D02*
X778510D01*
X653690Y562828D02*
X667660D01*
X690738Y539750D01*
X694548Y546100D02*
X775970D01*
X671470Y569178D02*
X694548Y546100D01*
X649880Y569178D02*
X671470D01*
X646070Y557148D02*
X653390Y549828D01*
X646070Y565368D02*
X649880Y569178D01*
X646070Y557148D02*
Y565368D01*
D83*
X496570Y213360D02*
X506730Y223520D01*
X548640D01*
D84*
X457200Y436880D02*
X467360D01*
X547370Y351790D02*
X580390Y384810D01*
X467360Y436880D02*
X549910Y354330D01*
X571500Y332740D01*
X293370Y417830D02*
X318770Y443230D01*
X521970Y-44450D02*
X534670Y-57150D01*
Y-66040D02*
Y-57150D01*
X238760Y214630D02*
X278130Y175260D01*
X548640Y255270D02*
X571500Y278130D01*
X548640Y223520D02*
Y255270D01*
X571500Y278130D02*
Y332740D01*
X240030Y334010D02*
Y358140D01*
X227330Y321310D02*
X240030Y334010D01*
X227330Y254000D02*
Y321310D01*
X1093470Y231698D02*
Y331470D01*
X1060450Y198678D02*
X1093470Y231698D01*
X511810Y-44450D02*
X521970D01*
X483870Y-16510D02*
X511810Y-44450D01*
X483870Y-16510D02*
Y17780D01*
X457170Y123220D02*
X472440Y107950D01*
Y60960D02*
Y107950D01*
Y60960D02*
X483870Y49530D01*
X457170Y123220D02*
Y128240D01*
X483870Y17780D02*
Y49530D01*
X281910Y175230D02*
X288290Y181610D01*
X314960D01*
X368330Y128240D01*
X457170D01*
X238760Y214630D02*
Y242570D01*
X227330Y254000D02*
X238760Y242570D01*
X1092200Y332740D02*
X1093470Y331470D01*
X1060450Y146050D02*
Y198678D01*
X1023620Y109220D02*
X1060450Y146050D01*
X990600Y109220D02*
X1023620D01*
X288290Y412750D02*
X293370Y417830D01*
X236220Y361950D02*
X240030Y358140D01*
X236220Y361950D02*
Y369570D01*
X243840Y377190D01*
X252730D01*
X288290Y412750D01*
X321310Y440690D02*
X326390Y435610D01*
X318770Y443230D02*
X321310Y440690D01*
X326390Y435610D02*
X358140D01*
X373380Y450850D01*
X402590D01*
X419100Y434340D01*
X454660D01*
X457200Y436880D01*
X580390Y384810D02*
X704850D01*
X820420Y269240D01*
Y179070D02*
Y269240D01*
Y179070D02*
X867410Y132080D01*
X967740D01*
X990600Y109220D01*
Y80010D02*
Y109220D01*
Y73660D02*
Y80010D01*
Y67310D02*
Y73660D01*
Y60960D02*
Y67310D01*
Y54610D02*
Y60960D01*
D86*
X1324800Y-67092D02*
D03*
Y-41692D02*
D03*
X1299400Y-67092D02*
D03*
Y-41692D02*
D03*
X1274000Y-67092D02*
D03*
Y-41692D02*
D03*
X1248600Y-67092D02*
D03*
Y-41692D02*
D03*
X1223200Y-67092D02*
D03*
Y-41692D02*
D03*
X1197800Y-67092D02*
D03*
Y-41692D02*
D03*
X1172400Y-67092D02*
D03*
Y-41692D02*
D03*
X1147000Y-67092D02*
D03*
Y-41692D02*
D03*
X1121600Y-67092D02*
D03*
Y-41692D02*
D03*
X1096200Y-67092D02*
D03*
X1696360Y-84872D02*
D03*
X260350Y-84870D02*
D03*
X751480Y-84872D02*
D03*
D87*
X1096200Y-41692D02*
D03*
X1670960Y-84872D02*
D03*
X234950Y-84870D02*
D03*
X726080Y-84872D02*
D03*
D88*
X1639000Y498000D02*
D03*
X1614000D02*
D03*
X1589000D02*
D03*
X1639000Y353000D02*
D03*
X1589000D02*
D03*
X1269000D02*
D03*
X1319000D02*
D03*
X1269000Y498000D02*
D03*
X1294000D02*
D03*
X1319000D02*
D03*
X949000Y353000D02*
D03*
X999000D02*
D03*
X949000Y498000D02*
D03*
X974000D02*
D03*
X999000D02*
D03*
D89*
X1671000Y423000D02*
D03*
X1557000D02*
D03*
X1237000D02*
D03*
X1351000D02*
D03*
X917000D02*
D03*
X1031000D02*
D03*
D90*
X1707627Y565597D02*
D03*
X1747627Y485597D02*
D03*
Y325597D02*
D03*
X1707627Y245597D02*
D03*
X1747627Y165597D02*
D03*
X1707627Y85597D02*
D03*
X1747627Y5597D02*
D03*
X1627627Y565597D02*
D03*
Y405597D02*
D03*
Y245597D02*
D03*
X1667627Y165597D02*
D03*
X1627627Y85597D02*
D03*
Y-74403D02*
D03*
X1547627Y565597D02*
D03*
X1587627Y325597D02*
D03*
Y165597D02*
D03*
X1547627Y85597D02*
D03*
X1467627Y565597D02*
D03*
X1507627Y485597D02*
D03*
X1467627Y405597D02*
D03*
X1507627Y325597D02*
D03*
X1467627Y85597D02*
D03*
X1507627Y5597D02*
D03*
X1467627Y-74403D02*
D03*
X1387627Y565597D02*
D03*
X1427627Y485597D02*
D03*
X1387627Y245597D02*
D03*
Y85597D02*
D03*
X1347627Y485597D02*
D03*
X1307627Y245597D02*
D03*
X1347627Y165597D02*
D03*
X1307627Y85597D02*
D03*
X1347627Y5597D02*
D03*
X1267627Y325597D02*
D03*
Y165597D02*
D03*
X1227627Y85597D02*
D03*
X1187627Y325597D02*
D03*
Y165597D02*
D03*
X1067627Y405597D02*
D03*
Y245597D02*
D03*
X987627Y405597D02*
D03*
Y245597D02*
D03*
X1027627Y165597D02*
D03*
X947627Y325597D02*
D03*
X907627Y245597D02*
D03*
Y85597D02*
D03*
X827627Y405597D02*
D03*
X867627Y325597D02*
D03*
Y165597D02*
D03*
X827627Y85597D02*
D03*
X747627Y565597D02*
D03*
X787627Y325597D02*
D03*
X747627Y245597D02*
D03*
Y85597D02*
D03*
X667627Y405597D02*
D03*
X707627Y325597D02*
D03*
X667627Y85597D02*
D03*
X587627Y405597D02*
D03*
X627627Y325597D02*
D03*
Y5597D02*
D03*
X507627Y565597D02*
D03*
X427627Y85597D02*
D03*
X387627Y485597D02*
D03*
X347627Y85597D02*
D03*
Y-74403D02*
D03*
X267627Y565597D02*
D03*
X307627Y485597D02*
D03*
Y165597D02*
D03*
X267627Y85597D02*
D03*
X187627Y565597D02*
D03*
X227627Y485597D02*
D03*
X187627Y405597D02*
D03*
Y245597D02*
D03*
X227627Y165597D02*
D03*
Y5597D02*
D03*
X187627Y-74403D02*
D03*
X107627Y565597D02*
D03*
X147627Y485597D02*
D03*
X107627Y405597D02*
D03*
X147627Y165597D02*
D03*
X107627Y85597D02*
D03*
X147627Y5597D02*
D03*
X27627Y565597D02*
D03*
X67627Y485597D02*
D03*
X27627Y245597D02*
D03*
Y85597D02*
D03*
X-52373Y565597D02*
D03*
X-12373Y485597D02*
D03*
X-52373Y405597D02*
D03*
Y245597D02*
D03*
X-12373Y165597D02*
D03*
X-52373Y85597D02*
D03*
Y-74403D02*
D03*
X-132373Y405597D02*
D03*
X929640Y-100330D02*
D03*
X935990Y-95250D02*
D03*
X937260Y-87630D02*
D03*
X941070Y-81280D02*
D03*
X1498600Y-110490D02*
D03*
X643890Y114300D02*
D03*
X440690Y-83820D02*
D03*
X500380D02*
D03*
X383540D02*
D03*
X585470Y227330D02*
D03*
X1324610Y121920D02*
D03*
X1299210Y115570D02*
D03*
X530860Y246380D02*
D03*
X537210Y241300D02*
D03*
X248920Y332740D02*
D03*
X245110Y326390D02*
D03*
X805180Y238760D02*
D03*
X840740Y254000D02*
D03*
X1127760Y280670D02*
D03*
X1148080Y287020D02*
D03*
X1269000Y435340D02*
D03*
X1447800Y281940D02*
D03*
X1468120Y287020D02*
D03*
X74930Y300990D02*
D03*
X77470Y323850D02*
D03*
X210820Y342900D02*
D03*
X215900Y384810D02*
D03*
X1545590Y457200D02*
D03*
X1551060Y351400D02*
D03*
X1092200Y332740D02*
D03*
X1069340Y153670D02*
D03*
X741680Y184150D02*
D03*
X734060Y189230D02*
D03*
X1729740Y335280D02*
D03*
X85090Y361950D02*
D03*
X1380490Y-87630D02*
D03*
X869950Y229870D02*
D03*
X847090Y170180D02*
D03*
X891540Y191770D02*
D03*
X899160Y222250D02*
D03*
X1191260Y232410D02*
D03*
X1210310Y237490D02*
D03*
Y193040D02*
D03*
X1510030Y229870D02*
D03*
X1539240Y222250D02*
D03*
X171450Y99060D02*
D03*
X251460Y203200D02*
D03*
X29210Y402590D02*
D03*
X58420Y450850D02*
D03*
X43180Y281940D02*
D03*
X789940Y-39370D02*
D03*
X826770Y-40640D02*
D03*
X777240Y-45720D02*
D03*
X594360Y190500D02*
D03*
X219710Y223520D02*
D03*
X281940Y278130D02*
D03*
X344170Y214630D02*
D03*
X160336Y135890D02*
D03*
X146050D02*
D03*
X121920Y111760D02*
D03*
Y91440D02*
D03*
X130694Y82666D02*
D03*
X164609Y84550D02*
D03*
X201158D02*
D03*
X241300Y99060D02*
D03*
X293370D02*
D03*
X279400Y125730D02*
D03*
X528320Y-50800D02*
D03*
X532130Y-54610D02*
D03*
X534670Y-59690D02*
D03*
Y-66040D02*
D03*
X275560Y177770D02*
D03*
X281910Y175230D02*
D03*
X558770Y93950D02*
D03*
X457170Y128240D02*
D03*
X576550Y110460D02*
D03*
X496540Y213330D02*
D03*
X1423670Y-88900D02*
D03*
X236220Y369570D02*
D03*
Y361950D02*
D03*
X240030Y358140D02*
D03*
X293370Y417830D02*
D03*
X288290Y412750D02*
D03*
X321310Y440690D02*
D03*
X316230Y445770D02*
D03*
X469900Y434340D02*
D03*
X462280Y436880D02*
D03*
X454660Y434340D02*
D03*
X552450Y356870D02*
D03*
X547370Y351790D02*
D03*
X990600Y54610D02*
D03*
Y60960D02*
D03*
Y67310D02*
D03*
Y73660D02*
D03*
Y80010D02*
D03*
X83820Y-54610D02*
D03*
X88900Y-59690D02*
D03*
X58060Y185638D02*
D03*
X1324610Y58420D02*
D03*
X1299210D02*
D03*
X1226820Y12700D02*
D03*
X1357630Y-83820D02*
D03*
X1254760Y-3810D02*
D03*
X730250Y182880D02*
D03*
X600710Y454660D02*
D03*
X594360Y459740D02*
D03*
X600710Y464820D02*
D03*
X825500Y480060D02*
D03*
X966960Y557530D02*
D03*
X981710D02*
D03*
X1286510Y561340D02*
D03*
X1301750Y567690D02*
D03*
X1518920Y593090D02*
D03*
X1508760Y599440D02*
D03*
X1503680Y605790D02*
D03*
X455930Y482600D02*
D03*
X464820Y487680D02*
D03*
X455930Y494030D02*
D03*
X1605280Y565150D02*
D03*
X1620520Y570230D02*
D03*
X642260Y510758D02*
D03*
X634640Y504408D02*
D03*
X346710Y474980D02*
D03*
X340360Y480060D02*
D03*
X346710Y485140D02*
D03*
X539750Y330200D02*
D03*
X523240Y354330D02*
D03*
X892810Y16510D02*
D03*
X906780Y-96520D02*
D03*
X93980Y-64770D02*
D03*
X415290Y293370D02*
D03*
X424180Y292100D02*
D03*
X825500Y-53340D02*
D03*
X861060D02*
D03*
X388620Y252730D02*
D03*
X381000Y245110D02*
D03*
X389890Y260350D02*
D03*
X538480Y194310D02*
D03*
X544830Y189230D02*
D03*
X544830Y199390D02*
D03*
X502920Y204470D02*
D03*
X421640Y302260D02*
D03*
X431800Y299720D02*
D03*
X441960Y219710D02*
D03*
X1570990Y-102870D02*
D03*
X1535430Y-107950D02*
D03*
X483870Y17780D02*
D03*
X548640Y223520D02*
D03*
X614680Y186690D02*
D03*
X601980Y173990D02*
D03*
X593090Y175260D02*
D03*
X607060Y187960D02*
D03*
X-22860Y321310D02*
D03*
X513080Y77470D02*
D03*
X535940Y82550D02*
D03*
X528320Y77470D02*
D03*
X520700Y82550D02*
D03*
X505460D02*
D03*
X497840Y77470D02*
D03*
X490220Y82550D02*
D03*
X482600Y77470D02*
D03*
X373380Y245110D02*
D03*
X381000Y252730D02*
D03*
X373380Y237490D02*
D03*
X365760Y236220D02*
D03*
Y228600D02*
D03*
X-3810Y0D02*
D03*
X805180D02*
D03*
X1398260Y-77252D02*
D03*
X95250Y613410D02*
D03*
X88900Y604520D02*
D03*
X91440Y622300D02*
D03*
X313690Y595630D02*
D03*
X303530Y577850D02*
D03*
X297180Y586740D02*
D03*
X490220Y518160D02*
D03*
X483870Y524510D02*
D03*
X490220Y530860D02*
D03*
X483870Y536910D02*
D03*
X490220Y543410D02*
D03*
X483870Y549910D02*
D03*
X1696210Y594728D02*
D03*
Y609968D02*
D03*
Y625208D02*
D03*
X1519830Y-50582D02*
D03*
Y-42962D02*
D03*
X1555390Y-51852D02*
D03*
Y-44232D02*
D03*
X1536340Y-45502D02*
D03*
X66950Y189448D02*
D03*
X1194710Y58638D02*
D03*
X1715410Y-82332D02*
D03*
X73300Y241518D02*
D03*
X-40340Y-55002D02*
D03*
X-4780D02*
D03*
X30780D02*
D03*
X702310Y-22860D02*
D03*
X634640Y517108D02*
D03*
X662430Y556328D02*
D03*
X653690Y562828D02*
D03*
X653390Y549828D02*
D03*
X-4170Y-45502D02*
D03*
M02*
