%FSTAX23Y23*%
%MOIN*%
%SFA1B1*%

%IPPOS*%
%ADD95C,0.000500*%
%LNmod_duo_dwarf-1*%
%LPD*%
G54D95*
X-00728Y02224D02*
D01*
X-00718Y02224*
X-00709Y02225*
X-00699Y02227*
X-0069Y02229*
X-00681Y02232*
X-00672Y02236*
X-00663Y0224*
X-00655Y02245*
X-00647Y0225*
X-00639Y02256*
X-00632Y02263*
X-00625Y0227*
X-00619Y02277*
X-00614Y02285*
X-00609Y02293*
X-00604Y02301*
X-006Y0231*
X-00597Y02319*
X-00594Y02328*
X-00592Y02338*
X-00591Y02347*
X-0059Y02357*
X-0059Y02362*
X-00551Y02696D02*
D01*
X-00553Y02696*
X-00556Y02696*
X-00559Y02695*
X-00562Y02695*
X-00564Y02694*
X-00567Y02693*
X-00569Y02692*
X-00572Y0269*
X-00574Y02689*
X-00576Y02687*
X-00578Y02685*
X-0058Y02683*
X-00582Y02681*
X-00583Y02679*
X-00585Y02677*
X-00586Y02674*
X-00587Y02672*
X-00588Y02669*
X-00589Y02667*
X-00589Y02664*
X-0059Y02661*
X-0059Y02658*
X-0059Y02657*
X-00748Y02224D02*
D01*
X-0075Y02224*
X-00753Y02224*
X-00756Y02223*
X-00758Y02222*
X-00761Y02222*
X-00764Y02221*
X-00766Y02219*
X-00768Y02218*
X-00771Y02216*
X-00773Y02215*
X-00775Y02213*
X-00777Y02211*
X-00779Y02209*
X-0078Y02207*
X-00782Y02204*
X-00783Y02202*
X-00784Y02199*
X-00785Y02197*
X-00786Y02194*
X-00786Y02191*
X-00787Y02189*
X-00787Y02186*
X-00787Y02185*
X02366Y02559D02*
D01*
X02366Y02549*
X02367Y02539*
X02369Y0253*
X02371Y02521*
X02374Y02511*
X02378Y02503*
X02382Y02494*
X02387Y02486*
X02392Y02478*
X02398Y0247*
X02405Y02463*
X02412Y02456*
X02419Y0245*
X02427Y02444*
X02435Y02439*
X02443Y02435*
X02452Y02431*
X02461Y02428*
X0247Y02425*
X0248Y02423*
X02489Y02422*
X02499Y02421*
X02509*
X02518Y02422*
X02528Y02423*
X02537Y02425*
X02546Y02428*
X02555Y02431*
X02564Y02435*
X02573Y02439*
X02581Y02444*
X02589Y0245*
X02596Y02456*
X02603Y02463*
X02609Y0247*
X02615Y02478*
X02621Y02486*
X02626Y02494*
X0263Y02503*
X02633Y02511*
X02636Y02521*
X02639Y0253*
X0264Y02539*
X02641Y02549*
X02642Y02559*
X02681Y02696D02*
D01*
X02678Y02696*
X02676Y02696*
X02673Y02695*
X0267Y02695*
X02668Y02694*
X02665Y02693*
X02663Y02692*
X0266Y0269*
X02658Y02689*
X02656Y02687*
X02654Y02685*
X02652Y02683*
X0265Y02681*
X02648Y02679*
X02647Y02677*
X02646Y02674*
X02644Y02672*
X02644Y02669*
X02643Y02667*
X02642Y02664*
X02642Y02661*
X02642Y02658*
X02642Y02657*
X02366D02*
D01*
X02366Y0266*
X02366Y02662*
X02365Y02665*
X02365Y02668*
X02364Y0267*
X02363Y02673*
X02361Y02675*
X0236Y02678*
X02359Y0268*
X02357Y02682*
X02355Y02684*
X02353Y02686*
X02351Y02688*
X02349Y0269*
X02346Y02691*
X02344Y02692*
X02341Y02693*
X02339Y02694*
X02336Y02695*
X02333Y02696*
X02331Y02696*
X02328Y02696*
X02327Y02696*
X06181Y02362D02*
D01*
X06181Y02352*
X06182Y02343*
X06184Y02333*
X06186Y02324*
X06189Y02315*
X06193Y02306*
X06197Y02297*
X06202Y02289*
X06207Y02281*
X06213Y02273*
X06219Y02266*
X06226Y02259*
X06234Y02253*
X06241Y02247*
X0625Y02242*
X06258Y02238*
X06267Y02234*
X06276Y02231*
X06285Y02228*
X06294Y02226*
X06304Y02225*
X06314Y02224*
X06318Y02224*
X06181Y02657D02*
D01*
X06181Y0266*
X0618Y02662*
X0618Y02665*
X06179Y02668*
X06178Y0267*
X06177Y02673*
X06176Y02675*
X06175Y02678*
X06173Y0268*
X06171Y02682*
X0617Y02684*
X06168Y02686*
X06165Y02688*
X06163Y0269*
X06161Y02691*
X06158Y02692*
X06156Y02693*
X06153Y02694*
X06151Y02695*
X06148Y02696*
X06145Y02696*
X06143Y02696*
X06141Y02696*
X06377Y02185D02*
D01*
X06377Y02187*
X06377Y0219*
X06377Y02193*
X06376Y02195*
X06375Y02198*
X06374Y02201*
X06373Y02203*
X06371Y02205*
X0637Y02208*
X06368Y0221*
X06366Y02212*
X06364Y02214*
X06362Y02216*
X0636Y02217*
X06358Y02219*
X06355Y0222*
X06353Y02221*
X0635Y02222*
X06348Y02223*
X06345Y02223*
X06342Y02224*
X06339Y02224*
X06338Y02224*
Y-00314D02*
D01*
X06341Y-00314*
X06344Y-00314*
X06346Y-00314*
X06349Y-00313*
X06352Y-00312*
X06354Y-00311*
X06357Y-0031*
X06359Y-00308*
X06361Y-00307*
X06363Y-00305*
X06365Y-00303*
X06367Y-00301*
X06369Y-00299*
X06371Y-00297*
X06372Y-00295*
X06373Y-00292*
X06375Y-0029*
X06376Y-00287*
X06376Y-00285*
X06377Y-00282*
X06377Y-00279*
X06377Y-00276*
X06377Y-00275*
X-00128D02*
D01*
X-00128Y-00278*
X-00128Y-00281*
X-00127Y-00283*
X-00127Y-00286*
X-00126Y-00289*
X-00125Y-00291*
X-00124Y-00294*
X-00122Y-00296*
X-00121Y-00298*
X-00119Y-003*
X-00117Y-00302*
X-00115Y-00304*
X-00113Y-00306*
X-00111Y-00308*
X-00109Y-00309*
X-00106Y-0031*
X-00104Y-00312*
X-00101Y-00313*
X-00098Y-00313*
X-00096Y-00314*
X-00093Y-00314*
X-0009Y-00314*
X-00089Y-00314*
X-00128Y00492D02*
D01*
X-00129Y005*
X-00129Y00508*
X-00131Y00516*
X-00133Y00524*
X-00135Y00532*
X-00138Y0054*
X-00142Y00547*
X-00146Y00554*
X-00151Y00561*
X-00156Y00568*
X-00161Y00574*
X-00167Y00579*
X-00174Y00585*
X-0018Y0059*
X-00187Y00594*
X-00195Y00598*
X-00202Y00601*
X-0021Y00604*
X-00218Y00606*
X-00226Y00608*
X-00234Y00609*
X-00242Y0061*
X-00246Y0061*
X-00787Y00649D02*
D01*
X-00787Y00646*
X-00787Y00644*
X-00786Y00641*
X-00785Y00638*
X-00785Y00636*
X-00783Y00633*
X-00782Y00631*
X-00781Y00628*
X-00779Y00626*
X-00778Y00624*
X-00776Y00622*
X-00774Y0062*
X-00772Y00618*
X-0077Y00616*
X-00767Y00615*
X-00765Y00614*
X-00762Y00613*
X-0076Y00612*
X-00757Y00611*
X-00754Y0061*
X-00752Y0061*
X-00749Y0061*
X-00748Y0061*
X-00787Y00854D02*
Y01641D01*
Y02185*
X-00748Y02224D02*
X-00728D01*
X-0059Y02362D02*
Y02657D01*
X-00551Y02696D02*
X02327D01*
X02642Y02559D02*
Y02657D01*
X02366Y02559D02*
Y02657D01*
X02681Y02696D02*
X06141D01*
X06181Y02362D02*
Y02657D01*
X06318Y02224D02*
X06338D01*
X06377Y-00275D02*
Y02185D01*
X-00089Y-00314D02*
X06338D01*
X-00128Y-00275D02*
Y00492D01*
X-00748Y0061D02*
X-00246D01*
X-00787Y00649D02*
Y00854D01*
M02*