G04*
G04 #@! TF.GenerationSoftware,Altium Limited,Altium Designer,22.1.2 (22)*
G04*
G04 Layer_Color=32896*
%FSLAX44Y44*%
%MOMM*%
G71*
G04*
G04 #@! TF.SameCoordinates,5463F463-4975-4F5A-9DDE-372079C73D9D*
G04*
G04*
G04 #@! TF.FilePolarity,Positive*
G04*
G01*
G75*
%ADD16C,0.1500*%
G36*
X1116330Y484378D02*
Y482346D01*
Y480314D01*
Y478282D01*
Y476250D01*
Y474218D01*
Y472186D01*
Y470154D01*
Y468122D01*
Y466090D01*
Y464058D01*
Y462026D01*
Y459994D01*
Y457962D01*
Y455930D01*
Y453898D01*
Y451866D01*
Y449834D01*
Y447802D01*
Y445770D01*
Y443738D01*
Y441706D01*
Y439674D01*
Y437642D01*
Y435610D01*
X1061466D01*
Y437642D01*
X1055370D01*
Y439674D01*
X1053338D01*
Y441706D01*
Y443738D01*
X1051306D01*
Y445770D01*
Y447802D01*
Y449834D01*
Y451866D01*
Y453898D01*
Y455930D01*
Y457962D01*
Y459994D01*
Y462026D01*
Y464058D01*
Y466090D01*
Y468122D01*
Y470154D01*
Y472186D01*
Y474218D01*
Y476250D01*
X1053338D01*
Y478282D01*
Y480314D01*
X1055370D01*
Y482346D01*
X1057402D01*
Y484378D01*
X1065530D01*
Y486410D01*
X1116330D01*
Y484378D01*
D02*
G37*
G36*
X1177290D02*
X1183386D01*
Y482346D01*
X1185418D01*
Y480314D01*
X1187450D01*
Y478282D01*
Y476250D01*
Y474218D01*
Y472186D01*
Y470154D01*
Y468122D01*
Y466090D01*
Y464058D01*
Y462026D01*
Y459994D01*
Y457962D01*
Y455930D01*
Y453898D01*
Y451866D01*
Y449834D01*
Y447802D01*
Y445770D01*
Y443738D01*
Y441706D01*
X1185418D01*
Y439674D01*
X1183386D01*
Y437642D01*
X1179322D01*
Y435610D01*
X1132586D01*
Y437642D01*
X1128522D01*
Y439674D01*
X1126490D01*
Y441706D01*
X1124458D01*
Y443738D01*
Y445770D01*
Y447802D01*
Y449834D01*
Y451866D01*
Y453898D01*
Y455930D01*
Y457962D01*
Y459994D01*
Y462026D01*
Y464058D01*
Y466090D01*
Y468122D01*
Y470154D01*
Y472186D01*
Y474218D01*
Y476250D01*
Y478282D01*
Y480314D01*
X1126490D01*
Y482346D01*
X1128522D01*
Y484378D01*
X1134618D01*
Y486410D01*
X1177290D01*
Y484378D01*
D02*
G37*
G36*
X1270762D02*
X1272794D01*
Y482346D01*
Y480314D01*
Y478282D01*
Y476250D01*
Y474218D01*
Y472186D01*
Y470154D01*
Y468122D01*
Y466090D01*
Y464058D01*
Y462026D01*
Y459994D01*
Y457962D01*
Y455930D01*
Y453898D01*
Y451866D01*
Y449834D01*
Y447802D01*
Y445770D01*
Y443738D01*
Y441706D01*
Y439674D01*
Y437642D01*
X1270762D01*
Y435610D01*
X1262634D01*
Y437642D01*
Y439674D01*
Y441706D01*
Y443738D01*
Y445770D01*
Y447802D01*
Y449834D01*
Y451866D01*
Y453898D01*
Y455930D01*
Y457962D01*
Y459994D01*
Y462026D01*
Y464058D01*
Y466090D01*
Y468122D01*
X1260602D01*
Y466090D01*
Y464058D01*
X1258570D01*
Y462026D01*
X1256538D01*
Y459994D01*
X1254506D01*
Y457962D01*
Y455930D01*
X1252474D01*
Y453898D01*
X1250442D01*
Y451866D01*
X1248410D01*
Y449834D01*
Y447802D01*
X1246378D01*
Y445770D01*
X1244346D01*
Y443738D01*
Y441706D01*
X1242314D01*
Y439674D01*
X1240282D01*
Y437642D01*
X1238250D01*
Y435610D01*
X1230122D01*
Y437642D01*
X1228090D01*
Y439674D01*
X1226058D01*
Y441706D01*
Y443738D01*
X1224026D01*
Y445770D01*
X1221994D01*
Y447802D01*
Y449834D01*
X1219962D01*
Y451866D01*
X1217930D01*
Y453898D01*
X1215898D01*
Y455930D01*
Y457962D01*
X1213866D01*
Y459994D01*
X1211834D01*
Y462026D01*
X1209802D01*
Y464058D01*
Y466090D01*
X1207770D01*
Y468122D01*
X1205738D01*
Y466090D01*
Y464058D01*
Y462026D01*
Y459994D01*
Y457962D01*
Y455930D01*
Y453898D01*
Y451866D01*
Y449834D01*
Y447802D01*
Y445770D01*
Y443738D01*
Y441706D01*
Y439674D01*
Y437642D01*
Y435610D01*
X1197610D01*
Y437642D01*
Y439674D01*
Y441706D01*
Y443738D01*
Y445770D01*
Y447802D01*
Y449834D01*
Y451866D01*
Y453898D01*
Y455930D01*
Y457962D01*
Y459994D01*
Y462026D01*
Y464058D01*
Y466090D01*
Y468122D01*
Y470154D01*
Y472186D01*
Y474218D01*
Y476250D01*
Y478282D01*
Y480314D01*
Y482346D01*
Y484378D01*
Y486410D01*
X1205738D01*
Y484378D01*
Y482346D01*
X1207770D01*
Y480314D01*
X1209802D01*
Y478282D01*
Y476250D01*
X1211834D01*
Y474218D01*
X1213866D01*
Y472186D01*
X1215898D01*
Y470154D01*
Y468122D01*
X1217930D01*
Y466090D01*
X1219962D01*
Y464058D01*
Y462026D01*
X1221994D01*
Y459994D01*
X1224026D01*
Y457962D01*
X1226058D01*
Y455930D01*
Y453898D01*
X1228090D01*
Y451866D01*
X1230122D01*
Y449834D01*
X1232154D01*
Y447802D01*
Y445770D01*
X1236218D01*
Y447802D01*
Y449834D01*
X1238250D01*
Y451866D01*
X1240282D01*
Y453898D01*
Y455930D01*
X1242314D01*
Y457962D01*
X1244346D01*
Y459994D01*
Y462026D01*
X1246378D01*
Y464058D01*
X1248410D01*
Y466090D01*
X1250442D01*
Y468122D01*
Y470154D01*
X1252474D01*
Y472186D01*
X1254506D01*
Y474218D01*
X1256538D01*
Y476250D01*
Y478282D01*
X1258570D01*
Y480314D01*
X1260602D01*
Y482346D01*
Y484378D01*
X1262634D01*
Y486410D01*
X1270762D01*
Y484378D01*
D02*
G37*
G36*
X1179322Y730250D02*
X1187450D01*
Y728218D01*
X1195578D01*
Y726186D01*
X1201674D01*
Y724154D01*
X1205738D01*
Y722122D01*
X1209802D01*
Y720090D01*
X1213866D01*
Y718058D01*
X1217930D01*
Y716026D01*
X1221994D01*
Y713994D01*
X1224026D01*
Y711962D01*
X1228090D01*
Y709930D01*
X1230122D01*
Y707898D01*
X1234186D01*
Y705866D01*
X1236218D01*
Y703834D01*
X1238250D01*
Y701802D01*
X1240282D01*
Y699770D01*
X1242314D01*
Y697738D01*
X1244346D01*
Y695706D01*
X1246378D01*
Y693674D01*
X1248410D01*
Y691642D01*
X1250442D01*
Y689610D01*
Y687578D01*
X1252474D01*
Y685546D01*
X1254506D01*
Y683514D01*
X1256538D01*
Y681482D01*
Y679450D01*
X1258570D01*
Y677418D01*
X1260602D01*
Y675386D01*
Y673354D01*
X1262634D01*
Y671322D01*
Y669290D01*
X1264666D01*
Y667258D01*
Y665226D01*
X1266698D01*
Y663194D01*
Y661162D01*
X1268730D01*
Y659130D01*
Y657098D01*
Y655066D01*
X1270762D01*
Y653034D01*
Y651002D01*
Y648970D01*
X1272794D01*
Y646938D01*
Y644906D01*
Y642874D01*
Y640842D01*
X1274826D01*
Y638810D01*
Y636778D01*
Y634746D01*
Y632714D01*
Y630682D01*
X1276858D01*
Y628650D01*
Y626618D01*
Y624586D01*
Y622554D01*
Y620522D01*
Y618490D01*
Y616458D01*
Y614426D01*
Y612394D01*
Y610362D01*
Y608330D01*
Y606298D01*
Y604266D01*
Y602234D01*
X1274826D01*
Y600202D01*
Y598170D01*
Y596138D01*
Y594106D01*
Y592074D01*
Y590042D01*
X1272794D01*
Y588010D01*
Y585978D01*
Y583946D01*
X1270762D01*
Y581914D01*
Y579882D01*
Y577850D01*
X1268730D01*
Y575818D01*
Y573786D01*
Y571754D01*
X1266698D01*
Y569722D01*
Y567690D01*
X1264666D01*
Y565658D01*
Y563626D01*
X1262634D01*
Y561594D01*
Y559562D01*
X1260602D01*
Y557530D01*
Y555498D01*
X1258570D01*
Y553466D01*
X1256538D01*
Y551434D01*
Y549402D01*
X1254506D01*
Y547370D01*
X1252474D01*
Y545338D01*
X1250442D01*
Y543306D01*
Y541274D01*
X1248410D01*
Y539242D01*
X1246378D01*
Y537210D01*
X1244346D01*
Y535178D01*
X1242314D01*
Y533146D01*
X1240282D01*
Y531114D01*
X1238250D01*
Y529082D01*
X1236218D01*
Y527050D01*
X1232154D01*
Y525018D01*
X1230122D01*
Y522986D01*
X1228090D01*
Y520954D01*
X1224026D01*
Y518922D01*
X1221994D01*
Y516890D01*
X1217930D01*
Y514858D01*
X1213866D01*
Y512826D01*
X1209802D01*
Y510794D01*
X1205738D01*
Y508762D01*
X1201674D01*
Y506730D01*
X1195578D01*
Y504698D01*
X1187450D01*
Y502666D01*
X1177290D01*
Y500634D01*
X1144778D01*
Y502666D01*
X1134618D01*
Y504698D01*
X1126490D01*
Y506730D01*
X1120394D01*
Y508762D01*
X1116330D01*
Y510794D01*
X1110234D01*
Y512826D01*
X1106170D01*
Y514858D01*
X1104138D01*
Y516890D01*
X1100074D01*
Y518922D01*
X1096010D01*
Y520954D01*
X1093978D01*
Y522986D01*
X1091946D01*
Y525018D01*
X1087882D01*
Y527050D01*
X1085850D01*
Y529082D01*
X1083818D01*
Y531114D01*
X1081786D01*
Y533146D01*
X1079754D01*
Y535178D01*
X1077722D01*
Y537210D01*
X1075690D01*
Y539242D01*
X1073658D01*
Y541274D01*
X1071626D01*
Y543306D01*
X1069594D01*
Y545338D01*
Y547370D01*
X1067562D01*
Y549402D01*
X1065530D01*
Y551434D01*
X1063498D01*
Y553466D01*
Y555498D01*
X1061466D01*
Y557530D01*
Y559562D01*
X1059434D01*
Y561594D01*
X1057402D01*
Y563626D01*
Y565658D01*
X1055370D01*
Y567690D01*
Y569722D01*
Y571754D01*
X1053338D01*
Y573786D01*
Y575818D01*
Y577850D01*
X1051306D01*
Y579882D01*
Y581914D01*
X1049274D01*
Y583946D01*
Y585978D01*
Y588010D01*
X1047242D01*
Y590042D01*
Y592074D01*
Y594106D01*
Y596138D01*
Y598170D01*
X1045210D01*
Y600202D01*
Y602234D01*
Y604266D01*
Y606298D01*
Y608330D01*
Y610362D01*
Y612394D01*
Y614426D01*
Y616458D01*
Y618490D01*
Y620522D01*
Y622554D01*
Y624586D01*
Y626618D01*
Y628650D01*
Y630682D01*
Y632714D01*
X1047242D01*
Y634746D01*
Y636778D01*
Y638810D01*
Y640842D01*
X1049274D01*
Y642874D01*
Y644906D01*
Y646938D01*
Y648970D01*
X1051306D01*
Y651002D01*
Y653034D01*
Y655066D01*
X1053338D01*
Y657098D01*
Y659130D01*
Y661162D01*
X1055370D01*
Y663194D01*
Y665226D01*
X1057402D01*
Y667258D01*
Y669290D01*
X1059434D01*
Y671322D01*
Y673354D01*
X1061466D01*
Y675386D01*
Y677418D01*
X1063498D01*
Y679450D01*
X1065530D01*
Y681482D01*
Y683514D01*
X1067562D01*
Y685546D01*
X1069594D01*
Y687578D01*
Y689610D01*
X1071626D01*
Y691642D01*
X1073658D01*
Y693674D01*
X1075690D01*
Y695706D01*
X1077722D01*
Y697738D01*
X1079754D01*
Y699770D01*
X1081786D01*
Y701802D01*
X1083818D01*
Y703834D01*
X1085850D01*
Y705866D01*
X1087882D01*
Y707898D01*
X1091946D01*
Y709930D01*
X1093978D01*
Y711962D01*
X1096010D01*
Y713994D01*
X1100074D01*
Y716026D01*
X1104138D01*
Y718058D01*
X1108202D01*
Y720090D01*
X1112266D01*
Y722122D01*
X1116330D01*
Y724154D01*
X1120394D01*
Y726186D01*
X1128522D01*
Y728218D01*
X1132586D01*
Y730250D01*
X1134618D01*
Y728218D01*
X1136650D01*
Y730250D01*
X1142746D01*
Y732282D01*
X1146810D01*
Y730250D01*
X1148842D01*
Y732282D01*
X1179322D01*
Y730250D01*
D02*
G37*
%LPC*%
G36*
X1106170Y478282D02*
X1063498D01*
Y476250D01*
X1061466D01*
Y474218D01*
Y472186D01*
Y470154D01*
Y468122D01*
Y466090D01*
Y464058D01*
Y462026D01*
Y459994D01*
Y457962D01*
Y455930D01*
Y453898D01*
Y451866D01*
Y449834D01*
Y447802D01*
Y445770D01*
X1063498D01*
Y443738D01*
X1106170D01*
Y445770D01*
Y447802D01*
Y449834D01*
Y451866D01*
Y453898D01*
Y455930D01*
Y457962D01*
Y459994D01*
Y462026D01*
Y464058D01*
Y466090D01*
Y468122D01*
Y470154D01*
Y472186D01*
Y474218D01*
Y476250D01*
Y478282D01*
D02*
G37*
G36*
X1177290D02*
X1134618D01*
Y476250D01*
Y474218D01*
Y472186D01*
Y470154D01*
Y468122D01*
Y466090D01*
Y464058D01*
Y462026D01*
Y459994D01*
Y457962D01*
Y455930D01*
Y453898D01*
Y451866D01*
Y449834D01*
Y447802D01*
Y445770D01*
Y443738D01*
X1177290D01*
Y445770D01*
X1179322D01*
Y447802D01*
Y449834D01*
Y451866D01*
Y453898D01*
Y455930D01*
Y457962D01*
Y459994D01*
Y462026D01*
Y464058D01*
Y466090D01*
Y468122D01*
Y470154D01*
Y472186D01*
Y474218D01*
X1177290D01*
Y476250D01*
Y478282D01*
D02*
G37*
G36*
X1179322Y713994D02*
X1142746D01*
Y711962D01*
X1132586D01*
Y709930D01*
X1126490D01*
Y707898D01*
X1122426D01*
Y705866D01*
X1118362D01*
Y703834D01*
X1114298D01*
Y701802D01*
X1110234D01*
Y699770D01*
X1106170D01*
Y697738D01*
X1104138D01*
Y695706D01*
X1100074D01*
Y693674D01*
X1098042D01*
Y691642D01*
X1096010D01*
Y689610D01*
X1093978D01*
Y687578D01*
X1091946D01*
Y685546D01*
X1089914D01*
Y683514D01*
X1087882D01*
Y681482D01*
X1085850D01*
Y679450D01*
X1083818D01*
Y677418D01*
Y675386D01*
X1081786D01*
Y673354D01*
X1079754D01*
Y671322D01*
Y669290D01*
X1077722D01*
Y667258D01*
X1075690D01*
Y665226D01*
Y663194D01*
X1073658D01*
Y661162D01*
Y659130D01*
X1071626D01*
Y657098D01*
Y655066D01*
X1069594D01*
Y653034D01*
Y651002D01*
Y648970D01*
X1067562D01*
Y646938D01*
Y644906D01*
Y642874D01*
X1065530D01*
Y640842D01*
Y638810D01*
Y636778D01*
Y634746D01*
X1063498D01*
Y632714D01*
Y630682D01*
Y628650D01*
Y626618D01*
Y624586D01*
Y622554D01*
Y620522D01*
Y618490D01*
Y616458D01*
Y614426D01*
Y612394D01*
Y610362D01*
Y608330D01*
Y606298D01*
Y604266D01*
Y602234D01*
Y600202D01*
Y598170D01*
X1065530D01*
Y596138D01*
Y594106D01*
Y592074D01*
Y590042D01*
X1067562D01*
Y588010D01*
Y585978D01*
Y583946D01*
X1069594D01*
Y581914D01*
Y579882D01*
Y577850D01*
X1071626D01*
Y575818D01*
Y573786D01*
X1073658D01*
Y571754D01*
Y569722D01*
X1075690D01*
Y567690D01*
Y565658D01*
X1077722D01*
Y563626D01*
Y561594D01*
X1079754D01*
Y559562D01*
X1081786D01*
Y557530D01*
X1083818D01*
Y555498D01*
Y553466D01*
X1085850D01*
Y551434D01*
X1087882D01*
Y549402D01*
X1089914D01*
Y547370D01*
X1091946D01*
Y545338D01*
X1093978D01*
Y543306D01*
X1096010D01*
Y541274D01*
X1098042D01*
Y539242D01*
X1100074D01*
Y537210D01*
X1104138D01*
Y535178D01*
X1106170D01*
Y533146D01*
X1110234D01*
Y531114D01*
X1114298D01*
Y529082D01*
X1116330D01*
Y527050D01*
X1122426D01*
Y525018D01*
X1126490D01*
Y522986D01*
X1132586D01*
Y520954D01*
X1140714D01*
Y518922D01*
X1154938D01*
Y516890D01*
X1167130D01*
Y518922D01*
X1181354D01*
Y520954D01*
X1189482D01*
Y522986D01*
X1195578D01*
Y525018D01*
X1199642D01*
Y527050D01*
X1203706D01*
Y529082D01*
X1207770D01*
Y531114D01*
X1211834D01*
Y533146D01*
X1215898D01*
Y535178D01*
X1217930D01*
Y537210D01*
X1219962D01*
Y539242D01*
X1224026D01*
Y541274D01*
X1226058D01*
Y543306D01*
X1228090D01*
Y545338D01*
X1230122D01*
Y547370D01*
X1232154D01*
Y549402D01*
X1234186D01*
Y551434D01*
X1236218D01*
Y553466D01*
Y555498D01*
X1238250D01*
Y557530D01*
X1240282D01*
Y559562D01*
X1242314D01*
Y561594D01*
Y563626D01*
X1244346D01*
Y565658D01*
X1246378D01*
Y567690D01*
Y569722D01*
X1248410D01*
Y571754D01*
Y573786D01*
X1250442D01*
Y575818D01*
Y577850D01*
Y579882D01*
X1252474D01*
Y581914D01*
Y583946D01*
X1254506D01*
Y585978D01*
Y588010D01*
Y590042D01*
Y592074D01*
X1256538D01*
Y594106D01*
Y596138D01*
Y598170D01*
Y600202D01*
X1258570D01*
Y602234D01*
Y604266D01*
Y606298D01*
Y608330D01*
Y610362D01*
Y612394D01*
Y614426D01*
Y616458D01*
Y618490D01*
Y620522D01*
Y622554D01*
Y624586D01*
Y626618D01*
Y628650D01*
Y630682D01*
Y632714D01*
X1256538D01*
Y634746D01*
Y636778D01*
Y638810D01*
Y640842D01*
X1254506D01*
Y642874D01*
Y644906D01*
Y646938D01*
Y648970D01*
X1252474D01*
Y651002D01*
Y653034D01*
Y655066D01*
X1250442D01*
Y657098D01*
Y659130D01*
X1248410D01*
Y661162D01*
Y663194D01*
X1246378D01*
Y665226D01*
Y667258D01*
X1244346D01*
Y669290D01*
X1242314D01*
Y671322D01*
Y673354D01*
X1240282D01*
Y675386D01*
X1238250D01*
Y677418D01*
X1236218D01*
Y679450D01*
X1234186D01*
Y681482D01*
Y683514D01*
X1232154D01*
Y685546D01*
X1230122D01*
Y687578D01*
X1228090D01*
Y689610D01*
X1226058D01*
Y691642D01*
X1221994D01*
Y693674D01*
X1219962D01*
Y695706D01*
X1217930D01*
Y697738D01*
X1213866D01*
Y699770D01*
X1211834D01*
Y701802D01*
X1207770D01*
Y703834D01*
X1203706D01*
Y705866D01*
X1199642D01*
Y707898D01*
X1195578D01*
Y709930D01*
X1187450D01*
Y711962D01*
X1179322D01*
Y713994D01*
D02*
G37*
%LPD*%
G36*
X1191514Y689610D02*
X1195578D01*
Y687578D01*
X1197610D01*
Y685546D01*
X1199642D01*
Y683514D01*
Y681482D01*
Y679450D01*
Y677418D01*
Y675386D01*
Y673354D01*
Y671322D01*
Y669290D01*
Y667258D01*
Y665226D01*
Y663194D01*
Y661162D01*
Y659130D01*
Y657098D01*
Y655066D01*
Y653034D01*
Y651002D01*
Y648970D01*
Y646938D01*
Y644906D01*
Y642874D01*
Y640842D01*
Y638810D01*
Y636778D01*
X1197610D01*
Y634746D01*
X1195578D01*
Y632714D01*
X1191514D01*
Y630682D01*
X1130554D01*
Y632714D01*
X1126490D01*
Y634746D01*
X1124458D01*
Y636778D01*
X1122426D01*
Y638810D01*
Y640842D01*
Y642874D01*
X1120394D01*
Y644906D01*
Y646938D01*
Y648970D01*
Y651002D01*
Y653034D01*
Y655066D01*
Y657098D01*
Y659130D01*
Y661162D01*
Y663194D01*
Y665226D01*
Y667258D01*
Y669290D01*
Y671322D01*
Y673354D01*
Y675386D01*
Y677418D01*
Y679450D01*
X1122426D01*
Y681482D01*
Y683514D01*
Y685546D01*
X1124458D01*
Y687578D01*
X1126490D01*
Y689610D01*
X1130554D01*
Y691642D01*
X1165098D01*
Y689610D01*
Y687578D01*
Y685546D01*
Y683514D01*
Y681482D01*
Y679450D01*
Y677418D01*
Y675386D01*
Y673354D01*
X1161034D01*
Y671322D01*
X1159002D01*
Y669290D01*
Y667258D01*
Y665226D01*
Y663194D01*
Y661162D01*
Y659130D01*
Y657098D01*
Y655066D01*
Y653034D01*
Y651002D01*
Y648970D01*
Y646938D01*
X1161034D01*
Y644906D01*
X1165098D01*
Y642874D01*
X1175258D01*
Y644906D01*
X1179322D01*
Y646938D01*
X1181354D01*
Y648970D01*
X1183386D01*
Y651002D01*
Y653034D01*
Y655066D01*
Y657098D01*
Y659130D01*
Y661162D01*
Y663194D01*
Y665226D01*
Y667258D01*
X1181354D01*
Y669290D01*
Y671322D01*
X1179322D01*
Y673354D01*
X1175258D01*
Y675386D01*
Y677418D01*
Y679450D01*
Y681482D01*
Y683514D01*
Y685546D01*
Y687578D01*
Y689610D01*
Y691642D01*
X1191514D01*
Y689610D01*
D02*
G37*
G36*
X1193546Y622554D02*
X1201674D01*
Y620522D01*
X1205738D01*
Y618490D01*
X1207770D01*
Y616458D01*
Y614426D01*
X1209802D01*
Y612394D01*
Y610362D01*
X1211834D01*
Y608330D01*
Y606298D01*
Y604266D01*
Y602234D01*
Y600202D01*
Y598170D01*
Y596138D01*
Y594106D01*
Y592074D01*
Y590042D01*
Y588010D01*
Y585978D01*
Y583946D01*
Y581914D01*
Y579882D01*
Y577850D01*
Y575818D01*
Y573786D01*
Y571754D01*
Y569722D01*
Y567690D01*
Y565658D01*
Y563626D01*
Y561594D01*
Y559562D01*
Y557530D01*
X1209802D01*
Y555498D01*
Y553466D01*
X1207770D01*
Y551434D01*
Y549402D01*
X1203706D01*
Y547370D01*
X1199642D01*
Y545338D01*
X1191514D01*
Y543306D01*
X1130554D01*
Y545338D01*
X1120394D01*
Y547370D01*
X1118362D01*
Y549402D01*
X1114298D01*
Y551434D01*
X1112266D01*
Y553466D01*
Y555498D01*
Y557530D01*
X1110234D01*
Y559562D01*
Y561594D01*
Y563626D01*
Y565658D01*
Y567690D01*
Y569722D01*
Y571754D01*
Y573786D01*
Y575818D01*
Y577850D01*
Y579882D01*
Y581914D01*
Y583946D01*
Y585978D01*
Y588010D01*
Y590042D01*
Y592074D01*
Y594106D01*
Y596138D01*
Y598170D01*
Y600202D01*
Y602234D01*
Y604266D01*
Y606298D01*
Y608330D01*
Y610362D01*
Y612394D01*
X1112266D01*
Y614426D01*
Y616458D01*
X1114298D01*
Y618490D01*
X1116330D01*
Y620522D01*
X1120394D01*
Y622554D01*
X1128522D01*
Y624586D01*
X1193546D01*
Y622554D01*
D02*
G37*
%LPC*%
G36*
X1134618Y663194D02*
X1130554D01*
Y661162D01*
X1128522D01*
Y659130D01*
Y657098D01*
X1130554D01*
Y655066D01*
X1134618D01*
Y657098D01*
X1136650D01*
Y659130D01*
Y661162D01*
X1134618D01*
Y663194D01*
D02*
G37*
G36*
X1191514Y612394D02*
X1128522D01*
Y610362D01*
X1126490D01*
Y608330D01*
Y606298D01*
X1124458D01*
Y604266D01*
Y602234D01*
Y600202D01*
Y598170D01*
Y596138D01*
Y594106D01*
Y592074D01*
Y590042D01*
Y588010D01*
Y585978D01*
Y583946D01*
Y581914D01*
Y579882D01*
Y577850D01*
Y575818D01*
Y573786D01*
Y571754D01*
Y569722D01*
Y567690D01*
Y565658D01*
Y563626D01*
Y561594D01*
X1126490D01*
Y559562D01*
Y557530D01*
X1130554D01*
Y555498D01*
X1191514D01*
Y557530D01*
X1195578D01*
Y559562D01*
Y561594D01*
X1197610D01*
Y563626D01*
Y565658D01*
Y567690D01*
Y569722D01*
Y571754D01*
Y573786D01*
Y575818D01*
Y577850D01*
Y579882D01*
Y581914D01*
Y583946D01*
Y585978D01*
Y588010D01*
Y590042D01*
Y592074D01*
Y594106D01*
Y596138D01*
Y598170D01*
Y600202D01*
Y602234D01*
Y604266D01*
Y606298D01*
X1195578D01*
Y608330D01*
Y610362D01*
X1191514D01*
Y612394D01*
D02*
G37*
%LPD*%
G36*
X1173226Y604266D02*
X1177290D01*
Y602234D01*
X1179322D01*
Y600202D01*
Y598170D01*
Y596138D01*
Y594106D01*
Y592074D01*
Y590042D01*
Y588010D01*
Y585978D01*
Y583946D01*
Y581914D01*
Y579882D01*
Y577850D01*
Y575818D01*
Y573786D01*
Y571754D01*
Y569722D01*
Y567690D01*
Y565658D01*
X1177290D01*
Y563626D01*
X1175258D01*
Y561594D01*
X1165098D01*
Y563626D01*
X1163066D01*
Y565658D01*
Y567690D01*
Y569722D01*
Y571754D01*
Y573786D01*
Y575818D01*
Y577850D01*
Y579882D01*
Y581914D01*
Y583946D01*
Y585978D01*
Y588010D01*
Y590042D01*
Y592074D01*
Y594106D01*
Y596138D01*
Y598170D01*
Y600202D01*
Y602234D01*
Y604266D01*
X1167130D01*
Y606298D01*
X1173226D01*
Y604266D01*
D02*
G37*
D16*
X2069870Y346237D02*
Y354234D01*
X2067204Y351568D01*
X2064538Y354234D01*
Y346237D01*
X2057874Y354234D02*
X2060540D01*
X2061873Y352901D01*
Y347570D01*
X2060540Y346237D01*
X2057874D01*
X2056541Y347570D01*
Y352901D01*
X2057874Y354234D01*
X2053875D02*
Y346237D01*
X2049877D01*
X2048544Y347570D01*
Y352901D01*
X2049877Y354234D01*
X2053875D01*
X2037880Y346237D02*
Y351568D01*
X2035215Y354234D01*
X2032549Y351568D01*
Y346237D01*
Y350235D01*
X2037880D01*
X2029883Y351568D02*
Y347570D01*
X2028550Y346237D01*
X2024551D01*
Y351568D01*
X2016554Y354234D02*
Y346237D01*
X2020553D01*
X2021886Y347570D01*
Y350235D01*
X2020553Y351568D01*
X2016554D01*
X2013888Y346237D02*
X2011222D01*
X2012555D01*
Y351568D01*
X2013888D01*
X2005891Y346237D02*
X2003225D01*
X2001892Y347570D01*
Y350235D01*
X2003225Y351568D01*
X2005891D01*
X2007224Y350235D01*
Y347570D01*
X2005891Y346237D01*
X1991229Y354234D02*
Y347570D01*
X1989896Y346237D01*
X1987230D01*
X1985897Y347570D01*
Y354234D01*
X1977900Y352901D02*
X1979233Y354234D01*
X1981898D01*
X1983231Y352901D01*
Y347570D01*
X1981898Y346237D01*
X1979233D01*
X1977900Y347570D01*
Y350235D01*
X1980565D01*
X2069870Y341037D02*
Y333040D01*
Y337039D01*
X2068537Y338372D01*
X2065871D01*
X2064538Y337039D01*
Y333040D01*
X2060540Y339704D02*
Y338372D01*
X2061873D01*
X2059207D01*
X2060540D01*
Y334373D01*
X2059207Y333040D01*
X2053875Y339704D02*
Y338372D01*
X2055208D01*
X2052542D01*
X2053875D01*
Y334373D01*
X2052542Y333040D01*
X2048544Y330374D02*
Y338372D01*
X2044545D01*
X2043212Y337039D01*
Y334373D01*
X2044545Y333040D01*
X2048544D01*
X2040546Y338372D02*
X2039213D01*
Y337039D01*
X2040546D01*
Y338372D01*
Y334373D02*
X2039213D01*
Y333040D01*
X2040546D01*
Y334373D01*
X2033882Y333040D02*
X2028550Y338372D01*
X2025884Y333040D02*
Y338372D01*
X2024551D01*
X2023218Y337039D01*
Y333040D01*
Y337039D01*
X2021886Y338372D01*
X2020553Y337039D01*
Y333040D01*
X2016554D02*
X2013888D01*
X2012555Y334373D01*
Y337039D01*
X2013888Y338372D01*
X2016554D01*
X2017887Y337039D01*
Y334373D01*
X2016554Y333040D01*
X2004558Y341037D02*
Y333040D01*
X2008556D01*
X2009889Y334373D01*
Y337039D01*
X2008556Y338372D01*
X2004558D01*
X2001892Y333040D02*
Y334373D01*
X2000559D01*
Y333040D01*
X2001892D01*
X1993895Y338372D02*
X1991229D01*
X1989896Y337039D01*
Y333040D01*
X1993895D01*
X1995227Y334373D01*
X1993895Y335706D01*
X1989896D01*
X1987230Y338372D02*
Y334373D01*
X1985897Y333040D01*
X1981898D01*
Y338372D01*
X1973901Y341037D02*
Y333040D01*
X1977900D01*
X1979233Y334373D01*
Y337039D01*
X1977900Y338372D01*
X1973901D01*
X1971235Y333040D02*
X1968569D01*
X1969902D01*
Y338372D01*
X1971235D01*
X1963238Y333040D02*
X1960572D01*
X1959239Y334373D01*
Y337039D01*
X1960572Y338372D01*
X1963238D01*
X1964571Y337039D01*
Y334373D01*
X1963238Y333040D01*
X2067204Y303980D02*
X2069870D01*
Y311978D01*
X2067204D01*
X2063206Y303980D02*
Y311978D01*
X2060540Y309312D01*
X2057874Y311978D01*
Y303980D01*
X2055208Y311978D02*
Y303980D01*
X2051209D01*
X2049877Y305313D01*
Y310645D01*
X2051209Y311978D01*
X2055208D01*
X2047211D02*
Y303980D01*
X2043212D01*
X2041879Y305313D01*
Y310645D01*
X2043212Y311978D01*
X2047211D01*
X2039213Y307979D02*
X2033882D01*
X2031216Y303980D02*
Y311978D01*
X2027217D01*
X2025884Y310645D01*
Y307979D01*
X2027217Y306646D01*
X2031216D01*
X2017887Y310645D02*
X2019220Y311978D01*
X2021886D01*
X2023218Y310645D01*
Y305313D01*
X2021886Y303980D01*
X2019220D01*
X2017887Y305313D01*
X2015221Y311978D02*
Y303980D01*
X2011222D01*
X2009889Y305313D01*
Y306646D01*
X2011222Y307979D01*
X2015221D01*
X2011222D01*
X2009889Y309312D01*
Y310645D01*
X2011222Y311978D01*
X2015221D01*
X2007224Y307979D02*
X2001892D01*
X1999226Y310645D02*
X1997893Y311978D01*
X1995227D01*
X1993895Y310645D01*
Y305313D01*
X1995227Y303980D01*
X1997893D01*
X1999226Y305313D01*
Y310645D01*
X1991229D02*
X1989896Y311978D01*
X1987230D01*
X1985897Y310645D01*
Y305313D01*
X1987230Y303980D01*
X1989896D01*
X1991229Y305313D01*
Y310645D01*
X1977900Y303980D02*
X1983231D01*
X1977900Y309312D01*
Y310645D01*
X1979233Y311978D01*
X1981898D01*
X1983231Y310645D01*
X1975234Y303980D02*
X1972568D01*
Y311978D01*
X1975234D01*
X2069870Y290784D02*
Y298781D01*
X2067204Y296115D01*
X2064538Y298781D01*
Y290784D01*
X2057874Y298781D02*
X2060540D01*
X2061873Y297448D01*
Y292117D01*
X2060540Y290784D01*
X2057874D01*
X2056541Y292117D01*
Y297448D01*
X2057874Y298781D01*
X2053875D02*
Y290784D01*
X2049877D01*
X2048544Y292117D01*
Y297448D01*
X2049877Y298781D01*
X2053875D01*
X2037880D02*
Y290784D01*
X2033882D01*
X2032549Y292117D01*
Y297448D01*
X2033882Y298781D01*
X2037880D01*
X2029883Y296115D02*
Y292117D01*
X2028550Y290784D01*
X2027217Y292117D01*
X2025884Y290784D01*
X2024551Y292117D01*
Y296115D01*
X2020553D02*
X2017887D01*
X2016554Y294782D01*
Y290784D01*
X2020553D01*
X2021886Y292117D01*
X2020553Y293449D01*
X2016554D01*
X2013888Y296115D02*
Y290784D01*
Y293449D01*
X2012555Y294782D01*
X2011222Y296115D01*
X2009889D01*
X2004558Y290784D02*
Y297448D01*
Y294782D01*
X2005891D01*
X2003225D01*
X2004558D01*
Y297448D01*
X2003225Y298781D01*
X1991229Y294782D02*
X1985897D01*
X1969902Y296115D02*
X1973901D01*
X1975234Y294782D01*
Y292117D01*
X1973901Y290784D01*
X1969902D01*
X1965904D02*
X1963238D01*
X1961905Y292117D01*
Y294782D01*
X1963238Y296115D01*
X1965904D01*
X1967236Y294782D01*
Y292117D01*
X1965904Y290784D01*
X1959239D02*
Y296115D01*
X1955240D01*
X1953907Y294782D01*
Y290784D01*
X1949909Y297448D02*
Y296115D01*
X1951242D01*
X1948576D01*
X1949909D01*
Y292117D01*
X1948576Y290784D01*
X1944577Y296115D02*
Y290784D01*
Y293449D01*
X1943244Y294782D01*
X1941911Y296115D01*
X1940578D01*
X1935247Y290784D02*
X1932581D01*
X1931248Y292117D01*
Y294782D01*
X1932581Y296115D01*
X1935247D01*
X1936580Y294782D01*
Y292117D01*
X1935247Y290784D01*
X1928582D02*
X1925916D01*
X1927249D01*
Y298781D01*
X1928582D01*
X1921918Y290784D02*
X1919252D01*
X1920585D01*
Y298781D01*
X1921918D01*
X1911254Y290784D02*
X1913920D01*
X1915253Y292117D01*
Y294782D01*
X1913920Y296115D01*
X1911254D01*
X1909922Y294782D01*
Y293449D01*
X1915253D01*
X1907256Y296115D02*
Y290784D01*
Y293449D01*
X1905923Y294782D01*
X1904590Y296115D01*
X1903257D01*
X1891261Y298781D02*
Y290784D01*
X1887262D01*
X1885929Y292117D01*
Y293449D01*
Y294782D01*
X1887262Y296115D01*
X1891261D01*
X1881931Y290784D02*
X1879265D01*
X1877932Y292117D01*
Y294782D01*
X1879265Y296115D01*
X1881931D01*
X1883264Y294782D01*
Y292117D01*
X1881931Y290784D01*
X1873933Y296115D02*
X1871267D01*
X1869935Y294782D01*
Y290784D01*
X1873933D01*
X1875266Y292117D01*
X1873933Y293449D01*
X1869935D01*
X1867269Y296115D02*
Y290784D01*
Y293449D01*
X1865936Y294782D01*
X1864603Y296115D01*
X1863270D01*
X1853940Y298781D02*
Y290784D01*
X1857938D01*
X1859271Y292117D01*
Y294782D01*
X1857938Y296115D01*
X1853940D01*
X2069870Y277587D02*
Y285584D01*
X2065871D01*
X2064538Y284251D01*
Y281586D01*
X2065871Y280253D01*
X2069870D01*
X2067204D02*
X2064538Y277587D01*
X2057874D02*
X2060540D01*
X2061873Y278920D01*
Y281586D01*
X2060540Y282918D01*
X2057874D01*
X2056541Y281586D01*
Y280253D01*
X2061873D01*
X2053875Y282918D02*
X2051209Y277587D01*
X2048544Y282918D01*
X2045878Y277587D02*
Y278920D01*
X2044545D01*
Y277587D01*
X2045878D01*
X2039213Y282918D02*
X2037880D01*
Y281586D01*
X2039213D01*
Y282918D01*
Y278920D02*
X2037880D01*
Y277587D01*
X2039213D01*
Y278920D01*
X2024551Y277587D02*
Y285584D01*
X2021886Y282918D01*
X2019220Y285584D01*
Y277587D01*
X2016554Y285584D02*
Y277587D01*
X2012555D01*
X2011222Y278920D01*
Y284251D01*
X2012555Y285584D01*
X2016554D01*
X2008557D02*
Y277587D01*
X2005891Y280253D01*
X2003225Y277587D01*
Y285584D01*
X2000559Y281586D02*
X1995227D01*
X1992562Y277587D02*
Y285584D01*
X1988563D01*
X1987230Y284251D01*
Y281586D01*
X1988563Y280253D01*
X1992562D01*
X1979233Y284251D02*
X1980565Y285584D01*
X1983231D01*
X1984564Y284251D01*
Y278920D01*
X1983231Y277587D01*
X1980565D01*
X1979233Y278920D01*
X1976567Y285584D02*
Y277587D01*
X1972568D01*
X1971235Y278920D01*
Y280253D01*
X1972568Y281586D01*
X1976567D01*
X1972568D01*
X1971235Y282918D01*
Y284251D01*
X1972568Y285584D01*
X1976567D01*
X1968569Y281586D02*
X1963238D01*
X1960572Y284251D02*
X1959239Y285584D01*
X1956573D01*
X1955240Y284251D01*
Y278920D01*
X1956573Y277587D01*
X1959239D01*
X1960572Y278920D01*
Y284251D01*
X1952574D02*
X1951242Y285584D01*
X1948576D01*
X1947243Y284251D01*
Y278920D01*
X1948576Y277587D01*
X1951242D01*
X1952574Y278920D01*
Y284251D01*
X1939245Y277587D02*
X1944577D01*
X1939245Y282918D01*
Y284251D01*
X1940578Y285584D01*
X1943244D01*
X1944577Y284251D01*
X1936580Y281586D02*
X1931248D01*
X1928582Y285584D02*
Y280253D01*
X1925916Y277587D01*
X1923251Y280253D01*
Y285584D01*
X1920585Y284251D02*
X1919252Y285584D01*
X1916586D01*
X1915253Y284251D01*
Y282918D01*
X1916586Y281586D01*
X1917919D01*
X1916586D01*
X1915253Y280253D01*
Y278920D01*
X1916586Y277587D01*
X1919252D01*
X1920585Y278920D01*
X1912587Y277587D02*
Y278920D01*
X1911254D01*
Y277587D01*
X1912587D01*
X1905923Y284251D02*
X1904590Y285584D01*
X1901924D01*
X1900591Y284251D01*
Y278920D01*
X1901924Y277587D01*
X1904590D01*
X1905923Y278920D01*
Y284251D01*
X2069870Y272387D02*
Y264390D01*
X2065871D01*
X2064538Y265723D01*
Y271054D01*
X2065871Y272387D01*
X2069870D01*
X2060540Y269722D02*
X2057874D01*
X2056541Y268389D01*
Y264390D01*
X2060540D01*
X2061873Y265723D01*
X2060540Y267056D01*
X2056541D01*
X2052542Y271054D02*
Y269722D01*
X2053875D01*
X2051209D01*
X2052542D01*
Y265723D01*
X2051209Y264390D01*
X2043212D02*
X2045878D01*
X2047211Y265723D01*
Y268389D01*
X2045878Y269722D01*
X2043212D01*
X2041879Y268389D01*
Y267056D01*
X2047211D01*
X2039213Y269722D02*
X2037880D01*
Y268389D01*
X2039213D01*
Y269722D01*
Y265723D02*
X2037880D01*
Y264390D01*
X2039213D01*
Y265723D01*
X2019220Y264390D02*
X2024551D01*
X2019220Y269722D01*
Y271054D01*
X2020553Y272387D01*
X2023218D01*
X2024551Y271054D01*
X2016554D02*
X2015221Y272387D01*
X2012555D01*
X2011222Y271054D01*
Y265723D01*
X2012555Y264390D01*
X2015221D01*
X2016554Y265723D01*
Y271054D01*
X2003225Y264390D02*
X2008557D01*
X2003225Y269722D01*
Y271054D01*
X2004558Y272387D01*
X2007224D01*
X2008557Y271054D01*
X2000559D02*
X1999226Y272387D01*
X1996560D01*
X1995227Y271054D01*
Y269722D01*
X1996560Y268389D01*
X1997893D01*
X1996560D01*
X1995227Y267056D01*
Y265723D01*
X1996560Y264390D01*
X1999226D01*
X2000559Y265723D01*
X1992562Y268389D02*
X1987230D01*
X1984564Y271054D02*
X1983231Y272387D01*
X1980565D01*
X1979233Y271054D01*
Y265723D01*
X1980565Y264390D01*
X1983231D01*
X1984564Y265723D01*
Y271054D01*
X1971235Y264390D02*
X1976567D01*
X1971235Y269722D01*
Y271054D01*
X1972568Y272387D01*
X1975234D01*
X1976567Y271054D01*
X1968569Y268389D02*
X1963238D01*
X1955240Y264390D02*
X1960572D01*
X1955240Y269722D01*
Y271054D01*
X1956573Y272387D01*
X1959239D01*
X1960572Y271054D01*
X1947243Y264390D02*
X1952574D01*
X1947243Y269722D01*
Y271054D01*
X1948576Y272387D01*
X1951242D01*
X1952574Y271054D01*
M02*
