G04*
G04 #@! TF.GenerationSoftware,Altium Limited,Altium Designer,20.0.13 (296)*
G04*
G04 Layer_Color=16711935*
%FSLAX44Y44*%
%MOMM*%
G71*
G01*
G75*
%ADD92C,0.0127*%
D92*
X1772000Y508000D02*
G03*
X1757000Y523000I-15000J0D01*
G01*
X1716000Y558000D02*
G03*
X1751000Y523000I35000J0D01*
G01*
X540980Y635000D02*
G03*
X521384Y619000I0J-20000D01*
G01*
X1757000Y-118000D02*
G03*
X1772000Y-103000I0J15000D01*
G01*
X-91000D02*
G03*
X-76000Y-118000I15000J0D01*
G01*
X-143000Y523000D02*
G03*
X-158000Y508000I0J-15000D01*
G01*
X-91000Y124960D02*
G03*
X-126000Y159960I-35000J0D01*
G01*
X-158000Y169960D02*
G03*
X-148000Y159960I10000J0D01*
G01*
X-137000Y523000D02*
G03*
X-102000Y558000I0J35000D01*
G01*
X-87000Y635000D02*
G03*
X-102000Y620000I0J-15000D01*
G01*
X692000Y603000D02*
G03*
X762000Y603000I35000J0D01*
G01*
X692000Y625000D02*
G03*
X682000Y635000I-10000J0D01*
G01*
X772000D02*
G03*
X762000Y625000I0J-10000D01*
G01*
X364616Y619000D02*
G03*
X521384Y619000I78384J16000D01*
G01*
X1716000Y620000D02*
G03*
X1701000Y635000I-15000J0D01*
G01*
X364616Y619000D02*
G03*
X345020Y635000I-19596J-4000D01*
G01*
X-36750Y205500D02*
G03*
X-36750Y205500I-31250J0D01*
G01*
Y470500D02*
G03*
X-36750Y470500I-31250J0D01*
G01*
X1165250Y223000D02*
G03*
X1165250Y223000I-31250J0D01*
G01*
X1485250D02*
G03*
X1485250Y223000I-31250J0D01*
G01*
X772000Y635000D02*
X1701000D01*
X1751000Y523000D02*
X1757000D01*
X-91000Y-103000D02*
Y124960D01*
X1772000Y-103000D02*
Y508000D01*
X-102000Y558000D02*
Y620000D01*
X-76000Y-118000D02*
X1757000D01*
X-158000Y169960D02*
Y508000D01*
X-143000Y523000D02*
X-137000D01*
X540980Y635000D02*
X682000D01*
X-148000Y159960D02*
X-126000D01*
X-87000Y635000D02*
X345020D01*
X1716000Y558000D02*
Y620000D01*
X762000Y603000D02*
Y625000D01*
X692000Y603000D02*
Y625000D01*
M02*
