G04*
G04 #@! TF.GenerationSoftware,Altium Limited,Altium Designer,20.0.13 (296)*
G04*
G04 Layer_Color=16711935*
%FSLAX44Y44*%
%MOMM*%
G71*
G01*
G75*
%ADD71C,1.7032*%
%ADD72R,1.7032X1.7032*%
G04:AMPARAMS|DCode=73|XSize=1.8032mm|YSize=2.3032mm|CornerRadius=0mm|HoleSize=0mm|Usage=FLASHONLY|Rotation=180.000|XOffset=0mm|YOffset=0mm|HoleType=Round|Shape=Octagon|*
%AMOCTAGOND73*
4,1,8,0.4508,-1.1516,-0.4508,-1.1516,-0.9016,-0.7008,-0.9016,0.7008,-0.4508,1.1516,0.4508,1.1516,0.9016,0.7008,0.9016,-0.7008,0.4508,-1.1516,0.0*
%
%ADD73OCTAGOND73*%

%ADD74O,2.9032X3.8032*%
D71*
X1324800Y-67092D02*
D03*
Y-41692D02*
D03*
X1299400Y-67092D02*
D03*
Y-41692D02*
D03*
X1274000Y-67092D02*
D03*
Y-41692D02*
D03*
X1248600Y-67092D02*
D03*
Y-41692D02*
D03*
X1223200Y-67092D02*
D03*
Y-41692D02*
D03*
X1197800Y-67092D02*
D03*
Y-41692D02*
D03*
X1172400Y-67092D02*
D03*
Y-41692D02*
D03*
X1147000Y-67092D02*
D03*
Y-41692D02*
D03*
X1121600Y-67092D02*
D03*
Y-41692D02*
D03*
X1096200Y-67092D02*
D03*
X1696360Y-84872D02*
D03*
X260350Y-84870D02*
D03*
X751480Y-84872D02*
D03*
D72*
X1096200Y-41692D02*
D03*
X1670960Y-84872D02*
D03*
X234950Y-84870D02*
D03*
X726080Y-84872D02*
D03*
D73*
X1639000Y498000D02*
D03*
X1614000D02*
D03*
X1589000D02*
D03*
X1639000Y353000D02*
D03*
X1589000D02*
D03*
X1269000D02*
D03*
X1319000D02*
D03*
X1269000Y498000D02*
D03*
X1294000D02*
D03*
X1319000D02*
D03*
X949000Y353000D02*
D03*
X999000D02*
D03*
X949000Y498000D02*
D03*
X974000D02*
D03*
X999000D02*
D03*
D74*
X1671000Y423000D02*
D03*
X1557000D02*
D03*
X1237000D02*
D03*
X1351000D02*
D03*
X917000D02*
D03*
X1031000D02*
D03*
M02*
