G04 #@! TF.GenerationSoftware,KiCad,Pcbnew,5.1.5-52549c5~84~ubuntu18.04.1*
G04 #@! TF.CreationDate,2020-07-09T18:44:40+02:00*
G04 #@! TF.ProjectId,bottom-board,626f7474-6f6d-42d6-926f-6172642e6b69,rev?*
G04 #@! TF.SameCoordinates,Original*
G04 #@! TF.FileFunction,Soldermask,Bot*
G04 #@! TF.FilePolarity,Negative*
%FSLAX46Y46*%
G04 Gerber Fmt 4.6, Leading zero omitted, Abs format (unit mm)*
G04 Created by KiCad (PCBNEW 5.1.5-52549c5~84~ubuntu18.04.1) date 2020-07-09 18:44:40*
%MOMM*%
%LPD*%
G04 APERTURE LIST*
%ADD10R,1.827200X1.827200*%
%ADD11O,1.827200X1.827200*%
%ADD12C,1.600000*%
%ADD13C,2.100000*%
%ADD14R,2.100000X2.100000*%
%ADD15R,1.800000X1.800000*%
%ADD16C,1.800000*%
%ADD17C,3.600000*%
%ADD18C,5.700000*%
%ADD19C,1.720000*%
%ADD20C,1.950000*%
%ADD21R,3.600000X3.600000*%
%ADD22C,0.100000*%
%ADD23O,1.800000X1.800000*%
%ADD24R,3.100000X3.100000*%
%ADD25C,3.100000*%
%ADD26R,2.060000X2.060000*%
%ADD27C,2.060000*%
%ADD28C,3.300000*%
G04 APERTURE END LIST*
D10*
X185510000Y-124890000D03*
D11*
X185510000Y-122350000D03*
X188050000Y-124890000D03*
X188050000Y-122350000D03*
X190590000Y-124890000D03*
X190590000Y-122350000D03*
X193130000Y-124890000D03*
X193130000Y-122350000D03*
X195670000Y-124890000D03*
X195670000Y-122350000D03*
X198210000Y-124890000D03*
X198210000Y-122350000D03*
X200750000Y-124890000D03*
X200750000Y-122350000D03*
X203290000Y-124890000D03*
X203290000Y-122350000D03*
X205830000Y-124890000D03*
X205830000Y-122350000D03*
X208370000Y-124890000D03*
X208370000Y-122350000D03*
D12*
X84582000Y-76962000D03*
D13*
X138250000Y-74350000D03*
D14*
X133250000Y-74350000D03*
D15*
X136600000Y-53560000D03*
D16*
X139100000Y-53560000D03*
X139100000Y-51560000D03*
X136600000Y-51560000D03*
D17*
X131830000Y-48850000D03*
X143870000Y-48850000D03*
D16*
X199020000Y-44440000D03*
X199020000Y-51440000D03*
X187450000Y-51470000D03*
X187450000Y-44470000D03*
D12*
X84328000Y-72136000D03*
D14*
X122400000Y-74350000D03*
D13*
X127400000Y-74350000D03*
D18*
X147960000Y-45110000D03*
D19*
X125260000Y-53380000D03*
X125260000Y-55380000D03*
X125260000Y-57380000D03*
D20*
X127980000Y-52650000D03*
D19*
X125260000Y-59380000D03*
D20*
X127980000Y-59650000D03*
X122540000Y-52650000D03*
X122540000Y-59650000D03*
D21*
X156250000Y-52150000D03*
D22*
G36*
X157350963Y-44603732D02*
G01*
X157426195Y-44614891D01*
X157499971Y-44633371D01*
X157571580Y-44658993D01*
X157640332Y-44691511D01*
X157705567Y-44730611D01*
X157766655Y-44775917D01*
X157823008Y-44826992D01*
X157874083Y-44883345D01*
X157919389Y-44944433D01*
X157958489Y-45009668D01*
X157991007Y-45078420D01*
X158016629Y-45150029D01*
X158035109Y-45223805D01*
X158046268Y-45299037D01*
X158050000Y-45375000D01*
X158050000Y-46925000D01*
X158046268Y-47000963D01*
X158035109Y-47076195D01*
X158016629Y-47149971D01*
X157991007Y-47221580D01*
X157958489Y-47290332D01*
X157919389Y-47355567D01*
X157874083Y-47416655D01*
X157823008Y-47473008D01*
X157766655Y-47524083D01*
X157705567Y-47569389D01*
X157640332Y-47608489D01*
X157571580Y-47641007D01*
X157499971Y-47666629D01*
X157426195Y-47685109D01*
X157350963Y-47696268D01*
X157275000Y-47700000D01*
X155225000Y-47700000D01*
X155149037Y-47696268D01*
X155073805Y-47685109D01*
X155000029Y-47666629D01*
X154928420Y-47641007D01*
X154859668Y-47608489D01*
X154794433Y-47569389D01*
X154733345Y-47524083D01*
X154676992Y-47473008D01*
X154625917Y-47416655D01*
X154580611Y-47355567D01*
X154541511Y-47290332D01*
X154508993Y-47221580D01*
X154483371Y-47149971D01*
X154464891Y-47076195D01*
X154453732Y-47000963D01*
X154450000Y-46925000D01*
X154450000Y-45375000D01*
X154453732Y-45299037D01*
X154464891Y-45223805D01*
X154483371Y-45150029D01*
X154508993Y-45078420D01*
X154541511Y-45009668D01*
X154580611Y-44944433D01*
X154625917Y-44883345D01*
X154676992Y-44826992D01*
X154733345Y-44775917D01*
X154794433Y-44730611D01*
X154859668Y-44691511D01*
X154928420Y-44658993D01*
X155000029Y-44633371D01*
X155073805Y-44614891D01*
X155149037Y-44603732D01*
X155225000Y-44600000D01*
X157275000Y-44600000D01*
X157350963Y-44603732D01*
G37*
G36*
X152538215Y-47354334D02*
G01*
X152625581Y-47367293D01*
X152711256Y-47388754D01*
X152794415Y-47418508D01*
X152874257Y-47456271D01*
X152950013Y-47501677D01*
X153020954Y-47554291D01*
X153086396Y-47613604D01*
X153145709Y-47679046D01*
X153198323Y-47749987D01*
X153243729Y-47825743D01*
X153281492Y-47905585D01*
X153311246Y-47988744D01*
X153332707Y-48074419D01*
X153345666Y-48161785D01*
X153350000Y-48250000D01*
X153350000Y-50050000D01*
X153345666Y-50138215D01*
X153332707Y-50225581D01*
X153311246Y-50311256D01*
X153281492Y-50394415D01*
X153243729Y-50474257D01*
X153198323Y-50550013D01*
X153145709Y-50620954D01*
X153086396Y-50686396D01*
X153020954Y-50745709D01*
X152950013Y-50798323D01*
X152874257Y-50843729D01*
X152794415Y-50881492D01*
X152711256Y-50911246D01*
X152625581Y-50932707D01*
X152538215Y-50945666D01*
X152450000Y-50950000D01*
X150650000Y-50950000D01*
X150561785Y-50945666D01*
X150474419Y-50932707D01*
X150388744Y-50911246D01*
X150305585Y-50881492D01*
X150225743Y-50843729D01*
X150149987Y-50798323D01*
X150079046Y-50745709D01*
X150013604Y-50686396D01*
X149954291Y-50620954D01*
X149901677Y-50550013D01*
X149856271Y-50474257D01*
X149818508Y-50394415D01*
X149788754Y-50311256D01*
X149767293Y-50225581D01*
X149754334Y-50138215D01*
X149750000Y-50050000D01*
X149750000Y-48250000D01*
X149754334Y-48161785D01*
X149767293Y-48074419D01*
X149788754Y-47988744D01*
X149818508Y-47905585D01*
X149856271Y-47825743D01*
X149901677Y-47749987D01*
X149954291Y-47679046D01*
X150013604Y-47613604D01*
X150079046Y-47554291D01*
X150149987Y-47501677D01*
X150225743Y-47456271D01*
X150305585Y-47418508D01*
X150388744Y-47388754D01*
X150474419Y-47367293D01*
X150561785Y-47354334D01*
X150650000Y-47350000D01*
X152450000Y-47350000D01*
X152538215Y-47354334D01*
G37*
D15*
X196040000Y-133090000D03*
D23*
X198580000Y-133090000D03*
X201120000Y-133090000D03*
D24*
X228640000Y-48290000D03*
D25*
X228640000Y-60990000D03*
X228640000Y-54640000D03*
X244870000Y-48290000D03*
X244870000Y-60990000D03*
X244870000Y-54640000D03*
D24*
X207590000Y-48380000D03*
D25*
X207590000Y-61080000D03*
X207590000Y-54730000D03*
X223820000Y-48380000D03*
X223820000Y-61080000D03*
X223820000Y-54730000D03*
X104450000Y-54660000D03*
X104450000Y-61010000D03*
X104450000Y-48310000D03*
X88220000Y-54660000D03*
X88220000Y-61010000D03*
D24*
X88220000Y-48310000D03*
D25*
X83460000Y-54760000D03*
X83460000Y-61110000D03*
X83460000Y-48410000D03*
X67230000Y-54760000D03*
X67230000Y-61110000D03*
D24*
X67230000Y-48410000D03*
D26*
X176250000Y-52400000D03*
D27*
X174980000Y-54940000D03*
X173710000Y-52400000D03*
X172440000Y-54940000D03*
X171170000Y-52400000D03*
X169900000Y-54940000D03*
X168630000Y-52400000D03*
X167360000Y-54940000D03*
D28*
X177520000Y-46050000D03*
X166090000Y-46050000D03*
D16*
X112700000Y-44450000D03*
X112700000Y-51450000D03*
D12*
X102830000Y-85980000D03*
D18*
X249174000Y-120670000D03*
D14*
X122400000Y-85150000D03*
D13*
X127400000Y-85150000D03*
X138250000Y-85100000D03*
D14*
X133250000Y-85100000D03*
D12*
X102810000Y-89070000D03*
M02*
