G04 #@! TF.GenerationSoftware,KiCad,Pcbnew,5.1.5-52549c5~84~ubuntu18.04.1*
G04 #@! TF.CreationDate,2020-07-09T18:44:40+02:00*
G04 #@! TF.ProjectId,bottom-board,626f7474-6f6d-42d6-926f-6172642e6b69,rev?*
G04 #@! TF.SameCoordinates,Original*
G04 #@! TF.FileFunction,Profile,NP*
%FSLAX46Y46*%
G04 Gerber Fmt 4.6, Leading zero omitted, Abs format (unit mm)*
G04 Created by KiCad (PCBNEW 5.1.5-52549c5~84~ubuntu18.04.1) date 2020-07-09 18:44:40*
%MOMM*%
%LPD*%
G04 APERTURE LIST*
%ADD10C,0.200000*%
G04 APERTURE END LIST*
D10*
X59410000Y-49030000D02*
X59410000Y-127830000D01*
X246810000Y-43430000D02*
X246810000Y-44030000D01*
X66510000Y-134930000D02*
G75*
G02X65010000Y-133430000I0J1500000D01*
G01*
X61510000Y-129330000D02*
G75*
G02X65010000Y-132830000I0J-3500000D01*
G01*
X60910000Y-129330000D02*
G75*
G02X59410000Y-127830000I0J1500000D01*
G01*
X245310000Y-134930000D02*
X229100000Y-134930000D01*
X60910000Y-129330000D02*
X61510000Y-129330000D01*
X59410000Y-49030000D02*
G75*
G02X60910000Y-47530000I1500000J0D01*
G01*
X65010000Y-44030000D02*
G75*
G02X61510000Y-47530000I-3500000J0D01*
G01*
X65010000Y-43430000D02*
G75*
G02X66510000Y-41930000I1500000J0D01*
G01*
X252410000Y-49030000D02*
X252410000Y-127830000D01*
X229100000Y-134930000D02*
G75*
G02X227139118Y-133330000I-1290J2000000D01*
G01*
X252410000Y-127830000D02*
G75*
G02X250910000Y-129330000I-1500000J0D01*
G01*
X246810000Y-132830000D02*
G75*
G02X250310000Y-129330000I3500000J0D01*
G01*
X246810000Y-133430000D02*
G75*
G02X245310000Y-134930000I-1500000J0D01*
G01*
X250910000Y-129330000D02*
X250310000Y-129330000D01*
X211463113Y-133326432D02*
G75*
G02X227139118Y-133330000I7837638J-1603568D01*
G01*
X211463113Y-133326432D02*
G75*
G02X209503264Y-134927696I-1959849J398736D01*
G01*
X209503264Y-134927696D02*
X66510000Y-134930000D01*
X66510000Y-41930000D02*
X245310000Y-41930000D01*
X245310000Y-41930000D02*
G75*
G02X246810000Y-43430000I0J-1500000D01*
G01*
X250310000Y-47530000D02*
G75*
G02X246810000Y-44030000I0J3500000D01*
G01*
X250910000Y-47530000D02*
G75*
G02X252410000Y-49030000I0J-1500000D01*
G01*
X250310000Y-47530000D02*
X250910000Y-47530000D01*
X65010000Y-44030000D02*
X65010000Y-43430000D01*
X246810000Y-132830000D02*
X246810000Y-133430000D01*
X60910000Y-47530000D02*
X61510000Y-47530000D01*
X65010000Y-133430000D02*
X65010000Y-132830000D01*
M02*
