M48
; DRILL file {KiCad 5.1.5-52549c5~84~ubuntu18.04.1} date Thu Jul  9 18:44:42 2020
; FORMAT={-:-/ absolute / metric / decimal}
; #@! TF.CreationDate,2020-07-09T18:44:42+02:00
; #@! TF.GenerationSoftware,Kicad,Pcbnew,5.1.5-52549c5~84~ubuntu18.04.1
; #@! TF.FileFunction,Plated,1,2,PTH
FMAT,2
METRIC
T1C0.400
T2C0.600
T3C0.920
T4C0.960
T5C1.000
T6C1.016
T7C1.350
T8C1.500
T9C2.330
T10C3.200
T11C3.500
%
G90
G05
T1
X60.579Y-92.71
X60.579Y-97.79
X60.579Y-102.87
X60.579Y-109.22
X60.579Y-114.3
X60.706Y-87.63
X60.73Y-82.54
X60.81Y-77.45
X60.96Y-72.771
X81.4Y-122.4
X81.4Y-127.75
X84.28Y-123.91
X84.328Y-72.136
X84.33Y-127.64
X84.582Y-76.962
X85.41Y-123.06
X85.46Y-127.71
X85.77Y-94.325
X86.09Y-97.74
X86.11Y-96.66
X87.0Y-98.59
X87.77Y-95.77
X87.884Y-78.994
X88.938Y-95.912
X89.09Y-82.12
X89.154Y-72.136
X89.26Y-133.58
X89.3Y-132.36
X89.33Y-131.27
X89.36Y-127.8
X89.36Y-130.16
X89.37Y-128.93
X90.535Y-83.45
X91.33Y-82.59
X91.57Y-84.9
X92.64Y-84.87
X92.699Y-85.868
X93.71Y-85.41
X93.825Y-106.835
X94.291Y-87.791
X94.49Y-84.11
X94.996Y-78.994
X100.964Y-128.918
X102.81Y-89.07
X102.83Y-85.91
X102.99Y-129.2
X104.1Y-86.9
X104.538Y-129.355
X104.902Y-79.248
X105.664Y-107.696
X106.172Y-113.915
X106.426Y-106.934
X106.426Y-129.54
X107.28Y-108.865
X107.489Y-106.35
X108.257Y-113.993
X108.787Y-105.087
X109.05Y-106.25
X110.744Y-72.39
X111.926Y-87.05
X112.014Y-126.35
X112.5Y-129.7
X112.604Y-118.8
X112.634Y-117.801
X112.7Y-116.78
X113.03Y-127.075
X113.25Y-78.0
X113.85Y-71.4
X113.958Y-117.012
X114.953Y-116.92
X115.05Y-128.85
X115.153Y-111.262
X115.858Y-110.544
X116.01Y-116.825
X116.621Y-109.897
X116.75Y-128.7
X117.13Y-114.85
X117.499Y-109.419
X118.17Y-120.075
X118.237Y-67.437
X119.62Y-66.53
X121.6Y-116.188
X121.61Y-67.405
X122.43Y-68.13
X123.28Y-114.738
X123.405Y-66.665
X123.601Y-62.615
X124.047Y-115.463
X124.22Y-114.013
X124.976Y-113.358
X126.13Y-69.355
X128.72Y-64.21
X128.767Y-66.05
X129.39Y-61.33
X131.25Y-98.25
X131.873Y-61.154
X132.25Y-98.25
X133.25Y-98.25
X134.125Y-121.652
X135.347Y-121.652
X136.25Y-120.75
X146.9Y-77.02
X146.951Y-73.972
X147.002Y-79.712
X147.288Y-100.648
X147.35Y-97.65
X147.35Y-98.65
X147.35Y-99.65
X148.15Y-96.5
X148.979Y-95.4
X157.45Y-108.375
X160.274Y-112.268
X160.85Y-84.12
X170.583Y-85.367
X177.525Y-67.675
X200.7Y-78.1
X202.438Y-110.49
X202.438Y-113.12
X204.37Y-105.28
X207.1Y-89.55
X207.8Y-87.8
X210.01Y-64.59
X219.399Y-94.215
X220.218Y-92.202
X221.3Y-98.8
X221.5Y-93.1
X222.253Y-93.875
X224.7Y-73.9
X227.4Y-100.575
X227.8Y-102.025
X229.0Y-97.325
X230.0Y-96.985
X230.25Y-98.435
X230.607Y-96.191
X231.14Y-93.726
X235.07Y-87.43
X239.4Y-81.56
X244.9Y-82.9
X245.1Y-75.5
T2
X72.6Y-111.3
X72.6Y-120.9
X72.7Y-89.3
X72.7Y-102.95
X92.15Y-113.35
X96.62Y-65.49
X98.058Y-65.443
X99.55Y-65.45
X99.95Y-119.8
X100.4Y-93.05
X100.95Y-65.35
X101.3Y-103.0
X113.95Y-79.3
X114.55Y-70.35
X116.55Y-76.55
X117.094Y-102.362
X118.75Y-107.4
X121.05Y-128.15
X122.688Y-69.902
X123.444Y-107.696
X124.035Y-70.283
X124.96Y-71.36
X129.986Y-66.926
X134.49Y-60.575
X137.62Y-60.76
X138.63Y-70.02
X150.26Y-103.36
X150.56Y-95.16
X151.4Y-111.98
X151.638Y-103.378
X153.76Y-88.53
X155.14Y-88.47
X158.4Y-73.598
X160.31Y-113.52
X161.544Y-113.538
X163.45Y-77.02
X164.43Y-99.73
X164.64Y-96.26
X165.7Y-105.3
X167.5Y-109.296
X168.4Y-66.75
X168.65Y-73.75
X171.63Y-100.14
X173.32Y-56.65
X175.0Y-75.6
X181.75Y-128.15
X181.99Y-90.37
X182.127Y-66.757
X182.57Y-84.67
X183.1Y-94.05
X183.25Y-96.1
X185.8Y-77.08
X187.5Y-102.0
X187.77Y-63.27
X188.2Y-59.65
X190.36Y-131.17
X190.38Y-132.65
X191.2Y-65.35
X191.99Y-85.39
X192.75Y-103.425
X192.8Y-87.55
X193.775Y-75.0
X193.9Y-96.3
X194.47Y-82.33
X197.925Y-74.725
X198.0Y-93.55
X198.9Y-87.35
X199.72Y-69.35
X199.95Y-67.35
X202.7Y-99.122
X204.75Y-76.35
X208.246Y-88.914
X209.862Y-99.95
X211.518Y-98.77
X211.602Y-97.372
X218.411Y-93.51
X218.647Y-96.756
X218.67Y-110.68
X225.05Y-98.35
X227.76Y-118.86
X233.6Y-92.35
X236.0Y-112.65
X246.05Y-98.55
T3
X125.26Y-53.38
X125.26Y-55.38
X125.26Y-57.38
X125.26Y-59.38
X136.6Y-51.56
X136.6Y-53.56
X139.1Y-51.56
X139.1Y-53.56
T4
X167.36Y-54.94
X168.63Y-52.4
X169.9Y-54.94
X171.17Y-52.4
X172.44Y-54.94
X173.71Y-52.4
X174.98Y-54.94
X176.25Y-52.4
T5
X196.04Y-133.09
X198.58Y-133.09
X201.12Y-133.09
X122.4Y-74.35
X127.4Y-74.35
X133.25Y-74.35
X138.25Y-74.35
X133.25Y-85.1
X138.25Y-85.1
X122.4Y-85.15
X127.4Y-85.15
T6
X185.51Y-122.35
X185.51Y-124.89
X188.05Y-122.35
X188.05Y-124.89
X190.59Y-122.35
X190.59Y-124.89
X193.13Y-122.35
X193.13Y-124.89
X195.67Y-122.35
X195.67Y-124.89
X198.21Y-122.35
X198.21Y-124.89
X200.75Y-122.35
X200.75Y-124.89
X203.29Y-122.35
X203.29Y-124.89
X205.83Y-122.35
X205.83Y-124.89
X208.37Y-122.35
X208.37Y-124.89
T7
X122.54Y-52.65
X122.54Y-59.65
X127.98Y-52.65
X127.98Y-59.65
T8
X207.59Y-48.38
X207.59Y-54.73
X207.59Y-61.08
X223.82Y-48.38
X223.82Y-54.73
X223.82Y-61.08
X67.23Y-48.41
X67.23Y-54.76
X67.23Y-61.11
X83.46Y-48.41
X83.46Y-54.76
X83.46Y-61.11
X228.64Y-48.29
X228.64Y-54.64
X228.64Y-60.99
X244.87Y-48.29
X244.87Y-54.64
X244.87Y-60.99
X88.22Y-48.31
X88.22Y-54.66
X88.22Y-61.01
X104.45Y-48.31
X104.45Y-54.66
X104.45Y-61.01
T9
X131.83Y-48.85
X143.87Y-48.85
T10
X249.174Y-120.67
X147.96Y-45.11
T11
X61.525Y-49.675
X250.25Y-49.67
X62.55Y-120.775
T5
G00X151.55Y-48.15
M15
G01X151.55Y-50.15
M16
G05
G00X157.25Y-46.15
M15
G01X155.25Y-46.15
M16
G05
G00X157.25Y-52.15
M15
G01X155.25Y-52.15
M16
G05
T0
M30
