G04 #@! TF.GenerationSoftware,KiCad,Pcbnew,5.1.5-52549c5~84~ubuntu18.04.1*
G04 #@! TF.CreationDate,2020-07-09T18:44:40+02:00*
G04 #@! TF.ProjectId,bottom-board,626f7474-6f6d-42d6-926f-6172642e6b69,rev?*
G04 #@! TF.SameCoordinates,Original*
G04 #@! TF.FileFunction,Legend,Bot*
G04 #@! TF.FilePolarity,Positive*
%FSLAX46Y46*%
G04 Gerber Fmt 4.6, Leading zero omitted, Abs format (unit mm)*
G04 Created by KiCad (PCBNEW 5.1.5-52549c5~84~ubuntu18.04.1) date 2020-07-09 18:44:40*
%MOMM*%
%LPD*%
G04 APERTURE LIST*
%ADD10C,0.150000*%
%ADD11C,0.300000*%
%ADD12C,0.200000*%
%ADD13C,0.100000*%
%ADD14C,0.120000*%
G04 APERTURE END LIST*
D10*
X80812800Y-68557600D02*
X80812800Y-78768400D01*
D11*
X157178809Y-114004761D02*
X157178809Y-112004761D01*
X156512142Y-113433333D01*
X155845476Y-112004761D01*
X155845476Y-114004761D01*
X154512142Y-112004761D02*
X154131190Y-112004761D01*
X153940714Y-112100000D01*
X153750238Y-112290476D01*
X153655000Y-112671428D01*
X153655000Y-113338095D01*
X153750238Y-113719047D01*
X153940714Y-113909523D01*
X154131190Y-114004761D01*
X154512142Y-114004761D01*
X154702619Y-113909523D01*
X154893095Y-113719047D01*
X154988333Y-113338095D01*
X154988333Y-112671428D01*
X154893095Y-112290476D01*
X154702619Y-112100000D01*
X154512142Y-112004761D01*
X152797857Y-114004761D02*
X152797857Y-112004761D01*
X152321666Y-112004761D01*
X152035952Y-112100000D01*
X151845476Y-112290476D01*
X151750238Y-112480952D01*
X151655000Y-112861904D01*
X151655000Y-113147619D01*
X151750238Y-113528571D01*
X151845476Y-113719047D01*
X152035952Y-113909523D01*
X152321666Y-114004761D01*
X152797857Y-114004761D01*
X149274047Y-114004761D02*
X149274047Y-112004761D01*
X148797857Y-112004761D01*
X148512142Y-112100000D01*
X148321666Y-112290476D01*
X148226428Y-112480952D01*
X148131190Y-112861904D01*
X148131190Y-113147619D01*
X148226428Y-113528571D01*
X148321666Y-113719047D01*
X148512142Y-113909523D01*
X148797857Y-114004761D01*
X149274047Y-114004761D01*
X146512142Y-113909523D02*
X146702619Y-114004761D01*
X147083571Y-114004761D01*
X147274047Y-113909523D01*
X147369285Y-113719047D01*
X147369285Y-112957142D01*
X147274047Y-112766666D01*
X147083571Y-112671428D01*
X146702619Y-112671428D01*
X146512142Y-112766666D01*
X146416904Y-112957142D01*
X146416904Y-113147619D01*
X147369285Y-113338095D01*
X145750238Y-112671428D02*
X145274047Y-114004761D01*
X144797857Y-112671428D01*
X144035952Y-114004761D02*
X144035952Y-112671428D01*
X144035952Y-112004761D02*
X144131190Y-112100000D01*
X144035952Y-112195238D01*
X143940714Y-112100000D01*
X144035952Y-112004761D01*
X144035952Y-112195238D01*
X142226428Y-113909523D02*
X142416904Y-114004761D01*
X142797857Y-114004761D01*
X142988333Y-113909523D01*
X143083571Y-113814285D01*
X143178809Y-113623809D01*
X143178809Y-113052380D01*
X143083571Y-112861904D01*
X142988333Y-112766666D01*
X142797857Y-112671428D01*
X142416904Y-112671428D01*
X142226428Y-112766666D01*
X140607380Y-113909523D02*
X140797857Y-114004761D01*
X141178809Y-114004761D01*
X141369285Y-113909523D01*
X141464523Y-113719047D01*
X141464523Y-112957142D01*
X141369285Y-112766666D01*
X141178809Y-112671428D01*
X140797857Y-112671428D01*
X140607380Y-112766666D01*
X140512142Y-112957142D01*
X140512142Y-113147619D01*
X141464523Y-113338095D01*
X139750238Y-113909523D02*
X139559761Y-114004761D01*
X139178809Y-114004761D01*
X138988333Y-113909523D01*
X138893095Y-113719047D01*
X138893095Y-113623809D01*
X138988333Y-113433333D01*
X139178809Y-113338095D01*
X139464523Y-113338095D01*
X139655000Y-113242857D01*
X139750238Y-113052380D01*
X139750238Y-112957142D01*
X139655000Y-112766666D01*
X139464523Y-112671428D01*
X139178809Y-112671428D01*
X138988333Y-112766666D01*
X135464523Y-112100000D02*
X135655000Y-112004761D01*
X135940714Y-112004761D01*
X136226428Y-112100000D01*
X136416904Y-112290476D01*
X136512142Y-112480952D01*
X136607380Y-112861904D01*
X136607380Y-113147619D01*
X136512142Y-113528571D01*
X136416904Y-113719047D01*
X136226428Y-113909523D01*
X135940714Y-114004761D01*
X135750238Y-114004761D01*
X135464523Y-113909523D01*
X135369285Y-113814285D01*
X135369285Y-113147619D01*
X135750238Y-113147619D01*
X134512142Y-114004761D02*
X134512142Y-112671428D01*
X134512142Y-112861904D02*
X134416904Y-112766666D01*
X134226428Y-112671428D01*
X133940714Y-112671428D01*
X133750238Y-112766666D01*
X133655000Y-112957142D01*
X133655000Y-114004761D01*
X133655000Y-112957142D02*
X133559761Y-112766666D01*
X133369285Y-112671428D01*
X133083571Y-112671428D01*
X132893095Y-112766666D01*
X132797857Y-112957142D01*
X132797857Y-114004761D01*
X131845476Y-114004761D02*
X131845476Y-112004761D01*
X131845476Y-112766666D02*
X131655000Y-112671428D01*
X131274047Y-112671428D01*
X131083571Y-112766666D01*
X130988333Y-112861904D01*
X130893095Y-113052380D01*
X130893095Y-113623809D01*
X130988333Y-113814285D01*
X131083571Y-113909523D01*
X131274047Y-114004761D01*
X131655000Y-114004761D01*
X131845476Y-113909523D01*
X130035952Y-114004761D02*
X130035952Y-112004761D01*
X130035952Y-112957142D02*
X128893095Y-112957142D01*
X128893095Y-114004761D02*
X128893095Y-112004761D01*
X157178809Y-117304761D02*
X157178809Y-115304761D01*
X156321666Y-117304761D02*
X156321666Y-116257142D01*
X156416904Y-116066666D01*
X156607380Y-115971428D01*
X156893095Y-115971428D01*
X157083571Y-116066666D01*
X157178809Y-116161904D01*
X155655000Y-115971428D02*
X154893095Y-115971428D01*
X155369285Y-115304761D02*
X155369285Y-117019047D01*
X155274047Y-117209523D01*
X155083571Y-117304761D01*
X154893095Y-117304761D01*
X154512142Y-115971428D02*
X153750238Y-115971428D01*
X154226428Y-115304761D02*
X154226428Y-117019047D01*
X154131190Y-117209523D01*
X153940714Y-117304761D01*
X153750238Y-117304761D01*
X153083571Y-115971428D02*
X153083571Y-117971428D01*
X153083571Y-116066666D02*
X152893095Y-115971428D01*
X152512142Y-115971428D01*
X152321666Y-116066666D01*
X152226428Y-116161904D01*
X152131190Y-116352380D01*
X152131190Y-116923809D01*
X152226428Y-117114285D01*
X152321666Y-117209523D01*
X152512142Y-117304761D01*
X152893095Y-117304761D01*
X153083571Y-117209523D01*
X151274047Y-117114285D02*
X151178809Y-117209523D01*
X151274047Y-117304761D01*
X151369285Y-117209523D01*
X151274047Y-117114285D01*
X151274047Y-117304761D01*
X151274047Y-116066666D02*
X151178809Y-116161904D01*
X151274047Y-116257142D01*
X151369285Y-116161904D01*
X151274047Y-116066666D01*
X151274047Y-116257142D01*
X148893095Y-115209523D02*
X150607380Y-117780952D01*
X146797857Y-115209523D02*
X148512142Y-117780952D01*
X146131190Y-117304761D02*
X146131190Y-115971428D01*
X146131190Y-116161904D02*
X146035952Y-116066666D01*
X145845476Y-115971428D01*
X145559761Y-115971428D01*
X145369285Y-116066666D01*
X145274047Y-116257142D01*
X145274047Y-117304761D01*
X145274047Y-116257142D02*
X145178809Y-116066666D01*
X144988333Y-115971428D01*
X144702619Y-115971428D01*
X144512142Y-116066666D01*
X144416904Y-116257142D01*
X144416904Y-117304761D01*
X143178809Y-117304761D02*
X143369285Y-117209523D01*
X143464523Y-117114285D01*
X143559761Y-116923809D01*
X143559761Y-116352380D01*
X143464523Y-116161904D01*
X143369285Y-116066666D01*
X143178809Y-115971428D01*
X142893095Y-115971428D01*
X142702619Y-116066666D01*
X142607380Y-116161904D01*
X142512142Y-116352380D01*
X142512142Y-116923809D01*
X142607380Y-117114285D01*
X142702619Y-117209523D01*
X142893095Y-117304761D01*
X143178809Y-117304761D01*
X140797857Y-117304761D02*
X140797857Y-115304761D01*
X140797857Y-117209523D02*
X140988333Y-117304761D01*
X141369285Y-117304761D01*
X141559761Y-117209523D01*
X141655000Y-117114285D01*
X141750238Y-116923809D01*
X141750238Y-116352380D01*
X141655000Y-116161904D01*
X141559761Y-116066666D01*
X141369285Y-115971428D01*
X140988333Y-115971428D01*
X140797857Y-116066666D01*
X138988333Y-117304761D02*
X138988333Y-115304761D01*
X138988333Y-117209523D02*
X139178809Y-117304761D01*
X139559761Y-117304761D01*
X139750238Y-117209523D01*
X139845476Y-117114285D01*
X139940714Y-116923809D01*
X139940714Y-116352380D01*
X139845476Y-116161904D01*
X139750238Y-116066666D01*
X139559761Y-115971428D01*
X139178809Y-115971428D01*
X138988333Y-116066666D01*
X137274047Y-117209523D02*
X137464523Y-117304761D01*
X137845476Y-117304761D01*
X138035952Y-117209523D01*
X138131190Y-117019047D01*
X138131190Y-116257142D01*
X138035952Y-116066666D01*
X137845476Y-115971428D01*
X137464523Y-115971428D01*
X137274047Y-116066666D01*
X137178809Y-116257142D01*
X137178809Y-116447619D01*
X138131190Y-116638095D01*
X136512142Y-115971428D02*
X136035952Y-117304761D01*
X135559761Y-115971428D01*
X134797857Y-117304761D02*
X134797857Y-115971428D01*
X134797857Y-115304761D02*
X134893095Y-115400000D01*
X134797857Y-115495238D01*
X134702619Y-115400000D01*
X134797857Y-115304761D01*
X134797857Y-115495238D01*
X132988333Y-117209523D02*
X133178809Y-117304761D01*
X133559761Y-117304761D01*
X133750238Y-117209523D01*
X133845476Y-117114285D01*
X133940714Y-116923809D01*
X133940714Y-116352380D01*
X133845476Y-116161904D01*
X133750238Y-116066666D01*
X133559761Y-115971428D01*
X133178809Y-115971428D01*
X132988333Y-116066666D01*
X131369285Y-117209523D02*
X131559761Y-117304761D01*
X131940714Y-117304761D01*
X132131190Y-117209523D01*
X132226428Y-117019047D01*
X132226428Y-116257142D01*
X132131190Y-116066666D01*
X131940714Y-115971428D01*
X131559761Y-115971428D01*
X131369285Y-116066666D01*
X131274047Y-116257142D01*
X131274047Y-116447619D01*
X132226428Y-116638095D01*
X130512142Y-117209523D02*
X130321666Y-117304761D01*
X129940714Y-117304761D01*
X129750238Y-117209523D01*
X129655000Y-117019047D01*
X129655000Y-116923809D01*
X129750238Y-116733333D01*
X129940714Y-116638095D01*
X130226428Y-116638095D01*
X130416904Y-116542857D01*
X130512142Y-116352380D01*
X130512142Y-116257142D01*
X130416904Y-116066666D01*
X130226428Y-115971428D01*
X129940714Y-115971428D01*
X129750238Y-116066666D01*
X128797857Y-117114285D02*
X128702619Y-117209523D01*
X128797857Y-117304761D01*
X128893095Y-117209523D01*
X128797857Y-117114285D01*
X128797857Y-117304761D01*
X126988333Y-117209523D02*
X127178809Y-117304761D01*
X127559761Y-117304761D01*
X127750238Y-117209523D01*
X127845476Y-117114285D01*
X127940714Y-116923809D01*
X127940714Y-116352380D01*
X127845476Y-116161904D01*
X127750238Y-116066666D01*
X127559761Y-115971428D01*
X127178809Y-115971428D01*
X126988333Y-116066666D01*
X125845476Y-117304761D02*
X126035952Y-117209523D01*
X126131190Y-117114285D01*
X126226428Y-116923809D01*
X126226428Y-116352380D01*
X126131190Y-116161904D01*
X126035952Y-116066666D01*
X125845476Y-115971428D01*
X125559761Y-115971428D01*
X125369285Y-116066666D01*
X125274047Y-116161904D01*
X125178809Y-116352380D01*
X125178809Y-116923809D01*
X125274047Y-117114285D01*
X125369285Y-117209523D01*
X125559761Y-117304761D01*
X125845476Y-117304761D01*
X124321666Y-117304761D02*
X124321666Y-115971428D01*
X124321666Y-116161904D02*
X124226428Y-116066666D01*
X124035952Y-115971428D01*
X123750238Y-115971428D01*
X123559761Y-116066666D01*
X123464523Y-116257142D01*
X123464523Y-117304761D01*
X123464523Y-116257142D02*
X123369285Y-116066666D01*
X123178809Y-115971428D01*
X122893095Y-115971428D01*
X122702619Y-116066666D01*
X122607380Y-116257142D01*
X122607380Y-117304761D01*
X156607380Y-124571428D02*
X157083571Y-124571428D01*
X157083571Y-121714285D01*
X156607380Y-121714285D01*
X155845476Y-123904761D02*
X155845476Y-121904761D01*
X155369285Y-121904761D01*
X155083571Y-122000000D01*
X154893095Y-122190476D01*
X154797857Y-122380952D01*
X154702619Y-122761904D01*
X154702619Y-123047619D01*
X154797857Y-123428571D01*
X154893095Y-123619047D01*
X155083571Y-123809523D01*
X155369285Y-123904761D01*
X155845476Y-123904761D01*
X154035952Y-121904761D02*
X153559761Y-123904761D01*
X153178809Y-122476190D01*
X152797857Y-123904761D01*
X152321666Y-121904761D01*
X151559761Y-123142857D02*
X150035952Y-123142857D01*
X149083571Y-122857142D02*
X148416904Y-122857142D01*
X148131190Y-123904761D02*
X149083571Y-123904761D01*
X149083571Y-121904761D01*
X148131190Y-121904761D01*
X146321666Y-123904761D02*
X147274047Y-123904761D01*
X147274047Y-121904761D01*
X145655000Y-122857142D02*
X144988333Y-122857142D01*
X144702619Y-123904761D02*
X145655000Y-123904761D01*
X145655000Y-121904761D01*
X144702619Y-121904761D01*
X143845476Y-123142857D02*
X142321666Y-123142857D01*
X140988333Y-121904761D02*
X140797857Y-121904761D01*
X140607380Y-122000000D01*
X140512142Y-122095238D01*
X140416904Y-122285714D01*
X140321666Y-122666666D01*
X140321666Y-123142857D01*
X140416904Y-123523809D01*
X140512142Y-123714285D01*
X140607380Y-123809523D01*
X140797857Y-123904761D01*
X140988333Y-123904761D01*
X141178809Y-123809523D01*
X141274047Y-123714285D01*
X141369285Y-123523809D01*
X141464523Y-123142857D01*
X141464523Y-122666666D01*
X141369285Y-122285714D01*
X141274047Y-122095238D01*
X141178809Y-122000000D01*
X140988333Y-121904761D01*
X139083571Y-121904761D02*
X138893095Y-121904761D01*
X138702619Y-122000000D01*
X138607380Y-122095238D01*
X138512142Y-122285714D01*
X138416904Y-122666666D01*
X138416904Y-123142857D01*
X138512142Y-123523809D01*
X138607380Y-123714285D01*
X138702619Y-123809523D01*
X138893095Y-123904761D01*
X139083571Y-123904761D01*
X139274047Y-123809523D01*
X139369285Y-123714285D01*
X139464523Y-123523809D01*
X139559761Y-123142857D01*
X139559761Y-122666666D01*
X139464523Y-122285714D01*
X139369285Y-122095238D01*
X139274047Y-122000000D01*
X139083571Y-121904761D01*
X136512142Y-123904761D02*
X137655000Y-123904761D01*
X137083571Y-123904761D02*
X137083571Y-121904761D01*
X137274047Y-122190476D01*
X137464523Y-122380952D01*
X137655000Y-122476190D01*
X135845476Y-124571428D02*
X135369285Y-124571428D01*
X135369285Y-121714285D01*
X135845476Y-121714285D01*
X157178809Y-127204761D02*
X157178809Y-125204761D01*
X156512142Y-126633333D01*
X155845476Y-125204761D01*
X155845476Y-127204761D01*
X154512142Y-125204761D02*
X154131190Y-125204761D01*
X153940714Y-125300000D01*
X153750238Y-125490476D01*
X153655000Y-125871428D01*
X153655000Y-126538095D01*
X153750238Y-126919047D01*
X153940714Y-127109523D01*
X154131190Y-127204761D01*
X154512142Y-127204761D01*
X154702619Y-127109523D01*
X154893095Y-126919047D01*
X154988333Y-126538095D01*
X154988333Y-125871428D01*
X154893095Y-125490476D01*
X154702619Y-125300000D01*
X154512142Y-125204761D01*
X152797857Y-127204761D02*
X152797857Y-125204761D01*
X152321666Y-125204761D01*
X152035952Y-125300000D01*
X151845476Y-125490476D01*
X151750238Y-125680952D01*
X151655000Y-126061904D01*
X151655000Y-126347619D01*
X151750238Y-126728571D01*
X151845476Y-126919047D01*
X152035952Y-127109523D01*
X152321666Y-127204761D01*
X152797857Y-127204761D01*
X149274047Y-127204761D02*
X149274047Y-125204761D01*
X148797857Y-125204761D01*
X148512142Y-125300000D01*
X148321666Y-125490476D01*
X148226428Y-125680952D01*
X148131190Y-126061904D01*
X148131190Y-126347619D01*
X148226428Y-126728571D01*
X148321666Y-126919047D01*
X148512142Y-127109523D01*
X148797857Y-127204761D01*
X149274047Y-127204761D01*
X147464523Y-125871428D02*
X147083571Y-127204761D01*
X146702619Y-126252380D01*
X146321666Y-127204761D01*
X145940714Y-125871428D01*
X144321666Y-127204761D02*
X144321666Y-126157142D01*
X144416904Y-125966666D01*
X144607380Y-125871428D01*
X144988333Y-125871428D01*
X145178809Y-125966666D01*
X144321666Y-127109523D02*
X144512142Y-127204761D01*
X144988333Y-127204761D01*
X145178809Y-127109523D01*
X145274047Y-126919047D01*
X145274047Y-126728571D01*
X145178809Y-126538095D01*
X144988333Y-126442857D01*
X144512142Y-126442857D01*
X144321666Y-126347619D01*
X143369285Y-127204761D02*
X143369285Y-125871428D01*
X143369285Y-126252380D02*
X143274047Y-126061904D01*
X143178809Y-125966666D01*
X142988333Y-125871428D01*
X142797857Y-125871428D01*
X142416904Y-125871428D02*
X141655000Y-125871428D01*
X142131190Y-127204761D02*
X142131190Y-125490476D01*
X142035952Y-125300000D01*
X141845476Y-125204761D01*
X141655000Y-125204761D01*
X139464523Y-126442857D02*
X137940714Y-126442857D01*
X135464523Y-127204761D02*
X135464523Y-125204761D01*
X134797857Y-126633333D01*
X134131190Y-125204761D01*
X134131190Y-127204761D01*
X132321666Y-127204761D02*
X132321666Y-126157142D01*
X132416904Y-125966666D01*
X132607380Y-125871428D01*
X132988333Y-125871428D01*
X133178809Y-125966666D01*
X132321666Y-127109523D02*
X132512142Y-127204761D01*
X132988333Y-127204761D01*
X133178809Y-127109523D01*
X133274047Y-126919047D01*
X133274047Y-126728571D01*
X133178809Y-126538095D01*
X132988333Y-126442857D01*
X132512142Y-126442857D01*
X132321666Y-126347619D01*
X131369285Y-127204761D02*
X131369285Y-125871428D01*
X131369285Y-125204761D02*
X131464523Y-125300000D01*
X131369285Y-125395238D01*
X131274047Y-125300000D01*
X131369285Y-125204761D01*
X131369285Y-125395238D01*
X130416904Y-125871428D02*
X130416904Y-127204761D01*
X130416904Y-126061904D02*
X130321666Y-125966666D01*
X130131190Y-125871428D01*
X129845476Y-125871428D01*
X129655000Y-125966666D01*
X129559761Y-126157142D01*
X129559761Y-127204761D01*
X126416904Y-126157142D02*
X126131190Y-126252380D01*
X126035952Y-126347619D01*
X125940714Y-126538095D01*
X125940714Y-126823809D01*
X126035952Y-127014285D01*
X126131190Y-127109523D01*
X126321666Y-127204761D01*
X127083571Y-127204761D01*
X127083571Y-125204761D01*
X126416904Y-125204761D01*
X126226428Y-125300000D01*
X126131190Y-125395238D01*
X126035952Y-125585714D01*
X126035952Y-125776190D01*
X126131190Y-125966666D01*
X126226428Y-126061904D01*
X126416904Y-126157142D01*
X127083571Y-126157142D01*
X124797857Y-127204761D02*
X124988333Y-127109523D01*
X125083571Y-127014285D01*
X125178809Y-126823809D01*
X125178809Y-126252380D01*
X125083571Y-126061904D01*
X124988333Y-125966666D01*
X124797857Y-125871428D01*
X124512142Y-125871428D01*
X124321666Y-125966666D01*
X124226428Y-126061904D01*
X124131190Y-126252380D01*
X124131190Y-126823809D01*
X124226428Y-127014285D01*
X124321666Y-127109523D01*
X124512142Y-127204761D01*
X124797857Y-127204761D01*
X122416904Y-127204761D02*
X122416904Y-126157142D01*
X122512142Y-125966666D01*
X122702619Y-125871428D01*
X123083571Y-125871428D01*
X123274047Y-125966666D01*
X122416904Y-127109523D02*
X122607380Y-127204761D01*
X123083571Y-127204761D01*
X123274047Y-127109523D01*
X123369285Y-126919047D01*
X123369285Y-126728571D01*
X123274047Y-126538095D01*
X123083571Y-126442857D01*
X122607380Y-126442857D01*
X122416904Y-126347619D01*
X121464523Y-127204761D02*
X121464523Y-125871428D01*
X121464523Y-126252380D02*
X121369285Y-126061904D01*
X121274047Y-125966666D01*
X121083571Y-125871428D01*
X120893095Y-125871428D01*
X119369285Y-127204761D02*
X119369285Y-125204761D01*
X119369285Y-127109523D02*
X119559761Y-127204761D01*
X119940714Y-127204761D01*
X120131190Y-127109523D01*
X120226428Y-127014285D01*
X120321666Y-126823809D01*
X120321666Y-126252380D01*
X120226428Y-126061904D01*
X120131190Y-125966666D01*
X119940714Y-125871428D01*
X119559761Y-125871428D01*
X119369285Y-125966666D01*
X156035952Y-130504761D02*
X156702619Y-129552380D01*
X157178809Y-130504761D02*
X157178809Y-128504761D01*
X156416904Y-128504761D01*
X156226428Y-128600000D01*
X156131190Y-128695238D01*
X156035952Y-128885714D01*
X156035952Y-129171428D01*
X156131190Y-129361904D01*
X156226428Y-129457142D01*
X156416904Y-129552380D01*
X157178809Y-129552380D01*
X154416904Y-130409523D02*
X154607380Y-130504761D01*
X154988333Y-130504761D01*
X155178809Y-130409523D01*
X155274047Y-130219047D01*
X155274047Y-129457142D01*
X155178809Y-129266666D01*
X154988333Y-129171428D01*
X154607380Y-129171428D01*
X154416904Y-129266666D01*
X154321666Y-129457142D01*
X154321666Y-129647619D01*
X155274047Y-129838095D01*
X153655000Y-129171428D02*
X153178809Y-130504761D01*
X152702619Y-129171428D01*
X151940714Y-130314285D02*
X151845476Y-130409523D01*
X151940714Y-130504761D01*
X152035952Y-130409523D01*
X151940714Y-130314285D01*
X151940714Y-130504761D01*
X150988333Y-130314285D02*
X150893095Y-130409523D01*
X150988333Y-130504761D01*
X151083571Y-130409523D01*
X150988333Y-130314285D01*
X150988333Y-130504761D01*
X150988333Y-129266666D02*
X150893095Y-129361904D01*
X150988333Y-129457142D01*
X151083571Y-129361904D01*
X150988333Y-129266666D01*
X150988333Y-129457142D01*
X148607380Y-128695238D02*
X148512142Y-128600000D01*
X148321666Y-128504761D01*
X147845476Y-128504761D01*
X147655000Y-128600000D01*
X147559761Y-128695238D01*
X147464523Y-128885714D01*
X147464523Y-129076190D01*
X147559761Y-129361904D01*
X148702619Y-130504761D01*
X147464523Y-130504761D01*
X146226428Y-128504761D02*
X146035952Y-128504761D01*
X145845476Y-128600000D01*
X145750238Y-128695238D01*
X145655000Y-128885714D01*
X145559761Y-129266666D01*
X145559761Y-129742857D01*
X145655000Y-130123809D01*
X145750238Y-130314285D01*
X145845476Y-130409523D01*
X146035952Y-130504761D01*
X146226428Y-130504761D01*
X146416904Y-130409523D01*
X146512142Y-130314285D01*
X146607380Y-130123809D01*
X146702619Y-129742857D01*
X146702619Y-129266666D01*
X146607380Y-128885714D01*
X146512142Y-128695238D01*
X146416904Y-128600000D01*
X146226428Y-128504761D01*
X144797857Y-128695238D02*
X144702619Y-128600000D01*
X144512142Y-128504761D01*
X144035952Y-128504761D01*
X143845476Y-128600000D01*
X143750238Y-128695238D01*
X143655000Y-128885714D01*
X143655000Y-129076190D01*
X143750238Y-129361904D01*
X144893095Y-130504761D01*
X143655000Y-130504761D01*
X142416904Y-128504761D02*
X142226428Y-128504761D01*
X142035952Y-128600000D01*
X141940714Y-128695238D01*
X141845476Y-128885714D01*
X141750238Y-129266666D01*
X141750238Y-129742857D01*
X141845476Y-130123809D01*
X141940714Y-130314285D01*
X142035952Y-130409523D01*
X142226428Y-130504761D01*
X142416904Y-130504761D01*
X142607380Y-130409523D01*
X142702619Y-130314285D01*
X142797857Y-130123809D01*
X142893095Y-129742857D01*
X142893095Y-129266666D01*
X142797857Y-128885714D01*
X142702619Y-128695238D01*
X142607380Y-128600000D01*
X142416904Y-128504761D01*
X140893095Y-130314285D02*
X140797857Y-130409523D01*
X140893095Y-130504761D01*
X140988333Y-130409523D01*
X140893095Y-130314285D01*
X140893095Y-130504761D01*
X139559761Y-128504761D02*
X139369285Y-128504761D01*
X139178809Y-128600000D01*
X139083571Y-128695238D01*
X138988333Y-128885714D01*
X138893095Y-129266666D01*
X138893095Y-129742857D01*
X138988333Y-130123809D01*
X139083571Y-130314285D01*
X139178809Y-130409523D01*
X139369285Y-130504761D01*
X139559761Y-130504761D01*
X139750238Y-130409523D01*
X139845476Y-130314285D01*
X139940714Y-130123809D01*
X140035952Y-129742857D01*
X140035952Y-129266666D01*
X139940714Y-128885714D01*
X139845476Y-128695238D01*
X139750238Y-128600000D01*
X139559761Y-128504761D01*
X138226428Y-128504761D02*
X136893095Y-128504761D01*
X137750238Y-130504761D01*
X136131190Y-130314285D02*
X136035952Y-130409523D01*
X136131190Y-130504761D01*
X136226428Y-130409523D01*
X136131190Y-130314285D01*
X136131190Y-130504761D01*
X134797857Y-128504761D02*
X134607380Y-128504761D01*
X134416904Y-128600000D01*
X134321666Y-128695238D01*
X134226428Y-128885714D01*
X134131190Y-129266666D01*
X134131190Y-129742857D01*
X134226428Y-130123809D01*
X134321666Y-130314285D01*
X134416904Y-130409523D01*
X134607380Y-130504761D01*
X134797857Y-130504761D01*
X134988333Y-130409523D01*
X135083571Y-130314285D01*
X135178809Y-130123809D01*
X135274047Y-129742857D01*
X135274047Y-129266666D01*
X135178809Y-128885714D01*
X135083571Y-128695238D01*
X134988333Y-128600000D01*
X134797857Y-128504761D01*
X133464523Y-128504761D02*
X132131190Y-128504761D01*
X132988333Y-130504761D01*
D12*
X86740076Y-70327980D02*
X87073409Y-69851790D01*
X87311504Y-70327980D02*
X87311504Y-69327980D01*
X86930552Y-69327980D01*
X86835314Y-69375600D01*
X86787695Y-69423219D01*
X86740076Y-69518457D01*
X86740076Y-69661314D01*
X86787695Y-69756552D01*
X86835314Y-69804171D01*
X86930552Y-69851790D01*
X87311504Y-69851790D01*
X85930552Y-70280361D02*
X86025790Y-70327980D01*
X86216266Y-70327980D01*
X86311504Y-70280361D01*
X86359123Y-70185123D01*
X86359123Y-69804171D01*
X86311504Y-69708933D01*
X86216266Y-69661314D01*
X86025790Y-69661314D01*
X85930552Y-69708933D01*
X85882933Y-69804171D01*
X85882933Y-69899409D01*
X86359123Y-69994647D01*
X85025790Y-70280361D02*
X85121028Y-70327980D01*
X85311504Y-70327980D01*
X85406742Y-70280361D01*
X85454361Y-70232742D01*
X85501980Y-70137504D01*
X85501980Y-69851790D01*
X85454361Y-69756552D01*
X85406742Y-69708933D01*
X85311504Y-69661314D01*
X85121028Y-69661314D01*
X85025790Y-69708933D01*
X84454361Y-70327980D02*
X84549600Y-70280361D01*
X84597219Y-70232742D01*
X84644838Y-70137504D01*
X84644838Y-69851790D01*
X84597219Y-69756552D01*
X84549600Y-69708933D01*
X84454361Y-69661314D01*
X84311504Y-69661314D01*
X84216266Y-69708933D01*
X84168647Y-69756552D01*
X84121028Y-69851790D01*
X84121028Y-70137504D01*
X84168647Y-70232742D01*
X84216266Y-70280361D01*
X84311504Y-70327980D01*
X84454361Y-70327980D01*
X83787695Y-69661314D02*
X83549600Y-70327980D01*
X83311504Y-69661314D01*
X82549600Y-70280361D02*
X82644838Y-70327980D01*
X82835314Y-70327980D01*
X82930552Y-70280361D01*
X82978171Y-70185123D01*
X82978171Y-69804171D01*
X82930552Y-69708933D01*
X82835314Y-69661314D01*
X82644838Y-69661314D01*
X82549600Y-69708933D01*
X82501980Y-69804171D01*
X82501980Y-69899409D01*
X82978171Y-69994647D01*
X82073409Y-70327980D02*
X82073409Y-69661314D01*
X82073409Y-69851790D02*
X82025790Y-69756552D01*
X81978171Y-69708933D01*
X81882933Y-69661314D01*
X81787695Y-69661314D01*
X81549600Y-69661314D02*
X81311504Y-70327980D01*
X81073409Y-69661314D02*
X81311504Y-70327980D01*
X81406742Y-70566076D01*
X81454361Y-70613695D01*
X81549600Y-70661314D01*
D11*
X201740000Y-130232142D02*
X201811428Y-130375000D01*
X201811428Y-130589285D01*
X201740000Y-130803571D01*
X201597142Y-130946428D01*
X201454285Y-131017857D01*
X201168571Y-131089285D01*
X200954285Y-131089285D01*
X200668571Y-131017857D01*
X200525714Y-130946428D01*
X200382857Y-130803571D01*
X200311428Y-130589285D01*
X200311428Y-130446428D01*
X200382857Y-130232142D01*
X200454285Y-130160714D01*
X200954285Y-130160714D01*
X200954285Y-130446428D01*
X200311428Y-129517857D02*
X201811428Y-129517857D01*
X200311428Y-128660714D01*
X201811428Y-128660714D01*
X200311428Y-127946428D02*
X201811428Y-127946428D01*
X201811428Y-127589285D01*
X201740000Y-127375000D01*
X201597142Y-127232142D01*
X201454285Y-127160714D01*
X201168571Y-127089285D01*
X200954285Y-127089285D01*
X200668571Y-127160714D01*
X200525714Y-127232142D01*
X200382857Y-127375000D01*
X200311428Y-127589285D01*
X200311428Y-127946428D01*
X197761428Y-130160714D02*
X198475714Y-130660714D01*
X197761428Y-131017857D02*
X199261428Y-131017857D01*
X199261428Y-130446428D01*
X199190000Y-130303571D01*
X199118571Y-130232142D01*
X198975714Y-130160714D01*
X198761428Y-130160714D01*
X198618571Y-130232142D01*
X198547142Y-130303571D01*
X198475714Y-130446428D01*
X198475714Y-131017857D01*
X199261428Y-129660714D02*
X197761428Y-128660714D01*
X199261428Y-128660714D02*
X197761428Y-129660714D01*
X196711428Y-131232142D02*
X196711428Y-130375000D01*
X195211428Y-130803571D02*
X196711428Y-130803571D01*
X196711428Y-130017857D02*
X195211428Y-129017857D01*
X196711428Y-129017857D02*
X195211428Y-130017857D01*
D10*
X87882800Y-78808400D02*
X87527200Y-78808400D01*
X87882800Y-68597600D02*
X87882800Y-78808400D01*
X80821600Y-78808400D02*
X87578000Y-78808400D01*
X87833200Y-68572000D02*
X80772000Y-68572000D01*
D13*
G36*
X90851579Y-102525876D02*
G01*
X90851600Y-102743199D01*
X90851581Y-103054394D01*
X90851856Y-103318894D01*
X90852921Y-103540804D01*
X90855276Y-103724231D01*
X90859417Y-103873279D01*
X90865841Y-103992052D01*
X90875047Y-104084658D01*
X90887533Y-104155199D01*
X90903795Y-104207783D01*
X90924331Y-104246513D01*
X90949639Y-104275495D01*
X90980217Y-104298834D01*
X91016562Y-104320636D01*
X91044745Y-104336632D01*
X91090945Y-104360314D01*
X91139201Y-104376335D01*
X91200468Y-104386128D01*
X91285702Y-104391127D01*
X91405858Y-104392764D01*
X91473900Y-104392787D01*
X91652816Y-104389214D01*
X91785075Y-104379294D01*
X91868987Y-104363169D01*
X91881560Y-104358472D01*
X91972923Y-104297859D01*
X92051443Y-104209222D01*
X92101675Y-104111307D01*
X92109035Y-104082302D01*
X92111761Y-104041560D01*
X92114042Y-103955122D01*
X92115849Y-103828092D01*
X92117157Y-103665571D01*
X92117938Y-103472663D01*
X92118166Y-103254470D01*
X92117815Y-103016094D01*
X92116857Y-102762639D01*
X92116396Y-102675191D01*
X92114684Y-102381776D01*
X92113025Y-102134881D01*
X92111235Y-101930226D01*
X92109130Y-101763532D01*
X92106526Y-101630519D01*
X92103241Y-101526906D01*
X92099090Y-101448416D01*
X92093890Y-101390767D01*
X92087457Y-101349680D01*
X92079608Y-101320876D01*
X92070159Y-101300075D01*
X92058927Y-101282997D01*
X92056531Y-101279760D01*
X92004706Y-101214964D01*
X91954708Y-101168320D01*
X91896865Y-101136647D01*
X91821508Y-101116764D01*
X91718964Y-101105488D01*
X91579563Y-101099640D01*
X91503889Y-101097962D01*
X91359661Y-101095746D01*
X91256043Y-101096316D01*
X91182874Y-101100796D01*
X91129992Y-101110311D01*
X91087234Y-101125984D01*
X91044745Y-101148762D01*
X91004194Y-101172263D01*
X90969752Y-101194428D01*
X90940919Y-101219369D01*
X90917198Y-101251197D01*
X90898091Y-101294023D01*
X90883100Y-101351958D01*
X90871727Y-101429113D01*
X90863474Y-101529598D01*
X90857843Y-101657526D01*
X90854336Y-101817006D01*
X90852455Y-102012151D01*
X90851702Y-102247071D01*
X90851579Y-102525876D01*
G37*
X90851579Y-102525876D02*
X90851600Y-102743199D01*
X90851581Y-103054394D01*
X90851856Y-103318894D01*
X90852921Y-103540804D01*
X90855276Y-103724231D01*
X90859417Y-103873279D01*
X90865841Y-103992052D01*
X90875047Y-104084658D01*
X90887533Y-104155199D01*
X90903795Y-104207783D01*
X90924331Y-104246513D01*
X90949639Y-104275495D01*
X90980217Y-104298834D01*
X91016562Y-104320636D01*
X91044745Y-104336632D01*
X91090945Y-104360314D01*
X91139201Y-104376335D01*
X91200468Y-104386128D01*
X91285702Y-104391127D01*
X91405858Y-104392764D01*
X91473900Y-104392787D01*
X91652816Y-104389214D01*
X91785075Y-104379294D01*
X91868987Y-104363169D01*
X91881560Y-104358472D01*
X91972923Y-104297859D01*
X92051443Y-104209222D01*
X92101675Y-104111307D01*
X92109035Y-104082302D01*
X92111761Y-104041560D01*
X92114042Y-103955122D01*
X92115849Y-103828092D01*
X92117157Y-103665571D01*
X92117938Y-103472663D01*
X92118166Y-103254470D01*
X92117815Y-103016094D01*
X92116857Y-102762639D01*
X92116396Y-102675191D01*
X92114684Y-102381776D01*
X92113025Y-102134881D01*
X92111235Y-101930226D01*
X92109130Y-101763532D01*
X92106526Y-101630519D01*
X92103241Y-101526906D01*
X92099090Y-101448416D01*
X92093890Y-101390767D01*
X92087457Y-101349680D01*
X92079608Y-101320876D01*
X92070159Y-101300075D01*
X92058927Y-101282997D01*
X92056531Y-101279760D01*
X92004706Y-101214964D01*
X91954708Y-101168320D01*
X91896865Y-101136647D01*
X91821508Y-101116764D01*
X91718964Y-101105488D01*
X91579563Y-101099640D01*
X91503889Y-101097962D01*
X91359661Y-101095746D01*
X91256043Y-101096316D01*
X91182874Y-101100796D01*
X91129992Y-101110311D01*
X91087234Y-101125984D01*
X91044745Y-101148762D01*
X91004194Y-101172263D01*
X90969752Y-101194428D01*
X90940919Y-101219369D01*
X90917198Y-101251197D01*
X90898091Y-101294023D01*
X90883100Y-101351958D01*
X90871727Y-101429113D01*
X90863474Y-101529598D01*
X90857843Y-101657526D01*
X90854336Y-101817006D01*
X90852455Y-102012151D01*
X90851702Y-102247071D01*
X90851579Y-102525876D01*
G36*
X87655012Y-96388688D02*
G01*
X87656294Y-96743499D01*
X87656891Y-96850400D01*
X87658794Y-97167482D01*
X87660733Y-97438143D01*
X87663164Y-97666760D01*
X87666541Y-97857711D01*
X87671320Y-98015371D01*
X87677955Y-98144119D01*
X87686904Y-98248331D01*
X87698619Y-98332384D01*
X87713558Y-98400657D01*
X87732175Y-98457525D01*
X87754926Y-98507365D01*
X87782265Y-98554556D01*
X87814648Y-98603474D01*
X87843609Y-98645510D01*
X87976428Y-98794617D01*
X88151798Y-98920013D01*
X88235495Y-98958973D01*
X88235495Y-96922761D01*
X88254146Y-96844729D01*
X88300663Y-96760148D01*
X88361220Y-96691485D01*
X88390268Y-96671279D01*
X88477001Y-96646792D01*
X88581491Y-96646509D01*
X88677496Y-96669245D01*
X88709494Y-96685712D01*
X88784604Y-96763074D01*
X88826284Y-96865967D01*
X88828496Y-96977137D01*
X88821626Y-97006057D01*
X88766576Y-97114009D01*
X88682215Y-97188887D01*
X88579162Y-97226257D01*
X88468033Y-97221684D01*
X88385780Y-97188066D01*
X88311641Y-97119734D01*
X88257164Y-97024244D01*
X88235503Y-96924819D01*
X88235495Y-96922761D01*
X88235495Y-98958973D01*
X88366460Y-99019937D01*
X88617154Y-99092630D01*
X88703615Y-99109705D01*
X88762440Y-99115320D01*
X88870837Y-99120245D01*
X89027585Y-99124463D01*
X89231462Y-99127961D01*
X89481244Y-99130725D01*
X89775710Y-99132738D01*
X90113637Y-99133988D01*
X90493802Y-99134458D01*
X90773715Y-99134329D01*
X91146629Y-99133773D01*
X91472173Y-99132923D01*
X91753779Y-99131714D01*
X91994878Y-99130084D01*
X92198899Y-99127969D01*
X92369273Y-99125305D01*
X92509432Y-99122029D01*
X92622804Y-99118077D01*
X92712822Y-99113387D01*
X92782915Y-99107895D01*
X92836515Y-99101537D01*
X92870900Y-99095564D01*
X93104025Y-99028272D01*
X93312833Y-98929651D01*
X93491028Y-98804027D01*
X93632311Y-98655724D01*
X93719789Y-98512705D01*
X93741325Y-98464854D01*
X93759706Y-98417147D01*
X93775158Y-98365361D01*
X93787906Y-98305274D01*
X93798176Y-98232664D01*
X93806192Y-98143308D01*
X93812180Y-98032983D01*
X93816366Y-97897469D01*
X93818975Y-97732542D01*
X93820231Y-97533979D01*
X93820360Y-97297560D01*
X93819588Y-97019060D01*
X93818140Y-96694258D01*
X93818028Y-96671507D01*
X93816461Y-96359776D01*
X93814968Y-96094636D01*
X93813382Y-95871878D01*
X93811531Y-95687292D01*
X93809249Y-95536671D01*
X93806365Y-95415805D01*
X93802711Y-95320486D01*
X93798119Y-95246505D01*
X93792419Y-95189652D01*
X93785442Y-95145720D01*
X93777020Y-95110500D01*
X93766984Y-95079782D01*
X93755164Y-95049357D01*
X93752703Y-95043263D01*
X93650623Y-94857515D01*
X93506148Y-94697923D01*
X93321509Y-94566366D01*
X93098934Y-94464725D01*
X93044685Y-94446434D01*
X92906643Y-94412042D01*
X92729668Y-94382559D01*
X92525498Y-94359286D01*
X92305872Y-94343523D01*
X92082528Y-94336571D01*
X92051750Y-94336376D01*
X91867600Y-94335800D01*
X91867600Y-95059700D01*
X91868083Y-95280270D01*
X91869659Y-95454450D01*
X91872521Y-95586643D01*
X91876863Y-95681252D01*
X91882877Y-95742678D01*
X91890757Y-95775324D01*
X91899350Y-95783741D01*
X92016986Y-95806368D01*
X92139187Y-95866829D01*
X92252456Y-95955479D01*
X92343293Y-96062672D01*
X92379013Y-96126500D01*
X92392800Y-96161299D01*
X92403578Y-96202248D01*
X92411707Y-96255700D01*
X92417549Y-96328008D01*
X92421466Y-96425526D01*
X92423820Y-96554608D01*
X92424972Y-96721607D01*
X92425285Y-96932878D01*
X92425285Y-96939300D01*
X92424990Y-97151863D01*
X92423866Y-97319982D01*
X92421549Y-97450010D01*
X92417680Y-97548303D01*
X92411894Y-97621212D01*
X92403832Y-97675092D01*
X92393132Y-97716297D01*
X92379430Y-97751180D01*
X92379013Y-97752100D01*
X92312969Y-97856175D01*
X92218926Y-97953848D01*
X92113075Y-98030550D01*
X92028148Y-98067768D01*
X91963241Y-98078002D01*
X91858708Y-98085720D01*
X91725663Y-98090920D01*
X91575218Y-98093603D01*
X91418486Y-98093769D01*
X91266579Y-98091417D01*
X91130610Y-98086548D01*
X91021690Y-98079162D01*
X90950934Y-98069258D01*
X90945053Y-98067768D01*
X90841671Y-98019413D01*
X90736705Y-97938040D01*
X90646348Y-97838217D01*
X90594188Y-97752100D01*
X90580401Y-97717300D01*
X90569623Y-97676351D01*
X90561494Y-97622899D01*
X90555652Y-97550591D01*
X90551735Y-97453073D01*
X90549381Y-97323991D01*
X90548229Y-97156992D01*
X90547916Y-96945721D01*
X90547916Y-96939300D01*
X90548211Y-96726736D01*
X90549335Y-96558617D01*
X90551652Y-96428589D01*
X90555521Y-96330296D01*
X90561307Y-96257387D01*
X90569369Y-96203507D01*
X90580069Y-96162302D01*
X90593771Y-96127419D01*
X90594188Y-96126500D01*
X90666790Y-96013186D01*
X90769301Y-95913072D01*
X90888221Y-95835804D01*
X91010053Y-95791027D01*
X91073850Y-95783741D01*
X91083505Y-95772710D01*
X91091134Y-95736781D01*
X91096928Y-95671561D01*
X91101079Y-95572655D01*
X91103779Y-95435668D01*
X91105221Y-95256207D01*
X91105600Y-95056574D01*
X91105600Y-94329549D01*
X89943550Y-94343066D01*
X89644629Y-94346785D01*
X89391364Y-94350783D01*
X89178614Y-94355608D01*
X89001238Y-94361808D01*
X88854092Y-94369933D01*
X88732035Y-94380530D01*
X88629925Y-94394148D01*
X88542619Y-94411334D01*
X88464975Y-94432639D01*
X88391852Y-94458610D01*
X88318107Y-94489795D01*
X88243591Y-94524369D01*
X88046194Y-94641595D01*
X87890772Y-94786802D01*
X87775647Y-94962214D01*
X87699143Y-95170053D01*
X87676723Y-95275600D01*
X87669553Y-95344285D01*
X87663818Y-95458609D01*
X87659506Y-95619392D01*
X87656608Y-95827454D01*
X87655114Y-96083613D01*
X87655012Y-96388688D01*
G37*
X87655012Y-96388688D02*
X87656294Y-96743499D01*
X87656891Y-96850400D01*
X87658794Y-97167482D01*
X87660733Y-97438143D01*
X87663164Y-97666760D01*
X87666541Y-97857711D01*
X87671320Y-98015371D01*
X87677955Y-98144119D01*
X87686904Y-98248331D01*
X87698619Y-98332384D01*
X87713558Y-98400657D01*
X87732175Y-98457525D01*
X87754926Y-98507365D01*
X87782265Y-98554556D01*
X87814648Y-98603474D01*
X87843609Y-98645510D01*
X87976428Y-98794617D01*
X88151798Y-98920013D01*
X88235495Y-98958973D01*
X88235495Y-96922761D01*
X88254146Y-96844729D01*
X88300663Y-96760148D01*
X88361220Y-96691485D01*
X88390268Y-96671279D01*
X88477001Y-96646792D01*
X88581491Y-96646509D01*
X88677496Y-96669245D01*
X88709494Y-96685712D01*
X88784604Y-96763074D01*
X88826284Y-96865967D01*
X88828496Y-96977137D01*
X88821626Y-97006057D01*
X88766576Y-97114009D01*
X88682215Y-97188887D01*
X88579162Y-97226257D01*
X88468033Y-97221684D01*
X88385780Y-97188066D01*
X88311641Y-97119734D01*
X88257164Y-97024244D01*
X88235503Y-96924819D01*
X88235495Y-96922761D01*
X88235495Y-98958973D01*
X88366460Y-99019937D01*
X88617154Y-99092630D01*
X88703615Y-99109705D01*
X88762440Y-99115320D01*
X88870837Y-99120245D01*
X89027585Y-99124463D01*
X89231462Y-99127961D01*
X89481244Y-99130725D01*
X89775710Y-99132738D01*
X90113637Y-99133988D01*
X90493802Y-99134458D01*
X90773715Y-99134329D01*
X91146629Y-99133773D01*
X91472173Y-99132923D01*
X91753779Y-99131714D01*
X91994878Y-99130084D01*
X92198899Y-99127969D01*
X92369273Y-99125305D01*
X92509432Y-99122029D01*
X92622804Y-99118077D01*
X92712822Y-99113387D01*
X92782915Y-99107895D01*
X92836515Y-99101537D01*
X92870900Y-99095564D01*
X93104025Y-99028272D01*
X93312833Y-98929651D01*
X93491028Y-98804027D01*
X93632311Y-98655724D01*
X93719789Y-98512705D01*
X93741325Y-98464854D01*
X93759706Y-98417147D01*
X93775158Y-98365361D01*
X93787906Y-98305274D01*
X93798176Y-98232664D01*
X93806192Y-98143308D01*
X93812180Y-98032983D01*
X93816366Y-97897469D01*
X93818975Y-97732542D01*
X93820231Y-97533979D01*
X93820360Y-97297560D01*
X93819588Y-97019060D01*
X93818140Y-96694258D01*
X93818028Y-96671507D01*
X93816461Y-96359776D01*
X93814968Y-96094636D01*
X93813382Y-95871878D01*
X93811531Y-95687292D01*
X93809249Y-95536671D01*
X93806365Y-95415805D01*
X93802711Y-95320486D01*
X93798119Y-95246505D01*
X93792419Y-95189652D01*
X93785442Y-95145720D01*
X93777020Y-95110500D01*
X93766984Y-95079782D01*
X93755164Y-95049357D01*
X93752703Y-95043263D01*
X93650623Y-94857515D01*
X93506148Y-94697923D01*
X93321509Y-94566366D01*
X93098934Y-94464725D01*
X93044685Y-94446434D01*
X92906643Y-94412042D01*
X92729668Y-94382559D01*
X92525498Y-94359286D01*
X92305872Y-94343523D01*
X92082528Y-94336571D01*
X92051750Y-94336376D01*
X91867600Y-94335800D01*
X91867600Y-95059700D01*
X91868083Y-95280270D01*
X91869659Y-95454450D01*
X91872521Y-95586643D01*
X91876863Y-95681252D01*
X91882877Y-95742678D01*
X91890757Y-95775324D01*
X91899350Y-95783741D01*
X92016986Y-95806368D01*
X92139187Y-95866829D01*
X92252456Y-95955479D01*
X92343293Y-96062672D01*
X92379013Y-96126500D01*
X92392800Y-96161299D01*
X92403578Y-96202248D01*
X92411707Y-96255700D01*
X92417549Y-96328008D01*
X92421466Y-96425526D01*
X92423820Y-96554608D01*
X92424972Y-96721607D01*
X92425285Y-96932878D01*
X92425285Y-96939300D01*
X92424990Y-97151863D01*
X92423866Y-97319982D01*
X92421549Y-97450010D01*
X92417680Y-97548303D01*
X92411894Y-97621212D01*
X92403832Y-97675092D01*
X92393132Y-97716297D01*
X92379430Y-97751180D01*
X92379013Y-97752100D01*
X92312969Y-97856175D01*
X92218926Y-97953848D01*
X92113075Y-98030550D01*
X92028148Y-98067768D01*
X91963241Y-98078002D01*
X91858708Y-98085720D01*
X91725663Y-98090920D01*
X91575218Y-98093603D01*
X91418486Y-98093769D01*
X91266579Y-98091417D01*
X91130610Y-98086548D01*
X91021690Y-98079162D01*
X90950934Y-98069258D01*
X90945053Y-98067768D01*
X90841671Y-98019413D01*
X90736705Y-97938040D01*
X90646348Y-97838217D01*
X90594188Y-97752100D01*
X90580401Y-97717300D01*
X90569623Y-97676351D01*
X90561494Y-97622899D01*
X90555652Y-97550591D01*
X90551735Y-97453073D01*
X90549381Y-97323991D01*
X90548229Y-97156992D01*
X90547916Y-96945721D01*
X90547916Y-96939300D01*
X90548211Y-96726736D01*
X90549335Y-96558617D01*
X90551652Y-96428589D01*
X90555521Y-96330296D01*
X90561307Y-96257387D01*
X90569369Y-96203507D01*
X90580069Y-96162302D01*
X90593771Y-96127419D01*
X90594188Y-96126500D01*
X90666790Y-96013186D01*
X90769301Y-95913072D01*
X90888221Y-95835804D01*
X91010053Y-95791027D01*
X91073850Y-95783741D01*
X91083505Y-95772710D01*
X91091134Y-95736781D01*
X91096928Y-95671561D01*
X91101079Y-95572655D01*
X91103779Y-95435668D01*
X91105221Y-95256207D01*
X91105600Y-95056574D01*
X91105600Y-94329549D01*
X89943550Y-94343066D01*
X89644629Y-94346785D01*
X89391364Y-94350783D01*
X89178614Y-94355608D01*
X89001238Y-94361808D01*
X88854092Y-94369933D01*
X88732035Y-94380530D01*
X88629925Y-94394148D01*
X88542619Y-94411334D01*
X88464975Y-94432639D01*
X88391852Y-94458610D01*
X88318107Y-94489795D01*
X88243591Y-94524369D01*
X88046194Y-94641595D01*
X87890772Y-94786802D01*
X87775647Y-94962214D01*
X87699143Y-95170053D01*
X87676723Y-95275600D01*
X87669553Y-95344285D01*
X87663818Y-95458609D01*
X87659506Y-95619392D01*
X87656608Y-95827454D01*
X87655114Y-96083613D01*
X87655012Y-96388688D01*
G36*
X86790720Y-101872781D02*
G01*
X86790964Y-102159715D01*
X86792051Y-102490236D01*
X86793547Y-102825265D01*
X86795273Y-103172114D01*
X86796990Y-103471929D01*
X86798803Y-103728475D01*
X86800820Y-103945518D01*
X86803147Y-104126825D01*
X86805891Y-104276160D01*
X86809159Y-104397290D01*
X86813057Y-104493980D01*
X86817691Y-104569996D01*
X86823169Y-104629103D01*
X86829597Y-104675068D01*
X86837081Y-104711656D01*
X86845729Y-104742632D01*
X86848038Y-104749800D01*
X86949456Y-104990175D01*
X87085196Y-105196649D01*
X87257332Y-105371051D01*
X87467936Y-105515215D01*
X87719080Y-105630972D01*
X87917900Y-105695466D01*
X87959353Y-105707018D01*
X87959353Y-102000380D01*
X87960016Y-101696958D01*
X87961698Y-101443233D01*
X87964402Y-101238839D01*
X87968133Y-101083411D01*
X87972894Y-100976586D01*
X87978689Y-100917998D01*
X87980301Y-100910839D01*
X88017514Y-100835085D01*
X88079809Y-100755067D01*
X88107534Y-100727704D01*
X88138248Y-100699686D01*
X88166729Y-100674919D01*
X88196137Y-100653213D01*
X88229631Y-100634376D01*
X88270369Y-100618217D01*
X88321511Y-100604546D01*
X88386215Y-100593170D01*
X88467640Y-100583899D01*
X88568946Y-100576542D01*
X88693291Y-100570907D01*
X88843835Y-100566803D01*
X89023736Y-100564040D01*
X89236153Y-100562426D01*
X89484246Y-100561770D01*
X89771173Y-100561881D01*
X90100093Y-100562567D01*
X90474165Y-100563638D01*
X90802747Y-100564627D01*
X93124900Y-100571500D01*
X93264262Y-100647700D01*
X93371126Y-100718750D01*
X93445148Y-100801702D01*
X93467462Y-100838200D01*
X93531300Y-100952500D01*
X93538525Y-102627009D01*
X93539817Y-103016422D01*
X93540104Y-103356270D01*
X93539372Y-103647780D01*
X93537608Y-103892176D01*
X93534797Y-104090685D01*
X93530925Y-104244532D01*
X93525978Y-104354944D01*
X93519941Y-104423145D01*
X93517622Y-104437013D01*
X93469331Y-104578762D01*
X93387564Y-104689150D01*
X93268165Y-104771863D01*
X93106981Y-104830584D01*
X93061400Y-104841565D01*
X93011924Y-104846876D01*
X92916291Y-104851781D01*
X92779141Y-104856271D01*
X92605116Y-104860337D01*
X92398856Y-104863968D01*
X92165003Y-104867156D01*
X91908197Y-104869891D01*
X91633080Y-104872162D01*
X91344292Y-104873962D01*
X91046475Y-104875280D01*
X90744269Y-104876106D01*
X90442316Y-104876432D01*
X90145256Y-104876247D01*
X89857731Y-104875542D01*
X89584381Y-104874307D01*
X89329848Y-104872533D01*
X89098773Y-104870211D01*
X88895796Y-104867331D01*
X88725558Y-104863883D01*
X88592701Y-104859857D01*
X88501865Y-104855245D01*
X88462005Y-104851021D01*
X88278273Y-104798728D01*
X88136013Y-104719719D01*
X88036875Y-104615243D01*
X87968700Y-104512240D01*
X87961068Y-102757770D01*
X87959704Y-102353862D01*
X87959353Y-102000380D01*
X87959353Y-105707018D01*
X88121100Y-105752094D01*
X90648400Y-105756313D01*
X91005852Y-105756684D01*
X91351278Y-105756604D01*
X91680989Y-105756097D01*
X91991298Y-105755189D01*
X92278515Y-105753906D01*
X92538953Y-105752271D01*
X92768921Y-105750311D01*
X92964733Y-105748049D01*
X93122700Y-105745513D01*
X93239132Y-105742725D01*
X93310341Y-105739713D01*
X93328100Y-105738091D01*
X93609748Y-105678198D01*
X93866485Y-105586599D01*
X94093595Y-105466190D01*
X94286358Y-105319865D01*
X94440056Y-105150517D01*
X94532165Y-104999497D01*
X94560459Y-104940991D01*
X94585055Y-104886017D01*
X94606213Y-104830716D01*
X94624191Y-104771232D01*
X94639248Y-104703705D01*
X94651644Y-104624278D01*
X94661635Y-104529094D01*
X94669483Y-104414295D01*
X94675445Y-104276022D01*
X94679781Y-104110418D01*
X94682748Y-103913626D01*
X94684607Y-103681787D01*
X94685616Y-103411044D01*
X94686033Y-103097538D01*
X94686118Y-102737413D01*
X94686118Y-102705100D01*
X94685962Y-102348603D01*
X94685447Y-102039251D01*
X94684503Y-101773389D01*
X94683060Y-101547362D01*
X94681047Y-101357515D01*
X94678394Y-101200194D01*
X94675031Y-101071743D01*
X94670888Y-100968509D01*
X94665895Y-100886836D01*
X94659981Y-100823070D01*
X94653076Y-100773556D01*
X94648550Y-100749743D01*
X94573867Y-100507865D01*
X94458354Y-100295362D01*
X94301729Y-100111983D01*
X94103706Y-99957481D01*
X93864003Y-99831608D01*
X93582334Y-99734114D01*
X93450020Y-99701250D01*
X93414103Y-99693956D01*
X93373648Y-99687505D01*
X93325495Y-99681847D01*
X93266483Y-99676930D01*
X93193452Y-99672703D01*
X93103243Y-99669114D01*
X92992693Y-99666114D01*
X92858643Y-99663650D01*
X92697932Y-99661671D01*
X92507400Y-99660126D01*
X92283887Y-99658964D01*
X92024232Y-99658134D01*
X91725274Y-99657584D01*
X91383854Y-99657263D01*
X90996810Y-99657121D01*
X90724600Y-99657100D01*
X88197300Y-99657100D01*
X87959927Y-99716935D01*
X87682353Y-99805851D01*
X87439189Y-99923055D01*
X87233494Y-100066377D01*
X87068329Y-100233644D01*
X86946755Y-100422684D01*
X86937202Y-100442511D01*
X86909407Y-100503582D01*
X86885212Y-100562520D01*
X86864387Y-100623135D01*
X86846702Y-100689237D01*
X86831928Y-100764636D01*
X86819836Y-100853141D01*
X86810194Y-100958564D01*
X86802775Y-101084714D01*
X86797347Y-101235401D01*
X86793682Y-101414434D01*
X86791550Y-101625624D01*
X86790720Y-101872781D01*
G37*
X86790720Y-101872781D02*
X86790964Y-102159715D01*
X86792051Y-102490236D01*
X86793547Y-102825265D01*
X86795273Y-103172114D01*
X86796990Y-103471929D01*
X86798803Y-103728475D01*
X86800820Y-103945518D01*
X86803147Y-104126825D01*
X86805891Y-104276160D01*
X86809159Y-104397290D01*
X86813057Y-104493980D01*
X86817691Y-104569996D01*
X86823169Y-104629103D01*
X86829597Y-104675068D01*
X86837081Y-104711656D01*
X86845729Y-104742632D01*
X86848038Y-104749800D01*
X86949456Y-104990175D01*
X87085196Y-105196649D01*
X87257332Y-105371051D01*
X87467936Y-105515215D01*
X87719080Y-105630972D01*
X87917900Y-105695466D01*
X87959353Y-105707018D01*
X87959353Y-102000380D01*
X87960016Y-101696958D01*
X87961698Y-101443233D01*
X87964402Y-101238839D01*
X87968133Y-101083411D01*
X87972894Y-100976586D01*
X87978689Y-100917998D01*
X87980301Y-100910839D01*
X88017514Y-100835085D01*
X88079809Y-100755067D01*
X88107534Y-100727704D01*
X88138248Y-100699686D01*
X88166729Y-100674919D01*
X88196137Y-100653213D01*
X88229631Y-100634376D01*
X88270369Y-100618217D01*
X88321511Y-100604546D01*
X88386215Y-100593170D01*
X88467640Y-100583899D01*
X88568946Y-100576542D01*
X88693291Y-100570907D01*
X88843835Y-100566803D01*
X89023736Y-100564040D01*
X89236153Y-100562426D01*
X89484246Y-100561770D01*
X89771173Y-100561881D01*
X90100093Y-100562567D01*
X90474165Y-100563638D01*
X90802747Y-100564627D01*
X93124900Y-100571500D01*
X93264262Y-100647700D01*
X93371126Y-100718750D01*
X93445148Y-100801702D01*
X93467462Y-100838200D01*
X93531300Y-100952500D01*
X93538525Y-102627009D01*
X93539817Y-103016422D01*
X93540104Y-103356270D01*
X93539372Y-103647780D01*
X93537608Y-103892176D01*
X93534797Y-104090685D01*
X93530925Y-104244532D01*
X93525978Y-104354944D01*
X93519941Y-104423145D01*
X93517622Y-104437013D01*
X93469331Y-104578762D01*
X93387564Y-104689150D01*
X93268165Y-104771863D01*
X93106981Y-104830584D01*
X93061400Y-104841565D01*
X93011924Y-104846876D01*
X92916291Y-104851781D01*
X92779141Y-104856271D01*
X92605116Y-104860337D01*
X92398856Y-104863968D01*
X92165003Y-104867156D01*
X91908197Y-104869891D01*
X91633080Y-104872162D01*
X91344292Y-104873962D01*
X91046475Y-104875280D01*
X90744269Y-104876106D01*
X90442316Y-104876432D01*
X90145256Y-104876247D01*
X89857731Y-104875542D01*
X89584381Y-104874307D01*
X89329848Y-104872533D01*
X89098773Y-104870211D01*
X88895796Y-104867331D01*
X88725558Y-104863883D01*
X88592701Y-104859857D01*
X88501865Y-104855245D01*
X88462005Y-104851021D01*
X88278273Y-104798728D01*
X88136013Y-104719719D01*
X88036875Y-104615243D01*
X87968700Y-104512240D01*
X87961068Y-102757770D01*
X87959704Y-102353862D01*
X87959353Y-102000380D01*
X87959353Y-105707018D01*
X88121100Y-105752094D01*
X90648400Y-105756313D01*
X91005852Y-105756684D01*
X91351278Y-105756604D01*
X91680989Y-105756097D01*
X91991298Y-105755189D01*
X92278515Y-105753906D01*
X92538953Y-105752271D01*
X92768921Y-105750311D01*
X92964733Y-105748049D01*
X93122700Y-105745513D01*
X93239132Y-105742725D01*
X93310341Y-105739713D01*
X93328100Y-105738091D01*
X93609748Y-105678198D01*
X93866485Y-105586599D01*
X94093595Y-105466190D01*
X94286358Y-105319865D01*
X94440056Y-105150517D01*
X94532165Y-104999497D01*
X94560459Y-104940991D01*
X94585055Y-104886017D01*
X94606213Y-104830716D01*
X94624191Y-104771232D01*
X94639248Y-104703705D01*
X94651644Y-104624278D01*
X94661635Y-104529094D01*
X94669483Y-104414295D01*
X94675445Y-104276022D01*
X94679781Y-104110418D01*
X94682748Y-103913626D01*
X94684607Y-103681787D01*
X94685616Y-103411044D01*
X94686033Y-103097538D01*
X94686118Y-102737413D01*
X94686118Y-102705100D01*
X94685962Y-102348603D01*
X94685447Y-102039251D01*
X94684503Y-101773389D01*
X94683060Y-101547362D01*
X94681047Y-101357515D01*
X94678394Y-101200194D01*
X94675031Y-101071743D01*
X94670888Y-100968509D01*
X94665895Y-100886836D01*
X94659981Y-100823070D01*
X94653076Y-100773556D01*
X94648550Y-100749743D01*
X94573867Y-100507865D01*
X94458354Y-100295362D01*
X94301729Y-100111983D01*
X94103706Y-99957481D01*
X93864003Y-99831608D01*
X93582334Y-99734114D01*
X93450020Y-99701250D01*
X93414103Y-99693956D01*
X93373648Y-99687505D01*
X93325495Y-99681847D01*
X93266483Y-99676930D01*
X93193452Y-99672703D01*
X93103243Y-99669114D01*
X92992693Y-99666114D01*
X92858643Y-99663650D01*
X92697932Y-99661671D01*
X92507400Y-99660126D01*
X92283887Y-99658964D01*
X92024232Y-99658134D01*
X91725274Y-99657584D01*
X91383854Y-99657263D01*
X90996810Y-99657121D01*
X90724600Y-99657100D01*
X88197300Y-99657100D01*
X87959927Y-99716935D01*
X87682353Y-99805851D01*
X87439189Y-99923055D01*
X87233494Y-100066377D01*
X87068329Y-100233644D01*
X86946755Y-100422684D01*
X86937202Y-100442511D01*
X86909407Y-100503582D01*
X86885212Y-100562520D01*
X86864387Y-100623135D01*
X86846702Y-100689237D01*
X86831928Y-100764636D01*
X86819836Y-100853141D01*
X86810194Y-100958564D01*
X86802775Y-101084714D01*
X86797347Y-101235401D01*
X86793682Y-101414434D01*
X86791550Y-101625624D01*
X86790720Y-101872781D01*
G36*
X81780885Y-100215900D02*
G01*
X81791530Y-100705845D01*
X81824045Y-101165041D01*
X81880392Y-101609473D01*
X81962534Y-102055126D01*
X82055185Y-102451100D01*
X82242505Y-103085416D01*
X82475336Y-103699778D01*
X82751665Y-104292176D01*
X83069477Y-104860596D01*
X83113403Y-104927285D01*
X83113403Y-100469900D01*
X83116438Y-99852020D01*
X83168405Y-99243228D01*
X83267881Y-98645892D01*
X83413446Y-98062379D01*
X83603676Y-97495058D01*
X83837150Y-96946297D01*
X84112445Y-96418464D01*
X84428141Y-95913926D01*
X84782814Y-95435053D01*
X85175043Y-94984212D01*
X85603407Y-94563770D01*
X86066482Y-94176097D01*
X86562847Y-93823560D01*
X87091080Y-93508528D01*
X87384500Y-93357076D01*
X87884290Y-93131221D01*
X88377347Y-92947855D01*
X88876075Y-92803359D01*
X89392876Y-92694114D01*
X89911800Y-92619696D01*
X90141955Y-92600226D01*
X90408198Y-92589006D01*
X90696907Y-92585771D01*
X90994457Y-92590257D01*
X91287226Y-92602197D01*
X91561589Y-92621326D01*
X91803922Y-92647379D01*
X91877933Y-92657974D01*
X92467462Y-92772601D01*
X93041238Y-92932405D01*
X93605296Y-93139305D01*
X94115500Y-93370265D01*
X94657400Y-93665287D01*
X95168446Y-93999182D01*
X95647188Y-94369528D01*
X96092174Y-94773906D01*
X96501954Y-95209894D01*
X96875078Y-95675071D01*
X97210096Y-96167016D01*
X97505556Y-96683308D01*
X97760007Y-97221527D01*
X97972001Y-97779252D01*
X98140085Y-98354061D01*
X98262809Y-98943534D01*
X98338723Y-99545250D01*
X98366376Y-100156788D01*
X98361941Y-100457200D01*
X98318365Y-101072935D01*
X98230147Y-101666987D01*
X98096138Y-102243922D01*
X97915188Y-102808307D01*
X97686148Y-103364706D01*
X97567753Y-103612358D01*
X97312543Y-104086029D01*
X97034663Y-104525600D01*
X96726963Y-104940786D01*
X96382291Y-105341301D01*
X96029357Y-105702300D01*
X95563028Y-106119424D01*
X95069934Y-106493696D01*
X94551300Y-106824402D01*
X94008350Y-107110827D01*
X93442309Y-107352258D01*
X92875147Y-107541965D01*
X92631826Y-107609373D01*
X92398296Y-107666023D01*
X92162833Y-107714046D01*
X91913714Y-107755571D01*
X91639216Y-107792728D01*
X91327615Y-107827646D01*
X91270700Y-107833454D01*
X91179245Y-107838625D01*
X91047072Y-107840685D01*
X90884147Y-107839947D01*
X90700435Y-107836727D01*
X90505904Y-107831339D01*
X90310519Y-107824097D01*
X90124247Y-107815316D01*
X89957052Y-107805311D01*
X89818903Y-107794396D01*
X89734000Y-107784948D01*
X89112480Y-107674677D01*
X88510195Y-107517511D01*
X87928261Y-107314013D01*
X87367791Y-107064745D01*
X86829900Y-106770271D01*
X86315702Y-106431154D01*
X85826312Y-106047956D01*
X85362844Y-105621240D01*
X85275405Y-105532825D01*
X84937496Y-105166792D01*
X84639662Y-104801474D01*
X84372920Y-104424406D01*
X84128285Y-104023120D01*
X83954338Y-103699595D01*
X83697964Y-103152404D01*
X83490068Y-102606513D01*
X83328939Y-102055356D01*
X83212868Y-101492367D01*
X83140145Y-100910979D01*
X83113403Y-100469900D01*
X83113403Y-104927285D01*
X83426758Y-105403025D01*
X83821494Y-105917453D01*
X84251670Y-106401866D01*
X84715272Y-106854252D01*
X85210286Y-107272599D01*
X85734696Y-107654895D01*
X86286489Y-107999127D01*
X86863651Y-108303283D01*
X87464166Y-108565351D01*
X88086021Y-108783319D01*
X88514800Y-108903989D01*
X89097203Y-109030049D01*
X89701070Y-109119057D01*
X90312370Y-109169660D01*
X90917074Y-109180508D01*
X91258295Y-109168107D01*
X91780555Y-109121031D01*
X92316470Y-109040655D01*
X92846066Y-108930525D01*
X93328100Y-108800674D01*
X93960821Y-108582762D01*
X94570300Y-108320852D01*
X95154740Y-108016918D01*
X95712343Y-107672933D01*
X96241313Y-107290872D01*
X96739853Y-106872708D01*
X97206165Y-106420414D01*
X97638453Y-105935965D01*
X98034919Y-105421335D01*
X98393767Y-104878496D01*
X98713199Y-104309423D01*
X98991418Y-103716089D01*
X99226627Y-103100468D01*
X99417030Y-102464535D01*
X99525628Y-101993900D01*
X99629875Y-101353912D01*
X99686830Y-100700522D01*
X99696550Y-100038740D01*
X99659089Y-99373576D01*
X99574503Y-98710038D01*
X99484147Y-98234700D01*
X99433970Y-98027015D01*
X99367741Y-97787814D01*
X99290199Y-97531932D01*
X99206081Y-97274202D01*
X99120127Y-97029460D01*
X99037077Y-96812539D01*
X99005398Y-96736100D01*
X98717836Y-96123930D01*
X98390909Y-95542064D01*
X98026727Y-94991690D01*
X97627404Y-94473995D01*
X97195050Y-93990166D01*
X96731779Y-93541391D01*
X96239701Y-93128856D01*
X95720930Y-92753750D01*
X95177576Y-92417260D01*
X94611753Y-92120573D01*
X94025571Y-91864876D01*
X93421144Y-91651358D01*
X92800583Y-91481204D01*
X92165999Y-91355604D01*
X91519506Y-91275743D01*
X90863215Y-91242810D01*
X90199239Y-91257991D01*
X89529688Y-91322475D01*
X89406754Y-91339701D01*
X88756161Y-91460410D01*
X88122523Y-91627772D01*
X87507740Y-91839924D01*
X86913708Y-92095002D01*
X86342326Y-92391142D01*
X85795492Y-92726480D01*
X85275104Y-93099153D01*
X84783060Y-93507297D01*
X84321258Y-93949049D01*
X83891596Y-94422544D01*
X83495972Y-94925919D01*
X83136284Y-95457310D01*
X82814430Y-96014854D01*
X82532309Y-96596687D01*
X82291818Y-97200944D01*
X82094855Y-97825763D01*
X81943318Y-98469280D01*
X81899182Y-98711513D01*
X81856480Y-98984238D01*
X81824629Y-99234812D01*
X81802404Y-99478812D01*
X81788580Y-99731812D01*
X81781934Y-100009388D01*
X81780885Y-100215900D01*
G37*
X81780885Y-100215900D02*
X81791530Y-100705845D01*
X81824045Y-101165041D01*
X81880392Y-101609473D01*
X81962534Y-102055126D01*
X82055185Y-102451100D01*
X82242505Y-103085416D01*
X82475336Y-103699778D01*
X82751665Y-104292176D01*
X83069477Y-104860596D01*
X83113403Y-104927285D01*
X83113403Y-100469900D01*
X83116438Y-99852020D01*
X83168405Y-99243228D01*
X83267881Y-98645892D01*
X83413446Y-98062379D01*
X83603676Y-97495058D01*
X83837150Y-96946297D01*
X84112445Y-96418464D01*
X84428141Y-95913926D01*
X84782814Y-95435053D01*
X85175043Y-94984212D01*
X85603407Y-94563770D01*
X86066482Y-94176097D01*
X86562847Y-93823560D01*
X87091080Y-93508528D01*
X87384500Y-93357076D01*
X87884290Y-93131221D01*
X88377347Y-92947855D01*
X88876075Y-92803359D01*
X89392876Y-92694114D01*
X89911800Y-92619696D01*
X90141955Y-92600226D01*
X90408198Y-92589006D01*
X90696907Y-92585771D01*
X90994457Y-92590257D01*
X91287226Y-92602197D01*
X91561589Y-92621326D01*
X91803922Y-92647379D01*
X91877933Y-92657974D01*
X92467462Y-92772601D01*
X93041238Y-92932405D01*
X93605296Y-93139305D01*
X94115500Y-93370265D01*
X94657400Y-93665287D01*
X95168446Y-93999182D01*
X95647188Y-94369528D01*
X96092174Y-94773906D01*
X96501954Y-95209894D01*
X96875078Y-95675071D01*
X97210096Y-96167016D01*
X97505556Y-96683308D01*
X97760007Y-97221527D01*
X97972001Y-97779252D01*
X98140085Y-98354061D01*
X98262809Y-98943534D01*
X98338723Y-99545250D01*
X98366376Y-100156788D01*
X98361941Y-100457200D01*
X98318365Y-101072935D01*
X98230147Y-101666987D01*
X98096138Y-102243922D01*
X97915188Y-102808307D01*
X97686148Y-103364706D01*
X97567753Y-103612358D01*
X97312543Y-104086029D01*
X97034663Y-104525600D01*
X96726963Y-104940786D01*
X96382291Y-105341301D01*
X96029357Y-105702300D01*
X95563028Y-106119424D01*
X95069934Y-106493696D01*
X94551300Y-106824402D01*
X94008350Y-107110827D01*
X93442309Y-107352258D01*
X92875147Y-107541965D01*
X92631826Y-107609373D01*
X92398296Y-107666023D01*
X92162833Y-107714046D01*
X91913714Y-107755571D01*
X91639216Y-107792728D01*
X91327615Y-107827646D01*
X91270700Y-107833454D01*
X91179245Y-107838625D01*
X91047072Y-107840685D01*
X90884147Y-107839947D01*
X90700435Y-107836727D01*
X90505904Y-107831339D01*
X90310519Y-107824097D01*
X90124247Y-107815316D01*
X89957052Y-107805311D01*
X89818903Y-107794396D01*
X89734000Y-107784948D01*
X89112480Y-107674677D01*
X88510195Y-107517511D01*
X87928261Y-107314013D01*
X87367791Y-107064745D01*
X86829900Y-106770271D01*
X86315702Y-106431154D01*
X85826312Y-106047956D01*
X85362844Y-105621240D01*
X85275405Y-105532825D01*
X84937496Y-105166792D01*
X84639662Y-104801474D01*
X84372920Y-104424406D01*
X84128285Y-104023120D01*
X83954338Y-103699595D01*
X83697964Y-103152404D01*
X83490068Y-102606513D01*
X83328939Y-102055356D01*
X83212868Y-101492367D01*
X83140145Y-100910979D01*
X83113403Y-100469900D01*
X83113403Y-104927285D01*
X83426758Y-105403025D01*
X83821494Y-105917453D01*
X84251670Y-106401866D01*
X84715272Y-106854252D01*
X85210286Y-107272599D01*
X85734696Y-107654895D01*
X86286489Y-107999127D01*
X86863651Y-108303283D01*
X87464166Y-108565351D01*
X88086021Y-108783319D01*
X88514800Y-108903989D01*
X89097203Y-109030049D01*
X89701070Y-109119057D01*
X90312370Y-109169660D01*
X90917074Y-109180508D01*
X91258295Y-109168107D01*
X91780555Y-109121031D01*
X92316470Y-109040655D01*
X92846066Y-108930525D01*
X93328100Y-108800674D01*
X93960821Y-108582762D01*
X94570300Y-108320852D01*
X95154740Y-108016918D01*
X95712343Y-107672933D01*
X96241313Y-107290872D01*
X96739853Y-106872708D01*
X97206165Y-106420414D01*
X97638453Y-105935965D01*
X98034919Y-105421335D01*
X98393767Y-104878496D01*
X98713199Y-104309423D01*
X98991418Y-103716089D01*
X99226627Y-103100468D01*
X99417030Y-102464535D01*
X99525628Y-101993900D01*
X99629875Y-101353912D01*
X99686830Y-100700522D01*
X99696550Y-100038740D01*
X99659089Y-99373576D01*
X99574503Y-98710038D01*
X99484147Y-98234700D01*
X99433970Y-98027015D01*
X99367741Y-97787814D01*
X99290199Y-97531932D01*
X99206081Y-97274202D01*
X99120127Y-97029460D01*
X99037077Y-96812539D01*
X99005398Y-96736100D01*
X98717836Y-96123930D01*
X98390909Y-95542064D01*
X98026727Y-94991690D01*
X97627404Y-94473995D01*
X97195050Y-93990166D01*
X96731779Y-93541391D01*
X96239701Y-93128856D01*
X95720930Y-92753750D01*
X95177576Y-92417260D01*
X94611753Y-92120573D01*
X94025571Y-91864876D01*
X93421144Y-91651358D01*
X92800583Y-91481204D01*
X92165999Y-91355604D01*
X91519506Y-91275743D01*
X90863215Y-91242810D01*
X90199239Y-91257991D01*
X89529688Y-91322475D01*
X89406754Y-91339701D01*
X88756161Y-91460410D01*
X88122523Y-91627772D01*
X87507740Y-91839924D01*
X86913708Y-92095002D01*
X86342326Y-92391142D01*
X85795492Y-92726480D01*
X85275104Y-93099153D01*
X84783060Y-93507297D01*
X84321258Y-93949049D01*
X83891596Y-94422544D01*
X83495972Y-94925919D01*
X83136284Y-95457310D01*
X82814430Y-96014854D01*
X82532309Y-96596687D01*
X82291818Y-97200944D01*
X82094855Y-97825763D01*
X81943318Y-98469280D01*
X81899182Y-98711513D01*
X81856480Y-98984238D01*
X81824629Y-99234812D01*
X81802404Y-99478812D01*
X81788580Y-99731812D01*
X81781934Y-100009388D01*
X81780885Y-100215900D01*
G36*
X81110700Y-112941300D02*
G01*
X81110878Y-113241198D01*
X81111675Y-113495075D01*
X81113489Y-113707708D01*
X81116719Y-113883874D01*
X81121760Y-114028351D01*
X81129012Y-114145917D01*
X81138871Y-114241350D01*
X81151735Y-114319427D01*
X81168002Y-114384926D01*
X81188069Y-114442625D01*
X81212334Y-114497300D01*
X81241194Y-114553731D01*
X81245552Y-114561910D01*
X81355870Y-114716503D01*
X81508836Y-114846530D01*
X81705291Y-114952528D01*
X81923500Y-115027298D01*
X81923500Y-112954000D01*
X81923586Y-112680912D01*
X81923972Y-112453882D01*
X81924848Y-112268166D01*
X81926408Y-112119020D01*
X81928842Y-112001701D01*
X81932342Y-111911468D01*
X81937100Y-111843575D01*
X81943308Y-111793280D01*
X81951157Y-111755841D01*
X81960839Y-111726514D01*
X81972546Y-111700556D01*
X81974300Y-111697035D01*
X82057086Y-111585969D01*
X82176979Y-111499983D01*
X82288813Y-111455807D01*
X82333852Y-111450512D01*
X82427528Y-111445758D01*
X82567683Y-111441576D01*
X82752155Y-111437996D01*
X82978786Y-111435048D01*
X83245415Y-111432763D01*
X83549884Y-111431171D01*
X83890031Y-111430303D01*
X84114250Y-111430141D01*
X85847800Y-111430000D01*
X85847800Y-112955134D01*
X85847800Y-114480269D01*
X84088850Y-114472784D01*
X82329900Y-114465300D01*
X82178673Y-114389100D01*
X82080501Y-114332421D01*
X82016406Y-114274725D01*
X81975473Y-114211300D01*
X81963209Y-114185616D01*
X81953041Y-114157706D01*
X81944774Y-114122824D01*
X81938211Y-114076227D01*
X81933155Y-114013170D01*
X81929411Y-113928909D01*
X81926783Y-113818701D01*
X81925074Y-113677800D01*
X81924088Y-113501463D01*
X81923630Y-113284946D01*
X81923503Y-113023505D01*
X81923500Y-112954000D01*
X81923500Y-115027298D01*
X81946080Y-115035036D01*
X82013452Y-115052091D01*
X82050085Y-115059999D01*
X82091487Y-115066971D01*
X82141045Y-115073082D01*
X82202144Y-115078410D01*
X82278170Y-115083028D01*
X82372507Y-115087014D01*
X82488543Y-115090442D01*
X82629662Y-115093389D01*
X82799250Y-115095930D01*
X83000693Y-115098141D01*
X83237377Y-115100098D01*
X83512687Y-115101876D01*
X83830009Y-115103552D01*
X84192729Y-115105201D01*
X84431750Y-115106201D01*
X86660600Y-115115322D01*
X86660600Y-112940205D01*
X86660600Y-110765089D01*
X84457150Y-110776952D01*
X84060766Y-110779199D01*
X83711929Y-110781449D01*
X83407388Y-110783772D01*
X83143892Y-110786237D01*
X82918188Y-110788915D01*
X82727024Y-110791873D01*
X82567149Y-110795181D01*
X82435311Y-110798910D01*
X82328257Y-110803127D01*
X82242736Y-110807903D01*
X82175496Y-110813307D01*
X82123286Y-110819408D01*
X82082852Y-110826276D01*
X82075900Y-110827746D01*
X81824843Y-110896642D01*
X81617832Y-110985238D01*
X81450898Y-111096647D01*
X81320070Y-111233982D01*
X81221381Y-111400355D01*
X81168069Y-111539638D01*
X81154867Y-111582863D01*
X81143863Y-111624404D01*
X81134857Y-111669148D01*
X81127648Y-111721982D01*
X81122038Y-111787791D01*
X81117825Y-111871463D01*
X81114810Y-111977883D01*
X81112793Y-112111939D01*
X81111573Y-112278516D01*
X81110952Y-112482502D01*
X81110728Y-112728783D01*
X81110700Y-112941300D01*
G37*
X81110700Y-112941300D02*
X81110878Y-113241198D01*
X81111675Y-113495075D01*
X81113489Y-113707708D01*
X81116719Y-113883874D01*
X81121760Y-114028351D01*
X81129012Y-114145917D01*
X81138871Y-114241350D01*
X81151735Y-114319427D01*
X81168002Y-114384926D01*
X81188069Y-114442625D01*
X81212334Y-114497300D01*
X81241194Y-114553731D01*
X81245552Y-114561910D01*
X81355870Y-114716503D01*
X81508836Y-114846530D01*
X81705291Y-114952528D01*
X81923500Y-115027298D01*
X81923500Y-112954000D01*
X81923586Y-112680912D01*
X81923972Y-112453882D01*
X81924848Y-112268166D01*
X81926408Y-112119020D01*
X81928842Y-112001701D01*
X81932342Y-111911468D01*
X81937100Y-111843575D01*
X81943308Y-111793280D01*
X81951157Y-111755841D01*
X81960839Y-111726514D01*
X81972546Y-111700556D01*
X81974300Y-111697035D01*
X82057086Y-111585969D01*
X82176979Y-111499983D01*
X82288813Y-111455807D01*
X82333852Y-111450512D01*
X82427528Y-111445758D01*
X82567683Y-111441576D01*
X82752155Y-111437996D01*
X82978786Y-111435048D01*
X83245415Y-111432763D01*
X83549884Y-111431171D01*
X83890031Y-111430303D01*
X84114250Y-111430141D01*
X85847800Y-111430000D01*
X85847800Y-112955134D01*
X85847800Y-114480269D01*
X84088850Y-114472784D01*
X82329900Y-114465300D01*
X82178673Y-114389100D01*
X82080501Y-114332421D01*
X82016406Y-114274725D01*
X81975473Y-114211300D01*
X81963209Y-114185616D01*
X81953041Y-114157706D01*
X81944774Y-114122824D01*
X81938211Y-114076227D01*
X81933155Y-114013170D01*
X81929411Y-113928909D01*
X81926783Y-113818701D01*
X81925074Y-113677800D01*
X81924088Y-113501463D01*
X81923630Y-113284946D01*
X81923503Y-113023505D01*
X81923500Y-112954000D01*
X81923500Y-115027298D01*
X81946080Y-115035036D01*
X82013452Y-115052091D01*
X82050085Y-115059999D01*
X82091487Y-115066971D01*
X82141045Y-115073082D01*
X82202144Y-115078410D01*
X82278170Y-115083028D01*
X82372507Y-115087014D01*
X82488543Y-115090442D01*
X82629662Y-115093389D01*
X82799250Y-115095930D01*
X83000693Y-115098141D01*
X83237377Y-115100098D01*
X83512687Y-115101876D01*
X83830009Y-115103552D01*
X84192729Y-115105201D01*
X84431750Y-115106201D01*
X86660600Y-115115322D01*
X86660600Y-112940205D01*
X86660600Y-110765089D01*
X84457150Y-110776952D01*
X84060766Y-110779199D01*
X83711929Y-110781449D01*
X83407388Y-110783772D01*
X83143892Y-110786237D01*
X82918188Y-110788915D01*
X82727024Y-110791873D01*
X82567149Y-110795181D01*
X82435311Y-110798910D01*
X82328257Y-110803127D01*
X82242736Y-110807903D01*
X82175496Y-110813307D01*
X82123286Y-110819408D01*
X82082852Y-110826276D01*
X82075900Y-110827746D01*
X81824843Y-110896642D01*
X81617832Y-110985238D01*
X81450898Y-111096647D01*
X81320070Y-111233982D01*
X81221381Y-111400355D01*
X81168069Y-111539638D01*
X81154867Y-111582863D01*
X81143863Y-111624404D01*
X81134857Y-111669148D01*
X81127648Y-111721982D01*
X81122038Y-111787791D01*
X81117825Y-111871463D01*
X81114810Y-111977883D01*
X81112793Y-112111939D01*
X81111573Y-112278516D01*
X81110952Y-112482502D01*
X81110728Y-112728783D01*
X81110700Y-112941300D01*
G36*
X87460700Y-112953465D02*
G01*
X87460738Y-113259722D01*
X87460949Y-113519408D01*
X87461485Y-113736754D01*
X87462493Y-113915988D01*
X87464123Y-114061341D01*
X87466526Y-114177041D01*
X87469849Y-114267320D01*
X87474243Y-114336406D01*
X87479856Y-114388529D01*
X87486838Y-114427918D01*
X87495339Y-114458803D01*
X87505508Y-114485415D01*
X87515587Y-114507862D01*
X87623684Y-114681718D01*
X87774767Y-114829946D01*
X87967285Y-114951353D01*
X88199689Y-115044750D01*
X88224299Y-115052276D01*
X88257343Y-115061108D01*
X88263535Y-115062346D01*
X88263535Y-113536215D01*
X88264402Y-113294561D01*
X88265970Y-113007527D01*
X88266471Y-112917499D01*
X88273500Y-111636502D01*
X88344613Y-111562293D01*
X88418467Y-111504364D01*
X88503972Y-111461844D01*
X88512660Y-111459042D01*
X88553943Y-111452459D01*
X88631954Y-111446787D01*
X88748516Y-111441995D01*
X88905451Y-111438054D01*
X89104581Y-111434931D01*
X89347729Y-111432598D01*
X89636717Y-111431023D01*
X89973368Y-111430176D01*
X90245915Y-111430000D01*
X91882237Y-111430000D01*
X91995569Y-111487150D01*
X92039919Y-111509530D01*
X92077261Y-111531083D01*
X92108198Y-111556125D01*
X92133331Y-111588971D01*
X92153262Y-111633937D01*
X92168595Y-111695338D01*
X92179932Y-111777492D01*
X92187875Y-111884713D01*
X92193026Y-112021317D01*
X92195987Y-112191620D01*
X92197362Y-112399939D01*
X92197753Y-112650588D01*
X92197761Y-112935765D01*
X92197661Y-113228021D01*
X92197084Y-113473902D01*
X92195647Y-113677831D01*
X92192966Y-113844235D01*
X92188660Y-113977537D01*
X92182345Y-114082162D01*
X92173637Y-114162534D01*
X92162153Y-114223078D01*
X92147511Y-114268220D01*
X92129326Y-114302382D01*
X92107217Y-114329990D01*
X92080800Y-114355469D01*
X92074322Y-114361272D01*
X92047549Y-114383470D01*
X92018168Y-114402589D01*
X91982415Y-114418844D01*
X91936524Y-114432450D01*
X91876732Y-114443622D01*
X91799276Y-114452575D01*
X91700391Y-114459524D01*
X91576313Y-114464686D01*
X91423278Y-114468275D01*
X91237522Y-114470505D01*
X91015281Y-114471593D01*
X90752792Y-114471754D01*
X90446289Y-114471202D01*
X90165800Y-114470390D01*
X88552900Y-114465300D01*
X88445474Y-114407900D01*
X88405124Y-114386531D01*
X88371059Y-114366263D01*
X88342771Y-114342872D01*
X88319752Y-114312130D01*
X88301495Y-114269814D01*
X88287493Y-114211698D01*
X88277237Y-114133555D01*
X88270221Y-114031161D01*
X88265937Y-113900290D01*
X88263877Y-113736717D01*
X88263535Y-113536215D01*
X88263535Y-115062346D01*
X88295512Y-115068743D01*
X88342628Y-115075284D01*
X88402514Y-115080830D01*
X88478993Y-115085483D01*
X88575888Y-115089345D01*
X88697021Y-115092517D01*
X88846216Y-115095099D01*
X89027295Y-115097192D01*
X89244081Y-115098899D01*
X89500397Y-115100320D01*
X89800066Y-115101557D01*
X90127700Y-115102650D01*
X90425965Y-115103241D01*
X90712622Y-115103167D01*
X90983090Y-115102468D01*
X91232792Y-115101187D01*
X91457148Y-115099365D01*
X91651578Y-115097044D01*
X91811503Y-115094265D01*
X91932344Y-115091070D01*
X92009523Y-115087500D01*
X92031919Y-115085359D01*
X92292851Y-115027514D01*
X92514241Y-114938176D01*
X92695924Y-114817457D01*
X92837733Y-114665467D01*
X92939504Y-114482317D01*
X92941266Y-114478000D01*
X92953547Y-114446836D01*
X92963910Y-114416007D01*
X92972518Y-114381135D01*
X92979535Y-114337841D01*
X92985123Y-114281745D01*
X92989444Y-114208469D01*
X92992661Y-114113634D01*
X92994938Y-113992862D01*
X92996436Y-113841773D01*
X92997319Y-113655989D01*
X92997748Y-113431131D01*
X92997888Y-113162821D01*
X92997900Y-112954000D01*
X92997908Y-112635644D01*
X92997571Y-112363771D01*
X92996351Y-112134062D01*
X92993707Y-111942201D01*
X92989101Y-111783870D01*
X92981993Y-111654751D01*
X92971843Y-111550528D01*
X92958113Y-111466882D01*
X92940262Y-111399496D01*
X92917752Y-111344052D01*
X92890042Y-111296235D01*
X92856595Y-111251725D01*
X92816869Y-111206205D01*
X92773637Y-111158984D01*
X92637295Y-111035118D01*
X92475964Y-110938011D01*
X92280411Y-110862767D01*
X92148100Y-110827314D01*
X92106743Y-110818433D01*
X92061192Y-110810794D01*
X92007510Y-110804304D01*
X91941760Y-110798874D01*
X91860009Y-110794411D01*
X91758320Y-110790825D01*
X91632758Y-110788025D01*
X91479386Y-110785920D01*
X91294270Y-110784418D01*
X91073473Y-110783428D01*
X90813061Y-110782860D01*
X90509097Y-110782622D01*
X90216600Y-110782611D01*
X89870821Y-110782785D01*
X89571963Y-110783232D01*
X89316150Y-110784038D01*
X89099503Y-110785289D01*
X88918144Y-110787071D01*
X88768197Y-110789470D01*
X88645782Y-110792572D01*
X88547023Y-110796462D01*
X88468042Y-110801227D01*
X88404961Y-110806952D01*
X88353901Y-110813724D01*
X88310986Y-110821629D01*
X88294903Y-110825204D01*
X88058567Y-110896727D01*
X87864485Y-110992647D01*
X87709074Y-111115457D01*
X87588752Y-111267655D01*
X87544317Y-111347982D01*
X87460700Y-111517831D01*
X87460700Y-112953465D01*
G37*
X87460700Y-112953465D02*
X87460738Y-113259722D01*
X87460949Y-113519408D01*
X87461485Y-113736754D01*
X87462493Y-113915988D01*
X87464123Y-114061341D01*
X87466526Y-114177041D01*
X87469849Y-114267320D01*
X87474243Y-114336406D01*
X87479856Y-114388529D01*
X87486838Y-114427918D01*
X87495339Y-114458803D01*
X87505508Y-114485415D01*
X87515587Y-114507862D01*
X87623684Y-114681718D01*
X87774767Y-114829946D01*
X87967285Y-114951353D01*
X88199689Y-115044750D01*
X88224299Y-115052276D01*
X88257343Y-115061108D01*
X88263535Y-115062346D01*
X88263535Y-113536215D01*
X88264402Y-113294561D01*
X88265970Y-113007527D01*
X88266471Y-112917499D01*
X88273500Y-111636502D01*
X88344613Y-111562293D01*
X88418467Y-111504364D01*
X88503972Y-111461844D01*
X88512660Y-111459042D01*
X88553943Y-111452459D01*
X88631954Y-111446787D01*
X88748516Y-111441995D01*
X88905451Y-111438054D01*
X89104581Y-111434931D01*
X89347729Y-111432598D01*
X89636717Y-111431023D01*
X89973368Y-111430176D01*
X90245915Y-111430000D01*
X91882237Y-111430000D01*
X91995569Y-111487150D01*
X92039919Y-111509530D01*
X92077261Y-111531083D01*
X92108198Y-111556125D01*
X92133331Y-111588971D01*
X92153262Y-111633937D01*
X92168595Y-111695338D01*
X92179932Y-111777492D01*
X92187875Y-111884713D01*
X92193026Y-112021317D01*
X92195987Y-112191620D01*
X92197362Y-112399939D01*
X92197753Y-112650588D01*
X92197761Y-112935765D01*
X92197661Y-113228021D01*
X92197084Y-113473902D01*
X92195647Y-113677831D01*
X92192966Y-113844235D01*
X92188660Y-113977537D01*
X92182345Y-114082162D01*
X92173637Y-114162534D01*
X92162153Y-114223078D01*
X92147511Y-114268220D01*
X92129326Y-114302382D01*
X92107217Y-114329990D01*
X92080800Y-114355469D01*
X92074322Y-114361272D01*
X92047549Y-114383470D01*
X92018168Y-114402589D01*
X91982415Y-114418844D01*
X91936524Y-114432450D01*
X91876732Y-114443622D01*
X91799276Y-114452575D01*
X91700391Y-114459524D01*
X91576313Y-114464686D01*
X91423278Y-114468275D01*
X91237522Y-114470505D01*
X91015281Y-114471593D01*
X90752792Y-114471754D01*
X90446289Y-114471202D01*
X90165800Y-114470390D01*
X88552900Y-114465300D01*
X88445474Y-114407900D01*
X88405124Y-114386531D01*
X88371059Y-114366263D01*
X88342771Y-114342872D01*
X88319752Y-114312130D01*
X88301495Y-114269814D01*
X88287493Y-114211698D01*
X88277237Y-114133555D01*
X88270221Y-114031161D01*
X88265937Y-113900290D01*
X88263877Y-113736717D01*
X88263535Y-113536215D01*
X88263535Y-115062346D01*
X88295512Y-115068743D01*
X88342628Y-115075284D01*
X88402514Y-115080830D01*
X88478993Y-115085483D01*
X88575888Y-115089345D01*
X88697021Y-115092517D01*
X88846216Y-115095099D01*
X89027295Y-115097192D01*
X89244081Y-115098899D01*
X89500397Y-115100320D01*
X89800066Y-115101557D01*
X90127700Y-115102650D01*
X90425965Y-115103241D01*
X90712622Y-115103167D01*
X90983090Y-115102468D01*
X91232792Y-115101187D01*
X91457148Y-115099365D01*
X91651578Y-115097044D01*
X91811503Y-115094265D01*
X91932344Y-115091070D01*
X92009523Y-115087500D01*
X92031919Y-115085359D01*
X92292851Y-115027514D01*
X92514241Y-114938176D01*
X92695924Y-114817457D01*
X92837733Y-114665467D01*
X92939504Y-114482317D01*
X92941266Y-114478000D01*
X92953547Y-114446836D01*
X92963910Y-114416007D01*
X92972518Y-114381135D01*
X92979535Y-114337841D01*
X92985123Y-114281745D01*
X92989444Y-114208469D01*
X92992661Y-114113634D01*
X92994938Y-113992862D01*
X92996436Y-113841773D01*
X92997319Y-113655989D01*
X92997748Y-113431131D01*
X92997888Y-113162821D01*
X92997900Y-112954000D01*
X92997908Y-112635644D01*
X92997571Y-112363771D01*
X92996351Y-112134062D01*
X92993707Y-111942201D01*
X92989101Y-111783870D01*
X92981993Y-111654751D01*
X92971843Y-111550528D01*
X92958113Y-111466882D01*
X92940262Y-111399496D01*
X92917752Y-111344052D01*
X92890042Y-111296235D01*
X92856595Y-111251725D01*
X92816869Y-111206205D01*
X92773637Y-111158984D01*
X92637295Y-111035118D01*
X92475964Y-110938011D01*
X92280411Y-110862767D01*
X92148100Y-110827314D01*
X92106743Y-110818433D01*
X92061192Y-110810794D01*
X92007510Y-110804304D01*
X91941760Y-110798874D01*
X91860009Y-110794411D01*
X91758320Y-110790825D01*
X91632758Y-110788025D01*
X91479386Y-110785920D01*
X91294270Y-110784418D01*
X91073473Y-110783428D01*
X90813061Y-110782860D01*
X90509097Y-110782622D01*
X90216600Y-110782611D01*
X89870821Y-110782785D01*
X89571963Y-110783232D01*
X89316150Y-110784038D01*
X89099503Y-110785289D01*
X88918144Y-110787071D01*
X88768197Y-110789470D01*
X88645782Y-110792572D01*
X88547023Y-110796462D01*
X88468042Y-110801227D01*
X88404961Y-110806952D01*
X88353901Y-110813724D01*
X88310986Y-110821629D01*
X88294903Y-110825204D01*
X88058567Y-110896727D01*
X87864485Y-110992647D01*
X87709074Y-111115457D01*
X87588752Y-111267655D01*
X87544317Y-111347982D01*
X87460700Y-111517831D01*
X87460700Y-112953465D01*
G36*
X93772315Y-115113000D02*
G01*
X94153258Y-115113000D01*
X94534201Y-115113000D01*
X94540751Y-113600096D01*
X94547300Y-112087193D01*
X95473691Y-113365146D01*
X95643038Y-113598691D01*
X95808095Y-113826186D01*
X95965660Y-114043228D01*
X96112533Y-114245414D01*
X96245512Y-114428339D01*
X96361395Y-114587601D01*
X96456983Y-114718796D01*
X96529074Y-114817520D01*
X96573491Y-114878050D01*
X96746900Y-115113000D01*
X97082200Y-115111641D01*
X97417500Y-115110282D01*
X98509700Y-113607972D01*
X99601900Y-112105662D01*
X99608452Y-113609331D01*
X99615003Y-115113000D01*
X99995802Y-115113000D01*
X100376600Y-115113000D01*
X100376600Y-112941300D01*
X100376600Y-110769600D01*
X99999901Y-110769600D01*
X99623201Y-110769600D01*
X98342551Y-112534138D01*
X98149632Y-112799689D01*
X97965139Y-113053135D01*
X97791258Y-113291498D01*
X97630180Y-113511804D01*
X97484091Y-113711074D01*
X97355182Y-113886332D01*
X97245639Y-114034602D01*
X97157653Y-114152907D01*
X97093410Y-114238270D01*
X97055101Y-114287714D01*
X97044678Y-114299438D01*
X97036681Y-114292278D01*
X97017593Y-114269402D01*
X96986166Y-114229099D01*
X96941150Y-114169658D01*
X96881297Y-114089366D01*
X96805360Y-113986512D01*
X96712088Y-113859385D01*
X96600234Y-113706272D01*
X96468550Y-113525462D01*
X96315786Y-113315243D01*
X96140694Y-113073905D01*
X95942025Y-112799734D01*
X95718532Y-112491019D01*
X95468964Y-112146049D01*
X95192075Y-111763113D01*
X94918681Y-111384868D01*
X94473045Y-110768236D01*
X94129173Y-110775268D01*
X93785300Y-110782300D01*
X93778808Y-112947650D01*
X93772315Y-115113000D01*
G37*
X93772315Y-115113000D02*
X94153258Y-115113000D01*
X94534201Y-115113000D01*
X94540751Y-113600096D01*
X94547300Y-112087193D01*
X95473691Y-113365146D01*
X95643038Y-113598691D01*
X95808095Y-113826186D01*
X95965660Y-114043228D01*
X96112533Y-114245414D01*
X96245512Y-114428339D01*
X96361395Y-114587601D01*
X96456983Y-114718796D01*
X96529074Y-114817520D01*
X96573491Y-114878050D01*
X96746900Y-115113000D01*
X97082200Y-115111641D01*
X97417500Y-115110282D01*
X98509700Y-113607972D01*
X99601900Y-112105662D01*
X99608452Y-113609331D01*
X99615003Y-115113000D01*
X99995802Y-115113000D01*
X100376600Y-115113000D01*
X100376600Y-112941300D01*
X100376600Y-110769600D01*
X99999901Y-110769600D01*
X99623201Y-110769600D01*
X98342551Y-112534138D01*
X98149632Y-112799689D01*
X97965139Y-113053135D01*
X97791258Y-113291498D01*
X97630180Y-113511804D01*
X97484091Y-113711074D01*
X97355182Y-113886332D01*
X97245639Y-114034602D01*
X97157653Y-114152907D01*
X97093410Y-114238270D01*
X97055101Y-114287714D01*
X97044678Y-114299438D01*
X97036681Y-114292278D01*
X97017593Y-114269402D01*
X96986166Y-114229099D01*
X96941150Y-114169658D01*
X96881297Y-114089366D01*
X96805360Y-113986512D01*
X96712088Y-113859385D01*
X96600234Y-113706272D01*
X96468550Y-113525462D01*
X96315786Y-113315243D01*
X96140694Y-113073905D01*
X95942025Y-112799734D01*
X95718532Y-112491019D01*
X95468964Y-112146049D01*
X95192075Y-111763113D01*
X94918681Y-111384868D01*
X94473045Y-110768236D01*
X94129173Y-110775268D01*
X93785300Y-110782300D01*
X93778808Y-112947650D01*
X93772315Y-115113000D01*
D14*
X85532000Y-76962000D02*
G75*
G03X85532000Y-76962000I-950000J0D01*
G01*
X85278000Y-72136000D02*
G75*
G03X85278000Y-72136000I-950000J0D01*
G01*
X103780000Y-85980000D02*
G75*
G03X103780000Y-85980000I-950000J0D01*
G01*
X103760000Y-89070000D02*
G75*
G03X103760000Y-89070000I-950000J0D01*
G01*
D10*
X104876190Y-84302380D02*
X104876190Y-83302380D01*
X104495238Y-83302380D01*
X104400000Y-83350000D01*
X104352380Y-83397619D01*
X104304761Y-83492857D01*
X104304761Y-83635714D01*
X104352380Y-83730952D01*
X104400000Y-83778571D01*
X104495238Y-83826190D01*
X104876190Y-83826190D01*
X103733333Y-84302380D02*
X103828571Y-84254761D01*
X103876190Y-84207142D01*
X103923809Y-84111904D01*
X103923809Y-83826190D01*
X103876190Y-83730952D01*
X103828571Y-83683333D01*
X103733333Y-83635714D01*
X103590476Y-83635714D01*
X103495238Y-83683333D01*
X103447619Y-83730952D01*
X103400000Y-83826190D01*
X103400000Y-84111904D01*
X103447619Y-84207142D01*
X103495238Y-84254761D01*
X103590476Y-84302380D01*
X103733333Y-84302380D01*
X103066666Y-83635714D02*
X102876190Y-84302380D01*
X102685714Y-83826190D01*
X102495238Y-84302380D01*
X102304761Y-83635714D01*
X101542857Y-84254761D02*
X101638095Y-84302380D01*
X101828571Y-84302380D01*
X101923809Y-84254761D01*
X101971428Y-84159523D01*
X101971428Y-83778571D01*
X101923809Y-83683333D01*
X101828571Y-83635714D01*
X101638095Y-83635714D01*
X101542857Y-83683333D01*
X101495238Y-83778571D01*
X101495238Y-83873809D01*
X101971428Y-83969047D01*
X101066666Y-84302380D02*
X101066666Y-83635714D01*
X101066666Y-83826190D02*
X101019047Y-83730952D01*
X100971428Y-83683333D01*
X100876190Y-83635714D01*
X100780952Y-83635714D01*
X103988095Y-91902380D02*
X104321428Y-91426190D01*
X104559523Y-91902380D02*
X104559523Y-90902380D01*
X104178571Y-90902380D01*
X104083333Y-90950000D01*
X104035714Y-90997619D01*
X103988095Y-91092857D01*
X103988095Y-91235714D01*
X104035714Y-91330952D01*
X104083333Y-91378571D01*
X104178571Y-91426190D01*
X104559523Y-91426190D01*
X103178571Y-91854761D02*
X103273809Y-91902380D01*
X103464285Y-91902380D01*
X103559523Y-91854761D01*
X103607142Y-91759523D01*
X103607142Y-91378571D01*
X103559523Y-91283333D01*
X103464285Y-91235714D01*
X103273809Y-91235714D01*
X103178571Y-91283333D01*
X103130952Y-91378571D01*
X103130952Y-91473809D01*
X103607142Y-91569047D01*
X102750000Y-91854761D02*
X102654761Y-91902380D01*
X102464285Y-91902380D01*
X102369047Y-91854761D01*
X102321428Y-91759523D01*
X102321428Y-91711904D01*
X102369047Y-91616666D01*
X102464285Y-91569047D01*
X102607142Y-91569047D01*
X102702380Y-91521428D01*
X102750000Y-91426190D01*
X102750000Y-91378571D01*
X102702380Y-91283333D01*
X102607142Y-91235714D01*
X102464285Y-91235714D01*
X102369047Y-91283333D01*
X101511904Y-91854761D02*
X101607142Y-91902380D01*
X101797619Y-91902380D01*
X101892857Y-91854761D01*
X101940476Y-91759523D01*
X101940476Y-91378571D01*
X101892857Y-91283333D01*
X101797619Y-91235714D01*
X101607142Y-91235714D01*
X101511904Y-91283333D01*
X101464285Y-91378571D01*
X101464285Y-91473809D01*
X101940476Y-91569047D01*
X101178571Y-91235714D02*
X100797619Y-91235714D01*
X101035714Y-90902380D02*
X101035714Y-91759523D01*
X100988095Y-91854761D01*
X100892857Y-91902380D01*
X100797619Y-91902380D01*
M02*
