  0
SECTION
  2
HEADER
  9
$ACADVER
  1
AC1015
  9
$ACADMAINTVER
 70
     6
  9
$DWGCODEPAGE
  3
ANSI_1252
  9
$INSBASE
 10
0.0
 20
0.0
 30
0.0
  9
$EXTMIN
 10
0.0
 20
0.0
 30
0.0
  9
$EXTMAX
 10
420.0
 20
297.0
 30
0.0
  9
$LIMMIN
 10
0.0
 20
0.0
  9
$LIMMAX
 10
420.0
 20
297.0
  9
$ORTHOMODE
 70
     0
  9
$REGENMODE
 70
     1
  9
$FILLMODE
 70
     1
  9
$QTEXTMODE
 70
     0
  9
$MIRRTEXT
 70
     1
  9
$LTSCALE
 40
1.0
  9
$ATTMODE
 70
     1
  9
$TEXTSIZE
 40
3.5
  9
$TRACEWID
 40
1.0
  9
$TEXTSTYLE
  7
Standard
  9
$CLAYER
  8
0
  9
$CELTYPE
  6
ByLayer
  9
$CECOLOR
 62
   256
  9
$CELTSCALE
 40
1.0
  9
$DISPSILH
 70
     0
  9
$DIMSCALE
 40
1.0
  9
$DIMASZ
 40
3.0
  9
$DIMEXO
 40
1.0
  9
$DIMDLI
 40
3.75
  9
$DIMRND
 40
0.0
  9
$DIMDLE
 40
0.0
  9
$DIMEXE
 40
2.0
  9
$DIMTP
 40
0.0
  9
$DIMTM
 40
0.0
  9
$DIMTXT
 40
2.5
  9
$DIMCEN
 40
2.5
  9
$DIMTSZ
 40
0.0
  9
$DIMTOL
 70
     0
  9
$DIMLIM
 70
     0
  9
$DIMTIH
 70
     1
  9
$DIMTOH
 70
     1
  9
$DIMSE1
 70
     0
  9
$DIMSE2
 70
     0
  9
$DIMTAD
 70
     1
  9
$DIMZIN
 70
     0
  9
$DIMBLK
  1

  9
$DIMASO
 70
     1
  9
$DIMSHO
 70
     1
  9
$DIMPOST
  1

  9
$DIMAPOST
  1

  9
$DIMALT
 70
     0
  9
$DIMALTD
 70
     3
  9
$DIMALTF
 40
0.0393700787
  9
$DIMLFAC
 40
1.0
  9
$DIMTOFL
 70
     1
  9
$DIMTVP
 40
0.0
  9
$DIMTIX
 70
     0
  9
$DIMSOXD
 70
     0
  9
$DIMSAH
 70
     0
  9
$DIMBLK1
  1

  9
$DIMBLK2
  1

  9
$DIMSTYLE
  2
ISO-25
  9
$DIMCLRD
 70
     0
  9
$DIMCLRE
 70
     0
  9
$DIMCLRT
 70
     0
  9
$DIMTFAC
 40
1.0
  9
$DIMGAP
 40
2.0
  9
$DIMJUST
 70
     0
  9
$DIMSD1
 70
     0
  9
$DIMSD2
 70
     0
  9
$DIMTOLJ
 70
     0
  9
$DIMTZIN
 70
     0
  9
$DIMALTZ
 70
     0
  9
$DIMALTTZ
 70
     0
  9
$DIMUPT
 70
     0
  9
$DIMDEC
 70
     1
  9
$DIMTDEC
 70
     1
  9
$DIMALTU
 70
     2
  9
$DIMALTTD
 70
     3
  9
$DIMTXSTY
  7
Standard
  9
$DIMAUNIT
 70
     0
  9
$DIMADEC
 70
     1
  9
$DIMALTRND
 40
0.0
  9
$DIMAZIN
 70
     0
  9
$DIMDSEP
 70
    44
  9
$DIMATFIT
 70
     3
  9
$DIMFRAC
 70
     0
  9
$DIMLDRBLK
  1

  9
$DIMLUNIT
 70
     2
  9
$DIMLWD
 70
    -2
  9
$DIMLWE
 70
    -2
  9
$DIMTMOVE
 70
     0
  9
$LUNITS
 70
     2
  9
$LUPREC
 70
     1
  9
$SKETCHINC
 40
1.0
  9
$FILLETRAD
 40
10.0
  9
$AUNITS
 70
     0
  9
$AUPREC
 70
     1
  9
$MENU
  1
.
  9
$ELEVATION
 40
0.0
  9
$PELEVATION
 40
0.0
  9
$THICKNESS
 40
0.0
  9
$LIMCHECK
 70
     0
  9
$CHAMFERA
 40
0.0
  9
$CHAMFERB
 40
0.0
  9
$CHAMFERC
 40
0.0
  9
$CHAMFERD
 40
0.0
  9
$SKPOLY
 70
     0
  9
$TDCREATE
 40
2459180.632386123
  9
$TDUCREATE
 40
2459180.590719456
  9
$TDUPDATE
 40
2459180.632392222
  9
$TDUUPDATE
 40
2459180.590725556
  9
$TDINDWG
 40
0.0000000116
  9
$TDUSRTIMER
 40
0.0000000116
  9
$USRTIMER
 70
     1
  9
$ANGBASE
 50
0.0
  9
$ANGDIR
 70
     0
  9
$PDMODE
 70
     0
  9
$PDSIZE
 40
-1.0
  9
$PLINEWID
 40
0.0
  9
$SPLFRAME
 70
     0
  9
$SPLINETYPE
 70
     6
  9
$SPLINESEGS
 70
     8
  9
$HANDSEED
  5
26F
  9
$SURFTAB1
 70
     6
  9
$SURFTAB2
 70
     6
  9
$SURFTYPE
 70
     6
  9
$SURFU
 70
     6
  9
$SURFV
 70
     6
  9
$UCSBASE
  2

  9
$UCSNAME
  2

  9
$UCSORG
 10
0.0
 20
0.0
 30
0.0
  9
$UCSXDIR
 10
1.0
 20
0.0
 30
0.0
  9
$UCSYDIR
 10
0.0
 20
1.0
 30
0.0
  9
$UCSORTHOREF
  2

  9
$UCSORTHOVIEW
 70
     0
  9
$UCSORGTOP
 10
0.0
 20
0.0
 30
0.0
  9
$UCSORGBOTTOM
 10
0.0
 20
0.0
 30
0.0
  9
$UCSORGLEFT
 10
0.0
 20
0.0
 30
0.0
  9
$UCSORGRIGHT
 10
0.0
 20
0.0
 30
0.0
  9
$UCSORGFRONT
 10
0.0
 20
0.0
 30
0.0
  9
$UCSORGBACK
 10
0.0
 20
0.0
 30
0.0
  9
$PUCSBASE
  2

  9
$PUCSNAME
  2

  9
$PUCSORG
 10
0.0
 20
0.0
 30
0.0
  9
$PUCSXDIR
 10
1.0
 20
0.0
 30
0.0
  9
$PUCSYDIR
 10
0.0
 20
1.0
 30
0.0
  9
$PUCSORTHOREF
  2

  9
$PUCSORTHOVIEW
 70
     0
  9
$PUCSORGTOP
 10
0.0
 20
0.0
 30
0.0
  9
$PUCSORGBOTTOM
 10
0.0
 20
0.0
 30
0.0
  9
$PUCSORGLEFT
 10
0.0
 20
0.0
 30
0.0
  9
$PUCSORGRIGHT
 10
0.0
 20
0.0
 30
0.0
  9
$PUCSORGFRONT
 10
0.0
 20
0.0
 30
0.0
  9
$PUCSORGBACK
 10
0.0
 20
0.0
 30
0.0
  9
$USERI1
 70
     0
  9
$USERI2
 70
     0
  9
$USERI3
 70
     0
  9
$USERI4
 70
     0
  9
$USERI5
 70
     0
  9
$USERR1
 40
0.0
  9
$USERR2
 40
0.0
  9
$USERR3
 40
0.0
  9
$USERR4
 40
0.0
  9
$USERR5
 40
0.0
  9
$WORLDVIEW
 70
     1
  9
$SHADEDGE
 70
     3
  9
$SHADEDIF
 70
    70
  9
$TILEMODE
 70
     1
  9
$MAXACTVP
 70
    64
  9
$PINSBASE
 10
0.0
 20
0.0
 30
0.0
  9
$PLIMCHECK
 70
     0
  9
$PEXTMIN
 10
1.0000000000E+20
 20
1.0000000000E+20
 30
1.0000000000E+20
  9
$PEXTMAX
 10
-1.0000000000E+20
 20
-1.0000000000E+20
 30
-1.0000000000E+20
  9
$PLIMMIN
 10
0.0
 20
0.0
  9
$PLIMMAX
 10
420.0
 20
297.0
  9
$UNITMODE
 70
     0
  9
$VISRETAIN
 70
     1
  9
$PLINEGEN
 70
     0
  9
$PSLTSCALE
 70
     1
  9
$TREEDEPTH
 70
  3020
  9
$CMLSTYLE
  2
Standard
  9
$CMLJUST
 70
     0
  9
$CMLSCALE
 40
20.0
  9
$PROXYGRAPHICS
 70
     1
  9
$MEASUREMENT
 70
     1
  9
$CELWEIGHT
370
    -1
  9
$ENDCAPS
280
     0
  9
$JOINSTYLE
280
     0
  9
$LWDISPLAY
290
     1
  9
$INSUNITS
 70
     4
  9
$HYPERLINKBASE
  1

  9
$STYLESHEET
  1

  9
$XEDIT
290
     1
  9
$CEPSNTYPE
380
     0
  9
$PSTYLEMODE
290
     1
  9
$FINGERPRINTGUID
  2
{b1283697-ce08-4f0e-b9a9-84000a466eac}
  9
$VERSIONGUID
  2
{FAEB1C32-E019-11D5-929B-00C0DF256EC4}
  9
$EXTNAMES
290
     1
  9
$PSVPSCALE
 40
0.0
  9
$OLESTARTUP
290
     0
  0
ENDSEC
  0
SECTION
  2
CLASSES
  0
CLASS
  1
ACDBDICTIONARYWDFLT
  2
AcDbDictionaryWithDefault
  3
ObjectDBX Classes
 90
        0
280
     0
281
     0
  0
CLASS
  1
VISUALSTYLE
  2
AcDbVisualStyle
  3
ObjectDBX Classes
 90
     4095
280
     0
281
     0
  0
CLASS
  1
MATERIAL
  2
AcDbMaterial
  3
ObjectDBX Classes
 90
     1153
280
     0
281
     0
  0
CLASS
  1
SCALE
  2
AcDbScale
  3
ObjectDBX Classes
 90
     1153
280
     0
281
     0
  0
CLASS
  1
TABLESTYLE
  2
AcDbTableStyle
  3
ObjectDBX Classes
 90
     4095
280
     0
281
     0
  0
CLASS
  1
MLEADERSTYLE
  2
AcDbMLeaderStyle
  3
ACDB_MLEADERSTYLE_CLASS
 90
     4095
280
     0
281
     0
  0
CLASS
  1
SUN
  2
AcDbSun
  3
SCENEOE
 90
     1153
280
     0
281
     0
  0
CLASS
  1
ACDBPLACEHOLDER
  2
AcDbPlaceHolder
  3
ObjectDBX Classes
 90
        0
280
     0
281
     0
  0
CLASS
  1
LAYOUT
  2
AcDbLayout
  3
ObjectDBX Classes
 90
        0
280
     0
281
     0
  0
ENDSEC
  0
SECTION
  2
TABLES
  0
TABLE
  2
VPORT
  5
8
330
0
100
AcDbSymbolTable
 70
     1
  0
VPORT
  5
29
330
8
100
AcDbSymbolTableRecord
100
AcDbViewportTableRecord
  2
*Active
 70
     0
 10
0.0
 20
0.0
 11
1.0
 21
1.0
 12
210.0
 22
148.5
 13
0.0
 23
0.0
 14
10.0
 24
10.0
 15
10.0
 25
10.0
 16
0.0
 26
0.0
 36
1.0
 17
0.0
 27
0.0
 37
0.0
 40
297.0
 41
1.4141414141
 42
50.0
 43
0.0
 44
0.0
 50
0.0
 51
0.0
 71
     0
 72
  2000
 73
     1
 74
     3
 75
     0
 76
     0
 77
     0
 78
     0
281
     0
 65
     1
110
0.0
120
0.0
130
0.0
111
1.0
121
0.0
131
0.0
112
0.0
122
1.0
132
0.0
 79
     0
146
0.0
  0
ENDTAB
  0
TABLE
  2
LTYPE
  5
5
330
0
100
AcDbSymbolTable
 70
     6
  0
LTYPE
  5
14
330
5
100
AcDbSymbolTableRecord
100
AcDbLinetypeTableRecord
  2
ByBlock
 70
     0
  3

 72
    65
 73
     0
 40
0.0
  0
LTYPE
  5
15
330
5
100
AcDbSymbolTableRecord
100
AcDbLinetypeTableRecord
  2
ByLayer
 70
     0
  3

 72
    65
 73
     0
 40
0.0
  0
LTYPE
  5
16
330
5
100
AcDbSymbolTableRecord
100
AcDbLinetypeTableRecord
  2
Continuous
 70
     0
  3
Solid line
 72
    65
 73
     0
 40
0.0
  0
LTYPE
  5
6E
330
5
100
AcDbSymbolTableRecord
100
AcDbLinetypeTableRecord
  2
HIDDEN
 70
     0
  3
Hidden __ __ __ __ __ __ __ __ __ __ __ __ __ __
 72
    65
 73
     2
 40
1.905
 49
1.27
 74
     0
 49
-0.635
 74
     0
  0
LTYPE
  5
6F
330
5
100
AcDbSymbolTableRecord
100
AcDbLinetypeTableRecord
  2
PHANTOM
 70
     0
  3
Phantom ______  __  __  ______  __  __  ______
 72
    65
 73
     6
 40
12.7
 49
6.35
 74
     0
 49
-1.27
 74
     0
 49
1.27
 74
     0
 49
-1.27
 74
     0
 49
1.27
 74
     0
 49
-1.27
 74
     0
  0
LTYPE
  5
70
330
5
100
AcDbSymbolTableRecord
100
AcDbLinetypeTableRecord
  2
CENTER
 70
     0
  3
Center ____ _ ____ _ ____ _ ____ _ ____ _ ____
 72
    65
 73
     4
 40
10.16
 49
6.35
 74
     0
 49
-1.27
 74
     0
 49
1.27
 74
     0
 49
-1.27
 74
     0
  0
LTYPE
  5
71
330
5
100
AcDbSymbolTableRecord
100
AcDbLinetypeTableRecord
  2
CENTERX2
 70
     0
  3
Center (2x) ________  __  ________  __  _____
 72
    65
 73
     4
 40
20.32
 49
12.7
 74
     0
 49
-2.54
 74
     0
 49
2.54
 74
     0
 49
-2.54
 74
     0
  0
LTYPE
  5
72
330
5
100
AcDbSymbolTableRecord
100
AcDbLinetypeTableRecord
  2
DOT2
 70
     0
  3
Dot (.5x) ........................................
 72
    65
 73
     2
 40
0.635
 49
0.0
 74
     0
 49
-0.635
 74
     0
  0
ENDTAB
  0
TABLE
  2
LAYER
  5
2
330
0
100
AcDbSymbolTable
 70
    15
  0
LAYER
  5
10
330
2
100
AcDbSymbolTableRecord
100
AcDbLayerTableRecord
  2
0
 70
     0
 62
     7
  6
Continuous
370
    -3
390
F
  0
LAYER
  5
73
330
2
100
AcDbSymbolTableRecord
100
AcDbLayerTableRecord
  2
DIM&TEXT
 70
     0
 62
     7
  6
Continuous
370
    -3
390
F
  0
LAYER
  5
74
330
2
100
AcDbSymbolTableRecord
100
AcDbLayerTableRecord
  2
TABLES
 70
     0
 62
     7
  6
Continuous
370
    -3
390
F
  0
LAYER
  5
75
330
2
100
AcDbSymbolTableRecord
100
AcDbLayerTableRecord
  2
FORMAT
 70
     0
 62
     7
  6
Continuous
370
    -3
390
F
  0
LAYER
  5
76
330
2
100
AcDbSymbolTableRecord
100
AcDbLayerTableRecord
  2
PCB_CUT_LAYER
 70
     0
 62
     7
  6
Continuous
370
    -3
390
F
  0
LAYER
  5
77
330
2
100
AcDbSymbolTableRecord
100
AcDbLayerTableRecord
  2
JACKS
 70
     0
 62
     1
  6
Continuous
370
    -3
390
F
  0
LAYER
  5
78
330
2
100
AcDbSymbolTableRecord
100
AcDbLayerTableRecord
  2
FOOTSWITCHES
 70
     0
 62
   190
  6
Continuous
370
    -3
390
F
  0
LAYER
  5
79
330
2
100
AcDbSymbolTableRecord
100
AcDbLayerTableRecord
  2
HMI_LINE
 70
     0
 62
   102
  6
Continuous
370
    -3
390
F
  0
LAYER
  5
7A
330
2
100
AcDbSymbolTableRecord
100
AcDbLayerTableRecord
  2
ENCODERS
 70
     0
 62
     5
  6
Continuous
370
    -3
390
F
  0
LAYER
  5
7B
330
2
100
AcDbSymbolTableRecord
100
AcDbLayerTableRecord
  2
LEDS
 70
     0
 62
   190
  6
Continuous
370
    -3
390
F
  0
LAYER
  5
7C
330
2
100
AcDbSymbolTableRecord
100
AcDbLayerTableRecord
  2
BUTTONS
 70
     0
 62
    30
  6
Continuous
370
    -3
390
F
  0
LAYER
  5
7D
330
2
100
AcDbSymbolTableRecord
100
AcDbLayerTableRecord
  2
SWITCHES
 70
     0
 62
     2
  6
Continuous
370
    -3
390
F
  0
LAYER
  5
7E
330
2
100
AcDbSymbolTableRecord
100
AcDbLayerTableRecord
  2
LCD_BRACKET
 70
     0
 62
     1
  6
Continuous
370
    -3
390
F
  0
LAYER
  5
7F
330
2
100
AcDbSymbolTableRecord
100
AcDbLayerTableRecord
  2
SCREW_BOSSES
 70
     0
 62
     6
  6
Continuous
370
    -3
390
F
  0
LAYER
  5
80
330
2
100
AcDbSymbolTableRecord
100
AcDbLayerTableRecord
  2
RIBBON_CONNECTOR
 70
     0
 62
    11
  6
Continuous
370
    -3
390
F
  0
ENDTAB
  0
TABLE
  2
STYLE
  5
3
330
0
100
AcDbSymbolTable
 70
     2
  0
STYLE
  5
11
330
3
100
AcDbSymbolTableRecord
100
AcDbTextStyleTableRecord
  2
Standard
 70
     0
 40
0.0
 41
1.0
 50
0.0
 71
     0
 42
3.5
  3
txt
  4

  0
STYLE
  5
215
330
3
100
AcDbSymbolTableRecord
100
AcDbTextStyleTableRecord
  2
SLDTEXTSTYLE0
 70
     0
 40
0.0
 41
0.75
 50
0.0
 71
     0
 42
3.5
  3
TXT
  4

  0
ENDTAB
  0
TABLE
  2
VIEW
  5
6
330
0
100
AcDbSymbolTable
 70
     0
  0
ENDTAB
  0
TABLE
  2
UCS
  5
7
330
0
100
AcDbSymbolTable
 70
     0
  0
ENDTAB
  0
TABLE
  2
APPID
  5
9
330
0
100
AcDbSymbolTable
 70
     1
  0
APPID
  5
12
330
9
100
AcDbSymbolTableRecord
100
AcDbRegAppTableRecord
  2
ACAD
 70
     0
  0
ENDTAB
  0
TABLE
  2
DIMSTYLE
  5
A
330
0
100
AcDbSymbolTable
 70
     3
100
AcDbDimStyleTable
  0
DIMSTYLE
105
27
330
A
100
AcDbSymbolTableRecord
100
AcDbDimStyleTableRecord
  2
ISO-25
 70
     0
 41
2.5
 42
0.625
 43
3.75
 44
1.25
 73
     0
 74
     0
 77
     1
 78
     8
140
2.5
141
2.5
143
0.0393700787
147
0.625
171
     3
172
     1
178
     0
271
     2
272
     2
274
     3
278
    44
283
     0
284
     8
340
11
  0
DIMSTYLE
105
221
330
A
100
AcDbSymbolTableRecord
100
AcDbDimStyleTableRecord
  2
SLDDIMSTYLE0
 70
     0
 41
3.0
 44
0.0
 45
0.000000001
146
3.0
147
0.0
173
     1
178
     0
271
     0
272
     0
276
     2
340
11
  0
DIMSTYLE
105
24D
330
A
100
AcDbSymbolTableRecord
100
AcDbDimStyleTableRecord
  2
SLDDIMSTYLE1
 70
     0
 41
3.0
 44
0.0
 45
0.000000001
146
3.0
147
0.0
173
     1
178
     0
271
     0
272
     0
276
     2
340
11
341
24E
343
24E
344
24E
  0
ENDTAB
  0
TABLE
  2
BLOCK_RECORD
  5
1
330
0
100
AcDbSymbolTable
 70
    14
  0
BLOCK_RECORD
  5
1F
330
1
100
AcDbSymbolTableRecord
100
AcDbBlockTableRecord
  2
*Model_Space
340
22
  0
BLOCK_RECORD
  5
1B
330
1
100
AcDbSymbolTableRecord
100
AcDbBlockTableRecord
  2
*Paper_Space
340
1E
  0
BLOCK_RECORD
  5
23
330
1
100
AcDbSymbolTableRecord
100
AcDbBlockTableRecord
  2
*Paper_Space0
340
26
  0
BLOCK_RECORD
  5
1C0
330
1
100
AcDbSymbolTableRecord
100
AcDbBlockTableRecord
  2
SW_HATCH_0
340
0
102
{BLKREFS
331
1E5
102
}
  0
BLOCK_RECORD
  5
1E6
330
1
100
AcDbSymbolTableRecord
100
AcDbBlockTableRecord
  2
SW_HATCH_1
340
0
102
{BLKREFS
331
212
102
}
  0
BLOCK_RECORD
  5
21B
330
1
100
AcDbSymbolTableRecord
100
AcDbBlockTableRecord
  2
SW_NOTE_0
340
0
102
{BLKREFS
331
220
102
}
  0
BLOCK_RECORD
  5
223
330
1
100
AcDbSymbolTableRecord
100
AcDbBlockTableRecord
  2
SW_NOTE_0_1
340
0
102
{BLKREFS
331
228
102
}
  0
BLOCK_RECORD
  5
22A
330
1
100
AcDbSymbolTableRecord
100
AcDbBlockTableRecord
  2
SW_NOTE_0_2
340
0
102
{BLKREFS
331
22F
102
}
  0
BLOCK_RECORD
  5
231
330
1
100
AcDbSymbolTableRecord
100
AcDbBlockTableRecord
  2
SW_NOTE_0_3
340
0
102
{BLKREFS
331
236
102
}
  0
BLOCK_RECORD
  5
238
330
1
100
AcDbSymbolTableRecord
100
AcDbBlockTableRecord
  2
SW_NOTE_0_4
340
0
102
{BLKREFS
331
23D
102
}
  0
BLOCK_RECORD
  5
23F
330
1
100
AcDbSymbolTableRecord
100
AcDbBlockTableRecord
  2
SW_NOTE_0_5
340
0
102
{BLKREFS
331
244
102
}
  0
BLOCK_RECORD
  5
246
330
1
100
AcDbSymbolTableRecord
100
AcDbBlockTableRecord
  2
SW_NOTE_0_6
340
0
102
{BLKREFS
331
24C
102
}
  0
BLOCK_RECORD
  5
24E
330
1
100
AcDbSymbolTableRecord
100
AcDbBlockTableRecord
  2
_Open30
340
0
  0
BLOCK_RECORD
  5
255
330
1
100
AcDbSymbolTableRecord
100
AcDbBlockTableRecord
  2
SW_NOTE_0_7
340
0
102
{BLKREFS
331
25B
102
}
  0
BLOCK_RECORD
  5
25D
330
1
100
AcDbSymbolTableRecord
100
AcDbBlockTableRecord
  2
SW_NOTE_0_8
340
0
102
{BLKREFS
331
262
102
}
  0
BLOCK_RECORD
  5
264
330
1
100
AcDbSymbolTableRecord
100
AcDbBlockTableRecord
  2
SW_NOTE_0_9
340
0
102
{BLKREFS
331
269
102
}
  0
ENDTAB
  0
ENDSEC
  0
SECTION
  2
BLOCKS
  0
BLOCK
  5
20
330
1F
100
AcDbEntity
  8
0
100
AcDbBlockBegin
  2
*Model_Space
 70
     0
 10
0.0
 20
0.0
 30
0.0
  3
*Model_Space
  1

  0
ENDBLK
  5
21
330
1F
100
AcDbEntity
  8
0
100
AcDbBlockEnd
  0
BLOCK
  5
1C
330
1B
100
AcDbEntity
 67
     1
  8
0
100
AcDbBlockBegin
  2
*Paper_Space
 70
     0
 10
0.0
 20
0.0
 30
0.0
  3
*Paper_Space
  1

  0
ENDBLK
  5
1D
330
1B
100
AcDbEntity
 67
     1
  8
0
100
AcDbBlockEnd
  0
BLOCK
  5
24
330
23
100
AcDbEntity
  8
0
100
AcDbBlockBegin
  2
*Paper_Space0
 70
     0
 10
0.0
 20
0.0
 30
0.0
  3
*Paper_Space0
  1

  0
ENDBLK
  5
25
330
23
100
AcDbEntity
  8
0
100
AcDbBlockEnd
  0
BLOCK
  5
1C1
330
1C0
100
AcDbEntity
  8
0
100
AcDbBlockBegin
  2
SW_HATCH_0
 70
     0
 10
0.0
 20
0.0
 30
0.0
  3
SW_HATCH_0
  1

  0
LINE
  5
1C3
330
1C0
100
AcDbEntity
  8
0
  6
Continuous
 62
     0
370
    18
100
AcDbLine
 10
0.0
 20
0.0
 30
0.0
 11
0.4062165751
 21
0.4062165751
 31
0.0
  0
LINE
  5
1C4
330
1C0
100
AcDbEntity
  8
0
  6
Continuous
 62
     0
370
    18
100
AcDbLine
 10
0.0
 20
-2.2450640303
 30
0.0
 11
2.6512806053
 21
0.4062165751
 31
0.0
  0
LINE
  5
1C5
330
1C0
100
AcDbEntity
  8
0
  6
Continuous
 62
     0
370
    18
100
AcDbLine
 10
3.3963446356
 20
-1.0937834249
 30
0.0
 11
4.8963446356
 21
0.4062165751
 31
0.0
  0
LINE
  5
1C6
330
1C0
100
AcDbEntity
  8
0
  6
Continuous
 62
     0
370
    18
100
AcDbLine
 10
0.0
 20
-4.4901280605
 30
0.0
 11
1.45
 21
-3.0401280605
 31
0.0
  0
LINE
  5
1C7
330
1C0
100
AcDbEntity
  8
0
  6
Continuous
 62
     0
370
    18
100
AcDbLine
 10
5.6414086659
 20
-1.0937834249
 30
0.0
 11
7.1414086659
 21
0.4062165751
 31
0.0
  0
LINE
  5
1C8
330
1C0
100
AcDbEntity
  8
0
  6
Continuous
 62
     0
370
    18
100
AcDbLine
 10
0.0
 20
-6.7351920908
 30
0.0
 11
1.45
 21
-5.2851920908
 31
0.0
  0
LINE
  5
1C9
330
1C0
100
AcDbEntity
  8
0
  6
Continuous
 62
     0
370
    18
100
AcDbLine
 10
7.8864726961
 20
-1.0937834249
 30
0.0
 11
9.3864726961
 21
0.4062165751
 31
0.0
  0
LINE
  5
1CA
330
1C0
100
AcDbEntity
  8
0
  6
Continuous
 62
     0
370
    18
100
AcDbLine
 10
0.3864726961
 20
-8.5937834249
 30
0.0
 11
1.8864726961
 21
-7.0937834249
 31
0.0
  0
LINE
  5
1CB
330
1C0
100
AcDbEntity
  8
0
  6
Continuous
 62
     0
370
    18
100
AcDbLine
 10
10.1315367264
 20
-1.0937834249
 30
0.0
 11
11.6315367264
 21
0.4062165751
 31
0.0
  0
LINE
  5
1CC
330
1C0
100
AcDbEntity
  8
0
  6
Continuous
 62
     0
370
    18
100
AcDbLine
 10
2.6315367264
 20
-8.5937834249
 30
0.0
 11
4.1315367264
 21
-7.0937834249
 31
0.0
  0
LINE
  5
1CD
330
1C0
100
AcDbEntity
  8
0
  6
Continuous
 62
     0
370
    18
100
AcDbLine
 10
12.3766007567
 20
-1.0937834249
 30
0.0
 11
13.8766007567
 21
0.4062165751
 31
0.0
  0
LINE
  5
1CE
330
1C0
100
AcDbEntity
  8
0
  6
Continuous
 62
     0
370
    18
100
AcDbLine
 10
4.8766007567
 20
-8.5937834249
 30
0.0
 11
6.3766007567
 21
-7.0937834249
 31
0.0
  0
LINE
  5
1CF
330
1C0
100
AcDbEntity
  8
0
  6
Continuous
 62
     0
370
    18
100
AcDbLine
 10
14.6216647869
 20
-1.0937834249
 30
0.0
 11
16.1216647869
 21
0.4062165751
 31
0.0
  0
LINE
  5
1D0
330
1C0
100
AcDbEntity
  8
0
  6
Continuous
 62
     0
370
    18
100
AcDbLine
 10
7.1216647869
 20
-8.5937834249
 30
0.0
 11
8.6216647869
 21
-7.0937834249
 31
0.0
  0
LINE
  5
1D1
330
1C0
100
AcDbEntity
  8
0
  6
Continuous
 62
     0
370
    18
100
AcDbLine
 10
16.8667288172
 20
-1.0937834249
 30
0.0
 11
18.3667288172
 21
0.4062165751
 31
0.0
  0
LINE
  5
1D2
330
1C0
100
AcDbEntity
  8
0
  6
Continuous
 62
     0
370
    18
100
AcDbLine
 10
9.3667288172
 20
-8.5937834249
 30
0.0
 11
10.8667288172
 21
-7.0937834249
 31
0.0
  0
LINE
  5
1D3
330
1C0
100
AcDbEntity
  8
0
  6
Continuous
 62
     0
370
    18
100
AcDbLine
 10
19.1117928475
 20
-1.0937834249
 30
0.0
 11
20.6117928475
 21
0.4062165751
 31
0.0
  0
LINE
  5
1D4
330
1C0
100
AcDbEntity
  8
0
  6
Continuous
 62
     0
370
    18
100
AcDbLine
 10
11.6117928475
 20
-8.5937834249
 30
0.0
 11
13.1117928475
 21
-7.0937834249
 31
0.0
  0
LINE
  5
1D5
330
1C0
100
AcDbEntity
  8
0
  6
Continuous
 62
     0
370
    18
100
AcDbLine
 10
21.3568568778
 20
-1.0937834249
 30
0.0
 11
22.8568568778
 21
0.4062165751
 31
0.0
  0
LINE
  5
1D6
330
1C0
100
AcDbEntity
  8
0
  6
Continuous
 62
     0
370
    18
100
AcDbLine
 10
13.8568568778
 20
-8.5937834249
 30
0.0
 11
15.3568568778
 21
-7.0937834249
 31
0.0
  0
LINE
  5
1D7
330
1C0
100
AcDbEntity
  8
0
  6
Continuous
 62
     0
370
    18
100
AcDbLine
 10
23.601920908
 20
-1.0937834249
 30
0.0
 11
25.101920908
 21
0.4062165751
 31
0.0
  0
LINE
  5
1D8
330
1C0
100
AcDbEntity
  8
0
  6
Continuous
 62
     0
370
    18
100
AcDbLine
 10
16.101920908
 20
-8.5937834249
 30
0.0
 11
17.601920908
 21
-7.0937834249
 31
0.0
  0
LINE
  5
1D9
330
1C0
100
AcDbEntity
  8
0
  6
Continuous
 62
     0
370
    18
100
AcDbLine
 10
25.8469849383
 20
-1.0937834249
 30
0.0
 11
27.1101393982
 21
0.169371035
 31
0.0
  0
LINE
  5
1DA
330
1C0
100
AcDbEntity
  8
0
  6
Continuous
 62
     0
370
    18
100
AcDbLine
 10
18.3469849383
 20
-8.5937834249
 30
0.0
 11
19.8469849383
 21
-7.0937834249
 31
0.0
  0
LINE
  5
1DB
330
1C0
100
AcDbEntity
  8
0
  6
Continuous
 62
     0
370
    18
100
AcDbLine
 10
28.0920489686
 20
-1.0937834249
 30
0.0
 11
29.5920489686
 21
0.4062165751
 31
0.0
  0
LINE
  5
1DC
330
1C0
100
AcDbEntity
  8
0
  6
Continuous
 62
     0
370
    18
100
AcDbLine
 10
20.5920489686
 20
-8.5937834249
 30
0.0
 11
22.0920489686
 21
-7.0937834249
 31
0.0
  0
LINE
  5
1DD
330
1C0
100
AcDbEntity
  8
0
  6
Continuous
 62
     0
370
    18
100
AcDbLine
 10
30.3371129988
 20
-1.0937834249
 30
0.0
 11
31.8371129988
 21
0.4062165751
 31
0.0
  0
LINE
  5
1DE
330
1C0
100
AcDbEntity
  8
0
  6
Continuous
 62
     0
370
    18
100
AcDbLine
 10
22.8371129988
 20
-8.5937834249
 30
0.0
 11
24.3371129988
 21
-7.0937834249
 31
0.0
  0
LINE
  5
1DF
330
1C0
100
AcDbEntity
  8
0
  6
Continuous
 62
     0
370
    18
100
AcDbLine
 10
25.0821770291
 20
-8.5937834249
 30
0.0
 11
26.5821770291
 21
-7.0937834249
 31
0.0
  0
LINE
  5
1E0
330
1C0
100
AcDbEntity
  8
0
  6
Continuous
 62
     0
370
    18
100
AcDbLine
 10
31.55
 20
-4.3710244843
 30
0.0
 11
33.0
 21
-2.9210244843
 31
0.0
  0
LINE
  5
1E1
330
1C0
100
AcDbEntity
  8
0
  6
Continuous
 62
     0
370
    18
100
AcDbLine
 10
27.3272410594
 20
-8.5937834249
 30
0.0
 11
28.8272410594
 21
-7.0937834249
 31
0.0
  0
LINE
  5
1E2
330
1C0
100
AcDbEntity
  8
0
  6
Continuous
 62
     0
370
    18
100
AcDbLine
 10
31.55
 20
-6.6160885145
 30
0.0
 11
33.0
 21
-5.1660885145
 31
0.0
  0
LINE
  5
1E3
330
1C0
100
AcDbEntity
  8
0
  6
Continuous
 62
     0
370
    18
100
AcDbLine
 10
29.5723050896
 20
-8.5937834249
 30
0.0
 11
31.0723050896
 21
-7.0937834249
 31
0.0
  0
LINE
  5
1E4
330
1C0
100
AcDbEntity
  8
0
  6
Continuous
 62
     0
370
    18
100
AcDbLine
 10
31.8173691199
 20
-8.5937834249
 30
0.0
 11
33.0
 21
-7.4111525448
 31
0.0
  0
ENDBLK
  5
1C2
330
1C0
100
AcDbEntity
  8
0
100
AcDbBlockEnd
  0
BLOCK
  5
1E7
330
1E6
100
AcDbEntity
  8
0
100
AcDbBlockBegin
  2
SW_HATCH_1
 70
     0
 10
0.0
 20
0.0
 30
0.0
  3
SW_HATCH_1
  1

  0
LINE
  5
1E9
330
1E6
100
AcDbEntity
  8
0
  6
Continuous
 62
     0
370
    18
100
AcDbLine
 10
0.0
 20
0.0
 30
0.0
 11
-0.5225320151
 21
0.5225320151
 31
0.0
  0
LINE
  5
1EA
330
1E6
100
AcDbEntity
  8
0
  6
Continuous
 62
     0
370
    18
100
AcDbLine
 10
1.1225320151
 20
0.0
 30
0.0
 11
-0.5225320151
 21
1.6450640303
 31
0.0
  0
LINE
  5
1EB
330
1E6
100
AcDbEntity
  8
0
  6
Continuous
 62
     0
370
    18
100
AcDbLine
 10
2.2450640303
 20
0.0
 30
0.0
 11
-0.5225320151
 21
2.7675960454
 31
0.0
  0
LINE
  5
1EC
330
1E6
100
AcDbEntity
  8
0
  6
Continuous
 62
     0
370
    18
100
AcDbLine
 10
3.3675960454
 20
0.0
 30
0.0
 11
-0.5225320151
 21
3.8901280605
 31
0.0
  0
LINE
  5
1ED
330
1E6
100
AcDbEntity
  8
0
  6
Continuous
 62
     0
370
    18
100
AcDbLine
 10
4.4901280605
 20
0.0
 30
0.0
 11
-0.5225320151
 21
5.0126600757
 31
0.0
  0
LINE
  5
1EE
330
1E6
100
AcDbEntity
  8
0
  6
Continuous
 62
     0
370
    18
100
AcDbLine
 10
5.6126600757
 20
0.0
 30
0.0
 11
-0.3873399243
 21
6.0
 31
0.0
  0
LINE
  5
1EF
330
1E6
100
AcDbEntity
  8
0
  6
Continuous
 62
     0
370
    18
100
AcDbLine
 10
6.7351920908
 20
0.0
 30
0.0
 11
0.7351920908
 21
6.0
 31
0.0
  0
LINE
  5
1F0
330
1E6
100
AcDbEntity
  8
0
  6
Continuous
 62
     0
370
    18
100
AcDbLine
 10
7.8577241059
 20
0.0
 30
0.0
 11
1.8577241059
 21
6.0
 31
0.0
  0
LINE
  5
1F1
330
1E6
100
AcDbEntity
  8
0
  6
Continuous
 62
     0
370
    18
100
AcDbLine
 10
8.9802561211
 20
0.0
 30
0.0
 11
2.9802561211
 21
6.0
 31
0.0
  0
LINE
  5
1F2
330
1E6
100
AcDbEntity
  8
0
  6
Continuous
 62
     0
370
    18
100
AcDbLine
 10
10.1027881362
 20
0.0
 30
0.0
 11
4.1027881362
 21
6.0
 31
0.0
  0
LINE
  5
1F3
330
1E6
100
AcDbEntity
  8
0
  6
Continuous
 62
     0
370
    18
100
AcDbLine
 10
11.2253201513
 20
0.0
 30
0.0
 11
5.2253201513
 21
6.0
 31
0.0
  0
LINE
  5
1F4
330
1E6
100
AcDbEntity
  8
0
  6
Continuous
 62
     0
370
    18
100
AcDbLine
 10
12.3478521665
 20
0.0
 30
0.0
 11
6.3478521665
 21
6.0
 31
0.0
  0
LINE
  5
1F5
330
1E6
100
AcDbEntity
  8
0
  6
Continuous
 62
     0
370
    18
100
AcDbLine
 10
13.4703841816
 20
0.0
 30
0.0
 11
7.4703841816
 21
6.0
 31
0.0
  0
LINE
  5
1F6
330
1E6
100
AcDbEntity
  8
0
  6
Continuous
 62
     0
370
    18
100
AcDbLine
 10
14.5929161967
 20
0.0
 30
0.0
 11
8.5929161967
 21
6.0
 31
0.0
  0
LINE
  5
1F7
330
1E6
100
AcDbEntity
  8
0
  6
Continuous
 62
     0
370
    18
100
AcDbLine
 10
15.7154482119
 20
0.0
 30
0.0
 11
9.7154482119
 21
6.0
 31
0.0
  0
LINE
  5
1F8
330
1E6
100
AcDbEntity
  8
0
  6
Continuous
 62
     0
370
    18
100
AcDbLine
 10
16.837980227
 20
0.0
 30
0.0
 11
10.837980227
 21
6.0
 31
0.0
  0
LINE
  5
1F9
330
1E6
100
AcDbEntity
  8
0
  6
Continuous
 62
     0
370
    18
100
AcDbLine
 10
17.9605122421
 20
0.0
 30
0.0
 11
11.9605122421
 21
6.0
 31
0.0
  0
LINE
  5
1FA
330
1E6
100
AcDbEntity
  8
0
  6
Continuous
 62
     0
370
    18
100
AcDbLine
 10
19.0830442573
 20
0.0
 30
0.0
 11
13.0830442573
 21
6.0
 31
0.0
  0
LINE
  5
1FB
330
1E6
100
AcDbEntity
  8
0
  6
Continuous
 62
     0
370
    18
100
AcDbLine
 10
20.2055762724
 20
0.0
 30
0.0
 11
14.2055762724
 21
6.0
 31
0.0
  0
LINE
  5
1FC
330
1E6
100
AcDbEntity
  8
0
  6
Continuous
 62
     0
370
    18
100
AcDbLine
 10
21.3281082875
 20
0.0
 30
0.0
 11
15.3281082875
 21
6.0
 31
0.0
  0
LINE
  5
1FD
330
1E6
100
AcDbEntity
  8
0
  6
Continuous
 62
     0
370
    18
100
AcDbLine
 10
22.4506403027
 20
0.0
 30
0.0
 11
16.4506403027
 21
6.0
 31
0.0
  0
LINE
  5
1FE
330
1E6
100
AcDbEntity
  8
0
  6
Continuous
 62
     0
370
    18
100
AcDbLine
 10
23.5731723178
 20
0.0
 30
0.0
 11
17.5731723178
 21
6.0
 31
0.0
  0
LINE
  5
1FF
330
1E6
100
AcDbEntity
  8
0
  6
Continuous
 62
     0
370
    18
100
AcDbLine
 10
24.6957043329
 20
0.0
 30
0.0
 11
22.5445312747
 21
2.1511730582
 31
0.0
  0
LINE
  5
200
330
1E6
100
AcDbEntity
  8
0
  6
Continuous
 62
     0
370
    18
100
AcDbLine
 10
25.8182363481
 20
0.0
 30
0.0
 11
23.3518534552
 21
2.4663828929
 31
0.0
  0
LINE
  5
201
330
1E6
100
AcDbEntity
  8
0
  6
Continuous
 62
     0
370
    18
100
AcDbLine
 10
26.9407683632
 20
0.0
 30
0.0
 11
24.1591756357
 21
2.7815927275
 31
0.0
  0
LINE
  5
202
330
1E6
100
AcDbEntity
  8
0
  6
Continuous
 62
     0
370
    18
100
AcDbLine
 10
28.0633003783
 20
0.0
 30
0.0
 11
24.9664978162
 21
3.0968025622
 31
0.0
  0
LINE
  5
203
330
1E6
100
AcDbEntity
  8
0
  6
Continuous
 62
     0
370
    18
100
AcDbLine
 10
29.1858323935
 20
0.0
 30
0.0
 11
25.7738199966
 21
3.4120123968
 31
0.0
  0
LINE
  5
204
330
1E6
100
AcDbEntity
  8
0
  6
Continuous
 62
     0
370
    18
100
AcDbLine
 10
29.5774679849
 20
0.7308964237
 30
0.0
 11
26.5811421771
 21
3.7272222315
 31
0.0
  0
LINE
  5
205
330
1E6
100
AcDbEntity
  8
0
  6
Continuous
 62
     0
370
    18
100
AcDbLine
 10
29.5774679849
 20
1.8534284389
 30
0.0
 11
27.3884643576
 21
4.0424320662
 31
0.0
  0
LINE
  5
206
330
1E6
100
AcDbEntity
  8
0
  6
Continuous
 62
     0
370
    18
100
AcDbLine
 10
29.5774679849
 20
2.975960454
 30
0.0
 11
28.195786538
 21
4.3576419008
 31
0.0
  0
LINE
  5
207
330
1E6
100
AcDbEntity
  8
0
  6
Continuous
 62
     0
370
    18
100
AcDbLine
 10
29.5774679849
 20
4.0984924691
 30
0.0
 11
29.0031087185
 21
4.6728517355
 31
0.0
  0
LINE
  5
208
330
1E6
100
AcDbEntity
  8
0
  6
Continuous
 62
     0
370
    18
100
AcDbLine
 10
29.0383589736
 20
5.7601334955
 30
0.0
 11
28.7984924691
 21
6.0
 31
0.0
  0
LINE
  5
209
330
1E6
100
AcDbEntity
  8
0
  6
Continuous
 62
     0
370
    18
100
AcDbLine
 10
22.3832613634
 20
2.3124429695
 30
0.0
 11
18.6957043329
 21
6.0
 31
0.0
  0
LINE
  5
20A
330
1E6
100
AcDbEntity
  8
0
  6
Continuous
 62
     0
370
    18
100
AcDbLine
 10
22.5797815298
 20
3.2384548182
 30
0.0
 11
19.8182363481
 21
6.0
 31
0.0
  0
LINE
  5
20B
330
1E6
100
AcDbEntity
  8
0
  6
Continuous
 62
     0
370
    18
100
AcDbLine
 10
23.3871037103
 20
3.5536646529
 30
0.0
 11
20.9407683632
 21
6.0
 31
0.0
  0
LINE
  5
20C
330
1E6
100
AcDbEntity
  8
0
  6
Continuous
 62
     0
370
    18
100
AcDbLine
 10
24.1944258908
 20
3.8688744876
 30
0.0
 11
22.0633003783
 21
6.0
 31
0.0
  0
LINE
  5
20D
330
1E6
100
AcDbEntity
  8
0
  6
Continuous
 62
     0
370
    18
100
AcDbLine
 10
25.0017480712
 20
4.1840843222
 30
0.0
 11
23.1858323935
 21
6.0
 31
0.0
  0
LINE
  5
20E
330
1E6
100
AcDbEntity
  8
0
  6
Continuous
 62
     0
370
    18
100
AcDbLine
 10
25.8090702517
 20
4.4992941569
 30
0.0
 11
24.3083644086
 21
6.0
 31
0.0
  0
LINE
  5
20F
330
1E6
100
AcDbEntity
  8
0
  6
Continuous
 62
     0
370
    18
100
AcDbLine
 10
26.6163924322
 20
4.8145039915
 30
0.0
 11
25.4308964237
 21
6.0
 31
0.0
  0
LINE
  5
210
330
1E6
100
AcDbEntity
  8
0
  6
Continuous
 62
     0
370
    18
100
AcDbLine
 10
27.4237146127
 20
5.1297138262
 30
0.0
 11
26.5534284389
 21
6.0
 31
0.0
  0
LINE
  5
211
330
1E6
100
AcDbEntity
  8
0
  6
Continuous
 62
     0
370
    18
100
AcDbLine
 10
28.2310367931
 20
5.4449236609
 30
0.0
 11
27.675960454
 21
6.0
 31
0.0
  0
ENDBLK
  5
1E8
330
1E6
100
AcDbEntity
  8
0
100
AcDbBlockEnd
  0
BLOCK
  5
21C
330
21B
100
AcDbEntity
  8
0
100
AcDbBlockBegin
  2
SW_NOTE_0
 70
     0
 10
0.0
 20
0.0
 30
0.0
  3
SW_NOTE_0
  1

  0
LINE
  5
21E
330
21B
100
AcDbEntity
  8
JACKS
 62
     0
100
AcDbLine
 10
-12.7314060265
 20
0.0
 30
0.0
 11
0.0
 21
0.0
 31
0.0
  0
MTEXT
  5
21F
330
21B
100
AcDbEntity
  8
JACKS
 62
     0
100
AcDbMText
 10
-13.1355755645
 20
4.5366729275
 30
0.0
 40
3.5
 41
0.0
 71
     1
 72
     1
  1
Jacks
  7
SLDTEXTSTYLE0
 73
     1
 44
1.0
  0
ENDBLK
  5
21D
330
21B
100
AcDbEntity
  8
0
100
AcDbBlockEnd
  0
BLOCK
  5
224
330
223
100
AcDbEntity
  8
0
100
AcDbBlockBegin
  2
SW_NOTE_0_1
 70
     0
 10
0.0
 20
0.0
 30
0.0
  3
SW_NOTE_0_1
  1

  0
LINE
  5
226
330
223
100
AcDbEntity
  8
FOOTSWITCHES
 62
     0
100
AcDbLine
 10
30.5567913419
 20
0.0
 30
0.0
 11
0.0
 21
0.0
 31
0.0
  0
MTEXT
  5
227
330
223
100
AcDbEntity
  8
FOOTSWITCHES
 62
     0
100
AcDbMText
 10
0.4481940154
 20
4.4589839158
 30
0.0
 40
3.5
 41
0.0
 71
     1
 72
     1
  1
Foot Switches
  7
SLDTEXTSTYLE0
 73
     1
 44
1.0
  0
ENDBLK
  5
225
330
223
100
AcDbEntity
  8
0
100
AcDbBlockEnd
  0
BLOCK
  5
22B
330
22A
100
AcDbEntity
  8
0
100
AcDbBlockBegin
  2
SW_NOTE_0_2
 70
     0
 10
0.0
 20
0.0
 30
0.0
  3
SW_NOTE_0_2
  1

  0
LINE
  5
22D
330
22A
100
AcDbEntity
  8
HMI_LINE
 62
     0
100
AcDbLine
 10
35.6512319958
 20
0.0
 30
0.0
 11
0.0
 21
0.0
 31
0.0
  0
MTEXT
  5
22E
330
22A
100
AcDbEntity
  8
HMI_LINE
 62
     0
100
AcDbMText
 10
0.4149795049
 20
4.4941083015
 30
0.0
 40
3.5
 41
0.0
 71
     1
 72
     1
  1
HMI Center Line
  7
SLDTEXTSTYLE0
 73
     1
 44
1.0
  0
ENDBLK
  5
22C
330
22A
100
AcDbEntity
  8
0
100
AcDbBlockEnd
  0
BLOCK
  5
232
330
231
100
AcDbEntity
  8
0
100
AcDbBlockBegin
  2
SW_NOTE_0_3
 70
     0
 10
0.0
 20
0.0
 30
0.0
  3
SW_NOTE_0_3
  1

  0
LINE
  5
234
330
231
100
AcDbEntity
  8
SCREW_BOSSES
 62
     0
100
AcDbLine
 10
29.0449809945
 20
0.0
 30
0.0
 11
0.0
 21
0.0
 31
0.0
  0
MTEXT
  5
235
330
231
100
AcDbEntity
  8
SCREW_BOSSES
 62
     0
100
AcDbMText
 10
0.4821204913
 20
4.5976741931
 30
0.0
 40
3.5
 41
0.0
 71
     1
 72
     1
  1
Screw Bosses
  7
SLDTEXTSTYLE0
 73
     1
 44
1.0
  0
ENDBLK
  5
233
330
231
100
AcDbEntity
  8
0
100
AcDbBlockEnd
  0
BLOCK
  5
239
330
238
100
AcDbEntity
  8
0
100
AcDbBlockBegin
  2
SW_NOTE_0_4
 70
     0
 10
0.0
 20
0.0
 30
0.0
  3
SW_NOTE_0_4
  1

  0
LINE
  5
23B
330
238
100
AcDbEntity
  8
HMI_LINE
 62
     0
100
AcDbLine
 10
34.4651219165
 20
0.0
 30
0.0
 11
0.0
 21
0.0
 31
0.0
  0
MTEXT
  5
23C
330
238
100
AcDbEntity
  8
HMI_LINE
 62
     0
100
AcDbMText
 10
0.4149795049
 20
4.5027733864
 30
0.0
 40
3.5
 41
0.0
 71
     1
 72
     1
  1
HMI Receptical
  7
SLDTEXTSTYLE0
 73
     1
 44
1.0
  0
ENDBLK
  5
23A
330
238
100
AcDbEntity
  8
0
100
AcDbBlockEnd
  0
BLOCK
  5
240
330
23F
100
AcDbEntity
  8
0
100
AcDbBlockBegin
  2
SW_NOTE_0_5
 70
     0
 10
0.0
 20
0.0
 30
0.0
  3
SW_NOTE_0_5
  1

  0
LINE
  5
242
330
23F
100
AcDbEntity
  8
HMI_LINE
 62
     0
100
AcDbLine
 10
49.7630414283
 20
0.0
 30
0.0
 11
0.0
 21
0.0
 31
0.0
  0
MTEXT
  5
243
330
23F
100
AcDbEntity
  8
HMI_LINE
 62
     0
100
AcDbMText
 10
0.4149795049
 20
4.4963016367
 30
0.0
 40
3.5
 41
0.0
 71
     1
 72
     1
  1
HMI Cable Connector
  7
SLDTEXTSTYLE0
 73
     1
 44
1.0
  0
ENDBLK
  5
241
330
23F
100
AcDbEntity
  8
0
100
AcDbBlockEnd
  0
BLOCK
  5
247
330
246
100
AcDbEntity
  8
0
100
AcDbBlockBegin
  2
SW_NOTE_0_6
 70
     0
 10
0.0
 20
0.0
 30
0.0
  3
SW_NOTE_0_6
  1

  0
LINE
  5
249
330
246
100
AcDbEntity
  8
ENCODERS
 62
     0
100
AcDbLine
 10
63.3012381112
 20
0.0
 30
0.0
 11
0.0
 21
0.0
 31
0.0
  0
MTEXT
  5
24A
330
246
100
AcDbEntity
  8
ENCODERS
 62
     0
100
AcDbMText
 10
0.4750355906
 20
9.0458028674
 30
0.0
 40
3.5
 41
0.0
 71
     1
 72
     1
  1
HMI Cable Connector (TOP)
  7
SLDTEXTSTYLE0
 73
     1
 44
1.0
  0
MTEXT
  5
24B
330
246
100
AcDbEntity
  8
ENCODERS
 62
     0
100
AcDbMText
 10
0.4750355906
 20
4.5201083369
 30
0.0
 40
3.5
 41
0.0
 71
     1
 72
     1
  1
[4.6mm clearance]
  7
SLDTEXTSTYLE0
 73
     1
 44
1.0
  0
ENDBLK
  5
248
330
246
100
AcDbEntity
  8
0
100
AcDbBlockEnd
  0
BLOCK
  5
24F
330
24E
100
AcDbEntity
  8
0
100
AcDbBlockBegin
  2
_Open30
 70
     0
 10
0.0
 20
0.0
 30
0.0
  3
_Open30
  1

  0
LINE
  5
251
330
24E
100
AcDbEntity
  8
0
  6
ByBlock
 62
     0
370
    -2
100
AcDbLine
 10
-1.0
 20
0.267949
 30
0.0
 11
0.0
 21
0.0
 31
0.0
  0
LINE
  5
252
330
24E
100
AcDbEntity
  8
0
  6
ByBlock
 62
     0
370
    -2
100
AcDbLine
 10
0.0
 20
0.0
 30
0.0
 11
-1.0
 21
-0.267949
 31
0.0
  0
LINE
  5
253
330
24E
100
AcDbEntity
  8
0
  6
ByBlock
 62
     0
370
    -2
100
AcDbLine
 10
0.0
 20
0.0
 30
0.0
 11
-1.0
 21
0.0
 31
0.0
  0
ENDBLK
  5
250
330
24E
100
AcDbEntity
  8
0
100
AcDbBlockEnd
  0
BLOCK
  5
256
330
255
100
AcDbEntity
  8
0
100
AcDbBlockBegin
  2
SW_NOTE_0_7
 70
     0
 10
0.0
 20
0.0
 30
0.0
  3
SW_NOTE_0_7
  1

  0
LINE
  5
258
330
255
100
AcDbEntity
  8
ENCODERS
 62
     0
100
AcDbLine
 10
48.0033185995
 20
0.0
 30
0.0
 11
0.0
 21
0.0
 31
0.0
  0
MTEXT
  5
259
330
255
100
AcDbEntity
  8
ENCODERS
 62
     0
100
AcDbMText
 10
0.4909234411
 20
9.0466656833
 30
0.0
 40
3.5
 41
0.0
 71
     1
 72
     1
  1
HMI Receptical (TOP)
  7
SLDTEXTSTYLE0
 73
     1
 44
1.0
  0
MTEXT
  5
25A
330
255
100
AcDbEntity
  8
ENCODERS
 62
     0
100
AcDbMText
 10
0.4909234411
 20
4.5209711529
 30
0.0
 40
3.5
 41
0.0
 71
     1
 72
     1
  1
[8.7mm clearance]
  7
SLDTEXTSTYLE0
 73
     1
 44
1.0
  0
ENDBLK
  5
257
330
255
100
AcDbEntity
  8
0
100
AcDbBlockEnd
  0
BLOCK
  5
25E
330
25D
100
AcDbEntity
  8
0
100
AcDbBlockBegin
  2
SW_NOTE_0_8
 70
     0
 10
0.0
 20
0.0
 30
0.0
  3
SW_NOTE_0_8
  1

  0
LINE
  5
260
330
25D
100
AcDbEntity
  8
SWITCHES
 62
     0
100
AcDbLine
 10
-35.6807123208
 20
0.0
 30
0.0
 11
0.0
 21
0.0
 31
0.0
  0
MTEXT
  5
261
330
25D
100
AcDbEntity
  8
SWITCHES
 62
     0
100
AcDbMText
 10
-36.0893697026
 20
4.6201026075
 30
0.0
 40
3.5
 41
0.0
 71
     1
 72
     1
  1
Firefly PX30 SoM
  7
SLDTEXTSTYLE0
 73
     1
 44
1.0
  0
ENDBLK
  5
25F
330
25D
100
AcDbEntity
  8
0
100
AcDbBlockEnd
  0
BLOCK
  5
265
330
264
100
AcDbEntity
  8
0
100
AcDbBlockBegin
  2
SW_NOTE_0_9
 70
     0
 10
0.0
 20
0.0
 30
0.0
  3
SW_NOTE_0_9
  1

  0
LINE
  5
267
330
264
100
AcDbEntity
  8
BUTTONS
 62
     0
100
AcDbLine
 10
-67.0494633997
 20
0.0
 30
0.0
 11
0.0
 21
0.0
 31
0.0
  0
MTEXT
  5
268
330
264
100
AcDbEntity
  8
BUTTONS
 62
     0
100
AcDbMText
 10
-67.4507702724
 20
4.6004228552
 30
0.0
 40
3.5
 41
0.0
 71
     1
 72
     1
  1
260P DDR4 5.2 STD Connector
  7
SLDTEXTSTYLE0
 73
     1
 44
1.0
  0
ENDBLK
  5
266
330
264
100
AcDbEntity
  8
0
100
AcDbBlockEnd
  0
ENDSEC
  0
SECTION
  2
ENTITIES
  0
LINE
  5
81
330
1F
100
AcDbEntity
  8
PCB_CUT_LAYER
100
AcDbLine
 10
116.382267746
 20
119.0916565175
 30
0.0
 11
116.982267746
 21
119.0916565175
 31
0.0
  0
LINE
  5
82
330
1F
100
AcDbEntity
  8
PCB_CUT_LAYER
100
AcDbLine
 10
120.482267746
 20
114.9916565175
 30
0.0
 11
120.482267746
 21
115.5916565175
 31
0.0
  0
LINE
  5
83
330
1F
100
AcDbEntity
  8
PCB_CUT_LAYER
100
AcDbLine
 10
300.782267746
 20
113.4916565175
 30
0.0
 11
289.6802267171
 21
113.4916565175
 31
0.0
  0
LINE
  5
84
330
1F
100
AcDbEntity
  8
PCB_CUT_LAYER
100
AcDbLine
 10
302.282267746
 20
115.5916565175
 30
0.0
 11
302.282267746
 21
114.9916565175
 31
0.0
  0
LINE
  5
85
330
1F
100
AcDbEntity
  8
PCB_CUT_LAYER
100
AcDbLine
 10
306.382267746
 20
119.0916565175
 30
0.0
 11
305.782267746
 21
119.0916565175
 31
0.0
  0
LINE
  5
86
330
1F
100
AcDbEntity
  8
PCB_CUT_LAYER
100
AcDbLine
 10
307.882267746
 20
199.3916565175
 30
0.0
 11
307.882267746
 21
120.5916565175
 31
0.0
  0
LINE
  5
87
330
1F
100
AcDbEntity
  8
PCB_CUT_LAYER
100
AcDbLine
 10
305.782267746
 20
200.8916565175
 30
0.0
 11
306.382267746
 21
200.8916565175
 31
0.0
  0
LINE
  5
88
330
1F
100
AcDbEntity
  8
PCB_CUT_LAYER
100
AcDbLine
 10
302.282267746
 20
204.9916565175
 30
0.0
 11
302.282267746
 21
204.3916565175
 31
0.0
  0
LINE
  5
89
330
1F
100
AcDbEntity
  8
PCB_CUT_LAYER
100
AcDbLine
 10
114.882267746
 20
199.3916565175
 30
0.0
 11
114.882267746
 21
120.5916565175
 31
0.0
  0
LINE
  5
8A
330
1F
100
AcDbEntity
  8
PCB_CUT_LAYER
100
AcDbLine
 10
121.982267746
 20
206.4916565175
 30
0.0
 11
300.782267746
 21
206.4916565175
 31
0.0
  0
LINE
  5
8B
330
1F
100
AcDbEntity
  8
PCB_CUT_LAYER
100
AcDbLine
 10
120.482267746
 20
204.3916565175
 30
0.0
 11
120.482267746
 21
204.9916565175
 31
0.0
  0
LINE
  5
8C
330
1F
100
AcDbEntity
  8
PCB_CUT_LAYER
100
AcDbLine
 10
116.382267746
 20
200.8916565175
 30
0.0
 11
116.982267746
 21
200.8916565175
 31
0.0
  0
LINE
  5
8D
330
1F
100
AcDbEntity
  8
FOOTSWITCHES
100
AcDbLine
 10
280.682267746
 20
113.9916565175
 30
0.0
 11
296.982267746
 21
113.9916565175
 31
0.0
  0
LINE
  5
8E
330
1F
100
AcDbEntity
  8
FOOTSWITCHES
100
AcDbLine
 10
280.682267746
 20
126.9916565175
 30
0.0
 11
280.682267746
 21
113.9916565175
 31
0.0
  0
LINE
  5
8F
330
1F
100
AcDbEntity
  8
FOOTSWITCHES
100
AcDbLine
 10
296.982267746
 20
126.9916565175
 30
0.0
 11
280.682267746
 21
126.9916565175
 31
0.0
  0
LINE
  5
90
330
1F
100
AcDbEntity
  8
FOOTSWITCHES
100
AcDbLine
 10
206.482267746
 20
113.9916565175
 30
0.0
 11
222.782267746
 21
113.9916565175
 31
0.0
  0
LINE
  5
91
330
1F
100
AcDbEntity
  8
FOOTSWITCHES
100
AcDbLine
 10
222.782267746
 20
113.9916565175
 30
0.0
 11
222.782267746
 21
126.9916565175
 31
0.0
  0
LINE
  5
92
330
1F
100
AcDbEntity
  8
FOOTSWITCHES
100
AcDbLine
 10
222.782267746
 20
126.9916565175
 30
0.0
 11
206.482267746
 21
126.9916565175
 31
0.0
  0
LINE
  5
93
330
1F
100
AcDbEntity
  8
FOOTSWITCHES
100
AcDbLine
 10
125.782267746
 20
113.9916565175
 30
0.0
 11
142.082267746
 21
113.9916565175
 31
0.0
  0
LINE
  5
94
330
1F
100
AcDbEntity
  8
FOOTSWITCHES
100
AcDbLine
 10
142.082267746
 20
113.9916565175
 30
0.0
 11
142.082267746
 21
126.9916565175
 31
0.0
  0
LINE
  5
95
330
1F
100
AcDbEntity
  8
FOOTSWITCHES
100
AcDbLine
 10
142.082267746
 20
126.9916565175
 30
0.0
 11
125.782267746
 21
126.9916565175
 31
0.0
  0
LINE
  5
96
330
1F
100
AcDbEntity
  8
HMI_LINE
  6
CENTERX2
100
AcDbLine
 10
252.332267746
 20
113.4916565175
 30
0.0
 11
252.332267746
 21
206.4916565175
 31
0.0
  0
LINE
  5
97
330
1F
100
AcDbEntity
  8
PCB_CUT_LAYER
100
AcDbLine
 10
270.0843087749
 20
113.4916565175
 30
0.0
 11
121.982267746
 21
113.4916565175
 31
0.0
  0
LINE
  5
98
330
1F
100
AcDbEntity
  8
SCREW_BOSSES
100
AcDbLine
 10
118.082267746
 20
125.1916565175
 30
0.0
 11
116.382267746
 21
125.1916565175
 31
0.0
  0
LINE
  5
99
330
1F
100
AcDbEntity
  8
SCREW_BOSSES
100
AcDbLine
 10
304.682267746
 20
125.1916565175
 30
0.0
 11
306.382267746
 21
125.1916565175
 31
0.0
  0
LINE
  5
9A
330
1F
100
AcDbEntity
  8
JACKS
100
AcDbLine
 10
120.682267746
 20
183.2916565175
 30
0.0
 11
130.682267746
 21
183.2916565175
 31
0.0
  0
LINE
  5
9B
330
1F
100
AcDbEntity
  8
JACKS
100
AcDbLine
 10
140.682267746
 20
183.2916565175
 30
0.0
 11
140.682267746
 21
203.9916565175
 31
0.0
  0
LINE
  5
9C
330
1F
100
AcDbEntity
  8
JACKS
100
AcDbLine
 10
140.682267746
 20
203.9916565175
 30
0.0
 11
130.682267746
 21
203.9916565175
 31
0.0
  0
LINE
  5
9D
330
1F
100
AcDbEntity
  8
JACKS
100
AcDbLine
 10
120.682267746
 20
203.9916565175
 30
0.0
 11
120.682267746
 21
183.2916565175
 31
0.0
  0
LINE
  5
9E
330
1F
100
AcDbEntity
  8
JACKS
100
AcDbLine
 10
165.182267746
 20
192.9916565175
 30
0.0
 11
171.182267746
 21
192.9916565175
 31
0.0
  0
LINE
  5
9F
330
1F
100
AcDbEntity
  8
JACKS
100
AcDbLine
 10
165.182267746
 20
207.4916565175
 30
0.0
 11
165.182267746
 21
192.9916565175
 31
0.0
  0
LINE
  5
A0
330
1F
100
AcDbEntity
  8
JACKS
100
AcDbLine
 10
171.182267746
 20
207.4916565175
 30
0.0
 11
165.182267746
 21
207.4916565175
 31
0.0
  0
LINE
  5
A1
330
1F
100
AcDbEntity
  8
JACKS
100
AcDbLine
 10
171.182267746
 20
192.9916565175
 30
0.0
 11
171.182267746
 21
207.4916565175
 31
0.0
  0
LINE
  5
A2
330
1F
100
AcDbEntity
  8
JACKS
100
AcDbLine
 10
207.307267746
 20
195.5916565175
 30
0.0
 11
216.307267746
 21
195.5916565175
 31
0.0
  0
LINE
  5
A3
330
1F
100
AcDbEntity
  8
JACKS
100
AcDbLine
 10
216.307267746
 20
195.5916565175
 30
0.0
 11
216.307267746
 21
209.9916565175
 31
0.0
  0
LINE
  5
A4
330
1F
100
AcDbEntity
  8
JACKS
100
AcDbLine
 10
216.307267746
 20
209.9916565175
 30
0.0
 11
207.307267746
 21
209.9916565175
 31
0.0
  0
LINE
  5
A5
330
1F
100
AcDbEntity
  8
JACKS
100
AcDbLine
 10
207.307267746
 20
209.9916565175
 30
0.0
 11
207.307267746
 21
195.5916565175
 31
0.0
  0
LINE
  5
A6
330
1F
100
AcDbEntity
  8
JACKS
100
AcDbLine
 10
187.157267746
 20
193.9916565175
 30
0.0
 11
199.457267746
 21
193.9916565175
 31
0.0
  0
LINE
  5
A7
330
1F
100
AcDbEntity
  8
JACKS
100
AcDbLine
 10
199.457267746
 20
193.9916565175
 30
0.0
 11
199.457267746
 21
209.9916565175
 31
0.0
  0
LINE
  5
A8
330
1F
100
AcDbEntity
  8
JACKS
100
AcDbLine
 10
199.457267746
 20
209.9916565175
 30
0.0
 11
187.157267746
 21
209.9916565175
 31
0.0
  0
LINE
  5
A9
330
1F
100
AcDbEntity
  8
JACKS
100
AcDbLine
 10
187.157267746
 20
209.9916565175
 30
0.0
 11
187.157267746
 21
193.9916565175
 31
0.0
  0
LINE
  5
AA
330
1F
100
AcDbEntity
  8
JACKS
100
AcDbLine
 10
177.857267746
 20
187.4916565175
 30
0.0
 11
183.657267746
 21
187.4916565175
 31
0.0
  0
LINE
  5
AB
330
1F
100
AcDbEntity
  8
JACKS
100
AcDbLine
 10
183.657267746
 20
187.4916565175
 30
0.0
 11
183.657267746
 21
207.2916565175
 31
0.0
  0
LINE
  5
AC
330
1F
100
AcDbEntity
  8
JACKS
100
AcDbLine
 10
183.657267746
 20
207.2916565175
 30
0.0
 11
177.857267746
 21
207.2916565175
 31
0.0
  0
LINE
  5
AD
330
1F
100
AcDbEntity
  8
JACKS
100
AcDbLine
 10
177.857267746
 20
207.2916565175
 30
0.0
 11
177.857267746
 21
187.4916565175
 31
0.0
  0
LINE
  5
AE
330
1F
100
AcDbEntity
  8
JACKS
100
AcDbLine
 10
141.682267746
 20
183.2916565175
 30
0.0
 11
151.682267746
 21
183.2916565175
 31
0.0
  0
LINE
  5
AF
330
1F
100
AcDbEntity
  8
JACKS
100
AcDbLine
 10
141.682267746
 20
203.9916565175
 30
0.0
 11
141.682267746
 21
183.2916565175
 31
0.0
  0
LINE
  5
B0
330
1F
100
AcDbEntity
  8
JACKS
100
AcDbLine
 10
161.682267746
 20
203.9916565175
 30
0.0
 11
151.682267746
 21
203.9916565175
 31
0.0
  0
LINE
  5
B1
330
1F
100
AcDbEntity
  8
JACKS
100
AcDbLine
 10
161.682267746
 20
183.2916565175
 30
0.0
 11
161.682267746
 21
203.9916565175
 31
0.0
  0
LINE
  5
B2
330
1F
100
AcDbEntity
  8
JACKS
100
AcDbLine
 10
261.082267746
 20
183.2916565175
 30
0.0
 11
271.082267746
 21
183.2916565175
 31
0.0
  0
LINE
  5
B3
330
1F
100
AcDbEntity
  8
JACKS
100
AcDbLine
 10
281.082267746
 20
183.2916565175
 30
0.0
 11
281.082267746
 21
203.9916565175
 31
0.0
  0
LINE
  5
B4
330
1F
100
AcDbEntity
  8
JACKS
100
AcDbLine
 10
281.082267746
 20
203.9916565175
 30
0.0
 11
271.082267746
 21
203.9916565175
 31
0.0
  0
LINE
  5
B5
330
1F
100
AcDbEntity
  8
JACKS
100
AcDbLine
 10
261.082267746
 20
203.9916565175
 30
0.0
 11
261.082267746
 21
183.2916565175
 31
0.0
  0
LINE
  5
B6
330
1F
100
AcDbEntity
  8
JACKS
100
AcDbLine
 10
251.582267746
 20
192.9916565175
 30
0.0
 11
257.582267746
 21
192.9916565175
 31
0.0
  0
LINE
  5
B7
330
1F
100
AcDbEntity
  8
JACKS
100
AcDbLine
 10
257.582267746
 20
192.9916565175
 30
0.0
 11
257.582267746
 21
207.4916565175
 31
0.0
  0
LINE
  5
B8
330
1F
100
AcDbEntity
  8
JACKS
100
AcDbLine
 10
257.582267746
 20
207.4916565175
 30
0.0
 11
251.582267746
 21
207.4916565175
 31
0.0
  0
LINE
  5
B9
330
1F
100
AcDbEntity
  8
JACKS
100
AcDbLine
 10
251.582267746
 20
207.4916565175
 30
0.0
 11
251.582267746
 21
192.9916565175
 31
0.0
  0
LINE
  5
BA
330
1F
100
AcDbEntity
  8
JACKS
100
AcDbLine
 10
240.082267746
 20
192.9916565175
 30
0.0
 11
246.082267746
 21
192.9916565175
 31
0.0
  0
LINE
  5
BB
330
1F
100
AcDbEntity
  8
JACKS
100
AcDbLine
 10
246.082267746
 20
192.9916565175
 30
0.0
 11
246.082267746
 21
207.4916565175
 31
0.0
  0
LINE
  5
BC
330
1F
100
AcDbEntity
  8
JACKS
100
AcDbLine
 10
246.082267746
 20
207.4916565175
 30
0.0
 11
240.082267746
 21
207.4916565175
 31
0.0
  0
LINE
  5
BD
330
1F
100
AcDbEntity
  8
JACKS
100
AcDbLine
 10
240.082267746
 20
207.4916565175
 30
0.0
 11
240.082267746
 21
192.9916565175
 31
0.0
  0
LINE
  5
BE
330
1F
100
AcDbEntity
  8
JACKS
100
AcDbLine
 10
219.807267746
 20
192.2916565175
 30
0.0
 11
235.307267746
 21
192.2916565175
 31
0.0
  0
LINE
  5
BF
330
1F
100
AcDbEntity
  8
JACKS
100
AcDbLine
 10
219.807267746
 20
209.9916565175
 30
0.0
 11
219.807267746
 21
192.2916565175
 31
0.0
  0
LINE
  5
C0
330
1F
100
AcDbEntity
  8
JACKS
100
AcDbLine
 10
235.307267746
 20
209.9916565175
 30
0.0
 11
219.807267746
 21
209.9916565175
 31
0.0
  0
LINE
  5
C1
330
1F
100
AcDbEntity
  8
JACKS
100
AcDbLine
 10
235.307267746
 20
192.2916565175
 30
0.0
 11
235.307267746
 21
209.9916565175
 31
0.0
  0
LINE
  5
C2
330
1F
100
AcDbEntity
  8
JACKS
100
AcDbLine
 10
282.082267746
 20
183.2916565175
 30
0.0
 11
292.082267746
 21
183.2916565175
 31
0.0
  0
LINE
  5
C3
330
1F
100
AcDbEntity
  8
JACKS
100
AcDbLine
 10
282.082267746
 20
203.9916565175
 30
0.0
 11
282.082267746
 21
183.2916565175
 31
0.0
  0
LINE
  5
C4
330
1F
100
AcDbEntity
  8
JACKS
100
AcDbLine
 10
302.082267746
 20
203.9916565175
 30
0.0
 11
292.082267746
 21
203.9916565175
 31
0.0
  0
LINE
  5
C5
330
1F
100
AcDbEntity
  8
JACKS
100
AcDbLine
 10
302.082267746
 20
183.2916565175
 30
0.0
 11
302.082267746
 21
203.9916565175
 31
0.0
  0
LINE
  5
C6
330
1F
100
AcDbEntity
  8
JACKS
100
AcDbLine
 10
165.682267746
 20
207.4916565175
 30
0.0
 11
165.682267746
 21
209.9916565175
 31
0.0
  0
LINE
  5
C7
330
1F
100
AcDbEntity
  8
JACKS
100
AcDbLine
 10
165.682267746
 20
209.9916565175
 30
0.0
 11
170.682267746
 21
209.9916565175
 31
0.0
  0
LINE
  5
C8
330
1F
100
AcDbEntity
  8
JACKS
100
AcDbLine
 10
170.682267746
 20
209.9916565175
 30
0.0
 11
170.682267746
 21
207.4916565175
 31
0.0
  0
LINE
  5
C9
330
1F
100
AcDbEntity
  8
JACKS
100
AcDbLine
 10
147.182267746
 20
183.2916565175
 30
0.0
 11
147.182267746
 21
179.9916565175
 31
0.0
  0
LINE
  5
CA
330
1F
100
AcDbEntity
  8
JACKS
100
AcDbLine
 10
147.182267746
 20
179.9916565175
 30
0.0
 11
151.682267746
 21
179.9916565175
 31
0.0
  0
LINE
  5
CB
330
1F
100
AcDbEntity
  8
JACKS
100
AcDbLine
 10
156.182267746
 20
179.9916565175
 30
0.0
 11
156.182267746
 21
183.2916565175
 31
0.0
  0
LINE
  5
CC
330
1F
100
AcDbEntity
  8
JACKS
100
AcDbLine
 10
146.282267746
 20
203.9916565175
 30
0.0
 11
146.282267746
 21
207.2916565175
 31
0.0
  0
LINE
  5
CD
330
1F
100
AcDbEntity
  8
JACKS
100
AcDbLine
 10
146.282267746
 20
207.2916565175
 30
0.0
 11
151.682267746
 21
207.2916565175
 31
0.0
  0
LINE
  5
CE
330
1F
100
AcDbEntity
  8
JACKS
100
AcDbLine
 10
157.082267746
 20
207.2916565175
 30
0.0
 11
157.082267746
 21
203.9916565175
 31
0.0
  0
LINE
  5
CF
330
1F
100
AcDbEntity
  8
JACKS
100
AcDbLine
 10
287.582267746
 20
183.2916565175
 30
0.0
 11
287.582267746
 21
179.9916565175
 31
0.0
  0
LINE
  5
D0
330
1F
100
AcDbEntity
  8
JACKS
100
AcDbLine
 10
287.582267746
 20
179.9916565175
 30
0.0
 11
292.082267746
 21
179.9916565175
 31
0.0
  0
LINE
  5
D1
330
1F
100
AcDbEntity
  8
JACKS
100
AcDbLine
 10
296.582267746
 20
179.9916565175
 30
0.0
 11
296.582267746
 21
183.2916565175
 31
0.0
  0
LINE
  5
D2
330
1F
100
AcDbEntity
  8
JACKS
100
AcDbLine
 10
266.582267746
 20
183.2916565175
 30
0.0
 11
266.582267746
 21
179.9916565175
 31
0.0
  0
LINE
  5
D3
330
1F
100
AcDbEntity
  8
JACKS
100
AcDbLine
 10
266.582267746
 20
179.9916565175
 30
0.0
 11
271.082267746
 21
179.9916565175
 31
0.0
  0
LINE
  5
D4
330
1F
100
AcDbEntity
  8
JACKS
100
AcDbLine
 10
275.582267746
 20
179.9916565175
 30
0.0
 11
275.582267746
 21
183.2916565175
 31
0.0
  0
LINE
  5
D5
330
1F
100
AcDbEntity
  8
JACKS
100
AcDbLine
 10
126.182267746
 20
183.2916565175
 30
0.0
 11
126.182267746
 21
179.9916565175
 31
0.0
  0
LINE
  5
D6
330
1F
100
AcDbEntity
  8
JACKS
100
AcDbLine
 10
126.182267746
 20
179.9916565175
 30
0.0
 11
130.682267746
 21
179.9916565175
 31
0.0
  0
LINE
  5
D7
330
1F
100
AcDbEntity
  8
JACKS
100
AcDbLine
 10
135.182267746
 20
179.9916565175
 30
0.0
 11
135.182267746
 21
183.2916565175
 31
0.0
  0
LINE
  5
D8
330
1F
100
AcDbEntity
  8
JACKS
100
AcDbLine
 10
125.282267746
 20
203.9916565175
 30
0.0
 11
125.282267746
 21
207.2916565175
 31
0.0
  0
LINE
  5
D9
330
1F
100
AcDbEntity
  8
JACKS
100
AcDbLine
 10
125.282267746
 20
207.2916565175
 30
0.0
 11
130.682267746
 21
207.2916565175
 31
0.0
  0
LINE
  5
DA
330
1F
100
AcDbEntity
  8
JACKS
100
AcDbLine
 10
136.082267746
 20
207.2916565175
 30
0.0
 11
136.082267746
 21
203.9916565175
 31
0.0
  0
LINE
  5
DB
330
1F
100
AcDbEntity
  8
JACKS
100
AcDbLine
 10
286.682267746
 20
203.9916565175
 30
0.0
 11
286.682267746
 21
207.2916565175
 31
0.0
  0
LINE
  5
DC
330
1F
100
AcDbEntity
  8
JACKS
100
AcDbLine
 10
286.682267746
 20
207.2916565175
 30
0.0
 11
292.082267746
 21
207.2916565175
 31
0.0
  0
LINE
  5
DD
330
1F
100
AcDbEntity
  8
JACKS
100
AcDbLine
 10
297.482267746
 20
207.2916565175
 30
0.0
 11
297.482267746
 21
203.9916565175
 31
0.0
  0
LINE
  5
DE
330
1F
100
AcDbEntity
  8
JACKS
100
AcDbLine
 10
265.682267746
 20
203.9916565175
 30
0.0
 11
265.682267746
 21
207.2916565175
 31
0.0
  0
LINE
  5
DF
330
1F
100
AcDbEntity
  8
JACKS
100
AcDbLine
 10
265.682267746
 20
207.2916565175
 30
0.0
 11
271.082267746
 21
207.2916565175
 31
0.0
  0
LINE
  5
E0
330
1F
100
AcDbEntity
  8
JACKS
100
AcDbLine
 10
276.482267746
 20
207.2916565175
 30
0.0
 11
276.482267746
 21
203.9916565175
 31
0.0
  0
LINE
  5
E1
330
1F
100
AcDbEntity
  8
JACKS
100
AcDbLine
 10
252.082267746
 20
207.4916565175
 30
0.0
 11
252.082267746
 21
209.9916565175
 31
0.0
  0
LINE
  5
E2
330
1F
100
AcDbEntity
  8
JACKS
100
AcDbLine
 10
252.082267746
 20
209.9916565175
 30
0.0
 11
257.082267746
 21
209.9916565175
 31
0.0
  0
LINE
  5
E3
330
1F
100
AcDbEntity
  8
JACKS
100
AcDbLine
 10
257.082267746
 20
209.9916565175
 30
0.0
 11
257.082267746
 21
207.4916565175
 31
0.0
  0
LINE
  5
E4
330
1F
100
AcDbEntity
  8
JACKS
100
AcDbLine
 10
240.582267746
 20
207.4916565175
 30
0.0
 11
240.582267746
 21
209.9916565175
 31
0.0
  0
LINE
  5
E5
330
1F
100
AcDbEntity
  8
JACKS
100
AcDbLine
 10
240.582267746
 20
209.9916565175
 30
0.0
 11
245.582267746
 21
209.9916565175
 31
0.0
  0
LINE
  5
E6
330
1F
100
AcDbEntity
  8
JACKS
100
AcDbLine
 10
245.582267746
 20
209.9916565175
 30
0.0
 11
245.582267746
 21
207.4916565175
 31
0.0
  0
LINE
  5
E7
330
1F
100
AcDbEntity
  8
JACKS
  6
CENTERX2
100
AcDbLine
 10
292.082267746
 20
179.9916565175
 30
0.0
 11
292.082267746
 21
193.6416565175
 31
0.0
  0
LINE
  5
E8
330
1F
100
AcDbEntity
  8
JACKS
  6
CENTERX2
100
AcDbLine
 10
271.082267746
 20
179.9916565175
 30
0.0
 11
271.082267746
 21
193.6416565175
 31
0.0
  0
LINE
  5
E9
330
1F
100
AcDbEntity
  8
JACKS
  6
CENTERX2
100
AcDbLine
 10
254.582267746
 20
192.9916565175
 30
0.0
 11
254.582267746
 21
201.4916565175
 31
0.0
  0
LINE
  5
EA
330
1F
100
AcDbEntity
  8
JACKS
  6
CENTERX2
100
AcDbLine
 10
243.082267746
 20
192.9916565175
 30
0.0
 11
243.082267746
 21
201.4916565175
 31
0.0
  0
LINE
  5
EB
330
1F
100
AcDbEntity
  8
JACKS
  6
CENTERX2
100
AcDbLine
 10
227.557267746
 20
192.2916565175
 30
0.0
 11
227.557267746
 21
201.1416565175
 31
0.0
  0
LINE
  5
EC
330
1F
100
AcDbEntity
  8
JACKS
  6
CENTERX2
100
AcDbLine
 10
211.807267746
 20
195.5916565175
 30
0.0
 11
211.807267746
 21
202.7916565175
 31
0.0
  0
LINE
  5
ED
330
1F
100
AcDbEntity
  8
JACKS
  6
CENTERX2
100
AcDbLine
 10
193.307267746
 20
193.9916565175
 30
0.0
 11
193.307267746
 21
201.9916565175
 31
0.0
  0
LINE
  5
EE
330
1F
100
AcDbEntity
  8
JACKS
  6
CENTERX2
100
AcDbLine
 10
180.757267746
 20
187.4916565175
 30
0.0
 11
180.757267746
 21
197.3916565175
 31
0.0
  0
LINE
  5
EF
330
1F
100
AcDbEntity
  8
JACKS
  6
CENTERX2
100
AcDbLine
 10
168.182267746
 20
192.9916565175
 30
0.0
 11
168.182267746
 21
201.4916565175
 31
0.0
  0
LINE
  5
F0
330
1F
100
AcDbEntity
  8
JACKS
  6
CENTERX2
100
AcDbLine
 10
151.682267746
 20
179.9916565175
 30
0.0
 11
151.682267746
 21
193.6416565175
 31
0.0
  0
LINE
  5
F1
330
1F
100
AcDbEntity
  8
JACKS
  6
CENTERX2
100
AcDbLine
 10
130.682267746
 20
179.9916565175
 30
0.0
 11
130.682267746
 21
193.6416565175
 31
0.0
  0
LINE
  5
F2
330
1F
100
AcDbEntity
  8
SWITCHES
100
AcDbLine
 10
124.582267746
 20
142.0816565175
 30
0.0
 11
123.482267746
 21
142.0816565175
 31
0.0
  0
LINE
  5
F3
330
1F
100
AcDbEntity
  8
SWITCHES
100
AcDbLine
 10
125.232267746
 20
138.7316565175
 30
0.0
 11
125.232267746
 21
141.4316565175
 31
0.0
  0
LINE
  5
F4
330
1F
100
AcDbEntity
  8
SWITCHES
100
AcDbLine
 10
123.482267746
 20
138.0816565175
 30
0.0
 11
124.582267746
 21
138.0816565175
 31
0.0
  0
LINE
  5
F5
330
1F
100
AcDbEntity
  8
SWITCHES
100
AcDbLine
 10
123.482267746
 20
138.0816565175
 30
0.0
 11
123.482267746
 21
120.6816565175
 31
0.0
  0
LINE
  5
F6
330
1F
100
AcDbEntity
  8
SWITCHES
100
AcDbLine
 10
124.082267746
 20
120.0816565175
 30
0.0
 11
123.482267746
 21
120.6816565175
 31
0.0
  0
LINE
  5
F7
330
1F
100
AcDbEntity
  8
SWITCHES
100
AcDbLine
 10
124.082267746
 20
120.0816565175
 30
0.0
 11
161.032267746
 21
120.0816565175
 31
0.0
  0
LINE
  5
F8
330
1F
100
AcDbEntity
  8
SWITCHES
100
AcDbLine
 10
161.032267746
 20
120.0816565175
 30
0.0
 11
161.282267746
 21
120.3316565175
 31
0.0
  0
LINE
  5
F9
330
1F
100
AcDbEntity
  8
SWITCHES
100
AcDbLine
 10
161.282267746
 20
120.3316565175
 30
0.0
 11
161.282267746
 21
123.5816565175
 31
0.0
  0
LINE
  5
FA
330
1F
100
AcDbEntity
  8
SWITCHES
100
AcDbLine
 10
162.282267746
 20
123.5816565175
 30
0.0
 11
162.282267746
 21
120.3316565175
 31
0.0
  0
LINE
  5
FB
330
1F
100
AcDbEntity
  8
SWITCHES
100
AcDbLine
 10
162.282267746
 20
120.3316565175
 30
0.0
 11
162.532267746
 21
120.0816565175
 31
0.0
  0
LINE
  5
FC
330
1F
100
AcDbEntity
  8
SWITCHES
100
AcDbLine
 10
162.532267746
 20
120.0816565175
 30
0.0
 11
192.482267746
 21
120.0816565175
 31
0.0
  0
LINE
  5
FD
330
1F
100
AcDbEntity
  8
SWITCHES
100
AcDbLine
 10
192.482267746
 20
120.0816565175
 30
0.0
 11
193.082267746
 21
120.6816565175
 31
0.0
  0
LINE
  5
FE
330
1F
100
AcDbEntity
  8
SWITCHES
100
AcDbLine
 10
193.082267746
 20
120.6816565175
 30
0.0
 11
193.082267746
 21
138.0816565175
 31
0.0
  0
LINE
  5
FF
330
1F
100
AcDbEntity
  8
SWITCHES
100
AcDbLine
 10
191.982267746
 20
138.0816565175
 30
0.0
 11
193.082267746
 21
138.0816565175
 31
0.0
  0
LINE
  5
100
330
1F
100
AcDbEntity
  8
SWITCHES
100
AcDbLine
 10
191.332267746
 20
138.7316565175
 30
0.0
 11
191.332267746
 21
141.4316565175
 31
0.0
  0
LINE
  5
101
330
1F
100
AcDbEntity
  8
SWITCHES
100
AcDbLine
 10
191.982267746
 20
142.0816565175
 30
0.0
 11
193.082267746
 21
142.0816565175
 31
0.0
  0
LINE
  5
102
330
1F
100
AcDbEntity
  8
SWITCHES
100
AcDbLine
 10
193.082267746
 20
142.0816565175
 30
0.0
 11
193.082267746
 21
169.7216565175
 31
0.0
  0
LINE
  5
103
330
1F
100
AcDbEntity
  8
SWITCHES
100
AcDbLine
 10
123.482267746
 20
169.7216565175
 30
0.0
 11
193.082267746
 21
169.7216565175
 31
0.0
  0
LINE
  5
104
330
1F
100
AcDbEntity
  8
SWITCHES
100
AcDbLine
 10
123.482267746
 20
169.7216565175
 30
0.0
 11
123.482267746
 21
142.0816565175
 31
0.0
  0
LINE
  5
105
330
1F
100
AcDbEntity
  8
BUTTONS
100
AcDbLine
 10
191.482267746
 20
115.9616565175
 30
0.0
 11
191.482267746
 21
116.5416565175
 31
0.0
  0
LINE
  5
106
330
1F
100
AcDbEntity
  8
BUTTONS
100
AcDbLine
 10
191.332267746
 20
115.9616565175
 30
0.0
 11
191.482267746
 21
115.9616565175
 31
0.0
  0
LINE
  5
107
330
1F
100
AcDbEntity
  8
BUTTONS
100
AcDbLine
 10
191.332267746
 20
116.5416565175
 30
0.0
 11
191.332267746
 21
115.9616565175
 31
0.0
  0
LINE
  5
108
330
1F
100
AcDbEntity
  8
BUTTONS
100
AcDbLine
 10
190.982267746
 20
115.9616565175
 30
0.0
 11
190.982267746
 21
116.5416565175
 31
0.0
  0
LINE
  5
109
330
1F
100
AcDbEntity
  8
BUTTONS
100
AcDbLine
 10
190.832267746
 20
115.9616565175
 30
0.0
 11
190.982267746
 21
115.9616565175
 31
0.0
  0
LINE
  5
10A
330
1F
100
AcDbEntity
  8
BUTTONS
100
AcDbLine
 10
190.832267746
 20
116.5416565175
 30
0.0
 11
190.832267746
 21
115.9616565175
 31
0.0
  0
LINE
  5
10B
330
1F
100
AcDbEntity
  8
BUTTONS
100
AcDbLine
 10
163.482267746
 20
115.9616565175
 30
0.0
 11
163.482267746
 21
116.5416565175
 31
0.0
  0
LINE
  5
10C
330
1F
100
AcDbEntity
  8
BUTTONS
100
AcDbLine
 10
163.332267746
 20
115.9616565175
 30
0.0
 11
163.482267746
 21
115.9616565175
 31
0.0
  0
LINE
  5
10D
330
1F
100
AcDbEntity
  8
BUTTONS
100
AcDbLine
 10
163.332267746
 20
116.5416565175
 30
0.0
 11
163.332267746
 21
115.9616565175
 31
0.0
  0
LINE
  5
10E
330
1F
100
AcDbEntity
  8
BUTTONS
100
AcDbLine
 10
162.832267746
 20
115.9616565175
 30
0.0
 11
162.832267746
 21
116.5416565175
 31
0.0
  0
LINE
  5
10F
330
1F
100
AcDbEntity
  8
BUTTONS
100
AcDbLine
 10
162.982267746
 20
115.9616565175
 30
0.0
 11
162.832267746
 21
115.9616565175
 31
0.0
  0
LINE
  5
110
330
1F
100
AcDbEntity
  8
BUTTONS
100
AcDbLine
 10
162.982267746
 20
115.9616565175
 30
0.0
 11
162.982267746
 21
116.5416565175
 31
0.0
  0
LINE
  5
111
330
1F
100
AcDbEntity
  8
BUTTONS
100
AcDbLine
 10
160.332267746
 20
115.9616565175
 30
0.0
 11
160.482267746
 21
115.9616565175
 31
0.0
  0
LINE
  5
112
330
1F
100
AcDbEntity
  8
BUTTONS
100
AcDbLine
 10
160.482267746
 20
115.9616565175
 30
0.0
 11
160.482267746
 21
116.5416565175
 31
0.0
  0
LINE
  5
113
330
1F
100
AcDbEntity
  8
SCREW_BOSSES
100
AcDbLine
 10
118.082267746
 20
130.1916565175
 30
0.0
 11
116.382267746
 21
130.1916565175
 31
0.0
  0
LINE
  5
114
330
1F
100
AcDbEntity
  8
SCREW_BOSSES
100
AcDbLine
 10
116.982267746
 20
196.2916565175
 30
0.0
 11
116.382267746
 21
196.2916565175
 31
0.0
  0
LINE
  5
115
330
1F
100
AcDbEntity
  8
SCREW_BOSSES
100
AcDbLine
 10
119.482267746
 20
198.7916565175
 30
0.0
 11
119.482267746
 21
201.9421667748
 31
0.0
  0
LINE
  5
116
330
1F
100
AcDbEntity
  8
SCREW_BOSSES
100
AcDbLine
 10
305.782267746
 20
196.2916565175
 30
0.0
 11
306.382267746
 21
196.2916565175
 31
0.0
  0
LINE
  5
117
330
1F
100
AcDbEntity
  8
SCREW_BOSSES
100
AcDbLine
 10
303.282267746
 20
198.7916565175
 30
0.0
 11
303.282267746
 21
201.9421667748
 31
0.0
  0
LINE
  5
118
330
1F
100
AcDbEntity
  8
BUTTONS
100
AcDbLine
 10
160.332267746
 20
115.9616565175
 30
0.0
 11
160.332267746
 21
116.5416565175
 31
0.0
  0
LINE
  5
119
330
1F
100
AcDbEntity
  8
SCREW_BOSSES
100
AcDbLine
 10
304.682267746
 20
130.1916565175
 30
0.0
 11
306.382267746
 21
130.1916565175
 31
0.0
  0
LINE
  5
11A
330
1F
100
AcDbEntity
  8
SCREW_BOSSES
100
AcDbLine
 10
200.882267746
 20
203.2916565175
 30
0.0
 11
200.882267746
 21
206.4916565175
 31
0.0
  0
LINE
  5
11B
330
1F
100
AcDbEntity
  8
SCREW_BOSSES
100
AcDbLine
 10
205.882267746
 20
203.2916565175
 30
0.0
 11
205.882267746
 21
206.4916565175
 31
0.0
  0
LINE
  5
11C
330
1F
100
AcDbEntity
  8
BUTTONS
100
AcDbLine
 10
159.982267746
 20
116.5416565175
 30
0.0
 11
159.982267746
 21
115.9616565175
 31
0.0
  0
LINE
  5
11D
330
1F
100
AcDbEntity
  8
BUTTONS
100
AcDbLine
 10
159.982267746
 20
115.9616565175
 30
0.0
 11
159.832267746
 21
115.9616565175
 31
0.0
  0
LINE
  5
11E
330
1F
100
AcDbEntity
  8
BUTTONS
100
AcDbLine
 10
159.832267746
 20
115.9616565175
 30
0.0
 11
159.832267746
 21
116.5416565175
 31
0.0
  0
LINE
  5
11F
330
1F
100
AcDbEntity
  8
BUTTONS
100
AcDbLine
 10
125.482267746
 20
115.9616565175
 30
0.0
 11
125.482267746
 21
116.5416565175
 31
0.0
  0
LINE
  5
120
330
1F
100
AcDbEntity
  8
BUTTONS
100
AcDbLine
 10
125.482267746
 20
115.9616565175
 30
0.0
 11
125.332267746
 21
115.9616565175
 31
0.0
  0
LINE
  5
121
330
1F
100
AcDbEntity
  8
BUTTONS
100
AcDbLine
 10
125.332267746
 20
115.9616565175
 30
0.0
 11
125.332267746
 21
116.5416565175
 31
0.0
  0
LINE
  5
122
330
1F
100
AcDbEntity
  8
BUTTONS
100
AcDbLine
 10
124.982267746
 20
116.5416565175
 30
0.0
 11
124.982267746
 21
115.9616565175
 31
0.0
  0
LINE
  5
123
330
1F
100
AcDbEntity
  8
BUTTONS
100
AcDbLine
 10
124.982267746
 20
115.9616565175
 30
0.0
 11
124.832267746
 21
115.9616565175
 31
0.0
  0
LINE
  5
124
330
1F
100
AcDbEntity
  8
BUTTONS
100
AcDbLine
 10
124.832267746
 20
115.9616565175
 30
0.0
 11
124.832267746
 21
116.5416565175
 31
0.0
  0
LINE
  5
125
330
1F
100
AcDbEntity
  8
BUTTONS
100
AcDbLine
 10
193.282267746
 20
116.5416565175
 30
0.0
 11
123.282267746
 21
116.5416565175
 31
0.0
  0
LINE
  5
126
330
1F
100
AcDbEntity
  8
BUTTONS
100
AcDbLine
 10
123.282267746
 20
116.5416565175
 30
0.0
 11
123.282267746
 21
115.3916565175
 31
0.0
  0
LINE
  5
127
330
1F
100
AcDbEntity
  8
BUTTONS
100
AcDbLine
 10
123.282267746
 20
115.3916565175
 30
0.0
 11
122.482267746
 21
115.3916565175
 31
0.0
  0
LINE
  5
128
330
1F
100
AcDbEntity
  8
BUTTONS
100
AcDbLine
 10
122.482267746
 20
115.3916565175
 30
0.0
 11
122.482267746
 21
119.2416565175
 31
0.0
  0
LINE
  5
129
330
1F
100
AcDbEntity
  8
BUTTONS
100
AcDbLine
 10
121.632267746
 20
119.2416565175
 30
0.0
 11
122.482267746
 21
119.2416565175
 31
0.0
  0
LINE
  5
12A
330
1F
100
AcDbEntity
  8
BUTTONS
100
AcDbLine
 10
121.632267746
 20
128.0916565175
 30
0.0
 11
121.632267746
 21
119.2416565175
 31
0.0
  0
LINE
  5
12B
330
1F
100
AcDbEntity
  8
BUTTONS
100
AcDbLine
 10
123.882267746
 20
128.0916565175
 30
0.0
 11
123.282267746
 21
128.0916565175
 31
0.0
  0
LINE
  5
12C
330
1F
100
AcDbEntity
  8
BUTTONS
100
AcDbLine
 10
123.282267746
 20
128.0916565175
 30
0.0
 11
123.282267746
 21
130.6616565175
 31
0.0
  0
LINE
  5
12D
330
1F
100
AcDbEntity
  8
BUTTONS
100
AcDbLine
 10
125.432267746
 20
130.6616565175
 30
0.0
 11
123.282267746
 21
130.6616565175
 31
0.0
  0
LINE
  5
12E
330
1F
100
AcDbEntity
  8
BUTTONS
100
AcDbLine
 10
125.432267746
 20
133.6616565175
 30
0.0
 11
125.432267746
 21
130.6616565175
 31
0.0
  0
LINE
  5
12F
330
1F
100
AcDbEntity
  8
BUTTONS
100
AcDbLine
 10
123.282267746
 20
133.6616565175
 30
0.0
 11
125.432267746
 21
133.6616565175
 31
0.0
  0
LINE
  5
130
330
1F
100
AcDbEntity
  8
BUTTONS
100
AcDbLine
 10
122.482267746
 20
128.0916565175
 30
0.0
 11
122.482267746
 21
141.0916565175
 31
0.0
  0
LINE
  5
131
330
1F
100
AcDbEntity
  8
BUTTONS
100
AcDbLine
 10
123.282267746
 20
133.6616565175
 30
0.0
 11
123.282267746
 21
141.0916565175
 31
0.0
  0
LINE
  5
132
330
1F
100
AcDbEntity
  8
BUTTONS
100
AcDbLine
 10
122.482267746
 20
141.0916565175
 30
0.0
 11
123.282267746
 21
141.0916565175
 31
0.0
  0
LINE
  5
133
330
1F
100
AcDbEntity
  8
BUTTONS
100
AcDbLine
 10
194.082267746
 20
119.2416565175
 30
0.0
 11
194.082267746
 21
115.3916565175
 31
0.0
  0
LINE
  5
134
330
1F
100
AcDbEntity
  8
BUTTONS
100
AcDbLine
 10
194.082267746
 20
115.3916565175
 30
0.0
 11
193.282267746
 21
115.3916565175
 31
0.0
  0
LINE
  5
135
330
1F
100
AcDbEntity
  8
BUTTONS
100
AcDbLine
 10
193.282267746
 20
115.3916565175
 30
0.0
 11
193.282267746
 21
116.5416565175
 31
0.0
  0
LINE
  5
136
330
1F
100
AcDbEntity
  8
BUTTONS
100
AcDbLine
 10
123.882267746
 20
123.7916565175
 30
0.0
 11
123.882267746
 21
128.0916565175
 31
0.0
  0
LINE
  5
137
330
1F
100
AcDbEntity
  8
BUTTONS
100
AcDbLine
 10
125.082267746
 20
124.3616565175
 30
0.0
 11
125.082267746
 21
123.7916565175
 31
0.0
  0
LINE
  5
138
330
1F
100
AcDbEntity
  8
BUTTONS
100
AcDbLine
 10
125.232267746
 20
124.3616565175
 30
0.0
 11
125.082267746
 21
124.3616565175
 31
0.0
  0
LINE
  5
139
330
1F
100
AcDbEntity
  8
BUTTONS
100
AcDbLine
 10
125.232267746
 20
123.7916565175
 30
0.0
 11
125.232267746
 21
124.3616565175
 31
0.0
  0
LINE
  5
13A
330
1F
100
AcDbEntity
  8
BUTTONS
100
AcDbLine
 10
125.582267746
 20
124.3616565175
 30
0.0
 11
125.582267746
 21
123.7916565175
 31
0.0
  0
LINE
  5
13B
330
1F
100
AcDbEntity
  8
BUTTONS
100
AcDbLine
 10
125.732267746
 20
124.3616565175
 30
0.0
 11
125.582267746
 21
124.3616565175
 31
0.0
  0
LINE
  5
13C
330
1F
100
AcDbEntity
  8
BUTTONS
100
AcDbLine
 10
125.732267746
 20
123.7916565175
 30
0.0
 11
125.732267746
 21
124.3616565175
 31
0.0
  0
LINE
  5
13D
330
1F
100
AcDbEntity
  8
BUTTONS
100
AcDbLine
 10
160.082267746
 20
124.3616565175
 30
0.0
 11
160.082267746
 21
123.7916565175
 31
0.0
  0
LINE
  5
13E
330
1F
100
AcDbEntity
  8
BUTTONS
100
AcDbLine
 10
160.232267746
 20
124.3616565175
 30
0.0
 11
160.082267746
 21
124.3616565175
 31
0.0
  0
LINE
  5
13F
330
1F
100
AcDbEntity
  8
BUTTONS
100
AcDbLine
 10
160.232267746
 20
123.7916565175
 30
0.0
 11
160.232267746
 21
124.3616565175
 31
0.0
  0
LINE
  5
140
330
1F
100
AcDbEntity
  8
BUTTONS
100
AcDbLine
 10
160.582267746
 20
124.3616565175
 30
0.0
 11
160.582267746
 21
123.7916565175
 31
0.0
  0
LINE
  5
141
330
1F
100
AcDbEntity
  8
BUTTONS
100
AcDbLine
 10
160.732267746
 20
124.3616565175
 30
0.0
 11
160.582267746
 21
124.3616565175
 31
0.0
  0
LINE
  5
142
330
1F
100
AcDbEntity
  8
BUTTONS
100
AcDbLine
 10
160.732267746
 20
123.7916565175
 30
0.0
 11
160.732267746
 21
124.3616565175
 31
0.0
  0
LINE
  5
143
330
1F
100
AcDbEntity
  8
BUTTONS
100
AcDbLine
 10
163.082267746
 20
123.7916565175
 30
0.0
 11
163.082267746
 21
124.3616565175
 31
0.0
  0
LINE
  5
144
330
1F
100
AcDbEntity
  8
BUTTONS
100
AcDbLine
 10
163.082267746
 20
124.3616565175
 30
0.0
 11
163.232267746
 21
124.3616565175
 31
0.0
  0
LINE
  5
145
330
1F
100
AcDbEntity
  8
BUTTONS
100
AcDbLine
 10
163.232267746
 20
124.3616565175
 30
0.0
 11
163.232267746
 21
123.7916565175
 31
0.0
  0
LINE
  5
146
330
1F
100
AcDbEntity
  8
BUTTONS
100
AcDbLine
 10
163.582267746
 20
123.7916565175
 30
0.0
 11
163.582267746
 21
124.3616565175
 31
0.0
  0
LINE
  5
147
330
1F
100
AcDbEntity
  8
BUTTONS
100
AcDbLine
 10
163.582267746
 20
124.3616565175
 30
0.0
 11
163.732267746
 21
124.3616565175
 31
0.0
  0
LINE
  5
148
330
1F
100
AcDbEntity
  8
BUTTONS
100
AcDbLine
 10
163.732267746
 20
124.3616565175
 30
0.0
 11
163.732267746
 21
123.7916565175
 31
0.0
  0
LINE
  5
149
330
1F
100
AcDbEntity
  8
BUTTONS
100
AcDbLine
 10
191.082267746
 20
123.7916565175
 30
0.0
 11
191.082267746
 21
124.3616565175
 31
0.0
  0
LINE
  5
14A
330
1F
100
AcDbEntity
  8
BUTTONS
100
AcDbLine
 10
191.082267746
 20
124.3616565175
 30
0.0
 11
191.232267746
 21
124.3616565175
 31
0.0
  0
LINE
  5
14B
330
1F
100
AcDbEntity
  8
BUTTONS
100
AcDbLine
 10
191.232267746
 20
124.3616565175
 30
0.0
 11
191.232267746
 21
123.7916565175
 31
0.0
  0
LINE
  5
14C
330
1F
100
AcDbEntity
  8
BUTTONS
100
AcDbLine
 10
191.582267746
 20
123.7916565175
 30
0.0
 11
191.582267746
 21
124.3616565175
 31
0.0
  0
LINE
  5
14D
330
1F
100
AcDbEntity
  8
BUTTONS
100
AcDbLine
 10
191.582267746
 20
124.3616565175
 30
0.0
 11
191.732267746
 21
124.3616565175
 31
0.0
  0
LINE
  5
14E
330
1F
100
AcDbEntity
  8
BUTTONS
100
AcDbLine
 10
191.732267746
 20
124.3616565175
 30
0.0
 11
191.732267746
 21
123.7916565175
 31
0.0
  0
LINE
  5
14F
330
1F
100
AcDbEntity
  8
BUTTONS
100
AcDbLine
 10
123.882267746
 20
123.7916565175
 30
0.0
 11
192.682267746
 21
123.7916565175
 31
0.0
  0
LINE
  5
150
330
1F
100
AcDbEntity
  8
BUTTONS
100
AcDbLine
 10
191.132267746
 20
130.6616565175
 30
0.0
 11
193.282267746
 21
130.6616565175
 31
0.0
  0
LINE
  5
151
330
1F
100
AcDbEntity
  8
BUTTONS
100
AcDbLine
 10
191.132267746
 20
133.6616565175
 30
0.0
 11
191.132267746
 21
130.6616565175
 31
0.0
  0
LINE
  5
152
330
1F
100
AcDbEntity
  8
BUTTONS
100
AcDbLine
 10
193.282267746
 20
133.6616565175
 30
0.0
 11
191.132267746
 21
133.6616565175
 31
0.0
  0
LINE
  5
153
330
1F
100
AcDbEntity
  8
BUTTONS
100
AcDbLine
 10
193.282267746
 20
141.0916565175
 30
0.0
 11
193.282267746
 21
133.6616565175
 31
0.0
  0
LINE
  5
154
330
1F
100
AcDbEntity
  8
BUTTONS
100
AcDbLine
 10
193.282267746
 20
141.0916565175
 30
0.0
 11
194.082267746
 21
141.0916565175
 31
0.0
  0
LINE
  5
155
330
1F
100
AcDbEntity
  8
BUTTONS
100
AcDbLine
 10
192.682267746
 20
123.7916565175
 30
0.0
 11
192.682267746
 21
128.0916565175
 31
0.0
  0
LINE
  5
156
330
1F
100
AcDbEntity
  8
BUTTONS
100
AcDbLine
 10
193.282267746
 20
130.6616565175
 30
0.0
 11
193.282267746
 21
128.0916565175
 31
0.0
  0
LINE
  5
157
330
1F
100
AcDbEntity
  8
BUTTONS
100
AcDbLine
 10
194.082267746
 20
141.0916565175
 30
0.0
 11
194.082267746
 21
128.0916565175
 31
0.0
  0
LINE
  5
158
330
1F
100
AcDbEntity
  8
BUTTONS
100
AcDbLine
 10
192.682267746
 20
128.0916565175
 30
0.0
 11
193.282267746
 21
128.0916565175
 31
0.0
  0
LINE
  5
159
330
1F
100
AcDbEntity
  8
BUTTONS
100
AcDbLine
 10
194.932267746
 20
128.0916565175
 30
0.0
 11
194.932267746
 21
119.2416565175
 31
0.0
  0
LINE
  5
15A
330
1F
100
AcDbEntity
  8
BUTTONS
100
AcDbLine
 10
194.932267746
 20
119.2416565175
 30
0.0
 11
194.082267746
 21
119.2416565175
 31
0.0
  0
LINE
  5
15B
330
1F
100
AcDbEntity
  8
BUTTONS
100
AcDbLine
 10
194.082267746
 20
128.0916565175
 30
0.0
 11
194.082267746
 21
119.2416565175
 31
0.0
  0
LINE
  5
15C
330
1F
100
AcDbEntity
  8
BUTTONS
100
AcDbLine
 10
193.282267746
 20
121.9416565175
 30
0.0
 11
193.282267746
 21
128.0916565175
 31
0.0
  0
LINE
  5
15D
330
1F
100
AcDbEntity
  8
BUTTONS
100
AcDbLine
 10
123.282267746
 20
121.9416565175
 30
0.0
 11
193.282267746
 21
121.9416565175
 31
0.0
  0
LINE
  5
15E
330
1F
100
AcDbEntity
  8
BUTTONS
100
AcDbLine
 10
123.282267746
 20
128.0916565175
 30
0.0
 11
123.282267746
 21
121.9416565175
 31
0.0
  0
LINE
  5
15F
330
1F
100
AcDbEntity
  8
BUTTONS
100
AcDbLine
 10
122.482267746
 20
119.2416565175
 30
0.0
 11
122.482267746
 21
128.0916565175
 31
0.0
  0
LINE
  5
160
330
1F
100
AcDbEntity
  8
BUTTONS
100
AcDbLine
 10
162.252267746
 20
123.3216565175
 30
0.0
 11
162.252267746
 21
121.9416565175
 31
0.0
  0
LINE
  5
161
330
1F
100
AcDbEntity
  8
BUTTONS
100
AcDbLine
 10
161.312267746
 20
123.3216565175
 30
0.0
 11
161.312267746
 21
121.9416565175
 31
0.0
  0
LINE
  5
162
330
1F
100
AcDbEntity
  8
BUTTONS
100
AcDbLine
 10
122.482267746
 20
128.0916565175
 30
0.0
 11
121.632267746
 21
128.0916565175
 31
0.0
  0
LINE
  5
163
330
1F
100
AcDbEntity
  8
BUTTONS
100
AcDbLine
 10
194.082267746
 20
128.0916565175
 30
0.0
 11
194.932267746
 21
128.0916565175
 31
0.0
  0
LINE
  5
164
330
1F
100
AcDbEntity
  8
HMI_LINE
100
AcDbLine
 10
237.282267746
 20
127.2916565175
 30
0.0
 11
237.282267746
 21
121.2916565175
 31
0.0
  0
LINE
  5
165
330
1F
100
AcDbEntity
  8
HMI_LINE
100
AcDbLine
 10
237.282267746
 20
127.2916565175
 30
0.0
 11
267.382267746
 21
127.2916565175
 31
0.0
  0
LINE
  5
166
330
1F
100
AcDbEntity
  8
HMI_LINE
100
AcDbLine
 10
237.282267746
 20
121.2916565175
 30
0.0
 11
267.382267746
 21
121.2916565175
 31
0.0
  0
LINE
  5
167
330
1F
100
AcDbEntity
  8
HMI_LINE
100
AcDbLine
 10
267.382267746
 20
127.2916565175
 30
0.0
 11
267.382267746
 21
121.2916565175
 31
0.0
  0
LINE
  5
168
330
1F
100
AcDbEntity
  8
HMI_LINE
100
AcDbLine
 10
268.832267746
 20
128.7916565175
 30
0.0
 11
268.832267746
 21
119.7916565175
 31
0.0
  0
LINE
  5
169
330
1F
100
AcDbEntity
  8
HMI_LINE
100
AcDbLine
 10
235.832267746
 20
128.7916565175
 30
0.0
 11
268.832267746
 21
128.7916565175
 31
0.0
  0
LINE
  5
16A
330
1F
100
AcDbEntity
  8
HMI_LINE
100
AcDbLine
 10
235.832267746
 20
128.7916565175
 30
0.0
 11
235.832267746
 21
119.7916565175
 31
0.0
  0
LINE
  5
16B
330
1F
100
AcDbEntity
  8
HMI_LINE
100
AcDbLine
 10
235.832267746
 20
119.7916565175
 30
0.0
 11
268.832267746
 21
119.7916565175
 31
0.0
  0
LINE
  5
16C
330
1F
100
AcDbEntity
  8
ENCODERS
100
AcDbLine
 10
235.832267746
 20
142.1916565175
 30
0.0
 11
235.832267746
 21
133.1916565175
 31
0.0
  0
LINE
  5
16D
330
1F
100
AcDbEntity
  8
ENCODERS
100
AcDbLine
 10
235.832267746
 20
142.1916565175
 30
0.0
 11
268.832267746
 21
142.1916565175
 31
0.0
  0
LINE
  5
16E
330
1F
100
AcDbEntity
  8
ENCODERS
100
AcDbLine
 10
268.832267746
 20
142.1916565175
 30
0.0
 11
268.832267746
 21
133.1916565175
 31
0.0
  0
LINE
  5
16F
330
1F
100
AcDbEntity
  8
ENCODERS
100
AcDbLine
 10
235.832267746
 20
133.1916565175
 30
0.0
 11
268.832267746
 21
133.1916565175
 31
0.0
  0
LINE
  5
170
330
1F
100
AcDbEntity
  8
ENCODERS
100
AcDbLine
 10
267.382267746
 20
140.6916565175
 30
0.0
 11
267.382267746
 21
134.6916565175
 31
0.0
  0
LINE
  5
171
330
1F
100
AcDbEntity
  8
ENCODERS
100
AcDbLine
 10
237.282267746
 20
134.6916565175
 30
0.0
 11
267.382267746
 21
134.6916565175
 31
0.0
  0
LINE
  5
172
330
1F
100
AcDbEntity
  8
ENCODERS
100
AcDbLine
 10
237.282267746
 20
140.6916565175
 30
0.0
 11
267.382267746
 21
140.6916565175
 31
0.0
  0
LINE
  5
173
330
1F
100
AcDbEntity
  8
ENCODERS
100
AcDbLine
 10
237.282267746
 20
140.6916565175
 30
0.0
 11
237.282267746
 21
134.6916565175
 31
0.0
  0
LINE
  5
174
330
1F
100
AcDbEntity
  8
JACKS
370
    18
100
AcDbLine
 10
130.682267746
 20
203.9916565175
 30
0.0
 11
120.682267746
 21
203.9916565175
 31
0.0
  0
LINE
  5
175
330
1F
100
AcDbEntity
  8
JACKS
370
    18
100
AcDbLine
 10
130.682267746
 20
207.2916565175
 30
0.0
 11
136.082267746
 21
207.2916565175
 31
0.0
  0
LINE
  5
176
330
1F
100
AcDbEntity
  8
JACKS
370
    18
100
AcDbLine
 10
130.682267746
 20
183.2916565175
 30
0.0
 11
140.682267746
 21
183.2916565175
 31
0.0
  0
LINE
  5
177
330
1F
100
AcDbEntity
  8
JACKS
370
    18
100
AcDbLine
 10
130.682267746
 20
179.9916565175
 30
0.0
 11
135.182267746
 21
179.9916565175
 31
0.0
  0
LINE
  5
178
330
1F
100
AcDbEntity
  8
JACKS
370
    18
100
AcDbLine
 10
130.682267746
 20
193.6416565175
 30
0.0
 11
130.682267746
 21
207.2916565175
 31
0.0
  0
LINE
  5
179
330
1F
100
AcDbEntity
  8
JACKS
370
    18
100
AcDbLine
 10
130.682267746
 20
207.2916565175
 30
0.0
 11
130.682267746
 21
209.9916565175
 31
0.0
  0
LINE
  5
17A
330
1F
100
AcDbEntity
  8
JACKS
370
    18
100
AcDbLine
 10
151.682267746
 20
207.2916565175
 30
0.0
 11
151.682267746
 21
209.9916565175
 31
0.0
  0
LINE
  5
17B
330
1F
100
AcDbEntity
  8
JACKS
370
    18
100
AcDbLine
 10
151.682267746
 20
207.2916565175
 30
0.0
 11
157.082267746
 21
207.2916565175
 31
0.0
  0
LINE
  5
17C
330
1F
100
AcDbEntity
  8
JACKS
370
    18
100
AcDbLine
 10
151.682267746
 20
203.9916565175
 30
0.0
 11
141.682267746
 21
203.9916565175
 31
0.0
  0
LINE
  5
17D
330
1F
100
AcDbEntity
  8
JACKS
370
    18
100
AcDbLine
 10
151.682267746
 20
179.9916565175
 30
0.0
 11
156.182267746
 21
179.9916565175
 31
0.0
  0
LINE
  5
17E
330
1F
100
AcDbEntity
  8
JACKS
370
    18
100
AcDbLine
 10
151.682267746
 20
193.6416565175
 30
0.0
 11
151.682267746
 21
207.2916565175
 31
0.0
  0
LINE
  5
17F
330
1F
100
AcDbEntity
  8
JACKS
370
    18
100
AcDbLine
 10
151.682267746
 20
183.2916565175
 30
0.0
 11
161.682267746
 21
183.2916565175
 31
0.0
  0
LINE
  5
180
330
1F
100
AcDbEntity
  8
JACKS
370
    18
100
AcDbLine
 10
168.182267746
 20
201.4916565175
 30
0.0
 11
168.182267746
 21
209.9916565175
 31
0.0
  0
LINE
  5
181
330
1F
100
AcDbEntity
  8
JACKS
370
    18
100
AcDbLine
 10
180.757267746
 20
207.2916565175
 30
0.0
 11
180.757267746
 21
209.9916565175
 31
0.0
  0
LINE
  5
182
330
1F
100
AcDbEntity
  8
JACKS
370
    18
100
AcDbLine
 10
180.757267746
 20
197.3916565175
 30
0.0
 11
180.757267746
 21
207.2916565175
 31
0.0
  0
LINE
  5
183
330
1F
100
AcDbEntity
  8
JACKS
370
    18
100
AcDbLine
 10
193.307267746
 20
201.9916565175
 30
0.0
 11
193.307267746
 21
209.9916565175
 31
0.0
  0
LINE
  5
184
330
1F
100
AcDbEntity
  8
JACKS
370
    18
100
AcDbLine
 10
211.807267746
 20
202.7916565175
 30
0.0
 11
211.807267746
 21
209.9916565175
 31
0.0
  0
LINE
  5
185
330
1F
100
AcDbEntity
  8
JACKS
370
    18
100
AcDbLine
 10
227.557267746
 20
201.1416565175
 30
0.0
 11
227.557267746
 21
209.9916565175
 31
0.0
  0
LINE
  5
186
330
1F
100
AcDbEntity
  8
JACKS
370
    18
100
AcDbLine
 10
243.082267746
 20
201.4916565175
 30
0.0
 11
243.082267746
 21
209.9916565175
 31
0.0
  0
LINE
  5
187
330
1F
100
AcDbEntity
  8
JACKS
370
    18
100
AcDbLine
 10
254.582267746
 20
201.4916565175
 30
0.0
 11
254.582267746
 21
209.9916565175
 31
0.0
  0
LINE
  5
188
330
1F
100
AcDbEntity
  8
JACKS
370
    18
100
AcDbLine
 10
271.082267746
 20
207.2916565175
 30
0.0
 11
271.082267746
 21
209.9916565175
 31
0.0
  0
LINE
  5
189
330
1F
100
AcDbEntity
  8
JACKS
370
    18
100
AcDbLine
 10
271.082267746
 20
207.2916565175
 30
0.0
 11
276.482267746
 21
207.2916565175
 31
0.0
  0
LINE
  5
18A
330
1F
100
AcDbEntity
  8
JACKS
370
    18
100
AcDbLine
 10
271.082267746
 20
193.6416565175
 30
0.0
 11
271.082267746
 21
207.2916565175
 31
0.0
  0
LINE
  5
18B
330
1F
100
AcDbEntity
  8
JACKS
370
    18
100
AcDbLine
 10
271.082267746
 20
203.9916565175
 30
0.0
 11
261.082267746
 21
203.9916565175
 31
0.0
  0
LINE
  5
18C
330
1F
100
AcDbEntity
  8
JACKS
370
    18
100
AcDbLine
 10
271.082267746
 20
183.2916565175
 30
0.0
 11
281.082267746
 21
183.2916565175
 31
0.0
  0
LINE
  5
18D
330
1F
100
AcDbEntity
  8
JACKS
370
    18
100
AcDbLine
 10
271.082267746
 20
179.9916565175
 30
0.0
 11
275.582267746
 21
179.9916565175
 31
0.0
  0
LINE
  5
18E
330
1F
100
AcDbEntity
  8
JACKS
370
    18
100
AcDbLine
 10
292.082267746
 20
179.9916565175
 30
0.0
 11
296.582267746
 21
179.9916565175
 31
0.0
  0
LINE
  5
18F
330
1F
100
AcDbEntity
  8
JACKS
370
    18
100
AcDbLine
 10
292.082267746
 20
183.2916565175
 30
0.0
 11
302.082267746
 21
183.2916565175
 31
0.0
  0
LINE
  5
190
330
1F
100
AcDbEntity
  8
JACKS
370
    18
100
AcDbLine
 10
292.082267746
 20
193.6416565175
 30
0.0
 11
292.082267746
 21
207.2916565175
 31
0.0
  0
LINE
  5
191
330
1F
100
AcDbEntity
  8
JACKS
370
    18
100
AcDbLine
 10
292.082267746
 20
203.9916565175
 30
0.0
 11
282.082267746
 21
203.9916565175
 31
0.0
  0
LINE
  5
192
330
1F
100
AcDbEntity
  8
JACKS
370
    18
100
AcDbLine
 10
292.082267746
 20
207.2916565175
 30
0.0
 11
297.482267746
 21
207.2916565175
 31
0.0
  0
LINE
  5
193
330
1F
100
AcDbEntity
  8
JACKS
370
    18
100
AcDbLine
 10
292.082267746
 20
207.2916565175
 30
0.0
 11
292.082267746
 21
209.9916565175
 31
0.0
  0
ARC
  5
194
330
1F
100
AcDbEntity
  8
PCB_CUT_LAYER
100
AcDbCircle
 10
116.382267746
 20
120.5916565175
 30
0.0
 40
1.5
100
AcDbArc
 50
180.0
 51
270.0
  0
ARC
  5
195
330
1F
100
AcDbEntity
  8
PCB_CUT_LAYER
100
AcDbCircle
 10
116.982267746
 20
115.5916565175
 30
0.0
 40
3.5
100
AcDbArc
 50
0.0
 51
90.0
  0
ARC
  5
196
330
1F
100
AcDbEntity
  8
PCB_CUT_LAYER
100
AcDbCircle
 10
121.982267746
 20
114.9916565175
 30
0.0
 40
1.499999999999986
100
AcDbArc
 50
180.0
 51
270.0
  0
ARC
  5
197
330
1F
100
AcDbEntity
  8
PCB_CUT_LAYER
100
AcDbCircle
 10
300.782267746
 20
114.9916565175
 30
0.0
 40
1.499999999999957
100
AcDbArc
 50
270.0
 51
0.0
  0
ARC
  5
198
330
1F
100
AcDbEntity
  8
PCB_CUT_LAYER
100
AcDbCircle
 10
305.782267746
 20
115.5916565175
 30
0.0
 40
3.500000000000028
100
AcDbArc
 50
90.0
 51
180.0
  0
ARC
  5
199
330
1F
100
AcDbEntity
  8
PCB_CUT_LAYER
100
AcDbCircle
 10
306.382267746
 20
120.5916565175
 30
0.0
 40
1.499999999999972
100
AcDbArc
 50
270.0
 51
0.0
  0
ARC
  5
19A
330
1F
100
AcDbEntity
  8
PCB_CUT_LAYER
100
AcDbCircle
 10
306.382267746
 20
199.3916565175
 30
0.0
 40
1.499999999999972
100
AcDbArc
 50
0.0
 51
90.0
  0
ARC
  5
19B
330
1F
100
AcDbEntity
  8
PCB_CUT_LAYER
100
AcDbCircle
 10
305.782267746
 20
204.3916565175
 30
0.0
 40
3.500000000000028
100
AcDbArc
 50
180.0
 51
270.0
  0
ARC
  5
19C
330
1F
100
AcDbEntity
  8
PCB_CUT_LAYER
100
AcDbCircle
 10
300.782267746
 20
204.9916565175
 30
0.0
 40
1.5
100
AcDbArc
 50
0.0
 51
90.0
  0
ARC
  5
19D
330
1F
100
AcDbEntity
  8
PCB_CUT_LAYER
100
AcDbCircle
 10
121.982267746
 20
204.9916565175
 30
0.0
 40
1.5
100
AcDbArc
 50
90.0
 51
180.0
  0
ARC
  5
19E
330
1F
100
AcDbEntity
  8
PCB_CUT_LAYER
100
AcDbCircle
 10
116.982267746
 20
204.3916565175
 30
0.0
 40
3.499999999999986
100
AcDbArc
 50
270.0
 51
0.0
  0
ARC
  5
19F
330
1F
100
AcDbEntity
  8
PCB_CUT_LAYER
100
AcDbCircle
 10
116.382267746
 20
199.3916565175
 30
0.0
 40
1.500000000000028
100
AcDbArc
 50
90.0
 51
180.0
  0
CIRCLE
  5
1A0
330
1F
100
AcDbEntity
  8
PCB_CUT_LAYER
100
AcDbCircle
 10
304.682267746
 20
127.6916565175
 30
0.0
 40
1.624999999999988
  0
CIRCLE
  5
1A1
330
1F
100
AcDbEntity
  8
PCB_CUT_LAYER
100
AcDbCircle
 10
305.782267746
 20
198.7916565175
 30
0.0
 40
1.625000000000109
  0
CIRCLE
  5
1A2
330
1F
100
AcDbEntity
  8
PCB_CUT_LAYER
100
AcDbCircle
 10
203.382267746
 20
203.2916565175
 30
0.0
 40
1.625000000000019
  0
CIRCLE
  5
1A3
330
1F
100
AcDbEntity
  8
PCB_CUT_LAYER
100
AcDbCircle
 10
116.982267746
 20
198.7916565175
 30
0.0
 40
1.625
  0
CIRCLE
  5
1A4
330
1F
100
AcDbEntity
  8
PCB_CUT_LAYER
100
AcDbCircle
 10
118.082267746
 20
127.6916565175
 30
0.0
 40
1.624999999999988
  0
ARC
  5
1A5
330
1F
100
AcDbEntity
  8
FOOTSWITCHES
100
AcDbCircle
 10
296.982267746
 20
120.4916565175
 30
0.0
 40
6.500000000000014
100
AcDbArc
 50
270.0
 51
90.0
  0
ARC
  5
1A6
330
1F
100
AcDbEntity
  8
FOOTSWITCHES
100
AcDbCircle
 10
206.482267746
 20
120.4916565175
 30
0.0
 40
6.500000000000014
100
AcDbArc
 50
90.0
 51
270.0
  0
ARC
  5
1A7
330
1F
100
AcDbEntity
  8
FOOTSWITCHES
100
AcDbCircle
 10
125.782267746
 20
120.4916565175
 30
0.0
 40
6.5
100
AcDbArc
 50
90.0
 51
270.0
  0
ARC
  5
1A8
330
1F
100
AcDbEntity
  8
PCB_CUT_LAYER
100
AcDbCircle
 10
289.6802267171
 20
115.4916565175
 30
0.0
 40
2.0
100
AcDbArc
 50
191.5369590328
 51
270.0
  0
ARC
  5
1A9
330
1F
100
AcDbEntity
  8
PCB_CUT_LAYER
100
AcDbCircle
 10
270.0843087749
 20
115.4916565175
 30
0.0
 40
2.0
100
AcDbArc
 50
270.0
 51
348.4630409672
  0
ARC
  5
1AA
330
1F
100
AcDbEntity
  8
PCB_CUT_LAYER
100
AcDbCircle
 10
279.882267746
 20
113.4916565175
 30
0.0
 40
8.000000000000043
100
AcDbArc
 50
11.5369590328
 51
168.4630409672
  0
ARC
  5
1AB
330
1F
100
AcDbEntity
  8
SCREW_BOSSES
100
AcDbCircle
 10
116.382267746
 20
132.6916565175
 30
0.0
 40
2.5
100
AcDbArc
 50
233.1301023542
 51
270.0
  0
ARC
  5
1AC
330
1F
100
AcDbEntity
  8
SCREW_BOSSES
100
AcDbCircle
 10
116.382267746
 20
122.6916565175
 30
0.0
 40
2.5
100
AcDbArc
 50
90.0
 51
126.8698976458
  0
ARC
  5
1AD
330
1F
100
AcDbEntity
  8
SCREW_BOSSES
100
AcDbCircle
 10
306.382267746
 20
122.6916565175
 30
0.0
 40
2.500000000000023
100
AcDbArc
 50
53.1301023542
 51
90.0
  0
ARC
  5
1AE
330
1F
100
AcDbEntity
  8
SCREW_BOSSES
100
AcDbCircle
 10
306.382267746
 20
132.6916565175
 30
0.0
 40
2.5
100
AcDbArc
 50
270.0
 51
306.8698976458
  0
ARC
  5
1AF
330
1F
100
AcDbEntity
  8
SCREW_BOSSES
100
AcDbCircle
 10
306.382267746
 20
193.7916565175
 30
0.0
 40
2.5
100
AcDbArc
 50
53.1301023542
 51
90.0
  0
ARC
  5
1B0
330
1F
100
AcDbEntity
  8
SCREW_BOSSES
100
AcDbCircle
 10
116.382267746
 20
193.7916565175
 30
0.0
 40
2.5
100
AcDbArc
 50
90.0
 51
126.8698976458
  0
ARC
  5
1B1
330
1F
100
AcDbEntity
  8
SWITCHES
100
AcDbCircle
 10
124.582267746
 20
141.4316565175
 30
0.0
 40
0.6500000000000057
100
AcDbArc
 50
0.0
 51
90.0
  0
ARC
  5
1B2
330
1F
100
AcDbEntity
  8
SWITCHES
100
AcDbCircle
 10
124.582267746
 20
138.7316565175
 30
0.0
 40
0.6500000000000057
100
AcDbArc
 50
270.0
 51
0.0
  0
ARC
  5
1B3
330
1F
100
AcDbEntity
  8
SWITCHES
100
AcDbCircle
 10
161.782267746
 20
123.5816565175
 30
0.0
 40
0.5
100
AcDbArc
 50
0.0
 51
180.0
  0
ARC
  5
1B4
330
1F
100
AcDbEntity
  8
SWITCHES
100
AcDbCircle
 10
191.982267746
 20
138.7316565175
 30
0.0
 40
0.6500000000000057
100
AcDbArc
 50
180.0
 51
270.0
  0
ARC
  5
1B5
330
1F
100
AcDbEntity
  8
SWITCHES
100
AcDbCircle
 10
191.982267746
 20
141.4316565175
 30
0.0
 40
0.6500000000000057
100
AcDbArc
 50
90.0
 51
180.0
  0
CIRCLE
  5
1B6
330
1F
100
AcDbEntity
  8
SWITCHES
100
AcDbCircle
 10
190.082267746
 20
165.0816565175
 30
0.0
 40
1.549999999999986
  0
CIRCLE
  5
1B7
330
1F
100
AcDbEntity
  8
SWITCHES
100
AcDbCircle
 10
126.482267746
 20
165.0816565175
 30
0.0
 40
1.55
  0
CIRCLE
  5
1B8
330
1F
100
AcDbEntity
  8
BUTTONS
100
AcDbCircle
 10
123.882267746
 20
120.1616565175
 30
0.0
 40
0.7249999999999979
  0
CIRCLE
  5
1B9
330
1F
100
AcDbEntity
  8
BUTTONS
100
AcDbCircle
 10
192.682267746
 20
120.1616565175
 30
0.0
 40
0.449999999999994
  0
ARC
  5
1BA
330
1F
100
AcDbEntity
  8
BUTTONS
100
AcDbCircle
 10
161.782267746
 20
123.3216565175
 30
0.0
 40
0.4699999999999989
100
AcDbArc
 50
0.0
 51
180.0
  0
ARC
  5
1BB
330
1F
100
AcDbEntity
  8
SCREW_BOSSES
100
AcDbCircle
 10
116.982267746
 20
198.7916565175
 30
0.0
 40
2.5
100
AcDbArc
 50
270.0
 51
0.0
  0
ARC
  5
1BC
330
1F
100
AcDbEntity
  8
SCREW_BOSSES
100
AcDbCircle
 10
203.382267746
 20
203.2916565175
 30
0.0
 40
2.500000000000028
100
AcDbArc
 50
180.0
 51
0.0
  0
ARC
  5
1BD
330
1F
100
AcDbEntity
  8
SCREW_BOSSES
100
AcDbCircle
 10
305.782267746
 20
198.7916565175
 30
0.0
 40
2.5
100
AcDbArc
 50
180.0
 51
270.0
  0
ARC
  5
1BE
330
1F
100
AcDbEntity
  8
SCREW_BOSSES
100
AcDbCircle
 10
304.682267746
 20
127.6916565175
 30
0.0
 40
2.500000000000014
100
AcDbArc
 50
90.0
 51
270.0
  0
ARC
  5
1BF
330
1F
100
AcDbEntity
  8
SCREW_BOSSES
100
AcDbCircle
 10
118.082267746
 20
127.6916565175
 30
0.0
 40
2.500000000000014
100
AcDbArc
 50
270.0
 51
90.0
  0
INSERT
  5
1E5
330
1F
100
AcDbEntity
  8
0
  6
Continuous
 62
     5
370
    18
100
AcDbBlockReference
  2
SW_HATCH_0
 10
235.832267746
 20
141.7854399425
 30
0.0
  0
INSERT
  5
212
330
1F
100
AcDbEntity
  8
0
  6
Continuous
 62
     5
370
    18
100
AcDbBlockReference
  2
SW_HATCH_1
 10
237.8047997611
 20
134.6916565175
 30
0.0
  0
POINT
  5
213
330
1F
100
AcDbEntity
  8
ENCODERS
100
AcDbPoint
 10
252.332267746
 20
137.6916565175
 30
0.0
  0
POINT
  5
214
330
1F
100
AcDbEntity
  8
HMI_LINE
100
AcDbPoint
 10
252.332267746
 20
124.2916565175
 30
0.0
  0
MTEXT
  5
216
330
1F
100
AcDbEntity
  8
PCB_CUT_LAYER
100
AcDbMText
 10
116.1908034371
 20
110.2157720046
 30
0.0
 40
3.5
 41
0.0
 71
     1
 72
     1
  1
Cut Layer
  7
SLDTEXTSTYLE0
 73
     1
 44
1.0
  0
MTEXT
  5
217
330
1F
100
AcDbEntity
  8
JACKS
100
AcDbMText
 10
116.1908034371
 20
104.9673480795
 30
0.0
 40
3.5
 41
0.0
 71
     1
 72
     1
  1
Jacks
  7
SLDTEXTSTYLE0
 73
     1
 44
1.0
  0
MTEXT
  5
218
330
1F
100
AcDbEntity
  8
FOOTSWITCHES
100
AcDbMText
 10
116.1908034371
 20
99.6307230843
 30
0.0
 40
3.5
 41
0.0
 71
     1
 72
     1
  1
Foot Switches [8-14mm clearance]
  7
SLDTEXTSTYLE0
 73
     1
 44
1.0
  0
MTEXT
  5
219
330
1F
100
AcDbEntity
  8
HMI_LINE
100
AcDbMText
 10
116.1908034371
 20
94.472085301
 30
0.0
 40
3.5
 41
0.0
 71
     1
 72
     1
  1
HMI Center Line
  7
SLDTEXTSTYLE0
 73
     1
 44
1.0
  0
MTEXT
  5
21A
330
1F
100
AcDbEntity
  8
SCREW_BOSSES
100
AcDbMText
 10
116.1908034371
 20
89.5197930291
 30
0.0
 40
3.5
 41
0.0
 71
     1
 72
     1
  1
Screw Bosses [0mm clearance]
  7
SLDTEXTSTYLE0
 73
     1
 44
1.0
  0
INSERT
  5
220
330
1F
100
AcDbEntity
  8
JACKS
100
AcDbBlockReference
  2
SW_NOTE_0
 10
107.8575742508
 20
219.3060811705
 30
0.0
  0
LEADER
  5
222
330
1F
100
AcDbEntity
  8
JACKS
100
AcDbLeader
  3
SLDDIMSTYLE0
 76
     2
 10
125.282267746
 20
207.2916565175
 30
0.0
 10
107.8575742508
 20
219.3060811705
 30
0.0
  0
INSERT
  5
228
330
1F
100
AcDbEntity
  8
FOOTSWITCHES
100
AcDbBlockReference
  2
SW_NOTE_0_1
 10
218.308411215
 20
91.3855204228
 30
0.0
  0
LEADER
  5
229
330
1F
100
AcDbEntity
  8
FOOTSWITCHES
100
AcDbLeader
  3
SLDDIMSTYLE0
 76
     2
 10
211.7448805449
 20
113.9916565175
 30
0.0
 10
218.308411215
 20
91.3855204228
 30
0.0
  0
INSERT
  5
22F
330
1F
100
AcDbEntity
  8
HMI_LINE
100
AcDbBlockReference
  2
SW_NOTE_0_2
 10
282.4439252336
 20
67.436922292
 30
0.0
  0
LEADER
  5
230
330
1F
100
AcDbEntity
  8
HMI_LINE
100
AcDbLeader
  3
SLDDIMSTYLE0
 76
     2
 10
252.332267746
 20
117.2602165681
 30
0.0
 10
282.4439252336
 20
67.436922292
 30
0.0
  0
INSERT
  5
236
330
1F
100
AcDbEntity
  8
SCREW_BOSSES
100
AcDbBlockReference
  2
SW_NOTE_0_3
 10
318.7757009346
 20
141.7359877125
 30
0.0
  0
LEADER
  5
237
330
1F
100
AcDbEntity
  8
SCREW_BOSSES
100
AcDbLeader
  3
SLDDIMSTYLE0
 76
     2
 10
307.882267746
 20
130.6916565175
 30
0.0
 10
318.7757009346
 20
141.7359877125
 30
0.0
  0
INSERT
  5
23D
330
1F
100
AcDbEntity
  8
HMI_LINE
100
AcDbBlockReference
  2
SW_NOTE_0_4
 10
282.4439252336
 20
82.2733708901
 30
0.0
  0
LEADER
  5
23E
330
1F
100
AcDbEntity
  8
HMI_LINE
100
AcDbLeader
  3
SLDDIMSTYLE0
 76
     2
 10
255.5545616265
 20
119.7916565175
 30
0.0
 10
282.4439252336
 20
82.2733708901
 30
0.0
  0
INSERT
  5
244
330
1F
100
AcDbEntity
  8
HMI_LINE
100
AcDbBlockReference
  2
SW_NOTE_0_5
 10
282.4439252336
 20
95.0070157499
 30
0.0
  0
LEADER
  5
245
330
1F
100
AcDbEntity
  8
HMI_LINE
100
AcDbLeader
  3
SLDDIMSTYLE0
 76
     2
 10
261.3492316188
 20
121.2916565175
 30
0.0
 10
282.4439252336
 20
95.0070157499
 30
0.0
  0
INSERT
  5
24C
330
1F
100
AcDbEntity
  8
ENCODERS
100
AcDbBlockReference
  2
SW_NOTE_0_6
 10
318.308411215
 20
159.9906670139
 30
0.0
  0
LEADER
  5
254
330
1F
100
AcDbEntity
  8
ENCODERS
100
AcDbLeader
  3
SLDDIMSTYLE1
 76
     2
 10
260.0821805674
 20
137.275283038
 30
0.0
 10
318.308411215
 20
159.9906670139
 30
0.0
  0
INSERT
  5
25B
330
1F
100
AcDbEntity
  8
ENCODERS
100
AcDbBlockReference
  2
SW_NOTE_0_7
 10
318.8925233645
 20
176.3458072008
 30
0.0
  0
LEADER
  5
25C
330
1F
100
AcDbEntity
  8
ENCODERS
100
AcDbLeader
  3
SLDDIMSTYLE0
 76
     2
 10
262.7978991169
 20
142.1916565175
 30
0.0
 10
318.8925233645
 20
176.3458072008
 30
0.0
  0
INSERT
  5
262
330
1F
100
AcDbEntity
  8
SWITCHES
100
AcDbBlockReference
  2
SW_NOTE_0_8
 10
94.2414599844
 20
169.0724363107
 30
0.0
  0
LEADER
  5
263
330
1F
100
AcDbEntity
  8
SWITCHES
100
AcDbLeader
  3
SLDDIMSTYLE0
 76
     2
 10
123.482267746
 20
155.0774198141
 30
0.0
 10
94.2414599844
 20
169.0724363107
 30
0.0
  0
INSERT
  5
269
330
1F
100
AcDbEntity
  8
BUTTONS
100
AcDbBlockReference
  2
SW_NOTE_0_9
 10
96.1709587268
 20
149.5630905163
 30
0.0
  0
LEADER
  5
26A
330
1F
100
AcDbEntity
  8
BUTTONS
100
AcDbLeader
  3
SLDDIMSTYLE0
 76
     2
 10
122.482267746
 20
137.6743383496
 30
0.0
 10
96.1709587268
 20
149.5630905163
 30
0.0
  0
MTEXT
  5
26B
330
1F
100
AcDbEntity
  8
BUTTONS
100
AcDbMText
 10
116.1703145486
 20
78.8374749494
 30
0.0
 40
3.5
 41
0.0
 71
     1
 72
     1
  1
260P DDR4 5.2 STD Connector
  7
SLDTEXTSTYLE0
 73
     1
 44
1.0
  0
MTEXT
  5
26C
330
1F
100
AcDbEntity
  8
SWITCHES
100
AcDbMText
 10
116.1703145486
 20
84.1246787667
 30
0.0
 40
3.5
 41
0.0
 71
     1
 72
     1
  1
Firefly PX30 SoM
  7
SLDTEXTSTYLE0
 73
     1
 44
1.0
  0
MTEXT
  5
26D
330
1F
100
AcDbEntity
  8
ENCODERS
100
AcDbMText
 10
116.1703145486
 20
73.5682739889
 30
0.0
 40
3.5
 41
0.0
 71
     1
 72
     1
  1
HMI Receptical (TOP) [8.7mm clearance]
  7
SLDTEXTSTYLE0
 73
     1
 44
1.0
  0
MTEXT
  5
26E
330
1F
100
AcDbEntity
  8
ENCODERS
100
AcDbMText
 10
116.1703145486
 20
68.3793152388
 30
0.0
 40
3.5
 41
0.0
 71
     1
 72
     1
  1
HMI Cable Connector (TOP) [4.6mm clearance]
  7
SLDTEXTSTYLE0
 73
     1
 44
1.0
  0
ENDSEC
  0
SECTION
  2
OBJECTS
  0
DICTIONARY
  5
C
330
0
100
AcDbDictionary
281
     1
  3
ACAD_GROUP
350
D
  3
ACAD_LAYOUT
350
1A
  3
ACAD_MLINESTYLE
350
17
  3
ACAD_PLOTSETTINGS
350
19
  3
ACAD_PLOTSTYLENAME
350
E
  3
ACAD_SCALELIST
350
47
  0
DICTIONARY
  5
D
102
{ACAD_REACTORS
330
C
102
}
330
C
100
AcDbDictionary
281
     1
  0
DICTIONARY
  5
1A
102
{ACAD_REACTORS
330
C
102
}
330
C
100
AcDbDictionary
281
     1
  3
Layout1
350
1E
  3
Layout2
350
26
  3
Model
350
22
  0
DICTIONARY
  5
17
102
{ACAD_REACTORS
330
C
102
}
330
C
100
AcDbDictionary
281
     1
  3
Standard
350
18
  0
DICTIONARY
  5
19
102
{ACAD_REACTORS
330
C
102
}
330
C
100
AcDbDictionary
281
     1
  0
ACDBDICTIONARYWDFLT
  5
E
102
{ACAD_REACTORS
330
C
102
}
330
C
100
AcDbDictionary
281
     1
  3
Normal
350
F
100
AcDbDictionaryWithDefault
340
F
  0
DICTIONARY
  5
47
102
{ACAD_REACTORS
330
C
102
}
330
C
100
AcDbDictionary
281
     1
  3
A0
350
48
  3
A1
350
49
  3
A2
350
4A
  3
A3
350
4B
  3
A4
350
4C
  3
A5
350
4D
  3
A6
350
4E
  3
A7
350
4F
  3
A8
350
50
  3
A9
350
51
  3
B0
350
52
  3
B1
350
53
  3
B2
350
54
  3
B3
350
55
  3
B4
350
56
  3
B5
350
57
  3
B6
350
58
  3
B7
350
59
  3
B8
350
5A
  3
B9
350
5B
  3
C0
350
5C
  3
C1
350
5D
  3
C2
350
5E
  3
C3
350
5F
  3
C4
350
60
  3
C5
350
61
  3
C6
350
62
  3
C7
350
63
  3
C8
350
64
  3
C9
350
65
  3
D0
350
66
  3
D1
350
67
  3
D2
350
68
  0
LAYOUT
  5
1E
102
{ACAD_REACTORS
330
1A
102
}
330
1A
100
AcDbPlotSettings
  1

  2
none_device
  4

  6

 40
0.0
 41
0.0
 42
0.0
 43
0.0
 44
0.0
 45
0.0
 46
0.0
 47
0.0
 48
0.0
 49
0.0
140
0.0
141
0.0
142
1.0
143
1.0
 70
   688
 72
     1
 73
     0
 74
     5
  7

 75
    16
147
1.0
148
0.0
149
0.0
100
AcDbLayout
  1
Layout1
 70
     1
 71
     1
 10
0.0
 20
0.0
 11
420.0
 21
297.0
 12
0.0
 22
0.0
 32
0.0
 14
1.0000000000E+20
 24
1.0000000000E+20
 34
1.0000000000E+20
 15
-1.0000000000E+20
 25
-1.0000000000E+20
 35
-1.0000000000E+20
146
0.0
 13
0.0
 23
0.0
 33
0.0
 16
1.0
 26
0.0
 36
0.0
 17
0.0
 27
1.0
 37
0.0
 76
     0
330
1B
  0
LAYOUT
  5
26
102
{ACAD_REACTORS
330
1A
102
}
330
1A
100
AcDbPlotSettings
  1

  2
none_device
  4

  6

 40
0.0
 41
0.0
 42
0.0
 43
0.0
 44
0.0
 45
0.0
 46
0.0
 47
0.0
 48
0.0
 49
0.0
140
0.0
141
0.0
142
1.0
143
1.0
 70
   688
 72
     1
 73
     0
 74
     5
  7

 75
    16
147
1.0
148
0.0
149
0.0
100
AcDbLayout
  1
Layout2
 70
     1
 71
     2
 10
0.0
 20
0.0
 11
0.0
 21
0.0
 12
0.0
 22
0.0
 32
0.0
 14
0.0
 24
0.0
 34
0.0
 15
0.0
 25
0.0
 35
0.0
146
0.0
 13
0.0
 23
0.0
 33
0.0
 16
1.0
 26
0.0
 36
0.0
 17
0.0
 27
1.0
 37
0.0
 76
     0
330
23
  0
LAYOUT
  5
22
102
{ACAD_REACTORS
330
1A
102
}
330
1A
100
AcDbPlotSettings
  1

  2
none_device
  4
Letter_(8.50_x_11.00_Inches)
  6

 40
6.35
 41
6.35
 42
6.35000508
 43
6.35000508
 44
215.9
 45
279.4
 46
0.0
 47
0.0
 48
0.0
 49
0.0
140
0.0
141
0.0
142
1.0
143
1.0
 70
  1712
 72
     1
 73
     0
 74
     0
  7

 75
     0
147
1.0
148
0.0
149
0.0
100
AcDbLayout
  1
Model
 70
     1
 71
     0
 10
0.0
 20
0.0
 11
420.0
 21
297.0
 12
0.0
 22
0.0
 32
0.0
 14
0.0
 24
0.0
 34
0.0
 15
420.0
 25
297.0
 35
0.0
146
0.0
 13
0.0
 23
0.0
 33
0.0
 16
1.0
 26
0.0
 36
0.0
 17
0.0
 27
1.0
 37
0.0
 76
     0
330
1F
331
29
  0
MLINESTYLE
  5
18
102
{ACAD_REACTORS
330
17
102
}
330
17
100
AcDbMlineStyle
  2
Standard
 70
     0
  3

 62
   256
 51
90.0
 52
90.0
 71
     2
 49
0.5
 62
   256
  6
BYLAYER
 49
-0.5
 62
   256
  6
BYLAYER
  0
ACDBPLACEHOLDER
  5
F
102
{ACAD_REACTORS
330
E
102
}
330
E
  0
SCALE
  5
48
102
{ACAD_REACTORS
330
47
102
}
330
47
100
AcDbScale
 70
     0
300
1:1
140
1.0
141
1.0
290
     1
  0
SCALE
  5
49
102
{ACAD_REACTORS
330
47
102
}
330
47
100
AcDbScale
 70
     0
300
1:2
140
1.0
141
2.0
290
     0
  0
SCALE
  5
4A
102
{ACAD_REACTORS
330
47
102
}
330
47
100
AcDbScale
 70
     0
300
1:4
140
1.0
141
4.0
290
     0
  0
SCALE
  5
4B
102
{ACAD_REACTORS
330
47
102
}
330
47
100
AcDbScale
 70
     0
300
1:5
140
1.0
141
5.0
290
     0
  0
SCALE
  5
4C
102
{ACAD_REACTORS
330
47
102
}
330
47
100
AcDbScale
 70
     0
300
1:8
140
1.0
141
8.0
290
     0
  0
SCALE
  5
4D
102
{ACAD_REACTORS
330
47
102
}
330
47
100
AcDbScale
 70
     0
300
1:10
140
1.0
141
10.0
290
     0
  0
SCALE
  5
4E
102
{ACAD_REACTORS
330
47
102
}
330
47
100
AcDbScale
 70
     0
300
1:16
140
1.0
141
16.0
290
     0
  0
SCALE
  5
4F
102
{ACAD_REACTORS
330
47
102
}
330
47
100
AcDbScale
 70
     0
300
1:20
140
1.0
141
20.0
290
     0
  0
SCALE
  5
50
102
{ACAD_REACTORS
330
47
102
}
330
47
100
AcDbScale
 70
     0
300
1:30
140
1.0
141
30.0
290
     0
  0
SCALE
  5
51
102
{ACAD_REACTORS
330
47
102
}
330
47
100
AcDbScale
 70
     0
300
1:40
140
1.0
141
40.0
290
     0
  0
SCALE
  5
52
102
{ACAD_REACTORS
330
47
102
}
330
47
100
AcDbScale
 70
     0
300
1:50
140
1.0
141
50.0
290
     0
  0
SCALE
  5
53
102
{ACAD_REACTORS
330
47
102
}
330
47
100
AcDbScale
 70
     0
300
1:100
140
1.0
141
100.0
290
     0
  0
SCALE
  5
54
102
{ACAD_REACTORS
330
47
102
}
330
47
100
AcDbScale
 70
     0
300
2:1
140
2.0
141
1.0
290
     0
  0
SCALE
  5
55
102
{ACAD_REACTORS
330
47
102
}
330
47
100
AcDbScale
 70
     0
300
4:1
140
4.0
141
1.0
290
     0
  0
SCALE
  5
56
102
{ACAD_REACTORS
330
47
102
}
330
47
100
AcDbScale
 70
     0
300
8:1
140
8.0
141
1.0
290
     0
  0
SCALE
  5
57
102
{ACAD_REACTORS
330
47
102
}
330
47
100
AcDbScale
 70
     0
300
10:1
140
10.0
141
1.0
290
     0
  0
SCALE
  5
58
102
{ACAD_REACTORS
330
47
102
}
330
47
100
AcDbScale
 70
     0
300
100:1
140
100.0
141
1.0
290
     0
  0
SCALE
  5
59
102
{ACAD_REACTORS
330
47
102
}
330
47
100
AcDbScale
 70
     0
300
1/128" = 1'-0"
140
0.0078125
141
12.0
290
     0
  0
SCALE
  5
5A
102
{ACAD_REACTORS
330
47
102
}
330
47
100
AcDbScale
 70
     0
300
1/64" = 1'-0"
140
0.015625
141
12.0
290
     0
  0
SCALE
  5
5B
102
{ACAD_REACTORS
330
47
102
}
330
47
100
AcDbScale
 70
     0
300
1/32" = 1'-0"
140
0.03125
141
12.0
290
     0
  0
SCALE
  5
5C
102
{ACAD_REACTORS
330
47
102
}
330
47
100
AcDbScale
 70
     0
300
1/16" = 1'-0"
140
0.0625
141
12.0
290
     0
  0
SCALE
  5
5D
102
{ACAD_REACTORS
330
47
102
}
330
47
100
AcDbScale
 70
     0
300
3/32" = 1'-0"
140
0.09375
141
12.0
290
     0
  0
SCALE
  5
5E
102
{ACAD_REACTORS
330
47
102
}
330
47
100
AcDbScale
 70
     0
300
1/8" = 1'-0"
140
0.125
141
12.0
290
     0
  0
SCALE
  5
5F
102
{ACAD_REACTORS
330
47
102
}
330
47
100
AcDbScale
 70
     0
300
3/16" = 1'-0"
140
0.1875
141
12.0
290
     0
  0
SCALE
  5
60
102
{ACAD_REACTORS
330
47
102
}
330
47
100
AcDbScale
 70
     0
300
1/4" = 1'-0"
140
0.25
141
12.0
290
     0
  0
SCALE
  5
61
102
{ACAD_REACTORS
330
47
102
}
330
47
100
AcDbScale
 70
     0
300
3/8" = 1'-0"
140
0.375
141
12.0
290
     0
  0
SCALE
  5
62
102
{ACAD_REACTORS
330
47
102
}
330
47
100
AcDbScale
 70
     0
300
1/2" = 1'-0"
140
0.5
141
12.0
290
     0
  0
SCALE
  5
63
102
{ACAD_REACTORS
330
47
102
}
330
47
100
AcDbScale
 70
     0
300
3/4" = 1'-0"
140
0.75
141
12.0
290
     0
  0
SCALE
  5
64
102
{ACAD_REACTORS
330
47
102
}
330
47
100
AcDbScale
 70
     0
300
1" = 1'-0"
140
1.0
141
12.0
290
     0
  0
SCALE
  5
65
102
{ACAD_REACTORS
330
47
102
}
330
47
100
AcDbScale
 70
     0
300
1-1/2" = 1'-0"
140
1.5
141
12.0
290
     0
  0
SCALE
  5
66
102
{ACAD_REACTORS
330
47
102
}
330
47
100
AcDbScale
 70
     0
300
3" = 1'-0"
140
3.0
141
12.0
290
     0
  0
SCALE
  5
67
102
{ACAD_REACTORS
330
47
102
}
330
47
100
AcDbScale
 70
     0
300
6" = 1'-0"
140
6.0
141
12.0
290
     0
  0
SCALE
  5
68
102
{ACAD_REACTORS
330
47
102
}
330
47
100
AcDbScale
 70
     0
300
1'-0" = 1'-0"
140
12.0
141
12.0
290
     0
  0
ENDSEC
  0
EOF
