G04 #@! TF.GenerationSoftware,KiCad,Pcbnew,6.0.4-6f826c9f35~116~ubuntu20.04.1*
G04 #@! TF.CreationDate,2022-05-04T11:28:09+02:00*
G04 #@! TF.ProjectId,bottom-board,626f7474-6f6d-42d6-926f-6172642e6b69,rev?*
G04 #@! TF.SameCoordinates,Original*
G04 #@! TF.FileFunction,Soldermask,Top*
G04 #@! TF.FilePolarity,Negative*
%FSLAX46Y46*%
G04 Gerber Fmt 4.6, Leading zero omitted, Abs format (unit mm)*
G04 Created by KiCad (PCBNEW 6.0.4-6f826c9f35~116~ubuntu20.04.1) date 2022-05-04 11:28:09*
%MOMM*%
%LPD*%
G01*
G04 APERTURE LIST*
G04 Aperture macros list*
%AMRoundRect*
0 Rectangle with rounded corners*
0 $1 Rounding radius*
0 $2 $3 $4 $5 $6 $7 $8 $9 X,Y pos of 4 corners*
0 Add a 4 corners polygon primitive as box body*
4,1,4,$2,$3,$4,$5,$6,$7,$8,$9,$2,$3,0*
0 Add four circle primitives for the rounded corners*
1,1,$1+$1,$2,$3*
1,1,$1+$1,$4,$5*
1,1,$1+$1,$6,$7*
1,1,$1+$1,$8,$9*
0 Add four rect primitives between the rounded corners*
20,1,$1+$1,$2,$3,$4,$5,0*
20,1,$1+$1,$4,$5,$6,$7,0*
20,1,$1+$1,$6,$7,$8,$9,0*
20,1,$1+$1,$8,$9,$2,$3,0*%
%AMFreePoly0*
4,1,37,0.535355,0.785355,0.550000,0.750000,0.550000,-0.750000,0.535355,-0.785355,0.500000,-0.800000,0.000000,-0.800000,-0.012524,-0.794812,-0.080857,-0.793560,-0.094851,-0.791293,-0.230166,-0.749018,-0.242962,-0.742915,-0.360972,-0.664360,-0.371540,-0.654911,-0.462760,-0.546392,-0.470252,-0.534356,-0.527347,-0.404597,-0.531159,-0.390943,-0.548742,-0.256483,-0.547388,-0.256306,-0.550000,-0.250000,
-0.550000,0.250000,-0.549522,0.251153,-0.549368,0.263802,-0.527557,0.403879,-0.523412,0.417435,-0.463164,0.545760,-0.455381,0.557609,-0.361537,0.663867,-0.350741,0.673055,-0.230846,0.748703,-0.217905,0.754492,-0.081598,0.793449,-0.067552,0.795373,-0.011991,0.795033,0.000000,0.800000,0.500000,0.800000,0.535355,0.785355,0.535355,0.785355,$1*%
%AMFreePoly1*
4,1,37,0.012350,0.794884,0.074210,0.794507,0.088231,0.792412,0.224052,0.751793,0.236921,0.745846,0.355883,0.668739,0.366566,0.659420,0.459104,0.552023,0.466742,0.540080,0.525419,0.411028,0.529398,0.397421,0.549495,0.257088,0.550000,0.250000,0.550000,-0.250000,0.549996,-0.250610,0.549847,-0.262826,0.549158,-0.270511,0.525638,-0.410312,0.521328,-0.423818,0.459516,-0.551397,
0.451589,-0.563150,0.356454,-0.668254,0.345546,-0.677309,0.224736,-0.751486,0.211726,-0.757116,0.074953,-0.794405,0.060885,-0.796158,0.011462,-0.795252,0.000000,-0.800000,-0.500000,-0.800000,-0.535355,-0.785355,-0.550000,-0.750000,-0.550000,0.750000,-0.535355,0.785355,-0.500000,0.800000,0.000000,0.800000,0.012350,0.794884,0.012350,0.794884,$1*%
G04 Aperture macros list end*
%ADD10RoundRect,0.293750X0.456250X-0.243750X0.456250X0.243750X-0.456250X0.243750X-0.456250X-0.243750X0*%
%ADD11RoundRect,0.293750X-0.243750X-0.456250X0.243750X-0.456250X0.243750X0.456250X-0.243750X0.456250X0*%
%ADD12RoundRect,0.268750X0.218750X0.256250X-0.218750X0.256250X-0.218750X-0.256250X0.218750X-0.256250X0*%
%ADD13RoundRect,0.268750X-0.218750X-0.256250X0.218750X-0.256250X0.218750X0.256250X-0.218750X0.256250X0*%
%ADD14RoundRect,0.268750X0.256250X-0.218750X0.256250X0.218750X-0.256250X0.218750X-0.256250X-0.218750X0*%
%ADD15RoundRect,0.050000X0.700000X-0.600000X0.700000X0.600000X-0.700000X0.600000X-0.700000X-0.600000X0*%
%ADD16RoundRect,0.050000X0.700000X-0.500000X0.700000X0.500000X-0.700000X0.500000X-0.700000X-0.500000X0*%
%ADD17RoundRect,0.050000X-0.600000X-0.700000X0.600000X-0.700000X0.600000X0.700000X-0.600000X0.700000X0*%
%ADD18RoundRect,0.050000X-0.500000X-0.700000X0.500000X-0.700000X0.500000X0.700000X-0.500000X0.700000X0*%
%ADD19C,1.800000*%
%ADD20RoundRect,0.050000X-1.400000X-1.100000X1.400000X-1.100000X1.400000X1.100000X-1.400000X1.100000X0*%
%ADD21RoundRect,0.050000X-1.400000X-1.400000X1.400000X-1.400000X1.400000X1.400000X-1.400000X1.400000X0*%
%ADD22RoundRect,0.268750X-0.256250X0.218750X-0.256250X-0.218750X0.256250X-0.218750X0.256250X0.218750X0*%
%ADD23RoundRect,0.050000X0.400000X-0.450000X0.400000X0.450000X-0.400000X0.450000X-0.400000X-0.450000X0*%
%ADD24R,3.000000X3.000000*%
%ADD25C,1.100000*%
%ADD26RoundRect,0.200000X0.150000X-0.825000X0.150000X0.825000X-0.150000X0.825000X-0.150000X-0.825000X0*%
%ADD27RoundRect,0.300000X1.250000X0.550000X-1.250000X0.550000X-1.250000X-0.550000X1.250000X-0.550000X0*%
%ADD28RoundRect,0.300000X-0.550000X1.050000X-0.550000X-1.050000X0.550000X-1.050000X0.550000X1.050000X0*%
%ADD29RoundRect,0.300000X1.050000X0.550000X-1.050000X0.550000X-1.050000X-0.550000X1.050000X-0.550000X0*%
%ADD30RoundRect,0.300000X0.550000X-1.500000X0.550000X1.500000X-0.550000X1.500000X-0.550000X-1.500000X0*%
%ADD31RoundRect,0.050000X-0.300000X-0.225000X0.300000X-0.225000X0.300000X0.225000X-0.300000X0.225000X0*%
%ADD32RoundRect,0.050000X0.300000X0.225000X-0.300000X0.225000X-0.300000X-0.225000X0.300000X-0.225000X0*%
%ADD33RoundRect,0.050000X0.225000X-0.300000X0.225000X0.300000X-0.225000X0.300000X-0.225000X-0.300000X0*%
%ADD34C,5.700000*%
%ADD35RoundRect,0.050000X-0.125000X0.550000X-0.125000X-0.550000X0.125000X-0.550000X0.125000X0.550000X0*%
%ADD36RoundRect,0.050000X-0.450000X-0.400000X0.450000X-0.400000X0.450000X0.400000X-0.450000X0.400000X0*%
%ADD37RoundRect,0.050000X0.450000X0.400000X-0.450000X0.400000X-0.450000X-0.400000X0.450000X-0.400000X0*%
%ADD38RoundRect,0.050000X-0.400000X0.450000X-0.400000X-0.450000X0.400000X-0.450000X0.400000X0.450000X0*%
%ADD39RoundRect,0.200000X0.825000X0.150000X-0.825000X0.150000X-0.825000X-0.150000X0.825000X-0.150000X0*%
%ADD40C,2.100000*%
%ADD41RoundRect,0.112500X0.375000X0.062500X-0.375000X0.062500X-0.375000X-0.062500X0.375000X-0.062500X0*%
%ADD42RoundRect,0.112500X0.062500X0.375000X-0.062500X0.375000X-0.062500X-0.375000X0.062500X-0.375000X0*%
%ADD43RoundRect,0.299999X1.300001X1.300001X-1.300001X1.300001X-1.300001X-1.300001X1.300001X-1.300001X0*%
%ADD44RoundRect,0.050000X-0.750000X3.300000X-0.750000X-3.300000X0.750000X-3.300000X0.750000X3.300000X0*%
%ADD45RoundRect,0.050000X-0.850000X-0.850000X0.850000X-0.850000X0.850000X0.850000X-0.850000X0.850000X0*%
%ADD46O,1.800000X1.800000*%
%ADD47RoundRect,0.300000X1.950000X1.000000X-1.950000X1.000000X-1.950000X-1.000000X1.950000X-1.000000X0*%
%ADD48RoundRect,0.299999X0.712501X2.475001X-0.712501X2.475001X-0.712501X-2.475001X0.712501X-2.475001X0*%
%ADD49RoundRect,0.050000X0.325000X-0.530000X0.325000X0.530000X-0.325000X0.530000X-0.325000X-0.530000X0*%
%ADD50RoundRect,0.300000X0.550000X-1.050000X0.550000X1.050000X-0.550000X1.050000X-0.550000X-1.050000X0*%
%ADD51FreePoly0,90.000000*%
%ADD52FreePoly1,90.000000*%
%ADD53RoundRect,0.300000X-1.250000X-0.550000X1.250000X-0.550000X1.250000X0.550000X-1.250000X0.550000X0*%
%ADD54RoundRect,0.300000X-1.050000X-0.550000X1.050000X-0.550000X1.050000X0.550000X-1.050000X0.550000X0*%
%ADD55RoundRect,0.050000X0.750000X1.350000X-0.750000X1.350000X-0.750000X-1.350000X0.750000X-1.350000X0*%
%ADD56RoundRect,0.050000X-1.100000X-0.600000X1.100000X-0.600000X1.100000X0.600000X-1.100000X0.600000X0*%
%ADD57RoundRect,0.050000X-3.200000X-2.900000X3.200000X-2.900000X3.200000X2.900000X-3.200000X2.900000X0*%
%ADD58RoundRect,0.275000X0.250000X-0.225000X0.250000X0.225000X-0.250000X0.225000X-0.250000X-0.225000X0*%
%ADD59RoundRect,0.050000X1.000000X-0.900000X1.000000X0.900000X-1.000000X0.900000X-1.000000X-0.900000X0*%
%ADD60RoundRect,0.250000X0.200000X0.275000X-0.200000X0.275000X-0.200000X-0.275000X0.200000X-0.275000X0*%
%ADD61RoundRect,0.050000X-1.000000X-0.750000X1.000000X-0.750000X1.000000X0.750000X-1.000000X0.750000X0*%
%ADD62RoundRect,0.050000X-1.000000X-1.900000X1.000000X-1.900000X1.000000X1.900000X-1.000000X1.900000X0*%
%ADD63RoundRect,0.050000X-0.700000X0.650000X-0.700000X-0.650000X0.700000X-0.650000X0.700000X0.650000X0*%
%ADD64RoundRect,0.250000X0.275000X-0.200000X0.275000X0.200000X-0.275000X0.200000X-0.275000X-0.200000X0*%
%ADD65RoundRect,0.300000X0.475000X-0.250000X0.475000X0.250000X-0.475000X0.250000X-0.475000X-0.250000X0*%
%ADD66C,3.100000*%
%ADD67RoundRect,0.050000X1.500000X-1.500000X1.500000X1.500000X-1.500000X1.500000X-1.500000X-1.500000X0*%
%ADD68C,1.720000*%
%ADD69C,1.950000*%
%ADD70RoundRect,0.050000X0.850000X-0.850000X0.850000X0.850000X-0.850000X0.850000X-0.850000X-0.850000X0*%
%ADD71C,3.600000*%
%ADD72RoundRect,0.050000X-1.750000X1.750000X-1.750000X-1.750000X1.750000X-1.750000X1.750000X1.750000X0*%
%ADD73RoundRect,0.800000X-1.000000X0.750000X-1.000000X-0.750000X1.000000X-0.750000X1.000000X0.750000X0*%
%ADD74RoundRect,0.925000X-0.875000X0.875000X-0.875000X-0.875000X0.875000X-0.875000X0.875000X0.875000X0*%
%ADD75C,3.300000*%
%ADD76RoundRect,0.050000X0.980000X0.980000X-0.980000X0.980000X-0.980000X-0.980000X0.980000X-0.980000X0*%
%ADD77C,2.060000*%
%ADD78C,1.750000*%
%ADD79C,1.250000*%
%ADD80RoundRect,0.050000X0.150000X0.875000X-0.150000X0.875000X-0.150000X-0.875000X0.150000X-0.875000X0*%
%ADD81RoundRect,0.050000X1.750000X2.300000X-1.750000X2.300000X-1.750000X-2.300000X1.750000X-2.300000X0*%
%ADD82RoundRect,0.050000X0.530000X0.325000X-0.530000X0.325000X-0.530000X-0.325000X0.530000X-0.325000X0*%
%ADD83RoundRect,0.250000X-0.275000X0.200000X-0.275000X-0.200000X0.275000X-0.200000X0.275000X0.200000X0*%
%ADD84RoundRect,0.275000X-0.250000X0.225000X-0.250000X-0.225000X0.250000X-0.225000X0.250000X0.225000X0*%
%ADD85RoundRect,0.050000X-2.700000X1.450000X-2.700000X-1.450000X2.700000X-1.450000X2.700000X1.450000X0*%
%ADD86RoundRect,0.050000X2.300000X0.550000X-2.300000X0.550000X-2.300000X-0.550000X2.300000X-0.550000X0*%
%ADD87RoundRect,0.050000X4.700000X5.400000X-4.700000X5.400000X-4.700000X-5.400000X4.700000X-5.400000X0*%
%ADD88RoundRect,0.300000X-0.250000X-0.475000X0.250000X-0.475000X0.250000X0.475000X-0.250000X0.475000X0*%
%ADD89RoundRect,0.300000X0.250000X0.475000X-0.250000X0.475000X-0.250000X-0.475000X0.250000X-0.475000X0*%
%ADD90RoundRect,0.300000X-0.475000X0.250000X-0.475000X-0.250000X0.475000X-0.250000X0.475000X0.250000X0*%
%ADD91RoundRect,0.300000X-1.000000X1.950000X-1.000000X-1.950000X1.000000X-1.950000X1.000000X1.950000X0*%
%ADD92RoundRect,0.050000X1.050000X-0.700000X1.050000X0.700000X-1.050000X0.700000X-1.050000X-0.700000X0*%
%ADD93RoundRect,0.050000X0.700000X1.050000X-0.700000X1.050000X-0.700000X-1.050000X0.700000X-1.050000X0*%
%ADD94RoundRect,0.145250X-0.095250X-0.508000X0.095250X-0.508000X0.095250X0.508000X-0.095250X0.508000X0*%
%ADD95RoundRect,0.523471X-0.473471X-2.885679X0.473471X-2.885679X0.473471X2.885679X-0.473471X2.885679X0*%
%ADD96RoundRect,0.200000X-0.150000X0.587500X-0.150000X-0.587500X0.150000X-0.587500X0.150000X0.587500X0*%
%ADD97RoundRect,0.275000X0.225000X0.250000X-0.225000X0.250000X-0.225000X-0.250000X0.225000X-0.250000X0*%
G04 APERTURE END LIST*
D10*
X166600000Y-67057500D03*
X166600000Y-65182500D03*
D11*
X237637500Y-98425000D03*
X239512500Y-98425000D03*
X136537500Y-60325000D03*
X138412500Y-60325000D03*
D12*
X138425000Y-62175000D03*
X136850000Y-62175000D03*
D13*
X134072500Y-64055000D03*
X135647500Y-64055000D03*
D14*
X168000000Y-61000000D03*
X168000000Y-59425000D03*
D15*
X138950000Y-58295000D03*
D16*
X138950000Y-56575000D03*
X136750000Y-56575000D03*
X136750000Y-58475000D03*
D17*
X130355000Y-63530000D03*
D18*
X132075000Y-63530000D03*
X132075000Y-61330000D03*
X130175000Y-61330000D03*
D19*
X199110000Y-44030000D03*
X199110000Y-51030000D03*
D20*
X202810000Y-44930000D03*
X195410000Y-42930000D03*
D21*
X195410000Y-52330000D03*
D22*
X134872280Y-56540040D03*
X134872280Y-58115040D03*
D14*
X133285000Y-58112500D03*
X133285000Y-56537500D03*
D12*
X191587500Y-62400000D03*
X190012500Y-62400000D03*
D13*
X183000000Y-58400000D03*
X184575000Y-58400000D03*
D22*
X171870000Y-69755000D03*
X171870000Y-71330000D03*
X168800000Y-62600000D03*
X168800000Y-64175000D03*
X180000000Y-66112500D03*
X180000000Y-67687500D03*
D12*
X102510000Y-101230000D03*
X100935000Y-101230000D03*
D23*
X237650000Y-104050000D03*
X239550000Y-104050000D03*
X238600000Y-102050000D03*
X186450000Y-58770000D03*
X188350000Y-58770000D03*
X187400000Y-56770000D03*
X182850000Y-62000000D03*
X184750000Y-62000000D03*
X183800000Y-60000000D03*
D24*
X64280000Y-78300000D03*
D25*
X64280000Y-78300000D03*
X249650000Y-59750000D03*
D24*
X249650000Y-59750000D03*
D25*
X242900000Y-131600000D03*
D24*
X242900000Y-131600000D03*
D22*
X176930000Y-57352500D03*
X176930000Y-58927500D03*
X174800000Y-57362500D03*
X174800000Y-58937500D03*
D12*
X172775000Y-57400000D03*
X171200000Y-57400000D03*
D13*
X175725000Y-69800000D03*
X177300000Y-69800000D03*
D22*
X181400000Y-56800000D03*
X181400000Y-58375000D03*
D12*
X191587500Y-60800000D03*
X190012500Y-60800000D03*
X124662500Y-62225000D03*
X123087500Y-62225000D03*
D13*
X123075000Y-63850000D03*
X124650000Y-63850000D03*
D22*
X172800000Y-59025000D03*
X172800000Y-60600000D03*
D12*
X201387500Y-56800000D03*
X199812500Y-56800000D03*
D26*
X170590000Y-67675000D03*
X171860000Y-67675000D03*
X173130000Y-67675000D03*
X174400000Y-67675000D03*
X175670000Y-67675000D03*
X176940000Y-67675000D03*
X178210000Y-67675000D03*
X178210000Y-62725000D03*
X176940000Y-62725000D03*
X175670000Y-62725000D03*
X174400000Y-62725000D03*
X173130000Y-62725000D03*
X171860000Y-62725000D03*
X170590000Y-62725000D03*
D12*
X152062500Y-54450000D03*
X150487500Y-54450000D03*
D14*
X227400000Y-93400000D03*
X227400000Y-91825000D03*
X229100000Y-93387500D03*
X229100000Y-91812500D03*
D12*
X224245000Y-90440000D03*
X222670000Y-90440000D03*
D27*
X224958000Y-86614000D03*
X220558000Y-86614000D03*
D13*
X220770000Y-69890000D03*
X222345000Y-69890000D03*
X232850000Y-69760000D03*
X234425000Y-69760000D03*
D22*
X217400000Y-76225000D03*
X217400000Y-77800000D03*
X227100000Y-77412500D03*
X227100000Y-78987500D03*
D28*
X214600000Y-82800000D03*
X214600000Y-86400000D03*
X231648000Y-83036000D03*
X231648000Y-86636000D03*
D13*
X221792500Y-80700000D03*
X223367500Y-80700000D03*
X211112500Y-109220000D03*
X212687500Y-109220000D03*
X166175000Y-57500000D03*
X167750000Y-57500000D03*
D29*
X174550000Y-97850000D03*
X170950000Y-97850000D03*
X161950000Y-102410000D03*
X158350000Y-102410000D03*
X161850000Y-97450000D03*
X158250000Y-97450000D03*
D12*
X113000000Y-74900000D03*
X111425000Y-74900000D03*
D30*
X117450000Y-64250000D03*
X117450000Y-58850000D03*
D31*
X204250000Y-83600000D03*
X206350000Y-83600000D03*
D32*
X240450000Y-85000000D03*
X238350000Y-85000000D03*
D33*
X209000000Y-85600000D03*
X209000000Y-83500000D03*
D32*
X240550000Y-77600000D03*
X238450000Y-77600000D03*
D34*
X249207680Y-120727880D03*
D13*
X234462500Y-99480000D03*
X236037500Y-99480000D03*
D14*
X245620000Y-71720000D03*
X245620000Y-70145000D03*
X243870000Y-71707500D03*
X243870000Y-70132500D03*
X219170000Y-71490000D03*
X219170000Y-69915000D03*
X231250000Y-71360000D03*
X231250000Y-69785000D03*
X198900000Y-84975000D03*
X198900000Y-83400000D03*
D22*
X246000000Y-84525000D03*
X246000000Y-86100000D03*
D12*
X222370000Y-71490000D03*
X220795000Y-71490000D03*
X234425000Y-71360000D03*
X232850000Y-71360000D03*
X202000000Y-81300000D03*
X200425000Y-81300000D03*
D14*
X241700000Y-82475000D03*
X241700000Y-80900000D03*
X211950000Y-74745000D03*
X211950000Y-73170000D03*
D22*
X226950000Y-69100000D03*
X226950000Y-70675000D03*
D13*
X212212500Y-79700000D03*
X213787500Y-79700000D03*
D12*
X233300000Y-80500000D03*
X231725000Y-80500000D03*
X229375000Y-75800000D03*
X227800000Y-75800000D03*
D13*
X210825000Y-76300000D03*
X212400000Y-76300000D03*
D12*
X233275000Y-77400000D03*
X231700000Y-77400000D03*
D14*
X214000000Y-77975000D03*
X214000000Y-76400000D03*
X230000000Y-78975000D03*
X230000000Y-77400000D03*
D22*
X205300000Y-79625000D03*
X205300000Y-81200000D03*
D14*
X216700000Y-80975000D03*
X216700000Y-79400000D03*
D13*
X236700000Y-75800000D03*
X238275000Y-75800000D03*
D14*
X228500000Y-82300000D03*
X228500000Y-80725000D03*
D12*
X202375000Y-88300000D03*
X200800000Y-88300000D03*
D14*
X240400000Y-75700000D03*
X240400000Y-74125000D03*
D12*
X206175000Y-90400000D03*
X204600000Y-90400000D03*
D22*
X245900000Y-76725000D03*
X245900000Y-78300000D03*
D13*
X62712500Y-67056000D03*
X64287500Y-67056000D03*
X60934500Y-65278000D03*
X62509500Y-65278000D03*
D12*
X172587500Y-106000000D03*
X171012500Y-106000000D03*
X176830000Y-94900000D03*
X175255000Y-94900000D03*
X164475000Y-105150000D03*
X162900000Y-105150000D03*
X164625000Y-95250000D03*
X163050000Y-95250000D03*
D14*
X109750000Y-76450000D03*
X109750000Y-74875000D03*
X106960000Y-73027500D03*
X106960000Y-71452500D03*
D12*
X113550000Y-56850000D03*
X111975000Y-56850000D03*
D22*
X119100000Y-54275000D03*
X119100000Y-55850000D03*
D35*
X112950000Y-68550000D03*
X112450000Y-68550000D03*
X111950000Y-68550000D03*
X111450000Y-68550000D03*
X110950000Y-68550000D03*
X110950000Y-72850000D03*
X111450000Y-72850000D03*
X111950000Y-72850000D03*
X112450000Y-72850000D03*
X112950000Y-72850000D03*
D36*
X200600000Y-83250000D03*
X200600000Y-85150000D03*
X202600000Y-84200000D03*
D37*
X244400000Y-86100000D03*
X244400000Y-84200000D03*
X242400000Y-85150000D03*
D38*
X210450000Y-79700000D03*
X208550000Y-79700000D03*
X209500000Y-81700000D03*
D36*
X235000000Y-81150000D03*
X235000000Y-83050000D03*
X237000000Y-82100000D03*
X235100000Y-77400000D03*
X235100000Y-79300000D03*
X237100000Y-78350000D03*
D23*
X204550000Y-88800000D03*
X206450000Y-88800000D03*
X205500000Y-86800000D03*
D37*
X244100000Y-78250000D03*
X244100000Y-76350000D03*
X242100000Y-77300000D03*
D36*
X166050000Y-101850000D03*
X166050000Y-103750000D03*
X168050000Y-102800000D03*
X166250000Y-96650000D03*
X166250000Y-98550000D03*
X168250000Y-97600000D03*
D39*
X209993000Y-107569000D03*
X209993000Y-106299000D03*
X209993000Y-105029000D03*
X209993000Y-103759000D03*
X205043000Y-103759000D03*
X205043000Y-105029000D03*
X205043000Y-106299000D03*
X205043000Y-107569000D03*
D40*
X208600000Y-71900000D03*
D39*
X224675000Y-79105000D03*
X224675000Y-77835000D03*
X224675000Y-76565000D03*
X224675000Y-75295000D03*
X219725000Y-75295000D03*
X219725000Y-76565000D03*
X219725000Y-77835000D03*
X219725000Y-79105000D03*
X204035000Y-97155000D03*
X204035000Y-95885000D03*
X204035000Y-94615000D03*
X204035000Y-93345000D03*
X199085000Y-93345000D03*
X199085000Y-94615000D03*
X199085000Y-95885000D03*
X199085000Y-97155000D03*
D12*
X211897500Y-101490000D03*
X210322500Y-101490000D03*
X212685000Y-110800000D03*
X211110000Y-110800000D03*
X206510000Y-102075000D03*
X204935000Y-102075000D03*
D14*
X198850000Y-81825000D03*
X198850000Y-80250000D03*
D41*
X227437500Y-99550000D03*
X227437500Y-99050000D03*
X227437500Y-98550000D03*
X227437500Y-98050000D03*
X227437500Y-97550000D03*
X227437500Y-97050000D03*
X227437500Y-96550000D03*
X227437500Y-96050000D03*
D42*
X226750000Y-95362500D03*
X226250000Y-95362500D03*
X225750000Y-95362500D03*
X225250000Y-95362500D03*
X224750000Y-95362500D03*
X224250000Y-95362500D03*
X223750000Y-95362500D03*
X223250000Y-95362500D03*
D41*
X222562500Y-96050000D03*
X222562500Y-96550000D03*
X222562500Y-97050000D03*
X222562500Y-97550000D03*
X222562500Y-98050000D03*
X222562500Y-98550000D03*
X222562500Y-99050000D03*
X222562500Y-99550000D03*
D42*
X223250000Y-100237500D03*
X223750000Y-100237500D03*
X224250000Y-100237500D03*
X224750000Y-100237500D03*
X225250000Y-100237500D03*
X225750000Y-100237500D03*
X226250000Y-100237500D03*
X226750000Y-100237500D03*
D43*
X225000000Y-97800000D03*
D14*
X247700000Y-86075000D03*
X247700000Y-84500000D03*
D12*
X202387500Y-90100000D03*
X200812500Y-90100000D03*
D14*
X247500000Y-78275000D03*
X247500000Y-76700000D03*
D22*
X171000000Y-59025000D03*
X171000000Y-60600000D03*
D12*
X233832500Y-101380000D03*
X232257500Y-101380000D03*
X233027500Y-106145000D03*
X231452500Y-106145000D03*
D14*
X97800000Y-119017500D03*
X97800000Y-117442500D03*
D12*
X104675000Y-118800000D03*
X103100000Y-118800000D03*
D22*
X221340000Y-102855000D03*
X221340000Y-104430000D03*
D13*
X231450000Y-104575000D03*
X233025000Y-104575000D03*
D14*
X213750000Y-73287500D03*
X213750000Y-71712500D03*
X228550000Y-70675000D03*
X228550000Y-69100000D03*
D13*
X235225000Y-84900000D03*
X236800000Y-84900000D03*
D25*
X190560000Y-87380000D03*
X247650000Y-87900000D03*
X190210000Y-90830000D03*
X247850000Y-80100000D03*
D14*
X191080000Y-124247500D03*
X191080000Y-122672500D03*
X193150000Y-124080000D03*
X193150000Y-122505000D03*
D44*
X142100000Y-86760000D03*
X147967400Y-86798100D03*
D45*
X177860000Y-128410000D03*
D46*
X177860000Y-130950000D03*
X177860000Y-133490000D03*
D22*
X100340000Y-118835000D03*
X100340000Y-120410000D03*
D47*
X148860000Y-96130000D03*
X141460000Y-96130000D03*
D13*
X165200000Y-68750000D03*
X166775000Y-68750000D03*
X150202500Y-84410000D03*
X151777500Y-84410000D03*
D29*
X174550000Y-102700000D03*
X170950000Y-102700000D03*
D14*
X121510000Y-122027500D03*
X121510000Y-120452500D03*
X123060000Y-122027500D03*
X123060000Y-120452500D03*
X89409360Y-122195360D03*
X89409360Y-120620360D03*
D23*
X227650000Y-90154000D03*
X229550000Y-90154000D03*
X228600000Y-88154000D03*
D37*
X218932000Y-90612000D03*
X218932000Y-88712000D03*
X216932000Y-89662000D03*
D14*
X187230000Y-76475000D03*
X187230000Y-74900000D03*
D13*
X237987500Y-100375000D03*
X239562500Y-100375000D03*
D22*
X220600000Y-98887500D03*
X220600000Y-100462500D03*
D11*
X227725000Y-105450000D03*
X229600000Y-105450000D03*
D13*
X227637500Y-103650000D03*
X229212500Y-103650000D03*
D14*
X221050000Y-95712500D03*
X221050000Y-94137500D03*
D10*
X219275000Y-95800000D03*
X219275000Y-93925000D03*
D14*
X229900000Y-98675000D03*
X229900000Y-97100000D03*
D13*
X229012500Y-102075000D03*
X230587500Y-102075000D03*
X232287500Y-102950000D03*
X233862500Y-102950000D03*
D10*
X231700000Y-99037500D03*
X231700000Y-97162500D03*
D48*
X162362500Y-57425000D03*
X155587500Y-57425000D03*
D49*
X84090000Y-121490000D03*
X85040000Y-121490000D03*
X85990000Y-121490000D03*
X85990000Y-119290000D03*
X84090000Y-119290000D03*
D13*
X84512500Y-117370000D03*
X86087500Y-117370000D03*
D50*
X180130000Y-84930000D03*
X180130000Y-81330000D03*
D14*
X88580000Y-118717500D03*
X88580000Y-117142500D03*
D22*
X197250000Y-85675000D03*
X197250000Y-87250000D03*
D13*
X242500000Y-88000000D03*
X244075000Y-88000000D03*
D14*
X202000000Y-79537500D03*
X202000000Y-77962500D03*
D12*
X236787500Y-86750000D03*
X235212500Y-86750000D03*
X238250000Y-74000000D03*
X236675000Y-74000000D03*
D13*
X245750000Y-82000000D03*
X247325000Y-82000000D03*
D14*
X192575000Y-87412500D03*
X192575000Y-85837500D03*
D13*
X189925000Y-64000000D03*
X191500000Y-64000000D03*
D12*
X113875000Y-66900000D03*
X112300000Y-66900000D03*
X116587500Y-70000000D03*
X115012500Y-70000000D03*
D38*
X217450000Y-71250000D03*
X215550000Y-71250000D03*
X216500000Y-73250000D03*
D37*
X228750000Y-74200000D03*
X228750000Y-72300000D03*
X226750000Y-73250000D03*
D36*
X105000000Y-66650000D03*
X105000000Y-68550000D03*
X107000000Y-67600000D03*
D22*
X82250000Y-118212500D03*
X82250000Y-119787500D03*
D14*
X197250000Y-84075000D03*
X197250000Y-82500000D03*
D13*
X239250000Y-87250000D03*
X240825000Y-87250000D03*
X194175000Y-89500000D03*
X195750000Y-89500000D03*
D22*
X199140000Y-77130000D03*
X199140000Y-78705000D03*
D14*
X119500000Y-51687500D03*
X119500000Y-50112500D03*
D51*
X225600000Y-105300000D03*
D52*
X225600000Y-104000000D03*
D36*
X190060000Y-56850000D03*
X190060000Y-58750000D03*
X192060000Y-57800000D03*
D14*
X90160000Y-118660000D03*
X90160000Y-117085000D03*
D13*
X195172500Y-100850000D03*
X196747500Y-100850000D03*
D14*
X198310000Y-110755000D03*
X198310000Y-109180000D03*
D12*
X195522500Y-102700000D03*
X193947500Y-102700000D03*
X192985000Y-93500000D03*
X191410000Y-93500000D03*
D22*
X189738000Y-93700500D03*
X189738000Y-95275500D03*
D13*
X204185000Y-98925000D03*
X205760000Y-98925000D03*
D12*
X198810000Y-102700000D03*
X197235000Y-102700000D03*
D22*
X208820000Y-99796500D03*
X208820000Y-101371500D03*
D36*
X198140000Y-105170000D03*
X198140000Y-107070000D03*
X200140000Y-106120000D03*
D22*
X200040000Y-109582500D03*
X200040000Y-111157500D03*
D38*
X202385000Y-100625000D03*
X200485000Y-100625000D03*
X201435000Y-102625000D03*
D22*
X207264000Y-97256500D03*
X207264000Y-98831500D03*
X196060000Y-94075000D03*
X196060000Y-95650000D03*
D12*
X210660000Y-98044000D03*
X209085000Y-98044000D03*
X214173000Y-98044000D03*
X212598000Y-98044000D03*
X202460000Y-99025000D03*
X200885000Y-99025000D03*
X205785000Y-100525000D03*
X204210000Y-100525000D03*
X211897500Y-99950000D03*
X210322500Y-99950000D03*
D13*
X195092500Y-111490000D03*
X196667500Y-111490000D03*
D12*
X245787500Y-80000000D03*
X244212500Y-80000000D03*
D14*
X235725000Y-103787500D03*
X235725000Y-102212500D03*
D27*
X205114340Y-72068360D03*
X200714340Y-72068360D03*
D53*
X211000000Y-94275000D03*
X215400000Y-94275000D03*
D14*
X205580000Y-110950000D03*
X205580000Y-109375000D03*
D12*
X196422500Y-104925000D03*
X194847500Y-104925000D03*
X193802000Y-108458000D03*
X192227000Y-108458000D03*
D14*
X206900000Y-81175000D03*
X206900000Y-79600000D03*
X167650000Y-82485000D03*
X167650000Y-80910000D03*
D54*
X214280000Y-106170000D03*
X217880000Y-106170000D03*
D13*
X216022500Y-97990000D03*
X217597500Y-97990000D03*
D22*
X214354500Y-109358000D03*
X214354500Y-110933000D03*
D12*
X148587500Y-52160000D03*
X147012500Y-52160000D03*
D14*
X119750000Y-45027500D03*
X119750000Y-43452500D03*
D13*
X208525000Y-90125000D03*
X210100000Y-90125000D03*
D14*
X148400000Y-50567500D03*
X148400000Y-48992500D03*
X119780000Y-48097500D03*
X119780000Y-46522500D03*
D54*
X214260000Y-101270000D03*
X217860000Y-101270000D03*
D22*
X201935000Y-104600000D03*
X201935000Y-106175000D03*
D12*
X199112500Y-91675000D03*
X197537500Y-91675000D03*
D37*
X116700000Y-73750000D03*
X116700000Y-71850000D03*
X114700000Y-72800000D03*
D40*
X212500000Y-89525000D03*
D13*
X107375000Y-56800000D03*
X108950000Y-56800000D03*
D27*
X190090000Y-99810000D03*
X185690000Y-99810000D03*
X187010000Y-93810000D03*
X182610000Y-93810000D03*
D55*
X129460000Y-78670000D03*
X124660000Y-78670000D03*
D34*
X71007680Y-83337880D03*
D30*
X110200000Y-65100000D03*
X110200000Y-59700000D03*
D14*
X131735000Y-58125000D03*
X131735000Y-56550000D03*
D22*
X203600000Y-79712500D03*
X203600000Y-81287500D03*
D23*
X191635000Y-97250000D03*
X193535000Y-97250000D03*
X192585000Y-95250000D03*
D12*
X195525000Y-91775000D03*
X193950000Y-91775000D03*
X196860000Y-97275000D03*
X195285000Y-97275000D03*
X196422500Y-106850000D03*
X194847500Y-106850000D03*
X203735000Y-109175000D03*
X202160000Y-109175000D03*
D38*
X209450000Y-109120000D03*
X207550000Y-109120000D03*
X208500000Y-111120000D03*
D14*
X225800000Y-93400000D03*
X225800000Y-91825000D03*
D13*
X213925000Y-74800000D03*
X215500000Y-74800000D03*
D27*
X184790000Y-110350000D03*
X180390000Y-110350000D03*
X190760000Y-105880000D03*
X186360000Y-105880000D03*
D34*
X134607680Y-83337880D03*
D56*
X168375000Y-73465000D03*
D57*
X174675000Y-75745000D03*
D56*
X168375000Y-75745000D03*
X168375000Y-78025000D03*
D10*
X145030000Y-123867500D03*
X145030000Y-121992500D03*
D14*
X143040000Y-123657500D03*
X143040000Y-122082500D03*
D13*
X142886420Y-127905180D03*
X144461420Y-127905180D03*
D11*
X142888820Y-125896040D03*
X144763820Y-125896040D03*
D58*
X230900000Y-111070000D03*
X230900000Y-109520000D03*
D59*
X228630000Y-113430000D03*
X228630000Y-108350000D03*
X224630000Y-108350000D03*
X224630000Y-113430000D03*
D60*
X107970000Y-119340000D03*
X106320000Y-119340000D03*
D32*
X198360000Y-57020000D03*
X196260000Y-57020000D03*
X197770000Y-70140000D03*
X195670000Y-70140000D03*
D30*
X182780000Y-78460000D03*
X182780000Y-73060000D03*
D61*
X170040000Y-80820000D03*
X170040000Y-83120000D03*
D62*
X176340000Y-83120000D03*
D61*
X170040000Y-85420000D03*
D58*
X230670000Y-94495000D03*
X230670000Y-92945000D03*
D63*
X193760000Y-59380000D03*
X193760000Y-61920000D03*
X193760000Y-64460000D03*
X193760000Y-67000000D03*
X203300000Y-66930000D03*
X203300000Y-64390000D03*
X203300000Y-61850000D03*
X203300000Y-59310000D03*
D64*
X226610000Y-111635000D03*
X226610000Y-109985000D03*
D65*
X150500000Y-127650000D03*
X150500000Y-125750000D03*
D58*
X152590000Y-127420000D03*
X152590000Y-125870000D03*
D65*
X150460000Y-123820000D03*
X150460000Y-121920000D03*
D58*
X152540000Y-123690000D03*
X152540000Y-122140000D03*
X157360000Y-127635000D03*
X157360000Y-126085000D03*
X155210000Y-127615000D03*
X155210000Y-126065000D03*
X92800000Y-120970000D03*
X92800000Y-119420000D03*
X94480000Y-121000000D03*
X94480000Y-119450000D03*
D66*
X67085000Y-54780000D03*
X83315000Y-54780000D03*
D67*
X67085000Y-48430000D03*
D66*
X83315000Y-48430000D03*
X67085000Y-61130000D03*
X83315000Y-61130000D03*
D68*
X125285000Y-53655000D03*
X125285000Y-55655000D03*
X125285000Y-57655000D03*
X125285000Y-59655000D03*
D69*
X128005000Y-59925000D03*
X122565000Y-52925000D03*
X122565000Y-59925000D03*
X128005000Y-52925000D03*
D66*
X88085000Y-54780000D03*
X104315000Y-54780000D03*
D67*
X88085000Y-48430000D03*
D66*
X104315000Y-48430000D03*
X88085000Y-61130000D03*
X104315000Y-61130000D03*
D19*
X112710000Y-51030000D03*
X112710000Y-44030000D03*
D20*
X116410000Y-44930000D03*
X109010000Y-42930000D03*
D21*
X109010000Y-52330000D03*
D70*
X136586971Y-53299976D03*
D19*
X139086971Y-53299976D03*
X139086971Y-51299976D03*
X136586971Y-51299976D03*
D71*
X131816971Y-48589976D03*
X143856971Y-48589976D03*
D72*
X156330453Y-52130000D03*
D73*
X156330453Y-46130000D03*
D74*
X151630453Y-49130000D03*
D75*
X177805000Y-46060000D03*
X166375000Y-46060000D03*
D76*
X176535000Y-52410000D03*
D77*
X175265000Y-54950000D03*
X173995000Y-52410000D03*
X172725000Y-54950000D03*
X171455000Y-52410000D03*
X170185000Y-54950000D03*
X168915000Y-52410000D03*
X167645000Y-54950000D03*
D66*
X228485000Y-54780000D03*
X244715000Y-54780000D03*
D67*
X228485000Y-48430000D03*
D66*
X244715000Y-48430000D03*
X228485000Y-61130000D03*
X244715000Y-61130000D03*
X207485000Y-54780000D03*
X223715000Y-54780000D03*
D67*
X207485000Y-48430000D03*
D66*
X223715000Y-48430000D03*
X207485000Y-61130000D03*
X223715000Y-61130000D03*
D78*
X68410000Y-128260000D03*
D79*
X137210000Y-128260000D03*
D80*
X69435000Y-132360000D03*
X69685000Y-124160000D03*
X69935000Y-132360000D03*
X70185000Y-124160000D03*
X70435000Y-132360000D03*
X70685000Y-124160000D03*
X70935000Y-132360000D03*
X71185000Y-124160000D03*
X71435000Y-132360000D03*
X71685000Y-124160000D03*
X71935000Y-132360000D03*
X72185000Y-124160000D03*
X72435000Y-132360000D03*
X72685000Y-124160000D03*
X72935000Y-132360000D03*
X73185000Y-124160000D03*
X73435000Y-132360000D03*
X73685000Y-124160000D03*
X73935000Y-132360000D03*
X74185000Y-124160000D03*
X74435000Y-132360000D03*
X74685000Y-124160000D03*
X74935000Y-132360000D03*
X75185000Y-124160000D03*
X75435000Y-132360000D03*
X75685000Y-124160000D03*
X75935000Y-132360000D03*
X76185000Y-124160000D03*
X76435000Y-132360000D03*
X76685000Y-124160000D03*
X76935000Y-132360000D03*
X77185000Y-124160000D03*
X77435000Y-132360000D03*
X77685000Y-124160000D03*
X77935000Y-132360000D03*
X78185000Y-124160000D03*
X78435000Y-132360000D03*
X78685000Y-124160000D03*
X78935000Y-132360000D03*
X79185000Y-124160000D03*
X79435000Y-132360000D03*
X79685000Y-124160000D03*
X79935000Y-132360000D03*
X80185000Y-124160000D03*
X80435000Y-132360000D03*
X80685000Y-124160000D03*
X80935000Y-132360000D03*
X81185000Y-124160000D03*
X81435000Y-132360000D03*
X81685000Y-124160000D03*
X81935000Y-132360000D03*
X82185000Y-124160000D03*
X82435000Y-132360000D03*
X82685000Y-124160000D03*
X82935000Y-132360000D03*
X83185000Y-124160000D03*
X83435000Y-132360000D03*
X83685000Y-124160000D03*
X83935000Y-132360000D03*
X84185000Y-124160000D03*
X84435000Y-132360000D03*
X84685000Y-124160000D03*
X84935000Y-132360000D03*
X85185000Y-124160000D03*
X85435000Y-132360000D03*
X85685000Y-124160000D03*
X85935000Y-132360000D03*
X86185000Y-124160000D03*
X86435000Y-132360000D03*
X86685000Y-124160000D03*
X86935000Y-132360000D03*
X87185000Y-124160000D03*
X87435000Y-132360000D03*
X87685000Y-124160000D03*
X87935000Y-132360000D03*
X88185000Y-124160000D03*
X88435000Y-132360000D03*
X88685000Y-124160000D03*
X88935000Y-132360000D03*
X89185000Y-124160000D03*
X89435000Y-132360000D03*
X89685000Y-124160000D03*
X89935000Y-132360000D03*
X90185000Y-124160000D03*
X90435000Y-132360000D03*
X90685000Y-124160000D03*
X90935000Y-132360000D03*
X91185000Y-124160000D03*
X91435000Y-132360000D03*
X91685000Y-124160000D03*
X91935000Y-132360000D03*
X92185000Y-124160000D03*
X92435000Y-132360000D03*
X92685000Y-124160000D03*
X92935000Y-132360000D03*
X93185000Y-124160000D03*
X93435000Y-132360000D03*
X93685000Y-124160000D03*
X93935000Y-132360000D03*
X94185000Y-124160000D03*
X94435000Y-132360000D03*
X94685000Y-124160000D03*
X94935000Y-132360000D03*
X95185000Y-124160000D03*
X95435000Y-132360000D03*
X95685000Y-124160000D03*
X95935000Y-132360000D03*
X96185000Y-124160000D03*
X96435000Y-132360000D03*
X96685000Y-124160000D03*
X96935000Y-132360000D03*
X97185000Y-124160000D03*
X97435000Y-132360000D03*
X97685000Y-124160000D03*
X97935000Y-132360000D03*
X98185000Y-124160000D03*
X98435000Y-132360000D03*
X98685000Y-124160000D03*
X98935000Y-132360000D03*
X99185000Y-124160000D03*
X99435000Y-132360000D03*
X99685000Y-124160000D03*
X99935000Y-132360000D03*
X100185000Y-124160000D03*
X100435000Y-132360000D03*
X100685000Y-124160000D03*
X100935000Y-132360000D03*
X101185000Y-124160000D03*
X101435000Y-132360000D03*
X101685000Y-124160000D03*
X101935000Y-132360000D03*
X102185000Y-124160000D03*
X102435000Y-132360000D03*
X102685000Y-124160000D03*
X102935000Y-132360000D03*
X103185000Y-124160000D03*
X103435000Y-132360000D03*
X103685000Y-124160000D03*
X103935000Y-132360000D03*
X104185000Y-124160000D03*
X104435000Y-132360000D03*
X104685000Y-124160000D03*
X104935000Y-132360000D03*
X105185000Y-124160000D03*
X107435000Y-132360000D03*
X107685000Y-124160000D03*
X107935000Y-132360000D03*
X108185000Y-124160000D03*
X108435000Y-132360000D03*
X108685000Y-124160000D03*
X108935000Y-132360000D03*
X109185000Y-124160000D03*
X109435000Y-132360000D03*
X109685000Y-124160000D03*
X109935000Y-132360000D03*
X110185000Y-124160000D03*
X110435000Y-132360000D03*
X110685000Y-124160000D03*
X110935000Y-132360000D03*
X111185000Y-124160000D03*
X111435000Y-132360000D03*
X111685000Y-124160000D03*
X111935000Y-132360000D03*
X112185000Y-124160000D03*
X112435000Y-132360000D03*
X112685000Y-124160000D03*
X112935000Y-132360000D03*
X113185000Y-124160000D03*
X113435000Y-132360000D03*
X113685000Y-124160000D03*
X113935000Y-132360000D03*
X114185000Y-124160000D03*
X114435000Y-132360000D03*
X114685000Y-124160000D03*
X114935000Y-132360000D03*
X115185000Y-124160000D03*
X115435000Y-132360000D03*
X115685000Y-124160000D03*
X115935000Y-132360000D03*
X116185000Y-124160000D03*
X116435000Y-132360000D03*
X116685000Y-124160000D03*
X116935000Y-132360000D03*
X117185000Y-124160000D03*
X117435000Y-132360000D03*
X117685000Y-124160000D03*
X117935000Y-132360000D03*
X118185000Y-124160000D03*
X118435000Y-132360000D03*
X118685000Y-124160000D03*
X118935000Y-132360000D03*
X119185000Y-124160000D03*
X119435000Y-132360000D03*
X119685000Y-124160000D03*
X119935000Y-132360000D03*
X120185000Y-124160000D03*
X120435000Y-132360000D03*
X120685000Y-124160000D03*
X120935000Y-132360000D03*
X121185000Y-124160000D03*
X121435000Y-132360000D03*
X121685000Y-124160000D03*
X121935000Y-132360000D03*
X122185000Y-124160000D03*
X122435000Y-132360000D03*
X122685000Y-124160000D03*
X122935000Y-132360000D03*
X123185000Y-124160000D03*
X123435000Y-132360000D03*
X123685000Y-124160000D03*
X123935000Y-132360000D03*
X124185000Y-124160000D03*
X124435000Y-132360000D03*
X124685000Y-124160000D03*
X124935000Y-132360000D03*
X125185000Y-124160000D03*
X125435000Y-132360000D03*
X125685000Y-124160000D03*
X125935000Y-132360000D03*
X126185000Y-124160000D03*
X126435000Y-132360000D03*
X126685000Y-124160000D03*
X126935000Y-132360000D03*
X127185000Y-124160000D03*
X127435000Y-132360000D03*
X127685000Y-124160000D03*
X127935000Y-132360000D03*
X128185000Y-124160000D03*
X128435000Y-132360000D03*
X128685000Y-124160000D03*
X128935000Y-132360000D03*
X129185000Y-124160000D03*
X129435000Y-132360000D03*
X129685000Y-124160000D03*
X129935000Y-132360000D03*
X130185000Y-124160000D03*
X130435000Y-132360000D03*
X130685000Y-124160000D03*
X130935000Y-132360000D03*
X131185000Y-124160000D03*
X131435000Y-132360000D03*
X131685000Y-124160000D03*
X131935000Y-132360000D03*
X132185000Y-124160000D03*
X132435000Y-132360000D03*
X132685000Y-124160000D03*
X132935000Y-132360000D03*
X133185000Y-124160000D03*
X133435000Y-132360000D03*
X133685000Y-124160000D03*
X133935000Y-132360000D03*
X134185000Y-124160000D03*
X134435000Y-132360000D03*
X134685000Y-124160000D03*
X134935000Y-132360000D03*
X135185000Y-124160000D03*
X135435000Y-132360000D03*
X135685000Y-124160000D03*
X135935000Y-132360000D03*
X136185000Y-124160000D03*
D81*
X69010000Y-116260000D03*
X136610000Y-116260000D03*
D60*
X169448840Y-100191240D03*
X167798840Y-100191240D03*
X168661440Y-105789400D03*
X167011440Y-105789400D03*
D82*
X128517920Y-64163920D03*
X128517920Y-63213920D03*
X128517920Y-62263920D03*
X126317920Y-62263920D03*
X126317920Y-64163920D03*
D14*
X87790000Y-121927500D03*
X87790000Y-120352500D03*
X168800000Y-67275000D03*
X168800000Y-65700000D03*
D83*
X199178000Y-74014000D03*
X199178000Y-75664000D03*
D40*
X98210000Y-101230000D03*
X98310000Y-105530000D03*
D19*
X187610000Y-44030000D03*
X187610000Y-51030000D03*
D20*
X191310000Y-44930000D03*
X183910000Y-42930000D03*
D21*
X183910000Y-52330000D03*
D84*
X154970000Y-66220000D03*
X154970000Y-67770000D03*
D85*
X147635000Y-57605000D03*
X147635000Y-67305000D03*
D86*
X138235000Y-74380000D03*
X138235000Y-72680000D03*
X138235000Y-70980000D03*
D87*
X129085000Y-70980000D03*
D86*
X138235000Y-69280000D03*
X138235000Y-67580000D03*
D28*
X158300000Y-66090000D03*
X158300000Y-69690000D03*
D88*
X222290000Y-92360000D03*
X224190000Y-92360000D03*
D89*
X223560000Y-82480000D03*
X221660000Y-82480000D03*
D88*
X201690000Y-111160000D03*
X203590000Y-111160000D03*
X111330000Y-76750000D03*
X113230000Y-76750000D03*
D65*
X108970000Y-70270000D03*
X108970000Y-68370000D03*
D90*
X232480000Y-92760000D03*
X232480000Y-94660000D03*
D88*
X195097500Y-99080000D03*
X196997500Y-99080000D03*
D91*
X148270000Y-71730000D03*
X148270000Y-80130000D03*
X161140000Y-73450000D03*
X161140000Y-81850000D03*
D92*
X162940000Y-65870000D03*
X162940000Y-61470000D03*
D93*
X159820000Y-62650000D03*
X155420000Y-62650000D03*
D26*
X193445000Y-78725000D03*
X194715000Y-78725000D03*
X195985000Y-78725000D03*
X197255000Y-78725000D03*
X197255000Y-73775000D03*
X195985000Y-73775000D03*
X194715000Y-73775000D03*
X193445000Y-73775000D03*
D60*
X202395000Y-75880000D03*
X200745000Y-75880000D03*
D94*
X184787000Y-132640000D03*
X185777600Y-132640000D03*
X186793600Y-132640000D03*
X187784200Y-132640000D03*
X188800200Y-132640000D03*
X189790800Y-132640000D03*
X190781400Y-132640000D03*
X191772000Y-132640000D03*
X192788000Y-132640000D03*
X193778600Y-132640000D03*
X194769200Y-132640000D03*
X195785200Y-132640000D03*
X196775800Y-132640000D03*
X197766400Y-132640000D03*
X198782400Y-132640000D03*
X199773000Y-132640000D03*
X200763600Y-132640000D03*
X201779600Y-132640000D03*
X202770200Y-132640000D03*
X203760800Y-132640000D03*
X204776800Y-132640000D03*
X205767400Y-132640000D03*
X206783400Y-132640000D03*
X207774000Y-132640000D03*
D95*
X181884258Y-129522150D03*
X210669600Y-129515800D03*
D96*
X209010000Y-75922500D03*
X207110000Y-75922500D03*
X208060000Y-77797500D03*
D88*
X192480000Y-71410000D03*
X194380000Y-71410000D03*
D60*
X205465000Y-76900000D03*
X203815000Y-76900000D03*
D97*
X65500000Y-105750000D03*
X63950000Y-105750000D03*
X194115000Y-69500000D03*
X192565000Y-69500000D03*
X65520000Y-104000000D03*
X63970000Y-104000000D03*
M02*
