%TF.GenerationSoftware,KiCad,Pcbnew,6.0.10-86aedd382b~118~ubuntu22.04.1*%
%TF.CreationDate,2023-02-15T17:35:33+01:00*%
%TF.ProjectId,bottom-board,626f7474-6f6d-42d6-926f-6172642e6b69,rev?*%
%TF.SameCoordinates,Original*%
%TF.FileFunction,Drillmap*%
%TF.FilePolarity,Positive*%
%FSLAX45Y45*%
G04 Gerber Fmt 4.5, Leading zero omitted, Abs format (unit mm)*
G04 Created by KiCad (PCBNEW 6.0.10-86aedd382b~118~ubuntu22.04.1) date 2023-02-15 17:35:33*
%MOMM*%
%LPD*%
G01*
G04 APERTURE LIST*
%ADD10C,0.200000*%
%ADD11C,0.040000*%
%ADD12C,0.060000*%
%ADD13C,0.092000*%
%ADD14C,0.096000*%
%ADD15C,0.100000*%
%ADD16C,0.135000*%
%ADD17C,0.150000*%
%ADD18C,0.233000*%
%ADD19C,0.320000*%
%ADD20C,0.350000*%
G04 APERTURE END LIST*
D10*
X6091000Y-4703000D02*
X6151000Y-4703000D01*
X6451000Y-13343000D02*
G75*
G03*
X6651000Y-13543000I200000J0D01*
G01*
X6651000Y-4143000D02*
G75*
G03*
X6451000Y-4343000I0J-200000D01*
G01*
X24731000Y-4343000D02*
G75*
G03*
X24531000Y-4143000I-200000J0D01*
G01*
X25291000Y-4903000D02*
X25291000Y-12783000D01*
X23624841Y-13382999D02*
G75*
G03*
X23820925Y-13543000I195959J39999D01*
G01*
X5891000Y-4903000D02*
X5891000Y-12783000D01*
X23624837Y-13383000D02*
G75*
G03*
X22057236Y-13382643I-783837J-160000D01*
G01*
X24731000Y-4403000D02*
G75*
G03*
X25031000Y-4703000I300000J0D01*
G01*
X21861204Y-13543004D02*
G75*
G03*
X22057189Y-13382874I-4J200004D01*
G01*
X24531000Y-13543000D02*
X23820796Y-13543000D01*
X25031000Y-4703000D02*
X25091000Y-4703000D01*
X6451000Y-4403000D02*
X6451000Y-4343000D01*
X24731000Y-4343000D02*
X24731000Y-4403000D01*
X6651000Y-4143000D02*
X24531000Y-4143000D01*
X25031000Y-12983000D02*
G75*
G03*
X24731000Y-13283000I0J-300000D01*
G01*
X6091000Y-4703000D02*
G75*
G03*
X5891000Y-4903000I0J-200000D01*
G01*
X6451000Y-13343000D02*
X6451000Y-13283000D01*
X25291000Y-4903000D02*
G75*
G03*
X25091000Y-4703000I-200000J0D01*
G01*
X6451000Y-13283000D02*
G75*
G03*
X6151000Y-12983000I-300000J0D01*
G01*
X21861204Y-13543000D02*
X6651000Y-13543000D01*
X24531000Y-13543000D02*
G75*
G03*
X24731000Y-13343000I0J200000D01*
G01*
X6091000Y-12983000D02*
X6151000Y-12983000D01*
X25091000Y-12983000D02*
G75*
G03*
X25291000Y-12783000I0J200000D01*
G01*
X5891000Y-12783000D02*
G75*
G03*
X6091000Y-12983000I200000J0D01*
G01*
X25091000Y-12983000D02*
X25031000Y-12983000D01*
X24731000Y-13283000D02*
X24731000Y-13343000D01*
X6151000Y-4703000D02*
G75*
G03*
X6451000Y-4403000I0J300000D01*
G01*
D11*
X6208000Y-6116000D02*
X6248000Y-6156000D01*
X6248000Y-6116000D02*
X6208000Y-6156000D01*
X6217000Y-12760000D02*
X6257000Y-12800000D01*
X6257000Y-12760000D02*
X6217000Y-12800000D01*
X6218000Y-11761000D02*
X6258000Y-11801000D01*
X6258000Y-11761000D02*
X6218000Y-11801000D01*
X6219000Y-6983000D02*
X6259000Y-7023000D01*
X6259000Y-6983000D02*
X6219000Y-7023000D01*
X6219000Y-8397000D02*
X6259000Y-8437000D01*
X6259000Y-8397000D02*
X6219000Y-8437000D01*
X6219000Y-9793000D02*
X6259000Y-9833000D01*
X6259000Y-9793000D02*
X6219000Y-9833000D01*
X6219000Y-11251000D02*
X6259000Y-11291000D01*
X6259000Y-11251000D02*
X6219000Y-11291000D01*
X6372000Y-5372000D02*
X6412000Y-5412000D01*
X6412000Y-5372000D02*
X6372000Y-5412000D01*
X6627000Y-13334000D02*
X6667000Y-13374000D01*
X6667000Y-13334000D02*
X6627000Y-13374000D01*
X6861876Y-9528368D02*
X6901876Y-9568368D01*
X6901876Y-9528368D02*
X6861876Y-9568368D01*
X6869496Y-10774238D02*
X6909496Y-10814238D01*
X6909496Y-10774238D02*
X6869496Y-10814238D01*
X6882450Y-6951792D02*
X6922450Y-6991792D01*
X6922450Y-6951792D02*
X6882450Y-6991792D01*
X7002000Y-4362000D02*
X7042000Y-4402000D01*
X7042000Y-4362000D02*
X7002000Y-4402000D01*
X7027000Y-12205000D02*
X7067000Y-12245000D01*
X7067000Y-12205000D02*
X7027000Y-12245000D01*
X7206001Y-11484000D02*
X7246001Y-11524000D01*
X7246001Y-11484000D02*
X7206001Y-11524000D01*
X7243000Y-12624000D02*
X7283000Y-12664000D01*
X7283000Y-12624000D02*
X7243000Y-12664000D01*
X7244536Y-13402991D02*
X7284536Y-13442991D01*
X7284536Y-13402991D02*
X7244536Y-13442991D01*
X7265000Y-13072000D02*
X7305000Y-13112000D01*
X7305000Y-13072000D02*
X7265000Y-13112000D01*
X7303000Y-12814001D02*
X7343000Y-12854001D01*
X7343000Y-12814001D02*
X7303000Y-12854001D01*
X7421000Y-12836000D02*
X7461000Y-12876000D01*
X7461000Y-12836000D02*
X7421000Y-12876000D01*
X7461062Y-6659692D02*
X7501062Y-6699692D01*
X7501062Y-6659692D02*
X7461062Y-6699692D01*
X7509000Y-12171000D02*
X7549000Y-12211000D01*
X7549000Y-12171000D02*
X7509000Y-12211000D01*
X7565202Y-11437940D02*
X7605202Y-11477940D01*
X7605202Y-11437940D02*
X7565202Y-11477940D01*
X7645000Y-11952364D02*
X7685000Y-11992364D01*
X7685000Y-11952364D02*
X7645000Y-11992364D01*
X7714000Y-13075000D02*
X7754000Y-13115000D01*
X7754000Y-13075000D02*
X7714000Y-13115000D01*
X7717500Y-11852431D02*
X7757500Y-11892431D01*
X7757500Y-11852431D02*
X7717500Y-11892431D01*
X7798256Y-13402982D02*
X7838256Y-13442982D01*
X7838256Y-13402982D02*
X7798256Y-13442982D01*
X8095000Y-12578000D02*
X8135000Y-12618000D01*
X8135000Y-12578000D02*
X8095000Y-12618000D01*
X8136500Y-12165226D02*
X8176500Y-12205226D01*
X8176500Y-12165226D02*
X8136500Y-12205226D01*
X8209000Y-12237000D02*
X8249000Y-12277000D01*
X8249000Y-12237000D02*
X8209000Y-12277000D01*
X8210000Y-12586000D02*
X8250000Y-12626000D01*
X8250000Y-12586000D02*
X8210000Y-12626000D01*
X8260000Y-12852000D02*
X8300000Y-12892000D01*
X8300000Y-12852000D02*
X8260000Y-12892000D01*
X8305000Y-11680000D02*
X8345000Y-11720000D01*
X8345000Y-11680000D02*
X8305000Y-11720000D01*
X8366826Y-10827324D02*
X8406826Y-10867324D01*
X8406826Y-10827324D02*
X8366826Y-10867324D01*
X8380000Y-12230000D02*
X8420000Y-12270000D01*
X8420000Y-12230000D02*
X8380000Y-12270000D01*
X8388000Y-11436000D02*
X8428000Y-11476000D01*
X8428000Y-11436000D02*
X8388000Y-11476000D01*
X8398000Y-4344000D02*
X8438000Y-4384000D01*
X8438000Y-4344000D02*
X8398000Y-4384000D01*
X8401000Y-13045000D02*
X8441000Y-13085000D01*
X8441000Y-13045000D02*
X8401000Y-13085000D01*
X8483783Y-12225948D02*
X8523783Y-12265948D01*
X8523783Y-12225948D02*
X8483783Y-12265948D01*
X8503000Y-13014000D02*
X8543000Y-13054000D01*
X8543000Y-13014000D02*
X8503000Y-13054000D01*
X8541000Y-6613978D02*
X8581000Y-6653978D01*
X8581000Y-6613978D02*
X8541000Y-6653978D01*
X8581348Y-12247884D02*
X8621348Y-12287884D01*
X8621348Y-12247884D02*
X8581348Y-12287884D01*
X8654000Y-13067000D02*
X8694000Y-13107000D01*
X8694000Y-13067000D02*
X8654000Y-13107000D01*
X8697000Y-11663000D02*
X8737000Y-11703000D01*
X8737000Y-11663000D02*
X8697000Y-11703000D01*
X8720000Y-11901000D02*
X8760000Y-11941000D01*
X8760000Y-11901000D02*
X8720000Y-11941000D01*
X8748391Y-12972609D02*
X8788391Y-13012609D01*
X8788391Y-12972609D02*
X8748391Y-13012609D01*
X8759000Y-12634000D02*
X8799000Y-12674000D01*
X8799000Y-12634000D02*
X8759000Y-12674000D01*
X8855765Y-12967765D02*
X8895765Y-13007765D01*
X8895765Y-12967765D02*
X8855765Y-13007765D01*
X8908000Y-13061000D02*
X8948000Y-13101000D01*
X8948000Y-13061000D02*
X8908000Y-13101000D01*
X8940000Y-11200998D02*
X8980000Y-11240998D01*
X8980000Y-11200998D02*
X8940000Y-11240998D01*
X9055515Y-13046496D02*
X9095515Y-13086496D01*
X9095515Y-13046496D02*
X9055515Y-13086496D01*
X9157000Y-13054000D02*
X9197000Y-13094000D01*
X9197000Y-13054000D02*
X9157000Y-13094000D01*
X9242618Y-6613978D02*
X9282618Y-6653978D01*
X9282618Y-6613978D02*
X9242618Y-6653978D01*
X9300000Y-7349000D02*
X9340000Y-7389000D01*
X9340000Y-7349000D02*
X9300000Y-7389000D01*
X9414000Y-13068000D02*
X9454000Y-13108000D01*
X9454000Y-13068000D02*
X9414000Y-13108000D01*
X9466000Y-12630000D02*
X9506000Y-12670000D01*
X9506000Y-12630000D02*
X9466000Y-12670000D01*
X9564000Y-12222000D02*
X9604000Y-12262000D01*
X9604000Y-12222000D02*
X9564000Y-12262000D01*
X9662000Y-12950046D02*
X9702000Y-12990046D01*
X9702000Y-12950046D02*
X9662000Y-12990046D01*
X9688000Y-12208000D02*
X9728000Y-12248000D01*
X9728000Y-12208000D02*
X9688000Y-12248000D01*
X9770511Y-12730242D02*
X9810511Y-12770242D01*
X9810511Y-12730242D02*
X9770511Y-12770242D01*
X9813000Y-13062000D02*
X9853000Y-13102000D01*
X9853000Y-13062000D02*
X9813000Y-13102000D01*
X9837000Y-12207000D02*
X9877000Y-12247000D01*
X9877000Y-12207000D02*
X9837000Y-12247000D01*
X9850186Y-12669893D02*
X9890186Y-12709893D01*
X9890186Y-12669893D02*
X9850186Y-12709893D01*
X9868000Y-4328000D02*
X9908000Y-4368000D01*
X9908000Y-4328000D02*
X9868000Y-4368000D01*
X9928000Y-13036000D02*
X9968000Y-13076000D01*
X9968000Y-13036000D02*
X9928000Y-13076000D01*
X10086000Y-13057000D02*
X10126000Y-13097000D01*
X10126000Y-13057000D02*
X10086000Y-13097000D01*
X10119172Y-10833166D02*
X10159172Y-10873166D01*
X10159172Y-10833166D02*
X10119172Y-10873166D01*
X10127000Y-8180000D02*
X10167000Y-8220000D01*
X10167000Y-8180000D02*
X10127000Y-8220000D01*
X10131763Y-12588687D02*
X10171763Y-12628687D01*
X10171763Y-12588687D02*
X10131763Y-12628687D01*
X10188000Y-13049000D02*
X10228000Y-13089000D01*
X10228000Y-13049000D02*
X10188000Y-13089000D01*
X10240000Y-12183500D02*
X10280000Y-12223500D01*
X10280000Y-12183500D02*
X10240000Y-12223500D01*
X10280906Y-13012007D02*
X10320906Y-13052007D01*
X10320906Y-13012007D02*
X10280906Y-13052007D01*
X10306000Y-6604000D02*
X10346000Y-6644000D01*
X10346000Y-6604000D02*
X10306000Y-6644000D01*
X10386500Y-12066537D02*
X10426500Y-12106537D01*
X10426500Y-12066537D02*
X10386500Y-12106537D01*
X10386500Y-12184000D02*
X10426500Y-12224000D01*
X10426500Y-12184000D02*
X10386500Y-12224000D01*
X10386550Y-12646950D02*
X10426550Y-12686950D01*
X10426550Y-12646950D02*
X10386550Y-12686950D01*
X10459000Y-11126000D02*
X10499000Y-11166000D01*
X10499000Y-11126000D02*
X10459000Y-11166000D01*
X10470000Y-5077500D02*
X10510000Y-5117500D01*
X10510000Y-5077500D02*
X10470000Y-5117500D01*
X10536000Y-13224000D02*
X10576000Y-13264000D01*
X10576000Y-13224000D02*
X10536000Y-13264000D01*
X10560000Y-11128498D02*
X10600000Y-11168498D01*
X10600000Y-11128498D02*
X10560000Y-11168498D01*
X10567000Y-13069000D02*
X10607000Y-13109000D01*
X10607000Y-13069000D02*
X10567000Y-13109000D01*
X10576235Y-10906235D02*
X10616235Y-10946235D01*
X10616235Y-10906235D02*
X10576235Y-10946235D01*
X10605000Y-6920000D02*
X10645000Y-6960000D01*
X10645000Y-6920000D02*
X10605000Y-6960000D01*
X10891000Y-12151000D02*
X10931000Y-12191000D01*
X10931000Y-12151000D02*
X10891000Y-12191000D01*
X10998000Y-8022000D02*
X11038000Y-8062000D01*
X11038000Y-8022000D02*
X10998000Y-8062000D01*
X11002904Y-9008096D02*
X11042904Y-9048096D01*
X11042904Y-9008096D02*
X11002904Y-9048096D01*
X11011474Y-9946198D02*
X11051474Y-9986198D01*
X11051474Y-9946198D02*
X11011474Y-9986198D01*
X11019000Y-6782500D02*
X11059000Y-6822500D01*
X11059000Y-6782500D02*
X11019000Y-6822500D01*
X11091366Y-12168284D02*
X11131366Y-12208284D01*
X11131366Y-12168284D02*
X11091366Y-12208284D01*
X11095000Y-4307000D02*
X11135000Y-4347000D01*
X11135000Y-4307000D02*
X11095000Y-4347000D01*
X11230000Y-6990000D02*
X11270000Y-7030000D01*
X11270000Y-6990000D02*
X11230000Y-7030000D01*
X11423910Y-6604383D02*
X11463910Y-6644383D01*
X11463910Y-6604383D02*
X11423910Y-6644383D01*
X11465000Y-13061000D02*
X11505000Y-13101000D01*
X11505000Y-13061000D02*
X11465000Y-13101000D01*
X11512504Y-9523288D02*
X11552504Y-9563288D01*
X11552504Y-9523288D02*
X11512504Y-9563288D01*
X11524000Y-7159000D02*
X11564000Y-7199000D01*
X11564000Y-7159000D02*
X11524000Y-7199000D01*
X11528000Y-6497000D02*
X11568000Y-6537000D01*
X11568000Y-6497000D02*
X11528000Y-6537000D01*
X11559000Y-6280000D02*
X11599000Y-6320000D01*
X11599000Y-6280000D02*
X11559000Y-6320000D01*
X11566000Y-6403000D02*
X11606000Y-6443000D01*
X11606000Y-6403000D02*
X11566000Y-6443000D01*
X11669000Y-7019000D02*
X11709000Y-7059000D01*
X11709000Y-7019000D02*
X11669000Y-7059000D01*
X11673000Y-7844000D02*
X11713000Y-7884000D01*
X11713000Y-7844000D02*
X11673000Y-7884000D01*
X11676000Y-7739000D02*
X11716000Y-7779000D01*
X11716000Y-7739000D02*
X11676000Y-7779000D01*
X11725000Y-12210000D02*
X11765000Y-12250000D01*
X11765000Y-12210000D02*
X11725000Y-12250000D01*
X11826000Y-4322000D02*
X11866000Y-4362000D01*
X11866000Y-4322000D02*
X11826000Y-4362000D01*
X11880000Y-4530000D02*
X11920000Y-4570000D01*
X11920000Y-4530000D02*
X11880000Y-4570000D01*
X11997500Y-6447500D02*
X12037500Y-6487500D01*
X12037500Y-6447500D02*
X11997500Y-6487500D01*
X12028490Y-9925116D02*
X12068490Y-9965116D01*
X12068490Y-9925116D02*
X12028490Y-9965116D01*
X12029000Y-11184000D02*
X12069000Y-11224000D01*
X12069000Y-11184000D02*
X12029000Y-11224000D01*
X12054160Y-11875160D02*
X12094160Y-11915160D01*
X12094160Y-11875160D02*
X12054160Y-11915160D01*
X12107381Y-13007500D02*
X12147381Y-13047500D01*
X12147381Y-13007500D02*
X12107381Y-13047500D01*
X12152500Y-6550500D02*
X12192500Y-6590500D01*
X12192500Y-6550500D02*
X12152500Y-6590500D01*
X12158500Y-6410500D02*
X12198500Y-6450500D01*
X12198500Y-6410500D02*
X12158500Y-6450500D01*
X12167000Y-6152000D02*
X12207000Y-6192000D01*
X12207000Y-6152000D02*
X12167000Y-6192000D01*
X12204996Y-13028979D02*
X12244996Y-13068979D01*
X12244996Y-13028979D02*
X12204996Y-13068979D01*
X12284584Y-6761947D02*
X12324584Y-6801947D01*
X12324584Y-6761947D02*
X12284584Y-6801947D01*
X12297499Y-5722500D02*
X12337499Y-5762500D01*
X12337499Y-5722500D02*
X12297499Y-5762500D01*
X12297500Y-6620500D02*
X12337500Y-6660500D01*
X12337500Y-6620500D02*
X12297500Y-6660500D01*
X12405000Y-12703594D02*
X12445000Y-12743594D01*
X12445000Y-12703594D02*
X12405000Y-12743594D01*
X12520500Y-6207500D02*
X12560500Y-6247500D01*
X12560500Y-6207500D02*
X12520500Y-6247500D01*
X12562500Y-12240500D02*
X12602500Y-12280500D01*
X12602500Y-12240500D02*
X12562500Y-12280500D01*
X12626148Y-13055228D02*
X12666148Y-13095228D01*
X12666148Y-13055228D02*
X12626148Y-13095228D01*
X12654000Y-12156000D02*
X12694000Y-12196000D01*
X12694000Y-12156000D02*
X12654000Y-12196000D01*
X12709171Y-12989998D02*
X12749171Y-13029998D01*
X12749171Y-12989998D02*
X12709171Y-13029998D01*
X12734660Y-11194660D02*
X12774660Y-11234660D01*
X12774660Y-11194660D02*
X12734660Y-11234660D01*
X12837957Y-12137732D02*
X12877957Y-12177732D01*
X12877957Y-12137732D02*
X12837957Y-12177732D01*
X12843500Y-13064000D02*
X12883500Y-13104000D01*
X12883500Y-13064000D02*
X12843500Y-13104000D01*
X12937902Y-12141067D02*
X12977902Y-12181067D01*
X12977902Y-12141067D02*
X12937902Y-12181067D01*
X12961000Y-13033999D02*
X13001000Y-13073999D01*
X13001000Y-13033999D02*
X12961000Y-13073999D01*
X13042000Y-5788000D02*
X13082000Y-5828000D01*
X13082000Y-5788000D02*
X13042000Y-5828000D01*
X13056564Y-12243976D02*
X13096564Y-12283976D01*
X13096564Y-12243976D02*
X13056564Y-12283976D01*
X13073372Y-13043866D02*
X13113372Y-13083866D01*
X13113372Y-13043866D02*
X13073372Y-13083866D01*
X13088432Y-9915000D02*
X13128432Y-9955000D01*
X13128432Y-9915000D02*
X13088432Y-9955000D01*
X13170000Y-11427526D02*
X13210000Y-11467526D01*
X13210000Y-11427526D02*
X13170000Y-11467526D01*
X13231000Y-10283000D02*
X13271000Y-10323000D01*
X13271000Y-10283000D02*
X13231000Y-10323000D01*
X13252000Y-12265000D02*
X13292000Y-12305000D01*
X13292000Y-12265000D02*
X13252000Y-12305000D01*
X13253000Y-4310000D02*
X13293000Y-4350000D01*
X13293000Y-4310000D02*
X13253000Y-4350000D01*
X13255000Y-10582298D02*
X13295000Y-10622298D01*
X13295000Y-10582298D02*
X13255000Y-10622298D01*
X13271194Y-13060840D02*
X13311194Y-13100840D01*
X13311194Y-13060840D02*
X13271194Y-13100840D01*
X13287500Y-6185000D02*
X13327500Y-6225000D01*
X13327500Y-6185000D02*
X13287500Y-6225000D01*
X13440335Y-6493335D02*
X13480335Y-6533335D01*
X13480335Y-6493335D02*
X13440335Y-6533335D01*
X13838000Y-13290000D02*
X13878000Y-13330000D01*
X13878000Y-13290000D02*
X13838000Y-13330000D01*
X13881000Y-11436000D02*
X13921000Y-11476000D01*
X13921000Y-11436000D02*
X13881000Y-11476000D01*
X14060000Y-11789000D02*
X14100000Y-11829000D01*
X14100000Y-11789000D02*
X14060000Y-11829000D01*
X14556000Y-4305000D02*
X14596000Y-4345000D01*
X14596000Y-4305000D02*
X14556000Y-4345000D01*
X14852000Y-12411000D02*
X14892000Y-12451000D01*
X14892000Y-12411000D02*
X14852000Y-12451000D01*
X15382000Y-12452000D02*
X15422000Y-12492000D01*
X15422000Y-12452000D02*
X15382000Y-12492000D01*
X15394000Y-12217000D02*
X15434000Y-12257000D01*
X15434000Y-12217000D02*
X15394000Y-12257000D01*
X15473000Y-6874000D02*
X15513000Y-6914000D01*
X15513000Y-6874000D02*
X15473000Y-6914000D01*
X15473000Y-11432000D02*
X15513000Y-11472000D01*
X15513000Y-11432000D02*
X15473000Y-11472000D01*
X15631000Y-12441000D02*
X15671000Y-12481000D01*
X15671000Y-12441000D02*
X15631000Y-12481000D01*
X15992000Y-11846513D02*
X16032000Y-11886513D01*
X16032000Y-11846513D02*
X15992000Y-11886513D01*
X16039150Y-12781001D02*
X16079150Y-12821001D01*
X16079150Y-12781001D02*
X16039150Y-12821001D01*
X16156235Y-9960765D02*
X16196235Y-10000765D01*
X16196235Y-9960765D02*
X16156235Y-10000765D01*
X16239000Y-4306000D02*
X16279000Y-4346000D01*
X16279000Y-4306000D02*
X16239000Y-4346000D01*
X16281000Y-10748000D02*
X16321000Y-10788000D01*
X16321000Y-10748000D02*
X16281000Y-10788000D01*
X16407000Y-10231000D02*
X16447000Y-10271000D01*
X16447000Y-10231000D02*
X16407000Y-10271000D01*
X16460000Y-9605000D02*
X16500000Y-9645000D01*
X16500000Y-9605000D02*
X16460000Y-9645000D01*
X16741000Y-10673000D02*
X16781000Y-10713000D01*
X16781000Y-10673000D02*
X16741000Y-10713000D01*
X16753609Y-12849609D02*
X16793609Y-12889609D01*
X16793609Y-12849609D02*
X16753609Y-12889609D01*
X16780000Y-5830000D02*
X16820000Y-5870000D01*
X16820000Y-5830000D02*
X16780000Y-5870000D01*
X17046000Y-11852000D02*
X17086000Y-11892000D01*
X17086000Y-11852000D02*
X17046000Y-11892000D01*
X17129000Y-4308000D02*
X17169000Y-4348000D01*
X17169000Y-4308000D02*
X17129000Y-4348000D01*
X17363000Y-10650000D02*
X17403000Y-10690000D01*
X17403000Y-10650000D02*
X17363000Y-10690000D01*
X17491000Y-10695001D02*
X17531000Y-10735001D01*
X17531000Y-10695001D02*
X17491000Y-10735001D01*
X17671000Y-12599000D02*
X17711000Y-12639000D01*
X17711000Y-12599000D02*
X17671000Y-12639000D01*
X17725000Y-9732500D02*
X17765000Y-9772500D01*
X17765000Y-9732500D02*
X17725000Y-9772500D01*
X17732500Y-6747500D02*
X17772500Y-6787500D01*
X17772500Y-6747500D02*
X17732500Y-6787500D01*
X17738664Y-10337800D02*
X17778664Y-10377800D01*
X17778664Y-10337800D02*
X17738664Y-10377800D01*
X17924846Y-5236784D02*
X17964846Y-5276784D01*
X17964846Y-5236784D02*
X17924846Y-5276784D01*
X17925000Y-11846513D02*
X17965000Y-11886513D01*
X17965000Y-11846513D02*
X17925000Y-11886513D01*
X17937000Y-4303000D02*
X17977000Y-4343000D01*
X17977000Y-4303000D02*
X17937000Y-4343000D01*
X17952500Y-10332500D02*
X17992500Y-10372500D01*
X17992500Y-10332500D02*
X17952500Y-10372500D01*
X18095000Y-10262500D02*
X18135000Y-10302500D01*
X18135000Y-10262500D02*
X18095000Y-10302500D01*
X18119000Y-8285000D02*
X18159000Y-8325000D01*
X18159000Y-8285000D02*
X18119000Y-8325000D01*
X18154000Y-8124000D02*
X18194000Y-8164000D01*
X18194000Y-8124000D02*
X18154000Y-8164000D01*
X18175290Y-6453190D02*
X18215290Y-6493190D01*
X18215290Y-6453190D02*
X18175290Y-6493190D01*
X18201000Y-13426000D02*
X18241000Y-13466000D01*
X18241000Y-13426000D02*
X18201000Y-13466000D01*
X18471708Y-5568508D02*
X18511708Y-5608508D01*
X18511708Y-5568508D02*
X18471708Y-5608508D01*
X18483000Y-7443000D02*
X18523000Y-7483000D01*
X18523000Y-7443000D02*
X18483000Y-7483000D01*
X18704000Y-12255000D02*
X18744000Y-12295000D01*
X18744000Y-12255000D02*
X18704000Y-12295000D01*
X18778000Y-12339000D02*
X18818000Y-12379000D01*
X18818000Y-12339000D02*
X18778000Y-12379000D01*
X19000028Y-5494848D02*
X19040028Y-5534848D01*
X19040028Y-5494848D02*
X19000028Y-5534848D01*
X19058448Y-4757486D02*
X19098448Y-4797486D01*
X19098448Y-4757486D02*
X19058448Y-4797486D01*
X19062500Y-9727500D02*
X19102500Y-9767500D01*
X19102500Y-9727500D02*
X19062500Y-9767500D01*
X19103000Y-13450000D02*
X19143000Y-13490000D01*
X19143000Y-13450000D02*
X19103000Y-13490000D01*
X19220000Y-4263000D02*
X19260000Y-4303000D01*
X19260000Y-4263000D02*
X19220000Y-4303000D01*
X19282000Y-11861000D02*
X19322000Y-11901000D01*
X19322000Y-11861000D02*
X19282000Y-11901000D01*
X19313000Y-7551000D02*
X19353000Y-7591000D01*
X19353000Y-7551000D02*
X19313000Y-7591000D01*
X19331000Y-4963000D02*
X19371000Y-5003000D01*
X19371000Y-4963000D02*
X19331000Y-5003000D01*
X19369344Y-4539300D02*
X19409344Y-4579300D01*
X19409344Y-4539300D02*
X19369344Y-4579300D01*
X19380000Y-10040000D02*
X19420000Y-10080000D01*
X19420000Y-10040000D02*
X19380000Y-10080000D01*
X19555000Y-8472500D02*
X19595000Y-8512500D01*
X19595000Y-8472500D02*
X19555000Y-8512500D01*
X19563000Y-9963000D02*
X19603000Y-10003000D01*
X19603000Y-9963000D02*
X19563000Y-10003000D01*
X19607500Y-10830000D02*
X19647500Y-10870000D01*
X19647500Y-10830000D02*
X19607500Y-10870000D01*
X19659000Y-7530000D02*
X19699000Y-7570000D01*
X19699000Y-7530000D02*
X19659000Y-7570000D01*
X19662770Y-7985550D02*
X19702770Y-8025550D01*
X19702770Y-7985550D02*
X19662770Y-8025550D01*
X19725000Y-9010000D02*
X19765000Y-9050000D01*
X19765000Y-9010000D02*
X19725000Y-9050000D01*
X19764316Y-8857500D02*
X19804316Y-8897500D01*
X19804316Y-8857500D02*
X19764316Y-8897500D01*
X19869000Y-8580000D02*
X19909000Y-8620000D01*
X19909000Y-8580000D02*
X19869000Y-8620000D01*
X20042500Y-8542500D02*
X20082500Y-8582500D01*
X20082500Y-8542500D02*
X20042500Y-8582500D01*
X20074000Y-13444000D02*
X20114000Y-13484000D01*
X20114000Y-13444000D02*
X20074000Y-13484000D01*
X20075000Y-10830000D02*
X20115000Y-10870000D01*
X20115000Y-10830000D02*
X20075000Y-10870000D01*
X20091212Y-5473258D02*
X20131212Y-5513258D01*
X20131212Y-5473258D02*
X20091212Y-5513258D01*
X20105000Y-7450000D02*
X20145000Y-7490000D01*
X20145000Y-7450000D02*
X20105000Y-7490000D01*
X20128000Y-9981000D02*
X20168000Y-10021000D01*
X20168000Y-9981000D02*
X20128000Y-10021000D01*
X20155728Y-6294186D02*
X20195728Y-6334186D01*
X20195728Y-6294186D02*
X20155728Y-6334186D01*
X20199000Y-7020000D02*
X20239000Y-7060000D01*
X20239000Y-7020000D02*
X20199000Y-7060000D01*
X20250000Y-10817500D02*
X20290000Y-10857500D01*
X20290000Y-10817500D02*
X20250000Y-10857500D01*
X20267000Y-4274000D02*
X20307000Y-4314000D01*
X20307000Y-4274000D02*
X20267000Y-4314000D01*
X20404000Y-11854000D02*
X20444000Y-11894000D01*
X20444000Y-11854000D02*
X20404000Y-11894000D01*
X20540000Y-9330000D02*
X20580000Y-9370000D01*
X20580000Y-9330000D02*
X20540000Y-9370000D01*
X20795000Y-10500000D02*
X20835000Y-10540000D01*
X20835000Y-10500000D02*
X20795000Y-10540000D01*
X20808000Y-9935000D02*
X20848000Y-9975000D01*
X20848000Y-9935000D02*
X20808000Y-9975000D01*
X20825504Y-8824496D02*
X20865504Y-8864496D01*
X20865504Y-8824496D02*
X20825504Y-8864496D01*
X20918116Y-8792500D02*
X20958116Y-8832500D01*
X20958116Y-8792500D02*
X20918116Y-8832500D01*
X20970000Y-11006000D02*
X21010000Y-11046000D01*
X21010000Y-11006000D02*
X20970000Y-11046000D01*
X21125000Y-4275000D02*
X21165000Y-4315000D01*
X21165000Y-4275000D02*
X21125000Y-4315000D01*
X21168934Y-12068876D02*
X21208934Y-12108876D01*
X21208934Y-12068876D02*
X21168934Y-12108876D01*
X21172000Y-13442000D02*
X21212000Y-13482000D01*
X21212000Y-13442000D02*
X21172000Y-13482000D01*
X21192500Y-9667500D02*
X21232500Y-9707500D01*
X21232500Y-9667500D02*
X21192500Y-9707500D01*
X21415000Y-7045000D02*
X21455000Y-7085000D01*
X21455000Y-7045000D02*
X21415000Y-7085000D01*
X21496900Y-11005000D02*
X21536900Y-11045000D01*
X21536900Y-11005000D02*
X21496900Y-11045000D01*
X21742000Y-9535000D02*
X21782000Y-9575000D01*
X21782000Y-9535000D02*
X21742000Y-9575000D01*
X21765000Y-7120000D02*
X21805000Y-7160000D01*
X21805000Y-7120000D02*
X21765000Y-7160000D01*
X21769985Y-10429985D02*
X21809985Y-10469985D01*
X21809985Y-10429985D02*
X21769985Y-10469985D01*
X21770000Y-8622500D02*
X21810000Y-8662500D01*
X21810000Y-8622500D02*
X21770000Y-8662500D01*
X21775000Y-8452500D02*
X21815000Y-8492500D01*
X21815000Y-8452500D02*
X21775000Y-8492500D01*
X21809000Y-10266000D02*
X21849000Y-10306000D01*
X21849000Y-10266000D02*
X21809000Y-10306000D01*
X21911000Y-13352000D02*
X21951000Y-13392000D01*
X21951000Y-13352000D02*
X21911000Y-13392000D01*
X21948000Y-10738000D02*
X21988000Y-10778000D01*
X21988000Y-10738000D02*
X21948000Y-10778000D01*
X22001001Y-10076928D02*
X22041001Y-10116928D01*
X22041001Y-10076928D02*
X22001001Y-10116928D01*
X22017500Y-9217500D02*
X22057500Y-9257500D01*
X22057500Y-9217500D02*
X22017500Y-9257500D01*
X22021804Y-9383197D02*
X22061804Y-9423197D01*
X22061804Y-9383197D02*
X22021804Y-9423197D01*
X22115000Y-9155000D02*
X22155000Y-9195000D01*
X22155000Y-9155000D02*
X22115000Y-9195000D01*
X22119110Y-8363464D02*
X22159110Y-8403464D01*
X22159110Y-8363464D02*
X22119110Y-8403464D01*
X22210000Y-8411398D02*
X22250000Y-8451398D01*
X22250000Y-8411398D02*
X22210000Y-8451398D01*
X22295000Y-7107500D02*
X22335000Y-7147500D01*
X22335000Y-7107500D02*
X22295000Y-7147500D01*
X22385000Y-7020000D02*
X22425000Y-7060000D01*
X22425000Y-7020000D02*
X22385000Y-7060000D01*
X22420905Y-10302905D02*
X22460905Y-10342905D01*
X22460905Y-10302905D02*
X22420905Y-10342905D01*
X22469000Y-4272000D02*
X22509000Y-4312000D01*
X22509000Y-4272000D02*
X22469000Y-4312000D01*
X22520747Y-10313247D02*
X22560747Y-10353247D01*
X22560747Y-10313247D02*
X22520747Y-10353247D01*
X22525000Y-9051000D02*
X22565000Y-9091000D01*
X22565000Y-9051000D02*
X22525000Y-9091000D01*
X22551000Y-7363000D02*
X22591000Y-7403000D01*
X22591000Y-7363000D02*
X22551000Y-7403000D01*
X22640542Y-9236455D02*
X22680542Y-9276455D01*
X22680542Y-9236455D02*
X22640542Y-9276455D01*
X22714277Y-10114446D02*
X22754277Y-10154446D01*
X22754277Y-10114446D02*
X22714277Y-10154446D01*
X22790000Y-8960000D02*
X22830000Y-9000000D01*
X22830000Y-8960000D02*
X22790000Y-9000000D01*
X22794000Y-12540000D02*
X22834000Y-12580000D01*
X22834000Y-12540000D02*
X22794000Y-12580000D01*
X22803514Y-10069315D02*
X22843514Y-10109315D01*
X22843514Y-10069315D02*
X22803514Y-10109315D01*
X22809764Y-9235907D02*
X22849764Y-9275907D01*
X22849764Y-9235907D02*
X22809764Y-9275907D01*
X22921026Y-12008502D02*
X22961026Y-12048502D01*
X22961026Y-12008502D02*
X22921026Y-12048502D01*
X22940000Y-8900000D02*
X22980000Y-8940000D01*
X22980000Y-8900000D02*
X22940000Y-8940000D01*
X23011000Y-7373000D02*
X23051000Y-7413000D01*
X23051000Y-7373000D02*
X23011000Y-7413000D01*
X23030000Y-10385000D02*
X23070000Y-10425000D01*
X23070000Y-10385000D02*
X23030000Y-10425000D01*
X23040000Y-9692500D02*
X23080000Y-9732500D01*
X23080000Y-9692500D02*
X23040000Y-9732500D01*
X23062500Y-10090000D02*
X23102500Y-10130000D01*
X23102500Y-10090000D02*
X23062500Y-10130000D01*
X23092140Y-10306650D02*
X23132140Y-10346650D01*
X23132140Y-10306650D02*
X23092140Y-10346650D01*
X23117000Y-9157000D02*
X23157000Y-9197000D01*
X23157000Y-9157000D02*
X23117000Y-9197000D01*
X23237500Y-8870000D02*
X23277500Y-8910000D01*
X23277500Y-8870000D02*
X23237500Y-8910000D01*
X23283000Y-9895000D02*
X23323000Y-9935000D01*
X23323000Y-9895000D02*
X23283000Y-9935000D01*
X23464485Y-7608015D02*
X23504485Y-7648015D01*
X23504485Y-7608015D02*
X23464485Y-7648015D01*
X23505000Y-10320000D02*
X23545000Y-10360000D01*
X23545000Y-10320000D02*
X23505000Y-10360000D01*
X23650896Y-10296417D02*
X23690896Y-10336417D01*
X23690896Y-10296417D02*
X23650896Y-10336417D01*
X23710000Y-9915000D02*
X23750000Y-9955000D01*
X23750000Y-9915000D02*
X23710000Y-9955000D01*
X23761000Y-7203000D02*
X23801000Y-7243000D01*
X23801000Y-7203000D02*
X23761000Y-7243000D01*
X23806000Y-13356000D02*
X23846000Y-13396000D01*
X23846000Y-13356000D02*
X23806000Y-13396000D01*
X23861000Y-7210550D02*
X23901000Y-7250550D01*
X23901000Y-7210550D02*
X23861000Y-7250550D01*
X23864000Y-4280000D02*
X23904000Y-4320000D01*
X23904000Y-4280000D02*
X23864000Y-4320000D01*
X24359936Y-10720390D02*
X24399936Y-10760390D01*
X24399936Y-10720390D02*
X24359936Y-10760390D01*
X24400000Y-7537500D02*
X24440000Y-7577500D01*
X24440000Y-7537500D02*
X24400000Y-7577500D01*
X24446000Y-8490000D02*
X24486000Y-8530000D01*
X24486000Y-8490000D02*
X24446000Y-8530000D01*
X24457000Y-8780000D02*
X24497000Y-8820000D01*
X24497000Y-8780000D02*
X24457000Y-8820000D01*
X24517500Y-7680000D02*
X24557500Y-7720000D01*
X24557500Y-7680000D02*
X24517500Y-7720000D01*
X24531894Y-9428292D02*
X24571894Y-9468292D01*
X24571894Y-9428292D02*
X24531894Y-9468292D01*
X24535000Y-13353000D02*
X24575000Y-13393000D01*
X24575000Y-13353000D02*
X24535000Y-13393000D01*
X24634000Y-4642000D02*
X24674000Y-4682000D01*
X24674000Y-4642000D02*
X24634000Y-4682000D01*
X24642500Y-8487500D02*
X24682500Y-8527500D01*
X24682500Y-8487500D02*
X24642500Y-8527500D01*
X24755000Y-8285000D02*
X24795000Y-8325000D01*
X24795000Y-8285000D02*
X24755000Y-8325000D01*
X25071000Y-5341000D02*
X25111000Y-5381000D01*
X25111000Y-5341000D02*
X25071000Y-5381000D01*
X25100000Y-10250000D02*
X25140000Y-10290000D01*
X25140000Y-10250000D02*
X25100000Y-10290000D01*
X25104000Y-8875000D02*
X25144000Y-8915000D01*
X25144000Y-8875000D02*
X25104000Y-8915000D01*
X25105000Y-6483000D02*
X25145000Y-6523000D01*
X25145000Y-6483000D02*
X25105000Y-6523000D01*
X25106000Y-7576000D02*
X25146000Y-7616000D01*
X25146000Y-7576000D02*
X25106000Y-7616000D01*
D12*
X9691993Y-6548978D02*
G75*
G03*
X9691993Y-6548978I-30000J0D01*
G01*
X9835774Y-6544266D02*
G75*
G03*
X9835774Y-6544266I-30000J0D01*
G01*
X9985000Y-6545000D02*
G75*
G03*
X9985000Y-6545000I-30000J0D01*
G01*
X10125000Y-6535000D02*
G75*
G03*
X10125000Y-6535000I-30000J0D01*
G01*
X11425000Y-7930000D02*
G75*
G03*
X11425000Y-7930000I-30000J0D01*
G01*
X12221500Y-7856000D02*
G75*
G03*
X12221500Y-7856000I-30000J0D01*
G01*
X12234000Y-8481000D02*
G75*
G03*
X12234000Y-8481000I-30000J0D01*
G01*
X12268000Y-6993000D02*
G75*
G03*
X12268000Y-6993000I-30000J0D01*
G01*
X12796000Y-7098000D02*
G75*
G03*
X12796000Y-7098000I-30000J0D01*
G01*
X12798657Y-6764657D02*
G75*
G03*
X12798657Y-6764657I-30000J0D01*
G01*
X12825000Y-7457000D02*
G75*
G03*
X12825000Y-7457000I-30000J0D01*
G01*
X13037000Y-8745000D02*
G75*
G03*
X13037000Y-8745000I-30000J0D01*
G01*
X13117500Y-12052500D02*
G75*
G03*
X13117500Y-12052500I-30000J0D01*
G01*
X13417000Y-10301497D02*
G75*
G03*
X13417000Y-10301497I-30000J0D01*
G01*
X13579000Y-10301497D02*
G75*
G03*
X13579000Y-10301497I-30000J0D01*
G01*
X13677500Y-13247500D02*
G75*
G03*
X13677500Y-13247500I-30000J0D01*
G01*
X13737503Y-10301497D02*
G75*
G03*
X13737503Y-10301497I-30000J0D01*
G01*
X13750000Y-12415000D02*
G75*
G03*
X13750000Y-12415000I-30000J0D01*
G01*
X13942000Y-12426000D02*
G75*
G03*
X13942000Y-12426000I-30000J0D01*
G01*
X14095000Y-7970000D02*
G75*
G03*
X14095000Y-7970000I-30000J0D01*
G01*
X14176000Y-12073000D02*
G75*
G03*
X14176000Y-12073000I-30000J0D01*
G01*
X14207000Y-6762000D02*
G75*
G03*
X14207000Y-6762000I-30000J0D01*
G01*
X14360000Y-7388000D02*
G75*
G03*
X14360000Y-7388000I-30000J0D01*
G01*
X14593000Y-10001000D02*
G75*
G03*
X14593000Y-10001000I-30000J0D01*
G01*
X14640000Y-12705000D02*
G75*
G03*
X14640000Y-12705000I-30000J0D01*
G01*
X14672000Y-8208000D02*
G75*
G03*
X14672000Y-8208000I-30000J0D01*
G01*
X14765000Y-12313000D02*
G75*
G03*
X14765000Y-12313000I-30000J0D01*
G01*
X15101000Y-7569000D02*
G75*
G03*
X15101000Y-7569000I-30000J0D01*
G01*
X15291750Y-8709000D02*
G75*
G03*
X15291750Y-8709000I-30000J0D01*
G01*
X15431000Y-11943000D02*
G75*
G03*
X15431000Y-11943000I-30000J0D01*
G01*
X15526000Y-12038000D02*
G75*
G03*
X15526000Y-12038000I-30000J0D01*
G01*
X15551193Y-10438105D02*
G75*
G03*
X15551193Y-10438105I-30000J0D01*
G01*
X15665594Y-10357405D02*
G75*
G03*
X15665594Y-10357405I-30000J0D01*
G01*
X15677304Y-9700000D02*
G75*
G03*
X15677304Y-9700000I-30000J0D01*
G01*
X15681000Y-7102000D02*
G75*
G03*
X15681000Y-7102000I-30000J0D01*
G01*
X15703000Y-9916000D02*
G75*
G03*
X15703000Y-9916000I-30000J0D01*
G01*
X15712847Y-9515661D02*
G75*
G03*
X15712847Y-9515661I-30000J0D01*
G01*
X15797600Y-10423140D02*
G75*
G03*
X15797600Y-10423140I-30000J0D01*
G01*
X15934999Y-10450000D02*
G75*
G03*
X15934999Y-10450000I-30000J0D01*
G01*
X16048000Y-8711000D02*
G75*
G03*
X16048000Y-8711000I-30000J0D01*
G01*
X16631000Y-6331000D02*
G75*
G03*
X16631000Y-6331000I-30000J0D01*
G01*
X16657000Y-7083000D02*
G75*
G03*
X16657000Y-7083000I-30000J0D01*
G01*
X17362000Y-5665000D02*
G75*
G03*
X17362000Y-5665000I-30000J0D01*
G01*
X17958000Y-9442000D02*
G75*
G03*
X17958000Y-9442000I-30000J0D01*
G01*
X18242746Y-6675746D02*
G75*
G03*
X18242746Y-6675746I-30000J0D01*
G01*
X18272000Y-8720990D02*
G75*
G03*
X18272000Y-8720990I-30000J0D01*
G01*
X18335000Y-5705000D02*
G75*
G03*
X18335000Y-5705000I-30000J0D01*
G01*
X18807000Y-6327000D02*
G75*
G03*
X18807000Y-6327000I-30000J0D01*
G01*
X18850000Y-5965000D02*
G75*
G03*
X18850000Y-5965000I-30000J0D01*
G01*
X19127500Y-8569999D02*
G75*
G03*
X19127500Y-8569999I-30000J0D01*
G01*
X19127500Y-9600000D02*
G75*
G03*
X19127500Y-9600000I-30000J0D01*
G01*
X19150000Y-5909000D02*
G75*
G03*
X19150000Y-5909000I-30000J0D01*
G01*
X19150000Y-6535000D02*
G75*
G03*
X19150000Y-6535000I-30000J0D01*
G01*
X19252500Y-9067500D02*
G75*
G03*
X19252500Y-9067500I-30000J0D01*
G01*
X20002000Y-6935000D02*
G75*
G03*
X20002000Y-6935000I-30000J0D01*
G01*
X20121000Y-6766000D02*
G75*
G03*
X20121000Y-6766000I-30000J0D01*
G01*
X20360000Y-5784000D02*
G75*
G03*
X20360000Y-5784000I-30000J0D01*
G01*
X21172500Y-8552500D02*
G75*
G03*
X21172500Y-8552500I-30000J0D01*
G01*
X22535000Y-9835000D02*
G75*
G03*
X22535000Y-9835000I-30000J0D01*
G01*
X22590000Y-10587500D02*
G75*
G03*
X22590000Y-10587500I-30000J0D01*
G01*
X22876000Y-11018000D02*
G75*
G03*
X22876000Y-11018000I-30000J0D01*
G01*
X23730000Y-10200000D02*
G75*
G03*
X23730000Y-10200000I-30000J0D01*
G01*
D13*
X12528500Y-5319500D02*
X12528500Y-5411500D01*
X12482500Y-5365500D02*
X12574500Y-5365500D01*
X12528500Y-5519500D02*
X12528500Y-5611500D01*
X12482500Y-5565500D02*
X12574500Y-5565500D01*
X12528500Y-5719500D02*
X12528500Y-5811500D01*
X12482500Y-5765500D02*
X12574500Y-5765500D01*
X12528500Y-5919500D02*
X12528500Y-6011500D01*
X12482500Y-5965500D02*
X12574500Y-5965500D01*
X13658697Y-5083998D02*
X13658697Y-5175998D01*
X13612697Y-5129998D02*
X13704697Y-5129998D01*
X13658697Y-5283998D02*
X13658697Y-5375998D01*
X13612697Y-5329998D02*
X13704697Y-5329998D01*
X13908697Y-5083998D02*
X13908697Y-5175998D01*
X13862697Y-5129998D02*
X13954697Y-5129998D01*
X13908697Y-5283998D02*
X13908697Y-5375998D01*
X13862697Y-5329998D02*
X13954697Y-5329998D01*
D14*
X16798442Y-5528942D02*
X16798442Y-5461059D01*
X16730558Y-5461059D01*
X16730558Y-5528942D01*
X16798442Y-5528942D01*
X16925442Y-5274942D02*
X16925442Y-5207059D01*
X16857559Y-5207059D01*
X16857559Y-5274942D01*
X16925442Y-5274942D01*
X17052442Y-5528942D02*
X17052442Y-5461059D01*
X16984559Y-5461059D01*
X16984559Y-5528942D01*
X17052442Y-5528942D01*
X17179442Y-5274942D02*
X17179442Y-5207059D01*
X17111559Y-5207059D01*
X17111559Y-5274942D01*
X17179442Y-5274942D01*
X17306442Y-5528942D02*
X17306442Y-5461059D01*
X17238559Y-5461059D01*
X17238559Y-5528942D01*
X17306442Y-5528942D01*
X17433442Y-5274942D02*
X17433442Y-5207059D01*
X17365559Y-5207059D01*
X17365559Y-5274942D01*
X17433442Y-5274942D01*
X17560442Y-5528942D02*
X17560442Y-5461059D01*
X17492559Y-5461059D01*
X17492559Y-5528942D01*
X17560442Y-5528942D01*
X17687442Y-5274942D02*
X17687442Y-5207059D01*
X17619559Y-5207059D01*
X17619559Y-5274942D01*
X17687442Y-5274942D01*
D15*
X9821000Y-10173000D02*
X9871000Y-10123000D01*
X9821000Y-10073000D01*
X9771000Y-10123000D01*
X9821000Y-10173000D01*
X9831000Y-10603000D02*
X9881000Y-10553000D01*
X9831000Y-10503000D01*
X9781000Y-10553000D01*
X9831000Y-10603000D01*
X15163045Y-4963000D02*
X15213045Y-4913000D01*
X15163045Y-4863000D01*
X15113045Y-4913000D01*
X15163045Y-4963000D01*
D10*
X15113045Y-4813000D02*
X15113045Y-5013000D01*
X15213045Y-4813000D02*
X15213045Y-5013000D01*
X15113045Y-5013000D02*
G75*
G03*
X15213045Y-5013000I50000J0D01*
G01*
X15213045Y-4813000D02*
G75*
G03*
X15113045Y-4813000I-50000J0D01*
G01*
D15*
X15633045Y-4663000D02*
X15683045Y-4613000D01*
X15633045Y-4563000D01*
X15583045Y-4613000D01*
X15633045Y-4663000D01*
D10*
X15733045Y-4563000D02*
X15533045Y-4563000D01*
X15733045Y-4663000D02*
X15533045Y-4663000D01*
X15533045Y-4563000D02*
G75*
G03*
X15533045Y-4663000I0J-50000D01*
G01*
X15733045Y-4663000D02*
G75*
G03*
X15733045Y-4563000I0J50000D01*
G01*
D15*
X15633045Y-5263000D02*
X15683045Y-5213000D01*
X15633045Y-5163000D01*
X15583045Y-5213000D01*
X15633045Y-5263000D01*
D10*
X15733045Y-5163000D02*
X15533045Y-5163000D01*
X15733045Y-5263000D02*
X15533045Y-5263000D01*
X15533045Y-5163000D02*
G75*
G03*
X15533045Y-5263000I0J-50000D01*
G01*
X15733045Y-5263000D02*
G75*
G03*
X15733045Y-5163000I0J50000D01*
G01*
D15*
X17786000Y-12891000D02*
X17836000Y-12841000D01*
X17786000Y-12791000D01*
X17736000Y-12841000D01*
X17786000Y-12891000D01*
X17786000Y-13145000D02*
X17836000Y-13095000D01*
X17786000Y-13045000D01*
X17736000Y-13095000D01*
X17786000Y-13145000D01*
X17786000Y-13399000D02*
X17836000Y-13349000D01*
X17786000Y-13299000D01*
X17736000Y-13349000D01*
X17786000Y-13399000D01*
D16*
X12189000Y-5225000D02*
X12324000Y-5360000D01*
X12324000Y-5225000D02*
X12189000Y-5360000D01*
X12324000Y-5292500D02*
G75*
G03*
X12324000Y-5292500I-67500J0D01*
G01*
X12189000Y-5925000D02*
X12324000Y-6060000D01*
X12324000Y-5925000D02*
X12189000Y-6060000D01*
X12324000Y-5992500D02*
G75*
G03*
X12324000Y-5992500I-67500J0D01*
G01*
X12733000Y-5225000D02*
X12868000Y-5360000D01*
X12868000Y-5225000D02*
X12733000Y-5360000D01*
X12868000Y-5292500D02*
G75*
G03*
X12868000Y-5292500I-67500J0D01*
G01*
X12733000Y-5925000D02*
X12868000Y-6060000D01*
X12868000Y-5925000D02*
X12733000Y-6060000D01*
X12868000Y-5992500D02*
G75*
G03*
X12868000Y-5992500I-67500J0D01*
G01*
D17*
X6633500Y-4768000D02*
X6783500Y-4918000D01*
X6783500Y-4768000D02*
X6633500Y-4918000D01*
X6708500Y-4768000D02*
X6708500Y-4918000D01*
X6633500Y-4843000D02*
X6783500Y-4843000D01*
X6633500Y-5403000D02*
X6783500Y-5553000D01*
X6783500Y-5403000D02*
X6633500Y-5553000D01*
X6708500Y-5403000D02*
X6708500Y-5553000D01*
X6633500Y-5478000D02*
X6783500Y-5478000D01*
X6633500Y-6038000D02*
X6783500Y-6188000D01*
X6783500Y-6038000D02*
X6633500Y-6188000D01*
X6708500Y-6038000D02*
X6708500Y-6188000D01*
X6633500Y-6113000D02*
X6783500Y-6113000D01*
X8256500Y-4768000D02*
X8406500Y-4918000D01*
X8406500Y-4768000D02*
X8256500Y-4918000D01*
X8331500Y-4768000D02*
X8331500Y-4918000D01*
X8256500Y-4843000D02*
X8406500Y-4843000D01*
X8256500Y-5403000D02*
X8406500Y-5553000D01*
X8406500Y-5403000D02*
X8256500Y-5553000D01*
X8331500Y-5403000D02*
X8331500Y-5553000D01*
X8256500Y-5478000D02*
X8406500Y-5478000D01*
X8256500Y-6038000D02*
X8406500Y-6188000D01*
X8406500Y-6038000D02*
X8256500Y-6188000D01*
X8331500Y-6038000D02*
X8331500Y-6188000D01*
X8256500Y-6113000D02*
X8406500Y-6113000D01*
X8733500Y-4768000D02*
X8883500Y-4918000D01*
X8883500Y-4768000D02*
X8733500Y-4918000D01*
X8808500Y-4768000D02*
X8808500Y-4918000D01*
X8733500Y-4843000D02*
X8883500Y-4843000D01*
X8733500Y-5403000D02*
X8883500Y-5553000D01*
X8883500Y-5403000D02*
X8733500Y-5553000D01*
X8808500Y-5403000D02*
X8808500Y-5553000D01*
X8733500Y-5478000D02*
X8883500Y-5478000D01*
X8733500Y-6038000D02*
X8883500Y-6188000D01*
X8883500Y-6038000D02*
X8733500Y-6188000D01*
X8808500Y-6038000D02*
X8808500Y-6188000D01*
X8733500Y-6113000D02*
X8883500Y-6113000D01*
X10356500Y-4768000D02*
X10506500Y-4918000D01*
X10506500Y-4768000D02*
X10356500Y-4918000D01*
X10431500Y-4768000D02*
X10431500Y-4918000D01*
X10356500Y-4843000D02*
X10506500Y-4843000D01*
X10356500Y-5403000D02*
X10506500Y-5553000D01*
X10506500Y-5403000D02*
X10356500Y-5553000D01*
X10431500Y-5403000D02*
X10431500Y-5553000D01*
X10356500Y-5478000D02*
X10506500Y-5478000D01*
X10356500Y-6038000D02*
X10506500Y-6188000D01*
X10506500Y-6038000D02*
X10356500Y-6188000D01*
X10431500Y-6038000D02*
X10431500Y-6188000D01*
X10356500Y-6113000D02*
X10506500Y-6113000D01*
X20673500Y-4768000D02*
X20823500Y-4918000D01*
X20823500Y-4768000D02*
X20673500Y-4918000D01*
X20748500Y-4768000D02*
X20748500Y-4918000D01*
X20673500Y-4843000D02*
X20823500Y-4843000D01*
X20673500Y-5403000D02*
X20823500Y-5553000D01*
X20823500Y-5403000D02*
X20673500Y-5553000D01*
X20748500Y-5403000D02*
X20748500Y-5553000D01*
X20673500Y-5478000D02*
X20823500Y-5478000D01*
X20673500Y-6038000D02*
X20823500Y-6188000D01*
X20823500Y-6038000D02*
X20673500Y-6188000D01*
X20748500Y-6038000D02*
X20748500Y-6188000D01*
X20673500Y-6113000D02*
X20823500Y-6113000D01*
X22296500Y-4768000D02*
X22446500Y-4918000D01*
X22446500Y-4768000D02*
X22296500Y-4918000D01*
X22371500Y-4768000D02*
X22371500Y-4918000D01*
X22296500Y-4843000D02*
X22446500Y-4843000D01*
X22296500Y-5403000D02*
X22446500Y-5553000D01*
X22446500Y-5403000D02*
X22296500Y-5553000D01*
X22371500Y-5403000D02*
X22371500Y-5553000D01*
X22296500Y-5478000D02*
X22446500Y-5478000D01*
X22296500Y-6038000D02*
X22446500Y-6188000D01*
X22446500Y-6038000D02*
X22296500Y-6188000D01*
X22371500Y-6038000D02*
X22371500Y-6188000D01*
X22296500Y-6113000D02*
X22446500Y-6113000D01*
X22773500Y-4768000D02*
X22923500Y-4918000D01*
X22923500Y-4768000D02*
X22773500Y-4918000D01*
X22848500Y-4768000D02*
X22848500Y-4918000D01*
X22773500Y-4843000D02*
X22923500Y-4843000D01*
X22773500Y-5403000D02*
X22923500Y-5553000D01*
X22923500Y-5403000D02*
X22773500Y-5553000D01*
X22848500Y-5403000D02*
X22848500Y-5553000D01*
X22773500Y-5478000D02*
X22923500Y-5478000D01*
X22773500Y-6038000D02*
X22923500Y-6188000D01*
X22923500Y-6038000D02*
X22773500Y-6188000D01*
X22848500Y-6038000D02*
X22848500Y-6188000D01*
X22773500Y-6113000D02*
X22923500Y-6113000D01*
X24396500Y-4768000D02*
X24546500Y-4918000D01*
X24546500Y-4768000D02*
X24396500Y-4918000D01*
X24471500Y-4768000D02*
X24471500Y-4918000D01*
X24396500Y-4843000D02*
X24546500Y-4843000D01*
X24396500Y-5403000D02*
X24546500Y-5553000D01*
X24546500Y-5403000D02*
X24396500Y-5553000D01*
X24471500Y-5403000D02*
X24471500Y-5553000D01*
X24396500Y-5478000D02*
X24546500Y-5478000D01*
X24396500Y-6038000D02*
X24546500Y-6188000D01*
X24546500Y-6038000D02*
X24396500Y-6188000D01*
X24471500Y-6038000D02*
X24471500Y-6188000D01*
X24396500Y-6113000D02*
X24546500Y-6113000D01*
D18*
X13065197Y-4742498D02*
X13298197Y-4975498D01*
X13298197Y-4742498D02*
X13065197Y-4975498D01*
X13264076Y-4941376D02*
X13264076Y-4776619D01*
X13099318Y-4776619D01*
X13099318Y-4941376D01*
X13264076Y-4941376D01*
X14269197Y-4742498D02*
X14502197Y-4975498D01*
X14502197Y-4742498D02*
X14269197Y-4975498D01*
X14468076Y-4941376D02*
X14468076Y-4776619D01*
X14303318Y-4776619D01*
X14303318Y-4941376D01*
X14468076Y-4941376D01*
D19*
X6940768Y-8173788D02*
X7260768Y-8493788D01*
X7260768Y-8173788D02*
X6940768Y-8493788D01*
X7100768Y-8493788D02*
X7260768Y-8333788D01*
X7100768Y-8173788D01*
X6940768Y-8333788D01*
X7100768Y-8493788D01*
X13300768Y-8173788D02*
X13620768Y-8493788D01*
X13620768Y-8173788D02*
X13300768Y-8493788D01*
X13460768Y-8493788D02*
X13620768Y-8333788D01*
X13460768Y-8173788D01*
X13300768Y-8333788D01*
X13460768Y-8493788D01*
X24760768Y-11912788D02*
X25080768Y-12232788D01*
X25080768Y-11912788D02*
X24760768Y-12232788D01*
X24920768Y-12232788D02*
X25080768Y-12072788D01*
X24920768Y-11912788D01*
X24760768Y-12072788D01*
X24920768Y-12232788D01*
D20*
X6150768Y-4787788D02*
X6150768Y-5137788D01*
X5975768Y-4962788D02*
X6325768Y-4962788D01*
X6325768Y-4962788D02*
G75*
G03*
X6325768Y-4962788I-175000J0D01*
G01*
X6261000Y-11898000D02*
X6261000Y-12248000D01*
X6086000Y-12073000D02*
X6436000Y-12073000D01*
X6436000Y-12073000D02*
G75*
G03*
X6436000Y-12073000I-175000J0D01*
G01*
X14791000Y-4338000D02*
X14791000Y-4688000D01*
X14616000Y-4513000D02*
X14966000Y-4513000D01*
X14966000Y-4513000D02*
G75*
G03*
X14966000Y-4513000I-175000J0D01*
G01*
X25031000Y-4788000D02*
X25031000Y-5138000D01*
X24856000Y-4963000D02*
X25206000Y-4963000D01*
X25206000Y-4963000D02*
G75*
G03*
X25206000Y-4963000I-175000J0D01*
G01*
D10*
X6138619Y-13863476D02*
X6138619Y-13663476D01*
X6186238Y-13663476D01*
X6214809Y-13673000D01*
X6233857Y-13692048D01*
X6243381Y-13711095D01*
X6252905Y-13749190D01*
X6252905Y-13777762D01*
X6243381Y-13815857D01*
X6233857Y-13834905D01*
X6214809Y-13853952D01*
X6186238Y-13863476D01*
X6138619Y-13863476D01*
X6338619Y-13863476D02*
X6338619Y-13730143D01*
X6338619Y-13768238D02*
X6348143Y-13749190D01*
X6357667Y-13739667D01*
X6376714Y-13730143D01*
X6395762Y-13730143D01*
X6462428Y-13863476D02*
X6462428Y-13730143D01*
X6462428Y-13663476D02*
X6452905Y-13673000D01*
X6462428Y-13682524D01*
X6471952Y-13673000D01*
X6462428Y-13663476D01*
X6462428Y-13682524D01*
X6586238Y-13863476D02*
X6567190Y-13853952D01*
X6557667Y-13834905D01*
X6557667Y-13663476D01*
X6691000Y-13863476D02*
X6671952Y-13853952D01*
X6662428Y-13834905D01*
X6662428Y-13663476D01*
X6919571Y-13863476D02*
X6919571Y-13663476D01*
X6986238Y-13806333D01*
X7052905Y-13663476D01*
X7052905Y-13863476D01*
X7233857Y-13863476D02*
X7233857Y-13758714D01*
X7224333Y-13739667D01*
X7205286Y-13730143D01*
X7167190Y-13730143D01*
X7148143Y-13739667D01*
X7233857Y-13853952D02*
X7214809Y-13863476D01*
X7167190Y-13863476D01*
X7148143Y-13853952D01*
X7138619Y-13834905D01*
X7138619Y-13815857D01*
X7148143Y-13796809D01*
X7167190Y-13787286D01*
X7214809Y-13787286D01*
X7233857Y-13777762D01*
X7329095Y-13730143D02*
X7329095Y-13930143D01*
X7329095Y-13739667D02*
X7348143Y-13730143D01*
X7386238Y-13730143D01*
X7405286Y-13739667D01*
X7414809Y-13749190D01*
X7424333Y-13768238D01*
X7424333Y-13825381D01*
X7414809Y-13844428D01*
X7405286Y-13853952D01*
X7386238Y-13863476D01*
X7348143Y-13863476D01*
X7329095Y-13853952D01*
X7510048Y-13844428D02*
X7519571Y-13853952D01*
X7510048Y-13863476D01*
X7500524Y-13853952D01*
X7510048Y-13844428D01*
X7510048Y-13863476D01*
X7510048Y-13739667D02*
X7519571Y-13749190D01*
X7510048Y-13758714D01*
X7500524Y-13749190D01*
X7510048Y-13739667D01*
X7510048Y-13758714D01*
D11*
X5841000Y-14173000D02*
X5881000Y-14213000D01*
X5881000Y-14173000D02*
X5841000Y-14213000D01*
D10*
X6176714Y-14083476D02*
X6195762Y-14083476D01*
X6214809Y-14093000D01*
X6224333Y-14102524D01*
X6233857Y-14121571D01*
X6243381Y-14159667D01*
X6243381Y-14207286D01*
X6233857Y-14245381D01*
X6224333Y-14264428D01*
X6214809Y-14273952D01*
X6195762Y-14283476D01*
X6176714Y-14283476D01*
X6157667Y-14273952D01*
X6148143Y-14264428D01*
X6138619Y-14245381D01*
X6129095Y-14207286D01*
X6129095Y-14159667D01*
X6138619Y-14121571D01*
X6148143Y-14102524D01*
X6157667Y-14093000D01*
X6176714Y-14083476D01*
X6329095Y-14264428D02*
X6338619Y-14273952D01*
X6329095Y-14283476D01*
X6319571Y-14273952D01*
X6329095Y-14264428D01*
X6329095Y-14283476D01*
X6510048Y-14150143D02*
X6510048Y-14283476D01*
X6462428Y-14073952D02*
X6414809Y-14216809D01*
X6538619Y-14216809D01*
X6652905Y-14083476D02*
X6671952Y-14083476D01*
X6691000Y-14093000D01*
X6700524Y-14102524D01*
X6710048Y-14121571D01*
X6719571Y-14159667D01*
X6719571Y-14207286D01*
X6710048Y-14245381D01*
X6700524Y-14264428D01*
X6691000Y-14273952D01*
X6671952Y-14283476D01*
X6652905Y-14283476D01*
X6633857Y-14273952D01*
X6624333Y-14264428D01*
X6614809Y-14245381D01*
X6605286Y-14207286D01*
X6605286Y-14159667D01*
X6614809Y-14121571D01*
X6624333Y-14102524D01*
X6633857Y-14093000D01*
X6652905Y-14083476D01*
X6843381Y-14083476D02*
X6862428Y-14083476D01*
X6881476Y-14093000D01*
X6891000Y-14102524D01*
X6900524Y-14121571D01*
X6910048Y-14159667D01*
X6910048Y-14207286D01*
X6900524Y-14245381D01*
X6891000Y-14264428D01*
X6881476Y-14273952D01*
X6862428Y-14283476D01*
X6843381Y-14283476D01*
X6824333Y-14273952D01*
X6814809Y-14264428D01*
X6805286Y-14245381D01*
X6795762Y-14207286D01*
X6795762Y-14159667D01*
X6805286Y-14121571D01*
X6814809Y-14102524D01*
X6824333Y-14093000D01*
X6843381Y-14083476D01*
X6995762Y-14283476D02*
X6995762Y-14150143D01*
X6995762Y-14169190D02*
X7005286Y-14159667D01*
X7024333Y-14150143D01*
X7052905Y-14150143D01*
X7071952Y-14159667D01*
X7081476Y-14178714D01*
X7081476Y-14283476D01*
X7081476Y-14178714D02*
X7091000Y-14159667D01*
X7110048Y-14150143D01*
X7138619Y-14150143D01*
X7157667Y-14159667D01*
X7167190Y-14178714D01*
X7167190Y-14283476D01*
X7262428Y-14283476D02*
X7262428Y-14150143D01*
X7262428Y-14169190D02*
X7271952Y-14159667D01*
X7291000Y-14150143D01*
X7319571Y-14150143D01*
X7338619Y-14159667D01*
X7348143Y-14178714D01*
X7348143Y-14283476D01*
X7348143Y-14178714D02*
X7357667Y-14159667D01*
X7376714Y-14150143D01*
X7405286Y-14150143D01*
X7424333Y-14159667D01*
X7433857Y-14178714D01*
X7433857Y-14283476D01*
X7824333Y-14073952D02*
X7652905Y-14331095D01*
X8081476Y-14083476D02*
X8100524Y-14083476D01*
X8119571Y-14093000D01*
X8129095Y-14102524D01*
X8138619Y-14121571D01*
X8148143Y-14159667D01*
X8148143Y-14207286D01*
X8138619Y-14245381D01*
X8129095Y-14264428D01*
X8119571Y-14273952D01*
X8100524Y-14283476D01*
X8081476Y-14283476D01*
X8062428Y-14273952D01*
X8052905Y-14264428D01*
X8043381Y-14245381D01*
X8033857Y-14207286D01*
X8033857Y-14159667D01*
X8043381Y-14121571D01*
X8052905Y-14102524D01*
X8062428Y-14093000D01*
X8081476Y-14083476D01*
X8233857Y-14264428D02*
X8243381Y-14273952D01*
X8233857Y-14283476D01*
X8224333Y-14273952D01*
X8233857Y-14264428D01*
X8233857Y-14283476D01*
X8367190Y-14083476D02*
X8386238Y-14083476D01*
X8405286Y-14093000D01*
X8414810Y-14102524D01*
X8424333Y-14121571D01*
X8433857Y-14159667D01*
X8433857Y-14207286D01*
X8424333Y-14245381D01*
X8414810Y-14264428D01*
X8405286Y-14273952D01*
X8386238Y-14283476D01*
X8367190Y-14283476D01*
X8348143Y-14273952D01*
X8338619Y-14264428D01*
X8329095Y-14245381D01*
X8319571Y-14207286D01*
X8319571Y-14159667D01*
X8329095Y-14121571D01*
X8338619Y-14102524D01*
X8348143Y-14093000D01*
X8367190Y-14083476D01*
X8624333Y-14283476D02*
X8510048Y-14283476D01*
X8567190Y-14283476D02*
X8567190Y-14083476D01*
X8548143Y-14112048D01*
X8529095Y-14131095D01*
X8510048Y-14140619D01*
X8805286Y-14083476D02*
X8710048Y-14083476D01*
X8700524Y-14178714D01*
X8710048Y-14169190D01*
X8729095Y-14159667D01*
X8776714Y-14159667D01*
X8795762Y-14169190D01*
X8805286Y-14178714D01*
X8814810Y-14197762D01*
X8814810Y-14245381D01*
X8805286Y-14264428D01*
X8795762Y-14273952D01*
X8776714Y-14283476D01*
X8729095Y-14283476D01*
X8710048Y-14273952D01*
X8700524Y-14264428D01*
X8881476Y-14083476D02*
X9014810Y-14083476D01*
X8929095Y-14283476D01*
X9081476Y-14083476D02*
X9081476Y-14121571D01*
X9157667Y-14083476D02*
X9157667Y-14121571D01*
X9452905Y-14359667D02*
X9443381Y-14350143D01*
X9424333Y-14321571D01*
X9414810Y-14302524D01*
X9405286Y-14273952D01*
X9395762Y-14226333D01*
X9395762Y-14188238D01*
X9405286Y-14140619D01*
X9414810Y-14112048D01*
X9424333Y-14093000D01*
X9443381Y-14064428D01*
X9452905Y-14054905D01*
X9519571Y-14102524D02*
X9529095Y-14093000D01*
X9548143Y-14083476D01*
X9595762Y-14083476D01*
X9614810Y-14093000D01*
X9624333Y-14102524D01*
X9633857Y-14121571D01*
X9633857Y-14140619D01*
X9624333Y-14169190D01*
X9510048Y-14283476D01*
X9633857Y-14283476D01*
X9748143Y-14169190D02*
X9729095Y-14159667D01*
X9719571Y-14150143D01*
X9710048Y-14131095D01*
X9710048Y-14121571D01*
X9719571Y-14102524D01*
X9729095Y-14093000D01*
X9748143Y-14083476D01*
X9786238Y-14083476D01*
X9805286Y-14093000D01*
X9814810Y-14102524D01*
X9824333Y-14121571D01*
X9824333Y-14131095D01*
X9814810Y-14150143D01*
X9805286Y-14159667D01*
X9786238Y-14169190D01*
X9748143Y-14169190D01*
X9729095Y-14178714D01*
X9719571Y-14188238D01*
X9710048Y-14207286D01*
X9710048Y-14245381D01*
X9719571Y-14264428D01*
X9729095Y-14273952D01*
X9748143Y-14283476D01*
X9786238Y-14283476D01*
X9805286Y-14273952D01*
X9814810Y-14264428D01*
X9824333Y-14245381D01*
X9824333Y-14207286D01*
X9814810Y-14188238D01*
X9805286Y-14178714D01*
X9786238Y-14169190D01*
X10014810Y-14283476D02*
X9900524Y-14283476D01*
X9957667Y-14283476D02*
X9957667Y-14083476D01*
X9938619Y-14112048D01*
X9919571Y-14131095D01*
X9900524Y-14140619D01*
X10252905Y-14283476D02*
X10252905Y-14083476D01*
X10338619Y-14283476D02*
X10338619Y-14178714D01*
X10329095Y-14159667D01*
X10310048Y-14150143D01*
X10281476Y-14150143D01*
X10262429Y-14159667D01*
X10252905Y-14169190D01*
X10462429Y-14283476D02*
X10443381Y-14273952D01*
X10433857Y-14264428D01*
X10424333Y-14245381D01*
X10424333Y-14188238D01*
X10433857Y-14169190D01*
X10443381Y-14159667D01*
X10462429Y-14150143D01*
X10491000Y-14150143D01*
X10510048Y-14159667D01*
X10519571Y-14169190D01*
X10529095Y-14188238D01*
X10529095Y-14245381D01*
X10519571Y-14264428D01*
X10510048Y-14273952D01*
X10491000Y-14283476D01*
X10462429Y-14283476D01*
X10643381Y-14283476D02*
X10624333Y-14273952D01*
X10614810Y-14254905D01*
X10614810Y-14083476D01*
X10795762Y-14273952D02*
X10776714Y-14283476D01*
X10738619Y-14283476D01*
X10719571Y-14273952D01*
X10710048Y-14254905D01*
X10710048Y-14178714D01*
X10719571Y-14159667D01*
X10738619Y-14150143D01*
X10776714Y-14150143D01*
X10795762Y-14159667D01*
X10805286Y-14178714D01*
X10805286Y-14197762D01*
X10710048Y-14216809D01*
X10881476Y-14273952D02*
X10900524Y-14283476D01*
X10938619Y-14283476D01*
X10957667Y-14273952D01*
X10967190Y-14254905D01*
X10967190Y-14245381D01*
X10957667Y-14226333D01*
X10938619Y-14216809D01*
X10910048Y-14216809D01*
X10891000Y-14207286D01*
X10881476Y-14188238D01*
X10881476Y-14178714D01*
X10891000Y-14159667D01*
X10910048Y-14150143D01*
X10938619Y-14150143D01*
X10957667Y-14159667D01*
X11033857Y-14359667D02*
X11043381Y-14350143D01*
X11062429Y-14321571D01*
X11071952Y-14302524D01*
X11081476Y-14273952D01*
X11091000Y-14226333D01*
X11091000Y-14188238D01*
X11081476Y-14140619D01*
X11071952Y-14112048D01*
X11062429Y-14093000D01*
X11043381Y-14064428D01*
X11033857Y-14054905D01*
D12*
X5881000Y-14457000D02*
G75*
G03*
X5881000Y-14457000I-30000J0D01*
G01*
D10*
X6176714Y-14347476D02*
X6195762Y-14347476D01*
X6214809Y-14357000D01*
X6224333Y-14366524D01*
X6233857Y-14385571D01*
X6243381Y-14423667D01*
X6243381Y-14471286D01*
X6233857Y-14509381D01*
X6224333Y-14528428D01*
X6214809Y-14537952D01*
X6195762Y-14547476D01*
X6176714Y-14547476D01*
X6157667Y-14537952D01*
X6148143Y-14528428D01*
X6138619Y-14509381D01*
X6129095Y-14471286D01*
X6129095Y-14423667D01*
X6138619Y-14385571D01*
X6148143Y-14366524D01*
X6157667Y-14357000D01*
X6176714Y-14347476D01*
X6329095Y-14528428D02*
X6338619Y-14537952D01*
X6329095Y-14547476D01*
X6319571Y-14537952D01*
X6329095Y-14528428D01*
X6329095Y-14547476D01*
X6510048Y-14347476D02*
X6471952Y-14347476D01*
X6452905Y-14357000D01*
X6443381Y-14366524D01*
X6424333Y-14395095D01*
X6414809Y-14433190D01*
X6414809Y-14509381D01*
X6424333Y-14528428D01*
X6433857Y-14537952D01*
X6452905Y-14547476D01*
X6491000Y-14547476D01*
X6510048Y-14537952D01*
X6519571Y-14528428D01*
X6529095Y-14509381D01*
X6529095Y-14461762D01*
X6519571Y-14442714D01*
X6510048Y-14433190D01*
X6491000Y-14423667D01*
X6452905Y-14423667D01*
X6433857Y-14433190D01*
X6424333Y-14442714D01*
X6414809Y-14461762D01*
X6652905Y-14347476D02*
X6671952Y-14347476D01*
X6691000Y-14357000D01*
X6700524Y-14366524D01*
X6710048Y-14385571D01*
X6719571Y-14423667D01*
X6719571Y-14471286D01*
X6710048Y-14509381D01*
X6700524Y-14528428D01*
X6691000Y-14537952D01*
X6671952Y-14547476D01*
X6652905Y-14547476D01*
X6633857Y-14537952D01*
X6624333Y-14528428D01*
X6614809Y-14509381D01*
X6605286Y-14471286D01*
X6605286Y-14423667D01*
X6614809Y-14385571D01*
X6624333Y-14366524D01*
X6633857Y-14357000D01*
X6652905Y-14347476D01*
X6843381Y-14347476D02*
X6862428Y-14347476D01*
X6881476Y-14357000D01*
X6891000Y-14366524D01*
X6900524Y-14385571D01*
X6910048Y-14423667D01*
X6910048Y-14471286D01*
X6900524Y-14509381D01*
X6891000Y-14528428D01*
X6881476Y-14537952D01*
X6862428Y-14547476D01*
X6843381Y-14547476D01*
X6824333Y-14537952D01*
X6814809Y-14528428D01*
X6805286Y-14509381D01*
X6795762Y-14471286D01*
X6795762Y-14423667D01*
X6805286Y-14385571D01*
X6814809Y-14366524D01*
X6824333Y-14357000D01*
X6843381Y-14347476D01*
X6995762Y-14547476D02*
X6995762Y-14414143D01*
X6995762Y-14433190D02*
X7005286Y-14423667D01*
X7024333Y-14414143D01*
X7052905Y-14414143D01*
X7071952Y-14423667D01*
X7081476Y-14442714D01*
X7081476Y-14547476D01*
X7081476Y-14442714D02*
X7091000Y-14423667D01*
X7110048Y-14414143D01*
X7138619Y-14414143D01*
X7157667Y-14423667D01*
X7167190Y-14442714D01*
X7167190Y-14547476D01*
X7262428Y-14547476D02*
X7262428Y-14414143D01*
X7262428Y-14433190D02*
X7271952Y-14423667D01*
X7291000Y-14414143D01*
X7319571Y-14414143D01*
X7338619Y-14423667D01*
X7348143Y-14442714D01*
X7348143Y-14547476D01*
X7348143Y-14442714D02*
X7357667Y-14423667D01*
X7376714Y-14414143D01*
X7405286Y-14414143D01*
X7424333Y-14423667D01*
X7433857Y-14442714D01*
X7433857Y-14547476D01*
X7824333Y-14337952D02*
X7652905Y-14595095D01*
X8081476Y-14347476D02*
X8100524Y-14347476D01*
X8119571Y-14357000D01*
X8129095Y-14366524D01*
X8138619Y-14385571D01*
X8148143Y-14423667D01*
X8148143Y-14471286D01*
X8138619Y-14509381D01*
X8129095Y-14528428D01*
X8119571Y-14537952D01*
X8100524Y-14547476D01*
X8081476Y-14547476D01*
X8062428Y-14537952D01*
X8052905Y-14528428D01*
X8043381Y-14509381D01*
X8033857Y-14471286D01*
X8033857Y-14423667D01*
X8043381Y-14385571D01*
X8052905Y-14366524D01*
X8062428Y-14357000D01*
X8081476Y-14347476D01*
X8233857Y-14528428D02*
X8243381Y-14537952D01*
X8233857Y-14547476D01*
X8224333Y-14537952D01*
X8233857Y-14528428D01*
X8233857Y-14547476D01*
X8367190Y-14347476D02*
X8386238Y-14347476D01*
X8405286Y-14357000D01*
X8414810Y-14366524D01*
X8424333Y-14385571D01*
X8433857Y-14423667D01*
X8433857Y-14471286D01*
X8424333Y-14509381D01*
X8414810Y-14528428D01*
X8405286Y-14537952D01*
X8386238Y-14547476D01*
X8367190Y-14547476D01*
X8348143Y-14537952D01*
X8338619Y-14528428D01*
X8329095Y-14509381D01*
X8319571Y-14471286D01*
X8319571Y-14423667D01*
X8329095Y-14385571D01*
X8338619Y-14366524D01*
X8348143Y-14357000D01*
X8367190Y-14347476D01*
X8510048Y-14366524D02*
X8519571Y-14357000D01*
X8538619Y-14347476D01*
X8586238Y-14347476D01*
X8605286Y-14357000D01*
X8614810Y-14366524D01*
X8624333Y-14385571D01*
X8624333Y-14404619D01*
X8614810Y-14433190D01*
X8500524Y-14547476D01*
X8624333Y-14547476D01*
X8691000Y-14347476D02*
X8814810Y-14347476D01*
X8748143Y-14423667D01*
X8776714Y-14423667D01*
X8795762Y-14433190D01*
X8805286Y-14442714D01*
X8814810Y-14461762D01*
X8814810Y-14509381D01*
X8805286Y-14528428D01*
X8795762Y-14537952D01*
X8776714Y-14547476D01*
X8719571Y-14547476D01*
X8700524Y-14537952D01*
X8691000Y-14528428D01*
X8986238Y-14347476D02*
X8948143Y-14347476D01*
X8929095Y-14357000D01*
X8919571Y-14366524D01*
X8900524Y-14395095D01*
X8891000Y-14433190D01*
X8891000Y-14509381D01*
X8900524Y-14528428D01*
X8910048Y-14537952D01*
X8929095Y-14547476D01*
X8967190Y-14547476D01*
X8986238Y-14537952D01*
X8995762Y-14528428D01*
X9005286Y-14509381D01*
X9005286Y-14461762D01*
X8995762Y-14442714D01*
X8986238Y-14433190D01*
X8967190Y-14423667D01*
X8929095Y-14423667D01*
X8910048Y-14433190D01*
X8900524Y-14442714D01*
X8891000Y-14461762D01*
X9081476Y-14347476D02*
X9081476Y-14385571D01*
X9157667Y-14347476D02*
X9157667Y-14385571D01*
X9452905Y-14623667D02*
X9443381Y-14614143D01*
X9424333Y-14585571D01*
X9414810Y-14566524D01*
X9405286Y-14537952D01*
X9395762Y-14490333D01*
X9395762Y-14452238D01*
X9405286Y-14404619D01*
X9414810Y-14376048D01*
X9424333Y-14357000D01*
X9443381Y-14328428D01*
X9452905Y-14318905D01*
X9614810Y-14347476D02*
X9576714Y-14347476D01*
X9557667Y-14357000D01*
X9548143Y-14366524D01*
X9529095Y-14395095D01*
X9519571Y-14433190D01*
X9519571Y-14509381D01*
X9529095Y-14528428D01*
X9538619Y-14537952D01*
X9557667Y-14547476D01*
X9595762Y-14547476D01*
X9614810Y-14537952D01*
X9624333Y-14528428D01*
X9633857Y-14509381D01*
X9633857Y-14461762D01*
X9624333Y-14442714D01*
X9614810Y-14433190D01*
X9595762Y-14423667D01*
X9557667Y-14423667D01*
X9538619Y-14433190D01*
X9529095Y-14442714D01*
X9519571Y-14461762D01*
X9710048Y-14366524D02*
X9719571Y-14357000D01*
X9738619Y-14347476D01*
X9786238Y-14347476D01*
X9805286Y-14357000D01*
X9814810Y-14366524D01*
X9824333Y-14385571D01*
X9824333Y-14404619D01*
X9814810Y-14433190D01*
X9700524Y-14547476D01*
X9824333Y-14547476D01*
X10062429Y-14547476D02*
X10062429Y-14347476D01*
X10148143Y-14547476D02*
X10148143Y-14442714D01*
X10138619Y-14423667D01*
X10119571Y-14414143D01*
X10091000Y-14414143D01*
X10071952Y-14423667D01*
X10062429Y-14433190D01*
X10271952Y-14547476D02*
X10252905Y-14537952D01*
X10243381Y-14528428D01*
X10233857Y-14509381D01*
X10233857Y-14452238D01*
X10243381Y-14433190D01*
X10252905Y-14423667D01*
X10271952Y-14414143D01*
X10300524Y-14414143D01*
X10319571Y-14423667D01*
X10329095Y-14433190D01*
X10338619Y-14452238D01*
X10338619Y-14509381D01*
X10329095Y-14528428D01*
X10319571Y-14537952D01*
X10300524Y-14547476D01*
X10271952Y-14547476D01*
X10452905Y-14547476D02*
X10433857Y-14537952D01*
X10424333Y-14518905D01*
X10424333Y-14347476D01*
X10605286Y-14537952D02*
X10586238Y-14547476D01*
X10548143Y-14547476D01*
X10529095Y-14537952D01*
X10519571Y-14518905D01*
X10519571Y-14442714D01*
X10529095Y-14423667D01*
X10548143Y-14414143D01*
X10586238Y-14414143D01*
X10605286Y-14423667D01*
X10614810Y-14442714D01*
X10614810Y-14461762D01*
X10519571Y-14480809D01*
X10691000Y-14537952D02*
X10710048Y-14547476D01*
X10748143Y-14547476D01*
X10767190Y-14537952D01*
X10776714Y-14518905D01*
X10776714Y-14509381D01*
X10767190Y-14490333D01*
X10748143Y-14480809D01*
X10719571Y-14480809D01*
X10700524Y-14471286D01*
X10691000Y-14452238D01*
X10691000Y-14442714D01*
X10700524Y-14423667D01*
X10719571Y-14414143D01*
X10748143Y-14414143D01*
X10767190Y-14423667D01*
X10843381Y-14623667D02*
X10852905Y-14614143D01*
X10871952Y-14585571D01*
X10881476Y-14566524D01*
X10891000Y-14537952D01*
X10900524Y-14490333D01*
X10900524Y-14452238D01*
X10891000Y-14404619D01*
X10881476Y-14376048D01*
X10871952Y-14357000D01*
X10852905Y-14328428D01*
X10843381Y-14318905D01*
D13*
X5835000Y-14675000D02*
X5835000Y-14767000D01*
X5789000Y-14721000D02*
X5881000Y-14721000D01*
D10*
X6176714Y-14611476D02*
X6195762Y-14611476D01*
X6214809Y-14621000D01*
X6224333Y-14630524D01*
X6233857Y-14649571D01*
X6243381Y-14687667D01*
X6243381Y-14735286D01*
X6233857Y-14773381D01*
X6224333Y-14792428D01*
X6214809Y-14801952D01*
X6195762Y-14811476D01*
X6176714Y-14811476D01*
X6157667Y-14801952D01*
X6148143Y-14792428D01*
X6138619Y-14773381D01*
X6129095Y-14735286D01*
X6129095Y-14687667D01*
X6138619Y-14649571D01*
X6148143Y-14630524D01*
X6157667Y-14621000D01*
X6176714Y-14611476D01*
X6329095Y-14792428D02*
X6338619Y-14801952D01*
X6329095Y-14811476D01*
X6319571Y-14801952D01*
X6329095Y-14792428D01*
X6329095Y-14811476D01*
X6433857Y-14811476D02*
X6471952Y-14811476D01*
X6491000Y-14801952D01*
X6500524Y-14792428D01*
X6519571Y-14763857D01*
X6529095Y-14725762D01*
X6529095Y-14649571D01*
X6519571Y-14630524D01*
X6510048Y-14621000D01*
X6491000Y-14611476D01*
X6452905Y-14611476D01*
X6433857Y-14621000D01*
X6424333Y-14630524D01*
X6414809Y-14649571D01*
X6414809Y-14697190D01*
X6424333Y-14716238D01*
X6433857Y-14725762D01*
X6452905Y-14735286D01*
X6491000Y-14735286D01*
X6510048Y-14725762D01*
X6519571Y-14716238D01*
X6529095Y-14697190D01*
X6605286Y-14630524D02*
X6614809Y-14621000D01*
X6633857Y-14611476D01*
X6681476Y-14611476D01*
X6700524Y-14621000D01*
X6710048Y-14630524D01*
X6719571Y-14649571D01*
X6719571Y-14668619D01*
X6710048Y-14697190D01*
X6595762Y-14811476D01*
X6719571Y-14811476D01*
X6843381Y-14611476D02*
X6862428Y-14611476D01*
X6881476Y-14621000D01*
X6891000Y-14630524D01*
X6900524Y-14649571D01*
X6910048Y-14687667D01*
X6910048Y-14735286D01*
X6900524Y-14773381D01*
X6891000Y-14792428D01*
X6881476Y-14801952D01*
X6862428Y-14811476D01*
X6843381Y-14811476D01*
X6824333Y-14801952D01*
X6814809Y-14792428D01*
X6805286Y-14773381D01*
X6795762Y-14735286D01*
X6795762Y-14687667D01*
X6805286Y-14649571D01*
X6814809Y-14630524D01*
X6824333Y-14621000D01*
X6843381Y-14611476D01*
X6995762Y-14811476D02*
X6995762Y-14678143D01*
X6995762Y-14697190D02*
X7005286Y-14687667D01*
X7024333Y-14678143D01*
X7052905Y-14678143D01*
X7071952Y-14687667D01*
X7081476Y-14706714D01*
X7081476Y-14811476D01*
X7081476Y-14706714D02*
X7091000Y-14687667D01*
X7110048Y-14678143D01*
X7138619Y-14678143D01*
X7157667Y-14687667D01*
X7167190Y-14706714D01*
X7167190Y-14811476D01*
X7262428Y-14811476D02*
X7262428Y-14678143D01*
X7262428Y-14697190D02*
X7271952Y-14687667D01*
X7291000Y-14678143D01*
X7319571Y-14678143D01*
X7338619Y-14687667D01*
X7348143Y-14706714D01*
X7348143Y-14811476D01*
X7348143Y-14706714D02*
X7357667Y-14687667D01*
X7376714Y-14678143D01*
X7405286Y-14678143D01*
X7424333Y-14687667D01*
X7433857Y-14706714D01*
X7433857Y-14811476D01*
X7824333Y-14601952D02*
X7652905Y-14859095D01*
X8081476Y-14611476D02*
X8100524Y-14611476D01*
X8119571Y-14621000D01*
X8129095Y-14630524D01*
X8138619Y-14649571D01*
X8148143Y-14687667D01*
X8148143Y-14735286D01*
X8138619Y-14773381D01*
X8129095Y-14792428D01*
X8119571Y-14801952D01*
X8100524Y-14811476D01*
X8081476Y-14811476D01*
X8062428Y-14801952D01*
X8052905Y-14792428D01*
X8043381Y-14773381D01*
X8033857Y-14735286D01*
X8033857Y-14687667D01*
X8043381Y-14649571D01*
X8052905Y-14630524D01*
X8062428Y-14621000D01*
X8081476Y-14611476D01*
X8233857Y-14792428D02*
X8243381Y-14801952D01*
X8233857Y-14811476D01*
X8224333Y-14801952D01*
X8233857Y-14792428D01*
X8233857Y-14811476D01*
X8367190Y-14611476D02*
X8386238Y-14611476D01*
X8405286Y-14621000D01*
X8414810Y-14630524D01*
X8424333Y-14649571D01*
X8433857Y-14687667D01*
X8433857Y-14735286D01*
X8424333Y-14773381D01*
X8414810Y-14792428D01*
X8405286Y-14801952D01*
X8386238Y-14811476D01*
X8367190Y-14811476D01*
X8348143Y-14801952D01*
X8338619Y-14792428D01*
X8329095Y-14773381D01*
X8319571Y-14735286D01*
X8319571Y-14687667D01*
X8329095Y-14649571D01*
X8338619Y-14630524D01*
X8348143Y-14621000D01*
X8367190Y-14611476D01*
X8500524Y-14611476D02*
X8624333Y-14611476D01*
X8557667Y-14687667D01*
X8586238Y-14687667D01*
X8605286Y-14697190D01*
X8614810Y-14706714D01*
X8624333Y-14725762D01*
X8624333Y-14773381D01*
X8614810Y-14792428D01*
X8605286Y-14801952D01*
X8586238Y-14811476D01*
X8529095Y-14811476D01*
X8510048Y-14801952D01*
X8500524Y-14792428D01*
X8795762Y-14611476D02*
X8757667Y-14611476D01*
X8738619Y-14621000D01*
X8729095Y-14630524D01*
X8710048Y-14659095D01*
X8700524Y-14697190D01*
X8700524Y-14773381D01*
X8710048Y-14792428D01*
X8719571Y-14801952D01*
X8738619Y-14811476D01*
X8776714Y-14811476D01*
X8795762Y-14801952D01*
X8805286Y-14792428D01*
X8814810Y-14773381D01*
X8814810Y-14725762D01*
X8805286Y-14706714D01*
X8795762Y-14697190D01*
X8776714Y-14687667D01*
X8738619Y-14687667D01*
X8719571Y-14697190D01*
X8710048Y-14706714D01*
X8700524Y-14725762D01*
X8891000Y-14630524D02*
X8900524Y-14621000D01*
X8919571Y-14611476D01*
X8967190Y-14611476D01*
X8986238Y-14621000D01*
X8995762Y-14630524D01*
X9005286Y-14649571D01*
X9005286Y-14668619D01*
X8995762Y-14697190D01*
X8881476Y-14811476D01*
X9005286Y-14811476D01*
X9081476Y-14611476D02*
X9081476Y-14649571D01*
X9157667Y-14611476D02*
X9157667Y-14649571D01*
X9452905Y-14887667D02*
X9443381Y-14878143D01*
X9424333Y-14849571D01*
X9414810Y-14830524D01*
X9405286Y-14801952D01*
X9395762Y-14754333D01*
X9395762Y-14716238D01*
X9405286Y-14668619D01*
X9414810Y-14640048D01*
X9424333Y-14621000D01*
X9443381Y-14592428D01*
X9452905Y-14582905D01*
X9557667Y-14697190D02*
X9538619Y-14687667D01*
X9529095Y-14678143D01*
X9519571Y-14659095D01*
X9519571Y-14649571D01*
X9529095Y-14630524D01*
X9538619Y-14621000D01*
X9557667Y-14611476D01*
X9595762Y-14611476D01*
X9614810Y-14621000D01*
X9624333Y-14630524D01*
X9633857Y-14649571D01*
X9633857Y-14659095D01*
X9624333Y-14678143D01*
X9614810Y-14687667D01*
X9595762Y-14697190D01*
X9557667Y-14697190D01*
X9538619Y-14706714D01*
X9529095Y-14716238D01*
X9519571Y-14735286D01*
X9519571Y-14773381D01*
X9529095Y-14792428D01*
X9538619Y-14801952D01*
X9557667Y-14811476D01*
X9595762Y-14811476D01*
X9614810Y-14801952D01*
X9624333Y-14792428D01*
X9633857Y-14773381D01*
X9633857Y-14735286D01*
X9624333Y-14716238D01*
X9614810Y-14706714D01*
X9595762Y-14697190D01*
X9871952Y-14811476D02*
X9871952Y-14611476D01*
X9957667Y-14811476D02*
X9957667Y-14706714D01*
X9948143Y-14687667D01*
X9929095Y-14678143D01*
X9900524Y-14678143D01*
X9881476Y-14687667D01*
X9871952Y-14697190D01*
X10081476Y-14811476D02*
X10062429Y-14801952D01*
X10052905Y-14792428D01*
X10043381Y-14773381D01*
X10043381Y-14716238D01*
X10052905Y-14697190D01*
X10062429Y-14687667D01*
X10081476Y-14678143D01*
X10110048Y-14678143D01*
X10129095Y-14687667D01*
X10138619Y-14697190D01*
X10148143Y-14716238D01*
X10148143Y-14773381D01*
X10138619Y-14792428D01*
X10129095Y-14801952D01*
X10110048Y-14811476D01*
X10081476Y-14811476D01*
X10262429Y-14811476D02*
X10243381Y-14801952D01*
X10233857Y-14782905D01*
X10233857Y-14611476D01*
X10414810Y-14801952D02*
X10395762Y-14811476D01*
X10357667Y-14811476D01*
X10338619Y-14801952D01*
X10329095Y-14782905D01*
X10329095Y-14706714D01*
X10338619Y-14687667D01*
X10357667Y-14678143D01*
X10395762Y-14678143D01*
X10414810Y-14687667D01*
X10424333Y-14706714D01*
X10424333Y-14725762D01*
X10329095Y-14744809D01*
X10500524Y-14801952D02*
X10519571Y-14811476D01*
X10557667Y-14811476D01*
X10576714Y-14801952D01*
X10586238Y-14782905D01*
X10586238Y-14773381D01*
X10576714Y-14754333D01*
X10557667Y-14744809D01*
X10529095Y-14744809D01*
X10510048Y-14735286D01*
X10500524Y-14716238D01*
X10500524Y-14706714D01*
X10510048Y-14687667D01*
X10529095Y-14678143D01*
X10557667Y-14678143D01*
X10576714Y-14687667D01*
X10652905Y-14887667D02*
X10662429Y-14878143D01*
X10681476Y-14849571D01*
X10691000Y-14830524D01*
X10700524Y-14801952D01*
X10710048Y-14754333D01*
X10710048Y-14716238D01*
X10700524Y-14668619D01*
X10691000Y-14640048D01*
X10681476Y-14621000D01*
X10662429Y-14592428D01*
X10652905Y-14582905D01*
D14*
X5866941Y-15018941D02*
X5866941Y-14951058D01*
X5799058Y-14951058D01*
X5799058Y-15018941D01*
X5866941Y-15018941D01*
D10*
X6176714Y-14875476D02*
X6195762Y-14875476D01*
X6214809Y-14885000D01*
X6224333Y-14894524D01*
X6233857Y-14913571D01*
X6243381Y-14951667D01*
X6243381Y-14999286D01*
X6233857Y-15037381D01*
X6224333Y-15056428D01*
X6214809Y-15065952D01*
X6195762Y-15075476D01*
X6176714Y-15075476D01*
X6157667Y-15065952D01*
X6148143Y-15056428D01*
X6138619Y-15037381D01*
X6129095Y-14999286D01*
X6129095Y-14951667D01*
X6138619Y-14913571D01*
X6148143Y-14894524D01*
X6157667Y-14885000D01*
X6176714Y-14875476D01*
X6329095Y-15056428D02*
X6338619Y-15065952D01*
X6329095Y-15075476D01*
X6319571Y-15065952D01*
X6329095Y-15056428D01*
X6329095Y-15075476D01*
X6433857Y-15075476D02*
X6471952Y-15075476D01*
X6491000Y-15065952D01*
X6500524Y-15056428D01*
X6519571Y-15027857D01*
X6529095Y-14989762D01*
X6529095Y-14913571D01*
X6519571Y-14894524D01*
X6510048Y-14885000D01*
X6491000Y-14875476D01*
X6452905Y-14875476D01*
X6433857Y-14885000D01*
X6424333Y-14894524D01*
X6414809Y-14913571D01*
X6414809Y-14961190D01*
X6424333Y-14980238D01*
X6433857Y-14989762D01*
X6452905Y-14999286D01*
X6491000Y-14999286D01*
X6510048Y-14989762D01*
X6519571Y-14980238D01*
X6529095Y-14961190D01*
X6700524Y-14875476D02*
X6662428Y-14875476D01*
X6643381Y-14885000D01*
X6633857Y-14894524D01*
X6614809Y-14923095D01*
X6605286Y-14961190D01*
X6605286Y-15037381D01*
X6614809Y-15056428D01*
X6624333Y-15065952D01*
X6643381Y-15075476D01*
X6681476Y-15075476D01*
X6700524Y-15065952D01*
X6710048Y-15056428D01*
X6719571Y-15037381D01*
X6719571Y-14989762D01*
X6710048Y-14970714D01*
X6700524Y-14961190D01*
X6681476Y-14951667D01*
X6643381Y-14951667D01*
X6624333Y-14961190D01*
X6614809Y-14970714D01*
X6605286Y-14989762D01*
X6843381Y-14875476D02*
X6862428Y-14875476D01*
X6881476Y-14885000D01*
X6891000Y-14894524D01*
X6900524Y-14913571D01*
X6910048Y-14951667D01*
X6910048Y-14999286D01*
X6900524Y-15037381D01*
X6891000Y-15056428D01*
X6881476Y-15065952D01*
X6862428Y-15075476D01*
X6843381Y-15075476D01*
X6824333Y-15065952D01*
X6814809Y-15056428D01*
X6805286Y-15037381D01*
X6795762Y-14999286D01*
X6795762Y-14951667D01*
X6805286Y-14913571D01*
X6814809Y-14894524D01*
X6824333Y-14885000D01*
X6843381Y-14875476D01*
X6995762Y-15075476D02*
X6995762Y-14942143D01*
X6995762Y-14961190D02*
X7005286Y-14951667D01*
X7024333Y-14942143D01*
X7052905Y-14942143D01*
X7071952Y-14951667D01*
X7081476Y-14970714D01*
X7081476Y-15075476D01*
X7081476Y-14970714D02*
X7091000Y-14951667D01*
X7110048Y-14942143D01*
X7138619Y-14942143D01*
X7157667Y-14951667D01*
X7167190Y-14970714D01*
X7167190Y-15075476D01*
X7262428Y-15075476D02*
X7262428Y-14942143D01*
X7262428Y-14961190D02*
X7271952Y-14951667D01*
X7291000Y-14942143D01*
X7319571Y-14942143D01*
X7338619Y-14951667D01*
X7348143Y-14970714D01*
X7348143Y-15075476D01*
X7348143Y-14970714D02*
X7357667Y-14951667D01*
X7376714Y-14942143D01*
X7405286Y-14942143D01*
X7424333Y-14951667D01*
X7433857Y-14970714D01*
X7433857Y-15075476D01*
X7824333Y-14865952D02*
X7652905Y-15123095D01*
X8081476Y-14875476D02*
X8100524Y-14875476D01*
X8119571Y-14885000D01*
X8129095Y-14894524D01*
X8138619Y-14913571D01*
X8148143Y-14951667D01*
X8148143Y-14999286D01*
X8138619Y-15037381D01*
X8129095Y-15056428D01*
X8119571Y-15065952D01*
X8100524Y-15075476D01*
X8081476Y-15075476D01*
X8062428Y-15065952D01*
X8052905Y-15056428D01*
X8043381Y-15037381D01*
X8033857Y-14999286D01*
X8033857Y-14951667D01*
X8043381Y-14913571D01*
X8052905Y-14894524D01*
X8062428Y-14885000D01*
X8081476Y-14875476D01*
X8233857Y-15056428D02*
X8243381Y-15065952D01*
X8233857Y-15075476D01*
X8224333Y-15065952D01*
X8233857Y-15056428D01*
X8233857Y-15075476D01*
X8367190Y-14875476D02*
X8386238Y-14875476D01*
X8405286Y-14885000D01*
X8414810Y-14894524D01*
X8424333Y-14913571D01*
X8433857Y-14951667D01*
X8433857Y-14999286D01*
X8424333Y-15037381D01*
X8414810Y-15056428D01*
X8405286Y-15065952D01*
X8386238Y-15075476D01*
X8367190Y-15075476D01*
X8348143Y-15065952D01*
X8338619Y-15056428D01*
X8329095Y-15037381D01*
X8319571Y-14999286D01*
X8319571Y-14951667D01*
X8329095Y-14913571D01*
X8338619Y-14894524D01*
X8348143Y-14885000D01*
X8367190Y-14875476D01*
X8500524Y-14875476D02*
X8624333Y-14875476D01*
X8557667Y-14951667D01*
X8586238Y-14951667D01*
X8605286Y-14961190D01*
X8614810Y-14970714D01*
X8624333Y-14989762D01*
X8624333Y-15037381D01*
X8614810Y-15056428D01*
X8605286Y-15065952D01*
X8586238Y-15075476D01*
X8529095Y-15075476D01*
X8510048Y-15065952D01*
X8500524Y-15056428D01*
X8691000Y-14875476D02*
X8824333Y-14875476D01*
X8738619Y-15075476D01*
X8929095Y-14961190D02*
X8910048Y-14951667D01*
X8900524Y-14942143D01*
X8891000Y-14923095D01*
X8891000Y-14913571D01*
X8900524Y-14894524D01*
X8910048Y-14885000D01*
X8929095Y-14875476D01*
X8967190Y-14875476D01*
X8986238Y-14885000D01*
X8995762Y-14894524D01*
X9005286Y-14913571D01*
X9005286Y-14923095D01*
X8995762Y-14942143D01*
X8986238Y-14951667D01*
X8967190Y-14961190D01*
X8929095Y-14961190D01*
X8910048Y-14970714D01*
X8900524Y-14980238D01*
X8891000Y-14999286D01*
X8891000Y-15037381D01*
X8900524Y-15056428D01*
X8910048Y-15065952D01*
X8929095Y-15075476D01*
X8967190Y-15075476D01*
X8986238Y-15065952D01*
X8995762Y-15056428D01*
X9005286Y-15037381D01*
X9005286Y-14999286D01*
X8995762Y-14980238D01*
X8986238Y-14970714D01*
X8967190Y-14961190D01*
X9081476Y-14875476D02*
X9081476Y-14913571D01*
X9157667Y-14875476D02*
X9157667Y-14913571D01*
X9452905Y-15151667D02*
X9443381Y-15142143D01*
X9424333Y-15113571D01*
X9414810Y-15094524D01*
X9405286Y-15065952D01*
X9395762Y-15018333D01*
X9395762Y-14980238D01*
X9405286Y-14932619D01*
X9414810Y-14904048D01*
X9424333Y-14885000D01*
X9443381Y-14856428D01*
X9452905Y-14846905D01*
X9557667Y-14961190D02*
X9538619Y-14951667D01*
X9529095Y-14942143D01*
X9519571Y-14923095D01*
X9519571Y-14913571D01*
X9529095Y-14894524D01*
X9538619Y-14885000D01*
X9557667Y-14875476D01*
X9595762Y-14875476D01*
X9614810Y-14885000D01*
X9624333Y-14894524D01*
X9633857Y-14913571D01*
X9633857Y-14923095D01*
X9624333Y-14942143D01*
X9614810Y-14951667D01*
X9595762Y-14961190D01*
X9557667Y-14961190D01*
X9538619Y-14970714D01*
X9529095Y-14980238D01*
X9519571Y-14999286D01*
X9519571Y-15037381D01*
X9529095Y-15056428D01*
X9538619Y-15065952D01*
X9557667Y-15075476D01*
X9595762Y-15075476D01*
X9614810Y-15065952D01*
X9624333Y-15056428D01*
X9633857Y-15037381D01*
X9633857Y-14999286D01*
X9624333Y-14980238D01*
X9614810Y-14970714D01*
X9595762Y-14961190D01*
X9871952Y-15075476D02*
X9871952Y-14875476D01*
X9957667Y-15075476D02*
X9957667Y-14970714D01*
X9948143Y-14951667D01*
X9929095Y-14942143D01*
X9900524Y-14942143D01*
X9881476Y-14951667D01*
X9871952Y-14961190D01*
X10081476Y-15075476D02*
X10062429Y-15065952D01*
X10052905Y-15056428D01*
X10043381Y-15037381D01*
X10043381Y-14980238D01*
X10052905Y-14961190D01*
X10062429Y-14951667D01*
X10081476Y-14942143D01*
X10110048Y-14942143D01*
X10129095Y-14951667D01*
X10138619Y-14961190D01*
X10148143Y-14980238D01*
X10148143Y-15037381D01*
X10138619Y-15056428D01*
X10129095Y-15065952D01*
X10110048Y-15075476D01*
X10081476Y-15075476D01*
X10262429Y-15075476D02*
X10243381Y-15065952D01*
X10233857Y-15046905D01*
X10233857Y-14875476D01*
X10414810Y-15065952D02*
X10395762Y-15075476D01*
X10357667Y-15075476D01*
X10338619Y-15065952D01*
X10329095Y-15046905D01*
X10329095Y-14970714D01*
X10338619Y-14951667D01*
X10357667Y-14942143D01*
X10395762Y-14942143D01*
X10414810Y-14951667D01*
X10424333Y-14970714D01*
X10424333Y-14989762D01*
X10329095Y-15008809D01*
X10500524Y-15065952D02*
X10519571Y-15075476D01*
X10557667Y-15075476D01*
X10576714Y-15065952D01*
X10586238Y-15046905D01*
X10586238Y-15037381D01*
X10576714Y-15018333D01*
X10557667Y-15008809D01*
X10529095Y-15008809D01*
X10510048Y-14999286D01*
X10500524Y-14980238D01*
X10500524Y-14970714D01*
X10510048Y-14951667D01*
X10529095Y-14942143D01*
X10557667Y-14942143D01*
X10576714Y-14951667D01*
X10652905Y-15151667D02*
X10662429Y-15142143D01*
X10681476Y-15113571D01*
X10691000Y-15094524D01*
X10700524Y-15065952D01*
X10710048Y-15018333D01*
X10710048Y-14980238D01*
X10700524Y-14932619D01*
X10691000Y-14904048D01*
X10681476Y-14885000D01*
X10662429Y-14856428D01*
X10652905Y-14846905D01*
D15*
X5831000Y-15299000D02*
X5881000Y-15249000D01*
X5831000Y-15199000D01*
X5781000Y-15249000D01*
X5831000Y-15299000D01*
D10*
X6243381Y-15339476D02*
X6129095Y-15339476D01*
X6186238Y-15339476D02*
X6186238Y-15139476D01*
X6167190Y-15168048D01*
X6148143Y-15187095D01*
X6129095Y-15196619D01*
X6329095Y-15320428D02*
X6338619Y-15329952D01*
X6329095Y-15339476D01*
X6319571Y-15329952D01*
X6329095Y-15320428D01*
X6329095Y-15339476D01*
X6462428Y-15139476D02*
X6481476Y-15139476D01*
X6500524Y-15149000D01*
X6510048Y-15158524D01*
X6519571Y-15177571D01*
X6529095Y-15215667D01*
X6529095Y-15263286D01*
X6519571Y-15301381D01*
X6510048Y-15320428D01*
X6500524Y-15329952D01*
X6481476Y-15339476D01*
X6462428Y-15339476D01*
X6443381Y-15329952D01*
X6433857Y-15320428D01*
X6424333Y-15301381D01*
X6414809Y-15263286D01*
X6414809Y-15215667D01*
X6424333Y-15177571D01*
X6433857Y-15158524D01*
X6443381Y-15149000D01*
X6462428Y-15139476D01*
X6652905Y-15139476D02*
X6671952Y-15139476D01*
X6691000Y-15149000D01*
X6700524Y-15158524D01*
X6710048Y-15177571D01*
X6719571Y-15215667D01*
X6719571Y-15263286D01*
X6710048Y-15301381D01*
X6700524Y-15320428D01*
X6691000Y-15329952D01*
X6671952Y-15339476D01*
X6652905Y-15339476D01*
X6633857Y-15329952D01*
X6624333Y-15320428D01*
X6614809Y-15301381D01*
X6605286Y-15263286D01*
X6605286Y-15215667D01*
X6614809Y-15177571D01*
X6624333Y-15158524D01*
X6633857Y-15149000D01*
X6652905Y-15139476D01*
X6843381Y-15139476D02*
X6862428Y-15139476D01*
X6881476Y-15149000D01*
X6891000Y-15158524D01*
X6900524Y-15177571D01*
X6910048Y-15215667D01*
X6910048Y-15263286D01*
X6900524Y-15301381D01*
X6891000Y-15320428D01*
X6881476Y-15329952D01*
X6862428Y-15339476D01*
X6843381Y-15339476D01*
X6824333Y-15329952D01*
X6814809Y-15320428D01*
X6805286Y-15301381D01*
X6795762Y-15263286D01*
X6795762Y-15215667D01*
X6805286Y-15177571D01*
X6814809Y-15158524D01*
X6824333Y-15149000D01*
X6843381Y-15139476D01*
X6995762Y-15339476D02*
X6995762Y-15206143D01*
X6995762Y-15225190D02*
X7005286Y-15215667D01*
X7024333Y-15206143D01*
X7052905Y-15206143D01*
X7071952Y-15215667D01*
X7081476Y-15234714D01*
X7081476Y-15339476D01*
X7081476Y-15234714D02*
X7091000Y-15215667D01*
X7110048Y-15206143D01*
X7138619Y-15206143D01*
X7157667Y-15215667D01*
X7167190Y-15234714D01*
X7167190Y-15339476D01*
X7262428Y-15339476D02*
X7262428Y-15206143D01*
X7262428Y-15225190D02*
X7271952Y-15215667D01*
X7291000Y-15206143D01*
X7319571Y-15206143D01*
X7338619Y-15215667D01*
X7348143Y-15234714D01*
X7348143Y-15339476D01*
X7348143Y-15234714D02*
X7357667Y-15215667D01*
X7376714Y-15206143D01*
X7405286Y-15206143D01*
X7424333Y-15215667D01*
X7433857Y-15234714D01*
X7433857Y-15339476D01*
X7824333Y-15129952D02*
X7652905Y-15387095D01*
X8081476Y-15139476D02*
X8100524Y-15139476D01*
X8119571Y-15149000D01*
X8129095Y-15158524D01*
X8138619Y-15177571D01*
X8148143Y-15215667D01*
X8148143Y-15263286D01*
X8138619Y-15301381D01*
X8129095Y-15320428D01*
X8119571Y-15329952D01*
X8100524Y-15339476D01*
X8081476Y-15339476D01*
X8062428Y-15329952D01*
X8052905Y-15320428D01*
X8043381Y-15301381D01*
X8033857Y-15263286D01*
X8033857Y-15215667D01*
X8043381Y-15177571D01*
X8052905Y-15158524D01*
X8062428Y-15149000D01*
X8081476Y-15139476D01*
X8233857Y-15320428D02*
X8243381Y-15329952D01*
X8233857Y-15339476D01*
X8224333Y-15329952D01*
X8233857Y-15320428D01*
X8233857Y-15339476D01*
X8367190Y-15139476D02*
X8386238Y-15139476D01*
X8405286Y-15149000D01*
X8414810Y-15158524D01*
X8424333Y-15177571D01*
X8433857Y-15215667D01*
X8433857Y-15263286D01*
X8424333Y-15301381D01*
X8414810Y-15320428D01*
X8405286Y-15329952D01*
X8386238Y-15339476D01*
X8367190Y-15339476D01*
X8348143Y-15329952D01*
X8338619Y-15320428D01*
X8329095Y-15301381D01*
X8319571Y-15263286D01*
X8319571Y-15215667D01*
X8329095Y-15177571D01*
X8338619Y-15158524D01*
X8348143Y-15149000D01*
X8367190Y-15139476D01*
X8500524Y-15139476D02*
X8624333Y-15139476D01*
X8557667Y-15215667D01*
X8586238Y-15215667D01*
X8605286Y-15225190D01*
X8614810Y-15234714D01*
X8624333Y-15253762D01*
X8624333Y-15301381D01*
X8614810Y-15320428D01*
X8605286Y-15329952D01*
X8586238Y-15339476D01*
X8529095Y-15339476D01*
X8510048Y-15329952D01*
X8500524Y-15320428D01*
X8719571Y-15339476D02*
X8757667Y-15339476D01*
X8776714Y-15329952D01*
X8786238Y-15320428D01*
X8805286Y-15291857D01*
X8814810Y-15253762D01*
X8814810Y-15177571D01*
X8805286Y-15158524D01*
X8795762Y-15149000D01*
X8776714Y-15139476D01*
X8738619Y-15139476D01*
X8719571Y-15149000D01*
X8710048Y-15158524D01*
X8700524Y-15177571D01*
X8700524Y-15225190D01*
X8710048Y-15244238D01*
X8719571Y-15253762D01*
X8738619Y-15263286D01*
X8776714Y-15263286D01*
X8795762Y-15253762D01*
X8805286Y-15244238D01*
X8814810Y-15225190D01*
X8986238Y-15206143D02*
X8986238Y-15339476D01*
X8938619Y-15129952D02*
X8891000Y-15272809D01*
X9014810Y-15272809D01*
X9081476Y-15139476D02*
X9081476Y-15177571D01*
X9157667Y-15139476D02*
X9157667Y-15177571D01*
X9452905Y-15415667D02*
X9443381Y-15406143D01*
X9424333Y-15377571D01*
X9414810Y-15358524D01*
X9405286Y-15329952D01*
X9395762Y-15282333D01*
X9395762Y-15244238D01*
X9405286Y-15196619D01*
X9414810Y-15168048D01*
X9424333Y-15149000D01*
X9443381Y-15120428D01*
X9452905Y-15110905D01*
X9624333Y-15139476D02*
X9529095Y-15139476D01*
X9519571Y-15234714D01*
X9529095Y-15225190D01*
X9548143Y-15215667D01*
X9595762Y-15215667D01*
X9614810Y-15225190D01*
X9624333Y-15234714D01*
X9633857Y-15253762D01*
X9633857Y-15301381D01*
X9624333Y-15320428D01*
X9614810Y-15329952D01*
X9595762Y-15339476D01*
X9548143Y-15339476D01*
X9529095Y-15329952D01*
X9519571Y-15320428D01*
X9871952Y-15339476D02*
X9871952Y-15139476D01*
X9957667Y-15339476D02*
X9957667Y-15234714D01*
X9948143Y-15215667D01*
X9929095Y-15206143D01*
X9900524Y-15206143D01*
X9881476Y-15215667D01*
X9871952Y-15225190D01*
X10081476Y-15339476D02*
X10062429Y-15329952D01*
X10052905Y-15320428D01*
X10043381Y-15301381D01*
X10043381Y-15244238D01*
X10052905Y-15225190D01*
X10062429Y-15215667D01*
X10081476Y-15206143D01*
X10110048Y-15206143D01*
X10129095Y-15215667D01*
X10138619Y-15225190D01*
X10148143Y-15244238D01*
X10148143Y-15301381D01*
X10138619Y-15320428D01*
X10129095Y-15329952D01*
X10110048Y-15339476D01*
X10081476Y-15339476D01*
X10262429Y-15339476D02*
X10243381Y-15329952D01*
X10233857Y-15310905D01*
X10233857Y-15139476D01*
X10414810Y-15329952D02*
X10395762Y-15339476D01*
X10357667Y-15339476D01*
X10338619Y-15329952D01*
X10329095Y-15310905D01*
X10329095Y-15234714D01*
X10338619Y-15215667D01*
X10357667Y-15206143D01*
X10395762Y-15206143D01*
X10414810Y-15215667D01*
X10424333Y-15234714D01*
X10424333Y-15253762D01*
X10329095Y-15272809D01*
X10500524Y-15329952D02*
X10519571Y-15339476D01*
X10557667Y-15339476D01*
X10576714Y-15329952D01*
X10586238Y-15310905D01*
X10586238Y-15301381D01*
X10576714Y-15282333D01*
X10557667Y-15272809D01*
X10529095Y-15272809D01*
X10510048Y-15263286D01*
X10500524Y-15244238D01*
X10500524Y-15234714D01*
X10510048Y-15215667D01*
X10529095Y-15206143D01*
X10557667Y-15206143D01*
X10576714Y-15215667D01*
X10824333Y-15263286D02*
X10976714Y-15263286D01*
X10900524Y-15339476D02*
X10900524Y-15187095D01*
X11205286Y-15139476D02*
X11329095Y-15139476D01*
X11262428Y-15215667D01*
X11291000Y-15215667D01*
X11310048Y-15225190D01*
X11319571Y-15234714D01*
X11329095Y-15253762D01*
X11329095Y-15301381D01*
X11319571Y-15320428D01*
X11310048Y-15329952D01*
X11291000Y-15339476D01*
X11233857Y-15339476D01*
X11214809Y-15329952D01*
X11205286Y-15320428D01*
X11557667Y-15329952D02*
X11576714Y-15339476D01*
X11614809Y-15339476D01*
X11633857Y-15329952D01*
X11643381Y-15310905D01*
X11643381Y-15301381D01*
X11633857Y-15282333D01*
X11614809Y-15272809D01*
X11586238Y-15272809D01*
X11567190Y-15263286D01*
X11557667Y-15244238D01*
X11557667Y-15234714D01*
X11567190Y-15215667D01*
X11586238Y-15206143D01*
X11614809Y-15206143D01*
X11633857Y-15215667D01*
X11757667Y-15339476D02*
X11738619Y-15329952D01*
X11729095Y-15310905D01*
X11729095Y-15139476D01*
X11862428Y-15339476D02*
X11843381Y-15329952D01*
X11833857Y-15320428D01*
X11824333Y-15301381D01*
X11824333Y-15244238D01*
X11833857Y-15225190D01*
X11843381Y-15215667D01*
X11862428Y-15206143D01*
X11891000Y-15206143D01*
X11910048Y-15215667D01*
X11919571Y-15225190D01*
X11929095Y-15244238D01*
X11929095Y-15301381D01*
X11919571Y-15320428D01*
X11910048Y-15329952D01*
X11891000Y-15339476D01*
X11862428Y-15339476D01*
X11986238Y-15206143D02*
X12062428Y-15206143D01*
X12014809Y-15139476D02*
X12014809Y-15310905D01*
X12024333Y-15329952D01*
X12043381Y-15339476D01*
X12062428Y-15339476D01*
X12119571Y-15329952D02*
X12138619Y-15339476D01*
X12176714Y-15339476D01*
X12195762Y-15329952D01*
X12205286Y-15310905D01*
X12205286Y-15301381D01*
X12195762Y-15282333D01*
X12176714Y-15272809D01*
X12148143Y-15272809D01*
X12129095Y-15263286D01*
X12119571Y-15244238D01*
X12119571Y-15234714D01*
X12129095Y-15215667D01*
X12148143Y-15206143D01*
X12176714Y-15206143D01*
X12195762Y-15215667D01*
X12271952Y-15415667D02*
X12281476Y-15406143D01*
X12300524Y-15377571D01*
X12310048Y-15358524D01*
X12319571Y-15329952D01*
X12329095Y-15282333D01*
X12329095Y-15244238D01*
X12319571Y-15196619D01*
X12310048Y-15168048D01*
X12300524Y-15149000D01*
X12281476Y-15120428D01*
X12271952Y-15110905D01*
D16*
X5746000Y-15445500D02*
X5881000Y-15580500D01*
X5881000Y-15445500D02*
X5746000Y-15580500D01*
X5881000Y-15513000D02*
G75*
G03*
X5881000Y-15513000I-67500J0D01*
G01*
D10*
X6243381Y-15603476D02*
X6129095Y-15603476D01*
X6186238Y-15603476D02*
X6186238Y-15403476D01*
X6167190Y-15432048D01*
X6148143Y-15451095D01*
X6129095Y-15460619D01*
X6329095Y-15584428D02*
X6338619Y-15593952D01*
X6329095Y-15603476D01*
X6319571Y-15593952D01*
X6329095Y-15584428D01*
X6329095Y-15603476D01*
X6405286Y-15403476D02*
X6529095Y-15403476D01*
X6462428Y-15479667D01*
X6491000Y-15479667D01*
X6510048Y-15489190D01*
X6519571Y-15498714D01*
X6529095Y-15517762D01*
X6529095Y-15565381D01*
X6519571Y-15584428D01*
X6510048Y-15593952D01*
X6491000Y-15603476D01*
X6433857Y-15603476D01*
X6414809Y-15593952D01*
X6405286Y-15584428D01*
X6710048Y-15403476D02*
X6614809Y-15403476D01*
X6605286Y-15498714D01*
X6614809Y-15489190D01*
X6633857Y-15479667D01*
X6681476Y-15479667D01*
X6700524Y-15489190D01*
X6710048Y-15498714D01*
X6719571Y-15517762D01*
X6719571Y-15565381D01*
X6710048Y-15584428D01*
X6700524Y-15593952D01*
X6681476Y-15603476D01*
X6633857Y-15603476D01*
X6614809Y-15593952D01*
X6605286Y-15584428D01*
X6843381Y-15403476D02*
X6862428Y-15403476D01*
X6881476Y-15413000D01*
X6891000Y-15422524D01*
X6900524Y-15441571D01*
X6910048Y-15479667D01*
X6910048Y-15527286D01*
X6900524Y-15565381D01*
X6891000Y-15584428D01*
X6881476Y-15593952D01*
X6862428Y-15603476D01*
X6843381Y-15603476D01*
X6824333Y-15593952D01*
X6814809Y-15584428D01*
X6805286Y-15565381D01*
X6795762Y-15527286D01*
X6795762Y-15479667D01*
X6805286Y-15441571D01*
X6814809Y-15422524D01*
X6824333Y-15413000D01*
X6843381Y-15403476D01*
X6995762Y-15603476D02*
X6995762Y-15470143D01*
X6995762Y-15489190D02*
X7005286Y-15479667D01*
X7024333Y-15470143D01*
X7052905Y-15470143D01*
X7071952Y-15479667D01*
X7081476Y-15498714D01*
X7081476Y-15603476D01*
X7081476Y-15498714D02*
X7091000Y-15479667D01*
X7110048Y-15470143D01*
X7138619Y-15470143D01*
X7157667Y-15479667D01*
X7167190Y-15498714D01*
X7167190Y-15603476D01*
X7262428Y-15603476D02*
X7262428Y-15470143D01*
X7262428Y-15489190D02*
X7271952Y-15479667D01*
X7291000Y-15470143D01*
X7319571Y-15470143D01*
X7338619Y-15479667D01*
X7348143Y-15498714D01*
X7348143Y-15603476D01*
X7348143Y-15498714D02*
X7357667Y-15479667D01*
X7376714Y-15470143D01*
X7405286Y-15470143D01*
X7424333Y-15479667D01*
X7433857Y-15498714D01*
X7433857Y-15603476D01*
X7824333Y-15393952D02*
X7652905Y-15651095D01*
X8081476Y-15403476D02*
X8100524Y-15403476D01*
X8119571Y-15413000D01*
X8129095Y-15422524D01*
X8138619Y-15441571D01*
X8148143Y-15479667D01*
X8148143Y-15527286D01*
X8138619Y-15565381D01*
X8129095Y-15584428D01*
X8119571Y-15593952D01*
X8100524Y-15603476D01*
X8081476Y-15603476D01*
X8062428Y-15593952D01*
X8052905Y-15584428D01*
X8043381Y-15565381D01*
X8033857Y-15527286D01*
X8033857Y-15479667D01*
X8043381Y-15441571D01*
X8052905Y-15422524D01*
X8062428Y-15413000D01*
X8081476Y-15403476D01*
X8233857Y-15584428D02*
X8243381Y-15593952D01*
X8233857Y-15603476D01*
X8224333Y-15593952D01*
X8233857Y-15584428D01*
X8233857Y-15603476D01*
X8367190Y-15403476D02*
X8386238Y-15403476D01*
X8405286Y-15413000D01*
X8414810Y-15422524D01*
X8424333Y-15441571D01*
X8433857Y-15479667D01*
X8433857Y-15527286D01*
X8424333Y-15565381D01*
X8414810Y-15584428D01*
X8405286Y-15593952D01*
X8386238Y-15603476D01*
X8367190Y-15603476D01*
X8348143Y-15593952D01*
X8338619Y-15584428D01*
X8329095Y-15565381D01*
X8319571Y-15527286D01*
X8319571Y-15479667D01*
X8329095Y-15441571D01*
X8338619Y-15422524D01*
X8348143Y-15413000D01*
X8367190Y-15403476D01*
X8614810Y-15403476D02*
X8519571Y-15403476D01*
X8510048Y-15498714D01*
X8519571Y-15489190D01*
X8538619Y-15479667D01*
X8586238Y-15479667D01*
X8605286Y-15489190D01*
X8614810Y-15498714D01*
X8624333Y-15517762D01*
X8624333Y-15565381D01*
X8614810Y-15584428D01*
X8605286Y-15593952D01*
X8586238Y-15603476D01*
X8538619Y-15603476D01*
X8519571Y-15593952D01*
X8510048Y-15584428D01*
X8691000Y-15403476D02*
X8814810Y-15403476D01*
X8748143Y-15479667D01*
X8776714Y-15479667D01*
X8795762Y-15489190D01*
X8805286Y-15498714D01*
X8814810Y-15517762D01*
X8814810Y-15565381D01*
X8805286Y-15584428D01*
X8795762Y-15593952D01*
X8776714Y-15603476D01*
X8719571Y-15603476D01*
X8700524Y-15593952D01*
X8691000Y-15584428D01*
X9005286Y-15603476D02*
X8891000Y-15603476D01*
X8948143Y-15603476D02*
X8948143Y-15403476D01*
X8929095Y-15432048D01*
X8910048Y-15451095D01*
X8891000Y-15460619D01*
X9081476Y-15403476D02*
X9081476Y-15441571D01*
X9157667Y-15403476D02*
X9157667Y-15441571D01*
X9452905Y-15679667D02*
X9443381Y-15670143D01*
X9424333Y-15641571D01*
X9414810Y-15622524D01*
X9405286Y-15593952D01*
X9395762Y-15546333D01*
X9395762Y-15508238D01*
X9405286Y-15460619D01*
X9414810Y-15432048D01*
X9424333Y-15413000D01*
X9443381Y-15384428D01*
X9452905Y-15374905D01*
X9614810Y-15470143D02*
X9614810Y-15603476D01*
X9567190Y-15393952D02*
X9519571Y-15536809D01*
X9643381Y-15536809D01*
X9871952Y-15603476D02*
X9871952Y-15403476D01*
X9957667Y-15603476D02*
X9957667Y-15498714D01*
X9948143Y-15479667D01*
X9929095Y-15470143D01*
X9900524Y-15470143D01*
X9881476Y-15479667D01*
X9871952Y-15489190D01*
X10081476Y-15603476D02*
X10062429Y-15593952D01*
X10052905Y-15584428D01*
X10043381Y-15565381D01*
X10043381Y-15508238D01*
X10052905Y-15489190D01*
X10062429Y-15479667D01*
X10081476Y-15470143D01*
X10110048Y-15470143D01*
X10129095Y-15479667D01*
X10138619Y-15489190D01*
X10148143Y-15508238D01*
X10148143Y-15565381D01*
X10138619Y-15584428D01*
X10129095Y-15593952D01*
X10110048Y-15603476D01*
X10081476Y-15603476D01*
X10262429Y-15603476D02*
X10243381Y-15593952D01*
X10233857Y-15574905D01*
X10233857Y-15403476D01*
X10414810Y-15593952D02*
X10395762Y-15603476D01*
X10357667Y-15603476D01*
X10338619Y-15593952D01*
X10329095Y-15574905D01*
X10329095Y-15498714D01*
X10338619Y-15479667D01*
X10357667Y-15470143D01*
X10395762Y-15470143D01*
X10414810Y-15479667D01*
X10424333Y-15498714D01*
X10424333Y-15517762D01*
X10329095Y-15536809D01*
X10500524Y-15593952D02*
X10519571Y-15603476D01*
X10557667Y-15603476D01*
X10576714Y-15593952D01*
X10586238Y-15574905D01*
X10586238Y-15565381D01*
X10576714Y-15546333D01*
X10557667Y-15536809D01*
X10529095Y-15536809D01*
X10510048Y-15527286D01*
X10500524Y-15508238D01*
X10500524Y-15498714D01*
X10510048Y-15479667D01*
X10529095Y-15470143D01*
X10557667Y-15470143D01*
X10576714Y-15479667D01*
X10652905Y-15679667D02*
X10662429Y-15670143D01*
X10681476Y-15641571D01*
X10691000Y-15622524D01*
X10700524Y-15593952D01*
X10710048Y-15546333D01*
X10710048Y-15508238D01*
X10700524Y-15460619D01*
X10691000Y-15432048D01*
X10681476Y-15413000D01*
X10662429Y-15384428D01*
X10652905Y-15374905D01*
D17*
X5731000Y-15702000D02*
X5881000Y-15852000D01*
X5881000Y-15702000D02*
X5731000Y-15852000D01*
X5806000Y-15702000D02*
X5806000Y-15852000D01*
X5731000Y-15777000D02*
X5881000Y-15777000D01*
D10*
X6243381Y-15867476D02*
X6129095Y-15867476D01*
X6186238Y-15867476D02*
X6186238Y-15667476D01*
X6167190Y-15696048D01*
X6148143Y-15715095D01*
X6129095Y-15724619D01*
X6329095Y-15848428D02*
X6338619Y-15857952D01*
X6329095Y-15867476D01*
X6319571Y-15857952D01*
X6329095Y-15848428D01*
X6329095Y-15867476D01*
X6519571Y-15667476D02*
X6424333Y-15667476D01*
X6414809Y-15762714D01*
X6424333Y-15753190D01*
X6443381Y-15743667D01*
X6491000Y-15743667D01*
X6510048Y-15753190D01*
X6519571Y-15762714D01*
X6529095Y-15781762D01*
X6529095Y-15829381D01*
X6519571Y-15848428D01*
X6510048Y-15857952D01*
X6491000Y-15867476D01*
X6443381Y-15867476D01*
X6424333Y-15857952D01*
X6414809Y-15848428D01*
X6652905Y-15667476D02*
X6671952Y-15667476D01*
X6691000Y-15677000D01*
X6700524Y-15686524D01*
X6710048Y-15705571D01*
X6719571Y-15743667D01*
X6719571Y-15791286D01*
X6710048Y-15829381D01*
X6700524Y-15848428D01*
X6691000Y-15857952D01*
X6671952Y-15867476D01*
X6652905Y-15867476D01*
X6633857Y-15857952D01*
X6624333Y-15848428D01*
X6614809Y-15829381D01*
X6605286Y-15791286D01*
X6605286Y-15743667D01*
X6614809Y-15705571D01*
X6624333Y-15686524D01*
X6633857Y-15677000D01*
X6652905Y-15667476D01*
X6843381Y-15667476D02*
X6862428Y-15667476D01*
X6881476Y-15677000D01*
X6891000Y-15686524D01*
X6900524Y-15705571D01*
X6910048Y-15743667D01*
X6910048Y-15791286D01*
X6900524Y-15829381D01*
X6891000Y-15848428D01*
X6881476Y-15857952D01*
X6862428Y-15867476D01*
X6843381Y-15867476D01*
X6824333Y-15857952D01*
X6814809Y-15848428D01*
X6805286Y-15829381D01*
X6795762Y-15791286D01*
X6795762Y-15743667D01*
X6805286Y-15705571D01*
X6814809Y-15686524D01*
X6824333Y-15677000D01*
X6843381Y-15667476D01*
X6995762Y-15867476D02*
X6995762Y-15734143D01*
X6995762Y-15753190D02*
X7005286Y-15743667D01*
X7024333Y-15734143D01*
X7052905Y-15734143D01*
X7071952Y-15743667D01*
X7081476Y-15762714D01*
X7081476Y-15867476D01*
X7081476Y-15762714D02*
X7091000Y-15743667D01*
X7110048Y-15734143D01*
X7138619Y-15734143D01*
X7157667Y-15743667D01*
X7167190Y-15762714D01*
X7167190Y-15867476D01*
X7262428Y-15867476D02*
X7262428Y-15734143D01*
X7262428Y-15753190D02*
X7271952Y-15743667D01*
X7291000Y-15734143D01*
X7319571Y-15734143D01*
X7338619Y-15743667D01*
X7348143Y-15762714D01*
X7348143Y-15867476D01*
X7348143Y-15762714D02*
X7357667Y-15743667D01*
X7376714Y-15734143D01*
X7405286Y-15734143D01*
X7424333Y-15743667D01*
X7433857Y-15762714D01*
X7433857Y-15867476D01*
X7824333Y-15657952D02*
X7652905Y-15915095D01*
X8081476Y-15667476D02*
X8100524Y-15667476D01*
X8119571Y-15677000D01*
X8129095Y-15686524D01*
X8138619Y-15705571D01*
X8148143Y-15743667D01*
X8148143Y-15791286D01*
X8138619Y-15829381D01*
X8129095Y-15848428D01*
X8119571Y-15857952D01*
X8100524Y-15867476D01*
X8081476Y-15867476D01*
X8062428Y-15857952D01*
X8052905Y-15848428D01*
X8043381Y-15829381D01*
X8033857Y-15791286D01*
X8033857Y-15743667D01*
X8043381Y-15705571D01*
X8052905Y-15686524D01*
X8062428Y-15677000D01*
X8081476Y-15667476D01*
X8233857Y-15848428D02*
X8243381Y-15857952D01*
X8233857Y-15867476D01*
X8224333Y-15857952D01*
X8233857Y-15848428D01*
X8233857Y-15867476D01*
X8367190Y-15667476D02*
X8386238Y-15667476D01*
X8405286Y-15677000D01*
X8414810Y-15686524D01*
X8424333Y-15705571D01*
X8433857Y-15743667D01*
X8433857Y-15791286D01*
X8424333Y-15829381D01*
X8414810Y-15848428D01*
X8405286Y-15857952D01*
X8386238Y-15867476D01*
X8367190Y-15867476D01*
X8348143Y-15857952D01*
X8338619Y-15848428D01*
X8329095Y-15829381D01*
X8319571Y-15791286D01*
X8319571Y-15743667D01*
X8329095Y-15705571D01*
X8338619Y-15686524D01*
X8348143Y-15677000D01*
X8367190Y-15667476D01*
X8614810Y-15667476D02*
X8519571Y-15667476D01*
X8510048Y-15762714D01*
X8519571Y-15753190D01*
X8538619Y-15743667D01*
X8586238Y-15743667D01*
X8605286Y-15753190D01*
X8614810Y-15762714D01*
X8624333Y-15781762D01*
X8624333Y-15829381D01*
X8614810Y-15848428D01*
X8605286Y-15857952D01*
X8586238Y-15867476D01*
X8538619Y-15867476D01*
X8519571Y-15857952D01*
X8510048Y-15848428D01*
X8719571Y-15867476D02*
X8757667Y-15867476D01*
X8776714Y-15857952D01*
X8786238Y-15848428D01*
X8805286Y-15819857D01*
X8814810Y-15781762D01*
X8814810Y-15705571D01*
X8805286Y-15686524D01*
X8795762Y-15677000D01*
X8776714Y-15667476D01*
X8738619Y-15667476D01*
X8719571Y-15677000D01*
X8710048Y-15686524D01*
X8700524Y-15705571D01*
X8700524Y-15753190D01*
X8710048Y-15772238D01*
X8719571Y-15781762D01*
X8738619Y-15791286D01*
X8776714Y-15791286D01*
X8795762Y-15781762D01*
X8805286Y-15772238D01*
X8814810Y-15753190D01*
X9005286Y-15867476D02*
X8891000Y-15867476D01*
X8948143Y-15867476D02*
X8948143Y-15667476D01*
X8929095Y-15696048D01*
X8910048Y-15715095D01*
X8891000Y-15724619D01*
X9081476Y-15667476D02*
X9081476Y-15705571D01*
X9157667Y-15667476D02*
X9157667Y-15705571D01*
X9452905Y-15943667D02*
X9443381Y-15934143D01*
X9424333Y-15905571D01*
X9414810Y-15886524D01*
X9405286Y-15857952D01*
X9395762Y-15810333D01*
X9395762Y-15772238D01*
X9405286Y-15724619D01*
X9414810Y-15696048D01*
X9424333Y-15677000D01*
X9443381Y-15648428D01*
X9452905Y-15638905D01*
X9519571Y-15686524D02*
X9529095Y-15677000D01*
X9548143Y-15667476D01*
X9595762Y-15667476D01*
X9614810Y-15677000D01*
X9624333Y-15686524D01*
X9633857Y-15705571D01*
X9633857Y-15724619D01*
X9624333Y-15753190D01*
X9510048Y-15867476D01*
X9633857Y-15867476D01*
X9805286Y-15734143D02*
X9805286Y-15867476D01*
X9757667Y-15657952D02*
X9710048Y-15800809D01*
X9833857Y-15800809D01*
X10062429Y-15867476D02*
X10062429Y-15667476D01*
X10148143Y-15867476D02*
X10148143Y-15762714D01*
X10138619Y-15743667D01*
X10119571Y-15734143D01*
X10091000Y-15734143D01*
X10071952Y-15743667D01*
X10062429Y-15753190D01*
X10271952Y-15867476D02*
X10252905Y-15857952D01*
X10243381Y-15848428D01*
X10233857Y-15829381D01*
X10233857Y-15772238D01*
X10243381Y-15753190D01*
X10252905Y-15743667D01*
X10271952Y-15734143D01*
X10300524Y-15734143D01*
X10319571Y-15743667D01*
X10329095Y-15753190D01*
X10338619Y-15772238D01*
X10338619Y-15829381D01*
X10329095Y-15848428D01*
X10319571Y-15857952D01*
X10300524Y-15867476D01*
X10271952Y-15867476D01*
X10452905Y-15867476D02*
X10433857Y-15857952D01*
X10424333Y-15838905D01*
X10424333Y-15667476D01*
X10605286Y-15857952D02*
X10586238Y-15867476D01*
X10548143Y-15867476D01*
X10529095Y-15857952D01*
X10519571Y-15838905D01*
X10519571Y-15762714D01*
X10529095Y-15743667D01*
X10548143Y-15734143D01*
X10586238Y-15734143D01*
X10605286Y-15743667D01*
X10614810Y-15762714D01*
X10614810Y-15781762D01*
X10519571Y-15800809D01*
X10691000Y-15857952D02*
X10710048Y-15867476D01*
X10748143Y-15867476D01*
X10767190Y-15857952D01*
X10776714Y-15838905D01*
X10776714Y-15829381D01*
X10767190Y-15810333D01*
X10748143Y-15800809D01*
X10719571Y-15800809D01*
X10700524Y-15791286D01*
X10691000Y-15772238D01*
X10691000Y-15762714D01*
X10700524Y-15743667D01*
X10719571Y-15734143D01*
X10748143Y-15734143D01*
X10767190Y-15743667D01*
X10843381Y-15943667D02*
X10852905Y-15934143D01*
X10871952Y-15905571D01*
X10881476Y-15886524D01*
X10891000Y-15857952D01*
X10900524Y-15810333D01*
X10900524Y-15772238D01*
X10891000Y-15724619D01*
X10881476Y-15696048D01*
X10871952Y-15677000D01*
X10852905Y-15648428D01*
X10843381Y-15638905D01*
X5681000Y-15947000D02*
X5881000Y-16147000D01*
X5881000Y-15947000D02*
X5681000Y-16147000D01*
X5851711Y-16117711D02*
X5851711Y-15976289D01*
X5710289Y-15976289D01*
X5710289Y-16117711D01*
X5851711Y-16117711D01*
X6129095Y-15956524D02*
X6138619Y-15947000D01*
X6157667Y-15937476D01*
X6205286Y-15937476D01*
X6224333Y-15947000D01*
X6233857Y-15956524D01*
X6243381Y-15975571D01*
X6243381Y-15994619D01*
X6233857Y-16023190D01*
X6119571Y-16137476D01*
X6243381Y-16137476D01*
X6329095Y-16118428D02*
X6338619Y-16127952D01*
X6329095Y-16137476D01*
X6319571Y-16127952D01*
X6329095Y-16118428D01*
X6329095Y-16137476D01*
X6405286Y-15937476D02*
X6529095Y-15937476D01*
X6462428Y-16013667D01*
X6491000Y-16013667D01*
X6510048Y-16023190D01*
X6519571Y-16032714D01*
X6529095Y-16051762D01*
X6529095Y-16099381D01*
X6519571Y-16118428D01*
X6510048Y-16127952D01*
X6491000Y-16137476D01*
X6433857Y-16137476D01*
X6414809Y-16127952D01*
X6405286Y-16118428D01*
X6595762Y-15937476D02*
X6719571Y-15937476D01*
X6652905Y-16013667D01*
X6681476Y-16013667D01*
X6700524Y-16023190D01*
X6710048Y-16032714D01*
X6719571Y-16051762D01*
X6719571Y-16099381D01*
X6710048Y-16118428D01*
X6700524Y-16127952D01*
X6681476Y-16137476D01*
X6624333Y-16137476D01*
X6605286Y-16127952D01*
X6595762Y-16118428D01*
X6843381Y-15937476D02*
X6862428Y-15937476D01*
X6881476Y-15947000D01*
X6891000Y-15956524D01*
X6900524Y-15975571D01*
X6910048Y-16013667D01*
X6910048Y-16061286D01*
X6900524Y-16099381D01*
X6891000Y-16118428D01*
X6881476Y-16127952D01*
X6862428Y-16137476D01*
X6843381Y-16137476D01*
X6824333Y-16127952D01*
X6814809Y-16118428D01*
X6805286Y-16099381D01*
X6795762Y-16061286D01*
X6795762Y-16013667D01*
X6805286Y-15975571D01*
X6814809Y-15956524D01*
X6824333Y-15947000D01*
X6843381Y-15937476D01*
X6995762Y-16137476D02*
X6995762Y-16004143D01*
X6995762Y-16023190D02*
X7005286Y-16013667D01*
X7024333Y-16004143D01*
X7052905Y-16004143D01*
X7071952Y-16013667D01*
X7081476Y-16032714D01*
X7081476Y-16137476D01*
X7081476Y-16032714D02*
X7091000Y-16013667D01*
X7110048Y-16004143D01*
X7138619Y-16004143D01*
X7157667Y-16013667D01*
X7167190Y-16032714D01*
X7167190Y-16137476D01*
X7262428Y-16137476D02*
X7262428Y-16004143D01*
X7262428Y-16023190D02*
X7271952Y-16013667D01*
X7291000Y-16004143D01*
X7319571Y-16004143D01*
X7338619Y-16013667D01*
X7348143Y-16032714D01*
X7348143Y-16137476D01*
X7348143Y-16032714D02*
X7357667Y-16013667D01*
X7376714Y-16004143D01*
X7405286Y-16004143D01*
X7424333Y-16013667D01*
X7433857Y-16032714D01*
X7433857Y-16137476D01*
X7824333Y-15927952D02*
X7652905Y-16185095D01*
X8081476Y-15937476D02*
X8100524Y-15937476D01*
X8119571Y-15947000D01*
X8129095Y-15956524D01*
X8138619Y-15975571D01*
X8148143Y-16013667D01*
X8148143Y-16061286D01*
X8138619Y-16099381D01*
X8129095Y-16118428D01*
X8119571Y-16127952D01*
X8100524Y-16137476D01*
X8081476Y-16137476D01*
X8062428Y-16127952D01*
X8052905Y-16118428D01*
X8043381Y-16099381D01*
X8033857Y-16061286D01*
X8033857Y-16013667D01*
X8043381Y-15975571D01*
X8052905Y-15956524D01*
X8062428Y-15947000D01*
X8081476Y-15937476D01*
X8233857Y-16118428D02*
X8243381Y-16127952D01*
X8233857Y-16137476D01*
X8224333Y-16127952D01*
X8233857Y-16118428D01*
X8233857Y-16137476D01*
X8367190Y-15937476D02*
X8386238Y-15937476D01*
X8405286Y-15947000D01*
X8414810Y-15956524D01*
X8424333Y-15975571D01*
X8433857Y-16013667D01*
X8433857Y-16061286D01*
X8424333Y-16099381D01*
X8414810Y-16118428D01*
X8405286Y-16127952D01*
X8386238Y-16137476D01*
X8367190Y-16137476D01*
X8348143Y-16127952D01*
X8338619Y-16118428D01*
X8329095Y-16099381D01*
X8319571Y-16061286D01*
X8319571Y-16013667D01*
X8329095Y-15975571D01*
X8338619Y-15956524D01*
X8348143Y-15947000D01*
X8367190Y-15937476D01*
X8529095Y-16137476D02*
X8567190Y-16137476D01*
X8586238Y-16127952D01*
X8595762Y-16118428D01*
X8614810Y-16089857D01*
X8624333Y-16051762D01*
X8624333Y-15975571D01*
X8614810Y-15956524D01*
X8605286Y-15947000D01*
X8586238Y-15937476D01*
X8548143Y-15937476D01*
X8529095Y-15947000D01*
X8519571Y-15956524D01*
X8510048Y-15975571D01*
X8510048Y-16023190D01*
X8519571Y-16042238D01*
X8529095Y-16051762D01*
X8548143Y-16061286D01*
X8586238Y-16061286D01*
X8605286Y-16051762D01*
X8614810Y-16042238D01*
X8624333Y-16023190D01*
X8814810Y-16137476D02*
X8700524Y-16137476D01*
X8757667Y-16137476D02*
X8757667Y-15937476D01*
X8738619Y-15966048D01*
X8719571Y-15985095D01*
X8700524Y-15994619D01*
X8881476Y-15937476D02*
X9014810Y-15937476D01*
X8929095Y-16137476D01*
X9081476Y-15937476D02*
X9081476Y-15975571D01*
X9157667Y-15937476D02*
X9157667Y-15975571D01*
X9452905Y-16213667D02*
X9443381Y-16204143D01*
X9424333Y-16175571D01*
X9414810Y-16156524D01*
X9405286Y-16127952D01*
X9395762Y-16080333D01*
X9395762Y-16042238D01*
X9405286Y-15994619D01*
X9414810Y-15966048D01*
X9424333Y-15947000D01*
X9443381Y-15918428D01*
X9452905Y-15908905D01*
X9519571Y-15956524D02*
X9529095Y-15947000D01*
X9548143Y-15937476D01*
X9595762Y-15937476D01*
X9614810Y-15947000D01*
X9624333Y-15956524D01*
X9633857Y-15975571D01*
X9633857Y-15994619D01*
X9624333Y-16023190D01*
X9510048Y-16137476D01*
X9633857Y-16137476D01*
X9871952Y-16137476D02*
X9871952Y-15937476D01*
X9957667Y-16137476D02*
X9957667Y-16032714D01*
X9948143Y-16013667D01*
X9929095Y-16004143D01*
X9900524Y-16004143D01*
X9881476Y-16013667D01*
X9871952Y-16023190D01*
X10081476Y-16137476D02*
X10062429Y-16127952D01*
X10052905Y-16118428D01*
X10043381Y-16099381D01*
X10043381Y-16042238D01*
X10052905Y-16023190D01*
X10062429Y-16013667D01*
X10081476Y-16004143D01*
X10110048Y-16004143D01*
X10129095Y-16013667D01*
X10138619Y-16023190D01*
X10148143Y-16042238D01*
X10148143Y-16099381D01*
X10138619Y-16118428D01*
X10129095Y-16127952D01*
X10110048Y-16137476D01*
X10081476Y-16137476D01*
X10262429Y-16137476D02*
X10243381Y-16127952D01*
X10233857Y-16108905D01*
X10233857Y-15937476D01*
X10414810Y-16127952D02*
X10395762Y-16137476D01*
X10357667Y-16137476D01*
X10338619Y-16127952D01*
X10329095Y-16108905D01*
X10329095Y-16032714D01*
X10338619Y-16013667D01*
X10357667Y-16004143D01*
X10395762Y-16004143D01*
X10414810Y-16013667D01*
X10424333Y-16032714D01*
X10424333Y-16051762D01*
X10329095Y-16070809D01*
X10500524Y-16127952D02*
X10519571Y-16137476D01*
X10557667Y-16137476D01*
X10576714Y-16127952D01*
X10586238Y-16108905D01*
X10586238Y-16099381D01*
X10576714Y-16080333D01*
X10557667Y-16070809D01*
X10529095Y-16070809D01*
X10510048Y-16061286D01*
X10500524Y-16042238D01*
X10500524Y-16032714D01*
X10510048Y-16013667D01*
X10529095Y-16004143D01*
X10557667Y-16004143D01*
X10576714Y-16013667D01*
X10652905Y-16213667D02*
X10662429Y-16204143D01*
X10681476Y-16175571D01*
X10691000Y-16156524D01*
X10700524Y-16127952D01*
X10710048Y-16080333D01*
X10710048Y-16042238D01*
X10700524Y-15994619D01*
X10691000Y-15966048D01*
X10681476Y-15947000D01*
X10662429Y-15918428D01*
X10652905Y-15908905D01*
X5681000Y-16267000D02*
X5881000Y-16467000D01*
X5881000Y-16267000D02*
X5681000Y-16467000D01*
X5781000Y-16467000D02*
X5881000Y-16367000D01*
X5781000Y-16267000D01*
X5681000Y-16367000D01*
X5781000Y-16467000D01*
X6119571Y-16257476D02*
X6243381Y-16257476D01*
X6176714Y-16333667D01*
X6205286Y-16333667D01*
X6224333Y-16343190D01*
X6233857Y-16352714D01*
X6243381Y-16371762D01*
X6243381Y-16419381D01*
X6233857Y-16438428D01*
X6224333Y-16447952D01*
X6205286Y-16457476D01*
X6148143Y-16457476D01*
X6129095Y-16447952D01*
X6119571Y-16438428D01*
X6329095Y-16438428D02*
X6338619Y-16447952D01*
X6329095Y-16457476D01*
X6319571Y-16447952D01*
X6329095Y-16438428D01*
X6329095Y-16457476D01*
X6414809Y-16276524D02*
X6424333Y-16267000D01*
X6443381Y-16257476D01*
X6491000Y-16257476D01*
X6510048Y-16267000D01*
X6519571Y-16276524D01*
X6529095Y-16295571D01*
X6529095Y-16314619D01*
X6519571Y-16343190D01*
X6405286Y-16457476D01*
X6529095Y-16457476D01*
X6652905Y-16257476D02*
X6671952Y-16257476D01*
X6691000Y-16267000D01*
X6700524Y-16276524D01*
X6710048Y-16295571D01*
X6719571Y-16333667D01*
X6719571Y-16381286D01*
X6710048Y-16419381D01*
X6700524Y-16438428D01*
X6691000Y-16447952D01*
X6671952Y-16457476D01*
X6652905Y-16457476D01*
X6633857Y-16447952D01*
X6624333Y-16438428D01*
X6614809Y-16419381D01*
X6605286Y-16381286D01*
X6605286Y-16333667D01*
X6614809Y-16295571D01*
X6624333Y-16276524D01*
X6633857Y-16267000D01*
X6652905Y-16257476D01*
X6843381Y-16257476D02*
X6862428Y-16257476D01*
X6881476Y-16267000D01*
X6891000Y-16276524D01*
X6900524Y-16295571D01*
X6910048Y-16333667D01*
X6910048Y-16381286D01*
X6900524Y-16419381D01*
X6891000Y-16438428D01*
X6881476Y-16447952D01*
X6862428Y-16457476D01*
X6843381Y-16457476D01*
X6824333Y-16447952D01*
X6814809Y-16438428D01*
X6805286Y-16419381D01*
X6795762Y-16381286D01*
X6795762Y-16333667D01*
X6805286Y-16295571D01*
X6814809Y-16276524D01*
X6824333Y-16267000D01*
X6843381Y-16257476D01*
X6995762Y-16457476D02*
X6995762Y-16324143D01*
X6995762Y-16343190D02*
X7005286Y-16333667D01*
X7024333Y-16324143D01*
X7052905Y-16324143D01*
X7071952Y-16333667D01*
X7081476Y-16352714D01*
X7081476Y-16457476D01*
X7081476Y-16352714D02*
X7091000Y-16333667D01*
X7110048Y-16324143D01*
X7138619Y-16324143D01*
X7157667Y-16333667D01*
X7167190Y-16352714D01*
X7167190Y-16457476D01*
X7262428Y-16457476D02*
X7262428Y-16324143D01*
X7262428Y-16343190D02*
X7271952Y-16333667D01*
X7291000Y-16324143D01*
X7319571Y-16324143D01*
X7338619Y-16333667D01*
X7348143Y-16352714D01*
X7348143Y-16457476D01*
X7348143Y-16352714D02*
X7357667Y-16333667D01*
X7376714Y-16324143D01*
X7405286Y-16324143D01*
X7424333Y-16333667D01*
X7433857Y-16352714D01*
X7433857Y-16457476D01*
X7824333Y-16247952D02*
X7652905Y-16505095D01*
X8081476Y-16257476D02*
X8100524Y-16257476D01*
X8119571Y-16267000D01*
X8129095Y-16276524D01*
X8138619Y-16295571D01*
X8148143Y-16333667D01*
X8148143Y-16381286D01*
X8138619Y-16419381D01*
X8129095Y-16438428D01*
X8119571Y-16447952D01*
X8100524Y-16457476D01*
X8081476Y-16457476D01*
X8062428Y-16447952D01*
X8052905Y-16438428D01*
X8043381Y-16419381D01*
X8033857Y-16381286D01*
X8033857Y-16333667D01*
X8043381Y-16295571D01*
X8052905Y-16276524D01*
X8062428Y-16267000D01*
X8081476Y-16257476D01*
X8233857Y-16438428D02*
X8243381Y-16447952D01*
X8233857Y-16457476D01*
X8224333Y-16447952D01*
X8233857Y-16438428D01*
X8233857Y-16457476D01*
X8433857Y-16457476D02*
X8319571Y-16457476D01*
X8376714Y-16457476D02*
X8376714Y-16257476D01*
X8357667Y-16286048D01*
X8338619Y-16305095D01*
X8319571Y-16314619D01*
X8510048Y-16276524D02*
X8519571Y-16267000D01*
X8538619Y-16257476D01*
X8586238Y-16257476D01*
X8605286Y-16267000D01*
X8614810Y-16276524D01*
X8624333Y-16295571D01*
X8624333Y-16314619D01*
X8614810Y-16343190D01*
X8500524Y-16457476D01*
X8624333Y-16457476D01*
X8795762Y-16257476D02*
X8757667Y-16257476D01*
X8738619Y-16267000D01*
X8729095Y-16276524D01*
X8710048Y-16305095D01*
X8700524Y-16343190D01*
X8700524Y-16419381D01*
X8710048Y-16438428D01*
X8719571Y-16447952D01*
X8738619Y-16457476D01*
X8776714Y-16457476D01*
X8795762Y-16447952D01*
X8805286Y-16438428D01*
X8814810Y-16419381D01*
X8814810Y-16371762D01*
X8805286Y-16352714D01*
X8795762Y-16343190D01*
X8776714Y-16333667D01*
X8738619Y-16333667D01*
X8719571Y-16343190D01*
X8710048Y-16352714D01*
X8700524Y-16371762D01*
X8938619Y-16257476D02*
X8957667Y-16257476D01*
X8976714Y-16267000D01*
X8986238Y-16276524D01*
X8995762Y-16295571D01*
X9005286Y-16333667D01*
X9005286Y-16381286D01*
X8995762Y-16419381D01*
X8986238Y-16438428D01*
X8976714Y-16447952D01*
X8957667Y-16457476D01*
X8938619Y-16457476D01*
X8919571Y-16447952D01*
X8910048Y-16438428D01*
X8900524Y-16419381D01*
X8891000Y-16381286D01*
X8891000Y-16333667D01*
X8900524Y-16295571D01*
X8910048Y-16276524D01*
X8919571Y-16267000D01*
X8938619Y-16257476D01*
X9081476Y-16257476D02*
X9081476Y-16295571D01*
X9157667Y-16257476D02*
X9157667Y-16295571D01*
X9452905Y-16533667D02*
X9443381Y-16524143D01*
X9424333Y-16495571D01*
X9414810Y-16476524D01*
X9405286Y-16447952D01*
X9395762Y-16400333D01*
X9395762Y-16362238D01*
X9405286Y-16314619D01*
X9414810Y-16286048D01*
X9424333Y-16267000D01*
X9443381Y-16238428D01*
X9452905Y-16228905D01*
X9510048Y-16257476D02*
X9633857Y-16257476D01*
X9567190Y-16333667D01*
X9595762Y-16333667D01*
X9614810Y-16343190D01*
X9624333Y-16352714D01*
X9633857Y-16371762D01*
X9633857Y-16419381D01*
X9624333Y-16438428D01*
X9614810Y-16447952D01*
X9595762Y-16457476D01*
X9538619Y-16457476D01*
X9519571Y-16447952D01*
X9510048Y-16438428D01*
X9871952Y-16457476D02*
X9871952Y-16257476D01*
X9957667Y-16457476D02*
X9957667Y-16352714D01*
X9948143Y-16333667D01*
X9929095Y-16324143D01*
X9900524Y-16324143D01*
X9881476Y-16333667D01*
X9871952Y-16343190D01*
X10081476Y-16457476D02*
X10062429Y-16447952D01*
X10052905Y-16438428D01*
X10043381Y-16419381D01*
X10043381Y-16362238D01*
X10052905Y-16343190D01*
X10062429Y-16333667D01*
X10081476Y-16324143D01*
X10110048Y-16324143D01*
X10129095Y-16333667D01*
X10138619Y-16343190D01*
X10148143Y-16362238D01*
X10148143Y-16419381D01*
X10138619Y-16438428D01*
X10129095Y-16447952D01*
X10110048Y-16457476D01*
X10081476Y-16457476D01*
X10262429Y-16457476D02*
X10243381Y-16447952D01*
X10233857Y-16428905D01*
X10233857Y-16257476D01*
X10414810Y-16447952D02*
X10395762Y-16457476D01*
X10357667Y-16457476D01*
X10338619Y-16447952D01*
X10329095Y-16428905D01*
X10329095Y-16352714D01*
X10338619Y-16333667D01*
X10357667Y-16324143D01*
X10395762Y-16324143D01*
X10414810Y-16333667D01*
X10424333Y-16352714D01*
X10424333Y-16371762D01*
X10329095Y-16390809D01*
X10500524Y-16447952D02*
X10519571Y-16457476D01*
X10557667Y-16457476D01*
X10576714Y-16447952D01*
X10586238Y-16428905D01*
X10586238Y-16419381D01*
X10576714Y-16400333D01*
X10557667Y-16390809D01*
X10529095Y-16390809D01*
X10510048Y-16381286D01*
X10500524Y-16362238D01*
X10500524Y-16352714D01*
X10510048Y-16333667D01*
X10529095Y-16324143D01*
X10557667Y-16324143D01*
X10576714Y-16333667D01*
X10652905Y-16533667D02*
X10662429Y-16524143D01*
X10681476Y-16495571D01*
X10691000Y-16476524D01*
X10700524Y-16447952D01*
X10710048Y-16400333D01*
X10710048Y-16362238D01*
X10700524Y-16314619D01*
X10691000Y-16286048D01*
X10681476Y-16267000D01*
X10662429Y-16238428D01*
X10652905Y-16228905D01*
X5781000Y-16587000D02*
X5781000Y-16787000D01*
X5681000Y-16687000D02*
X5881000Y-16687000D01*
X5881000Y-16687000D02*
G75*
G03*
X5881000Y-16687000I-100000J0D01*
G01*
X6119571Y-16577476D02*
X6243381Y-16577476D01*
X6176714Y-16653667D01*
X6205286Y-16653667D01*
X6224333Y-16663190D01*
X6233857Y-16672714D01*
X6243381Y-16691762D01*
X6243381Y-16739381D01*
X6233857Y-16758428D01*
X6224333Y-16767952D01*
X6205286Y-16777476D01*
X6148143Y-16777476D01*
X6129095Y-16767952D01*
X6119571Y-16758428D01*
X6329095Y-16758428D02*
X6338619Y-16767952D01*
X6329095Y-16777476D01*
X6319571Y-16767952D01*
X6329095Y-16758428D01*
X6329095Y-16777476D01*
X6519571Y-16577476D02*
X6424333Y-16577476D01*
X6414809Y-16672714D01*
X6424333Y-16663190D01*
X6443381Y-16653667D01*
X6491000Y-16653667D01*
X6510048Y-16663190D01*
X6519571Y-16672714D01*
X6529095Y-16691762D01*
X6529095Y-16739381D01*
X6519571Y-16758428D01*
X6510048Y-16767952D01*
X6491000Y-16777476D01*
X6443381Y-16777476D01*
X6424333Y-16767952D01*
X6414809Y-16758428D01*
X6652905Y-16577476D02*
X6671952Y-16577476D01*
X6691000Y-16587000D01*
X6700524Y-16596524D01*
X6710048Y-16615571D01*
X6719571Y-16653667D01*
X6719571Y-16701286D01*
X6710048Y-16739381D01*
X6700524Y-16758428D01*
X6691000Y-16767952D01*
X6671952Y-16777476D01*
X6652905Y-16777476D01*
X6633857Y-16767952D01*
X6624333Y-16758428D01*
X6614809Y-16739381D01*
X6605286Y-16701286D01*
X6605286Y-16653667D01*
X6614809Y-16615571D01*
X6624333Y-16596524D01*
X6633857Y-16587000D01*
X6652905Y-16577476D01*
X6843381Y-16577476D02*
X6862428Y-16577476D01*
X6881476Y-16587000D01*
X6891000Y-16596524D01*
X6900524Y-16615571D01*
X6910048Y-16653667D01*
X6910048Y-16701286D01*
X6900524Y-16739381D01*
X6891000Y-16758428D01*
X6881476Y-16767952D01*
X6862428Y-16777476D01*
X6843381Y-16777476D01*
X6824333Y-16767952D01*
X6814809Y-16758428D01*
X6805286Y-16739381D01*
X6795762Y-16701286D01*
X6795762Y-16653667D01*
X6805286Y-16615571D01*
X6814809Y-16596524D01*
X6824333Y-16587000D01*
X6843381Y-16577476D01*
X6995762Y-16777476D02*
X6995762Y-16644143D01*
X6995762Y-16663190D02*
X7005286Y-16653667D01*
X7024333Y-16644143D01*
X7052905Y-16644143D01*
X7071952Y-16653667D01*
X7081476Y-16672714D01*
X7081476Y-16777476D01*
X7081476Y-16672714D02*
X7091000Y-16653667D01*
X7110048Y-16644143D01*
X7138619Y-16644143D01*
X7157667Y-16653667D01*
X7167190Y-16672714D01*
X7167190Y-16777476D01*
X7262428Y-16777476D02*
X7262428Y-16644143D01*
X7262428Y-16663190D02*
X7271952Y-16653667D01*
X7291000Y-16644143D01*
X7319571Y-16644143D01*
X7338619Y-16653667D01*
X7348143Y-16672714D01*
X7348143Y-16777476D01*
X7348143Y-16672714D02*
X7357667Y-16653667D01*
X7376714Y-16644143D01*
X7405286Y-16644143D01*
X7424333Y-16653667D01*
X7433857Y-16672714D01*
X7433857Y-16777476D01*
X7824333Y-16567952D02*
X7652905Y-16825095D01*
X8081476Y-16577476D02*
X8100524Y-16577476D01*
X8119571Y-16587000D01*
X8129095Y-16596524D01*
X8138619Y-16615571D01*
X8148143Y-16653667D01*
X8148143Y-16701286D01*
X8138619Y-16739381D01*
X8129095Y-16758428D01*
X8119571Y-16767952D01*
X8100524Y-16777476D01*
X8081476Y-16777476D01*
X8062428Y-16767952D01*
X8052905Y-16758428D01*
X8043381Y-16739381D01*
X8033857Y-16701286D01*
X8033857Y-16653667D01*
X8043381Y-16615571D01*
X8052905Y-16596524D01*
X8062428Y-16587000D01*
X8081476Y-16577476D01*
X8233857Y-16758428D02*
X8243381Y-16767952D01*
X8233857Y-16777476D01*
X8224333Y-16767952D01*
X8233857Y-16758428D01*
X8233857Y-16777476D01*
X8433857Y-16777476D02*
X8319571Y-16777476D01*
X8376714Y-16777476D02*
X8376714Y-16577476D01*
X8357667Y-16606048D01*
X8338619Y-16625095D01*
X8319571Y-16634619D01*
X8500524Y-16577476D02*
X8624333Y-16577476D01*
X8557667Y-16653667D01*
X8586238Y-16653667D01*
X8605286Y-16663190D01*
X8614810Y-16672714D01*
X8624333Y-16691762D01*
X8624333Y-16739381D01*
X8614810Y-16758428D01*
X8605286Y-16767952D01*
X8586238Y-16777476D01*
X8529095Y-16777476D01*
X8510048Y-16767952D01*
X8500524Y-16758428D01*
X8691000Y-16577476D02*
X8824333Y-16577476D01*
X8738619Y-16777476D01*
X8929095Y-16663190D02*
X8910048Y-16653667D01*
X8900524Y-16644143D01*
X8891000Y-16625095D01*
X8891000Y-16615571D01*
X8900524Y-16596524D01*
X8910048Y-16587000D01*
X8929095Y-16577476D01*
X8967190Y-16577476D01*
X8986238Y-16587000D01*
X8995762Y-16596524D01*
X9005286Y-16615571D01*
X9005286Y-16625095D01*
X8995762Y-16644143D01*
X8986238Y-16653667D01*
X8967190Y-16663190D01*
X8929095Y-16663190D01*
X8910048Y-16672714D01*
X8900524Y-16682238D01*
X8891000Y-16701286D01*
X8891000Y-16739381D01*
X8900524Y-16758428D01*
X8910048Y-16767952D01*
X8929095Y-16777476D01*
X8967190Y-16777476D01*
X8986238Y-16767952D01*
X8995762Y-16758428D01*
X9005286Y-16739381D01*
X9005286Y-16701286D01*
X8995762Y-16682238D01*
X8986238Y-16672714D01*
X8967190Y-16663190D01*
X9081476Y-16577476D02*
X9081476Y-16615571D01*
X9157667Y-16577476D02*
X9157667Y-16615571D01*
X9452905Y-16853667D02*
X9443381Y-16844143D01*
X9424333Y-16815571D01*
X9414810Y-16796524D01*
X9405286Y-16767952D01*
X9395762Y-16720333D01*
X9395762Y-16682238D01*
X9405286Y-16634619D01*
X9414810Y-16606048D01*
X9424333Y-16587000D01*
X9443381Y-16558428D01*
X9452905Y-16548905D01*
X9614810Y-16644143D02*
X9614810Y-16777476D01*
X9567190Y-16567952D02*
X9519571Y-16710809D01*
X9643381Y-16710809D01*
X9871952Y-16777476D02*
X9871952Y-16577476D01*
X9957667Y-16777476D02*
X9957667Y-16672714D01*
X9948143Y-16653667D01*
X9929095Y-16644143D01*
X9900524Y-16644143D01*
X9881476Y-16653667D01*
X9871952Y-16663190D01*
X10081476Y-16777476D02*
X10062429Y-16767952D01*
X10052905Y-16758428D01*
X10043381Y-16739381D01*
X10043381Y-16682238D01*
X10052905Y-16663190D01*
X10062429Y-16653667D01*
X10081476Y-16644143D01*
X10110048Y-16644143D01*
X10129095Y-16653667D01*
X10138619Y-16663190D01*
X10148143Y-16682238D01*
X10148143Y-16739381D01*
X10138619Y-16758428D01*
X10129095Y-16767952D01*
X10110048Y-16777476D01*
X10081476Y-16777476D01*
X10262429Y-16777476D02*
X10243381Y-16767952D01*
X10233857Y-16748905D01*
X10233857Y-16577476D01*
X10414810Y-16767952D02*
X10395762Y-16777476D01*
X10357667Y-16777476D01*
X10338619Y-16767952D01*
X10329095Y-16748905D01*
X10329095Y-16672714D01*
X10338619Y-16653667D01*
X10357667Y-16644143D01*
X10395762Y-16644143D01*
X10414810Y-16653667D01*
X10424333Y-16672714D01*
X10424333Y-16691762D01*
X10329095Y-16710809D01*
X10500524Y-16767952D02*
X10519571Y-16777476D01*
X10557667Y-16777476D01*
X10576714Y-16767952D01*
X10586238Y-16748905D01*
X10586238Y-16739381D01*
X10576714Y-16720333D01*
X10557667Y-16710809D01*
X10529095Y-16710809D01*
X10510048Y-16701286D01*
X10500524Y-16682238D01*
X10500524Y-16672714D01*
X10510048Y-16653667D01*
X10529095Y-16644143D01*
X10557667Y-16644143D01*
X10576714Y-16653667D01*
X10652905Y-16853667D02*
X10662429Y-16844143D01*
X10681476Y-16815571D01*
X10691000Y-16796524D01*
X10700524Y-16767952D01*
X10710048Y-16720333D01*
X10710048Y-16682238D01*
X10700524Y-16634619D01*
X10691000Y-16606048D01*
X10681476Y-16587000D01*
X10662429Y-16558428D01*
X10652905Y-16548905D01*
M02*
